<svg xmlns="http://www.w3.org/2000/svg" data-name="Layer 1" viewBox="1.3302426611537368 2.756008426829417 7.340819064192328 4.488323479216136" x="0px" y="0px"><title>KAMASUTRA</title><path d="M3.69263,6.26584c-.03227.01312-.03642.03839-.059.06024-.027.02613-.09763.02772-.13359.03377a1.59473,1.59473,0,0,0-.26728.05056.00957.00957,0,0,0,.00053.01757.76894.76894,0,0,0,.31-.00449.31157.31157,0,0,0,.12992-.03234.1519.1519,0,0,0,.051-.09562A.02384.02384,0,0,0,3.69263,6.26584Z" /><path d="M5.1959,7.01695a1.97944,1.97944,0,0,1-.17874-.2835.77189.77189,0,0,0-.26739-.2487,2.18019,2.18019,0,0,1-.31072-.226,2.63547,2.63547,0,0,1-.268-.28451c-.04724-.05681-.09337-.11457-.1402-.17173A1.00526,1.00526,0,0,0,3.924,5.684c.0487-.12471.10159-.24872.14172-.37655a1.47684,1.47684,0,0,0,.0586-.39091,1.0157,1.0157,0,0,1,.09575-.38184q.02218-.04959.04372-.09943c.01859.0186.04016.03512.0582.05125.0377.03371.07363.06921.10864.1057a2.11458,2.11458,0,0,1,.18971.2265c.01236.01713.02428.03456.036.05212A.10915.10915,0,0,0,4.5767,4.872a.01179.01179,0,0,0-.00589.01525.136.136,0,0,0,.08283.0672.36.36,0,0,0,.07354.0242c.017.02559.03425.051.05251.07565a.934.934,0,0,0,.088.1038.21419.21419,0,0,0,.11729.079.04073.04073,0,0,0,.04085-.05638c-.01642-.04093-.06323-.07007-.092-.10292a1.24922,1.24922,0,0,1-.08645-.11428c-.05422-.07838-.10348-.16-.16037-.23659a1.93161,1.93161,0,0,0-.1931-.22363q-.05128-.05056-.10571-.09789a.395.395,0,0,0-.08455-.06255l.01-.02319a1.61468,1.61468,0,0,0,.0871-.2222c.01133-.043-.0466-.08292-.07426-.03924a2.13185,2.13185,0,0,0-.16841.37872,1.704,1.704,0,0,0-.10616.37642,3.3641,3.3641,0,0,1-.05157.40375,3.77619,3.77619,0,0,1-.13532.38249c-.02786.07324-.05521.14653-.0792.22116-.01285.04-.02619.0799-.03732.12038-.01139.04141-.01439.08306-.02874.12357a.0111.0111,0,0,0,.0208.00774c.01359-.03258.03464-.05781.05031-.08869.01655-.0326.032-.06554.0472-.0988q.02928-.06418.05668-.12911c.0129.02366.02722.04658.0414.0687.02969.0463.06195.09124.09536.135l-.00267.00006a.51813.51813,0,0,0-.1157.01839c-.01717.00446-.0342.00945-.05089.01545a.33029.33029,0,0,0-.053.02917c-.00627.00345-.00617.01479.00241.015.0297.00088.05789.00433.08811.00341.03543-.00107.07075-.00149.10618-.00184a.299.299,0,0,1,.07748.00462l.02.00659a2.59284,2.59284,0,0,0,.21971.23913,1.81405,1.81405,0,0,0,.31179.23888.87513.87513,0,0,1,.29.24031c.07172.10412.12462.2288.24637.28249A.02206.02206,0,0,0,5.1959,7.01695Z" /><path d="M7.02171,6.43208a.11356.11356,0,0,0-.08991-.09636c-.06853-.02-.13982-.03386-.20965-.04851a4.43505,4.43505,0,0,0-.44393-.07671,4.32062,4.32062,0,0,0-.8947.0001c-.08474.0089-.16861.02184-.25285.03439-.07816.01165-.15723.01618-.23572.02248-.03414-.00939-.0468-.04066-.06547-.07351-.02331-.041-.04418-.08337-.0636-.12635-.02647-.05857-.05014-.1184-.07377-.17823A1.33163,1.33163,0,0,1,4.804,5.71127c.05916-.0705.12022-.13946.18036-.20912.06134-.071.12359-.14175.17969-.217.05772-.07746.107-.16037.16411-.23821.00915-.01246-.00884-.03039-.02041-.019-.07229.07091-.15147.134-.22233.2064-.06325.06467-.12277.13291-.18212.20118a.51149.51149,0,0,1-.19648.04931.5593.5593,0,0,1-.173-.026.90434.90434,0,0,1-.08708-.03032.5652.5652,0,0,0-.27685-.18554c-.02053-.00557-.03992.02273-.0188.03558a1.47,1.47,0,0,1,.49428.77718,1.619,1.619,0,0,0,.11752.23175.17893.17893,0,0,0,.07162.07362.439.439,0,0,0,.11527.01846.21383.21383,0,0,1,.15122.11724c.03532.07591.01953.1647.055.24215.03771.08227.11189.14678.13029.23788.019.09392-.0644.152-.08032.23961a.026.026,0,0,0,.04674.01748c.04333-.06541.1047-.11412.11364-.19763a.42166.42166,0,0,0-.07419-.23565.65725.65725,0,0,1-.05253-.11388.9624.9624,0,0,1-.01887-.143.31661.31661,0,0,0-.10884-.19988.283.283,0,0,0-.032-.02369c.06636-.00222.13345-.012.19624-.01771.143-.01292.287-.02013.43056-.02162.14273-.00149.283.0083.42513.01987.141.01147.28357.02469.42333.0465.07669.012.153.0279.22875.04481.03891.00869.078.01757.11645.02822.021.00583.06754.01177.08236.02933A.0223.0223,0,0,0,7.02171,6.43208ZM4.55515,5.58451l-.02243-.03783a.45058.45058,0,0,0,.17137.0318.54635.54635,0,0,0,.07835-.00632,1.23425,1.23425,0,0,0-.08008.10091A.43268.43268,0,0,0,4.6461,5.775,1.74439,1.74439,0,0,0,4.55515,5.58451Z" /><path d="M1.8737,5.70885c-.02282.02126-.05289.03552-.07778.05438-.0209.01584-.04059.03311-.06018.05056a.86511.86511,0,0,0-.1192.1235c-.04059.05416-.09717.21954.01961.22443a.01355.01355,0,0,0,.01341-.00836.28649.28649,0,0,0,.02072-.093.26469.26469,0,0,1,.05406-.10921c.02419-.03373.049-.06721.07438-.1.01441-.01859.02909-.03685.04293-.05587a.52687.52687,0,0,1,.04813-.06677C1.90126,5.71719,1.88579,5.69759,1.8737,5.70885Z" /><path d="M2.74838,5.82308a2.30931,2.30931,0,0,0-.249.03546.32939.32939,0,0,0-.15957-.34029,1.537,1.537,0,0,1-.20825-.10872.32769.32769,0,0,1-.12215-.19821c-.002-.01306-.02-.00928-.01965.00311a.39151.39151,0,0,0,.06056.211.45644.45644,0,0,0,.19881.14417.27991.27991,0,0,1,.15525.17065.6154.6154,0,0,1,.01644.1123l.00337.0205-.06243.01232a.08585.08585,0,0,0,.00134-.01557.1528.1528,0,0,0-.0216-.07989.31482.31482,0,0,0-.132-.10368.62529.62529,0,0,1-.13174-.09479.56322.56322,0,0,1-.0576-.06373.28754.28754,0,0,1-.0535-.08221.01133.01133,0,0,0-.02237.00354.62168.62168,0,0,0,.00471.07859.25528.25528,0,0,0,.02478.06388.43433.43433,0,0,0,.09707.11775.7682.7682,0,0,0,.12756.08422.26644.26644,0,0,1,.0638.04513.10855.10855,0,0,1,.02818.06039c-.07419.01377-.14851.027-.22231.04275-.03552.00757-.07325.01369-.11014.02228a.07916.07916,0,0,0,.036-.08724.09968.09968,0,0,0-.02119-.04871.22358.22358,0,0,0-.044-.03049c-.00973-.00739-.024.00714-.015.01608.01382.01369.01351.05034.01308.0688-.00051.02216-.00292.04361-.00291.06583a.021.021,0,0,0,.01474.02049.39084.39084,0,0,0-.08109.02983.0112.0112,0,0,0,.00339.02119.71751.71751,0,0,0,.21878-.00392c.07917-.00776.15786-.0203.23609-.03457A2.1575,2.1575,0,0,0,2.761,5.866C2.78588,5.85577,2.77284,5.8212,2.74838,5.82308Z" /><path d="M2.89315,5.11529c-.06408.02769-.06126.13757-.07714.19482-.02086.07519-.03681.21378-.14484.20526l-.00289.00015.01245-.04022a.4231.4231,0,0,0,.02276-.1339.27128.27128,0,0,0-.04383-.11905c-.0049-.00807-.01918-.0059-.01718.00506A.3484.3484,0,0,1,2.64,5.335a.71049.71049,0,0,1-.01607.11078c-.00942.03546-.02256.06974-.03282.10494-.00884.03035-.01221.06233-.03943.08221-.00529.00386-.00087.0117.00495.011.05608-.00634.08614-.05881.10554-.111l.00691.00354c.04774.00486.08636.02459.12868-.01a.19711.19711,0,0,0,.05884-.11667c.00931-.0462.00528-.09289.01324-.13871a.2857.2857,0,0,1,.02514-.07651.18219.18219,0,0,0,.025-.06A.01931.01931,0,0,0,2.89315,5.11529Z" /><path d="M4.33547,4.98c-.021-.0218-.04152-.04407-.06108-.06721-.027-.03193-.05705-.07618-.1045-.05528a.02213.02213,0,0,0,.00123.04053c.022.008.02912.02706.0404.04589.01162.01939.02425.03826.03775.05639.02284.0307.056.08095.09815.08079a.03084.03084,0,0,0,.0328-.03473C4.37842,5.01638,4.3549,5.00014,4.33547,4.98Z" /><path d="M4.32035,4.832c-.0055-.006-.0184-.00415-.01841.00555a.179.179,0,0,0,.04324.1161c.02952.03758.05432.079.08434.11581a.02471.02471,0,0,0,.0432-.013C4.48508,4.964,4.37488,4.89134,4.32035,4.832Z" /><path d="M4.53629,4.94593a.21307.21307,0,0,0-.08543-.10857.01609.01609,0,0,0-.02376.01944c.012.04013.03574.07589.05076.115a.49191.49191,0,0,0,.03768.11188.02462.02462,0,0,0,.0418-.007A.18666.18666,0,0,0,4.53629,4.94593Z" /><path d="M7.83759,5.5808a.426.426,0,0,0-.20208-.02842q-.11185-.00423-.22369-.00849a3.125,3.125,0,0,1-.3379-.0338c.032-.00793.06422-.01778.09687-.02834.05487-.01775.1498-.06144.20545-.02793a.3546.3546,0,0,0,.07444.04278.60433.60433,0,0,0,.11644.02024c.02166.00265.03618-.03013.01561-.04174a1.15019,1.15019,0,0,0-.10427-.05319c-.02778-.0122-.04645-.03412-.07295-.04787a.2605.2605,0,0,0-.1869.00613,1.90511,1.90511,0,0,1-.31767.10178,1.9376,1.9376,0,0,0-.34852-.03888.8308.8308,0,0,0-.201.02234c-.04458.01162-.08756.02936-.13142.04359-.02876-.03248-.06028-.0619-.0866-.09709a.9779.9779,0,0,1-.07564-.12153c-.02261-.04178-.04371-.08438-.06558-.12655-.011-.02121-.02174-.04251-.03336-.06338l-.00024-.0004a.34919.34919,0,0,0-.03932-.14039,1.04263,1.04263,0,0,0-.31465-.2984c-.00531-.00433-.01255.00362-.00817.00875a1.50976,1.50976,0,0,1,.23445.30615.30233.30233,0,0,1,.03376.17519.39529.39529,0,0,1-.07374.16284,1.72207,1.72207,0,0,1-.10832.14027c-.03765.04427-.07189.0935-.11356.13388a1.0691,1.0691,0,0,1-.2445.15552.41828.41828,0,0,0-.37184.12672.01951.01951,0,0,0,.02365.02891A.59886.59886,0,0,1,5.31,5.83389a1.44227,1.44227,0,0,1,.36938.10431,1.40265,1.40265,0,0,0,.39314.09838.953.953,0,0,0,.19683-.008.34671.34671,0,0,0,.19093-.05924.02552.02552,0,0,0-.0134-.04442.24722.24722,0,0,0-.0987.00828.96583.96583,0,0,1-.10769.01171,1.08774,1.08774,0,0,1-.21978-.0118,2.32375,2.32375,0,0,1-.40118-.1225,1.4977,1.4977,0,0,0-.15036-.0437A.993.993,0,0,0,5.624,5.65557a1.22407,1.22407,0,0,0,.12255-.11186.2023.2023,0,0,0,.05537.03617.55193.55193,0,0,0,.18979.03677A.62968.62968,0,0,0,6.202,5.604c.07318-.01931.14055-.05421.21475-.07042a1.04561,1.04561,0,0,1,.44011.01932,2.81422,2.81422,0,0,0,.45525.0759c.08824.0045.17663.00661.26493.00965l.13264.00457a.249.249,0,0,0,.12322-.01481A.02767.02767,0,0,0,7.83759,5.5808ZM5.90748,5.52207c-.02978-.003-.06039-.00472-.0898-.01018a.14786.14786,0,0,1-.03414-.01151A1.15426,1.15426,0,0,0,5.894,5.3446a.534.534,0,0,0,.0492-.11467c.01306.03369.027.067.04274.09962a.82159.82159,0,0,0,.12722.20216A1.11469,1.11469,0,0,1,5.90748,5.52207Z" /><path d="M6.83258,6.12354a.63774.63774,0,0,1-.13082-.12995.62485.62485,0,0,0-.06-.053.78571.78571,0,0,0-.08677-.048c-.0098-.00582-.02483.00633-.01524.01586a.68475.68475,0,0,1,.04964.06667c.01734.02225.03414.04472.05.068a.5956.5956,0,0,0,.10877.13146.56587.56587,0,0,0,.15093.07577.42926.42926,0,0,1,.123.0836.0225.0225,0,0,0,.0354-.0155C7.06571,6.20067,6.91147,6.16669,6.83258,6.12354Z" /><path d="M8.66269,5.71755a.40819.40819,0,0,0-.17086-.1236,1.87,1.87,0,0,1-.22417-.05454.401.401,0,0,0-.1911-.07684.16367.16367,0,0,0-.15287.08617.01.01,0,0,0,.01088.01329.35572.35572,0,0,1,.17462-.01775c.05863.01511.10265.06314.15982.08249.05752.01947.11961.01318.17733.03194a.43.43,0,0,1,.165.10083C8.64083,5.78927,8.691,5.7505,8.66269,5.71755Z" /><path d="M8.45453,5.78543a4.19063,4.19063,0,0,1-.41908-.03829,3.97324,3.97324,0,0,0-.41634.03788c-.14046.01545-.28134.03008-.42129.04969-.071.00994-.14179.02079-.21277.03047a1.279,1.279,0,0,1-.22315.02049.0111.0111,0,0,0-.00221.02208,1.62252,1.62252,0,0,0,.43437.00963c.14394-.01019.28772-.02519.43129-.03968.14289-.01442.28586-.03227.429-.04364a1.90335,1.90335,0,0,0,.40872-.01965C8.48031,5.8092,8.47079,5.78372,8.45453,5.78543Z" /><path d="M4.90607,3.73158a.454.454,0,0,0-.27624-.35278.56541.56541,0,0,0-.208-.008.649.649,0,0,0-.11472-.01807.25444.25444,0,0,1-.11183-.022c-.0292-.0149-.05187-.03976-.08117-.05375a.00977.00977,0,0,0-.01306.00814c-.0032.0781.09577.10539.15447.12867-.026.014-.04884.0314-.07442.04782-.01324.0085.00238.02738.01551.019a.41554.41554,0,0,1,.20933-.03413.72906.72906,0,0,1,.20828.01144c.13159.0409.19848.177.26828.28423A.01349.01349,0,0,0,4.90607,3.73158Z" /><path d="M5.49632,4.55278c-.07112-.12122-.16412-.23-.24628-.34407-.04059-.05636-.08009-.11349-.12073-.16982-.04519-.06264-.0994-.11943-.13937-.18554-.00849-.01405-.03127-.00525-.02408.01066.03067.06784.05077.13942.085.20577a1.51395,1.51395,0,0,0,.11652.18734,1.23415,1.23415,0,0,0,.30141.31819C5.48267,4.58453,5.50611,4.56947,5.49632,4.55278Z" /><path d="M4.09707,3.23273c-.01251-.05979-.00051-.11951-.00728-.17945a.28616.28616,0,0,0-.0596-.14281.4321.4321,0,0,0-.28893-.15125.58641.58641,0,0,0-.56831.28857.3131.3131,0,0,0-.03744.17438.253.253,0,0,0,.0313.09769c.02006.03583.05164.064.072.09892.00414.0071.01592.00217.01189-.00526a.45769.45769,0,0,1-.04676-.21859.30345.30345,0,0,1,.07647-.172.5342.5342,0,0,1,.31682-.177.39553.39553,0,0,1,.33695.08749.27375.27375,0,0,1,.0829.15181A.24466.24466,0,0,0,4.079,3.244.01167.01167,0,0,0,4.09707,3.23273Z" /><path d="M3.4261,3.67237c-.03133.00753-.03242-.09148-.03912-.11576a.36555.36555,0,0,0-.043-.09537c-.008-.01286-.02926.00054-.02261.0139a.33106.33106,0,0,1,.03249.1007c.00449.03127-.00182.06457.005.09531a.05554.05554,0,0,0,.08475.0402A.02228.02228,0,0,0,3.4261,3.67237Z" /><path d="M4.06164,3.55288c-.01743.0562-.0386.11123-.05964.16634l-.01066-.0214a.13324.13324,0,0,0-.0701-.07128.12945.12945,0,0,0,.00944-.07581L3.92409,3.541l-.0034-.006-.00407.00249a.01518.01518,0,0,0-.01549.00635C3.881,3.571,3.87718,3.60648,3.857,3.635a.66433.66433,0,0,1-.07189.08363.54652.54652,0,0,1-.08222.06756c-.0212.01416-.08264.04265-.102.00812a.01156.01156,0,0,0-.02114.00936.084.084,0,0,0,.077.068.19389.19389,0,0,0,.13156-.06483.46814.46814,0,0,0,.102-.11622l.01354-.02517a.26054.26054,0,0,1,.033.08185c.00781.02291.01887.04788.02762.07317l-.01288.03838c-.03324.10346-.0611.2082-.08734.31362-.053.21292-.09817.42666-.13946.64207-.02855.14894-.05857.29726-.08551.44628-.02847-.05066-.06973-.09732-.10027-.14814a.14856.14856,0,0,1-.0152-.15688.66837.66837,0,0,1,.11485-.08824.00937.00937,0,0,0-.00494-.01638.17118.17118,0,0,0-.11523.03322c-.04185.00593-.09109-.00323-.13049.00348a1.32353,1.32353,0,0,0-.15467.03636,1.02165,1.02165,0,0,0-.2841.13421.01025.01025,0,0,0,.008.01793c.10645-.02922.21524-.05809.32322-.08238.05305-.01194.10833-.0191.16054-.03394l.012-.00353a.16481.16481,0,0,0-.02211.09083.3371.3371,0,0,0,.0762.16572L3.4835,5.20646a.222.222,0,0,0-.13216.01587c-.047.02066-.07484.0686-.12153.08683a.01068.01068,0,0,0,.006.02023c.06486-.01147.12389-.04548.18987-.05079a.17732.17732,0,0,1,.16008.07118l.01415.032.0025.00527.01143.02209-.00873.05445q-.0199.12918-.03811.25861l-.01217-.00978a.231.231,0,0,0-.11122-.04592.20139.20139,0,0,0-.11777.03429c-.01009.00513-.00625.02218.00584.0198A.27049.27049,0,0,1,3.5014,5.777a.12866.12866,0,0,1,.04878.0694.80974.80974,0,0,1-.05808.25524l-.01608.0306c-.06165.03884-.12573.01195-.19108-.00846a.75619.75619,0,0,0-.241-.03267,2.01151,2.01151,0,0,0-.47828.09355,1.7872,1.7872,0,0,1-.498.06253c-.08163-.00166-.16439-.00416-.24568-.01208a.3352.3352,0,0,1-.093-.02087c-.017-.00678-.05734-.01814-.06589-.03284-.00572-.00984-.02194-.00316-.01651.00731.00791.01524.00377.03047.012.04576a.1332.1332,0,0,0,.05671.04909.47541.47541,0,0,0,.15733.04326,1.87915,1.87915,0,0,0,.44863.01094,3.22681,3.22681,0,0,1,.85894-.13721c.03229.00552.07614.01961.122.03084-.01308.0014-.02616.00285-.03908.005a.71343.71343,0,0,0-.29922.13373.04093.04093,0,0,0,.04229.06879,1.199,1.199,0,0,1,.285-.11819.554.554,0,0,0,.13312-.02614.32889.32889,0,0,0,.09785-.06809.45191.45191,0,0,0,.115-.26028c.01875-.10912.03066-.21965.04653-.32923q.02423-.16725.05114-.33409c.018-.111.0291-.22338.04958-.33383.04082-.22007.08877-.43926.13866-.65746.02783-.12171.05831-.24276.08609-.36448.01382-.06054.02772-.12114.04069-.18188.01431-.067.02186-.13561.04034-.20174C4.09541,3.54486,4.06751,3.534,4.06164,3.55288Z" /><path d="M3.86892,3.28167a.11853.11853,0,0,0-.04584-.09538.06194.06194,0,0,0-.07952.0103c-.02534.02948-.00565.05843.00624.08778a.01207.01207,0,0,0,.02286-.00674c-.00269-.01262.00053-.04669.01775-.02679.00943.0109.00849.04427.00986.05679a.309.309,0,0,0,.0193.117.02733.02733,0,0,0,.04991-.00151A.29938.29938,0,0,0,3.86892,3.28167Z" /><path d="M3.6762,3.09812a.14975.14975,0,0,0-.12367.02037c-.02381.01514-.04438.03464-.06669.05179-.02185.0168-.03754.01185-.06415.01352-.08139.00511-.1566.05515-.14564.14551.00154.01272.01891.01062.02109-.0006.01739-.08952.1201-.04919.18049-.07361a.345.345,0,0,0,.08552-.06785.21219.21219,0,0,1,.109-.0492C3.6908,3.13408,3.69767,3.10406,3.6762,3.09812Z" /><path d="M3.94047,3.09919a.01323.01323,0,0,0-.025.00739c.01024.08161.02933.16166.03714.24356a.02236.02236,0,0,0,.03992.00933C4.054,3.27855,3.98284,3.17264,3.94047,3.09919Z" /><path d="M3.51469,3.48216a.01667.01667,0,0,0-.01091-.01334.05368.05368,0,0,0-.0418.01065.32715.32715,0,0,1-.0336.01752.01859.01859,0,0,0,.00563.03523C3.46313,3.53478,3.51854,3.52066,3.51469,3.48216Z" /><path d="M3.47334,3.33248c-.04719-.01477-.09514.025-.12186.06012-.014.01848.01105.03857.02841.02649a.2909.2909,0,0,1,.04984-.02783.156.156,0,0,0,.04893-.02682A.01888.01888,0,0,0,3.47334,3.33248Z" /><path d="M3.58178,3.66623a.12435.12435,0,0,0-.07658.03494.01053.01053,0,0,0,.003.01781A.08078.08078,0,0,0,3.59764,3.701.02223.02223,0,0,0,3.58178,3.66623Z" /><path d="M2.081,5.11419a.16656.16656,0,0,0-.09089-.00271.30866.30866,0,0,0-.07492.03225.31988.31988,0,0,0-.123.122.51536.51536,0,0,0-.055.19689c-.00332.03476-.00106.07132-.00684.10565a.13627.13627,0,0,1-.04648.07573c-.08054.07567-.22145.11579-.23135.24361a.1859.1859,0,0,1-.01644.08047.31189.31189,0,0,1-.05677.06321.14691.14691,0,0,0-.04617.13862c.004.01431.027.01122.02328-.00368-.0167-.06741.07065-.10652.11756-.13475a.13622.13622,0,0,0,.076-.12074.15626.15626,0,0,1,.06548-.13939c.041-.03.08727-.05218.127-.08426a.23389.23389,0,0,0,.0819-.12833c.01355-.06082.008-.12451.02405-.18558a.404.404,0,0,1,.077-.15852.2575.2575,0,0,1,.15624-.08116C2.09337,5.13207,2.09111,5.11635,2.081,5.11419Z" /><path d="M1.76775,6.382a.94463.94463,0,0,1-.16955-.08732c-.05381-.03659-.06549-.10314-.09657-.15691a.01079.01079,0,0,0-.0197.0006.19307.19307,0,0,0,.04583.21334.47476.47476,0,0,0,.23234.06328A.01714.01714,0,0,0,1.76775,6.382Z" /><path d="M2.38878,5.0724a.10889.10889,0,0,0-.04924.01569.24134.24134,0,0,1-.08941.03549.00491.00491,0,0,0,.00028.0097.22483.22483,0,0,0,.09093-.00415.22678.22678,0,0,1,.03915-.01107c.01974-.00153.01819.01053.02586.0255a.01957.01957,0,0,0,.02555.00987l.00468-.00275a.02539.02539,0,0,0,.01482-.02047A.05756.05756,0,0,0,2.38878,5.0724Z" /><path d="M2.54178,5.15328a.01669.01669,0,0,0-.02641.00092.21446.21446,0,0,0-.00979.125.0202.0202,0,0,0,.03862.00386A.14862.14862,0,0,0,2.54178,5.15328Z" /><path d="M2.23789,5.16075a.01166.01166,0,0,0-.02036.00912.52624.52624,0,0,1,.00612.06716c-.0004.02158-.00575.04258-.0064.06416-.00059.01982.02768.03528.03966.01483A.13953.13953,0,0,0,2.23789,5.16075Z" /><path d="M2.18226,5.3672a.73337.73337,0,0,0-.0406-.16243.00983.00983,0,0,0-.018.00055.20618.20618,0,0,0,.02962.17043C2.16136,5.38931,2.18624,5.38561,2.18226,5.3672Z" /></svg>