<svg xmlns="http://www.w3.org/2000/svg" data-name="Layer 1" viewBox="1.7808399151621859 3.0017351993593206 6.437513657375327 3.997663836326835" x="0px" y="0px"><title>KAMASUTRA</title><path d="M3.86644,4.75124c-.12851-.05212-.25477-.10746-.38555-.15407A1.227,1.227,0,0,0,3.116,4.49579a.38129.38129,0,0,0-.1484.02459c-.0489-.02066-.09777-.03967-.14474-.0651a1.04013,1.04013,0,0,0-.15334-.07236.88993.88993,0,0,0-.351-.03972.84315.84315,0,0,0-.29023.06456.45619.45619,0,0,0-.20167.18974c-.00738.01207.01038.025.01812.01282a.38688.38688,0,0,1,.233-.14,1.08277,1.08277,0,0,1,.28768-.03514.7887.7887,0,0,1,.31774.05834,1.69772,1.69772,0,0,0,.18661.088.27973.27973,0,0,0-.03557.04054c-.05544.0775-.071.17592-.12566.254a.08343.08343,0,0,0-.00778-.03166.09819.09819,0,0,0-.03323-.04585.01418.01418,0,0,0-.02215.0101.31556.31556,0,0,0,.00667.05012c.00312.01932.00463.03731.025.04586a.01928.01928,0,0,0,.0179-.00238.01224.01224,0,0,0,.01948.00617c.0655-.062.11092-.14046.17279-.2052a.35329.35329,0,0,1,.10035-.08487.32744.32744,0,0,1,.15295-.02847,1.37918,1.37918,0,0,1,.34606.08719c.12223.03855.24642.06721.37.10056A.01409.01409,0,0,0,3.86644,4.75124Z" /><path d="M5.1569,6.91085a.3011.3011,0,0,0-.07913-.02306.28137.28137,0,0,1-.07928-.03495.71455.71455,0,0,1-.13789-.11951c-.09717-.10286-.19238-.20786-.28727-.31282q-.14262-.15776-.2759-.32362c-.09012-.11213-.15971-.23852-.24811-.35153-.0121-.01547-.03309.00037-.02766.017A.91976.91976,0,0,0,4.085,5.908a1.23182,1.23182,0,0,0-.13455-.02217c-.06565-.00819-.13108-.01825-.19663-.02726-.13271-.01826-.26781-.0358-.39926-.062a1.43092,1.43092,0,0,1-.3669-.12168.63237.63237,0,0,1-.2837-.22566,1.46353,1.46353,0,0,1-.08053-.18269c-.02528-.064-.06376-.169-.006-.22587.00792-.0078-.00225-.02094-.01114-.01362a.19969.19969,0,0,0-.07944.13116.49141.49141,0,0,0,.03346.18946c-.0523-.02823-.10943-.05037-.1596-.07709-.09207-.049-.18448-.09558-.27937-.13894A.51969.51969,0,0,1,1.906,4.98155a.36678.36678,0,0,1-.057-.10914.31561.31561,0,0,1-.01553-.14114c.00375-.0153-.01917-.02437-.02338-.0087a.46974.46974,0,0,0-.02923.12408.40061.40061,0,0,0,.01965.128.38178.38178,0,0,0,.19575.21152,2.78519,2.78519,0,0,0,.31179.13892c.05451.02106.10936.04138.16272.06528.0439.01966.08586.04426.13023.06291a.51541.51541,0,0,0,.18859.21585,1.70528,1.70528,0,0,0,.82131.26324c.08728.005.17512.00224.26258.00543.07985.00291.1588.01593.23855.01871.03844.06593.08166.12946.12293.19145a3.1978,3.1978,0,0,0,.29263.36094c.09871.10967.195.2236.29956.32774a.63666.63666,0,0,0,.14734.11521c.04872.026.12343.05689.17568.02592C5.17231,6.96469,5.18575,6.92682,5.1569,6.91085Z" /><path d="M2.6368,4.65585a.73021.73021,0,0,1-.05251-.06851.14275.14275,0,0,0-.11182-.075.08308.08308,0,0,0-.08384.06372l-.00036.00464A.27267.27267,0,0,0,2.303,4.567a.57081.57081,0,0,0-.1562.03412.852.852,0,0,1-.14887.03907.212.212,0,0,1-.15118-.02063c-.01195-.00943-.0253.00969-.01362.01924a.28461.28461,0,0,0,.11658.069.37806.37806,0,0,0,.15159.00071c.10565-.01963.20734-.05516.313-.075a.1546.1546,0,0,0,.04283.02228.01234.01234,0,0,0,.01375-.01923l-.00874-.01288a.011.011,0,0,0-.00348-.01813L2.45518,4.6043c-.00154-.01171.00393-.02015.02449-.01486.02356.00608.04449.04386.05854.06113.02925.03594.06606.09337.1168.09158.01317-.00047.01921-.0149.01878-.02584C2.67271,4.68891,2.65435,4.6754,2.6368,4.65585Z" /><path d="M2.50047,5.22748c-.03851-.09139-.15722-.12764-.23852-.17574l.00389-.00242a.07787.07787,0,0,0,.0226-.02765.06552.06552,0,0,0,.00782-.03111c-.00034-.00874-.00446-.02154-.01572-.01977-.01167.00183-.02118.01659-.02991.024l-.016.01128-.01638.01529-.00133.00151q-.02425-.01638-.0475-.03406l.008-.00931a.15367.15367,0,0,0,.01277-.02038c.00425-.00764.00492-.019.01005-.02566.008-.01036-.0086-.02213-.01661-.01176-.004.00515-.01269.007-.018.011l-.02.01724L2.135,4.9615l-.0239-.02062a.10887.10887,0,0,1-.04684-.06679A.1873.1873,0,0,1,2.07844,4.777a.013.013,0,0,0-.02031-.01452.17383.17383,0,0,0-.065.15721.31908.31908,0,0,0,.12749.1485.62.62,0,0,0,.18087.0866.59768.59768,0,0,1,.17311.09381A.01744.01744,0,0,0,2.50047,5.22748Z" /><path d="M3.97494,5.309a.328.328,0,0,0-.09529.0525.13658.13658,0,0,0-.022.08648c-.00385.03992-.01.07963-.01729.11906a.60631.60631,0,0,0-.01535.09348c-.06575-.023-.13547-.03837-.20013-.0631-.08775-.03356-.176-.06524-.26268-.10167-.08428-.03544-.1669-.07482-.25159-.10926a1.978,1.978,0,0,1-.25488-.1013.01708.01708,0,0,0-.01973.02787,1.49692,1.49692,0,0,0,.2235.15151c.087.04584.178.08473.26855.123a1.96765,1.96765,0,0,0,.2718.09953.88585.88585,0,0,0,.27743.04732c.02871-.00222.0269-.04089.0051-.051l-.00184-.00082a.42371.42371,0,0,0,.0442-.17958q.00287-.02794.00436-.056a.16879.16879,0,0,1,.00152-.04492.34608.34608,0,0,1,.06129-.07247C4.00124,5.31966,3.98648,5.30293,3.97494,5.309Z" /><path d="M4.05447,4.88a.45153.45153,0,0,0-.12593-.01353.78274.78274,0,0,1-.12917-.02818,2.36575,2.36575,0,0,1-.23119-.10053c-.00834-.00349-.01546.00941-.00751.01422a.27486.27486,0,0,1,.0503.054.47841.47841,0,0,0,.0504.047.53624.53624,0,0,0,.12026.0725.52245.52245,0,0,0,.1305.03631.24006.24006,0,0,0,.14465-.00629A.04135.04135,0,0,0,4.05447,4.88Z" /><path d="M3.32439,4.81419a.69934.69934,0,0,0-.20746-.05079,1.103,1.103,0,0,0-.21064.021c-.01161.00137-.01444.02051-.00236.02357a1.39946,1.39946,0,0,0,.1996.00977c.07139.00753.13976.02947.21.0432C3.34125,4.86635,3.34905,4.82408,3.32439,4.81419Z" /><path d="M4.17214,4.86228a1.93756,1.93756,0,0,0-.06865-.23765,1.73112,1.73112,0,0,1-.038-.25916c-.00138-.01448-.02138-.01186-.02382.00068a.88069.88069,0,0,0-.02463.22511,1.07166,1.07166,0,0,0,.05441.21836.72259.72259,0,0,1,.02041.15846A.32242.32242,0,0,0,3.911,5.0318l-.02224.0143c-.02391-.00268-.04848-.0013-.0726-.004a.60941.60941,0,0,1-.12261-.03066A2.37435,2.37435,0,0,1,3.45665,4.924c-.015-.00684-.02331.01668-.00886.02382a.74929.74929,0,0,1,.12162.08757.57625.57625,0,0,0,.11989.07107.44466.44466,0,0,0,.11488.03294c-.00988.0314-.01693.06829-.04354.07891-.01557.00621-.005.02937.01047.02366a.83678.83678,0,0,0,.156-.10588.98388.98388,0,0,1,.097-.05577.42248.42248,0,0,1,.07106-.02475.25131.25131,0,0,1-.00889.09341.53911.53911,0,0,1-.05361.09527.02581.02581,0,0,0,.03123.03817A.22147.22147,0,0,0,4.16926,5.115.70379.70379,0,0,0,4.17214,4.86228Z" /><path d="M4.12126,3.98795a1.12882,1.12882,0,0,0-.14064-.2908,2.28159,2.28159,0,0,1-.12432-.31057c-.037-.10709-.085-.24384.02079-.3291.0146-.01176-.00365-.034-.01842-.02251a.27089.27089,0,0,0-.11126.25338.88657.88657,0,0,0,.04236.16913c.018.05832.037.11639.05877.17343a1.28451,1.28451,0,0,0,.07164.15795c.02636.04827.05643.09451.079.14481a.49851.49851,0,0,1,.02317.063l-.00548-.006c-.02539-.02845-.05075-.0573-.07728-.08468a.15263.15263,0,0,0-.06187-.04938.00966.00966,0,0,0-.01268.01037.13676.13676,0,0,0,.03117.06393c.01948.02963.04082.0582.06165.0869.01795.02472.03689.04875.05412.074.01119.0164.01995.03374.03088.04958-.00053.05361-.009.10724-.01068.1607a.02407.02407,0,0,0,.04631.01074A.65319.65319,0,0,0,4.12126,3.98795Z" /><path d="M4.01978,5.45012c-.00371-.007-.01641-.00877-.01885.00057a.80441.80441,0,0,0-.013.11128,1.12847,1.12847,0,0,0-.01534.12536.02616.02616,0,0,0,.0503.01167A.32242.32242,0,0,0,4.01978,5.45012Z" /><path d="M4.157,5.56915a.4686.4686,0,0,0-.00667-.0649.65282.65282,0,0,1-.01669-.06368c-.00137-.01693-.02737-.01268-.026.00411a.357.357,0,0,1-.00857.061c-.00214.01895-.00288.038-.0041.057a.43549.43549,0,0,0,0,.11411.02716.02716,0,0,0,.05189.00519A.2841.2841,0,0,0,4.157,5.56915Z" /><path d="M4.21348,5.39838a.01351.01351,0,0,0-.02558.00409.47985.47985,0,0,0,.01132.19574c.00714.02861.05713.0329.05617-.0016A.49042.49042,0,0,0,4.21348,5.39838Z" /><path d="M4.73371,5.78691a1.80211,1.80211,0,0,0-.10106-.30444,1.8444,1.8444,0,0,1-.08477-.322,1.99043,1.99043,0,0,0-.08732-.30017,1.60338,1.60338,0,0,1-.048-.15437A3.13713,3.13713,0,0,0,4.432,4.33177a2.34623,2.34623,0,0,0-.07664-.50744c-.02132-.087-.03994-.175-.06258-.26167-.02164-.08284-.03733-.17-.06572-.25073-.00994-.02826-.05014-.01272-.04778.01409.00772.08769.02939.17771.04562.26434.01544.08243.03265.16454.0481.247a3.05307,3.05307,0,0,1,.06829.49354,4.47637,4.47637,0,0,1-.02291.49026c-.00683.07742-.0147.15466-.02555.23162a1.32223,1.32223,0,0,1-.0376.25373.0134.0134,0,0,0,.02511.00934,1.69143,1.69143,0,0,0,.08628-.2301,1.497,1.497,0,0,0,.0257-.17267c.02152.08444.04508.1681.059.25459a1.25514,1.25514,0,0,0,.24625.63544A.02068.02068,0,0,0,4.73371,5.78691Z" /><path d="M3.832,3.7274a1.00523,1.00523,0,0,0-.17825-.08334l.00257-.011c.00064-.02621-.01438-.054-.01057-.0791.00473-.0311.03861-.05187.06567-.06029.01781-.00554.00878-.03672-.00932-.0316-.05277.0149-.1181.018-.13145.08438a.09519.09519,0,0,0-.00137.02442.15185.15185,0,0,1-.02373-.07126c-.01088-.12941-.017-.32154.11517-.39456a.01387.01387,0,0,0-.01122-.02534c-.16968.06631-.19033.26367-.18508.42222a.2136.2136,0,0,0,.1065.183.4687.4687,0,0,0,.11411.04428,1.04643,1.04643,0,0,0,.13307.03532C3.83987,3.76757,3.84668,3.73969,3.832,3.7274Z" /><path d="M4.75028,3.16226a.88392.88392,0,0,0-.25093-.04983c-.0422-.00319-.08437-.00439-.126-.0085-.02443-.01467-.04929-.0286-.07475-.04113a.48472.48472,0,0,0-.36022-.04475c-.01638.00491-.00744.02947.00816.02767a.58238.58238,0,0,1,.35891.10173c.05278.032.10266.06855.15357.10342a.43957.43957,0,0,0,.14887.08042c.024.00519.0393-.02833.02434-.04538a.57445.57445,0,0,0-.12807-.09786c.05206.01163.10432.02227.15605.0354a.23611.23611,0,0,1,.1725.112,1.17833,1.17833,0,0,1,.06108.18951c.00725.02285.045.01578.04576-.00732A.35023.35023,0,0,0,4.75028,3.16226Z" /><path d="M5.54023,4.94232a.72257.72257,0,0,0-.04241-.17724.52035.52035,0,0,0-.10813-.16161,1.48155,1.48155,0,0,1-.149-.14575,1.6219,1.6219,0,0,1-.18086-.38888A2.18279,2.18279,0,0,1,4.915,3.62571c-.00221-.014-.02583-.01433-.02564.00073a1.39623,1.39623,0,0,0,.07326.44265c.02364.06925.05229.13678.08033.20432a1.06206,1.06206,0,0,0,.09161.19013.76653.76653,0,0,0,.15217.14443.48086.48086,0,0,1,.12231.1534,1.05845,1.05845,0,0,1,.07428.18995c.01685.06264.01785.12874.03994.19a.01928.01928,0,0,0,.03655-.00584A.78173.78173,0,0,0,5.54023,4.94232Z" /><path d="M5.38234,5.17168a2.43559,2.43559,0,0,0-.06131-.2681.0088.0088,0,0,0-.01738.00275,1.15074,1.15074,0,0,1-.00356.2677c-.00592.07661-.0557.14035-.05068.21829.00239.03708.05618.03768.06825.00682A.4849.4849,0,0,0,5.38234,5.17168Z" /><path d="M8.2087,6.60294a.30474.30474,0,0,0-.11517-.11038.66529.66529,0,0,0-.15511-.07478c-.04438-.01482-.09164-.02236-.137-.03412a.543.543,0,0,0-.05808-.06615.5293.5293,0,0,1-.093-.10509.55147.55147,0,0,1-.05313-.1259c-.0067-.02305-.01231-.04894-.02043-.07318a.57642.57642,0,0,1,.08324.08638l.07365.08323c.0189.02135.06868.06147.0365.09027-.0127.01136-.01283.03871.00721.04337a.06366.06366,0,0,0,.07779-.07136c-.002-.06443-.071-.11894-.11027-.16372A.61961.61961,0,0,0,7.60259,5.939a.28511.28511,0,0,0-.17009-.026c-.06678.0068-.13222.02553-.198.03813-.07371.01412-.14773.02723-.222.03826-.1515.02252-.30416.0365-.457.04631q-.12892.00828-.258.01432c-.043.002-.08576.00459-.12865.00772-.01379.001-.039.00757-.06234.01014-.06574-.12715-.13927-.25156-.21524-.37157-.0376-.05939-.07928-.11567-.12172-.17133.02135.02084.04287.04155.066.06049.05937.0486.1217.0926.18431.13687a.30375.30375,0,0,0,.18268.07066,1.08363,1.08363,0,0,0,.21353-.02789c.07206-.01484.14385-.03162.2171-.03962a1.51462,1.51462,0,0,1,.20988-.00522,2.3424,2.3424,0,0,0,.415-.00441.72552.72552,0,0,0,.21064-.06524.23973.23973,0,0,1,.1098-.03471.15789.15789,0,0,1,.08285.03906.02624.02624,0,0,0,.04095-.01866c.00375-.0573-.04178-.08855-.09325-.09977a.301.301,0,0,0-.18235.03739.9581.9581,0,0,1-.41875.06252,2.46074,2.46074,0,0,0-.42746.00492c-.07566.011-.14995.02952-.2251.04333a.3782.3782,0,0,1-.22357.00213c-.07408-.0366-.13892-.09567-.20946-.13884-.03733-.02285-.075-.04583-.11431-.06508-.03905-.0191-.07761-.03455-.11425-.057-.04033-.05334-.07957-.10746-.11484-.16454-.00691-.01119-.02345-.00129-.022.00985a.56417.56417,0,0,0,.09814.22115c.05081.07906.10142.158.14967.23866.091.1521.16752.312.25452.46612a3.77178,3.77178,0,0,0-.41729.05118,3.64763,3.64763,0,0,0-.135-.38629c-.02944-.07066-.063-.13944-.09777-.20759-.01582-.031-.03228-.0618-.04573-.0939-.01464-.035-.0218-.07357-.03847-.10725a.01567.01567,0,0,0-.02863.00087.24462.24462,0,0,0,.0265.18964c.03056.072.06209.14345.09147.216.05376.13271.102.26764.14232.405q-.10131.02077-.20094.04715a.98042.98042,0,0,0-.20585.07463l-.0242.013a.33339.33339,0,0,0-.04457-.07486c-.0378-.05111-.07757-.10081-.11373-.15312-.0374-.05411-.06936-.11171-.10146-.16906A.8015.8015,0,0,0,4.768,5.8309c-.008-.00819-.02535-.00594-.02573.00776a.43456.43456,0,0,0,.04887.1646,1.73179,1.73179,0,0,0,.08814.17926c.03077.05518.06077.11123.09683.1632.02536.03655.04895.07611.07472.113a.17268.17268,0,0,0-.04474.06685.00964.00964,0,0,0,.01037.01268A.3893.3893,0,0,0,5.09187,6.513.86829.86829,0,0,0,5.176,6.47887a1.48044,1.48044,0,0,1,.1755-.06242,3.77983,3.77983,0,0,1,.40514-.0835c.14269-.02306.28695-.04433.43105-.05607.0725-.00591.1451-.00338.21771-.00641A.87578.87578,0,0,0,6.613,6.23563a.69444.69444,0,0,1,.44095-.05051c.026.00928.04809-.02847.02327-.044A.34562.34562,0,0,0,6.8939,6.0939c.0735-.00872.1468-.01907.21974-.03166.031-.00534.06173-.01147.0924-.01808-.03648.02135-.0734.04182-.10988.06332a.00769.00769,0,0,0,.00429.01455.39946.39946,0,0,0,.17025-.0599c.02982-.01692.06659-.03589.09826-.05833a.45355.45355,0,0,1,.12211-.01991.141.141,0,0,1,.04645.0083.44818.44818,0,0,0,.023.20062.54367.54367,0,0,0,.14669.19979.68738.68738,0,0,1,.12635.2307.3202.3202,0,0,1-.03213.25652c-.01125.02079.01111.04657.03207.02991a.23514.23514,0,0,0,.08915-.14555c.0104.00014.02072-.00034.03028-.0006a.91345.91345,0,0,0,.10537-.01087.00866.00866,0,0,0,.00361-.01546.34933.34933,0,0,0-.1362-.05171A.64239.64239,0,0,0,7.83138,6.429c.02233.01262.04431.0258.06545.03744.04722.026.09427.05311.1391.08308.03133.02094.10582.06339.10081.10642-.00258.02219-.02463.03512-.02181.05863a.03054.03054,0,0,0,.02307.02819.03548.03548,0,0,0,.03544-.0059A.11025.11025,0,0,0,8.2087,6.60294ZM6.70344,6.12286a1.6885,1.6885,0,0,1-.21575.05636,1.68512,1.68512,0,0,1-.22856.00956c-.03056.00043-.06116.00136-.09177.00254l-.001-.00233-.0239-.04965a1.09633,1.09633,0,0,0,.1444-.00291c.13991-.00523.27973-.01191.41927-.02362l.05941-.00531C6.74418,6.11188,6.72335,6.1171,6.70344,6.12286Z" /><path d="M7.84982,6.0079a2.73413,2.73413,0,0,1-.12824-.27166c-.00432-.01146-.021-.00545-.0198.00583a.93535.93535,0,0,0,.06782.25272.60056.60056,0,0,0,.05609.10608.23882.23882,0,0,1,.0568.11141.01676.01676,0,0,0,.03.007C7.95475,6.14292,7.883,6.0729,7.84982,6.0079Z" /><path d="M7.78969,6.73345a.32762.32762,0,0,0-.052-.0729.767.767,0,0,0-.06961-.05678c-.0479-.03478-.0985-.06588-.14919-.0964a.60527.60527,0,0,0-.16986-.07673A.32964.32964,0,0,0,7.18281,6.44c-.01118.00267-.00872.02.00282.01784a.29082.29082,0,0,1,.17508.04594c.04907.02678.09589.05737.14316.08714.0439.02764.08757.05583.12877.08741.01861.01427.03661.02928.05434.04463.02115.01832.04579.03077.0666.04926C7.77793,6.79383,7.80463,6.7565,7.78969,6.73345Z" /><path d="M6.77852,6.46285c-.033-.04669-.11813-.03253-.16777-.02641A1.20477,1.20477,0,0,0,6.41324,6.48q-.201.06019-.4008.12411c-.13309.04245-.26534.08682-.39411.14111-.13069.0551-.26617.10186-.3926.16641-.01067.00545-.00667.02389.00622.02111.13271-.02861.26148-.07393.39289-.10784.12863-.03319.25544-.07177.382-.11228q.192-.06147.38495-.11981c.06261-.01893.12419-.04175.187-.05966a.41741.41741,0,0,1,.09138-.01643c.03284-.0018.06738.011.097-.00613A.03148.03148,0,0,0,6.77852,6.46285Z" /><path d="M7.01322,6.7323a.49163.49163,0,0,0-.10654-.09488.4659.4659,0,0,1-.11942-.097c-.00752-.01073-.02323.00221-.01575.01289.02287.03264.04154.06845.06732.09892.02712.03206.0566.06206.08312.09462.02622.03219.06612.07292.0508.11816-.01223.03609-.0361.05282-.03365.09374.00116.01942.02722.02166.03743.00875A.3181.3181,0,0,0,7.05264,6.861.15427.15427,0,0,0,7.01322,6.7323Z" /><path d="M7.23214,6.72962c-.01815-.0735-.079-.126-.08553-.20368-.00521-.06227.02613-.18169-.04518-.21443a.02678.02678,0,0,0-.03113.00961.12024.12024,0,0,0-.00825.07855c.00247.03417-.0008.06865.00023.10289a.30573.30573,0,0,0,.05665.168.24035.24035,0,0,1,.04175.08565.13692.13692,0,0,1-.02956.09791.28675.28675,0,0,1-.14607.12722c-.011.00292-.00876.02019.00282.01784a.324.324,0,0,0,.17991-.07673A.21347.21347,0,0,0,7.23214,6.72962Z" /><path d="M2.45038,4.75293c-.00272-.00953-.01242-.02459-.02457-.01945-.01561.0066-.0198.03093-.02824.04424a.14368.14368,0,0,1-.04015.044c-.01779.01161-.00255.039.0162.03615a.08858.08858,0,0,0,.0741-.05948A.07989.07989,0,0,0,2.45038,4.75293Z" /><path d="M2.368,4.6671a.0968.0968,0,0,0-.05838.037.18018.18018,0,0,0-.02119.02854c-.00615.01055-.00918.0226-.01619.03262a.00972.00972,0,0,0,.01587.01123A.22119.22119,0,0,1,2.339,4.73558a.1624.1624,0,0,0,.046-.041A.01777.01777,0,0,0,2.368,4.6671Z" /><path d="M2.49562,4.97915a.01843.01843,0,0,0-.02953-.01126L2.464,4.96968l-.01132.00984-.00807.01281a.09183.09183,0,0,0-.01369.02415l-.00058.00088a.01142.01142,0,0,0,.00812.01781.0578.0578,0,0,0,.01918-.00057.06041.06041,0,0,0,.03628-.03049A.041.041,0,0,0,2.49562,4.97915Z" /><path d="M2.56631,4.97927a.573.573,0,0,0-.03522.04749.49885.49885,0,0,0-.03337.0474c-.00378.00682.0005.01755.00967.01558a.12729.12729,0,0,0,.0915-.09828C2.60273,4.9719,2.57678,4.96736,2.56631,4.97927Z" /></svg>