<svg xmlns="http://www.w3.org/2000/svg" data-name="Layer 1" viewBox="1.6852281756009537 2.969463112862391 6.62951414334458 4.059399600608083" x="0px" y="0px"><title>KAMASUTRA</title><path d="M3.24711,3.60533c-.0321.0214-.07043.03-.10287.05324a.41952.41952,0,0,0-.07795.07565.47276.47276,0,0,0-.0974.19892.36974.36974,0,0,0,.0157.21711.56869.56869,0,0,0,.0561.09984.28651.28651,0,0,0,.071.09183.02239.02239,0,0,0,.0348-.01586c.00769-.06063-.0512-.12387-.07692-.1754a.31674.31674,0,0,1-.02886-.19638.40722.40722,0,0,1,.08279-.17957c.01885-.02449.04-.047.0606-.07a.47921.47921,0,0,1,.07619-.08327C3.27142,3.614,3.25817,3.598,3.24711,3.60533Z" /><path d="M3.187,4.4899a.0952.0952,0,0,0,.02176-.03344.272.272,0,0,0,.00032-.14553.06865.06865,0,0,0,.03914.00478.02942.02942,0,0,0,.01224-.05236c-.02281-.0209-.04644-.02781-.05925-.05923A.18219.18219,0,0,1,3.194,4.11774l.01446.00283c.01237.00927.03064-.00915.019-.02041-.01964-.01906-.03136-.03466-.05986-.038a.03166.03166,0,0,0-.03251.02027.23048.23048,0,0,0,.00691.15946.1663.1663,0,0,0,.03633.049l-.015.08219c-.0064.03433-.0127.07791-.05375.086a.23571.23571,0,0,0-.07893-.0015.23905.23905,0,0,0-.1832.18517.00857.00857,0,0,0,.01606.006.20875.20875,0,0,1,.17313-.11538.25265.25265,0,0,1,.19719.07507.02062.02062,0,0,0,.03464-.0213A.21761.21761,0,0,0,3.187,4.4899Z" /><path d="M2.82665,4.71412a1.42314,1.42314,0,0,0-.11117.18345,1.46763,1.46763,0,0,0-.08909.181,1.75985,1.75985,0,0,0-.09662.41944A1.46761,1.46761,0,0,1,2.49,5.71348c-.02014.0695-.05.13557-.07669.20267a1.85329,1.85329,0,0,0-.106.40895c-.01211.07987-.02156.16039-.02816.2409-.006.07321.00674.1754-.07087.21484a.01914.01914,0,0,0,.00106.035c.14327.04736.14813-.18975.15643-.27265a2.529,2.529,0,0,1,.07832-.45809c.04181-.1433.11417-.27515.14478-.42193a4.62216,4.62216,0,0,1,.08208-.46147c.02471-.07828.055-.15474.08341-.23172.03016-.08174.072-.1594.09658-.243A.01392.01392,0,0,0,2.82665,4.71412Z" /><path d="M2.08772,6.88582a.96523.96523,0,0,0-.165-.02256c-.0527.00536-.102.02891-.15416.03666a.01238.01238,0,0,0-.00516.02209c.04762.03456.09619.01492.14922.00652a.30405.30405,0,0,1,.09777.00934.149.149,0,0,0,.084-.01025A.02205.02205,0,0,0,2.08772,6.88582Z" /><path d="M2.08338,6.79706a.31636.31636,0,0,0-.191-.02868.59028.59028,0,0,0-.20068.06329.01143.01143,0,0,0,.00346.02163.62107.62107,0,0,0,.1771-.01952.4878.4878,0,0,1,.09709-.00172.84376.84376,0,0,0,.09674.01132C2.08909,6.8428,2.1072,6.81242,2.08338,6.79706Z" /><path d="M2.19158,6.72563a.23908.23908,0,0,0-.11824-.07086.23788.23788,0,0,0-.14.03c-.00867.00508-.01164.0211.00074.02438a.36945.36945,0,0,0,.104.003c.04619-.0007.08654.033.13128.04468C2.18587,6.76109,2.20738,6.74082,2.19158,6.72563Z" /><path d="M5.50342,6.63409a1.42723,1.42723,0,0,0-.377.00909,3.615,3.615,0,0,0-.36568.06266c-.12083.029-.2406.062-.36087.09318a1.58315,1.58315,0,0,1-.37282.06339.52093.52093,0,0,1-.494-.25256c-.04525-.099-.04335-.21274-.08753-.31243A1.02809,1.02809,0,0,0,3.282,6.05461a2.08438,2.08438,0,0,1-.20832-.26374.351.351,0,0,1-.06183-.18821.41406.41406,0,0,1,.01857-.10951c.0152-.02432.0303-.04848.04379-.07279a.88579.88579,0,0,0,.12508-.2628A.02372.02372,0,0,0,3.161,5.137a.72473.72473,0,0,0-.12217.20941c-.0364.07482-.071.15042-.1044.22664a1.12863,1.12863,0,0,0-.09027.21295,1.63056,1.63056,0,0,1-.05654.22152,3.16756,3.16756,0,0,1-.18906.39348c-.0343.065-.06692.13108-.096.19859-.02841.06606-.04857.13551-.07752.2012-.075.17025-.30055.16238-.45547.17538a.0114.0114,0,0,0-.00218.0218.57909.57909,0,0,0,.24018.02841.385.385,0,0,0,.18692-.076.42383.42383,0,0,0,.10474-.188,1.86319,1.86319,0,0,1,.10162-.20578c.07539-.13587.15537-.26943.21946-.41122a1.37381,1.37381,0,0,0,.07817-.21468c.02007-.076.02318-.15206.03644-.22875a.6288.6288,0,0,0,.15231.29475c.06721.08341.143.15986.2049.24755a.6851.6851,0,0,1,.072.13057,1.25611,1.25611,0,0,1,.0489.18183.53828.53828,0,0,0,.43488.39,1.72131,1.72131,0,0,0,.771-.10519c.146-.03821.29235-.07756.44033-.1073a4.34054,4.34054,0,0,1,.44538-.05538C5.53093,6.67638,5.52816,6.63724,5.50342,6.63409Z" /><path d="M7.03559,6.86371a1.22982,1.22982,0,0,0-.20313.01437,1.85618,1.85618,0,0,1-.20631.01007c-.13356-.00248-.26691.006-.40022-.00748A1.493,1.493,0,0,1,5.8916,6.807c-.051-.01754-.10015-.03948-.15026-.05933a.5866.5866,0,0,1-.1595-.08652c-.00575-.00481-.01448.00436-.0091.00975.04264.04275.081.08739.12736.12664a.61322.61322,0,0,0,.14761.08851,1.16644,1.16644,0,0,0,.3482.08889,1.51226,1.51226,0,0,0,.41626-.00616c.07066-.0121.14123-.02541.21215-.036.0383-.00573.07654-.01136.11493-.01639a.52649.52649,0,0,0,.10113-.0227C7.05558,6.88867,7.05048,6.86478,7.03559,6.86371Z" /><path d="M4.26715,6.59278c-.0035-.04489-.04536-.085-.06917-.12174a.88077.88077,0,0,0-.08605-.12846.01165.01165,0,0,0-.02036.00912.582.582,0,0,0,.05609.14115c.01962.04128.03593.10171.07622.12681A.028.028,0,0,0,4.26715,6.59278Z" /><path d="M4.29572,6.41851a.29988.29988,0,0,0-.093-.12474.01223.01223,0,0,0-.01881.01169.4513.4513,0,0,0,.05426.13854.39412.39412,0,0,0,.06549.138.025.025,0,0,0,.04361-.01316A.26823.26823,0,0,0,4.29572,6.41851Z" /><path d="M4.352,6.31414a.205.205,0,0,0-.09989-.09926c-.01383-.00606-.03247.01136-.02389.02538a.9473.9473,0,0,1,.06327.10769.59046.59046,0,0,0,.04263.11157A.02241.02241,0,0,0,4.372,6.45323.15925.15925,0,0,0,4.352,6.31414Z" /><path d="M4.39588,6.121a.80344.80344,0,0,0-.21507-.056c-.02925-.00608-.05022-.01311-.06054-.04331A.4458.4458,0,0,1,4.1028,5.9176c-.00657-.07487-.00267-.15018-.00577-.2252A1.75543,1.75543,0,0,0,4.06914,5.471a4.27576,4.27576,0,0,1-.01819-.88106c.003-.0788.007-.15751.014-.23607.0036-.04013.00908-.07992.01584-.11963A.712.712,0,0,1,4.106,4.10642.015.015,0,0,0,4.07789,4.096c-.01373.03541-.03275.06849-.04662.10377a.80722.80722,0,0,0-.031.10834,1.44807,1.44807,0,0,0-.035.22727c-.012.16-.01251.32109-.016.4814a2.63326,2.63326,0,0,0,.03384.476,1.8315,1.8315,0,0,1,.02548.25059,1.58866,1.58866,0,0,0,.01225.23581c.012.07022.03575.13988.11085.16164a.68616.68616,0,0,0,.25906.03131C4.41987,6.16856,4.41724,6.13212,4.39588,6.121Z" /><path d="M4.08455,6.4529c-.02295-.04622-.04742-.09158-.07145-.13724a1.12639,1.12639,0,0,1-.054-.11365.76835.76835,0,0,1-.03388-.13965,1.41553,1.41553,0,0,0-.09561-.2581,1.61512,1.61512,0,0,1-.08351-.2707c-.03989-.19118-.02365-.38618-.05257-.57862a2.67123,2.67123,0,0,1-.02315-.597c.00765-.10591.01167-.21537.0284-.32025A.28794.28794,0,0,1,3.872,3.83391c.0128-.00706.00861-.03008-.00777-.02635a.37316.37316,0,0,0-.06475.02125.30838.30838,0,0,0-.03-.10089.1625.1625,0,0,0-.09339-.08917.01142.01142,0,0,0-.01271.01779.41745.41745,0,0,1,.05336.11339l.00437.01773A.55922.55922,0,0,0,3.619,3.74427a.59672.59672,0,0,1-.2394-.14332A.45566.45566,0,0,1,3.27029,3.31a.29077.29077,0,0,1,.1048-.27939c.0126-.00781-.00216-.02562-.01463-.01788a.36421.36421,0,0,0-.17024.23292.47935.47935,0,0,0,.19347.48137c-.01349.00809-.02653.01778-.0406.02565a.6679.6679,0,0,0-.1221.07844.1967.1967,0,0,0-.06284.08482.28233.28233,0,0,0,.00753.121c.00272.02174.035.0161.03327-.00526a.13257.13257,0,0,1,.02959-.1001.41452.41452,0,0,1,.07205-.05111c.05007-.03548.08776-.09568.14782-.11164l.032.01724a.95042.95042,0,0,0,.13993.05476.57777.57777,0,0,1,.06811.02521.16612.16612,0,0,1,.02488.01511.32456.32456,0,0,0-.02706.02487.15139.15139,0,0,0-.10294.02994.01527.01527,0,0,0,.00427.02567.12235.12235,0,0,0,.05392.00907.62965.62965,0,0,0-.03806.19853c-.01037.09765-.01915.19592-.02349.29431A.77575.77575,0,0,1,3.47365,4.428a.27662.27662,0,0,1-.135-.09268C3.33045,4.32112,3.307,4.331,3.315,4.3458a.32739.32739,0,0,0,.09919.13541.53035.53035,0,0,0,.1633.06323A2.18389,2.18389,0,0,0,3.5881,4.811c.01084.1025.03262.20363.03894.30664.00645.105.00241.20986.01564.31454a1.53942,1.53942,0,0,0,.0664.29c.0323.09769.08595.18581.121.28226.01925.053.02413.10862.0385.16286a.7599.7599,0,0,0,.05411.13983c.02557.05211.0525.10386.08056.15467a.40178.40178,0,0,0,.09524.14237A.02314.02314,0,0,0,4.13416,6.582.31773.31773,0,0,0,4.08455,6.4529Z" /><path d="M3.802,6.22748a.03178.03178,0,0,0-.04288-.02.11386.11386,0,0,0-.03534.0262.18673.18673,0,0,0-.0299.03049c-.01758.02349.01782.04689.0365.02584a.06849.06849,0,0,1,.02-.01708.25129.25129,0,0,1,.02643-.0053A.03187.03187,0,0,0,3.802,6.22748Z" /><path d="M8.09211,6.72153c-.06794-.01885-.14014-.02345-.20944-.03653l-.02746-.00551a.35288.35288,0,0,0,.05013-.13894A1.08165,1.08165,0,0,1,7.96368,6.267c.00576-.01169-.00931-.025-.02044-.01924-.064.033-.07642.11261-.09088.17669-.01015.045-.023.08941-.0369.13341a.4317.4317,0,0,1-.02064.0613.153.153,0,0,1-.02594.04173q-.0574-.01341-.11429-.02889c-.0882-.02388-.17566-.05057-.26246-.07922l.03469-.00642a.72848.72848,0,0,0,.20207-.081.66732.66732,0,0,0,.16054-.13166c.02344-.02625.0435-.05578.06855-.08057a.51232.51232,0,0,1,.08251-.05475.02691.02691,0,0,0-.0076-.04573c-.0606-.022-.11258.02924-.15035.07131a.89077.89077,0,0,1-.15605.151.7334.7334,0,0,1-.19563.09271c-.05006.01579-.10205.03294-.15411.04585l-.05022-.01783c-.13795-.04957-.27455-.10285-.4112-.15585a3.59011,3.59011,0,0,1-.3463-.15051,1.07253,1.07253,0,0,1-.34482-.25863c-.00879-.01092-.02368.00224-.01646.01347a.87081.87081,0,0,0,.26122.26649,1.96563,1.96563,0,0,0,.34588.172,7.47291,7.47291,0,0,0,.868.30752q.12224.03265.24645.05715a1.09572,1.09572,0,0,0,.25689.03362A.03107.03107,0,0,0,8.09211,6.72153Z" /><path d="M7.956,6.79195a1.16618,1.16618,0,0,1-.34423.02106,2.64316,2.64316,0,0,1-.35341.0521.20034.20034,0,0,1-.13779-.07242.3692.3692,0,0,0-.13613-.09945,2.723,2.723,0,0,0-.31982-.07389,2.35181,2.35181,0,0,1-.63895-.26952c-.09928-.06043-.18864-.13637-.28822-.1956a.56129.56129,0,0,0-.32983-.06686c-.13931.00794-.27639.0299-.41637.03059A2.50038,2.50038,0,0,1,4.565,6.09422a.01253.01253,0,0,0-.00559.02411,1.84754,1.84754,0,0,0,.3756.08574,1.97289,1.97289,0,0,0,.38564-.00752.58512.58512,0,0,1,.34559.03321,1.38418,1.38418,0,0,1,.14361.09967c.05095.03648.10328.07124.15707.10339a2.51862,2.51862,0,0,0,.6502.273,3.3501,3.3501,0,0,1,.334.07717.39115.39115,0,0,1,.13231.0969.26685.26685,0,0,0,.13392.06714,1.6283,1.6283,0,0,0,.401-.04786.61128.61128,0,0,0,.36686-.05975C8.01187,6.81934,7.98453,6.7819,7.956,6.79195Z" /><path d="M5.56966,6.31338c-.024.00085-.04184.019-.0619.03011a.1217.1217,0,0,1-.07366.02238c-.01334-.00106-.01931.01967-.00549.02366.05245.01514.1592.0286.17022-.04859A.02573.02573,0,0,0,5.56966,6.31338Z" /><path d="M7.37943,6.39294a1.22956,1.22956,0,0,1-.11974-.06374c-.04174-.0218-.08253-.04481-.12359-.06784-.076-.04264-.151-.08665-.22362-.1349-.1447-.09608-.27214-.21349-.4105-.31788a1.34931,1.34931,0,0,0-.46732-.22848A5.167,5.167,0,0,0,5.497,5.46869c-.107-.017-.21415-.03158-.32207-.04088-.10876-.00938-.217-.00379-.32548-.00985-.00921-.00052-.0107.01363-.00143.0143.0936.00679.18859.02847.28123.04438.09355.01606.18732.03087.28069.048.18513.03391.37078.072.55285.11985a1.36831,1.36831,0,0,1,.4747.217c.13755.101.26269.21749.40407.31351a2.05975,2.05975,0,0,0,.24737.14383c.0444.02187.09113.03987.13744.05728.04693.01764.0963.02514.14375.042A.0134.0134,0,0,0,7.37943,6.39294Z" /><path d="M8.29524,6.54767a1.22758,1.22758,0,0,1-.14463-.00249.87761.87761,0,0,0,.07065-.26558c.00579-.05269.02728-.17573-.04591-.19473-.06826-.01772-.13264.08071-.16036.129a.00766.00766,0,0,0,.01249.00884A.18336.18336,0,0,1,8.098,6.16539a.10488.10488,0,0,1,.04007-.01321c.02016.00206.01593.01048.01595.02939a.81424.81424,0,0,1-.02074.17564.78218.78218,0,0,1-.05553.1649.48236.48236,0,0,1-.092.10889.0259.0259,0,0,0,.01207.0391.10654.10654,0,0,0,.1112-.05172A.40411.40411,0,0,0,8.30094,6.567.01022.01022,0,0,0,8.29524,6.54767Z" /><path d="M8.294,6.60448a.8202.8202,0,0,0-.07222.05673c-.02559.01886-.05287.03732-.07983.05414-.01755.01095-.0024.03839.01583.03534a.18914.18914,0,0,0,.1569-.13122A.01485.01485,0,0,0,8.294,6.60448Z" /><path d="M4.55977,4.29686c-.03932-.07028-.11484-.12106-.138-.19958a.01371.01371,0,0,0-.026.00416.32983.32983,0,0,0,.05166.15742.26519.26519,0,0,1,.05627.1783.21419.21419,0,0,1-.10883.16241c-.047.02042-.17626.04327-.20915-.00953-.00712-.01143-.02416.00044-.01951.012a.1682.1682,0,0,0,.17792.08638.23084.23084,0,0,0,.20625-.135A.273.273,0,0,0,4.55977,4.29686Z" /><path d="M4.281,3.88916a.50374.50374,0,0,0-.07816-.1115,1.40043,1.40043,0,0,1-.08214-.12184.47714.47714,0,0,1-.09876-.27206.01064.01064,0,0,0-.02117-.00211.479.479,0,0,0,.04952.29733,1.18244,1.18244,0,0,0,.08609.13341.29291.29291,0,0,0,.11319.11017A.02517.02517,0,0,0,4.281,3.88916Z" /><path d="M5.98224,5.83565a1.541,1.541,0,0,0-.31808-.17513,2.72238,2.72238,0,0,0-.35381-.10281c-.12409-.02814-.24955-.04946-.37547-.06744-.04129-.0059-.08273-.012-.12428-.01731a.71119.71119,0,0,0-.0245-.08531c-.0102-.03541-.01947-.07114-.02686-.10725a.70874.70874,0,0,1-.00936-.24572,1.02437,1.02437,0,0,0,.01678-.22826,1.84639,1.84639,0,0,0-.02861-.20075.17548.17548,0,0,0,.05322-.03354A.23516.23516,0,0,0,4.86375,4.455a.28339.28339,0,0,0-.08935-.27248,1.25865,1.25865,0,0,0-.12-.08962A.31193.31193,0,0,1,4.551,3.95985a.27423.27423,0,0,0-.08637-.11756.20534.20534,0,0,0-.1326-.022c-.01074.00074-.00962.01718.00052.01835a.18889.18889,0,0,1,.111.07055.45961.45961,0,0,1,.05593.11817.42686.42686,0,0,0,.16615.16883.2486.2486,0,0,1,.12927.19707.18841.18841,0,0,1-.145.17088c-.02543.009-.01382.0422.00746.04664a.162.162,0,0,0,.03332.00354.6632.6632,0,0,0-.00195.18029,1.27577,1.27577,0,0,1-.02391.255.73688.73688,0,0,0,.01126.24389c.00833.04132.01921.08205.03094.12251l.01313.047a1.2752,1.2752,0,0,0-.1327-.0053.54548.54548,0,0,0-.17388.02931.4497.4497,0,0,0-.07833.03478.32607.32607,0,0,0-.06885.06111c-.00748.00767-.00049.02355.0108.01757a.71214.71214,0,0,1,.3877-.04879c.14671.0125.29326.03266.43831.05783a3.49945,3.49945,0,0,1,.4383.1042c.07088.022.14054.0472.21011.073.07187.02661.14474.04683.2146.07931C5.98406,5.87429,5.99838,5.84647,5.98224,5.83565Z" /><path d="M4.62222,5.20307c-.00575-.04784-.00746-.09679-.01438-.14429a.013.013,0,0,0-.0249-.00249c-.03141.089-.06078.21907.0206.28983.00634.00551.01467-.00061.016-.0073A.43467.43467,0,0,0,4.62222,5.20307Z" /><path d="M3.47573,3.99861a.14763.14763,0,0,0-.05905.00214c-.01907.00091-.03782.00011-.05688.00131a.00887.00887,0,0,0-.00544.01426c.02679.03494.10006.05319.13171.01582A.02229.02229,0,0,0,3.47573,3.99861Z" /><path d="M3.50438,3.91626a.17585.17585,0,0,0-.09572-.00077.18753.18753,0,0,0-.07807.04056c-.00657.00493.0003.01662.0077.01253.02942-.01627.07063.00272.10159.00437a.08489.08489,0,0,0,.07443-.02455A.02138.02138,0,0,0,3.50438,3.91626Z" /><path d="M3.59093,3.60228A.11039.11039,0,0,0,3.5364,3.559a.27419.27419,0,0,0-.04027-.004.07339.07339,0,0,1-.0276-.00448.03638.03638,0,0,1-.02263-.0469A.02573.02573,0,0,0,3.48555,3.479a.3879.3879,0,0,0-.01338-.073.01835.01835,0,0,0,.018.00927.1007.1007,0,0,0,.07081-.0352c.01345-.01511.03577-.04849.02364-.06909a.015.015,0,0,0-.01919-.00741c-.01619.00673-.025.03015-.03762.04225a.2197.2197,0,0,1-.04773.03523.01784.01784,0,0,0-.01022.01674c-.00615-.02176-.01316-.04325-.01959-.06488l.00732-.01011a.21489.21489,0,0,0,.03786-.05306.0129.0129,0,0,0-.01064-.01707.073.073,0,0,0-.0503.01527L3.432,3.24945a.2512.2512,0,0,1,.05811-.19512.01156.01156,0,0,0-.01463-.01789.24787.24787,0,0,0-.12192.19026.46545.46545,0,0,0,.06544.23442.06759.06759,0,0,0-.02027.08648.144.144,0,0,0,.06614.0648.12861.12861,0,0,0,.04865.01171c.01755.00108.04959-.01085.06446-.00368C3.58853,3.62552,3.598,3.6106,3.59093,3.60228Z" /><path d="M3.906,3.43408c-.0699-.045-.09545.09887-.11708.13491-.0059.00984.00835.02029.01474.01043a.55729.55729,0,0,1,.06634-.074c.01707-.01812.03709-.0323.04236-.05739A.01483.01483,0,0,0,3.906,3.43408Z" /><path d="M3.92523,3.25055a.34.34,0,0,0-.06237-.12233l-.02442-.02589-.0082-.00773a.51733.51733,0,0,0-.074-.05706.49208.49208,0,0,0-.12047-.0568.64688.64688,0,0,0-.14348-.01086.0111.0111,0,0,0-.00221.02208.46573.46573,0,0,1,.124.047.62849.62849,0,0,1,.05925.02862l-.00365.003a.16011.16011,0,0,0-.04276.0632.011.011,0,0,0,.01707.0122c.01755-.01089.03217-.02524.05057-.03493.009-.00474.01933-.00812.02838-.013.01689.01169.03375.02458.05037.03827a.837.837,0,0,1-.08078.07168.01072.01072,0,0,0,.0084.01874.18409.18409,0,0,0,.10621-.061.90321.90321,0,0,1,.09395.09951C3.91171,3.27866,3.93018,3.26522,3.92523,3.25055Z" /><path d="M4.33623,3.75507a1.25115,1.25115,0,0,1-.19109-.33577.68575.68575,0,0,0-.09774-.16845c-.04088-.048-.10542-.09168-.12377-.15375-.00331-.01121-.02281-.00555-.0198.00584a.46443.46443,0,0,0,.08927.16677.7611.7611,0,0,1,.10057.19626,1.22292,1.22292,0,0,0,.08167.19.33245.33245,0,0,0,.06187.08084.21925.21925,0,0,0,.08139.04292A.01581.01581,0,0,0,4.33623,3.75507Z" /><path d="M3.82183,3.29095c-.00887.00343-.01844.00526-.02708.0092a.08313.08313,0,0,0-.02578.02143.12056.12056,0,0,0-.03.0498.01772.01772,0,0,0,.02345.02208.19412.19412,0,0,0,.0453-.03211.11625.11625,0,0,0,.02014-.02077c.00544-.008.00837-.01742.01372-.02551A.01629.01629,0,0,0,3.82183,3.29095Z" /></svg>