<svg xmlns="http://www.w3.org/2000/svg" data-name="Layer 1" viewBox="2.459086251641906 2.1737075367671617 5.081823328828946 5.646861085921672" x="0px" y="0px"><title>KAMASUTRA</title><path d="M6.66845,3.1049a.36088.36088,0,0,0-.33471-.01418.01318.01318,0,0,0,.00736.025.48151.48151,0,0,1,.3294.09186.39672.39672,0,0,1,.14825.30552.51864.51864,0,0,1-.11354.32884.60644.60644,0,0,1-.294.191c-.02045.0069-.0095.03723.0103.03493a.57169.57169,0,0,0,.47308-.386A.49488.49488,0,0,0,6.66845,3.1049Z" /><path d="M6.65892,3.55761a.32682.32682,0,0,0-.08534-.15115c-.03436-.03352-.121-.06588-.12488-.11833-.00116-.01579-.0254-.01182-.02426.00383a.1792.1792,0,0,0,.04643.11173.53616.53616,0,0,1,.08807.12591.42424.42424,0,0,1,.0297.15611.30418.30418,0,0,1-.05594.16024c-.01184.01758.012.04252.02843.02652a.30727.30727,0,0,0,.08808-.14532A.2866.2866,0,0,0,6.65892,3.55761Z" /><path d="M5.17271,3.67026c-.06152-.01415-.10628.07843-.07459.12527a.01341.01341,0,0,0,.02281-.00379A.146.146,0,0,1,5.14328,3.743a.47479.47479,0,0,1,.04079-.03506A.02163.02163,0,0,0,5.17271,3.67026Z" /><path d="M5.25412,2.90756a.0083.0083,0,0,0-.01651-.00165.92244.92244,0,0,1-.03174.12673A.85534.85534,0,0,1,5.17,3.15138a.39327.39327,0,0,1-.06.09643.25171.25171,0,0,1-.03277.0138.55357.55357,0,0,0,.02389-.08618.842.842,0,0,0,.018-.15839q.00068-.0396-.00178-.07908c-.00183-.0289-.01-.05645-.0117-.085-.00064-.011-.01887-.01046-.01936.00055a.99.99,0,0,1-.02145.12162c-.00716.04063-.01447.08136-.02315.1217a.42913.42913,0,0,1-.05873.18294c-.019.00117-.03809.00131-.0572.00121l.0026-.0033a.394.394,0,0,0,.05934-.19908.83306.83306,0,0,1,.12548-.42106c.00912-.01273-.00937-.02471-.01936-.01371a.70172.70172,0,0,0-.18426.33262,1.48387,1.48387,0,0,1-.03387.20031.28389.28389,0,0,1-.066.10863l-.027.00506a.46011.46011,0,0,0-.27579.23847A.34836.34836,0,0,0,4.452,3.576a.316.316,0,0,0-.08222.25639.33841.33841,0,0,0,.084.18558c-.02786.1-.06316.19667-.095.29538a1.76632,1.76632,0,0,1-.12518.30574c-.04871.08917-.11066.16972-.16467.25557a1.14508,1.14508,0,0,0-.06939.127.53442.53442,0,0,0-.04119.145c-.00235.014.01815.01754.02332.00541A1.22413,1.22413,0,0,1,4.14659,4.899a1.99956,1.99956,0,0,0,.17781-.25649,1.6707,1.6707,0,0,0,.12445-.29567c.02856-.09013.04425-.18453.06382-.27733a.26629.26629,0,0,0,.25822.0411.03334.03334,0,0,0-.01008-.06308A.4944.4944,0,0,1,4.56775,3.994.25138.25138,0,0,1,4.459,3.81828a.273.273,0,0,1,.04855-.19788.29753.29753,0,0,1,.1758-.11613c.01695-.00244.01251-.0272-.0041-.02591a.67254.67254,0,0,0-.07583.00794A.59523.59523,0,0,1,4.67,3.42615a.36785.36785,0,0,1,.23311-.06536.396.396,0,0,0,.2154-.03671.201.201,0,0,0,.07855-.08768A.35711.35711,0,0,0,5.22037,3.195.42706.42706,0,0,0,5.258,3.06652,1.48119,1.48119,0,0,0,5.25412,2.90756Z" /><path d="M5.67861,3.67793c-.022-.02367-.0738-.009-.06373.02856a.45971.45971,0,0,1,.02523.18311.26617.26617,0,0,1-.08107.16249.289.289,0,0,1-.17022.06823A.36005.36005,0,0,1,5.29151,4.117a.25228.25228,0,0,1-.105-.03692c-.01106-.009-.0234.00887-.01274.018.01685.01442.02879.03293.04633.0465a.26366.26366,0,0,0,.04762.028.30726.30726,0,0,0,.11806.03037.33172.33172,0,0,0,.23078-.08049A.33645.33645,0,0,0,5.67861,3.67793Z" /><path d="M6.573,5.94316a1.45671,1.45671,0,0,0-.07862-.22891c-.02931-.07821-.05759-.15677-.08661-.23508-.05589-.15086-.12533-.29682-.17558-.44979a2.05924,2.05924,0,0,1-.08259-.459,1.2036,1.2036,0,0,0-.10895-.42856c-.03271-.06659-.069-.13188-.10715-.1955a.518.518,0,0,1-.08547-.218c-.001-.01971-.03066-.01445-.03006.00475.001.03277-.003.0647.00118.09741a.645.645,0,0,0,.02285.10223l.011.0342a1.82828,1.82828,0,0,1-.14.199c-.05748.06892-.11937.13415-.1786.20156a1.17868,1.17868,0,0,0-.276.46013.64661.64661,0,0,0-.01323.28131,1.88743,1.88743,0,0,0,.08228.2869,1.99847,1.99847,0,0,1,.12162.59512,1.26019,1.26019,0,0,1-.14866.61082c-.00554.01031.00686.02615.01689.01575a1.13311,1.13311,0,0,0,.16262-1.08683,1.9778,1.9778,0,0,1-.13944-.59249.80945.80945,0,0,1,.24763-.47051,1.53359,1.53359,0,0,0,.299-.41416c.01.0226.02066.045.03182.06753a1.351,1.351,0,0,1,.08294.18811,1.18372,1.18372,0,0,1,.04274.2351,2.29825,2.29825,0,0,0,.0763.45739c.0235.07461.05094.148.08.22087a1.443,1.443,0,0,0-.13861.20842q-.068.11642-.12885.23684a2.46091,2.46091,0,0,0-.107.24187c-.0156.04127-.03072.08283-.04337.12511-.01359.0454-.0195.09168-.03107.13723a.011.011,0,0,0,.02066.00768c.0191-.03979.04449-.07776.0646-.11732s.039-.07967.0585-.1195q.05839-.11926.11855-.23762.059-.116.12528-.2281c.03242-.055.06687-.10838.09835-.16364l.05541.13349c.03661.08866.07849.1752.1172.263A1.68634,1.68634,0,0,0,6.53,5.96245C6.54359,5.983,6.57739,5.96586,6.573,5.94316Z" /><path d="M6.20706,3.39829a.37488.37488,0,0,0-.25037-.05854c-.079.00126-.15779.00415-.23665.00754A.05317.05317,0,0,1,5.70342,3.31a.32021.32021,0,0,1,.00472-.10339.78156.78156,0,0,1,.0765-.18246A.01135.01135,0,0,0,5.76957,3.01a.31009.31009,0,0,0-.14756.26111.24645.24645,0,0,0,.00715.08013c-.04153.00161-.0832.003-.12448.00735-.053.00562-.10328.02621-.15637.03a.01107.01107,0,0,0,.00062.02185,1.27894,1.27894,0,0,1,.12772.02132,1.08722,1.08722,0,0,0,.13688.00617c.08906.001.17812.00276.26718.00163.13288-.00168.32271-.01659.36935.14137.00679.023.03858.01232.04186-.00669A.19853.19853,0,0,0,6.20706,3.39829Z" /><path d="M6.81137,5.09092A2.10854,2.10854,0,0,0,6.757,4.73375a.5119.5119,0,0,0-.16143-.27308.77192.77192,0,0,0-.13046-.082l-.00708-.00379L6.4563,4.37a.05257.05257,0,0,0-.01718-.01935.33488.33488,0,0,1,.02517-.24019A.0125.0125,0,0,0,6.44391,4.096a.42423.42423,0,0,0-.07155.11717l-.01443-.0866c-.01208-.06994-.02376-.14-.03637-.20981-.01307-.07238-.03171-.14346-.0444-.21591a.011.011,0,0,0-.02177.00344,3.7481,3.7481,0,0,1,.03259.38875,3.20179,3.20179,0,0,0,.04755.39336c.02447.12582.06254.24736.097.37059a2.03928,2.03928,0,0,1,.06125.3777.42214.42214,0,0,0,.14962.32888c.02579.01795.06217-.01761.039-.0418A.47561.47561,0,0,1,6.57435,5.222,2.02062,2.02062,0,0,0,6.516,4.85106c-.03259-.11853-.07-.23535-.09464-.356l-.00875-.04451c.02891.02347.06009.04339.09112.06477a.40775.40775,0,0,1,.1584.24515c.02931.11316.03582.23038.05465.34536.02279.13916.04963.27689.08218.41409.00445.01877.03683.02118.0364-.001C6.83257,5.37576,6.8242,5.23354,6.81137,5.09092Z" /><path d="M6.98918,5.9677c-.02416-.06745-.11973-.107-.18074-.13172-.03625-.01469-.07384-.02564-.11018-.0401-.04-.01593-.07511-.03829-.11314-.05778-.01821-.00933-.02841.01547-.02037.0285a.40053.40053,0,0,0,.18534.12281.98.98,0,0,1,.099.04692c.03417.0201.05844.05064.09077.0717A.03334.03334,0,0,0,6.98918,5.9677Z" /><path d="M6.991,5.86a.25365.25365,0,0,0-.11512-.10559.93416.93416,0,0,0-.149-.07067.014.014,0,0,0-.01293.02447,1.55347,1.55347,0,0,1,.13019.0911.4083.4083,0,0,0,.125.08392A.01753.01753,0,0,0,6.991,5.86Z" /><path d="M7.01454,5.776c-.01275-.05022-.07717-.09075-.11821-.11712a1.01758,1.01758,0,0,0-.16521-.07855c-.01126-.00468-.02134.01326-.01021.01933a1.0145,1.0145,0,0,1,.1442.10332c.03842.03079.081.08266.1297.09391A.01821.01821,0,0,0,7.01454,5.776Z" /><path d="M3.75494,6.70262a.16906.16906,0,0,0-.01129-.08538.00886.00886,0,0,0-.01509-.00151.32484.32484,0,0,0-.03035.14661c-.00452.03259-.008.06592-.014.09862a1.68184,1.68184,0,0,1-.285.05611,1.86653,1.86653,0,0,1-.31424.00477A1.13017,1.13017,0,0,1,2.78713,6.857.45819.45819,0,0,1,2.66444,6.792.47023.47023,0,0,1,2.57866,6.691c-.00928-.01273-.02585-.00149-.02532.01135a.30852.30852,0,0,0,.16166.2188.823.823,0,0,0,.32586.09253,1.2835,1.2835,0,0,0,.34548,0,1.24277,1.24277,0,0,0,.27586-.07332.2927.2927,0,0,1-.18315.184c-.02719.00755-.0205.05134.00691.04372a.35408.35408,0,0,0,.23857-.18218.46455.46455,0,0,0,.03224-.18263C3.75663,6.76974,3.75562,6.73617,3.75494,6.70262Z" /><path d="M4.16826,6.49608a.03124.03124,0,0,0-.04844.03008c.02434.08837-.04858.13694-.1025.19254a.73194.73194,0,0,0-.13252.21515.61574.61574,0,0,1-.12455.20439.22069.22069,0,0,1-.1033.05427.18444.18444,0,0,1-.10773.00227C3.5349,7.1873,3.522,7.2116,3.5359,7.22a.40886.40886,0,0,0,.05025.03446.15553.15553,0,0,0,.06176.01165.25039.25039,0,0,0,.12641-.03825.51135.51135,0,0,0,.182-.23271,1.50909,1.50909,0,0,1,.07193-.14187A.66571.66571,0,0,1,4.13174,6.735C4.19327,6.67322,4.2534,6.56475,4.16826,6.49608Z" /><path d="M4.80017,6.46622c-.0583-.08036-.1342-.14616-.18792-.23082-.026-.04091-.04873-.08456-.07066-.12774-.01119-.022-.02543-.046-.03807-.0706l-.00013-.00549a.76666.76666,0,0,1,.21808-.2275c.01744-.01071.00635-.03963-.01333-.03013a.79925.79925,0,0,0-.2253.15133.44824.44824,0,0,0-.06572-.16112,1.22749,1.22749,0,0,0-.20423-.20943c-.014-.01361-.038.00549-.02387.01953a.86841.86841,0,0,1,.15457.20645.48337.48337,0,0,1,.04312.112c.00951.03959.00516.08007.01306.11906-.02227.00471-.04437.01069-.06532.01417-.05192.00862-.10444.01535-.15691.0195a1.6631,1.6631,0,0,1-.32143-.0042,1.75074,1.75074,0,0,1-.30936-.06452q-.03164-.00963-.0632-.02019a.82451.82451,0,0,0-.23968-.11271.58279.58279,0,0,0-.154-.02129.659.659,0,0,0-.1622.03082c-.01431.00369-.01117.02626.00364.023a.45161.45161,0,0,1,.16583.0066.82288.82288,0,0,1,.158.04588c.01792.007.0355.01477.05282.023.02062.01362.0422.02585.06259.03765.02075.012.04172.02327.063.034.0336.02216.0662.04587.098.07039.08539.06575.16638.13657.2548.19841a.92028.92028,0,0,0,.28036.15532c.01691.00431.03113-.01712.01507-.02852-.04813-.03417-.10026-.0625-.14783-.09746-.04442-.03265-.08594-.06931-.127-.106-.03662-.03272-.07339-.06523-.11073-.097a1.3819,1.3819,0,0,0,.14943.0273,1.35816,1.35816,0,0,0,.34164.00161,1.19547,1.19547,0,0,0,.16136-.0318.66584.66584,0,0,0,.10114-.03082c.0027.01568.00627.03118.01054.04672a.5821.5821,0,0,0,.06931.1554.8255.8255,0,0,0,.0699.09682.63781.63781,0,0,0-.04515.06062.571.571,0,0,1-.08508.07933,1.21935,1.21935,0,0,1-.22047.1467.00956.00956,0,0,0,.00774.01747,1.17089,1.17089,0,0,0,.26668-.1078l.02669-.02008-.00247.01152a.3928.3928,0,0,1-.04315.11613c-.01914.03375-.04624.06263-.062.09817a.02025.02025,0,0,0,.02689.02531.27037.27037,0,0,0,.14656-.1704c.01361-.05117.00914-.11146.01771-.16629a.19511.19511,0,0,0,.02185-.03306.33049.33049,0,0,0,.1139.06806A.02782.02782,0,0,0,4.80017,6.46622Z" /><path d="M5.20639,5.47a.40528.40528,0,0,0-.17855.08955c-.01112.00764.00058.02691.01253.02038a.31712.31712,0,0,1,.13086-.03019.21046.21046,0,0,1,.05558-.00286l.01583.00516c.00182.00058.02263.00989.012.00367a.02665.02665,0,0,0,.03957-.01221C5.32171,5.48609,5.249,5.465,5.20639,5.47Z" /><path d="M4.64136,4.729c-.046.09254-.09805.18218-.14587.27383-.04.07662-.09436.16866-.05638.25675a.03.03,0,0,0,.055-.00167c.03193-.0808.05522-.16624.084-.24837.03144-.08968.0586-.18091.0918-.26993C4.67686,4.72093,4.64991,4.71186,4.64136,4.729Z" /><path d="M4.55911,7.66629c-.00954-.025-.03331-.03765-.04651-.06034a.14785.14785,0,0,1-.0165-.08252c.00324-.075.02483-.14884.02964-.22412a1.04691,1.04691,0,0,0-.00679-.213.53632.53632,0,0,0-.02547-.10013c-.01261-.0363-.03307-.06788-.04646-.10348a.01528.01528,0,0,0-.02894.00853.7744.7744,0,0,1,.00721.12239c.00181.041.0052.08172.008.12263a1.21023,1.21023,0,0,1-.00842.24707.5.5,0,0,0-.007.22367c.01543.04818.06707.12486.127.096A.02846.02846,0,0,0,4.55911,7.66629Z" /><path d="M5.31068,7.77717a1.045,1.045,0,0,1-.28381-.137.65137.65137,0,0,1-.12954-.09523.29573.29573,0,0,1-.053-.07525.30864.30864,0,0,0,.00728-.04209,2.20888,2.20888,0,0,0-.0619-.43192c-.00182-.01892-.02706-.01482-.03058.00087a1.44853,1.44853,0,0,0,.01413.3653c.00305.09433-.01976.23468-.12006.27445-.0118.00468-.00618.02539.00642.02176a.25847.25847,0,0,0,.15574-.11663l.00945.01947a.41876.41876,0,0,0,.13059.13443.44411.44411,0,0,0,.3511.12325C5.32481,7.81371,5.33384,7.78326,5.31068,7.77717Z" /><path d="M5.20139,6.64321a.33528.33528,0,0,0-.066-.00922c-.03469-.00862-.07262-.01011-.10682-.0207A.37966.37966,0,0,1,4.89921,6.557c-.01473-.01223-.03017.01137-.01686.02381a.6213.6213,0,0,0,.0926.07979.34142.34142,0,0,0-.22161.22936c-.00289.01219.01375.02454.02153.01138a.34027.34027,0,0,1,.17551-.14184c.082-.03356.17328-.04107.25206-.08186C5.2152,6.671,5.21845,6.64742,5.20139,6.64321Z" /><path d="M3.69141,6.53667c-.10419-.063-.21633-.11505-.3242-.17159-.10742-.0563-.21644-.10945-.323-.16745-.10225-.05566-.204-.11307-.303-.1743a.61847.61847,0,0,1-.22451-.2085.0155.0155,0,0,0-.02934.00865.2856.2856,0,0,0,.05711.13767.595.595,0,0,0,.11737.11247A1.774,1.774,0,0,0,2.87859,6.21a.64885.64885,0,0,0-.37829.42315c-.00268.0108.01214.02151.019.01a.90844.90844,0,0,1,.19141-.23656.99016.99016,0,0,1,.25777-.14748l.00446.00243c.11206.0612.22543.12.34223.17164a2.08974,2.08974,0,0,0,.36654.12953C3.69569,6.56595,3.70322,6.54381,3.69141,6.53667Z" /><path d="M4.00144,5.20087a.96843.96843,0,0,0-.35588-.00968,2.68918,2.68918,0,0,0-.36274.05851A2.00091,2.00091,0,0,0,2.6459,5.494a.3933.3933,0,0,0-.18653.23953c-.003.01378.01862.02136.02566.0096a.57523.57523,0,0,1,.26572-.2198,2.75676,2.75676,0,0,1,.38905-.14172,2.93563,2.93563,0,0,1,.422-.08662q.10519-.01359.21121-.0192a1.27987,1.27987,0,0,0,.22311-.02225C4.02051,5.24792,4.02991,5.20906,4.00144,5.20087Z" /><path d="M5.69786,6.26741c-.00353-.02865-.04209-.02356-.04721.00135a2.58085,2.58085,0,0,0-.04063.4081c-.00607.1368-.01152.27363-.01712.41045a1.425,1.425,0,0,1-.049.37837.44436.44436,0,0,1-.17.25919c-.01117.00731.00041.02392.01188.01932a.45929.45929,0,0,0,.23085-.21441.967.967,0,0,0,.07094-.38907q.00935-.21951.01732-.43909A2.723,2.723,0,0,0,5.69786,6.26741Z" /><path d="M6.79676,6.39212c-.03-.06684-.07165-.12781-.10621-.19231a.726.726,0,0,1-.07573-.21646c-.0018-.01-.01776-.013-.02081-.00208-.04119.1478.06335.29541.12184.42364a.46563.46563,0,0,1,.04973.23711c-.005.05472-.01935.13506.02563.178a.01529.01529,0,0,0,.02569-.01579.12921.12921,0,0,1,.00343-.1014.4742.4742,0,0,0,.02388-.0988A.429.429,0,0,0,6.79676,6.39212Z" /><path d="M7.1146,7.01756a.26066.26066,0,0,0-.1167-.10529.2986.2986,0,0,0-.14324-.05752c-.01012,0-.02173.01036-.01543.0213a.36976.36976,0,0,0,.11239.10159.32611.32611,0,0,0,.13692.07589A.0259.0259,0,0,0,7.1146,7.01756Z" /><path d="M7.48683,6.92481a.955.955,0,0,0-.2-.178,1.05854,1.05854,0,0,1-.192-.17354.6618.6618,0,0,1-.08742-.24558c-.02243-.08985-.04782-.182-.06429-.273-.00209-.01157-.02149-.01211-.02144.00061.00018.04581-.00369.09088-.00078.137.00325.05152.00994.10274.018.15369a.65078.65078,0,0,0,.08126.26442.90435.90435,0,0,0,.196.17186,1.09386,1.09386,0,0,0,.24556.17769C7.48352,6.96895,7.49888,6.94181,7.48683,6.92481Z" /><path d="M7.534,7.03119a1.24117,1.24117,0,0,0-.29857-.10778c-.077-.02948-.17935-.1668-.2651-.077-.0064.0067-.00315.02219.00853.019.05632-.01513.0968.03407.13395.06758a.31606.31606,0,0,0,.12259.07145,1.65593,1.65593,0,0,1,.28237.05741C7.53579,7.07089,7.54989,7.04238,7.534,7.03119Z" /><path d="M5.82111,2.31455a.27214.27214,0,0,0-.09023-.04473.23717.23717,0,0,0-.13427-.08451.3286.3286,0,0,0-.20513.01054.42211.42211,0,0,0-.1714.12411.948.948,0,0,0-.114.20334c-.00709.01452.0162.02282.02341.00871a.56051.56051,0,0,1,.26972-.259.281.281,0,0,1,.16376-.01648l.025.00726c-.01365.00179-.02724.004-.04065.00708a.38849.38849,0,0,0-.299.18024.7092.7092,0,0,0-.06836.20108.82259.82259,0,0,0-.01723.10611,1.09118,1.09118,0,0,1-.00809.11163.021.021,0,0,0,.03781.01414A.64155.64155,0,0,0,5.266,2.71771a1.23817,1.23817,0,0,1,.05219-.18743A.46643.46643,0,0,1,5.39794,2.402a.47041.47041,0,0,1,.10323-.04865.582.582,0,0,1,.30367.00471C5.82949,2.36314,5.83908,2.32773,5.82111,2.31455Z" /><path d="M5.99486,2.61491c-.02863-.06631-.08432-.14846-.0551-.223A.01124.01124,0,0,0,5.9187,2.384a.29482.29482,0,0,0-.017.17637.21579.21579,0,0,0-.0389-.02554,1.1003,1.1003,0,0,0-.13371-.03256.00959.00959,0,0,0-.00428.01846.67641.67641,0,0,1,.10112.052.45308.45308,0,0,1,.05375.04158.54335.54335,0,0,1,.0638.07975.05483.05483,0,0,0-.02238.02314.01145.01145,0,0,0,.01868.01322l.004-.00093a.25679.25679,0,0,1-.10722.16269.02061.02061,0,0,0,.01615.036.16867.16867,0,0,0,.10844-.0758.59171.59171,0,0,1-.06177.12581c-.01893.03231-.03819.06436-.05547.09759a.95888.95888,0,0,0-.04463.10707.01929.01929,0,0,0,.03366.01779.95031.95031,0,0,0,.07278-.0922c.02151-.03276.04085-.067.06071-.10074a.465.465,0,0,0,.077-.1928A.42469.42469,0,0,0,5.99486,2.61491Z" /><path d="M6.44286,3.52761a3.01981,3.01981,0,0,0-.10617-.36072c-.032-.11018-.03515-.22531-.06279-.33622A.90632.90632,0,0,0,6.16,2.54861a.381.381,0,0,0-.0496-.132.19341.19341,0,0,0-.19366-.10341c-.01546.00324-.02516.02732-.00854.03652a.31791.31791,0,0,1,.14147.13753.556.556,0,0,1,.034.2437,3.924,3.924,0,0,1-.06191.51271.01194.01194,0,0,0,.02148.008,1.12046,1.12046,0,0,0,.12862-.57447.9902.9902,0,0,1,.01927.17926,1.3161,1.3161,0,0,0,.04258.30528c.0313.11233.08863.21288.126.32263a.44574.44574,0,0,1,.0071.33794c-.00662.01172.01043.02414.01731.01225A.44088.44088,0,0,0,6.44286,3.52761Z" /><path d="M5.57886,2.447a.1778.1778,0,0,0-.18656.01273A.01113.01113,0,0,0,5.39874,2.48c.03134.00213.06183-.00334.09321.00076.021.00274.04086.00781.06149.0099.00334.01953-.047.00988-.05986.00709a.08448.08448,0,0,0-.078.01131.01114.01114,0,0,0,.00313.01886c.05081.01742.12215.05756.17041.01392C5.6167,2.5169,5.61558,2.45528,5.57886,2.447Z" /><path d="M5.88868,2.6502a.12812.12812,0,0,0-.06331-.064.15773.15773,0,0,0-.04329-.01413.26246.26246,0,0,0-.04909.00044c-.01263-.00013-.015.01876-.002.01984a.17012.17012,0,0,1,.0695.03219.42673.42673,0,0,1,.054.04663C5.87,2.686,5.8986,2.67275,5.88868,2.6502Z" /><path d="M5.61356,2.68419a.08686.08686,0,0,0-.05946-.03162.06157.06157,0,0,0-.05566.02066.01162.01162,0,0,0,.00268.01566.10522.10522,0,0,0,.04336.018c.01719.0042.03406.00712.0514.01031A.02043.02043,0,0,0,5.61356,2.68419Z" /><path d="M5.63362,2.77756a.20784.20784,0,0,0-.2-.03274.0101.0101,0,0,0,.00056.01847.51429.51429,0,0,0,.18771.04563A.01744.01744,0,0,0,5.63362,2.77756Z" /><path d="M5.7704,2.9253c-.03677.00629-.07256.01726-.10939.02325A.52651.52651,0,0,1,5.54531,2.944a.40412.40412,0,0,1-.191-.04474.0115.0115,0,0,0-.01547.01658.24751.24751,0,0,0,.1873.10154.34973.34973,0,0,0,.12077-.02409c.04437-.01277.08935-.02042.13278-.03662A.01654.01654,0,0,0,5.7704,2.9253Z" /></svg>