<svg xmlns="http://www.w3.org/2000/svg" data-name="Layer 1" viewBox="2.309282383469215 2.624156633881106 5.38120790534909 4.749514664508668" x="0px" y="0px"><title>KAMASUTRA</title><path d="M4.04808,3.61365a.35768.35768,0,0,0-.22555.14522,1.25026,1.25026,0,0,0-.153.24079,1.5393,1.5393,0,0,0-.104.26922c-.01334.04672-.02628.09363-.03819.14074a1.07921,1.07921,0,0,0-.02044.13744c-.0015.01223.01492.0145.01977.00458a1.30216,1.30216,0,0,0,.05724-.121c.01548-.04193.03075-.0839.04746-.12536.03324-.08247.06733-.165.10514-.24553a1.40426,1.40426,0,0,1,.13358-.22682c.02461-.034.0508-.06749.07764-.09973a.31884.31884,0,0,1,.10835-.0924A.01434.01434,0,0,0,4.04808,3.61365Z" /><path d="M3.5072,4.59692a.01009.01009,0,0,0-.01941-.0045,1.594,1.594,0,0,0-.1219.25831c-.01474.06257-.01853.187.06829.19825a.01911.01911,0,0,0,.01649-.03074c-.03989-.05881-.00955-.1486.00852-.20984A.8047.8047,0,0,0,3.5072,4.59692Z" /><path d="M4.1562,5.48059A.71784.71784,0,0,0,4.01643,5.372a1.38749,1.38749,0,0,0-.17793-.10072c-.05864-.03252-.1156-.0678-.17316-.10217-.0556-.0332-.11756-.0578-.17138-.09351a.01139.01139,0,0,0-.01532.01643A.66747.66747,0,0,0,3.61,5.2255c.03494.02613.07156.05007.10881.07292a.66645.66645,0,0,0-.0364.06078.62574.62574,0,0,0-.0519.11862.459.459,0,0,0-.01438.24487,1.44043,1.44043,0,0,0,.08954.22611.74116.74116,0,0,1,.04009.12466,1.0761,1.0761,0,0,0,.031.1298c.009.02453.0413.0138.04554-.00728a.457.457,0,0,0-.02649-.24349c-.02713-.07291-.06671-.14083-.0906-.215a.38948.38948,0,0,1,.00157-.23133c.01172-.04025.02734-.07945.04189-.11875.00682-.01842.01576-.03779.0228-.05754l.01265.00742a.99545.99545,0,0,0,.177.09085.64948.64948,0,0,1,.09354.03078c.0287.01463.05738.029.08643.04291C4.15365,5.5079,4.164,5.49046,4.1562,5.48059Z" /><path d="M4.601,5.367a.311.311,0,0,1-.04979-.06131.13052.13052,0,0,0-.07722-.051.74058.74058,0,0,0-.11478-.02138A.35438.35438,0,0,1,4.22662,5.202c-.01287-.0127-.02584-.02533-.03971-.037a1.00336,1.00336,0,0,1-.15406-.1718,1.62557,1.62557,0,0,0-.13846-.17061A.47972.47972,0,0,0,3.849,4.78186l.01832-.016A.83741.83741,0,0,0,3.94143,4.695a.59621.59621,0,0,0,.10479-.17942c.02721-.0657.05369-.13141.08292-.19626.01524-.0338.02933-.068.04356-.10219a.96424.96424,0,0,1,.04608-.116c.00913-.01584-.01346-.03265-.02361-.01672-.01921.03015-.04423.05389-.06548.08236a.77685.77685,0,0,0-.05914.09371,1.7849,1.7849,0,0,0-.08845.19371.85511.85511,0,0,1-.08987.17777.66745.66745,0,0,1-.06786.08139c-.01011.01046-.02194.02059-.03259.03156a.50705.50705,0,0,0-.106-.032c-.01527-.00388-.03085.01776-.01425.027a.58541.58541,0,0,1,.09778.07936,1.04382,1.04382,0,0,1,.07646.07667c.05027.056.0928.11834.13848.178a.90687.90687,0,0,0,.15681.16608.54605.54605,0,0,0,.11127.05825,1.01173,1.01173,0,0,0,.11637.05364.01583.01583,0,0,0,.01459-.02762c-.02274-.0183-.04792-.03339-.07222-.0498l.01412.00522c.04143.01439.08416.02325.126.03613.039.012.0469.0354.0689.06632a.06483.06483,0,0,0,.07618.03133A.02712.02712,0,0,0,4.601,5.367Z" /><path d="M3.8466,6.836a1.82314,1.82314,0,0,1-.00526-.20159c.00088-.06613.00148-.13217-.00014-.19829-.00077-.03138-.00185-.06283-.00482-.09408-.0033-.03473-.01357-.06775-.0179-.10187-.00187-.01471-.02662-.01463-.02649.00076a1.00269,1.00269,0,0,1-.01119.1027l-.00874.09049c-.01308-.01884-.02807-.03677-.03918-.05287a.76967.76967,0,0,0-.07736-.10568.11693.11693,0,0,0-.17365-.01351.01213.01213,0,0,0,.01253.02038.085.085,0,0,1,.09335.00838.31958.31958,0,0,1,.05354.07193c.0181.02766.03594.0555.05428.083a.222.222,0,0,0,.0619.07766l.00514.00223-.0024.02363a1.061,1.061,0,0,0-.1178-.07258.245.245,0,0,1-.07038-.059.77745.77745,0,0,0-.05953-.09045.15071.15071,0,0,0-.17376-.02788.21281.21281,0,0,0-.07154.06873c-.02277.03239-.047.06826-.09081.06883-.01448.00019-.02755.021-.01129.0302.05755.03237.11369-.01088.15284-.05171a.14323.14323,0,0,1,.07234-.05365.07522.07522,0,0,1,.07687.03547.6795.6795,0,0,0,.05067.083.31992.31992,0,0,0,.06934.058c.05417.03459.11145.0625.16431.09941l.00217.00125-.00053.01135c-.00091.02482-.00152.0497-.00158.07458L3.7159,6.70707a.97346.97346,0,0,0-.1537-.06082,1.40122,1.40122,0,0,0-.15891-.03784.51325.51325,0,0,0-.16856-.01268A.01146.01146,0,0,0,3.23,6.61618a.48667.48667,0,0,0,.12462.04476c.0477.01321.09568.02554.14289.04041.0451.0142.09.02969.13356.04815q.03265.01384.06418.03005a.15013.15013,0,0,1,.05917.03862l.00009.00012.00267.03191a.30086.30086,0,0,0,.06035.18757.02812.02812,0,0,0,.049-.01479A.76257.76257,0,0,0,3.8466,6.836Z" /><path d="M4.12944,7.309a1.53686,1.53686,0,0,0-.21275-.03035.82131.82131,0,0,1-.19433-.05846,1.018,1.018,0,0,1-.16264-.1082q-.088-.06406-.17891-.12418c-.11751-.0779-.23768-.15188-.35816-.22508a2.27758,2.27758,0,0,0-.35245-.18458c-.05975-.0233-.11917-.04662-.1777-.07286a.39447.39447,0,0,1-.15909-.1033c-.01116-.01436-.0313.003-.02153.01762a.47779.47779,0,0,0,.11032.12478.709.709,0,0,0,.15457.08071c.05539.02284.11136.04431.165.071.06683.03326.13017.0732.19338.11276.12491.07819.25067.155.37352.2364.0623.04129.12414.08325.18484.12687a1.49932,1.49932,0,0,0,.172.11651.71448.71448,0,0,0,.21744.067.53858.53858,0,0,0,.24809.0067A.0291.0291,0,0,0,4.12944,7.309Z" /><path d="M4.79615,7.10965a.17009.17009,0,0,1-.10637.0139A.83249.83249,0,0,1,4.558,7.09908a.52687.52687,0,0,0-.1942-.02356L4.3746,7.0417a3.75569,3.75569,0,0,0,.07807-.37849c.02442-.1346.045-.27006.05637-.40643a1.4746,1.4746,0,0,0,.00426-.20151.95189.95189,0,0,0-.025-.208.023.023,0,0,0-.04546.0013c-.00643.06516-.00369.13063-.008.1959q-.00648.09838-.0145.19683c-.01067.12978-.03.25864-.05237.38687q-.03177.182-.06881.36328a1.40793,1.40793,0,0,1-.03489.15566.608.608,0,0,1-.07314.141.01453.01453,0,0,0,.021.01955A.43752.43752,0,0,0,4.34192,7.131c.04245.00827.08506.01317.12732.02521.04578.013.09218.02542.13879.03518.07241.01516.1876.027.21979-.05912A.02035.02035,0,0,0,4.79615,7.10965Z" /><path d="M3.16229,6.532a.50653.50653,0,0,0-.10164-.198.13526.13526,0,0,0-.09313-.036.2699.2699,0,0,0-.111.0407c-.1459.07159-.30787-.05549-.45012.02095a.01033.01033,0,0,0,.00312.01953c.07016.01619.13983.02961.21086.04216a.51243.51243,0,0,0,.20677.00669.432.432,0,0,0,.09431-.03906.07272.07272,0,0,1,.09175.00347c.05092.04666.06255.12278.12122.16242A.01885.01885,0,0,0,3.16229,6.532Z" /><path d="M7.41838,7.1774c-.06847.03158-.14387-.00783-.2132-.01711-.07848-.01051-.15746.0048-.23609,0a.22855.22855,0,0,1-.10828-.02773.281.281,0,0,1-.07368-.08135c-.043-.06139-.08613-.12283-.12833-.18481a2.85253,2.85253,0,0,1-.3944-.80719c-.026-.08987-.04833-.18093-.07072-.27175q-.01761-.07142-.036-.14265c-.01165-.0446-.02915-.08769-.04316-.13162-.004-.01242-.02127-.00524-.02051.006a3.25713,3.25713,0,0,0,.054.44856.94491.94491,0,0,0-.28281.03569c-.1072.02637-.212.06142-.31826.09123a2.16469,2.16469,0,0,1-.33488.06379c-.05813.0068-.1164.01318-.17473.018-.0271.00226-.05428.00062-.08117.00363a.3429.3429,0,0,0-.06522.00545.01029.01029,0,0,0-.00521.0135.131.131,0,0,0,.11375.05473c-.00432.01325-.00751.02718-.01144.04147a.728.728,0,0,0-.01963.10911c-.00915.07752-.01591.15534-.0238.233a1.228,1.228,0,0,1-.09994.41255c-.00715.01465.01482.02419.02407.01272a.78793.78793,0,0,0,.15262-.39371c.01145-.07675.017-.15418.0256-.23127.0042-.03765.01056-.07514.01308-.11293.00161-.02421.00644-.04836.00653-.07227.03567-.00236.0713-.00672.10671-.01031q.04595-.00466.09171-.01032a3.43627,3.43627,0,0,1-.12047.48576c-.02859.08332-.0621.16477-.09766.24533a.52171.52171,0,0,1-.058.11561.1968.1968,0,0,1-.10708.05924c-.01732.00231-.01228.02651.00411.026.02263-.00066.04331.00823.06615.00625A.147.147,0,0,0,5.00935,7.153.22316.22316,0,0,0,5.088,7.05393a2.2304,2.2304,0,0,0,.12325-.27215,2.06373,2.06373,0,0,0,.13271-.56092c.06253-.00958.12467-.02142.18624-.0369.11095-.0279.21953-.06435.33055-.092a1.6038,1.6038,0,0,1,.30665-.04159l.00155.00606a2.34864,2.34864,0,0,0,.17639.4549,3.73665,3.73665,0,0,0,.2472.41686c.04544.06674.09376.13064.14414.19367a.24667.24667,0,0,0,.188.10792,2.49441,2.49441,0,0,1,.2861-.001c.08094.01423.16513.05659.23962.00068A.031.031,0,0,0,7.41838,7.1774Z" /><path d="M7.49321,7.10927a.62839.62839,0,0,0-.21731-.08835.72106.72106,0,0,0-.22349-.0245.16388.16388,0,0,1-.10307-.00854.27443.27443,0,0,1-.06559-.0778.84826.84826,0,0,1-.08638-.17769c-.04566-.12355-.07255-.253-.11347-.37808-.0228-.0697-.05511-.13622-.07608-.20639a.859.859,0,0,1-.02837-.15043.20914.20914,0,0,0,.10191-.07059.34147.34147,0,0,0,.07412-.1375c.01618-.05767.02324-.11753.03613-.176.01315-.05957.03082-.11789.04394-.17743.00286-.013-.01563-.01735-.02253-.00843a.74094.74094,0,0,0-.12.29811.33738.33738,0,0,1-.0559.13329.36853.36853,0,0,1-.06552.05869l-.00032-.00349c-.00832-.09046-.01706-.1809-.02434-.27146q-.00558-.06938-.00931-.13888c-.00282-.05129-.01034-.10348-.009-.15479.00045-.01734-.0265-.02015-.02695-.0027-.00115.04424-.00881.08816-.01159.13236s-.00419.08843-.00538.13265c-.0023.08518-.00251.17056.00162.25569a1.41072,1.41072,0,0,0,.02612.24743,1.82723,1.82723,0,0,0,.08238.22135c.04846.1302.07477.26739.11965.39878a.93042.93042,0,0,0,.08681.18958c.03377.05472.07749.12466.14265.144a.35073.35073,0,0,0,.12025.0025.58206.58206,0,0,1,.13953.01136c.09211.01763.17872.0642.272.07406A.02607.02607,0,0,0,7.49321,7.10927Z" /><path d="M7.65492,6.79133a.26812.26812,0,0,1-.15665-.06354.37167.37167,0,0,0-.17888-.05533c-.02194-.00085-.05984.00757-.07959-.004-.01079-.00629-.01207-.01735-.01478-.02894-.00492-.021-.009-.04235-.01377-.06344l-.04866-.21541a4.12925,4.12925,0,0,1-.08475-.43478,2.23375,2.23375,0,0,1,.00677-.4171.79452.79452,0,0,0-.06884-.43722c-.00631-.01191-.02863-.00762-.02436.00718a1.20454,1.20454,0,0,1,.01329.43427,2.17725,2.17725,0,0,0-.00595.44511,4.60751,4.60751,0,0,0,.09372.46611c.01725.07592.03245.15268.05235.22795a.11552.11552,0,0,0,.12434.09853.42011.42011,0,0,1,.11232.00958.3684.3684,0,0,1,.0987.04806c.05684.0356.1253.07723.19246.043A.03173.03173,0,0,0,7.65492,6.79133Z" /><path d="M7.44311,6.86713a1.48617,1.48617,0,0,0-.16023-.03775c-.0254-.00509-.05091-.00961-.07638-.01431a.14592.14592,0,0,1-.06435-.0202.28811.28811,0,0,1-.06227-.11831c-.021-.04986-.04173-.09981-.06328-.14942-.04217-.09709-.08542-.19365-.12673-.2911A.96418.96418,0,0,1,6.796,5.93c-.00109-.01894-.02974-.014-.02894.00457a1.35226,1.35226,0,0,0,.01188.17332,1.11365,1.11365,0,0,0,.04279.16518c.03648.10838.08335.214.12848.319q.0346.08049.06985.16071a.25541.25541,0,0,0,.07418.1098.36635.36635,0,0,0,.155.04384,1.47709,1.47709,0,0,0,.17914.02428C7.46408,6.93252,7.48026,6.879,7.44311,6.86713Z" /><path d="M5.85579,5.38767a.31306.31306,0,0,1-.23822.15928.535.535,0,0,1-.32931-.09346.53053.53053,0,0,0-.30685-.10674.50448.50448,0,0,0-.28781.16918l-.00193.00255a.197.197,0,0,0-.02753-.02867,1.54114,1.54114,0,0,0-.1815-.10478.01447.01447,0,0,0-.01672.02361c.028.02349.0518.0537.07938.07824.02618.0233.05557.04479.07953.07041.03388.03623.04814.10333.10851.09955a.03044.03044,0,0,0,.02284-.04193A.31582.31582,0,0,0,4.718,5.55665l-.01354-.02078.00112-.00049a.53893.53893,0,0,1,.33291-.1019,1.5418,1.5418,0,0,1,.32047.15721.49164.49164,0,0,0,.35023.02673.28159.28159,0,0,0,.192-.21923C5.90479,5.36957,5.86731,5.36572,5.85579,5.38767Z" /><path d="M6.68262,4.81468a.5491.5491,0,0,0-.06665.00491.15838.15838,0,0,1-.06434-.01321A.07109.07109,0,0,1,6.51,4.7694c-.00546-.01809.00751-.02881.01465-.04336a.013.013,0,0,0-.00754-.01647c-.02481-.01114-.04853.01276-.05762.03441a.0839.0839,0,0,0,.02009.08871A.13506.13506,0,0,0,6.51,4.85675a.31625.31625,0,0,1-.0463.03252.5246.5246,0,0,1-.07834.03253.75973.75973,0,0,0-.4469.35724.01009.01009,0,0,0,.01456.01358,2.29159,2.29159,0,0,1,.3194-.2422c.05347-.02844.11171-.0446.16666-.06949a.306.306,0,0,0,.14155-.09786.13175.13175,0,0,0,.11577-.02263A.02622.02622,0,0,0,6.68262,4.81468Z" /><path d="M7.14586,4.773a.80275.80275,0,0,1-.11284.05936c-.04627.01617-.09467.02393-.14056.04164A.00977.00977,0,0,0,6.893,4.8919a.30051.30051,0,0,0,.08862.01194,1.01416,1.01416,0,0,0-.10056.17847,1.75408,1.75408,0,0,1-.10883.19994.01342.01342,0,0,0,.01936.01806A.50248.50248,0,0,0,6.94085,5.127a.77855.77855,0,0,0,.10323-.22986.15034.15034,0,0,0,.1249-.10239C7.17229,4.78188,7.16019,4.76524,7.14586,4.773Z" /><path d="M6.87585,4.21714a.31853.31853,0,0,0-.32869-.10523.55686.55686,0,0,0-.325.19646,2.8073,2.8073,0,0,0-.33586.81621,1.06859,1.06859,0,0,1-.10215.19625.56016.56016,0,0,1-.077.08925.497.497,0,0,1-.094.07544c-.01.00544-.00315.02154.00724.01635a.718.718,0,0,0,.07732-.03837.56143.56143,0,0,0,.07677-.06027.838.838,0,0,0,.1232-.1428A1.446,1.446,0,0,0,6.062,4.87184c.07287-.23849.16137-.5462.41567-.65211a.382.382,0,0,1,.0661-.02065c-.01433.01052-.028.02164-.04061.03278a.56267.56267,0,0,0-.13974.21427c-.03483.08413-.05876.17235-.08758.2586-.01421.04252-.02864.085-.04609.12636a.43292.43292,0,0,1-.07212.12564c-.01033.01094.00359.02947.01528.01868a.76537.76537,0,0,0,.08677-.085.67192.67192,0,0,0,.0659-.10275,1.85756,1.85756,0,0,0,.09407-.24391.89661.89661,0,0,1,.11257-.22226.385.385,0,0,1,.07462-.08326.424.424,0,0,1,.07737-.04385.43663.43663,0,0,0-.07469.10764c-.02435.04518-.04746.09-.06789.13714A.73735.73735,0,0,0,6.481,4.586a.01236.01236,0,0,0,.02.0107.56192.56192,0,0,0,.07471-.10294c.0257-.038.05183-.07515.07459-.115.01966-.03443.03785-.07046.05984-.10347a.22834.22834,0,0,1,.05916-.06384.53538.53538,0,0,1,.08579.03472C6.873,4.25533,6.88518,4.23051,6.87585,4.21714Z" /><path d="M6.89639,4.46181c-.02782.019-.05751.03462-.0852.05365-.00645.00443-.00207.01375.00448.01484A.13728.13728,0,0,0,6.92356,4.495.02147.02147,0,0,0,6.89639,4.46181Z" /><path d="M6.86792,4.3626c-.03008-.00884-.06081.01431-.08219.03378a.12659.12659,0,0,0-.04649.06822.00884.00884,0,0,0,.01226.00888.69174.69174,0,0,0,.06244-.03777c.02077-.01068.052-.01724.06487-.0378A.02354.02354,0,0,0,6.86792,4.3626Z" /><path d="M7.10684,4.45638a.30422.30422,0,0,0-.0633-.035c-.03011-.01431-.04432-.02-.05558-.0531a.17966.17966,0,0,0-.06637-.08959c-.00633-.00517-.01446.00417-.0096.01029a.20726.20726,0,0,1,.03377.08105.12466.12466,0,0,0,.02029.05551.14371.14371,0,0,0,.04977.03207.35569.35569,0,0,0,.07821.03293C7.114,4.4952,7.11989,4.46692,7.10684,4.45638Z" /><path d="M7.10444,4.55135c-.01321.014-.02494.02926-.03813.04329l-.01909.02c-.00529.00512-.012.01744-.01783.021a.01024.01024,0,0,0,.00828.01871c.00865-.00347.01859-.00155.02766-.00509a.15451.15451,0,0,0,.03182-.0169.14631.14631,0,0,0,.04677-.05276C7.15513,4.558,7.12124,4.53356,7.10444,4.55135Z" /><path d="M4.30156,5.6793a.34184.34184,0,0,0-.04324-.05368.14877.14877,0,0,1-.04882-.0612.0179.0179,0,0,0-.03394.00543.20922.20922,0,0,0,.05218.118.6554.6554,0,0,1,.04121.06553.28548.28548,0,0,0,.03786.0668c.01491.01554.04934.01148.04935-.01489A.246.246,0,0,0,4.30156,5.6793Z" /><path d="M4.63693,5.78132a.121.121,0,0,0-.05468-.04655c-.02541-.014-.05033-.02891-.07537-.04358-.0482-.02823-.09526-.05858-.142-.08923a.01583.01583,0,0,0-.02129.02283.58332.58332,0,0,0,.121.12609c.038.02949.10035.07836.15128.069A.028.028,0,0,0,4.63693,5.78132Z" /><path d="M4.705,5.75461a.61882.61882,0,0,0-.11113-.12241c-.03924-.039-.078-.0793-.11993-.11535-.01264-.01086-.0325.00624-.02516.02058a.63974.63974,0,0,0,.1.1393.38644.38644,0,0,0,.12976.10593C4.69431,5.78876,4.71411,5.77067,4.705,5.75461Z" /><path d="M5.03448,4.137c-.00451.01181-.01369.02115-.01864.0332l-.01325.03526-.03124.08226a1.16514,1.16514,0,0,1-.06868.14995c-.014.02482-.03.04846-.04259.074a.24094.24094,0,0,0-.01594.07681.77655.77655,0,0,1-.02119.081c-.00755.028-.01371.05711-.02362.08443a.74212.74212,0,0,1-.08186.13472.61665.61665,0,0,0-.0709.14914.58959.58959,0,0,0-.02556.15414.25461.25461,0,0,0,.00715.08362.42673.42673,0,0,0,.0348.074c.01049.0186.04377.01846.04484-.00717.00056-.01346-.00078-.027.00092-.04034.00175-.01365.00638-.02675.00747-.04055.00189-.02383-.00123-.0482-.00036-.07216a.50645.50645,0,0,1,.02934-.15342c.01291-.036.0294-.0704.04456-.1054a.54606.54606,0,0,0,.0403.15055.52871.52871,0,0,0,.17939.247.01851.01851,0,0,0,.02735-.02238.53644.53644,0,0,0-.05772-.12815,1.28756,1.28756,0,0,1-.06666-.11992,1.13288,1.13288,0,0,1-.05325-.13133.72748.72748,0,0,1-.03021-.10475l.02218-.075a.363.363,0,0,1,.06174-.15413.43272.43272,0,0,0,.07452-.138,1.12389,1.12389,0,0,0,.0497-.15573c.00571-.0229.01093-.04579.01525-.069L5.059,4.193c.00287-.01665.00011-.03369.0027-.04968S5.0401,4.1223,5.03448,4.137Z" /><path d="M5.353,5.39306a3.19111,3.19111,0,0,0-.1122-.30737,1.49347,1.49347,0,0,1-.077-.32118,6.23989,6.23989,0,0,0,.01106-.66277A.73416.73416,0,0,0,5.121,3.94709a1.0167,1.0167,0,0,0-.09455-.14317c-.008-.01157-.02391.0022-.01669.01365a.66239.66239,0,0,1,.059.14634.91941.91941,0,0,1,.03444.14914,1.15354,1.15354,0,0,1-.00505.32287,1.46631,1.46631,0,0,0-.01377.32866,1.42269,1.42269,0,0,0,.07307.31712,1.43125,1.43125,0,0,0,.14606.33353A.02828.02828,0,0,0,5.353,5.39306Z" /><path d="M4.538,3.35417a.03007.03007,0,0,0-.04706.003c-.01556.02206-.02041.04938-.03734.07052a.1966.1966,0,0,1-.07823.051c-.03158.01389-.064.02569-.095.041-.03536.0175-.067.04084-.10236.05842a.01046.01046,0,0,0,.00642.01961c.047-.00954.09467-.01095.14143-.02247a.59971.59971,0,0,0,.12489-.04083C4.5092,3.5052,4.59483,3.422,4.538,3.35417Z" /><path d="M5.02447,3.76512c-.05755.06158-.1536.012-.2128-.02414a.40194.40194,0,0,1-.08079-.06621c-.02419-.02529-.04272-.0563-.06784-.08041a.00869.00869,0,0,0-.015.005.27977.27977,0,0,0,.13726.2059.2355.2355,0,0,0-.02308.05294.24264.24264,0,0,0-.01145.06456.30206.30206,0,0,0,.0125.07288.01046.01046,0,0,0,.02062-.00107.431.431,0,0,1,.04691-.11487c.0068-.01292.01663-.02594.02491-.03945a.149.149,0,0,0,.19139-.0552C5.0552,3.77113,5.037,3.75177,5.02447,3.76512Z" /><path d="M5.34631,2.91781a.47075.47075,0,0,0-.19237-.233.42379.42379,0,0,0-.52464.07012.40147.40147,0,0,0-.08546.17748.77837.77837,0,0,0-.00831.17077c-.04833.0508-.01669.16927.02455.21371a.02444.02444,0,0,0,.042-.02035c-.00236-.022-.00809-.04354-.01-.06567-.00093-.01106-.00588-.063.00206-.07027.02031-.01859.0731.02527.0795.045.006.01856.035.02084.03667-.0019a.11271.11271,0,0,0-.138-.12124A.87652.87652,0,0,1,4.60114,2.989.61953.61953,0,0,1,4.66592,2.848a.29615.29615,0,0,1,.19075-.12592.34673.34673,0,0,1,.32485.10848.36522.36522,0,0,0-.08234-.02822.43382.43382,0,0,0-.21678.00739.25036.25036,0,0,0-.1475.11448.01263.01263,0,0,0,.021.01407.22647.22647,0,0,1,.14874-.06447.46311.46311,0,0,1,.18087.00395.36487.36487,0,0,1,.14391.07293.2219.2219,0,0,1,.04856.05566l.00049.00087c.00575.01707.011.03422.01577.05108a.41521.41521,0,0,1,.01351.099l-.004-.002c-.05646-.01945-.10318.02224-.14411.05482-.05389.0429-.12088-.03355-.16487-.05986a.17951.17951,0,0,0-.18058-.01273.14423.14423,0,0,0-.06212.06215.211.211,0,0,0-.01137.08783.01226.01226,0,0,0,.02443.00191c.0035-.02714.03942-.05574.06134-.06893a.11493.11493,0,0,1,.0656-.01547c.05584.00336.09708.05524.14389.0804a.162.162,0,0,0,.15111.01249.1549.1549,0,0,0,.05811-.05375c.01517-.02255.02655-.04863.05588-.0539L5.3086,3.187,5.309,3.2045a.02322.02322,0,0,0,.04488.0094A.45426.45426,0,0,0,5.34631,2.91781Z" /><path d="M5.01308,3.457a.35742.35742,0,0,0-.09042-.02027A.899.899,0,0,0,4.8259,3.44a.00917.00917,0,0,0-.00371.01771.90455.90455,0,0,0,.08692.04372.35651.35651,0,0,0,.09061.01932A.033.033,0,0,0,5.01308,3.457Z" /><path d="M5.28154,3.36412A.01728.01728,0,0,0,5.25331,3.35a.21638.21638,0,0,0-.04859.077c-.01312.0255-.05077.02566-.07719.03077-.01524.00295-.019.02757-.00244.03179a.26637.26637,0,0,0,.03583.00688c-.01.00075-.02007.00113-.03007.001a.01355.01355,0,0,0-.00212.027.22966.22966,0,0,0,.068-.00368.01414.01414,0,0,0,.00424-.026.06525.06525,0,0,0,.03048-.01631.29589.29589,0,0,0,.0501-.1144Z" /><path d="M5.12279,3.56158a.01515.01515,0,0,0-.02724-.00565.30815.30815,0,0,0-.014.032A.30108.30108,0,0,1,5.067,3.6275c-.0068.01164-.03085.014-.0442.01646a.01061.01061,0,0,0,.00383.02085c.01312-.00163.02821.013.0422.01364a.04254.04254,0,0,0,.034-.01589A.15468.15468,0,0,0,5.12279,3.56158Z" /><path d="M5.07292,3.70179a.13183.13183,0,0,0-.0583.00647c-.01982.0037-.03995-.0011-.05994.00185a.0109.0109,0,0,0-.00406.01956A.135.135,0,0,0,5.0131,3.748a.08288.08288,0,0,0,.06723-.00825A.02249.02249,0,0,0,5.07292,3.70179Z" /><path d="M4.95371,3.52822a.12567.12567,0,0,0-.046-.01205l-.05248-.00844c-.01608-.00255-.01817.02-.00543.02593A.16548.16548,0,0,0,4.948,3.5558C4.9597,3.55279,4.96615,3.53526,4.95371,3.52822Z" /></svg>