<svg xmlns="http://www.w3.org/2000/svg" data-name="Layer 1" viewBox="2.1888112814263128 2.2196445808403347 5.62201100593235 5.554662169829237" x="0px" y="0px"><title>KAMASUTRA</title><path d="M5.14347,3.30347a1.39763,1.39763,0,0,1-.13772.10225c-.05494.02931-.137.08124-.19844.04418a.44586.44586,0,0,1-.11307-.12421.59072.59072,0,0,1-.09706-.18064c-.0043-.01651-.02947-.01327-.02667.00421a.783.783,0,0,0,.04261.1805.62417.62417,0,0,0-.13386-.00024.97729.97729,0,0,0-.1805.0199A.37345.37345,0,0,0,4.13,3.43529a.69331.69331,0,0,0-.11743-.019.64259.64259,0,0,0-.18236.01165,1.666,1.666,0,0,0-.17893.06284c-.012.00406-.00607.02446.00631.02143A.87692.87692,0,0,1,3.89023,3.494a.44677.44677,0,0,0-.08362.05851.7846.7846,0,0,0-.22372.401A2.17632,2.17632,0,0,0,3.5188,4.462c-.00117.08321.00674.16561.01339.24843a.84147.84147,0,0,1-.00467.286c-.00349.01335.01542.0211.02052.00763a1.35017,1.35017,0,0,0,.07471-.43062,3.48278,3.48278,0,0,1,.0494-.47532.88526.88526,0,0,1,.16032-.39957.58593.58593,0,0,1,.15065-.131.36624.36624,0,0,1,.079-.03709c.01313-.00412.02671-.00681.04018-.00972l.022.00641.01073.00355.014.00474a.56043.56043,0,0,0-.18751.17545,1.031,1.031,0,0,0-.16493.50263c-.01205.19279.05775.37761.05027.56868a.77977.77977,0,0,1-.22082.42429.549.549,0,0,0-.10425.21143.828.828,0,0,0,.01473.31431c.00165.00894.01681.00941.01664-.00047A.5686.5686,0,0,1,3.6163,5.4024a1.64984,1.64984,0,0,1,.15442-.19674,1.001,1.001,0,0,0,.152-.218A.6005.6005,0,0,0,3.97,4.69553c-.00571-.11-.03071-.21777-.041-.32729a.91735.91735,0,0,1,.02381-.30914,1.01527,1.01527,0,0,1,.12093-.28069.524.524,0,0,1,.09376-.12328.17529.17529,0,0,1,.12175-.04232l.00478.00355a1.01207,1.01207,0,0,1,.07495.16386.27866.27866,0,0,1-.08066.2533,1.72843,1.72843,0,0,0-.16046.19187.47475.47475,0,0,0-.067.21807,1.49828,1.49828,0,0,1-.02364.49981c-.06348.1477-.20617.24642-.29072.381a.64675.64675,0,0,0-.08682.51843.018.018,0,0,0,.0355-.00561.49519.49519,0,0,1-.00239-.12651.27409.27409,0,0,0,.15161.00667c.06117-.01829.18967-.09807.14014-.17584a.02455.02455,0,0,0-.02324-.00886c-.04714.00655-.07528.06973-.11832.09183a.18231.18231,0,0,1-.1381.01273.80617.80617,0,0,1,.1487-.30758c.09983-.12806.24474-.22239.2964-.38357a.47875.47875,0,0,0,.01925-.09045.22418.22418,0,0,0,.23814-.13579c.00521-.01815-.016-.0377-.03222-.023a.335.335,0,0,1-.20222.10814c.00387-.10612-.0155-.21308-.01316-.32015.02018-.00363.03929-.01057.06037-.01647a.60387.60387,0,0,0,.08661-.03072.01516.01516,0,0,0-.00846-.02871.52212.52212,0,0,1-.08568.01173.36673.36673,0,0,1-.04762-.00321.40637.40637,0,0,1,.09509-.20366A1.39394,1.39394,0,0,0,4.422,4.00857.36915.36915,0,0,0,4.4662,3.881a.44287.44287,0,0,1,.03223.06965.49742.49742,0,0,1,.00523.21619,1.0213,1.0213,0,0,0-.03938.17038.57793.57793,0,0,0,.04347.1715c.005.014.024.006.02325-.00686A.85454.85454,0,0,1,4.52943,4.356a.12189.12189,0,0,0,.05087-.03284A.00978.00978,0,0,0,4.5709,4.308c-.011.00158-.02109.00608-.032.00779l-.00221.00012a.21258.21258,0,0,1,.01078-.032.5961.5961,0,0,0,.04483-.19088.502.502,0,0,0-.00771-.14222.47494.47494,0,0,0-.05633-.20159.62735.62735,0,0,0-.206-.2301.60034.60034,0,0,0-.10294-.05438c.02106-.008.04254-.01371.05242-.0166a.64272.64272,0,0,1,.122-.02226c.04744-.00437.09531-.00659.14292-.00778A.31711.31711,0,0,0,4.653,3.40347a.31406.31406,0,0,0,.15265.13709.1773.1773,0,0,0,.08422.00262.20567.20567,0,0,1-.00084.06774.07474.07474,0,0,0,.00487.06669.01039.01039,0,0,0,.01763-.00293c.01219-.02945.03829-.05156.05011-.08233a.17471.17471,0,0,0,.01127-.07753c.0231-.01079.04529-.02294.06594-.03431.06224-.03427.13845-.07751.14426-.15577A.02466.02466,0,0,0,5.14347,3.30347Z" /><path d="M4.41792,4.56971a.1797.1797,0,0,0-.0754.05261.02152.02152,0,0,0,.01526.03348.17352.17352,0,0,0,.08658-.02637C4.482,4.6109,4.45566,4.55114,4.41792,4.56971Z" /><path d="M7.79,5.29641c-.07236-.016-.11823-.07922-.19359-.09543a.34554.34554,0,0,0-.05629-.00714.84535.84535,0,0,0-.26385.01036c-.10283.00874-.21542.00486-.27205-.09469-.02641-.04643-.044-.09776-.06839-.1453a1.28247,1.28247,0,0,0-.0935-.1528c-.06839-.09708-.14376-.18987-.21918-.28154a.92254.92254,0,0,0-.113-.11883.41045.41045,0,0,1-.1164-.13269c-.05583-.11119-.09814-.22876-.1515-.3411a1.18543,1.18543,0,0,0-.39248-.50612.80682.80682,0,0,0-.31488-.10857A.27421.27421,0,0,1,5.38805,3.265a.26657.26657,0,0,1-.044-.20256.0135.0135,0,0,0-.02686-.00269.31666.31666,0,0,0,.03353.28394c.06727.07669.17295.07786.265.10034A.80447.80447,0,0,1,6.09946,3.91c.05846.1176.10875.2391.16758.35653a.737.737,0,0,0,.08473.14608c.03764.045.08945.07469.13.11672a2.1341,2.1341,0,0,1,.23508.306c.03436.05216.06611.10624.09533.16144.02964.056.05048.11634.08143.17153a.31627.31627,0,0,0,.28989.15923,1.1167,1.1167,0,0,0,.19265-.02369,1.43144,1.43144,0,0,1,.176-.00773.53987.53987,0,0,1,.07243.01635c.05451.01672.11571.0531.17269.02924A.02393.02393,0,0,0,7.79,5.29641Z" /><path d="M6.9862,5.421c-.06427-.05284-.12014-.11344-.18549-.16506-.05932-.04686-.12185-.08872-.17881-.1387-.124-.10877-.21934-.245-.35087-.34594A2.896,2.896,0,0,1,5.91989,4.479a2.06566,2.06566,0,0,1-.24219-.30536l.00221-.04484a1.56381,1.56381,0,0,0-.023-.18434.01644.01644,0,0,0-.03246.00093,1.12844,1.12844,0,0,1-.03852.1845,1.55792,1.55792,0,0,1-.04948.17774,2.41331,2.41331,0,0,1-.15858.3376.42164.42164,0,0,0-.04966.15948c-.00543.06466.00233.13011-.00125.195-.00351.06363-.00723.12721-.01615.19034a.33391.33391,0,0,0-.00406.18913.0411.0411,0,0,0,.07032.007.30209.30209,0,0,0,.02417-.17582c.00039-.06767.00534-.13473.01135-.20211a.895.895,0,0,1,.11533-.36549,1.15,1.15,0,0,0,.13-.32822c.0036-.01726.00668-.03461.00944-.052a1.17477,1.17477,0,0,0,.1597.26805,1.79677,1.79677,0,0,0,.352.31567c.13633.10134.2352.23863.36069.3517a1.16377,1.16377,0,0,0,.19633.14932,1.27735,1.27735,0,0,0,.24091.09123A.01.01,0,0,0,6.9862,5.421Z" /><path d="M7.64367,5.43348a.46106.46106,0,0,0-.26023-.01061,1.8086,1.8086,0,0,1-.30053.04052.01318.01318,0,0,0-.00262.02622,1.11521,1.11521,0,0,0,.27315.01727c.04959-.00355.09891-.0039.14858-.00462a1.06707,1.06707,0,0,0,.13623-.01454A.02839.02839,0,0,0,7.64367,5.43348Z" /><path d="M5.39166,2.37937a.51928.51928,0,0,0-.4701-.15088.49955.49955,0,0,0-.42793.228.40731.40731,0,0,0-.04312.24228.79821.79821,0,0,0,.0964.26684.01026.01026,0,1,0,.01851-.00884l-.0004-.0012a.12285.12285,0,0,0,.03417-.00149c.02171-.00281.042-.00654.06336-.01085.01353-.00273.0222-.0242.00751-.0321a.14778.14778,0,0,0-.06443-.01571.09515.09515,0,0,0-.05449.0065A1.32049,1.32049,0,0,1,4.53962,2.727l-.00083-.035A.07088.07088,0,0,1,4.61,2.69149c.02554.0146.04138.0436.06395.06232a.16336.16336,0,0,0,.155.02459c.07-.02.13086-.06429.20413-.02507a.26883.26883,0,0,1,.12733.1647c-.00949.01689-.01487.03415-.02439.0519a.01447.01447,0,0,0,.0236.01671.19787.19787,0,0,1,.02182-.01994.01615.01615,0,0,0,.0138-.01067c.02321-.0171.05035-.03274.06091-.02624a.09017.09017,0,0,1,.02155.03992.05739.05739,0,0,1-.01809.06127c-.01448.01467.0049.03977.02073.02534.0491-.04475.0908-.13422.03767-.19083a.07794.07794,0,0,0-.09565-.01419A.1221.1221,0,0,0,5.22313,2.81a.16771.16771,0,0,0-.07875-.10227.3177.3177,0,0,0-.27325-.05721c-.055.01846-.10108.05226-.14948.00543a.1629.1629,0,0,0-.10423-.05557.11928.11928,0,0,0-.07326.01706.24907.24907,0,0,1,.03552-.09522.40783.40783,0,0,1,.3315-.16078.44062.44062,0,0,1,.36378.086l.0018.002a.38649.38649,0,0,0-.08354-.01889.63578.63578,0,0,0-.40051.1299c-.01406.00867.00082.033.01533.02495a.68414.68414,0,0,1,.34512-.07541.29435.29435,0,0,1,.15584.05175.39367.39367,0,0,1,.06171.06521c.00674.02681.01151.05392.01584.08143a.26722.26722,0,0,1-.01692.13379.01347.01347,0,0,0,.02325.01324A.3886.3886,0,0,0,5.39166,2.37937Z" /><path d="M5.03006,2.8885a.1133.1133,0,0,0-.09127-.01083.37016.37016,0,0,1-.11531.03c-.0163-.002-.023.0238-.00662.02855a.19582.19582,0,0,0,.0903.00947.77681.77681,0,0,1,.10836-.01833C5.03418,2.92705,5.051,2.90046,5.03006,2.8885Z" /><path d="M4.884,4.34959c-.00422-.05267-.01416-.10467-.02138-.157-.0039-.02829-.00631-.07179-.03581-.08517-.01473-.00668-.02316.01467-.01144.02331-.00281.04221-.01857.08493-.021.12765a.15027.15027,0,0,0,.035.11576A.03132.03132,0,0,0,4.884,4.34959Z" /><path d="M4.76579,3.19376C4.74813,3.176,4.72,3.16775,4.71387,3.145a.18285.18285,0,0,1,.01105-.08078.15811.15811,0,0,0-.015-.11806.01324.01324,0,0,0-.02507.00739c.01042.06767-.02659.12656-.0237.19285.0022.05042.04172.0693.08815.07818A.01909.01909,0,0,0,4.76579,3.19376Z" /><path d="M4.96956,3.01521c-.03181-.01767-.06947.0018-.09985-.021-.01454-.01092-.0309.01214-.01633.02308.03026.02273.07981.06385.11736.03158A.02132.02132,0,0,0,4.96956,3.01521Z" /><path d="M4.62707,2.998a.15186.15186,0,0,1-.03682.0003.07156.07156,0,0,1-.03573-.00851.01394.01394,0,0,0-.02062.01687.06886.06886,0,0,0,.04792.04276.06084.06084,0,0,0,.06272-.02329A.01814.01814,0,0,0,4.62707,2.998Z" /><path d="M3.21027,7.46728a.44069.44069,0,0,0-.33069-.05193c-.11733.03281-.218.10118-.33795.12845a.01255.01255,0,0,0,.00392.02477,1.4881,1.4881,0,0,0,.30755-.04969.366.366,0,0,1,.18246-.0145.65444.65444,0,0,0,.16228.016A.02972.02972,0,0,0,3.21027,7.46728Z" /><path d="M5.083,7.01738c-.00959-.10583-.02035-.21149-.03139-.31717a5.6975,5.6975,0,0,0-.08032-.60805,2.90138,2.90138,0,0,0-.21557-.55032c-.04472-.102-.08807-.20417-.12687-.30858l-.05978-.16068a1.38549,1.38549,0,0,1-.06762-.17484c-.00411-.01852-.03332-.014-.02919.00461.00943.04243.00641.08569.012.12864.00644.04928.01656.09891.02784.14731a2.38173,2.38173,0,0,0,.07565.24941c.01056.03.022.05951.034.08881-.06567.18215-.38206.167-.51267.0695a.01388.01388,0,0,0-.01868.02.39249.39249,0,0,0,.363.15549.412.412,0,0,0,.22685-.11105c.04467.09776.09131.1946.12961.2953a1.42071,1.42071,0,0,1,.068.252c-.0416-.00971-.08468-.01633-.12471-.02743-.06606-.0183-.13146-.039-.197-.05919a2.62377,2.62377,0,0,0-.36352-.08227,1.46217,1.46217,0,0,0-.37314.02768,1.01307,1.01307,0,0,1-.19.00555.7165.7165,0,0,1-.07589-.01251c-.01625-.049-.03471-.09689-.05214-.14264a3.37616,3.37616,0,0,1-.16929-.60441A3.50042,3.50042,0,0,1,3.325,4.08307a.83916.83916,0,0,1,.24269-.52672c.016-.01178-.00358-.0356-.01952-.02385a.69049.69049,0,0,0-.29558.38982,2.26933,2.26933,0,0,0-.10177.58226l-.00388.07033-.007.00718c-.02064.046-.04778.08668-.06472.13449a.96214.96214,0,0,0-.03688.141,1.807,1.807,0,0,0-.02581.30792c-.0007.03934-.00089.07872-.00092.11813a1.18494,1.18494,0,0,1-.14744.04031.86239.86239,0,0,0-.15979.06767.31508.31508,0,0,0-.19517.23684.43685.43685,0,0,0,.12032.29394l.02055.02355a.3055.3055,0,0,0,.01637.28566,1.213,1.213,0,0,0,.11061.15269.3452.3452,0,0,0,.104.094,1.84754,1.84754,0,0,1-.14615.62623.8874.8874,0,0,1-.08418.15741.19343.19343,0,0,1-.13342.07891.82565.82565,0,0,0-.3189.14142c-.02361.01676.00065.0541.02627.04273a1.52632,1.52632,0,0,1,.3274-.08234A.29363.29363,0,0,0,2.75694,7.284a1.85012,1.85012,0,0,0,.20363-.61352c.01776-.11737.0208-.236.03046-.35409a2.33,2.33,0,0,1,.06511-.352,2.446,2.446,0,0,0,.03661-.63867,3.37081,3.37081,0,0,1,.00392-.36293c.0048-.059.012-.11765.02256-.17591.00734-.04044.014-.08538.02476-.12787a3.41519,3.41519,0,0,0,.15807,1.10511c.00687.02175.01441.04347.02237.06519a.02544.02544,0,0,0-.0066.01766,1.46634,1.46634,0,0,1-.05256.37419c-.02741.12318-.06889.243-.10726.3631-.03617.11317-.0705.22888-.09526.34514a.61753.61753,0,0,0,.021.34047c.00478.0141.02828.00713.02507-.00739a.75621.75621,0,0,1,.07125-.384c.0395-.11713.08078-.23362.12-.35085a1.28466,1.28466,0,0,0,.13473.169c.04065.04436.08287.08733.127.12819.0388.03591.11416.07826.13454.1285.02212.05454-.04828.13005-.07146.17662A.63417.63417,0,0,0,3.572,7.2888a.54476.54476,0,0,1-.02878.14862c-.02232.042-.08624.03052-.12561.05651-.017.0112-.00242.037.01544.03446.06126-.0088.11007.03318.16673-.01243a.20036.20036,0,0,0,.05535-.13218.66831.66831,0,0,1,.0556-.20127.73792.73792,0,0,0,.09217-.189.17271.17271,0,0,0-.06147-.16535c-.05573-.05113-.11452-.09847-.16885-.15127-.083-.08062-.15627-.17138-.23933-.25191a2.05412,2.05412,0,0,0,.0618-.245.6043.6043,0,0,0,.00563-.15977,1.02384,1.02384,0,0,1,.10066.43973.03184.03184,0,0,0,.06124.0142.47357.47357,0,0,0,.02006-.324.6784.6784,0,0,0,.17187.02065,2.39039,2.39039,0,0,0,.389-.0507.3687.3687,0,0,1,.2205-.00014c.05377.02387.10246.05966.154.08874-.01957.00386-.03921.00739-.059.01021a2.06365,2.06365,0,0,0-.2096.04065c-.06986.01741-.13968.03474-.20918.05354-.03575.00967-.072.01763-.10742.02855a.61139.61139,0,0,1-.0824.0316.011.011,0,0,0-.0021.02107c.02753.01012.03517.02486.06561.0298a.27492.27492,0,0,0,.09851-.004l.02542-.00541c.0011.03395.01963.07831.02022.10449a.38012.38012,0,0,1-.03042.14895.38124.38124,0,0,0-.02175.0637l-.02248-.00945c-.03849-.01823-.05221-.05683-.07252-.092-.01675-.029-.035-.05722-.05267-.08567-.05091-.08182-.09715-.16633-.14236-.2514a.01.01,0,0,0-.01827.00808c.02919.07012.058.14049.08412.21182.02538.06924.04384.14167.07472.20882a.17255.17255,0,0,0,.10082.0939c.05788.02227.11237.02964.11193.10528-.00036.063-.05447.10795-.0937.15059a.66182.66182,0,0,0-.097.13384c-.02459.04535-.04707.0918-.07182.13708A.27337.27337,0,0,1,3.717,7.4611c-.02113.013.00141.04.021.03411A.35429.35429,0,0,0,3.95389,7.272a.91877.91877,0,0,1,.10518-.1635A.43138.43138,0,0,0,4.14544,6.955a.17736.17736,0,0,0-.017-.15265.15457.15457,0,0,0-.0831-.05671c.01424-.02821.03652-.05561.05-.0806A.43858.43858,0,0,0,4.13543,6.568a.26659.26659,0,0,0-.01388-.17262c.04058-.01016.081-.02095.12144-.03126.05694-.01453.11345-.02944.16921-.04754a2.05058,2.05058,0,0,0-.10724.1982.28854.28854,0,0,0-.02024.1304c.0034.03717.02247.07257.0028.10879a.14987.14987,0,0,1-.0723.06013.00843.00843,0,0,0,.00471.016c.0461-.009.09687-.01035.12637-.053.03511-.05075.01872-.121.03368-.17745.02993-.11294.14012-.18717.1684-.30286a.06584.06584,0,0,0,.00169-.02147c.026-.006.05211-.01116.07848-.016l.03155.01115a.13567.13567,0,0,0-.0252.15c.01933.04461.053.08085.07023.127a.31664.31664,0,0,1,.02113.10557q-.04459.03118-.08879.06294c-.08627.06227-.17879.13687-.17478.25415.0043.12564.13593.14569.18814.24329.04448.08317.01705.20643.13237.22921a.02162.02162,0,0,0,.01455-.0389c-.045-.0263-.03246-.0991-.03462-.14209a.261.261,0,0,0-.04286-.13227.34712.34712,0,0,0-.09854-.09653.08466.08466,0,0,1-.02649-.1314.50778.50778,0,0,1,.11068-.1018c.04779-.038.09489-.07687.14206-.11567.02342-.01926.0536-.04041.08029-.06436q.01417.13891.03066.27764a.08255.08255,0,0,0-.019.01107.61112.61112,0,0,0-.08389.06422.08341.08341,0,0,0-.01668.08878,1.26417,1.26417,0,0,0,.04228.14693c.00452.01082.02358.00581.02021-.006-.01844-.06434-.03356-.14355.03249-.18492.01254-.00786.02517-.01464.03657-.02213l.01081.08419a.63954.63954,0,0,1,.01142.30953.417.417,0,0,1-.19447.18359.01926.01926,0,0,0,.01558.0352.64144.64144,0,0,0,.201-.104.27666.27666,0,0,0,.085-.19718A2.18853,2.18853,0,0,0,5.083,7.01738ZM2.88883,6.35475A.31106.31106,0,0,1,2.8609,6.328c-.03187-.03556-.05995-.07445-.08825-.11284a.24816.24816,0,0,1-.0623-.15342A.32468.32468,0,0,1,2.716,6.01l.02639.02118a.99646.99646,0,0,1,.14192.09976.05045.05045,0,0,0,.02734.01585A1.88241,1.88241,0,0,0,2.88883,6.35475Zm.10076-.55158a2.32017,2.32017,0,0,1-.05487.23907c-.05-.05793-.1252-.096-.1788-.15007A.37856.37856,0,0,1,2.62216,5.642c.00483-.09993.12837-.15878.20551-.1986a1.1798,1.1798,0,0,1,.13107-.05657.38838.38838,0,0,0,.05288-.02231A3.07857,3.07857,0,0,1,2.98959,5.80317ZM4.8261,6.5838,4.8193,6.552a.397.397,0,0,0-.06249-.13264.156.156,0,0,1-.04112-.07171A.1654.1654,0,0,1,4.722,6.28928l.01945.00529a.80325.80325,0,0,0,.156.03067c.00754.059.01347.11831.01918.17772l.00219.02195C4.88956,6.54711,4.85482,6.56515,4.8261,6.5838Z" /><path d="M5.566,7.73842a.61536.61536,0,0,1-.22925-.06588.50611.50611,0,0,0-.159-.08911.25587.25587,0,0,0-.161.01731.47016.47016,0,0,1-.19252.07008c-.0146-.00106-.02145.022-.00605.02608a.27379.27379,0,0,0,.15553-.00143.2931.2931,0,0,1,.19475-.01786c.05972.02346.10572.07579.17062.087a2.02936,2.02936,0,0,0,.22337.00954A.018.018,0,0,0,5.566,7.73842Z" /><path d="M6.4191,6.59462a.97509.97509,0,0,0-.21173-.475c-.11037-.15141-.24348-.2837-.35982-.43019-.07395-.09311-.14045-.19174-.2147-.2847a1.63321,1.63321,0,0,0-.2527-.2795c-.02749-.02128-.07195.01276-.05444.04455a2.23268,2.23268,0,0,0,.16152.22494c.05808.07988.11417.16112.17149.24153a4.20409,4.20409,0,0,0,.31892.38707,1.70285,1.70285,0,0,1,.28835.38762.436.436,0,0,1,.06112.22872c-.01233.10519-.134.12107-.22078.12669a1.86673,1.86673,0,0,1-.49895-.11561c.01992-.01669.03947-.03367.05864-.05056a.59691.59691,0,0,0,.2216-.35887c.00333-.02257-.02956-.0288-.0378-.00877a.93865.93865,0,0,1-.28266.31114c-.05367.047-.11006.09073-.16433.137-.0227.01934-.04632.03778-.06989.05611q.00427-.135-.00023-.27074a4.00159,4.00159,0,0,0-.12913-.78422l-.0192-.08221a.46224.46224,0,0,0,.03853.03967c.06525.06.137.11329.20656.16816a2.30438,2.30438,0,0,0,.20209.15021.42907.42907,0,0,1,.09621.08361c.02924.03339.062.06819.08918.10274.01427.01813.03886-.0004.03249-.02a.34387.34387,0,0,0-.05252-.11407,1.1879,1.1879,0,0,0-.0926-.10174,1.82843,1.82843,0,0,0-.21447-.18606c-.07814-.06122-.16294-.1105-.24329-.16813-.032-.02292-.05943-.05146-.09007-.07486-.03692-.15883-.07548-.31748-.12639-.47218A1.62044,1.62044,0,0,0,4.87691,4.67,1.39234,1.39234,0,0,0,4.783,4.534c-.04046-.05133-.09107-.09056-.13608-.13751-.01138-.01187-.03137.00432-.0199.01628a1.05466,1.05466,0,0,1,.17469.29053,2.48763,2.48763,0,0,1,.11618.31724c.06751.2276.11879.45938.17337.69035a4.01992,4.01992,0,0,1,.12871.78421,3.95418,3.95418,0,0,1-.00753.41045c-.00829.121-.03312.24379-.03263.36505a.22.22,0,0,0,.16394.23056,1.82361,1.82361,0,0,1,.19362.07865,1.2983,1.2983,0,0,0,.19908.09249c.01559.00441.03245-.01371.01981-.02771a.89547.89547,0,0,0-.3-.17868.46465.46465,0,0,1-.14912-.07554c-.0389-.04211-.02641-.10862-.01879-.15986q.03043-.20464.041-.40968a.225.225,0,0,0,.0343-.01229,1.20049,1.20049,0,0,0,.106-.0573c.02337-.0139.04606-.02938.06828-.04571a1.4935,1.4935,0,0,0,.22064.10086.76958.76958,0,0,0,.30093.07434.51107.51107,0,0,0,.2679-.076A.2191.2191,0,0,0,6.4191,6.59462Z" /></svg>