<svg xmlns="http://www.w3.org/2000/svg" data-name="Layer 1" viewBox="3.2381703047459784 1.5437663486834348 3.5207834248027683 6.910971953188466" x="0px" y="0px"><title>KAMASUTRA</title><path d="M5.2846,4.156a.58238.58238,0,0,1-.18819.11728.72073.72073,0,0,1-.24247.02568.80563.80563,0,0,0-.45915.15933,2.4427,2.4427,0,0,0-.63453.63816,2.09,2.09,0,0,0-.12371.20916c-.01932.03719-.03732.07479-.0537.11337-.01723.04057-.027.08352-.04488.12386-.00535.01209.01369.019.01918.00713A1.04155,1.04155,0,0,1,3.61806,5.451c.01959-.03239.03973-.0645.05989-.09654.03941-.06262.081-.12415.12477-.18379a2.89159,2.89159,0,0,1,.28736-.34021,2.59927,2.59927,0,0,1,.33664-.28273.90564.90564,0,0,1,.207-.11436c.07791-.02863.16069-.03226.23976-.055.0445-.01281.09077-.01881.13467-.03369.03816-.01293.07831-.024.11729-.03472a.3227.3227,0,0,0,.19074-.12455C5.32991,4.16578,5.30325,4.13918,5.2846,4.156Z" /><path d="M6.4847,4.52878c-.0515-.0439-.13011.00387-.17579.03351a1.24362,1.24362,0,0,1-.18776.11607.22658.22658,0,0,1-.328-.13835.0129.0129,0,0,0-.02465-.00246.18553.18553,0,0,0,.05175.18448.22827.22827,0,0,0,.07279.04938.19036.19036,0,0,0-.066.08237.01033.01033,0,0,0,.01373.01292c.03519-.01749.06938-.03694.10461-.05423A.3562.3562,0,0,0,5.984,4.79284a.3506.3506,0,0,0,.03641.00077c-.01572.019-.03052.03845-.04436.05791a1.64815,1.64815,0,0,0-.16773.32111c-.03709.08831-.07293.17687-.11518.26253C5.69,5.419,5.687,5.40276,5.68465,5.38624a.34713.34713,0,0,0-.01941-.10639A.01666.01666,0,0,0,5.6367,5.277a.19007.19007,0,0,0-.01851.1135.48479.48479,0,0,0,.02436.13l.00238.00543-.00352.00616c-.06474.11115-.13722.21772-.19707.33171a.87021.87021,0,0,0-.08137.20076.903.903,0,0,0-.01187.21033c-.00006.01231.01894.01447.01926.00193a.53375.53375,0,0,1,.04914-.17845c.02257-.056.04518-.11179.07241-.16574.05677-.11245.12981-.21561.1945-.32345a2.51344,2.51344,0,0,0,.16367-.33387,2.21717,2.21717,0,0,1,.15635-.33.93074.93074,0,0,1,.1552-.18428A.54491.54491,0,0,0,6.272,4.6969c.03217-.024.059-.05372.08865-.08052a.22076.22076,0,0,1,.0527-.03718.25688.25688,0,0,1,.06294-.01436A.02026.02026,0,0,0,6.4847,4.52878Z" /><path d="M5.31358,6.36693a1.11279,1.11279,0,0,0-.09741-.11055,1.36073,1.36073,0,0,1-.09424-.12062c-.06186-.08371-.125-.16572-.1816-.25324-.029-.04493-.05579-.09115-.08252-.13746-.0134-.02322-.02627-.05185-.04183-.07729a.38343.38343,0,0,1,.0022-.08384c.005-.05722.012-.11413.02019-.171.00377-.02629.00542-.05261.00714-.0791.00109-.0169.00327-.03452.00353-.05191a.39573.39573,0,0,0,.04379.00468c.02006.06462.04473.12835.0653.19278.02716.08509.05745.16924.08985.25246.03178.08164.06549.16257.10457.241a1.58847,1.58847,0,0,0,.13186.2341c.0098.01336.03524.00307.03067-.01374-.02282-.08379-.05819-.1648-.08838-.24617-.032-.08623-.066-.17168-.09844-.25774-.03141-.08337-.061-.16735-.091-.25121a.66555.66555,0,0,0-.071-.15534A1.36653,1.36653,0,0,1,5.193,5.24413c.021.00044.03133-.03065.00879-.0379a.53386.53386,0,0,0-.24567.0044.70478.70478,0,0,1-.13728.00208l-.03943-.00148c.03976-.02233.07975-.04444.11964-.06718.02466-.01406.01718-.06015-.01534-.052a1.04378,1.04378,0,0,0-.31829.15594,2.90627,2.90627,0,0,0-.28638.221c-.185.159-.35589.33624-.55382.47967a.34522.34522,0,0,1-.38433.05714.0088.0088,0,0,0-.01184.01269.24281.24281,0,0,0,.303.05706,1.28718,1.28718,0,0,0,.31432-.21983q.03373-.02778.067-.05615c.0028.02011.00761.04.01072.057a1.31883,1.31883,0,0,0,.03581.1405c.02747.09173.05879.18207.08232.275a1.61046,1.61046,0,0,1,.04335.27189.77865.77865,0,0,1,.0037.13436c-.00438.04732-.00972.09577-.01761.14258-.00327.01945.02733.032.0372.01391A.78328.78328,0,0,0,4.241,6.27517c-.02388-.09863-.05564-.19552-.0876-.29178-.01534-.0462-.03148-.092-.04945-.13726a.66267.66267,0,0,0-.03725-.0924c.15244-.13187.3013-.2682.46393-.38749a2.02277,2.02277,0,0,1,.18309-.11764c.01767.0029.03585.00958.0523.01394a.53212.53212,0,0,0-.00357.063c-.001.02556-.00225.051-.00151.07656.00171.05871.00225.11734-.00037.176a.37586.37586,0,0,1-.00844.0839.54187.54187,0,0,0-.02015.08628c-.00626.05476-.00832.11022-.01246.16518-.00845.11224-.02133.22444-.02749.33681-.00628.11468-.00338.23053-.01251.345a.01484.01484,0,0,0,.02951.00295c.01866-.11357.04754-.22571.06456-.33974.01659-.1112.025-.22411.03536-.336.00335-.0362.00731-.07252.01024-.10887.01154.02734.02406.0543.03735.08067a1.45921,1.45921,0,0,0,.15751.249c.06072.07674.13908.13518.20464.20733a.13581.13581,0,0,1,.04145.1176c-.0085.042-.04175.07522-.05273.11662-.00988.03727.038.06851.0628.03319a.39867.39867,0,0,0,.076-.11957A.14932.14932,0,0,0,5.31358,6.36693Z" /><path d="M5.70557,6.48752a.4445.4445,0,0,1-.03414-.06043.768.768,0,0,1-.04466-.13092.8476.8476,0,0,0-.0386-.12027.203.203,0,0,0-.03178-.05129.193.193,0,0,0-.04963-.03655c-.00558-.00358-.01522.00232-.01114.00911a.22946.22946,0,0,1,.01742.04193l-.00087.00042a.16625.16625,0,0,0-.07439.10331c-.00231.00674.00747.01263.01147.00606A.19992.19992,0,0,1,5.531,6.18563l.00948.025c.01532.04163.0252.0852.03759.12775a.5702.5702,0,0,0,.04917.12391c.0179.03155.04612.09162.08614.09619a.01714.01714,0,0,0,.0186-.01522C5.73286,6.52015,5.718,6.50583,5.70557,6.48752Z" /><path d="M5.7985,6.48238c-.01178-.12477-.071-.24261-.08107-.36853-.001-.01257-.01969-.00919-.01912.003a.72972.72972,0,0,0,.07308.37765C5.78049,6.50829,5.7998,6.4961,5.7985,6.48238Z" /><path d="M6.74927,4.25573c-.00767-.02456-.04264-.01058-.04082.012a.5135.5135,0,0,1-.1639.37444,2.48986,2.48986,0,0,0-.28235.31624c-.07873.12153-.11366.26339-.18987.38582-.08133.13063-.18209.24826-.26635.377a.30858.30858,0,0,0-.05023.216c.00453.04224.01081.08437.01633.12649.0058.04423.019.0876.02237.132.00084.01126.01813.00843.0173-.00273-.00308-.04114.00309-.08285.00261-.12413-.00044-.03807-.00146-.07614-.00234-.1142a.50538.50538,0,0,1,.00205-.11428.25234.25234,0,0,1,.05117-.0983,4.56011,4.56011,0,0,0,.27345-.37332c.07589-.1245.114-.267.19539-.38872a2.92558,2.92558,0,0,1,.28455-.31384A.43355.43355,0,0,0,6.74927,4.25573Z" /><path d="M6.37173,3.01634a.14216.14216,0,0,0-.13836.02274c-.04967.02844-.09735.06085-.14576.09141l-.15369.09686a.21727.21727,0,0,0-.10617.103.71649.71649,0,0,0-.03016.15351c-.00768.05594-.01308.11217-.01739.16846-.00848.11079-.01222.22191-.01726.33288-.00285.06252-.00652.1249-.0115.1873a1.089,1.089,0,0,1-.02156.20067c-.00344.0123.015.01949.01883.007.00963-.03164.02527-.06129.03635-.09249a.86174.86174,0,0,0,.02664-.09488A1.77257,1.77257,0,0,0,5.844,3.99957c.01482-.12645.01887-.25386.03012-.38063a.57386.57386,0,0,0,.047.11363.29363.29363,0,0,0,.10742.1165.10822.10822,0,0,0,.13865-.01c.01272-.01544-.00408-.0344-.02069-.03331a.14375.14375,0,0,1-.12554-.034.45914.45914,0,0,1-.08175-.11243.78263.78263,0,0,1-.05551-.13172c.0047-.03852.01024-.07693.01724-.1151a.16723.16723,0,0,1,.0242-.0826.402.402,0,0,1,.0823-.05482l.06223-.0395.01277-.00112a.38644.38644,0,0,1,.07323.00936A.15192.15192,0,0,0,6.273,3.2234a.01069.01069,0,0,0-.00566-.01874.66624.66624,0,0,1-.11458-.02178l.03646-.02314c.03027-.01919.0608-.038.0904-.05822a.2276.2276,0,0,1,.08777-.04138A.023.023,0,0,0,6.37173,3.01634Z" /><path d="M6.68784,4.17866a.67015.67015,0,0,0-.11835-.10421.54907.54907,0,0,1-.10319-.12811.3173.3173,0,0,1-.06366-.15649A.55979.55979,0,0,1,6.414,3.67041a1.0511,1.0511,0,0,0,.0809-.16424.661.661,0,0,0,.02372-.07923l.00053-.00009a.10964.10964,0,0,0,.02969-.01066.24936.24936,0,0,0,.02637-.0209c.01-.00712-.00049-.02-.01043-.017a.141.141,0,0,1-.03677.00357c.01071-.05855.01633-.11827.0218-.177a.39344.39344,0,0,0-.048-.27377c-.0129-.01763-.03816.00049-.03126.01922a.59011.59011,0,0,1,.0155.28178l-.00387.03015a.10247.10247,0,0,0-.0689.01515c-.0081.00551.00034.01674.00852.01385a.0419.0419,0,0,1,.04078.00853l.01281.00931c-.004.02476-.00852.04937-.014.07376a.10543.10543,0,0,1-.0521-.01514c-.00966-.00941-.02617.0039-.0164.01342.01793.01748.02711.03656.05157.04684l.00511.00189a.71675.71675,0,0,1-.0311.0888,2.08092,2.08092,0,0,1-.133.23775.95322.95322,0,0,0-.06.114c-.019.04468-.02649.09071-.04176.13629a.0095.0095,0,0,0,.01779.00662.66278.66278,0,0,1,.07939-.13209c.0178-.027.03524-.05429.05261-.0816a.32793.32793,0,0,0,.0553.16062A.67939.67939,0,0,0,6.499,4.1079a1.0725,1.0725,0,0,0,.16775.09332A.01564.01564,0,0,0,6.68784,4.17866Z" /><path d="M6.21258,2.87575a.60109.60109,0,0,0-.45021.27344.92109.92109,0,0,0-.11529.59828,1.67749,1.67749,0,0,1,.007.38812c-.002.01187.01638.01354.01852.00185a1.95828,1.95828,0,0,0,.03555-.31275c.00238-.1047.00153-.20963.01281-.31387a.643.643,0,0,1,.24639-.46519.84688.84688,0,0,1,.2584-.12522C6.25345,2.91163,6.23652,2.875,6.21258,2.87575Z" /><path d="M6.58541,2.79776A.23426.23426,0,0,0,6.37,2.7088.31908.31908,0,0,0,6.22972,2.64a.38459.38459,0,0,0-.29.07594.66684.66684,0,0,0-.20177.2102.61825.61825,0,0,0-.31312-.21448c-.06755-.02374-.13708-.0402-.20627-.05833-.07344-.01924-.14536-.04409-.21677-.06957a.0088.0088,0,0,0-.00811.01536,1.19178,1.19178,0,0,0,.38228.16814.58677.58677,0,0,1,.31345.21285.03213.03213,0,0,0,.01314.012.59431.59431,0,0,0-.02864.07243,1.074,1.074,0,0,0-.02534.14486c-.00195.01117.01532.0127.01743.00174a.52052.52052,0,0,1,.05115-.12508.8269.8269,0,0,1,.066-.11283.76685.76685,0,0,1,.17462-.17892A.33649.33649,0,0,1,6.203,2.71343a.38319.38319,0,0,1,.19554.12688c.015.014.03771-.00462.03533-.02194a.16146.16146,0,0,0-.02973-.07231.319.319,0,0,1,.16717.19322.81153.81153,0,0,1,.04877.33936c-.00471.12251-.0246.24384-.0314.36625a1.18514,1.18514,0,0,0,.03165.38173c.00552.02049.03726.01653.0333-.00526a2.54473,2.54473,0,0,1,.04855-.65945A.77689.77689,0,0,0,6.58541,2.79776Z" /><path d="M6.21085,3.31147c-.02348-.0051-.04755-.003-.071-.00942a.35952.35952,0,0,1-.06246-.02817.00955.00955,0,0,0-.01269.01038.10971.10971,0,0,0,.15765.06549C6.23942,3.33776,6.22731,3.31505,6.21085,3.31147Z" /><path d="M6.32957,3.51166a.10828.10828,0,0,0-.05883.02321l-.00063-.00011c-.0095-.00161-.012.01238-.00368.01585l.01051.01206.00961.00485a.04909.04909,0,0,0,.02575.002.04771.04771,0,0,0,.03892-.03145A.02007.02007,0,0,0,6.32957,3.51166Z" /><path d="M6.30642,3.64241a.099.099,0,0,0-.065-.00986c-.01613,0-.04982.00452-.06194-.00878a.00968.00968,0,0,0-.015.01225c.016.02429.02634.04648.05781.0539a.08661.08661,0,0,0,.08858-.02144A.019.019,0,0,0,6.30642,3.64241Z" /><path d="M5.7023,5.1701c-.02548-.013-.05.00942-.07181.0217a.45186.45186,0,0,0-.06965.04367.0118.0118,0,0,0,.00924.02062.45545.45545,0,0,0,.08014-.01972c.02475-.0073.05687-.00909.06537-.03725A.02339.02339,0,0,0,5.7023,5.1701Z" /><path d="M5.7279,5.04965c-.034-.01718-.08047.01911-.10826.03766-.026.01737-.06772.04608-.067.08132a.01079.01079,0,0,0,.00949.0116c.031.00072.05805-.02594.08439-.0396a.28475.28475,0,0,1,.04642-.01991c.02056-.00633.037-.00623.0486-.02684A.02986.02986,0,0,0,5.7279,5.04965Z" /><path d="M5.78256,4.87346c-.02879.00762-.05834.00767-.08694.01749a.48684.48684,0,0,0-.08547.0492.00876.00876,0,0,0,.00709.016.26629.26629,0,0,1,.10329-.013c-.03191.01535-.067.02194-.09821.0406a.22032.22032,0,0,0-.07585.074c-.00533.00845.00311.02117.01317.01609a.851.851,0,0,1,.09069-.04c.03205-.01172.06442-.01119.0965-.01985a.04015.04015,0,0,0,.01359-.07172A.21919.21919,0,0,0,5.79276,4.938C5.83424,4.92905,5.82274,4.86284,5.78256,4.87346Z" /><path d="M6.2783,8.00125a1.76942,1.76942,0,0,0-.25842-.22011.47341.47341,0,0,1-.122-.30884,2.28248,2.28248,0,0,1-.0195-.37541c.00451-.12759.01824-.25464.02447-.38215a1.74816,1.74816,0,0,0-.025-.42351.01171.01171,0,0,0-.02312.00365,2.25282,2.25282,0,0,1-.01719.40031c-.01377.13123-.03046.262-.03708.39391a2.10175,2.10175,0,0,0,.01773.3828.81431.81431,0,0,0,.03758.18514.38424.38424,0,0,0,.09159.12653,1.75722,1.75722,0,0,0,.31319.23679A.01324.01324,0,0,0,6.2783,8.00125Z" /><path d="M5.63862,7.47056c-.021-.12685-.07195-.247-.10206-.37165a1.53709,1.53709,0,0,1-.04875-.39261c.00146-.06265.00948-.1252.00735-.18793a.34693.34693,0,0,0-.0495-.1632.01853.01853,0,0,0-.03386.015.41958.41958,0,0,1,.01465.18749c-.00363.05993-.00979.11945-.01047.17955a1.62186,1.62186,0,0,0,.03066.33453.25535.25535,0,0,0-.04472.09045,1.31133,1.31133,0,0,0-.03838.12625.96547.96547,0,0,0-.03195.25129.01583.01583,0,0,0,.03043.00706c.02976-.07679.05245-.15831.07634-.23719l.03429-.11439.00213-.00685c.02693.09435.0609.18692.079.28328a.59205.59205,0,0,1,.00374.18545l-.00586.04108c-.02828-.015-.05612-.03111-.08341-.04763A.30716.30716,0,0,0,5.37,7.60279c-.01-.00185-.01538.00937-.01261.01741a.22077.22077,0,0,0,.08183.09206.67115.67115,0,0,0,.10168.06285.41771.41771,0,0,0-.00156.08323c.00254.02684.038.02518.04769.00477a.792.792,0,0,0,.05068-.198A.56949.56949,0,0,0,5.63862,7.47056Z" /><path d="M6.31432,8.30864a.74993.74993,0,0,0-.086-.051c-.02926-.0185-.05756-.0381-.08529-.05883a1.02892,1.02892,0,0,0-.17041-.11418.961.961,0,0,0-.22136-.06494.37669.37669,0,0,1-.17437-.09985.01516.01516,0,0,0-.02351.0146.23106.23106,0,0,0,.13321.14093.54659.54659,0,0,0,.11293.04936c.04.01166.08032.02165.11913.037a.9526.9526,0,0,1,.19.11285.29954.29954,0,0,0,.19529.07841A.0249.0249,0,0,0,6.31432,8.30864Z" /><path d="M6.3498,8.12669c-.00676-.02868-.012-.06675-.03952-.08249a.01919.01919,0,0,0-.02956.01836c.00109.026.02183.04578.03076.06972a.25441.25441,0,0,1,.01557.09414.01355.01355,0,0,0,.02695.0027A.30862.30862,0,0,0,6.3498,8.12669Z" /><path d="M3.82143,4.49655c-.00084-.05353-.00541-.10676-.0102-.16005-.00485-.05405-.00962-.1089-.01007-.16319-.00044-.053.00639-.10575.008-.15872.00047-.01542-.02112-.02694-.03053-.01142a.54648.54648,0,0,0-.051.30877q.00447.08138.01679.16192c.003.0196.00548.03974.008.06a2.01031,2.01031,0,0,1-.00786.21449.47323.47323,0,0,1-.04645.15715,1.4925,1.4925,0,0,1-.08058.15266c-.00821.01327.009.03268.02149.02a.86534.86534,0,0,0,.12135-.13353.389.389,0,0,0,.05829-.17649.90066.90066,0,0,0-.00011-.15367A.78487.78487,0,0,0,3.82143,4.49655Z" /><path d="M3.54281,5.13794c-.025.03223-.05543.05973-.082.09061a1.021,1.021,0,0,0-.06984.09151.83169.83169,0,0,0-.10454.20349.61282.61282,0,0,0-.014.4404.01867.01867,0,0,0,.03535-.00565c.01167-.06922.00855-.13949.01458-.20932A.923.923,0,0,1,3.36453,5.54a1.17389,1.17389,0,0,1,.08261-.195,1.92506,1.92506,0,0,1,.11206-.19549A.01005.01005,0,0,0,3.54281,5.13794Z" /><path d="M4.38385,2.49859a.02733.02733,0,0,0-.03134.0011c-.0259.01854-.02194.0493-.02076.07788l.0015.02777a.25416.25416,0,0,1-.17737.08714,1.82259,1.82259,0,0,0-.2736.02954.39129.39129,0,0,0-.20786.13082A.50845.50845,0,0,0,3.585,3.099c-.03185.20078-.07516.39822-.11818.59687a2.17339,2.17339,0,0,0-.06338.60562,1.57615,1.57615,0,0,0,.06584.32377,1.11936,1.11936,0,0,1,.06853.332.02847.02847,0,0,0,.05662.00566.79465.79465,0,0,0-.02041-.29323,2.96377,2.96377,0,0,1-.07422-.29547,1.71144,1.71144,0,0,1,.03607-.6081c.04145-.20578.09671-.40789.126-.61608a.622.622,0,0,1,.06866-.24461.31136.31136,0,0,1,.21929-.123,1.11858,1.11858,0,0,0,.31574-.04625A.21219.21219,0,0,0,4.338,2.677c.00182.03274.00192.06542.00176.0982a.18952.18952,0,0,0,.01558.07073c.004.01135.0225.00575.02016-.00594a.27173.27173,0,0,1,.016-.08556Q4.4,2.71,4.40577,2.66507C4.41138,2.62135,4.4307,2.52421,4.38385,2.49859Z" /><path d="M5.56671,4.23415a.16885.16885,0,0,1-.21032-.08067.27708.27708,0,0,1-.01924-.15882.55031.55031,0,0,1,.04248-.16226,1.873,1.873,0,0,0,.1383-.32146.70008.70008,0,0,0,.01219-.30771.53255.53255,0,0,0-.16031-.30068c-.00589-.00515-.01367.00283-.01115.00912.013.0324.02551.06456.03713.09683-.01525-.00818-.03136-.01489-.04561-.02131A1.34149,1.34149,0,0,1,5.22127,2.924a.961.961,0,0,1-.22689-.16452.01337.01337,0,0,0-.02068.01692.81189.81189,0,0,0,.19471.20285.86666.86666,0,0,0,.1229.06636.39692.39692,0,0,0,.13392.053h0a1.012,1.012,0,0,1,.03045.13794.74386.74386,0,0,1-.02356.33831c-.00587.01722-.01264.0341-.01989.05079a.68882.68882,0,0,0-.04686-.06726.25994.25994,0,0,0-.05753-.06389.1134.1134,0,0,0-.07651-.02365.37023.37023,0,0,1,.01523-.0494.256.256,0,0,1,.041-.08643A.01466.01466,0,0,0,5.269,3.31229c-.01472.01-.03177.01342-.04613.02482a.18021.18021,0,0,0-.034.03622.28226.28226,0,0,0-.03972.09037A1.90385,1.90385,0,0,0,5.122,3.699c-.01005.07741-.032.15247-.04672.229a1.00187,1.00187,0,0,0-.01682.12065.19035.19035,0,0,0,.01416.109A.021.021,0,0,0,5.111,4.15647a.36321.36321,0,0,0,.01727-.10087.96847.96847,0,0,1,.02249-.11013c.01809-.07092.03784-.14173.05014-.214.01156-.06785.01113-.13682.02037-.20486a.16956.16956,0,0,1,.06451.0498c.02486.031.04223.07507.078.09525a.03776.03776,0,0,0,.02505.004c-.01235.025-.02528.04966-.03787.07436a1.3081,1.3081,0,0,0-.08283.17183.33907.33907,0,0,0,.043.32379.20324.20324,0,0,0,.28795.04122A.03136.03136,0,0,0,5.56671,4.23415Z" /><path d="M4.09884,3.91123a1.787,1.787,0,0,0-.226-.6036c-.01022-.01585-.032.00075-.0266.01635.02479.071.04532.14333.06461.216a.45182.45182,0,0,0-.03039.06049c-.01628.03574-.033.0713-.0488.10727-.01484.03389-.02852.06838-.04214.10278a.23386.23386,0,0,0-.02991.10556.03679.03679,0,0,0,.05925.02258.222.222,0,0,0,.04686-.09283c.0139-.0366.0279-.07328.04049-.11036.01071-.03156.02065-.06339.03083-.09513.02533.09667.05432.19309.07407.291a1.07115,1.07115,0,0,1,.004.31854l-.005.04976a.17884.17884,0,0,0-.11366-.05232c-.02356-.00363-.02585.03122-.00361.03611.06521.01434.08936.08586.10459.14224a.53626.53626,0,0,0-.00449.15927.02886.02886,0,0,0,.05513.00551.60829.60829,0,0,0,.02882-.17277l.01808-.18c.00554-.05514.01678-.11052.01854-.16589A.67923.67923,0,0,0,4.09884,3.91123Z" /><path d="M4.15023,6.92a.01512.01512,0,0,0-.0272-.01017.762.762,0,0,0-.0941.27171,1.14353,1.14353,0,0,0-.01456.28551,1.63934,1.63934,0,0,1-.02026.54447.019.019,0,0,0,.03311.01749A.74248.74248,0,0,0,4.101,7.50625,1.902,1.902,0,0,1,4.10161,7.214C4.10976,7.114,4.13717,7.01889,4.15023,6.92Z" /><path d="M4.42014,8.37247c-.01029-.01754-.04052-.02819-.05307-.00531-.01311.02391-.101-.00635-.12266-.0129a.72888.72888,0,0,1-.124-.05108.1533.1533,0,0,1-.08863-.0857.39815.39815,0,0,1-.004-.13008A.01083.01083,0,0,0,4.007,8.08257a.3054.3054,0,0,0-.02132.16738.19642.19642,0,0,0,.12374.1327.77117.77117,0,0,0,.19147.06455.144.144,0,0,0,.09379-.00063A.05343.05343,0,0,0,4.42014,8.37247Z" /><path d="M4.6636,6.68333c-.05012.129-.08854.26272-.12644.39581q-.056.1967-.1089.39422a1.77388,1.77388,0,0,0-.08354.37679,2.34276,2.34276,0,0,0,.03983.393c.00209.01723.02786.01279.02639-.00417a1.88487,1.88487,0,0,1,.08944-.77351,7.44612,7.44612,0,0,0,.23775-.76483C4.748,6.657,4.679,6.64376,4.6636,6.68333Z" /><path d="M5.19462,6.82423c.00256-.05006.01191-.09925.01427-.14923a.01589.01589,0,0,0-.02853-.01067.45939.45939,0,0,0-.07237.28125,2.94261,2.94261,0,0,1-.00628.31575.84586.84586,0,0,1-.10518.29111.25614.25614,0,0,0-.0131.27126c.02669.03488.08855-.00132.067-.04119-.04932-.09125.01261-.16975.05613-.2494A.73722.73722,0,0,0,5.192,7.25249,2.54688,2.54688,0,0,0,5.19367,6.966C5.193,6.91889,5.19222,6.87134,5.19462,6.82423Z" /><path d="M5.49132,7.86587C5.46349,7.83925,5.421,7.841,5.38586,7.8276a.662.662,0,0,0-.11681-.04237.23125.23125,0,0,0-.09917.00066.13858.13858,0,0,0-.07076.04979c-.00931.01.008.02634.01776.01656.04937-.04941.13486.01153.17945.03549.04768.02562.15645.08215.19633.01683A.03251.03251,0,0,0,5.49132,7.86587Z" /><path d="M5.62674,4.44287a2.41719,2.41719,0,0,1-.16626.192c-.02847.0287-.06224.05024-.09023.07965a.29322.29322,0,0,0-.0371.04565.103.103,0,0,0-.01295.02227c-.00313.01024.00077.0196-.00731.029-.00854.01.00651.02217.01616.01507.00638-.00469.02339-.003.03174-.00588a.13015.13015,0,0,0,.02014-.01083.23816.23816,0,0,0,.04969-.04055,1.1344,1.1344,0,0,0,.07585-.09973,1.97037,1.97037,0,0,0,.146-.20845A.01576.01576,0,0,0,5.62674,4.44287Z" /><path d="M4.89642,2.67859a.1128.1128,0,0,1-.08366.04786.29776.29776,0,0,1-.11439-.03714.98424.98424,0,0,1-.228-.13853c-.00911-.00811-.02162.00632-.01433.01536a1.02487,1.02487,0,0,0,.12012.12368.49312.49312,0,0,0,.1392.09848c.07572.02977.20752-.00175.219-.09555A.02107.02107,0,0,0,4.89642,2.67859Z" /><path d="M5.10612,2.17381a.93946.93946,0,0,0,.00762-.21806.3901.3901,0,0,0-.11452-.2034c-.01859-.01564-.04566.00474-.04253.02641a.61188.61188,0,0,0,.09565.1891.34209.34209,0,0,1,.01028.21381c-.00552.02456-.01426.04809-.022.072a.20032.20032,0,0,0-.07078.01285c-.01449.00523-.03579.01416-.03915.03075l-.0039.00241c-.00786.00486-.00039.01466.00647.01445l.00217-.00007c.01.01065.02929.00989.04263.01.01482.00012.02951.00038.04422.00034l-.0143.062a1.30579,1.30579,0,0,1-.061.21066c-.00453.01068.01215.01989.01826.00965a1.22328,1.22328,0,0,0,.10675-.203.62024.62024,0,0,0,.02981-.10831A.848.848,0,0,0,5.10612,2.17381Z" /><path d="M4.87353,1.66076a.4829.4829,0,0,0-.27244-.10967.37781.37781,0,0,0-.29714.06559.46054.46054,0,0,0-.1531.22625.501.501,0,0,0-.01548.14905,1.30758,1.30758,0,0,0,.0067.14717.37.37,0,0,0,.15345.28873.02243.02243,0,0,0,.03313-.0271,2.35083,2.35083,0,0,1-.11884-.30465.3309.3309,0,0,1,.01063-.15933.71564.71564,0,0,1,.05349-.13916.29723.29723,0,0,1,.2326-.16125.78159.78159,0,0,1,.35387.04274C4.87056,1.68315,4.88209,1.66911,4.87353,1.66076Z" /><path d="M4.47914,2.17738a.07537.07537,0,0,0-.07236-.04025.10222.10222,0,0,0-.08443.06041.22789.22789,0,0,0,.06031.23238.0246.0246,0,0,0,.0446-.01543c-.00533-.05151-.0342-.09995-.03563-.15108A.06643.06643,0,0,1,4.412,2.20978c.01162-.0105.03643-.02314.05194-.01476A.01216.01216,0,0,0,4.47914,2.17738Z" /><path d="M4.79442,2.90364a.231.231,0,0,1-.0715.12312c-.03074.027-.08152.03115-.10592.06352a.021.021,0,0,0,.00969.0314c.04867.02095.10313-.03518.13184-.06822a.22972.22972,0,0,0,.05771-.14763A.011.011,0,0,0,4.79442,2.90364Z" /><path d="M4.68266,3.90958c-.00863.03735-.01733.07462-.02549.11208a.28148.28148,0,0,0-.016.1059c.00323.0169.03.0273.03971.00928a.2694.2694,0,0,0,.01845-.1046c.00378-.04.007-.07994.01029-.12A.01355.01355,0,0,0,4.68266,3.90958Z" /><path d="M5.01191,1.98909c-.05131-.003-.102.00692-.15384.00125a.748.748,0,0,1-.15052-.05292.13417.13417,0,0,0-.13155.01907c-.03534.0312-.03943.08346-.05661.1246-.0047.01125.01222.017.01745.00649A.169.169,0,0,1,4.63716,2.002c.045-.01226.093.028.13279.04344a.24576.24576,0,0,0,.252-.023A.01914.01914,0,0,0,5.01191,1.98909Z" /><path d="M4.78008,2.28838a.028.028,0,0,0-.02314-.01676.16505.16505,0,0,0-.0495.00091c-.01573.003-.03223.01157-.048.01319-.01092.00112-.00866.01572.00051.01773.01434.00314.02841.01321.04261.01762a.162.162,0,0,0,.0487.00706.02986.02986,0,0,0,.02944-.01835A.02742.02742,0,0,0,4.78008,2.28838Z" /><path d="M4.91166,2.55839a.02537.02537,0,0,0-.02051-.01485.13677.13677,0,0,0-.0432.00309.18846.18846,0,0,1-.04289.01275c-.0106.00073-.0099.01774.00053.01846a.13906.13906,0,0,1,.03783.01111.11049.11049,0,0,0,.03585.00494.033.033,0,0,0,.02992-.01077A.02258.02258,0,0,0,4.91166,2.55839Z" /></svg>