<svg xmlns="http://www.w3.org/2000/svg" data-name="Layer 1" viewBox="3.321719742123659 1.6111762178095166 3.3503155463123186 6.777319769400897" x="0px" y="0px"><title>KAMASUTRA</title><path d="M4.23909,6.76524c.00873-.018-.02053-.02882-.02921-.01087-.02453.05071-.0544.0977-.07595.15015a.96458.96458,0,0,0-.05035.15717,1.48274,1.48274,0,0,0-.02988.32977c.00067.1113.01357.22061.02065.3314a.28993.28993,0,0,1-.033.1405.11043.11043,0,0,0-.00346.11321.02161.02161,0,0,0,.03791-.01144c-.00038-.04892.04129-.07379.06679-.1099a.22044.22044,0,0,0,.03037-.148c-.00679-.10418-.01983-.20755-.02153-.31211a2.24246,2.24246,0,0,1,.0172-.313A1.02743,1.02743,0,0,1,4.23909,6.76524Z" /><path d="M4.49648,8.30721c-.042-.01175-.08819-.00387-.13158-.01291a.24808.24808,0,0,1-.12-.05347.526.526,0,0,1-.07484-.11213c-.02441-.04-.05078-.07827-.078-.11638-.01348-.01887-.03859.0008-.03237.0199a1.63523,1.63523,0,0,0,.06187.16154.3164.3164,0,0,0,.08359.1234.33581.33581,0,0,0,.13911.06021.25375.25375,0,0,0,.1543-.00181C4.52461,8.36211,4.52976,8.31653,4.49648,8.30721Z" /><path d="M4.49026,8.11421a1.26015,1.26015,0,0,1-.07263-.1323.51451.51451,0,0,1-.06746-.293c.00225-.01514-.02221-.02125-.02647-.00614a.51548.51548,0,0,0,.00351.29956.96335.96335,0,0,0,.16065.2752.02225.02225,0,0,0,.03892-.01174A.1987.1987,0,0,0,4.49026,8.11421Z" /><path d="M4.66133,6.63078a.86152.86152,0,0,0-.11345.23566c-.03178.08589-.06158.17235-.08867.25984-.02658.08583-.04635.17292-.0701.25945l-.03525.12954a.13961.13961,0,0,0-.00764.09831.01072.01072,0,0,0,.02031-.006A.313.313,0,0,1,4.401,7.47576c.01406-.0399.02813-.08.04417-.11912.03217-.0785.06406-.15695.0951-.23591.03021-.07684.05938-.15409.08934-.231a.98812.98812,0,0,0,.07465-.24286A.02389.02389,0,0,0,4.66133,6.63078Z" /><path d="M5.44737,6.27576a.39571.39571,0,0,1-.25-.20465,1.50983,1.50983,0,0,1-.14159-.33565A2.03,2.03,0,0,1,4.992,5.38059a1.18027,1.18027,0,0,0-.117-.35606,3.93911,3.93911,0,0,0-.20744-.37326.60792.60792,0,0,0,.074.0192c.01559.0008.0324-.01617.02327-.03212a.1111.1111,0,0,0-.12173-.05476c-.03179.008-.07554.04373-.05078.07939a.01243.01243,0,0,0,.01436.00343c.01-.00328.01867-.00793.02761-.01142.05479.12477.098.25445.15118.38.02653.0626.05341.12528.07795.18869a.71906.71906,0,0,1,.04181.18969,1.93635,1.93635,0,0,0,.049.27922,1.95784,1.95784,0,0,0-.20278-.09086A.76719.76719,0,0,1,4.447,5.28838a.01994.01994,0,0,0-.03645.01613.75719.75719,0,0,0,.24467.3634.64666.64666,0,0,0,.10464.05533.46251.46251,0,0,1,.0029.05374c-.00114.03538-.00664.07081-.00893.10621a2.12548,2.12548,0,0,1-.02911.227,1.25625,1.25625,0,0,0-.03139.4437c.00207.01117.02006.01473.02346.00235.03846-.13992.06867-.28254.09406-.42549a.78243.78243,0,0,0,.09173.19738c.03042.04907.06458.09579.09431.1453.00884.01473.01682.02987.02446.04517a.33452.33452,0,0,1-.04616.14589.81205.81205,0,0,0-.05575.14929,1.62958,1.62958,0,0,0-.0296.35107c-.00152.11737.00918.23426.009.35146a.39752.39752,0,0,1-.0273.15732c-.02159.0509-.06133.0949-.07868.14715a.02562.02562,0,0,0,.03989.02851.3708.3708,0,0,0,.10284-.13266.42793.42793,0,0,0,.04428-.16752c.00845-.122-.00405-.246-.00056-.36845q.00273-.09586.009-.19165a.94075.94075,0,0,1,.02253-.18189c.01454-.05387.03826-.10446.04975-.15929.00253-.01206.0046-.02414.0059-.03627l.0105.01943c.0147.02609.06336.02664.064-.01023a.55689.55689,0,0,0-.14539-.30746.88365.88365,0,0,1-.16805-.28168,1.27365,1.27365,0,0,0,.0157-.1521.86154.86154,0,0,0-.00711-.11085L4.835,5.7552a.47314.47314,0,0,1,.17358.11144,1.53751,1.53751,0,0,0,.13036.26829l.01325.02064c-.0128-.00626-.02648-.01135-.03979-.01674a.277.277,0,0,1-.09079-.05466.29651.29651,0,0,1-.06913-.205c.0006-.02176-.03217-.02558-.034-.0034a.83785.83785,0,0,0-.011.13184.26135.26135,0,0,0,.041.12408.24643.24643,0,0,0,.10095.08254.16619.16619,0,0,0,.13256.02233.03711.03711,0,0,0,.01753-.01981.24321.24321,0,0,0,.24891.09479A.01813.01813,0,0,0,5.44737,6.27576Z" /><path d="M5.51672,7.99472a.15572.15572,0,0,1-.155.00308,1.06913,1.06913,0,0,0-.17962-.06312.6716.6716,0,0,0-.19362.00849A.25088.25088,0,0,1,4.91067,7.937a.11331.11331,0,0,1-.06774-.034c-.00779-.0128-.031-.00947-.02749.00811a.133.133,0,0,0,.03146.07313.15878.15878,0,0,0,.0827.04138c.07545.01418.15071-.01792.226-.00676s.13983.05823.21655.06436a.21514.21514,0,0,0,.17553-.05065A.02447.02447,0,0,0,5.51672,7.99472Z" /><path d="M5.50709,7.63669a1.92527,1.92527,0,0,0-.15881-.14659c-.02407-.02053-.04962-.03936-.07357-.06A.27623.27623,0,0,1,5.232,7.38365c.02552-.1094.05947-.21683.095-.32331.03921-.11748.07908-.23481.11371-.35374a1.07521,1.07521,0,0,0,.03962-.17712.46638.46638,0,0,0,.00308-.08313.25463.25463,0,0,0-.02531-.08867c-.00686-.01611-.02887-.00761-.02785.00821a.94225.94225,0,0,1-.07758.36927c-.04192.11875-.08564.23684-.12483.35653a3.09382,3.09382,0,0,0-.09643.35458,1.26371,1.26371,0,0,0-.023.18208.21312.21312,0,0,0,.03516.15959c.01313.0132.04067.00964.04159-.01255.00127-.03052-.00485-.06074-.00311-.09146.00161-.02841.00531-.05679.00942-.08493.007-.04781.01543-.09562.025-.14307a.47046.47046,0,0,0,.09614.11244c.0453.04327.08972.089.13874.12811.01069.00852.02153.01632.03294.02386l.00238.00126a.07272.07272,0,0,1-.01844.01161c-.02094.01-.04507.0098-.06577.02042a.024.024,0,0,0-.0041.041A.11212.11212,0,0,0,5.53318,7.765C5.576,7.7212,5.54116,7.67318,5.50709,7.63669Z" /><path d="M5.48809,7.91648a.56245.56245,0,0,0-.1294-.10742.90167.90167,0,0,1-.13052-.12047c-.00837-.01033-.02759.00043-.02058.01265.01482.02584.02585.053.04282.07767a.51019.51019,0,0,0,.06493.07663.259.259,0,0,0,.15485.0943A.02078.02078,0,0,0,5.48809,7.91648Z" /><path d="M4.81589,7.53672C4.79771,7.524,4.77,7.50889,4.76445,7.48581c-.00648-.02687.01695-.0592.02539-.08437a.342.342,0,0,0-.01163-.20562,1.95945,1.95945,0,0,1-.04614-.20556.74028.74028,0,0,1-.01635-.22113c.00146-.01092-.01632-.01552-.01917-.00445a.82594.82594,0,0,0-.03687.237A1.21788,1.21788,0,0,0,4.707,7.2521a.218.218,0,0,1,.00251.12566.23567.23567,0,0,0-.0236.10243.10471.10471,0,0,0,.12546.10212A.02653.02653,0,0,0,4.81589,7.53672Z" /><path d="M4.64676,4.83093a.35954.35954,0,0,0-.04488-.04613c-.015-.01548-.02922-.03182-.04321-.0482-.02814-.03292-.05312-.06793-.078-.1033a.30261.30261,0,0,0-.19633-.11653c-.08985-.02146-.17988-.04184-.26832-.06871-.04271-.013-.08535-.02615-.12816-.03881a.305.305,0,0,0-.1275-.02307.01423.01423,0,0,0-.01067.0196.224.224,0,0,0,.09236.07678l.022.01174c-.02967.09791-.05894.19591-.08248.29562-.02568.10877-.04359.21991-.06058.33031a6.09534,6.09534,0,0,0-.06312.654,1.04026,1.04026,0,0,1-.04071.32278,2.26491,2.26491,0,0,0-.10623.27748,2.02123,2.02123,0,0,0-.03488.31917l-.02186.32486c-.00413.06144-.0076.123-.01256.18433a.42407.42407,0,0,1-.03583.159c-.03862.07667-.11935.174-.06688.26213.01181.01984.04862.021.04958-.00793.003-.09106.081-.151.11589-.23005a.85922.85922,0,0,0,.04476-.28987l.022-.32484c.00733-.10815.01023-.21788.02743-.325a1.23325,1.23325,0,0,1,.09909-.27991.84018.84018,0,0,0,.05726-.302c.0078-.21889.02245-.43743.04744-.65507.01377-.11989.03031-.23931.048-.35867.01678-.113.03-.2266.04788-.33941.023.01058.04645.02016.07015.02844a1.13078,1.13078,0,0,0,.26609.06236.54376.54376,0,0,1,.11377.0142c.04411.0139.06349.0476.08687.08467l.0235.03481a.41262.41262,0,0,0-.13157.07306.557.557,0,0,0-.11694.13529.89014.89014,0,0,0-.12005.38431,2.10108,2.10108,0,0,0,.053.66841c-.01141.04291-.01541.08907-.02647.13095-.0178.06739-.04166.133-.06462.19877-.04767.13648-.09539.27293-.14176.40986s-.08669.27595-.13979.41059c-.0262.06643-.05789.13134-.07855.19981a.329.329,0,0,0,.00149.19139q.03124.11583.0661.23073a1.4895,1.4895,0,0,0,.08286.22648A.0113.0113,0,0,0,3.8637,7.989a1.56906,1.56906,0,0,0-.0309-.20672C3.82,7.71365,3.80243,7.64584,3.78635,7.578A.362.362,0,0,1,3.77079,7.376c.02119-.06608.041-.13247.06188-.19867.04274-.13582.09678-.26745.1469-.4006s.09744-.26727.14545-.40114c.02368-.066.04768-.13208.06625-.19977l.00593.01927a.76085.76085,0,0,1,.04561.47237.02722.02722,0,0,0,.04752.02511A.47393.47393,0,0,0,4.334,6.31151c-.03287-.14045-.08268-.2755-.11019-.41752A1.41685,1.41685,0,0,1,4.262,5.06022a.75338.75338,0,0,1,.10177-.16091.64792.64792,0,0,1,.12741-.12139l.02285.02561a.345.345,0,0,0,.09486.08033C4.64226,4.89911,4.66351,4.856,4.64676,4.83093Z" /><path d="M3.84969,8.06608a.0249.0249,0,0,0-.02457.00409c-.007.00521-.01131.01679-.01872.02049-.00955.00478-.0286-.00579-.03769-.00893l-.09187-.0315a.46443.46443,0,0,1-.14071-.05864c-.04139-.03287-.04906-.09355-.06514-.141a.56857.56857,0,0,0-.07112-.17194.01576.01576,0,0,0-.02756.00832.37528.37528,0,0,0,.01677.11992c.00905.04175.01839.08361.03024.12466a.22044.22044,0,0,0,.12918.15459c.03468.01562.07155.0265.10753.03866a1.12044,1.12044,0,0,0,.11732.038.0842.0842,0,0,0,.08839-.02522A.04469.04469,0,0,0,3.84969,8.06608Z" /><path d="M4.0324,6.17028A.03654.03654,0,0,0,3.96717,6.155a.26151.26151,0,0,1-.04079.05415c-.00912.00768-.019.01381-.0286.0208-.00983.00717-.01553.0172-.02634.02242a.02074.02074,0,0,0,.00115.03795.11071.11071,0,0,0,.05146.013.11455.11455,0,0,0,.05844-.02557A.11879.11879,0,0,0,4.0324,6.17028Z" /><path d="M5.37575,5.67243c-.03346-.0758-.06757-.15153-.10051-.22749a.01129.01129,0,0,0-.02139.00631,1.81776,1.81776,0,0,0,.04479.24392.486.486,0,0,0,.09843.22091c.01527.0153.05094.0122.0506-.01527A.615.615,0,0,0,5.37575,5.67243Z" /><path d="M5.9846,5.54634a.99418.99418,0,0,0-.14884-.10423l-.04734-.02687c-.03174-.04654-.06719-.09121-.09806-.1374-.04915-.07353-.09822-.14682-.149-.21926-.04923-.07026-.09863-.14042-.15021-.209-.02712-.036-.05464-.07167-.0838-.1061s-.06462-.06365-.09093-.10027a.01184.01184,0,0,0-.02109.0072.20833.20833,0,0,0-.0548-.02525.257.257,0,0,0-.07178-.0093.66807.66807,0,0,0,.03082-.07821.16661.16661,0,0,1,.06769-.08891c.01687-.00821.01008-.03641-.00959-.03252a.19323.19323,0,0,0-.11476.06011.18548.18548,0,0,0-.05544.13836l.00234.007-.01376.00235a.42536.42536,0,0,1-.06442.014c-.01093.00049-.00962.01726.00053.01855.03442.00437.06641.01382.10128.01651a.31231.31231,0,0,1,.10169.02045.24689.24689,0,0,1,.12046.14795,2.20145,2.20145,0,0,0,.14862.42769.02238.02238,0,0,0,.03925-.01184.9.9,0,0,0-.05029-.26066c-.00713-.0248-.01375-.05013-.02071-.07545.04087.06085.08284.12093.12523.18074.0497.07013.10057.1391.1518.2081l.02492.03489c-.01931-.00947-.03876-.0187-.05836-.02749-.03012-.01351-.06507-.01706-.094-.033a.0122.0122,0,0,0-.01409.0199c.02274.02014.03856.04722.06179.06737a.62824.62824,0,0,0,.06839.04949c.05012.03279.10321.06089.15434.09207l.0103.00633.00417.00454A.02913.02913,0,0,0,5.8043,5.533a1.14082,1.14082,0,0,1,.10993.07721c.03893.03149.081.09057.13291.09748a.026.026,0,0,0,.028-.02291C6.08237,5.62936,6.022,5.57862,5.9846,5.54634Z" /><path d="M6.38235,6.09523a.139.139,0,0,0-.13435-.0275c-.05531.00865-.11018.02163-.16507.03265l-.17423.03486a.2125.2125,0,0,0-.13293.057.70077.70077,0,0,0-.08112.12973c-.02654.04843-.05109.09792-.07468.14785-.04641.09826-.0886.19849-.13193.29812-.02442.05613-.04955.11185-.07586.16712a1.06514,1.06514,0,0,1-.08972.17582c-.00744.01.00694.02305.01476.013.01984-.02555.04448-.04718.06549-.07182a.84282.84282,0,0,0,.05744-.0774,1.73366,1.73366,0,0,0,.097-.16522c.05767-.11036.10583-.22536.16034-.33726a.56126.56126,0,0,0,.00327.12022.28718.28718,0,0,0,.0575.14393.10585.10585,0,0,0,.13019.03922c.017-.00966.00828-.03285-.00728-.03765A.1406.1406,0,0,1,5.79828,6.663a.44906.44906,0,0,1-.03546-.13125.76545.76545,0,0,1-.00475-.13972c.01774-.03355.0362-.06671.05592-.09915.01359-.02236.02661-.05481.05094-.067a.39314.39314,0,0,1,.09432-.02137l.07065-.01438.01206.00343a.378.378,0,0,1,.06365.0341.14859.14859,0,0,0,.11425.02226.01045.01045,0,0,0,.00137-.0191A.65162.65162,0,0,1,6.12414,6.171l.04138-.00842c.03436-.007.06882-.01352.10292-.02165a.2226.2226,0,0,1,.09463-.00718A.02245.02245,0,0,0,6.38235,6.09523Z" /><path d="M6.26558,7.26753A.65544.65544,0,0,0,6.1938,7.131.537.537,0,0,1,6.14422,6.978a.31033.31033,0,0,1-.00355-.1652.54751.54751,0,0,1,.0521-.10515A1.028,1.028,0,0,0,6.324,6.58578a.64644.64644,0,0,0,.04932-.06411l.00051.0001a.10723.10723,0,0,0,.03084.00062.24389.24389,0,0,0,.03138-.00989c.01163-.003.00654-.01846-.00361-.01914a.13794.13794,0,0,1-.03484-.00957c.03021-.04976.0562-.10236.08169-.15415A.3848.3848,0,0,0,6.531,6.06277c-.00563-.02061-.035-.01287-.03527.00665a.57716.57716,0,0,1-.08416.26287l-.01405.0262a.10022.10022,0,0,0-.06824-.0102c-.00932.00221-.00554.01542.00295.01563a.041.041,0,0,1,.03429.022l.00846.013c-.01226.02124-.025.04214-.03852.06251-.01312-.00756-.03574-.01779-.04232-.032-.00554-.012-.02527-.00557-.01967.00654a.16463.16463,0,0,0,.03077.0608l.004.00352a.701.701,0,0,1-.0594.07028,2.03525,2.03525,0,0,1-.2045.17081.9323.9323,0,0,0-.09464.08321c-.03292.03421-.05585.07364-.08572.11-.00756.0092.00617.02141.01395.01226a.64824.64824,0,0,1,.11863-.093c.02569-.01848.05114-.03731.07654-.05619a.32073.32073,0,0,0-.00552.16605.66447.66447,0,0,0,.04916.17335,1.049,1.049,0,0,0,.1207.1438A.0153.0153,0,0,0,6.26558,7.26753Z" /><path d="M6.286,5.91124a.5879.5879,0,0,0-.50676.09274.90087.90087,0,0,0-.31411.50641,1.64067,1.64067,0,0,1-.129.35706c-.006.01014.01024.01809.01628.00816A1.91529,1.91529,0,0,0,5.494,6.60225c.03871-.09484.07455-.191.12123-.2823a.62888.62888,0,0,1,.38745-.33906.82829.82829,0,0,1,.27979-.02424C6.31082,5.95829,6.30813,5.91892,6.286,5.91124Z" /><path d="M6.65386,5.97008A.22912.22912,0,0,0,6.488,5.81362a.31207.31207,0,0,0-.10413-.11179A.37614.37614,0,0,0,6.09245,5.67a.6522.6522,0,0,0-.2577.12165.60468.60468,0,0,0-.21125-.30523c-.05344-.04527-.11122-.08457-.16811-.12527C5.395,5.318,5.338,5.27016,5.28161,5.222a.0086.0086,0,0,0-.01277.0112,1.16562,1.16562,0,0,0,.29061.287.57389.57389,0,0,1,.21212.30385.03142.03142,0,0,0,.00783.01553.58127.58127,0,0,0-.05144.05619,1.05047,1.05047,0,0,0-.07371.12352c-.00568.00953.00957.01695.01531.00767a.5091.5091,0,0,1,.09038-.09643.80875.80875,0,0,1,.09966-.08007.75.75,0,0,1,.222-.10254.32911.32911,0,0,1,.25231.01169.37478.37478,0,0,1,.13439.18416c.00885.01807.03607.00893.03993-.00772a.15792.15792,0,0,0-.00194-.07644.312.312,0,0,1,.08532.23487.79372.79372,0,0,1-.07386.32709c-.047.11029-.10757.21421-.15649.32368a1.15912,1.15912,0,0,0-.10429.35983c-.00211.02065.02828.0281.03226.00681a2.48887,2.48887,0,0,1,.27447-.58559A.75984.75984,0,0,0,6.65386,5.97008Z" /><path d="M6.13237,6.30875c-.01968-.01286-.04239-.01937-.06154-.03337a.35162.35162,0,0,1-.04724-.04753.00934.00934,0,0,0-.01521.00506.1073.1073,0,0,0,.12119.11485C6.1493,6.34274,6.14616,6.31776,6.13237,6.30875Z" /><path d="M6.171,6.53308a.1059.1059,0,0,0-.06185.00068L6.1086,6.53344c-.00811-.00478-.01526.00713-.00889.0132l.0054.01469.00709.00778A.048.048,0,0,0,6.135,6.58a.04667.04667,0,0,0,.04653-.01515A.01963.01963,0,0,0,6.171,6.53308Z" /><path d="M6.10421,6.64447c-.01335-.02039-.03459-.02361-.056-.0317-.01475-.00559-.0471-.01325-.05353-.02964a.00947.00947,0,0,0-.018.006c.00613.02777.00785.05166.034.06942a.08471.08471,0,0,0,.08842.01132A.01854.01854,0,0,0,6.10421,6.64447Z" /><path d="M5.83006,5.02717A.50026.50026,0,0,0,5.73091,4.884c-.04257-.04028-.087-.07829-.13259-.11507-.05163-.04164-.10694-.07938-.16092-.11868l-.00018-.00183a.23616.23616,0,0,0-.048-.094C5.36962,4.52685,5.34985,4.4917,5.313,4.487c-.06042-.00778-.11771.05638-.1338.10863a.01743.01743,0,0,0,.02714.0194.37936.37936,0,0,1,.05531-.03768A.21389.21389,0,0,1,5.286,4.56542c.00855-.00323.01033-.00392.01328-.00206l.002.00575a1.15,1.15,0,0,0,.11445.13925c.03959.04019.07915.07976.12233.11612.04342.03655.08726.07286.129.11128.04394.0404.09138.07418.1374.11229C5.81759,5.05884,5.83732,5.04187,5.83006,5.02717Z" /><path d="M6.10924,5.392c-.07583-.1094-.15957-.21278-.23766-.3204-.01014-.014-.03538.001-.02631.01618.06389.10715.12244.21742.18776.32384a1.317,1.317,0,0,1,.07726.1373c.02214.04821.0333.09982.05331.14854a.02623.02623,0,0,0,.04808-.00146C6.2452,5.59051,6.16634,5.47432,6.10924,5.392Z" /><path d="M4.19586,2.51921a1.14468,1.14468,0,0,1-.10809.08115.30916.30916,0,0,1-.11644.05176.64368.64368,0,0,0-.25411.06866.35013.35013,0,0,0-.07713.08088.58547.58547,0,0,0-.05965.09293.35824.35824,0,0,0-.05213.20906.01869.01869,0,0,0,.03689-.00105.80509.80509,0,0,1,.01942-.10978.29781.29781,0,0,1,.0523-.09785.41577.41577,0,0,1,.17569-.11127A1.58145,1.58145,0,0,0,4.04537,2.703.48862.48862,0,0,0,4.14,2.62863c.02849-.02838.05-.06084.07574-.09091C4.22579,2.526,4.20734,2.50909,4.19586,2.51921Z" /><path d="M3.71392,4.27976c-.02194-.02887-.06377-.03624-.08782-.06542a.25455.25455,0,0,1-.03516-.1299c-.01169-.10131-.00919-.20261-.01139-.30439-.00214-.09913.00021-.19832.00294-.29742a2.04526,2.04526,0,0,0-.01706-.30421c-.00165-.01339-.02341-.01654-.0271-.00271a2.13069,2.13069,0,0,0-.05877.66783c.00307.056.01359.11105.02159.16642.00775.05361.01455.10787.02618.16082a.34123.34123,0,0,0,.04905.12913c.025.03341.0809.06931.12209.04456A.04261.04261,0,0,0,3.71392,4.27976Z" /><path d="M4.77256,4.42307a.37876.37876,0,0,0-.15583-.11579.24585.24585,0,0,0-.0981-.012c-.03132.00251-.0605.001-.0915.00082a.897.897,0,0,0-.17333-.13651,1.88037,1.88037,0,0,0-.19534-.10872.65126.65126,0,0,0-.0801-.03306.92407.92407,0,0,0,.00475-.21788c-.00172-.08368-.01053-.16719-.00449-.25089a.638.638,0,0,1,.019-.11939.75557.75557,0,0,0,.01879-.12107c.004-.03912.00689-.07828.01075-.11741a1.09289,1.09289,0,0,1,.00858-.13024c.003-.01316-.01968-.01855-.02318-.00538-.01051.03947-.03367.07557-.046.1149-.01211.03862-.0235.07724-.03249.11671a.53652.53652,0,0,0-.01813.13013,1.17373,1.17373,0,0,1-.0055.12492c-.00742.0827-.02236.16486-.02436.248a.68679.68679,0,0,0,.01571.21506A.11751.11751,0,0,0,3.85,4.01838a.01613.01613,0,0,0-.00276.02763c.05764.03705.12209.06678.183.09831q.0964.0499.188.10838a1.72251,1.72251,0,0,0,.18147.10282,1.37763,1.37763,0,0,1,.19369.122c.01328.00943.027-.01038.01452-.02051-.02987-.02428-.06039-.04912-.09009-.07486.015.00111.02925.00192.04138.00352A.399.399,0,0,1,4.75,4.4473C4.76463,4.4587,4.78561,4.43691,4.77256,4.42307Z" /><path d="M5.23156,5.18383a.73427.73427,0,0,0-.09913-.20615c-.04087-.06415-.08764-.12548-.13308-.18645A.62453.62453,0,0,0,4.85513,4.626l.00438-.00074a.023.023,0,0,0,.01861-.01971.04089.04089,0,0,0-.00073-.01443A.02443.02443,0,0,0,4.895,4.57351a.93313.93313,0,0,0,.01026-.14306c.0522-.06846.14-.00152.20743-.00477a.0288.0288,0,0,0,.01767-.04637.19378.19378,0,0,0-.1601-.047.11737.11737,0,0,0-.06085.03174c.00257-.03844.005-.07676.00607-.11551.001-.03758.00052-.07507-.00029-.11253l.00429.01364a.5471.5471,0,0,0,.03313.07809c.01429.02784.03443.051.04962.078a.01541.01541,0,0,0,.02816-.01246.76426.76426,0,0,1-.01865-.0892l-.015-.07086c-.01093-.05164-.02156-.10338-.02766-.15587-.00606-.05216-.01088-.10486-.01441-.15725-.0027-.04024-.00017-.08016.00074-.12017l.00754-.01961c.01331-.03274.02634-.06569.03768-.09918a.78309.78309,0,0,0,.03751-.193.68773.68773,0,0,0-.01118-.19434c-.01438-.06765-.034-.134-.04394-.20246a.01205.01205,0,0,0-.02379.00068c-.02552.12719-.00223.2582-.01535.38669-.00672.06576-.01981.13063-.02885.19607s-.02626.12921-.03568.19415a.02052.02052,0,0,0,.00549.0183L4.882,3.81014a.71.71,0,0,0-.00388.12723,1.89772,1.89772,0,0,0-.05343.31553,1.20657,1.20657,0,0,0,.00634.16416.9878.9878,0,0,0,.01668.13321.41822.41822,0,0,0-.06936-.0419.23917.23917,0,0,0-.1432-.03453.01079.01079,0,0,0-.0045.01926c.03816.02708.0811.04488.12072.07006a.61591.61591,0,0,1,.05571.04025.11534.11534,0,0,0,.0297.02073.00834.00834,0,0,0-.00058.0127.4026.4026,0,0,1,.05336.09247c.01743.03236.03605.06412.05413.09612.03544.06275.07266.12442.10762.18745a1.476,1.476,0,0,1,.156.39211.01774.01774,0,0,0,.035-.001A.63931.63931,0,0,0,5.23156,5.18383Z" /><path d="M5.29389,4.00587a.85172.85172,0,0,1-.05652-.16642,1.33252,1.33252,0,0,1,.00191-.1916,2.77447,2.77447,0,0,0-.0184-.37546c-.00642-.06616-.01332-.13226-.02012-.19838a1.18581,1.18581,0,0,0-.0257-.17561.3461.3461,0,0,0-.08175-.15489.28557.28557,0,0,0-.13537-.0774c-.017-.00481-.02694.021-.00968.026.09983.02933.1339.15333.14782.24386.01747.11359.023.22944.03407.34378a3.56231,3.56231,0,0,1,.03.36015,1.16536,1.16536,0,0,0,.02158.32905.75619.75619,0,0,1,.039.18177c.00234.06358.001.1288-.00017.19238-.00062.03355.05206.052.06184.01434A.81166.81166,0,0,0,5.31633,4.186.51633.51633,0,0,0,5.29389,4.00587Z" /><path d="M4.62642,3.24166a.01324.01324,0,0,0-.01848-.00185.15606.15606,0,0,0-.02552.08734.645.645,0,0,1-.03587.12541.17127.17127,0,0,1-.04075.07251.07477.07477,0,0,0-.02789.08475.03666.03666,0,0,0,.0377.02053.13432.13432,0,0,0,.08275-.05115A.175.175,0,0,0,4.63557,3.48c.00455-.0417.00537-.08473.0065-.12668C4.643,3.32006,4.65054,3.26785,4.62642,3.24166Z" /><path d="M4.9972,1.84186a.36071.36071,0,0,0-.23569-.21045.6117.6117,0,0,0-.37072.01868.36977.36977,0,0,0-.21438.25435.59041.59041,0,0,0-.01462.20283.55652.55652,0,0,0,.023.11543c.012.03871.02995.07506.0421.11354.00563.01784.03539.0089.03144-.00927a1.46268,1.46268,0,0,1-.0184-.17348.659.659,0,0,1,.00183-.16914.32954.32954,0,0,1,.14173-.22974.44265.44265,0,0,1,.29538-.04006.29251.29251,0,0,1,.21025.13976.5409.5409,0,0,1,.0679.27789c-.00036.02757.03922.04056.04944.01147A.41646.41646,0,0,0,4.9972,1.84186Z" /><path d="M4.858,1.94234c-.00844.01373-.01818.02621-.02631.04017-.00447.00767-.00908.02465-.01616.02908-.017.01063-.05186-.01058-.06772-.0183A.478.478,0,0,0,4.59955,1.938c-.07518-.00959-.18742.05078-.17889.13928a.01878.01878,0,0,0,.03356.00785.10822.10822,0,0,1,.04217-.05082A.11744.11744,0,0,1,4.55351,2.025a.43063.43063,0,0,1,.15924.04587.15223.15223,0,0,0,.13026.009c.04052-.02513.03684-.086.0429-.12709A.0155.0155,0,0,0,4.858,1.94234Z" /><path d="M4.38353,2.17928a.01585.01585,0,0,0,.02132-.02286.0515.0515,0,0,0-.05963-.02181.08126.08126,0,0,0-.04838.072.35939.35939,0,0,0,.04569.23181c.01783.027.05611.00317.05339-.02392-.00454-.04521-.01893-.0888-.02458-.134C4.37052,2.274,4.36139,2.166,4.38353,2.17928Z" /><path d="M4.73077,2.71757a.21523.21523,0,0,0-.07848-.02613.30134.30134,0,0,1-.07452-.03311c-.024-.01468-.04628-.03212-.06875-.049a.44549.44549,0,0,1-.08186-.06439.013.013,0,0,0-.02.01639c.02507.03027.03718.069.0614.10024a.31427.31427,0,0,0,.08217.075c.0495.03038.13912.06679.18576.01437A.02426.02426,0,0,0,4.73077,2.71757Z" /><path d="M5.01184,2.30345,5.00408,2.302a.22334.22334,0,0,0-.00936-.07438c-.00337-.0102-.01668-.007-.02047.00062a.24468.24468,0,0,0-.01992.07018.24748.24748,0,0,0-.04619.00572.02211.02211,0,0,0,.00125.04362.24344.24344,0,0,0,.036.00513l-.00117.00562a.90289.90289,0,0,1-.04669.14283c-.01665.04085-.03554.08079-.05389.12089a.49425.49425,0,0,1-.02846.05821A.57016.57016,0,0,0,4.78,2.72954c-.009.01834.01325.03216.02877.02708.03826-.01252.07187-.06492.09082-.09839a1.157,1.157,0,0,0,.06248-.13281A.508.508,0,0,0,4.99845,2.377L5.001,2.35046l.01215-.00226A.02267.02267,0,0,0,5.01184,2.30345Z" /><path d="M4.769,2.22876a.0893.0893,0,0,0-.08529-.02253.19562.19562,0,0,0-.04269.00882c-.017.00591-.03029.01843-.04723.02469-.01373.00508-.00441.025.0091.02057a.20122.20122,0,0,1,.08249.00459.12582.12582,0,0,0,.07382.00493A.02684.02684,0,0,0,4.769,2.22876Z" /><path d="M4.95919,2.21033a.03266.03266,0,0,0-.028-.01136.12678.12678,0,0,0-.02142.00554.07473.07473,0,0,0-.03262.01272.0177.0177,0,0,0-.00241.02405.05409.05409,0,0,0,.04.01677c.01849.0018.0426-.00174.04869-.02241A.02568.02568,0,0,0,4.95919,2.21033Z" /><path d="M4.725,2.32874a.02029.02029,0,0,0-.02206-.01409.23087.23087,0,0,1-.07268.00213.01163.01163,0,0,0-.0081.02178.25744.25744,0,0,0,.04454.01675.09293.09293,0,0,0,.04742-.00276A.01974.01974,0,0,0,4.725,2.32874Z" /><path d="M4.82848,2.56486c-.02615-.01549-.05977.00063-.08814.00187a.02086.02086,0,0,0-.00872.03731.09148.09148,0,0,0,.08054.01426.03928.03928,0,0,0,.02579-.02275A.02627.02627,0,0,0,4.82848,2.56486Z" /><path d="M4.85849,2.43881A.05759.05759,0,0,0,4.82163,2.44l-.01328.00521a.05515.05515,0,0,0-.01319.01062.01479.01479,0,0,0,.00417.02505l.01381.00517a.11907.11907,0,0,0,.01588.00013.05746.05746,0,0,0,.03541-.01161A.021.021,0,0,0,4.85849,2.43881Z" /></svg>