<svg xmlns="http://www.w3.org/2000/svg" data-name="Layer 1" viewBox="1.5903195166257151 2.4097155527398417 6.819555428719909 5.180797846987232" x="0px" y="0px"><title>KAMASUTRA</title><path d="M3.79285,3.8846a1.88767,1.88767,0,0,1-.24069-.21981,2.4125,2.4125,0,0,1-.20549-.26648c-.03266-.04787-.06383-.09729-.093-.14794A1.22141,1.22141,0,0,1,3.167,3.0905c-.00557-.01434-.02526-.00449-.0197.00983.02166.05583.03489.11474.05812.17026q.03221.077.07118.14977a1.61224,1.61224,0,0,0,.1913.27822,1.75139,1.75139,0,0,0,.23683.23237A.52654.52654,0,0,1,3.9002,4.142a.02586.02586,0,0,0,.05014-.009A.31042.31042,0,0,0,3.79285,3.8846Z" /><path d="M4.29893,4.88965a1.52351,1.52351,0,0,0-.1304-.36216,1.21133,1.21133,0,0,1-.16627-.3478.01035.01035,0,0,0-.02067.00067.48732.48732,0,0,0,.01677.17338,1.045,1.045,0,0,0,.072.16647,1.82826,1.82826,0,0,1,.12764.33244.77838.77838,0,0,1-.08029.6581.02342.02342,0,0,0,.03183.03348A.65125.65125,0,0,0,4.29893,4.88965Z" /><path d="M5.14916,4.56665a2.47141,2.47141,0,0,1-.19122-.15717c-.01282-.015-.03442.00408-.02253.02079a.84519.84519,0,0,0,.134.16835c.02582.02184.04588.03231.05394.06965.00916.04243.004.08543.01065.12784a.02819.02819,0,0,0,.05519.00623A.2514.2514,0,0,0,5.14916,4.56665Z" /><path d="M4.98856,4.58541a.8.8,0,0,1-.10527-.1088c-.0099-.01294-.02675-.00014-.022.01523a.34455.34455,0,0,0,.06613.12063c.01313.01552.028.02883.0413.04416.0141.0163.02257.04137.04042.052a.02333.02333,0,0,0,.0364-.01267C5.06036,4.6508,5.01657,4.61066,4.98856,4.58541Z" /><path d="M4.99666,4.76245c-.04-.054-.1332-.07441-.13635-.158a.01189.01189,0,0,0-.02374.00076.22814.22814,0,0,0,.02582.11855.19033.19033,0,0,0,.10074.09165A.0332.0332,0,0,0,4.99666,4.76245Z" /><path d="M5.3327,6.05A.40534.40534,0,0,0,5.247,5.92865a1.102,1.102,0,0,0-.11276-.09345,1.51267,1.51267,0,0,0-.12956-.08255.50516.50516,0,0,0-.10631-.05339c.034-.08051.06512-.16277.094-.24555a1.10991,1.10991,0,0,0,.05987-.24349A.43237.43237,0,0,0,5.11734,5.078a.78334.78334,0,0,0,.0387-.16829.01335.01335,0,0,0-.0258-.00675c-.02253.052-.04722.10324-.07168.15409l-.00629.01256a.33027.33027,0,0,0-.02021-.08206.41085.41085,0,0,0-.03244-.06409A.38381.38381,0,0,0,4.95117,4.868c-.01044-.01152-.02762.00314-.018.01661a.33556.33556,0,0,1,.04584.13785.64069.64069,0,0,1,.00851.1362,1.14014,1.14014,0,0,1-.08168.30817c-.03616.10015-.07506.199-.11312.29822q-.02848.07426-.05833.14785a1.41707,1.41707,0,0,0-.06256.15985c-.00629.02348.01926.03831.03307.01971a1.03886,1.03886,0,0,0,.08662-.16073c.02464-.05.04829-.10066.07141-.1516l.01084-.02433a.53709.53709,0,0,0,.0859.06334c.0419.02763.08438.054.12524.08363a1.16385,1.16385,0,0,1,.10857.08926.84949.84949,0,0,0,.10978.08517A.02086.02086,0,0,0,5.3327,6.05Z" /><path d="M5.45273,5.77666a.99041.99041,0,0,0-.0344-.1445,1.71374,1.71374,0,0,0-.11711-.26553,1.04956,1.04956,0,0,1-.11181-.27526c-.00283-.017-.02353-.01237-.023.0041a.76441.76441,0,0,0,.04756.25672c.0318.08291.07274.1611.10814.2421a.65808.65808,0,0,1,.06715.24627c.00177.05985-.00821.11915-.00931.17887-.00045.02469.00654.10026-.01569.11491-.01893.01247-.012.04411.011.04194.09571-.009.07691-.155.08079-.22981A.89915.89915,0,0,0,5.45273,5.77666Z" /><path d="M5.89407,6.24995A.16273.16273,0,0,0,5.796,6.15507a.381.381,0,0,1-.06459-.03825c-.02443-.01927-.045-.04357-.068-.06481a.131.131,0,0,0-.15218-.03472.15836.15836,0,0,0-.06333.15416.01006.01006,0,0,0,.0185.00488c.02483-.0383.04348-.10773.09717-.09171a.2796.2796,0,0,1,.10076.08139.22782.22782,0,0,0,.10038.05622.20523.20523,0,0,1,.09957.04837C5.87813,6.28652,5.90118,6.27171,5.89407,6.24995Z" /><path d="M5.83586,6.09337a1.28414,1.28414,0,0,1-.09918-.12518,1.20822,1.20822,0,0,1-.08458-.1253.98725.98725,0,0,1-.10641-.29839c-.02411-.12362-.03348-.24993-.06034-.373-.02582-.11835-.05885-.23437-.09522-.34907a2.09122,2.09122,0,0,1-.09776-.40766c-.00183-.01688-.0233-.01217-.02264.004a2.2907,2.2907,0,0,0,.0506.38005c.02618.12336.06131.24378.08862.36676.02825.12722.03581.25815.062.38559a1.09693,1.09693,0,0,0,.11487.30462.92613.92613,0,0,0,.10014.152.72069.72069,0,0,0,.13133.11526C5.83509,6.13611,5.85075,6.10884,5.83586,6.09337Z" /><path d="M2.71389,6.97761c-.11886.01756-.21906-.07953-.31111-.14857a1.39634,1.39634,0,0,0-.30353-.171.44094.44094,0,0,1-.25385-.18364.32625.32625,0,0,1,.05877-.32519.01215.01215,0,0,0-.019-.01516.47549.47549,0,0,0-.13569.25929.31256.31256,0,0,0,.12112.2499,1.25636,1.25636,0,0,0,.27658.14312,1.70259,1.70259,0,0,1,.26817.17323.294.294,0,0,0,.31161.06814C2.75122,7.01519,2.74014,6.97373,2.71389,6.97761Z" /><path d="M4.26371,6.24808A.7346.7346,0,0,0,4.108,6.209a.41783.41783,0,0,0-.15657.01817.55793.55793,0,0,1-.156.02417.33232.33232,0,0,0-.14386.02055,1.19764,1.19764,0,0,0-.13227.09422c-.05083.03347-.09947.06747-.1476.10593q-.14353.11471-.28626.23062c-.05256.04288-.10481.08609-.155.13242-.02425.02237-.04883.04436-.07257.06743-.027.02623-.04947.05831-.07738.08313a.01146.01146,0,0,0,.01342.0185c.02518-.018.0541-.029.08027-.04508.02361-.0145.04634-.03082.06929-.04657.03909-.02683.07749-.0544.11558-.08281a.548.548,0,0,1,.08475.00234.63368.63368,0,0,1,.12479.02106.7273.7273,0,0,1,.22288.11975c.02288.017.04792-.01442.03224-.039a.37583.37583,0,0,0-.24283-.16392.35679.35679,0,0,0-.135-.00654c.07072-.05489.14075-.111.21084-.16683.03726-.0297.0752-.05864.112-.0892.00448.02124.00368.0563.00815.06794a.11059.11059,0,0,0,.04278.05161,1.32659,1.32659,0,0,0,.1392.06774.62008.62008,0,0,1,.12971.087.47364.47364,0,0,1,.04249.04307q.02053.05378.04372.10616a.68109.68109,0,0,0,.10248.19019c.01442.01507.03274-.00534.032-.02238a.36016.36016,0,0,0-.025-.09741c-.01143-.03351-.02319-.067-.03571-.1-.02475-.06525-.05159-.12944-.07377-.1959a1.19923,1.19923,0,0,1-.05015-.20355,1.63644,1.63644,0,0,1-.01281-.16867.36352.36352,0,0,0,.09679-.01017.705.705,0,0,1,.16211-.03859,1.30289,1.30289,0,0,1,.18366.00971C4.27732,6.29643,4.28745,6.25568,4.26371,6.24808Zm-.71266.31056c-.02365-.01886-.01515-.05558-.02716-.08273l-.00635-.01179a1.13582,1.13582,0,0,1,.10113-.093.22724.22724,0,0,1,.13724-.03774.64034.64034,0,0,0,.02111.329.45127.45127,0,0,0-.06587-.03856A.75413.75413,0,0,1,3.55105,6.55864Z" /><path d="M3.90137,5.67123a.52838.52838,0,0,1-.15728.18514l-.00137.00134c-.024-.0007-.04966-.00764-.07195-.00893a.95323.95323,0,0,1-.104-.01409.99669.99669,0,0,0-.10792-.01122.77158.77158,0,0,0-.11228.004c-.01243.001-.01243.02093-.00227.02563.01845.00852.03523.01987.05425.02679.02068.00752.042.01314.063.0195a1.132,1.132,0,0,0,.12118.02868.47491.47491,0,0,0,.09216.01138l-.01207.02069a.25.25,0,0,1-.03933.063.18579.18579,0,0,1-.06629.03621c-.22621.08826-.45508.168-.68153.2557-.06493.02516-.13031.04941-.19389.07872-.01476.00681-.0292.0145-.04349.0226a.26566.26566,0,0,0-.1632-.12231c-.11374-.04276-.23219-.06429-.34651-.104-.015-.00523-.0235.0195-.00859.026.09767.0429.18935.10177.28749.1436a.837.837,0,0,1,.11412.05191.29225.29225,0,0,1,.05259.04291.64432.64432,0,0,1-.07733.04079c-.01366.00581-.00431.02754.009.02293a.70959.70959,0,0,1,.10412-.02461.02342.02342,0,0,0,.03495-.00672c.01731-.00354.03452-.00754.05144-.01267.0595-.018.11789-.04068.17619-.063q.18055-.06916.36062-.13985c.11764-.04593.23418-.09523.35175-.1414A.222.222,0,0,0,3.702,6.03875a.67058.67058,0,0,1,.07648-.135c.03437-.03439.0777-.05365.113-.08625a.20656.20656,0,0,0,.0697-.13063A.03091.03091,0,0,0,3.90137,5.67123Z" /><path d="M4.35071,5.88972c-.03986-.01643-.08323-.02193-.1242-.03462a.64775.64775,0,0,0-.12757-.03185.29835.29835,0,0,0-.23462.0672.01216.01216,0,0,0,.00836.02106.75866.75866,0,0,1,.24592-.00143c.07083.01585.16412.07457.23339.02695A.02737.02737,0,0,0,4.35071,5.88972Z" /><path d="M4.36138,6.0251a.4804.4804,0,0,0-.09408-.03669.70206.70206,0,0,0-.10949-.01476c-.03306-.0017-.06613-.00263-.09921-.001a.87337.87337,0,0,0-.10772.01589.01252.01252,0,0,0,.00061.02408c.0664.01019.13344.02347.19972.03554.03229.00588.06473.01067.097.01637A.9283.9283,0,0,0,4.352,6.0707.02412.02412,0,0,0,4.36138,6.0251Z" /><path d="M4.309,6.14445c-.01388-.02482-.03842-.02773-.06212-.03353A.721.721,0,0,0,4.166,6.09567a.41343.41343,0,0,0-.15672.00815c-.0094.00244-.01273.01894-.002.02264a1.46749,1.46749,0,0,0,.14654.04019c.02591.006.05185.0126.07753.01984.02373.00669.045.01688.06809.00322A.03184.03184,0,0,0,4.309,6.14445Z" /><path d="M2.0842,6.00421c-.01667-.10958-.10789-.15263-.18609-.19868a.3794.3794,0,0,1-.20185-.22908.60256.60256,0,0,1-.02586-.27763.48655.48655,0,0,1,.11241-.26769c.01024-.01045-.00333-.02931-.01364-.0188a.571.571,0,0,0-.15456.24675.59566.59566,0,0,0-.00919.30164.47765.47765,0,0,0,.16683.27238c.09021.06609.23807.05162.28787.17911A.01272.01272,0,0,0,2.0842,6.00421Z" /><path d="M2.54272,5.87986c-.02168-.01175-.037-.05339-.04705-.07642a.34873.34873,0,0,1-.0136-.04743.19223.19223,0,0,0,.06125-.03595.10228.10228,0,0,0,.00786-.11482.01689.01689,0,0,0-.03272.0059.16129.16129,0,0,1-.00711.04918c-.00891.01646-.03268.018-.04792.02388a.50935.50935,0,0,0-.10492.058c-.05615.03907-.12716.123-.19812.11327-.01357-.00187-.01565.02192-.00211.02378a.21906.21906,0,0,0,.12732-.01366A1.39245,1.39245,0,0,0,2.413,5.791l.00921-.00512a.19339.19339,0,0,0,.02933.06353.12169.12169,0,0,0,.04049.03593c.01409.00755.02915.00916.04338.01652C2.5477,5.90825,2.5547,5.88636,2.54272,5.87986Z" /><path d="M2.11678,5.044c-.018-.01452-.03548-.003-.04575.01593a.0989.0989,0,0,1-.06154.05253.469.469,0,0,0-.15637.06016.19036.19036,0,0,0-.0648.16172.23632.23632,0,0,0,.02345.09127.94.94,0,0,0,.05987.08942c.0079.01252.02579-.00036.02022-.014a.43627.43627,0,0,1-.03107-.169.11063.11063,0,0,1,.0687-.10438c.07311-.03262.18313-.04511.19989-.15244A.03559.03559,0,0,0,2.11678,5.044Z" /><path d="M2.33667,5.2091a.4282.4282,0,0,0-.04214-.16645.23747.23747,0,0,0-.1094-.09895.32145.32145,0,0,0-.14024-.02235.75809.75809,0,0,0-.17761.04889c-.00973.00278-.00734.02027.00245.01748a.50425.50425,0,0,1,.15243-.01184.273.273,0,0,1,.1276.03152.41409.41409,0,0,1,.15693.21167C2.31507,5.23688,2.33844,5.22956,2.33667,5.2091Z" /><path d="M2.51438,5.37583a.18277.18277,0,0,0-.0622-.04335.37085.37085,0,0,0-.0412-.01776.22688.22688,0,0,0,.023-.04044c.008-.01662-.00759-.036-.02235-.02351a.287.287,0,0,0-.02706.02657.086.086,0,0,0-.01345.01859c-.0096-.00358-.02219.00889-.013.01875l.00687.00771a.01622.01622,0,0,0,.00914.01086.24346.24346,0,0,0,.04885.05019.126.126,0,0,0,.07893.02939C2.51708,5.41193,2.52412,5.38783,2.51438,5.37583Z" /><path d="M2.23227,5.31942a.03389.03389,0,0,0-.01137-.02066.02443.02443,0,0,0-.02727-.00308A.26773.26773,0,0,0,2.1,5.42261c-.0062.01247.0093.02569.01646.01314a.29186.29186,0,0,1,.106-.08722A.03269.03269,0,0,0,2.23227,5.31942Z" /><path d="M2.07915,5.7027c-.04074-.01631-.08637.00041-.12855-.01482-.03249-.01173-.05785-.04922-.02359-.07867a.01237.01237,0,0,0-.00292-.01979c-.05776-.0213-.0734.07467-.0473.11511a.13145.13145,0,0,0,.08736.05189.14109.14109,0,0,0,.12085-.014A.02485.02485,0,0,0,2.07915,5.7027Z" /><path d="M2.28968,5.35522a.23239.23239,0,0,1-.0475.04806.30574.30574,0,0,0-.04544.04666.0211.0211,0,0,0,.02345.03233A.12375.12375,0,0,0,2.27325,5.436a.6932.6932,0,0,0,.034-.06671C2.31479,5.35621,2.29727,5.34207,2.28968,5.35522Z" /><path d="M3.25463,5.81967A.54.54,0,0,0,3.10851,5.72.521.521,0,0,0,2.931,5.665a.60326.60326,0,0,0-.33773.08522c-.01311.0065-.0041.02942.009.02293a.50729.50729,0,0,1,.32651-.02049,1.12216,1.12216,0,0,1,.15313.0478.8261.8261,0,0,0,.15681.05256A.02084.02084,0,0,0,3.25463,5.81967Z" /><path d="M4.01685,5.50558c-.12157.04947-.248.08826-.3718.13035a2.57411,2.57411,0,0,1-.381.097c-.01046.00184-.01056.021.00054.02139a1.45811,1.45811,0,0,0,.395-.04006,1.01667,1.01667,0,0,0,.18919-.06459,1.354,1.354,0,0,0,.18166-.10943C4.04873,5.5279,4.03761,5.49714,4.01685,5.50558Z" /><path d="M2.93034,5.9796c-.01893-.00639-.03834-.00981-.05724-.01653-.01464-.00521-.02311.02007-.00835.02532a.11652.11652,0,0,1,.04608.03284c.01294.01338.02553.03127.045.0258a.0243.0243,0,0,0,.0174-.027C2.972,5.99534,2.94852,5.98574,2.93034,5.9796Z" /><path d="M4.35436,7.498a.75449.75449,0,0,0-.11153-.00594.572.572,0,0,1-.112-.01769A.65808.65808,0,0,1,3.92293,7.372a1.30427,1.30427,0,0,1-.17-.14944,1.09111,1.09111,0,0,1-.15836-.18832c-.00852-.01418-.02674.00277-.01827.01686.0234.03894.04155.08187.06357.12185a.98446.98446,0,0,0,.0712.1089.821.821,0,0,0,.18131.18059.69.69,0,0,0,.22982.10812.32115.32115,0,0,0,.24138-.00751A.03566.03566,0,0,0,4.35436,7.498Z" /><path d="M8.35859,6.54995a2.19527,2.19527,0,0,1-.64405.333,1.6223,1.6223,0,0,1-.38444.01069q-.19286-.00847-.38492-.03164A5.53307,5.53307,0,0,1,6.1725,6.7096c-.12538-.03369-.25015-.0703-.37612-.10113a3.38006,3.38006,0,0,1-.391-.10451A4.02835,4.02835,0,0,0,4.977,6.38365a3.83337,3.83337,0,0,0-.3927-.08733c-.00184-.02679-.0045-.05349-.00815-.08a.477.477,0,0,0,.12262-.00789c.05475-.007.1097-.01159.16446-.01841.05454-.00679.10876-.01619.16326-.02331a1.225,1.225,0,0,0,.16917-.01947c.01511-.00418.02234-.03313.0034-.03833A.71983.71983,0,0,0,5.03683,6.096c-.05832-.00233-.11641-.00517-.17476-.00237-.05709.00274-.114.00992-.17076.01741a.391.391,0,0,0-.12855.03056q-.00569-.02537-.01306-.05027c-.0047-.01581-.02362-.00874-.02582.00466a1.52718,1.52718,0,0,0-.01712.21226.04249.04249,0,0,0-.00067.03712l-.00091.09307q-.00178.17638-.01682.35216c-.00982.1147-.02492.22859-.03969.34258-.00718.05539-.01218.11119-.02015.16644a1.10519,1.10519,0,0,0-.02588.17107c.00029.01482.01657.02476.02543.01073A.58738.58738,0,0,0,4.48064,7.327c.01354-.04965.0275-.09893.03827-.14939a.76965.76965,0,0,0,.12807.00851c.06208.00038.12409-.00045.18616-.0015.1243-.0021.24858-.00618.37286-.00972.12351-.00352.24736-.01049.37092-.00948a.93445.93445,0,0,1,.348.07512A2.18463,2.18463,0,0,0,6.611,7.4304a4.18758,4.18758,0,0,0,.68842-.094.76681.76681,0,0,1,.19036.00089c.06473.0091.12557.03406.18905.04954.094.02292.23447-.00216.25264-.13121a.03013.03013,0,0,0-.05442-.023c-.06089.09356-.16021.06191-.24413.03343a.78584.78584,0,0,0-.33113-.03539,4.96758,4.96758,0,0,1-.66381.09528,2.00875,2.00875,0,0,1-.66906-.18078,1.01488,1.01488,0,0,0-.33382-.08488c-.11885-.00573-.23877.00348-.35761.00715-.13658.00422-.27321.00724-.40976.01253-.06617.00256-.13235.00469-.19846.00868a1.059,1.059,0,0,0-.13611.01349c.0173-.09988.029-.20094.03769-.30223q.01543-.179.01709-.35906.00026-.02861-.00015-.05739c.10707.03594.2158.062.32521.0899.13155.03356.2628.07393.39545.10144.06656.0138.13418.0196.20022.03688.06486.017.12763.04026.19166.06034.129.04044.25863.07789.38852.11433a5.747,5.747,0,0,0,.77432.16728q.19769.027.39673.03839a1.68841,1.68841,0,0,0,.39588-.00711,1.3507,1.3507,0,0,0,.38577-.12807,1.95773,1.95773,0,0,0,.355-.23722C8.42939,6.59225,8.39537,6.52831,8.35859,6.54995Z" /><path d="M8.37025,6.67431c-.03266.04592-.05956.09463-.09619.1371a.83427.83427,0,0,1-.11485.11248.3743.3743,0,0,0-.181.24226c-.00215.01933.02326.03148.0326.01375.05384-.10219.15286-.14743.23341-.2167a.48927.48927,0,0,0,.16522-.27237A.02169.02169,0,0,0,8.37025,6.67431Z" /><path d="M8.09055,5.679c-.1159.0964-.22778.19912-.34266.2971-.05567.04749-.11065.09677-.16824.14129a.44823.44823,0,0,1-.18716.08045,3.13922,3.13922,0,0,1-.8616.0366c-.08071-.0048-.16152-.00785-.24225-.01228C6.24819,6.22,6.20759,6.21651,6.1671,6.2159c-.0429-.00064-.0857.00346-.12859.00273a.01463.01463,0,0,0-.00255.02881c.07652.01335.15154.03079.22859.04123.0721.00977.1442.01966.21641.02841a3.38616,3.38616,0,0,0,.447.02363,2.311,2.311,0,0,0,.44186-.04353.62758.62758,0,0,0,.201-.06681,1.35689,1.35689,0,0,0,.171-.1345,4.08337,4.08337,0,0,0,.39145-.358C8.16389,5.704,8.12586,5.64968,8.09055,5.679Z" /><path d="M7.65832,6.51212a.44044.44044,0,0,1-.134-.03793.39194.39194,0,0,0-.14379-.02676.7983.7983,0,0,0-.28574.0709,2.32128,2.32128,0,0,1-.28966.10518,1.34384,1.34384,0,0,1-.305.04189c-.056.00107-.112.00031-.168-.00105a1.34288,1.34288,0,0,1-.17871-.00922c-.01234-.002-.01715.02-.005.02422.04772.01649.09421.03734.14317.04913a.901.901,0,0,0,.15463.02264,1.20354,1.20354,0,0,0,.309-.02426,1.59143,1.59143,0,0,0,.29711-.094A1.07113,1.07113,0,0,1,7.34488,6.54a.36312.36312,0,0,1,.16712.02453.17287.17287,0,0,0,.15439.00448C7.68683,6.5553,7.68757,6.51377,7.65832,6.51212Z" /><path d="M8.08922,5.864c-.06193.12408-.14155.2364-.20982.356a.95034.95034,0,0,0-.08081.17621c-.00963.02968-.01578.06083-.02657.09a.4381.4381,0,0,0-.03243.07393.02955.02955,0,0,0,.02382.03284c.05656.00566.07971-.07821.09285-.12594a.88492.88492,0,0,1,.08129-.1934c.03329-.06048.0705-.11816.10059-.18083A1.58806,1.58806,0,0,0,8.112,5.8776C8.11676,5.86259,8.0967,5.849,8.08922,5.864Z" /><path d="M2.53111,5.48443c-.00167-.01365-.01568-.02751-.02846-.02334-.02305.00751-.03372.02827-.04853.04792l-.01723.02411a.12469.12469,0,0,1-.02258.03078c-.013.00835-.00475.03107.00956.02435.01081-.00508.02449-.00525.03592-.00968a.11481.11481,0,0,0,.03325-.02A.09064.09064,0,0,0,2.53111,5.48443Z" /><path d="M4.79628,5.14109c-.00034-.01444-.01889-.01757-.0204-.0023a2.65789,2.65789,0,0,1-.07219.29146c-.00526.02468.02241.04635.0373.02223A.55873.55873,0,0,0,4.79628,5.14109Z" /><path d="M4.44879,2.52757a.88693.88693,0,0,0-.17129-.08441.42471.42471,0,0,0-.16714-.03344.341.341,0,0,0-.16012.06344c-.05315.03269-.10729.06311-.16112.09432-.11153.06466-.21813.143-.32492.217a.76257.76257,0,0,0-.25981.2466c-.00523.0098.003.02409.01336.01842.09636-.05263.18533-.12428.27781-.18511.101-.06642.204-.13025.30247-.20137.04818-.0348.09434-.07314.14214-.10862a.25724.25724,0,0,1,.16341-.06826c.11388.00268.22005.06632.33336.0771A.02021.02021,0,0,0,4.44879,2.52757Z" /><path d="M4.57722,3.40438a1.45762,1.45762,0,0,1-.10364.22121.26116.26116,0,0,1-.08262.09567.09634.09634,0,0,1-.10532-.00238.51333.51333,0,0,1-.08233-.07917c-.0267-.02859-.05335-.0574-.07873-.0875a.83168.83168,0,0,1-.08087-.11091.084.084,0,0,0,.05233-.066.02321.02321,0,0,0-.03122-.02551.22623.22623,0,0,0-.049.03791A.47414.47414,0,0,1,3.99768,3.341c-.00411-.01255-.02311-.00649-.02016.00671.00412.01843.00913.03647.01487.05416a.05863.05863,0,0,0-.02492.02284l.0004.01283a.04242.04242,0,0,0,.04326.01461.77521.77521,0,0,0,.08472.14948c.0221.03093.04561.0607.06975.08971L4.16286,3.69c-.0574-.0194-.09372-.08481-.13279-.13206a.80156.80156,0,0,0-.17291-.14881,2.14442,2.14442,0,0,1-.18372-.13372c-.02011-.017-.04041-.03321-.061-.049l.03828-.03237A.77855.77855,0,0,0,3.734,3.11534c.01668-.01875.03259-.03832.048-.05837a.50014.50014,0,0,0-.00163.05642.76911.76911,0,0,0,.02576.13683.011.011,0,1,0,.02162-.00385.41507.41507,0,0,1,.00814-.12413.79638.79638,0,0,1,.026-.11124,1.71251,1.71251,0,0,1,.08329-.1867.652.652,0,0,1,.14985-.15864c.01124-.00784-.00041-.02735-.01189-.02182a.8074.8074,0,0,0-.278.24436c-.04022.05089-.07769.10451-.11869.15464-.023.02809-.046.05606-.06973.08342-.018.02076-.03842.04032-.05638.0618a.63624.63624,0,0,1-.07086-.05512c-.00792-.00753-.0178.00585-.012.01451.01212.0181.02062.03917.0326.05748.008.01223.01655.024.02516.03564a.02734.02734,0,0,0,.01164.01585l.00073.001a.52243.52243,0,0,0,.08176.08824,2.18342,2.18342,0,0,0,.19675.1448.88938.88938,0,0,1,.16965.15252.2076.2076,0,0,0,.16335.08913c.01423-.00063.01914-.01957.0138-.03209l.013.01549a.26771.26771,0,0,0,.10544.08466c.08526.0301.16269-.04365.21568-.11173a.46988.46988,0,0,0,.1049-.275C4.61225,3.39021,4.58613,3.38313,4.57722,3.40438Z" /><path d="M4.72614,4.23524c-.00573-.013-.02127-.00432-.01781.00889a.3497.3497,0,0,1-.07715.33522.196.196,0,0,1-.13681.04986A.15049.15049,0,0,1,4.3457,4.578c-.00631-.00973-.02227-.00219-.01958.00989a.14745.14745,0,0,0,.04237.08706.18021.18021,0,0,0,.0908.03978A.25844.25844,0,0,0,4.67051,4.666.36069.36069,0,0,0,4.72614,4.23524Z" /><path d="M4.20073,3.97951A.1866.1866,0,0,0,4.14,3.90418a.32161.32161,0,0,0-.08115-.03641.01344.01344,0,0,0-.0111.02368.5893.5893,0,0,1,.10133.12384A.03161.03161,0,0,0,4.20073,3.97951Z" /><path d="M5.25881,4.46632a1.03057,1.03057,0,0,1-.03907-.15386.48616.48616,0,0,0-.05964-.14009.8271.8271,0,0,0-.21982-.21126c-.08-.0597-.19074-.12394-.21355-.23741-.01249-.06213-.0222-.1251-.03323-.18758-.012-.06795-.0289-.13638-.03667-.20506-.00173-.01533-.02247-.0115-.02094.00373.0138.137.0011.27738.01635.4143.0135.12127.1217.19762.20446.25954a.92748.92748,0,0,1,.23262.21487.45832.45832,0,0,1,.05839.14575.24366.24366,0,0,0,.07371.13157C5.24073,4.51784,5.26972,4.491,5.25881,4.46632Z" /><path d="M5.23221,3.93039c-.06338-.14714-.136-.28727-.18932-.43993a1.73519,1.73519,0,0,0-.40912-.80586.48563.48563,0,0,0-.18594-.09831.539.539,0,0,0-.13321-.01736.29545.29545,0,0,0-.05975.00286c-.02312.0046-.04484.01353-.06832.01685-.01255.00177-.01192.02362.00063.02485.03536.00348.06855.016.10414.01888a.72025.72025,0,0,1,.116.01669.42955.42955,0,0,1,.16994.089.8468.8468,0,0,1,.21626.30845c.06567.14721.11016.3049.162.45854a3.67911,3.67911,0,0,0,.17979.42664c.03653.07547.07462.14975.10662.22789a2.413,2.413,0,0,1,.08253.242c.00824.02843.04272.0118.04144-.01378A1.34511,1.34511,0,0,0,5.23221,3.93039Z" /><path d="M5.03047,3.98032a.40535.40535,0,0,0-.11591-.20326.35925.35925,0,0,1-.0669-.11015,1.02963,1.02963,0,0,1-.03388-.16214,1.47383,1.47383,0,0,0-.09526-.326A.32755.32755,0,0,0,4.63433,3.049a.42218.42218,0,0,0-.11918-.06122c-.08134-.0317-.19144-.07864-.22274-.17843-.00769-.02452-.0399-.008-.03261.01628a.356.356,0,0,0,.14388.20068.64367.64367,0,0,0,.11161.058.236.236,0,0,1,.081.04977.30452.30452,0,0,1-.006.08012.58822.58822,0,0,1-.03249.09181.011.011,0,0,0,.01376.01461.139.139,0,0,0,.07664-.10057,1.18472,1.18472,0,0,1,.087.27229.62113.62113,0,0,0,.09154.28426c.05608.07123.13664.12394.1705.21476A.01755.01755,0,0,0,5.03047,3.98032Z" /><path d="M4.16443,2.92982a.86586.86586,0,0,1-.1721.20681.29307.29307,0,0,0-.085.10449.11932.11932,0,0,0,.00814.11446.02134.02134,0,0,0,.03787-.0071.29029.29029,0,0,1,.04889-.10177A1.11567,1.11567,0,0,0,4.084,3.16081a.74923.74923,0,0,0,.10142-.21848C4.19015,2.92843,4.17152,2.91637,4.16443,2.92982Z" /><path d="M4.35381,3.21678a.0185.0185,0,0,0-.01866-.008c-.0238.00457-.03077.03312-.04572.05078-.01437.017-.03366.04407-.05508.048-.01308.00239-.00987.02475.0032.02285.032-.00466.05864-.001.08542-.02571C4.34551,3.28384,4.3723,3.24994,4.35381,3.21678Z" /><path d="M4.328,3.10253c-.0569-.02156-.10949.04493-.14728.082-.00794.00778.00213.02177.01037.01429a.19039.19039,0,0,1,.07647-.03692.16673.16673,0,0,0,.06537-.02595A.02089.02089,0,0,0,4.328,3.10253Z" /><path d="M4.31112,3.53174a.27973.27973,0,0,0-.04446.02847l-.02167.013c-.006.00359-.01709.01429-.0239.01366-.01227-.00112-.0142.02034-.0019.02147.01209.00111.02258.01154.03547.01252a.086.086,0,0,0,.08478-.059C4.34409,3.54156,4.329,3.5246,4.31112,3.53174Z" /></svg>