<svg xmlns="http://www.w3.org/2000/svg" data-name="Layer 1" viewBox="1.5613960191416176 2.7374681010338136 6.869093856324645 4.523871898966187" x="0px" y="0px"><title>KAMASUTRA</title><path d="M2.39154,6.04922a.76692.76692,0,0,0-.17728.03433.80507.80507,0,0,0-.18267.068.41343.41343,0,0,1-.19868.03525.45352.45352,0,0,1-.2056-.07468.01068.01068,0,0,0-.01438.01542.31448.31448,0,0,0,.17249.11634A.399.399,0,0,0,1.99621,6.236a.85536.85536,0,0,0,.19273-.0831.56552.56552,0,0,1,.08233-.05334.78788.78788,0,0,1,.121-.02514A.01276.01276,0,0,0,2.39154,6.04922Z" /><path d="M5.45119,6.22265a.88092.88092,0,0,0-.40576-.01252,2.49116,2.49116,0,0,1-.44821-.02132c-.14656-.01693-.29292-.03565-.43936-.0536a3.42213,3.42213,0,0,1-.42355-.06449,1.32654,1.32654,0,0,0-.21937-.05091c-.0376-.00282-.075-.00623-.1127-.00923-.04088-.00325-.08152.00356-.12189.00079-.01276-.00088-.01478.01891-.002.01979a.41056.41056,0,0,1,.09241.0238c-.028.0099-.05561.02236-.08358.0321a.66783.66783,0,0,1-.25117.02337c-.08478-.00365-.16875-.01428-.25282-.02525-.04177-.00545-.08328-.01438-.12516-.01878a.95566.95566,0,0,1-.13718-.01785c-.01239-.00312-.01966.01431-.0071.01908.0422.016.08175.03715.12343.05424a.7508.7508,0,0,0,.11842.0332,1.54259,1.54259,0,0,0,.26455.03417.83874.83874,0,0,0,.24806-.01263.99364.99364,0,0,0,.10615-.03645c.03952-.015.08007-.02454.11863-.0418a1.20351,1.20351,0,0,0,.17725.05744,3.05073,3.05073,0,0,0,.41121.06955q.22013.02692.44027.05382a3.33009,3.33009,0,0,0,.436.032,2.24387,2.24387,0,0,0,.23149-.01664,1.23248,1.23248,0,0,1,.24927-.01716A.02845.02845,0,0,0,5.45119,6.22265Z" /><path d="M5.03079,5.71741c-.03265-.00566-.065-.01744-.09773-.02407s-.06581-.0113-.09873-.01727c-.06266-.01136-.12428-.02752-.186-.04288a2.066,2.066,0,0,0-.38641-.06068c-.055-.00305-.11009-.00458-.16519-.00533l-.002-.00376a.704.704,0,0,1-.08654-.18778c-.01563-.06685-.015-.136-.02721-.20325A.45147.45147,0,0,0,3.7683,4.8476c-.116-.0657-.24349-.10689-.35771-.17674a1.33545,1.33545,0,0,1-.156-.11282C3.22,4.52929,3.1892,4.495,3.15588,4.46445c.00766-.03723.01537-.07446.0225-.11179.01317-.069.01659-.13928.03-.20808.00288-.01477-.0206-.01984-.02544-.0059-.02315.06674-.05288.13-.07095.19858-.01669.06339-.02947.12784-.04231.19211-.0272.13618-.04863.27337-.07132.41034-.02191.13225-.04218.26483-.066.39676q-.0185.10264-.04134.20441-.01118.05022-.02418.1l-.0106.03929-.04385.01045q-.05019.012-.10007.02528a2.36849,2.36849,0,0,0,.03894-.4475c.00331-.17133.03169-.339.04414-.50943a2.02448,2.02448,0,0,1,.02212-.25024c.01712-.08572.04716-.16841.06375-.25459.0162-.08417.03067-.16868.05006-.25221A.23656.23656,0,0,1,3.05157,3.823a.01235.01235,0,0,0-.00374-.02338c-.11949-.02128-.17182.11439-.196.20615a1.85827,1.85827,0,0,0-.073.41746,3.33281,3.33281,0,0,1-.07715.42367,3.1897,3.1897,0,0,0-.03453.42988c-.00164.07969-.00059.15944-.00276.23908-.002.07306-.01121.14509-.01723.21768l-.067.01912a.85488.85488,0,0,1-.23472.05245,1.23683,1.23683,0,0,0-.22013-.01618.92481.92481,0,0,0-.18722.07512c-.06524.027-.13458.04111-.20035.06621a1.06142,1.06142,0,0,0-.10292.043.23058.23058,0,0,0-.07166.05735.01027.01027,0,0,0,.0099.01593c.06575-.01752.13207-.03524.1995-.04742A.95519.95519,0,0,0,1.973,5.943a.52127.52127,0,0,1,.19814-.07475,2.12766,2.12766,0,0,0,.21565.01888,1.13157,1.13157,0,0,0,.21689-.05458q.11769-.0351.23725-.0636c.07809-.01875.15682-.03409.23448-.05454a.82737.82737,0,0,0,.10145-.02462.38966.38966,0,0,1,.069-.02671c.02081-.00445.04226-.007.06328-.01027a.01225.01225,0,0,0-.00382-.02419c-.0212.00234-.04248.00569-.06374.00736a.48172.48172,0,0,1-.074-.00468.69724.69724,0,0,0-.11946.01263c-.03673.0042-.07317.01055-.10943.01795.00843-.03056.01388-.06241.02057-.08873.01661-.06532.03046-.1313.04309-.1975.02561-.13426.04471-.26943.06448-.40463.02008-.13734.04393-.27407.06983-.41043l.00319-.01624a.53231.53231,0,0,0,.04.057.66468.66468,0,0,0,.14176.12778,1.29627,1.29627,0,0,0,.11664.07183.44992.44992,0,0,0,.00317.08141c.00369.04483.00847.08906.00818.13412a1.38368,1.38368,0,0,1-.0087.24229c-.01473.0795-.09938.05859-.159.079a.69089.69089,0,0,1-.18628.0657c-.024.00122-.0246.03679-.00444.04437.07527.02827.13642-.0228.20235-.053.07159-.03278.16234.00346.21178-.07156a.46188.46188,0,0,0,.03391-.26965,1.51931,1.51931,0,0,0-.02467-.15022c-.00405-.02206-.0077-.04617-.01364-.06941.03765.01907.0758.0372.114.05525.001.017.00378.03419.004.04948a.85984.85984,0,0,1-.00776.12747.41607.41607,0,0,0,.02332.24584.00938.00938,0,0,0,.01714-.00052.673.673,0,0,0,.01233-.12281c.00555-.04674.02152-.0899.02962-.13586a.59592.59592,0,0,0,.00683-.11871l-.00006-.0035a.30641.30641,0,0,1,.12254.10987.78624.78624,0,0,1,.067.18635c.01957.066.0355.13411.04939.20149a.37705.37705,0,0,0,.05337.13817c-.0451,0-.09019.0003-.13525.00052-.06339.00031-.12642.00235-.18959.00716-.0699.00531-.14.01674-.20967.02031-.01264.00065-.0118.02119.00063.022.07016.00456.14057.017.21092.02332.06527.00588.13033.00844.19588.00964.13455.00246.26943.00108.40376.01007a2.256,2.256,0,0,1,.3938.06722c.05886.01457.1179.029.17773.039a.416.416,0,0,0,.19093-.01455A.01715.01715,0,0,0,5.03079,5.71741Z" /><path d="M6.56721,5.98028a.49477.49477,0,0,0-.09534-.02551C6.44,5.94655,6.40814,5.93856,6.376,5.9312a1.18686,1.18686,0,0,1-.18443-.05652,2.37263,2.37263,0,0,1-.33336-.19515.58873.58873,0,0,0-.33375-.10638.57545.57545,0,0,0-.18577.0467c-.03159.01283-.06258.02676-.09494.03762a.50884.50884,0,0,1-.10637.03279c-.01348.00126-.00992.02138.00325.02056.03548-.0022.06753.00333.10305-.00221.03367-.00525.06722-.01193.10078-.01782a1.1031,1.1031,0,0,1,.18984-.02641.61842.61842,0,0,1,.33316.13206,1.59511,1.59511,0,0,0,.33231.18225.90517.90517,0,0,0,.18136.04786.38717.38717,0,0,0,.18712-.01085A.01939.01939,0,0,0,6.56721,5.98028Z" /><path d="M7.45215,4.68245c-.082-.0649-.18191.049-.26727.05207a.59674.59674,0,0,0-.08653.00132c-.02617.00479-.05225.01376-.078.02055a.564.564,0,0,0-.13479.05828c-.0149.00838-.02955.0173-.044.02658a.76289.76289,0,0,1-.23039.03376,2.33925,2.33925,0,0,1-.2781-.01747.63872.63872,0,0,0-.28248.01743c-.04945.01607-.09824.03447-.14688.05282-.05219.0197-.09881.04979-.15042.07059-.0103.00415-.00552.02146.00558.01892.054-.01235.1092-.01426.163-.02784.05295-.01337.10547-.02822.15831-.042a.48583.48583,0,0,1,.1533-.019c.0496.00278.09894.00969.14836.01455a1.18,1.18,0,0,0,.27337.00392c.0188-.00255.03747-.00584.056-.00968-.03243.02649-.06411.05377-.09535.08068a1.59118,1.59118,0,0,0-.24576.25228c-.0512.00147-.10249.00279-.15367.00329a.38872.38872,0,0,1-.07351-.00533l-.02311-.00307L6.102,5.25279c-.07832-.05343-.16237-.099-.238-.1563-.0106-.008-.02068.00611-.01469.01575a.70787.70787,0,0,0,.19133.18379c.08312.06134.16744.121.25159.18093.0819.05832.16155.11959.24371.17757.04122.02909.08456.05432.12655.08216.04393.02912.08545.0642.132.089l.002.00088c-.00491.01132-.00992.02229-.01543.03238a.31684.31684,0,0,1-.12546.12692.428.428,0,0,0-.12928.10571,1.31251,1.31251,0,0,1-.12.14166c-.0456.04311-.09649.07946-.14369.12067-.03184.0278-.06182.05731-.09075.08789a.061.061,0,0,0-.02017-.00718C5.94245,6.398,5.78342,6.2,5.55731,6.24147c-.01691.0031-.01753.03047.00089.03111a.575.575,0,0,1,.29447.14114.69056.69056,0,0,0,.23734.12,2.1705,2.1705,0,0,0-.20994.27692.442.442,0,0,0-.06262.40272.03538.03538,0,0,0,.067-.01976.41494.41494,0,0,1,.00283-.18888.59983.59983,0,0,1,.08256-.1754A2.806,2.806,0,0,1,6.205,6.53053c.08444-.09574.18321-.17615.27206-.26737.03965-.04071.07253-.08587.10848-.12964a.48314.48314,0,0,1,.142-.1025.29869.29869,0,0,0,.11817-.1307.28954.28954,0,0,0,.03784-.16808.01726.01726,0,0,0-.02767-.01055.16194.16194,0,0,0-.03151.04316c-.0351-.03031-.07589-.05517-.11312-.08262-.04052-.02987-.07857-.0627-.11965-.0919-.082-.05826-.1665-.11263-.24885-.17031L6.246,5.35241c.02024.00206.04057.00337.06081.00429.10936.005.2186-.00568.32791-.00665a.712.712,0,0,1,.30741.04876,2.9996,2.9996,0,0,1,.25294.1866c.02406.01413.05961-.00809.04537-.03712a.53506.53506,0,0,0-.21689-.212.57572.57572,0,0,0-.154-.05948c.0259-.02551.04967-.05478.07259-.08062.03685-.04153.06824-.08617.10182-.13018a.42488.42488,0,0,1,.122-.09838c.02236-.01394.04549-.02727.06644-.04327.02534-.01936.04484-.04438.07134-.06218.01-.00674-.00035-.023-.011-.018-.02914.0137-.06132.01783-.09127.02976a.84.84,0,0,0-.07773.03807.47025.47025,0,0,0-.12691.09011c-.03692.03887-.07154.0799-.10723.11989a1.47809,1.47809,0,0,0-.12165.13449l-.00217.00381q-.024-.00215-.0483-.003c-.09154-.00321-.18289.00537-.27428.01012a3.75843,3.75843,0,0,0,.45072-.37525.34385.34385,0,0,1,.12764-.07124.554.554,0,0,1,.15166.00826.22343.22343,0,0,0,.13306-.04939.2608.2608,0,0,1,.13766-.062A.01981.01981,0,0,0,7.45215,4.68245Z" /><path d="M6.31,7.0729a.29254.29254,0,0,1-.09087.04693c-.031.01353-.06256.02617-.09466.03674-.03463.0114-.07.01653-.10518.02538-.03031.00762-.05519.0279-.08448.03556a.01115.01115,0,0,0,.00063.022.305.305,0,0,0,.10394.02183A.5673.5673,0,0,0,6.15872,7.234a.42789.42789,0,0,0,.10212-.04628A.38179.38179,0,0,0,6.342,7.10282C6.35817,7.08411,6.32777,7.05538,6.31,7.0729Z" /><path d="M8.4075,6.08947a.01876.01876,0,0,0-.03553.01048.45626.45626,0,0,1-.34359.49766.63159.63159,0,0,1-.34405-.0148.397.397,0,0,1-.15077-.08865c-.00807-.00759-.024-.028-.04164-.044.02207-.01136.04355-.0241.06478-.03694a.72961.72961,0,0,1,.188-.08484,1.67557,1.67557,0,0,0,.36426-.10273.5685.5685,0,0,0,.14577-.11983.4771.4771,0,0,0,.11288-.1589.02811.02811,0,0,0-.04377-.03129.91.91,0,0,0-.111.129.46089.46089,0,0,1-.144.107,1.7579,1.7579,0,0,1-.32389.09092.73012.73012,0,0,0-.158.058c-.05218.02759-.09982.06332-.1538.08759A.17581.17581,0,0,1,7.259,6.38687a.39788.39788,0,0,1-.05869-.05162c-.018-.0175-.04331-.03127-.05951-.04992a.01092.01092,0,0,0-.01835.01128.52115.52115,0,0,1,.015.05032.40892.40892,0,0,0-.05128.08195.56341.56341,0,0,1-.0621.08269,1.08952,1.08952,0,0,1-.16726.14372c-.06629.04861-.1339.0954-.19911.14551-.035.02691-.06848.05542-.10129.085a1.33939,1.33939,0,0,1-.10327.0956c-.00923.00669.00191.02.01114.01362.04155-.02862.09062-.04661.13474-.071.03891-.0215.07691-.04412.1141-.06849.07395-.04845.14717-.09851.21786-.15162a1.08269,1.08269,0,0,0,.16538-.149.42875.42875,0,0,0,.08779-.13412l.02131.02037a.21583.21583,0,0,0,.16521.0487.28119.28119,0,0,0,.05479-.01171.25536.25536,0,0,0,.07433.10783.46435.46435,0,0,0,.17676.09626.67615.67615,0,0,0,.4116.0016A.46656.46656,0,0,0,8.4075,6.08947Z" /><path d="M6.99635,6.21352c-.0252.00756-.05634-.00742-.08276-.007a.169.169,0,0,0-.05623.00891.25081.25081,0,0,0-.09332.07514.8535.8535,0,0,0-.132.2027c-.03535.07153-.06453.146-.09982.21754a.85582.85582,0,0,1-.13674.2217c-.009.00911.00253.02426.01289.01575a.69855.69855,0,0,0,.15692-.16376c.04233-.06635.078-.13666.11432-.20638s.07432-.13749.11612-.204c.02192-.03489.04843-.08152.08916-.09654.02089-.00771.04426-.00337.065-.01113A.40634.40634,0,0,0,7.007,6.2376.01318.01318,0,0,0,6.99635,6.21352Z" /><path d="M8.18992,5.90445a.96617.96617,0,0,1-.25376.01325c-.07286-.00233-.14573-.00066-.21862-.001a.2741.2741,0,0,0,.00935-.04789c.00754-.06109.00678-.12268.01567-.18386.00156-.01072-.01589-.01514-.01878-.00435a1.41261,1.41261,0,0,1-.04424.13662.526.526,0,0,1-.03622.0985q-.08584-.00189-.17159-.00628a.507.507,0,0,1-.11346-.0185.63019.63019,0,0,0-.08357-.02467.18827.18827,0,0,0-.021-.11282.02808.02808,0,0,0-.04769.00793.24208.24208,0,0,0,.00372.10993.93211.93211,0,0,1,.00043.14122.2615.2615,0,0,1-.0965.21447c-.0093.00493-.006.02187.00558.01892a.1938.1938,0,0,0,.14793-.17645.7661.7661,0,0,0,.008-.13637.44693.44693,0,0,0,.15661.0568,1.08649,1.08649,0,0,0,.24549.02134,1.51071,1.51071,0,0,0,.26132-.00871c.04616-.00736.09122-.0197.1365-.031.04269-.01063.08072-.02777.12247-.04117C8.21218,5.92568,8.20489,5.90081,8.18992,5.90445Z" /><path d="M6.97941,5.73666A.01139.01139,0,0,0,6.96,5.73988a2.10222,2.10222,0,0,1-.077.2768c-.0135.02923.02849.04636.04686.02476a.2942.2942,0,0,0,.07629-.15371A.21389.21389,0,0,0,6.97941,5.73666Z" /><path d="M7.09173,5.73983a.01093.01093,0,0,0-.01483.00254c-.023.03134-.016.09-.01817.12738-.003.05176-.017.10238-.01633.15417A.03.03,0,0,0,7.0962,6.044.26716.26716,0,0,0,7.14,5.87787C7.14014,5.83676,7.13226,5.76175,7.09173,5.73983Z" /><path d="M7.74412,5.46123c-.05505-.012-.09262.02159-.13324.05355a.35624.35624,0,0,1-.1573.07072c-.06135.013-.12419.01974-.185.03494a1.03356,1.03356,0,0,1-.19938.03284c-.013.00066-.01141.02046.00063.022.06432.00823.12869.01631.19331.022a.63234.63234,0,0,0,.18921-.01915.49677.49677,0,0,0,.15513-.05324.19123.19123,0,0,0,.05609-.05186c.02254-.03046.04065-.06462.08166-.07252A.01992.01992,0,0,0,7.74412,5.46123Z" /><path d="M8.2797,5.76035c.009-.01043-.00543-.02832-.01748-.02136-.01369.0079-.02956.0158-.04527.02458C8.20634,5.747,8.1938,5.731,8.1854,5.7146c-.01772-.03462-.02434-.07467-.04427-.10778a.08.08,0,0,0-.06841-.04415c-.04032,0-.0515.029-.07706.05327a.00811.00811,0,0,0,.01027.01255A.12223.12223,0,0,1,8.06759,5.614c.024.0055.02482.02992.02949.04748a.44234.44234,0,0,0,.0233.06669.338.338,0,0,0,.04239.07506.08944.08944,0,0,0-.02029.03417.028.028,0,0,0,.0371.03492.13037.13037,0,0,0,.05188-.04469l.00111-.00147C8.249,5.80417,8.26322,5.77937,8.2797,5.76035Z" /><path d="M8.32941,6.21781a.06649.06649,0,0,0-.08161-.03966c-.0418.00894-.06215.03946-.08787.07a.35727.35727,0,0,1-.2389.09044c-.01343.001-.01143.02052.00064.02246a.41239.41239,0,0,0,.23115.002.21483.21483,0,0,0,.0838-.06063c.00991-.01149.0172-.02577.0315-.03224.01578-.00713.03222-.01032.04813-.01831A.02635.02635,0,0,0,8.32941,6.21781Z" /><path d="M7.23815,4.55565c-.01074-.00538-.02284-.00548-.034-.00981a.17484.17484,0,0,0-.04041-.01408.09838.09838,0,0,0-.06232.01251c-.01029.00642-.00086.02027.00876.01955.01491-.00112.02272.0243.02973.03348a.10914.10914,0,0,0,.03108.02786A.06362.06362,0,0,0,7.25648,4.615C7.275,4.59431,7.25808,4.56563,7.23815,4.55565Z" /><path d="M7.33643,4.51692a.14918.14918,0,0,0-.04171-.01572c-.014-.00236-.02817.00072-.04225-.00081a.01022.01022,0,0,0-.00456.01966c.014.00483.02293.02891.033.03921a.217.217,0,0,0,.03286.02748c.02094.01418.05972.02941.07265-.0034C7.39929,4.55082,7.35973,4.52878,7.33643,4.51692Z" /><path d="M8.00444,4.42287c-.03814-.01908-.08582.0033-.1239.01509-.052.01609-.103.03548-.156.04829a.5188.5188,0,0,1-.152.012.65719.65719,0,0,0-.06759-.00361.353.353,0,0,1-.08566.00107.00585.00585,0,0,0-.00394.01052.32566.32566,0,0,0,.12757.0661.46621.46621,0,0,0,.16366-.00862A1.27981,1.27981,0,0,0,7.859,4.5185c.02791-.00944.05583-.019.08431-.02666a.12743.12743,0,0,0,.06776-.02915A.02371.02371,0,0,0,8.00444,4.42287Z" /><path d="M7.90486,4.5188c-.04377.03029-.088.05929-.13439.0855a.47834.47834,0,0,0-.12466.09138c-.03865.04282-.063.09589-.09991.14-.03737.04465-.10861.0972-.17.07425-.00924-.00346-.01757.01074-.00837.01583.12539.06932.21881-.04049.29031-.13265a.49072.49072,0,0,1,.15207-.12975.26453.26453,0,0,0,.1311-.11865C7.95053,4.52205,7.92238,4.50668,7.90486,4.5188Z" /><path d="M3.74053,5.396c-.012.01785-.0681.00044-.08654-.0011a.89729.89729,0,0,0-.10009-.00416.5361.5361,0,0,0-.1032.01139c-.03073.007-.05793.02253-.08787.0316-.01309.004-.00433.02338.00861.01946a.40082.40082,0,0,1,.14716.00285c.04265.0049.085.01127.12794.0135.04474.00233.12389,0,.12575-.06167A.01767.01767,0,0,0,3.74053,5.396Z" /><path d="M3.47358,2.90168a.32356.32356,0,0,0-.339-.15908A.50688.50688,0,0,0,2.799,2.985a.97332.97332,0,0,0-.11447.48425,1.51659,1.51659,0,0,1-.03459.27883.76073.76073,0,0,0-.02175.26171c.00617.04926.02265.09894.02442.14816a1.21729,1.21729,0,0,1-.00754.1392,1.889,1.889,0,0,1-.04887.29108c-.00587.02459.02737.049.04323.02284a.67506.67506,0,0,0,.04514-.42451,1.00163,1.00163,0,0,1,.029-.24434c.01342-.08064.0316-.15964.04853-.23957.03393-.16019.01249-.3255.04507-.48605a.51849.51849,0,0,1,.2227-.35108.34054.34054,0,0,1,.41845.05172C3.45906,2.92911,3.4819,2.9174,3.47358,2.90168Z" /><path d="M3.24237,3.40144c-.0205-.03386-.068-.03691-.09968-.059a.162.162,0,0,1-.04615-.04394.033.033,0,0,1,.04166-.04665c.0147.00445.0288-.01713.01348-.0255A.08086.08086,0,0,0,3.054,3.22563a.08243.08243,0,0,0-.019.0994.22161.22161,0,0,0,.08476.08639c.032.01933.08148.04575.1155.01962A.0252.0252,0,0,0,3.24237,3.40144Z" /><path d="M3.31245,3.66971a.37146.37146,0,0,0-.05791-.13229c-.0326-.04432-.07747-.05655-.12005-.08693-.01286-.00917-.02521.00957-.01389.01962a.32838.32838,0,0,1,.05563.10065.603.603,0,0,1,.04124.09352.1954.1954,0,0,1-.05649.19249c-.00863.00989.00263.0257.01459.02349a.19611.19611,0,0,0,.10051-.07174A.13845.13845,0,0,0,3.31245,3.66971Z" /><path d="M3.34605,2.99307a.153.153,0,0,0-.05174.01053.12253.12253,0,0,0,.01391-.02954c.01053-.03389.00024-.08774-.03659-.10062a.01871.01871,0,0,0-.02343.01073c-.01888.04027-.02614.07757-.06712.10354-.04011.02542-.08546.04037-.12422.0685a.36023.36023,0,0,0-.14112.22591.33413.33413,0,0,0,.06676.24152c.04564.06805.13257.14084.13144.2288a.01432.01432,0,0,0,.02848.00285.35507.35507,0,0,0-.0571-.23295.31408.31408,0,0,1-.07412-.255.257.257,0,0,1,.075-.11722.6502.6502,0,0,1,.12544-.07528L3.221,3.06941l-.0095.02029c-.00607.01549.01558.03365.02825.02019a.53815.53815,0,0,1,.11368-.09178A.01323.01323,0,0,0,3.34605,2.99307Z" /><path d="M2.90211,3.65591a.67336.67336,0,0,0-.04561-.1594c-.00312-.00881-.0168-.00434-.01543.00455a.44712.44712,0,0,1-.01862.17589,1.44648,1.44648,0,0,1-.051.164.86069.86069,0,0,0-.03809.33141.01534.01534,0,0,0,.02932.00293c.0174-.05651.02474-.11536.03746-.173a.38433.38433,0,0,1,.03247-.10309c.014-.02575.02991-.05019.04141-.07724A.35631.35631,0,0,0,2.90211,3.65591Z" /><path d="M3.65257,3.412a.01584.01584,0,0,0-.022-.01591c-.03343.018-.05829.0464-.09276.0633a.39466.39466,0,0,1-.13118.038c-.01485.00134-.01114.02416.00361.02283A1.03674,1.03674,0,0,0,3.539,3.51073a.30549.30549,0,0,0-.00392.06117.22149.22149,0,0,0,.01429.07536.514.514,0,0,0,.04532.07047.01088.01088,0,0,0,.01988-.0088A.195.195,0,0,1,3.607,3.65149c-.00227-.0239-.00477-.04783-.00618-.0718a.40111.40111,0,0,1-.0005-.0653.24892.24892,0,0,0,.00307-.0292A.09166.09166,0,0,0,3.65257,3.412Z" /><path d="M7.08321,4.56334c-.082-.02312-.16735-.03253-.25033-.05135-.08611-.01953-.1748-.02965-.26221-.04187-.17233-.0241-.34417-.04993-.51748-.06515a.91766.91766,0,0,0-.11527-.00845.91309.91309,0,0,0-.13179.019q-.12425.02322-.24668.05506a4.315,4.315,0,0,0-.47819.15449c-.08381.03244-.16472.072-.24856.10411a.40251.40251,0,0,1-.14045.03119A.95965.95965,0,0,0,4.56083,4.668,1.02454,1.02454,0,0,1,4.331,4.49662a1.16127,1.16127,0,0,1-.08687-.0996c-.01311-.01729-.02583-.04185-.04039-.06358l.00014-.00029a.35512.35512,0,0,0-.02781-.28683.37426.37426,0,0,0-.1947-.17976c-.02416-.01064-.04885-.01988-.07356-.02906l-.00252-.011A.92236.92236,0,0,0,3.86495,3.677c-.03343-.05667-.0935-.0494-.14948-.0636-.0134-.0034-.0257.01428-.0122.02308.02449.016.04486.03687.06954.05277a.06445.06445,0,0,1,.03639.04867c.00432.02144.00531.04476.00954.0668a.24973.24973,0,0,1-.088-.04364c-.01174-.011-.029.0085-.019.02041a.44121.44121,0,0,0,.06133.07117.36607.36607,0,0,0,.08636.04674.56937.56937,0,0,1,.18881.09832.34687.34687,0,0,1,.09048.21462.14072.14072,0,0,1-.12109.16032.02189.02189,0,0,0-.00914.03909.12109.12109,0,0,0,.15917-.02461l.00943.02044a.75126.75126,0,0,0,.06364.11164.72335.72335,0,0,0,.21326.1944,1.10614,1.10614,0,0,1,.24216.18254,1.04818,1.04818,0,0,1,.08886.11361c.02206.03229.041.06746.06332.09976l-.04185.00764c-.05124.00938-.1029.01757-.15453.02445a1.25059,1.25059,0,0,1-.172,0,.01207.01207,0,0,0-.00538.02322.58431.58431,0,0,0,.28737.02265c.10927-.01136.21805-.02859.32707-.04225.108-.01354.21657-.02361.3254-.02783q.08464-.00329.16938-.001a.6519.6519,0,0,0,.16217-.00616.02416.02416,0,0,0,.00461-.04614.75487.75487,0,0,0-.30739-.02374c-.10878.00347-.21727.01288-.32527.02614-.05908.00725-.11776.01648-.17632.02652L4.941,5.091a.78123.78123,0,0,0-.15663-.24059l-.0126-.01381a.497.497,0,0,0,.15274-.04338c.16293-.06678.327-.12954.4955-.18095a3.87755,3.87755,0,0,1,.51126-.11636c.04151-.00674.08168-.02163.12375-.02523a.53015.53015,0,0,1,.14285.014c.08891.01707.1771.03781.266.05516.103.0201.2068.03944.31121.05043a2.06648,2.06648,0,0,0,.304.01478A.02181.02181,0,0,0,7.08321,4.56334Z" /><path d="M3.853,4.41126a.52243.52243,0,0,1-.11316.08175.22447.22447,0,0,1-.15014.012.31529.31529,0,0,1-.13035-.05878.26593.26593,0,0,1-.082-.15344.01363.01363,0,0,0-.02692.00425.39366.39366,0,0,0,.05375.19916.31692.31692,0,0,0,.16415.10269.23489.23489,0,0,0,.19991-.0133.34363.34363,0,0,0,.12314-.14691C3.90132,4.4157,3.87128,4.39689,3.853,4.41126Z" /><path d="M3.43267,3.08851a.06933.06933,0,0,0-.05725.00543.08766.08766,0,0,0-.02329.01468c-.00746.00682-.01044.01672-.01729.02327a.00926.00926,0,0,0,.01172.01433.06216.06216,0,0,1,.01863-.00593l.02393-.00842a.23273.23273,0,0,0,.04439-.01558A.01522.01522,0,0,0,3.43267,3.08851Z" /><path d="M3.62839,3.15129a.07438.07438,0,0,0-.03415-.04008c-.01869-.01067-.04825-.013-.06252-.03017a.00926.00926,0,0,0-.01433.01172.25389.25389,0,0,0,.05874.05023.03873.03873,0,0,1,.01832.03634c-.00084.00906-.00813.02939-.01766.03359-.02173.00957-.0027.04273.01724.028.01574-.01158.0269-.01737.03385-.03724A.08034.08034,0,0,0,3.62839,3.15129Z" /><path d="M3.62518,3.25259a.0546.0546,0,0,0-.02314.0125l-.01927.01842-.01731.01655c-.00569.006-.00807.015-.01409.02033a.00815.00815,0,0,0,.00842.01369c.00756-.003.01612-.00139.02388-.0044A.14075.14075,0,0,0,3.609,3.31562l.02187-.01524a.05535.05535,0,0,0,.01749-.02594A.01752.01752,0,0,0,3.62518,3.25259Z" /><path d="M3.58385,3.01906a.04623.04623,0,0,0-.02756.00973l-.00945.00943-.0071.01127a.011.011,0,0,0,.01057.017c.00408-.00054.00816,0,.01221-.00064l.014-.00421a.04693.04693,0,0,0,.0215-.01982A.01474.01474,0,0,0,3.58385,3.01906Z" /><path d="M4.3134,4.78934c-.06445-.06582-.15408-.09819-.2121-.17283-.0083-.01068-.02732.00037-.02068.01271.04527.08412.108.18662.212.19876A.024.024,0,0,0,4.3134,4.78934Z" /><path d="M3.834,4.21978a.2283.2283,0,0,0-.07668-.1236.161.161,0,0,0-.06967-.0291.36221.36221,0,0,0-.07509.00972c-.0113.00055-.01061.01909.00056.01972a.15237.15237,0,0,1,.05018.02381c.01881.00976.03783.01868.05626.02917a.24337.24337,0,0,1,.09326.07976A.0121.0121,0,0,0,3.834,4.21978Z" /></svg>