<svg xmlns="http://www.w3.org/2000/svg" data-name="Layer 1" viewBox="1.5339550498904917 2.5965978992823313 6.931380575233299 4.806852652903464" x="0px" y="0px"><title>KAMASUTRA</title><path d="M3.4039,2.828A.82276.82276,0,0,0,3.276,2.67445.33364.33364,0,0,0,3.104,2.60084a.27566.27566,0,0,0-.09515-.00021.354.354,0,0,1-.10423.00621.36477.36477,0,0,0-.18028.025.3592.3592,0,0,0-.20035.282.6725.6725,0,0,0,.09659.3884A.00628.00628,0,0,0,2.632,3.29715c-.069-.1894-.099-.4988.13188-.5927a.70284.70284,0,0,1,.156-.04365.48564.48564,0,0,1,.17.025.60988.60988,0,0,1,.2833.16735A.01984.01984,0,0,0,3.4039,2.828Z" /><path d="M2.77488,3.45953a.1961.1961,0,0,0-.0831-.07657.00973.00973,0,0,0-.01123.01587.21285.21285,0,0,1,.04892.16175.27145.27145,0,0,1-.009.07331A.16054.16054,0,0,1,2.676,3.695a.02872.02872,0,0,0,.01512.05011c.09247.00717.10126-.10475.101-.17136A.27282.27282,0,0,0,2.77488,3.45953Z" /><path d="M2.475,3.97073a1.25734,1.25734,0,0,1,.16851-.19718c.00685-.00771-.00384-.01922-.01243-.01519a.49751.49751,0,0,0-.30195.4071.57824.57824,0,0,0,.03533.25032.63158.63158,0,0,0,.05844.1188.92943.92943,0,0,1,.0873.13614.016.016,0,0,0,.03029-.00893,1.403,1.403,0,0,0-.08566-.22927.67179.67179,0,0,1-.039-.23917A.47521.47521,0,0,1,2.475,3.97073Z" /><path d="M3.64262,5.71865a.76508.76508,0,0,0-.11826-.12589c-.04743-.03627-.0986-.0677-.14858-.1003a2.79072,2.79072,0,0,1-.27451-.19951,3.22257,3.22257,0,0,1-.24154-.23038,2.44479,2.44479,0,0,1-.22916-.25031c-.0071-.00974-.02444.00054-.01835.01128a2.41124,2.41124,0,0,0,.17145.283,1.52307,1.52307,0,0,0,.17161.18552c-.02555.01192-.05035.02773-.07123.03734a.3188.3188,0,0,0-.13464.08162.01129.01129,0,0,0,.00519.01681.23136.23136,0,0,0,.15958-.01168.368.368,0,0,0,.1224-.05194,2.57814,2.57814,0,0,0,.26473.19462c.05015.03258.1.06552.15008.09824.05249.03433.11055.05849.16286.092C3.63364,5.76146,3.65837,5.73741,3.64262,5.71865Z" /><path d="M3.822,5.50128c-.13881-.02359-.24233-.16426-.3238-.26712-.02682-.03387-.054-.06767-.08317-.09957l.02706-.00616A.28824.28824,0,0,0,3.54452,5.075l.00673.01256a1.101,1.101,0,0,1,.06489.13341c.0172.04733.02738.09652.0472.14282.00846.01977.03462.009.03379-.01a.63182.63182,0,0,0-.03353-.15029c-.01435-.04859-.02492-.09939-.04281-.14676a.53392.53392,0,0,0-.15489-.23416,1.1533,1.1533,0,0,0-.24442-.12935c-.06672-.03033-.14019-.06044-.20654-.09795l-.01748-.03083c-.03678-.06313-.07706-.12371-.11182-.18806a.41869.41869,0,0,1-.07328-.23432c.00094-.00982-.015-.0143-.01744-.004a.46551.46551,0,0,0,.04339.34716,2.90373,2.90373,0,0,1,.19032.32576.6229.6229,0,0,0,.08034.16263.91537.91537,0,0,0,.13513.12185,2.788,2.788,0,0,1,.24567.27357.43068.43068,0,0,0,.32932.16158A.01478.01478,0,0,0,3.822,5.50128Zm-.63-.55146A.52764.52764,0,0,1,3.09275,4.759q-.00953-.02438-.02015-.04834a.5796.5796,0,0,0,.07275.0502c.07682.04429.16049.076.23417.1257a.47529.47529,0,0,1,.11571.111c-.02023.01444-.03927.0341-.057.04483-.02357.01428-.05306.02367-.07918.03644l-.00079-.00073C3.30582,5.0314,3.24155,5.00041,3.192,4.94982Z" /><path d="M4.21967,5.91082a.32073.32073,0,0,0-.05356-.01152c-.02077-.00088-.04156-.00028-.06233-.00078a.79093.79093,0,0,1-.13122-.0141.82832.82832,0,0,1-.12483-.03581.87324.87324,0,0,1-.13765-.05374.01249.01249,0,0,0-.01442.02037.63089.63089,0,0,0,.11667.08868.61938.61938,0,0,0,.13713.04938l.00487.00111a.12779.12779,0,0,0-.01185.05288.11552.11552,0,0,0,.03592.08448.13412.13412,0,0,0,.08223.03527.31464.31464,0,0,0,.11618.00224.02258.02258,0,0,0,.0043-.043.241.241,0,0,0-.0762-.0167A.26441.26441,0,0,1,4.04543,6.051a.0678.0678,0,0,1-.047-.04531.1528.1528,0,0,1-.00264-.04279.65042.65042,0,0,0,.09361.00985.43738.43738,0,0,0,.065-.00182A.18562.18562,0,0,0,4.225,5.9443.01769.01769,0,0,0,4.21967,5.91082Z" /><path d="M5.48657,5.34869a.11265.11265,0,0,0-.0709-.01042.67629.67629,0,0,1-.09252-.00434.45862.45862,0,0,1-.171-.05734c-.105-.06045-.17757-.15664-.29871-.189a1.85236,1.85236,0,0,1-.33307-.09457,1.12409,1.12409,0,0,1-.13916-.07862.73379.73379,0,0,1-.142-.10863.01616.01616,0,0,0-.025.02045.84538.84538,0,0,0,.1086.15079.62185.62185,0,0,0,.13618.10372.74445.74445,0,0,0,.16322.06726.42257.42257,0,0,0-.046.04816c-.04237-.0119-.084-.026-.12617-.03853a1.21845,1.21845,0,0,1-.14275-.03858c-.01318-.0058-.02491.01549-.012.02268.04259.0237.07835.05686.12312.07862a.69911.69911,0,0,0,.10913.04022c-.019.02658-.03731.05281-.05628.07571-.04606.05559-.09626.10862-.1451.1618a1.37107,1.37107,0,0,0-.13055.15349l-.02442-.01389q-.03091-.01758-.06277-.03321A.24192.24192,0,0,0,4.143,5.59886c.01759-.00409.01328-.03193-.0044-.02782-.0369.00858-.082-.02041-.11564-.03377a.13759.13759,0,0,0-.10066-.01281.02049.02049,0,0,0,.00114.03757l.04732.01239.00547.00409A.75532.75532,0,0,1,4.153,5.6891a.71079.71079,0,0,0,.154.11517c.026.011.04511-.022.03025-.04233A.35627.35627,0,0,0,4.237,5.67615a.93751.93751,0,0,0,.26113-.25683c.041-.05508.08305-.10984.12044-.16744a.50609.50609,0,0,1,.06492-.08969c.04412.00882.08862.01583.1322.02708a.57493.57493,0,0,1,.16985.07616.8979.8979,0,0,0,.1704.09512.66968.66968,0,0,0,.17485.04066c.047.00417.12738.01315.16-.02776A.01792.01792,0,0,0,5.48657,5.34869Z" /><path d="M4.28041,5.84658a.54885.54885,0,0,0-.17327-.06042c-.06663-.02118-.1335-.03523-.20062-.05307a.01156.01156,0,0,0-.00806.02166c.06429.02561.126.05408.19184.07669a.55465.55465,0,0,0,.17512.05522A.02233.02233,0,0,0,4.28041,5.84658Z" /><path d="M4.06607,5.69757a.23477.23477,0,0,0-.12249-.04342.01409.01409,0,0,0-.0028.028.28969.28969,0,0,1,.1061.04251A.01662.01662,0,0,0,4.06607,5.69757Z" /><path d="M8.02084,6.657a.15359.15359,0,0,1-.07166.05558c-.01984.00732-.03919.016-.05909.02319a.58337.58337,0,0,1-.15251.03641.91332.91332,0,0,1-.334-.04911,3.176,3.176,0,0,1-.6121-.26386A2.97281,2.97281,0,0,1,6.50729,6.279,2.241,2.241,0,0,0,6.22923,6.1a2.71061,2.71061,0,0,1-.297-.15873.87935.87935,0,0,0-.28169-.15691c-.11518-.02759-.23385-.02431-.34827-.05933a1.23935,1.23935,0,0,1-.23006-.096,1.19791,1.19791,0,0,0-.10428-.09809c.02534-.0172.05141-.031.07813-.0473a.02178.02178,0,0,0-.01215-.04122.41568.41568,0,0,0-.19646.07339,1.17784,1.17784,0,0,0-.17239.1522,2.9047,2.9047,0,0,1-.32686.3323c-.009.00679.00034.02262.01056.01718a1.60972,1.60972,0,0,0,.34507-.27027,1.75474,1.75474,0,0,1,.16455-.1402c.0167-.01225.03407-.02343.05129-.03483a1.46855,1.46855,0,0,0,.122.15109c.05674.06472.115.128.17312.1915q.08778.09591.17633.19109a.99185.99185,0,0,0,.19037.1804c.02644.01632.06681-.00959.05052-.04133a.97458.97458,0,0,0-.16261-.20312q-.08809-.09564-.17664-.19083l-.06543-.07a1.01642,1.01642,0,0,0,.31421.08434.51592.51592,0,0,1,.16576.03969.97892.97892,0,0,1,.1432.09222,2.15482,2.15482,0,0,0,.31361.17362c.2138.10388.39205.26462.59657.38469a2.825,2.825,0,0,0,.64446.2801.76056.76056,0,0,0,.38336.02893.42634.42634,0,0,0,.152-.06289A.5464.5464,0,0,0,8.04345,6.673C8.054,6.65857,8.03187,6.64311,8.02084,6.657Z" /><path d="M3.57673,4.178a.15634.15634,0,0,0-.06808-.08328.01444.01444,0,0,0-.02136.01748.35228.35228,0,0,1,.01639.08734.14806.14806,0,0,0,.0192.07857.02671.02671,0,0,0,.03728.00373A.09236.09236,0,0,0,3.57673,4.178Z" /><path d="M3.32088,3.51312c-.07325-.00873-.14792.01213-.222.001-.05879-.00881-.099-.05432-.15635-.06407-.00714-.00121-.00808.00976-.00111.01111.03664.00709.0517.05285.07856.07428a.20452.20452,0,0,0,.08692.03759.39512.39512,0,0,0,.22242-.00715A.02785.02785,0,0,0,3.32088,3.51312Z" /><path d="M3.42719,3.08181A.32755.32755,0,0,0,3.38386,2.928c-.01137-.01758-.03485-.00158-.03372.01511.00176.026.00553.05156.0084.07728a.19556.19556,0,0,0-.01666.01492.163.163,0,0,1-.03585.022.009.009,0,0,0,.00731.01651A.15715.15715,0,0,1,3.35473,3.064L3.362,3.06378c.0002.00557.00029.01116.00022.01678l-.00089.0239a.197.197,0,0,0-.04438.026.01661.01661,0,0,0,.00466.028.0774.0774,0,0,0,.03474.00707l-.00352.04632a.767.767,0,0,0,.001.11811.32232.32232,0,0,1-.00611.14789.00768.00768,0,0,0,.01342.00709.51687.51687,0,0,0,.06654-.27345c.00077-.02289.00156-.04752.00149-.07278A.075.075,0,0,0,3.443,3.12343.02774.02774,0,0,0,3.42719,3.08181Z" /><path d="M3.23119,2.82666c-.06039.09885-.21244-.00172-.296.043a.10788.10788,0,0,0-.04711.08468.57849.57849,0,0,0-.02874.15607.02975.02975,0,0,0,.05318.01243.51538.51538,0,0,0,.04-.138c.00593-.02253.00627-.03828.03049-.04221a.65668.65668,0,0,1,.07332-.00136.20063.20063,0,0,0,.2-.10136A.01437.01437,0,0,0,3.23119,2.82666Z" /><path d="M2.85215,3.25483c-.015-.01265-.03128-.02345-.04592-.03665-.01328-.012-.02949-.02172-.023-.04392.00285-.00969.015-.019.02232-.02507A.011.011,0,0,0,2.797,3.13a.06639.06639,0,0,0-.06625.08121c.01421.05511.07434.07908.09717.12763a.02791.02791,0,0,0,.04784.00478C2.89863,3.31025,2.88,3.2783,2.85215,3.25483Z" /><path d="M4.27563,4.23333c-.0257-.091-.12241-.14647-.19106-.20314a.703.703,0,0,1-.17926-.2795.76941.76941,0,0,0-.16313-.28576.25874.25874,0,0,0-.269-.0667c-.012.006-.011.02743.00444.02777A.26634.26634,0,0,1,3.62,3.4598a.34985.34985,0,0,1,.10413.10557,1.932,1.932,0,0,1,.13133.28484.45418.45418,0,0,0,.07937.129,1.09207,1.09207,0,0,0,.10426.0832,1.14323,1.14323,0,0,1,.10224.086c.033.03309.0572.07067.08678.1062C4.244,4.27361,4.28325,4.26033,4.27563,4.23333Z" /><path d="M6.31507,5.54836a.90218.90218,0,0,1-.23321-.21964.70136.70136,0,0,0-.09369-.10538A.542.542,0,0,0,5.85991,5.147a.62437.62437,0,0,1-.22736-.15191,1.73675,1.73675,0,0,1-.14687-.21768.92338.92338,0,0,0-.16349-.20732A1.36269,1.36269,0,0,0,5.04966,4.39a1.08618,1.08618,0,0,0-.466-.14721c.04328-.021.087-.04118.12957-.06366a.15663.15663,0,0,0,.09139-.09281c.00644-.025-.02125-.05142-.04413-.03154a.39332.39332,0,0,1-.12965.06132,1.05083,1.05083,0,0,0-.1444.06937.949.949,0,0,0-.14655.1005.42178.42178,0,0,0-.12227.077.35789.35789,0,0,0-.072-.06736c-.03438-.02732-.06952-.05351-.10619-.07769a.32163.32163,0,0,1-.10569-.07955.551.551,0,0,1-.04054-.11824.96948.96948,0,0,0-.10741-.21925.85571.85571,0,0,0-.07143-.0966c-.0302-.03488-.06582-.0617-.09762-.09431-.01347-.01381-.03613.00382-.02357.01929a1.0216,1.0216,0,0,1,.07122.11395c.02192.03616.04376.07243.0637.10973a2.30811,2.30811,0,0,1,.10736.23147.47207.47207,0,0,0,.046.09921.472.472,0,0,0,.08594.08245q.05319.04537.10727.08965a.4927.4927,0,0,0,.0907.069.2614.2614,0,0,0-.04131.11744.274.274,0,0,0,.04109.1457c.00746.01517.03133.00471.02408-.01066a.18757.18757,0,0,1,.01589-.1505.2728.2728,0,0,1,.08251-.10208.44194.44194,0,0,1,.245-.08335.92258.92258,0,0,1,.55458.19259.93857.93857,0,0,1,.213.17391,1.64546,1.64546,0,0,1,.13453.19843.97841.97841,0,0,0,.14157.18907.70784.70784,0,0,0,.2224.13776,1.21384,1.21384,0,0,1,.13621.06565.626.626,0,0,1,.11912.1.80879.80879,0,0,0,.24721.17605A.01507.01507,0,0,0,6.31507,5.54836Z" /><path d="M6.00563,5.44933c-.05622-.14331-.19522-.17255-.32641-.216a.40111.40111,0,0,1-.181-.11718A1.80117,1.80117,0,0,1,5.369,4.9384a1.1252,1.1252,0,0,0-.64608-.47554A.71381.71381,0,0,0,4.50026,4.444a.32257.32257,0,0,0-.20382.09421c-.00752.00693.00019.0224.01009.01641a.41794.41794,0,0,1,.20238-.03972.7755.7755,0,0,1,.19189.02157.9165.9165,0,0,1,.34014.17031A1.22425,1.22425,0,0,1,5.3035,4.992a.80061.80061,0,0,0,.25665.2998,1.35575,1.35575,0,0,0,.2266.07835.33583.33583,0,0,1,.18075.10261C5.983,5.49406,6.01462,5.47224,6.00563,5.44933Z" /><path d="M5.2662,5.1255a2.18421,2.18421,0,0,1-.22844-.13559,1.14544,1.14544,0,0,0-.26868-.10516,1.9037,1.9037,0,0,1-.25326-.08A.45245.45245,0,0,1,4.30261,4.643a.012.012,0,0,0-.022.00973.41425.41425,0,0,0,.06057.11249.46859.46859,0,0,0,.09953.08742.9218.9218,0,0,0,.26725.112,1.2382,1.2382,0,0,1,.30538.10757.42333.42333,0,0,0,.24787.10288A.026.026,0,0,0,5.2662,5.1255Z" /><path d="M4.93429,4.77962a1.18582,1.18582,0,0,0-.30188-.10146c-.01993-.00487-.03168.02294-.01142.03071.097.03721.18642.09033.2828.1285C4.93751,4.85072,4.96752,4.79821,4.93429,4.77962Z" /><path d="M7.1435,5.63025a.45836.45836,0,0,0-.21088-.27439.48755.48755,0,0,0-.16151-.06637.5595.5595,0,0,0-.19357.00832.64927.64927,0,0,1-.42029-.06814,1.0271,1.0271,0,0,1-.26138-.23326l.0195.0101a.75456.75456,0,0,0,.24819.06979.63554.63554,0,0,1,.13244.02137.62438.62438,0,0,1,.12.07.40044.40044,0,0,0,.24238.06667A.02367.02367,0,0,0,6.663,5.18911a.86492.86492,0,0,1-.22854-.09933.51128.51128,0,0,0-.22578-.09714,1.13521,1.13521,0,0,1-.23993-.04875,1.06539,1.06539,0,0,1-.11005-.04562c-.02566-.01286-.05334-.02447-.07913-.03851a1.06908,1.06908,0,0,0-.07908-.0816,1.3437,1.3437,0,0,0-.18925-.14351.01317.01317,0,0,0-.01521.02149,2.49507,2.49507,0,0,1,.26708.32252,1.50438,1.50438,0,0,0,.27934.2762.52133.52133,0,0,0,.3447.11411c.077-.00553.152-.03108.22965-.02931a.57062.57062,0,0,1,.18239.0389.468.468,0,0,1,.163.1028.65107.65107,0,0,1,.11128.16955C7.09242,5.68584,7.1513,5.67367,7.1435,5.63025Z" /><path d="M6.48975,7.335c-.124-.052-.18393-.18457-.29181-.25916a1.27058,1.27058,0,0,0-.23859-.11314c-.0803-.03339-.1605-.067-.241-.09992a1.24523,1.24523,0,0,1-.2402-.11376.72883.72883,0,0,1-.161-.15886,1.811,1.811,0,0,0-.26423-.35288.83177.83177,0,0,0-.23462-.1057,1.7561,1.7561,0,0,1-.25881-.11561.0164.0164,0,0,0-.01893.02674,1.0648,1.0648,0,0,0,.19827.14662c.07068.03856.1507.05937.21963.10034.12834.07628.18777.23649.274.35188a.89584.89584,0,0,0,.15532.164.90532.90532,0,0,0,.22066.12114c.085.03567.17021.07064.25547.10562.083.03406.17056.06294.25073.10329.1313.06608.21269.215.36621.23771C6.50381,7.37668,6.50993,7.34343,6.48975,7.335Z" /><path d="M7.05179,6.90881A.217.217,0,0,1,6.91,6.94252c-.069.00411-.13723.0165-.20573.02492a.63857.63857,0,0,1-.20416.00053.44606.44606,0,0,1-.18371-.0947c-.10808-.08257-.21754-.16364-.32227-.25048-.05352-.04437-.105-.09093-.15524-.139-.0506-.04841-.10607-.09468-.15228-.14724-.0095-.01081-.024.00219-.01682.01376a1.34425,1.34425,0,0,0,.13279.19122,2.21193,2.21193,0,0,0,.16187.16081,2.81255,2.81255,0,0,0,.36123.29125.60789.60789,0,0,0,.436.05212c.07256-.01053.14631-.01454.21857-.02583a.12148.12148,0,0,0,.1135-.08855A.026.026,0,0,0,7.05179,6.90881Z" /><path d="M6.99933,7.07247a.37855.37855,0,0,0-.15555.04988.85918.85918,0,0,0-.15132.07075c-.03426.02488-.03654.0665-.056.10147a.13186.13186,0,0,1-.05536.05871.22835.22835,0,0,0-.05466.02495.011.011,0,0,0,.0006.01728c.03171.0198.07379-.00184.10348-.017a.17853.17853,0,0,0,.09281-.09494c.01216-.02925.02006-.03177.04978-.0453l.087-.03963a.42057.42057,0,0,0,.15524-.091A.02248.02248,0,0,0,6.99933,7.07247Z" /><path d="M7.53021,4.61891a.27317.27317,0,0,0-.11584.04641.36608.36608,0,0,0-.09363.08139.3391.3391,0,0,0-.076.23734.26982.26982,0,0,1-.01436.139c-.018.03252-.0452.05879-.06187.09224a.16349.16349,0,0,0,.06639.19838.0149.0149,0,0,0,.022-.018.14806.14806,0,0,1-.02445-.11382.33287.33287,0,0,1,.05318-.07642.25869.25869,0,0,0,.0489-.19938.25272.25272,0,0,1,.05436-.211A.545.545,0,0,1,7.473,4.72134a.577.577,0,0,0,.08318-.06059C7.57379,4.64148,7.54986,4.61836,7.53021,4.61891Z" /><path d="M8.02346,6.27766a.4638.4638,0,0,1-.13313-.24729.97829.97829,0,0,1,.00194-.31412,1.37174,1.37174,0,0,0,.00634-.31068.6235.6235,0,0,0-.07751-.28594.02809.02809,0,0,0-.051.017c.00607.10794.0473.20946.04433.3192-.00054.01991-.00158.03975-.0028.05957l-.02723.00376c-.02041.00305-.04034.00732-.06067.00989a2.32782,2.32782,0,0,1-.09254-.313,3.61678,3.61678,0,0,1-.06594-.44727c-.00106-.01383-.02447-.01336-.02448.0007a3.23107,3.23107,0,0,0,.01583.442A2.29638,2.29638,0,0,0,7.671,5.6509c.05122.14881.092.30038.13349.45209.02117.07734.042.15477.06391.23192a1.02921,1.02921,0,0,0,.07929.229c.01344.02378.061.02542.0601-.00961a.96674.96674,0,0,0-.04437-.2258L7.94638,6.266c.01973.01206.04041.02265.06165.03492C8.022,6.309,8.03546,6.28789,8.02346,6.27766Zm-.2898-.72076a.50929.50929,0,0,0,.07371.016c-.0043.05039-.00975.10065-.01479.151-.00788-.02407-.016-.04806-.02453-.07188Z" /><path d="M8.07032,4.32585a.27317.27317,0,0,0-.11987.03469.36608.36608,0,0,0-.10124.0717A.3391.3391,0,0,0,7.75,4.66086a.26982.26982,0,0,1-.02808.13687c-.0211.03058-.05081.054-.07072.08565a.16349.16349,0,0,0,.04638.204.0149.0149,0,0,0,.02373-.01576.14806.14806,0,0,1-.013-.11569.33287.33287,0,0,1,.0605-.07077.25869.25869,0,0,0,.06844-.19355.25272.25272,0,0,1,.075-.20457.545.545,0,0,1,.091-.06492.577.577,0,0,0,.08878-.052C8.11144,4.35263,8.08993,4.32725,8.07032,4.32585Z" /><path d="M8.2952,5.39628a.26212.26212,0,0,0,.05856-.02466c.01536-.009.03964-.03541.046-.00749a.03062.03062,0,0,0,.05443.01273.05122.05122,0,0,0-.01924-.07869.1048.1048,0,0,0-.09415.00666.753.753,0,0,1-.12.04908.33326.33326,0,0,0-.044.01707,3.15473,3.15473,0,0,1-.0761-.43874,3.905,3.905,0,0,1-.0103-.46984A.01233.01233,0,0,0,8.066,4.46021a3.49607,3.49607,0,0,0-.0388.45846,2.467,2.467,0,0,0,.05946.46743c.0325.15979.05425.32119.07678.48284.01149.0824.02264.16487.03485.24715a1.84187,1.84187,0,0,0,.031.18531c-.00041.03722.00318.07538-.0004.11059a.11026.11026,0,0,1-.03133.07787.08842.08842,0,0,1-.08739.00939.01087.01087,0,0,0-.01256.01774.11443.11443,0,0,0,.09217.03192.12241.12241,0,0,0,.09054-.05933.23936.23936,0,0,0,.02389-.11529.02943.02943,0,0,0,.00538-.015,1.04144,1.04144,0,0,0-.0162-.23851c-.01106-.08247-.02309-.16479-.03488-.24715-.00637-.04452-.01248-.08916-.01869-.1338a.03921.03921,0,0,0,.01778-.00905.46036.46036,0,0,0,.12854-.12614A.318.318,0,0,0,8.41682,5.524c.00369-.01683-.00283-.07388.00968-.0845a.01438.01438,0,0,0-.01486-.02417.04943.04943,0,0,0-.03037.03436.63759.63759,0,0,1-.03079.09127.38265.38265,0,0,1-.12314.11112c-.01172-.07971-.02469-.1592-.04129-.23779.01248-.00185.02569-.00171.03722-.00306A.419.419,0,0,0,8.2952,5.39628Z" /><path d="M7.67724,6.56574a.4638.4638,0,0,1-.157-.23286A.97829.97829,0,0,1,7.491,6.02011a1.3719,1.3719,0,0,0-.02452-.30978.62353.62353,0,0,0-.1055-.27684.02809.02809,0,0,0-.0491.022l.0022.01241L7.305,5.4632c-.03317-.01766-.06651-.03537-.10029-.05184-.06811-.03319-.14015-.05721-.20812-.09065-.01289-.00634-.02282.01387-.01156.02188.06209.04415.11979.09469.185.13437.02981.01814.06081.03494.09179.051a.5298.5298,0,0,0,.07713.03756.92537.92537,0,0,1,.04871.20322c.00612.08451.00506.16876.00489.25317a.59526.59526,0,0,0-.13924-.08079,1.50022,1.50022,0,0,1-.152-.07053l-.02991-.01816L7.06762,5.837c-.02274-.05425-.0477-.10869-.072-.16238a.36046.36046,0,0,0-.10491-.14126.444.444,0,0,0-.1779-.0752.93891.93891,0,0,0-.21674-.00947c-.01492.00014-.01766.02321-.00234.02345a.56654.56654,0,0,1,.18918.04707.45425.45425,0,0,1,.16241.09345c.074.07634.07329.19451.13643.27713A.04669.04669,0,0,0,7.006,5.907a.22334.22334,0,0,0,.03063.03311.44873.44873,0,0,0,.12128.0708c.04355.01927.08863.03545.1315.05622a.21411.21411,0,0,1,.05491.03455c.01724.01645.029.03669.04652.05333l.00368.003a.61828.61828,0,0,0,.05636.25173.36263.36263,0,0,0,.08964.115.48151.48151,0,0,0,.12368.06573C7.67886,6.59707,7.69019,6.57473,7.67724,6.56574Z" /><path d="M6.78873,5.98958a.68673.68673,0,0,1-.25543.01873c-.01666-.00524-.02629.02026-.0095.02554a.337.337,0,0,0,.28288.01662A.03217.03217,0,0,0,6.78873,5.98958Z" /><path d="M5.49264,6.32982a.12849.12849,0,0,0-.05809-.011.1539.1539,0,0,0-.02649.0025L5.39593,6.325l-.01619.01018a.01294.01294,0,0,0,.004.02555L5.4001,6.369l.02167.00707a.32129.32129,0,0,1,.03638.01906.03806.03806,0,0,0,.04508-.00158.04007.04007,0,0,0,.01132-.01583A.03832.03832,0,0,0,5.49264,6.32982Z" /><path d="M6.29971,5.16431a.25364.25364,0,0,0-.03309.00033c-.01144.00106-.02312.00493-.03443.00493-.0171,0-.01992.02665-.00267.02665.012,0,.02363.00371.03559.00482a.27337.27337,0,0,0,.03565.0003C6.32189,5.20057,6.32079,5.16508,6.29971,5.16431Z" /><path d="M3.97819,5.11955a.71918.71918,0,0,0-.15756.01257c-.01721.00025-.02045.02685-.00271.02711a.7339.7339,0,0,0,.16176.01239A.02639.02639,0,0,0,3.97819,5.11955Z" /><path d="M3.1816,3.1633c-.04148-.00269-.076.033-.11685.0358-.0171.00117-.01248.02667.00411.026.04281-.0017.09009.01934.12884-.00844A.03046.03046,0,0,0,3.1816,3.1633Z" /><path d="M3.18225,3.09123c-.032-.00383-.06112.02042-.09021.03263a.28438.28438,0,0,0-.08053.04306.00792.00792,0,0,0,.00818.0133.34448.34448,0,0,1,.09311-.02482c.03134-.00332.05781.00391.08432-.01487A.02816.02816,0,0,0,3.18225,3.09123Z" /><path d="M3.30921,3.36355a.07287.07287,0,0,0-.044.01446c-.00592.00388-.01118.00934-.01739.01271a.07183.07183,0,0,1-.02327.00618c-.01661.00269-.01191.02568.004.0251.03067-.00112.0777.00927.09725-.02221A.02331.02331,0,0,0,3.30921,3.36355Z" /><path d="M2.641,5.21844c-.08852-.05724-.17928-.11122-.269-.16661a.93892.93892,0,0,1-.38791-.36318.01409.01409,0,0,0-.02576.0114.92028.92028,0,0,0,.10186.22.653.653,0,0,0,.18.17661c.0768.05369.157.10269.23583.15338.04.02575.08093.05036.12045.07682a.23145.23145,0,0,1,.07711.07186.03266.03266,0,0,0,.0597-.00181C2.77071,5.31684,2.703,5.25854,2.641,5.21844Z" /><path d="M4.61585,3.88547A2.74968,2.74968,0,0,1,4.464,3.57656a1.1646,1.1646,0,0,0-.18709-.25489.98785.98785,0,0,0-.24349-.18875,1.43173,1.43173,0,0,0-.29019-.11176.01409.01409,0,0,0-.00982.0264,1.40748,1.40748,0,0,1,.47677.37009,1.38949,1.38949,0,0,1,.16642.23957,1.12556,1.12556,0,0,0,.08936.15033.45943.45943,0,0,0,.12465.105A.01877.01877,0,0,0,4.61585,3.88547Z" /><path d="M2.3899,3.4727a1.42581,1.42581,0,0,1-.11175.09593c-.03352.03176-.06718.0631-.10131.09422a2.70123,2.70123,0,0,1-.21452.18466,1.44841,1.44841,0,0,1-.2329.13877.34257.34257,0,0,0-.1931.15714c-.01192.02908.02395.04923.04666.03335a1.2334,1.2334,0,0,1,.22933-.11524,1.01187,1.01187,0,0,0,.23868-.149,1.43273,1.43273,0,0,0,.19653-.19313c.02927-.03536.05868-.0717.08562-.10888.029-.04005.04611-.08454.07863-.1223C2.423,3.47515,2.40109,3.45971,2.3899,3.4727Z" /><path d="M1.89138,4.48a.46135.46135,0,0,0-.13145-.15689.41755.41755,0,0,0-.07972-.04921.22646.22646,0,0,0-.04589-.01827.4107.4107,0,0,1-.059-.01027.01368.01368,0,0,0-.01262.02389.51042.51042,0,0,1,.06344.06648c.02153.02053.04279.04139.064.06226.04261.04195.08.0883.12163.131C1.84687,4.56495,1.91562,4.53108,1.89138,4.48Z" /></svg>