<svg xmlns="http://www.w3.org/2000/svg" data-name="Layer 1" viewBox="3.4921426466637704 1.4812778945679905 3.015739333843696 7.037088350240254" x="0px" y="0px"><title>KAMASUTRA</title><path d="M4.63361,1.57489A.295.295,0,0,0,4.48029,1.498a.62862.62862,0,0,0-.33638.01343.36237.36237,0,0,0-.22586.20166.30454.30454,0,0,0,.01874.27506c.00862.015.03278.0029.02411-.01223-.08989-.15684.059-.33832.20526-.38571A.55751.55751,0,0,1,4.41473,1.573a.42621.42621,0,0,1,.09088.02178.13.13,0,0,0-.07981.10774.01777.01777,0,0,0,.02855.01531A.22964.22964,0,0,1,4.54327,1.662a.25237.25237,0,0,1,.06414-.00119.131.131,0,0,1,.03633.05456c.005.01839.035.01875.03513-.00248A.17623.17623,0,0,0,4.63361,1.57489Z" /><path d="M4.80719,1.98018a.505.505,0,0,0-.08044-.08557l.013-.008.03181-.02142c.01651-.01032-.00062-.03679-.01774-.02885l-.03367.01434a.06144.06144,0,0,0-.01984.011.10334.10334,0,0,1-.01171-.08163c.00244-.01035-.01152-.02069-.01823-.00963-.0526.08676.03447.1983.11068.23743C4.79625,2.01569,4.816,1.995,4.80719,1.98018Z" /><path d="M4.75532,2.11173a.134.134,0,0,1-.04165.03519c-.016.00781-.03419.00923-.05015.01676a.01232.01232,0,0,0,.00069.02255A.10406.10406,0,0,0,4.7288,2.1811L4.754,2.172a.46333.46333,0,0,0-.0069.13007.01655.01655,0,0,0,.03161.00316.20735.20735,0,0,0,.00353-.14774L4.795,2.14871C4.82533,2.12538,4.782,2.08,4.75532,2.11173Z" /><path d="M4.60408,1.91071a.17611.17611,0,0,0-.0382.01671.12463.12463,0,0,1-.04067.012c-.02266.00309-.01623.035.00541.0342a.13147.13147,0,0,0,.09355-.03057C4.636,1.93,4.62051,1.90686,4.60408,1.91071Z" /><path d="M4.3691,2.16872c-.02673-.01845-.05866-.02778-.08568-.04584A.09045.09045,0,0,1,4.255,2.09611c-.009-.01471-.01118-.06185.02061-.0412.01345.00873.03328-.00958.02039-.02186-.04756-.04526-.11174.01012-.101.06725a.15967.15967,0,0,0,.16478.1085A.02247.02247,0,0,0,4.3691,2.16872Z" /><path d="M4.38792,1.70975a.03124.03124,0,0,0-.0428.00732c-.02969.0368.00239.09233-.03221.12752-.03042.03094-.088.02947-.12514.05a.16848.16848,0,0,0-.06051.20711c.00406.01306.02678.00647.02317-.00683a.10865.10865,0,0,1,.06073-.12117c.0381-.02183.08349-.02394.12238-.04365a.14148.14148,0,0,0,.07662-.0968A.12232.12232,0,0,0,4.38792,1.70975Z" /><path d="M4.357,6.33567c-.01251-.0979-.03287-.195-.05135-.29191-.01908-.1-.04579-.20044-.06028-.30107a.01442.01442,0,0,0-.02847.0045c.01139.09057.01188.18372.01918.27487.0071.08877.01427.17743.02355.266a.57421.57421,0,0,1,.00637.12567.24.24,0,0,1-.04283.10393,1.75251,1.75251,0,0,0-.12391.18739,2.41231,2.41231,0,0,0-.07891.931,1.25719,1.25719,0,0,1-.05792.28434.39918.39918,0,0,0-.0147.25373c.012.03406.06411.01654.05925-.01747a.52325.52325,0,0,1,.04631-.25024,1.01613,1.01613,0,0,0,.05589-.23082,4.5935,4.5935,0,0,0-.00136-.49849.90347.90347,0,0,1,.08691-.4444c.03557-.06368.08666-.1168.12276-.18A.33448.33448,0,0,0,4.357,6.33567Z" /><path d="M4.54264,8.37024a.02247.02247,0,0,0-.01941.03618c.02035.02718-.1088.03092-.12393.0314a.36385.36385,0,0,1-.16213-.02648.46563.46563,0,0,1-.112-.07847,1.14367,1.14367,0,0,1-.10348-.0992c-.0092-.01052-.02993.00036-.02207.01357a.75667.75667,0,0,0,.12132.18024.33923.33923,0,0,0,.20678.08931A.77146.77146,0,0,0,4.449,8.515a.19959.19959,0,0,0,.107-.02389C4.59531,8.46073,4.60722,8.37729,4.54264,8.37024Z" /><path d="M4.64807,6.69021c-.02949.0805-.06442.15877-.09306.23967-.02682.07575-.05266.15185-.07843.228-.0517.15273-.1047.30524-.15024.46A.842.842,0,0,0,4.29,8.04252c.02331.10614.07552.25254.19622.28049.00985.00228.02474-.00714.01764-.01874-.02911-.04752-.0656-.08961-.09139-.13956a.42572.42572,0,0,1-.04891-.17109,1.18948,1.18948,0,0,1,.06856-.40946q.06547-.21435.12885-.42921.03171-.10826.062-.21692c.02168-.078.03669-.15755.05752-.23575C4.68614,6.68118,4.65589,6.66886,4.64807,6.69021Z" /><path d="M5.62638,7.85132a.36286.36286,0,0,0-.09541.01046.59866.59866,0,0,1-.09311-.00019,1.86354,1.86354,0,0,1-.20125-.02818.70059.70059,0,0,0-.376.00874c-.0142.00568-.007.02645.00734.02487a1.33733,1.33733,0,0,1,.40088.04279,1.06918,1.06918,0,0,0,.194.02365c.05176.0001.13814.00271.1774-.03613A.0264.0264,0,0,0,5.62638,7.85132Z" /><path d="M5.47935,6.27315c-.02648.05019-.05676.09765-.082.14867-.02486.05025-.04559.10253-.06569.15484-.0392.102-.07144.20716-.10175.31211-.02994.10367-.05592.20836-.07884.31379q-.01785.08209-.033.16474a.38746.38746,0,0,0-.01464.15942c.006.02339.03928.0371.05458.01276a.411.411,0,0,0,.03854-.149q.01434-.07891.0312-.15734c.02331-.10859.05042-.21643.08035-.32337.02885-.1031.06246-.20451.09558-.30628.01735-.0533.03589-.10626.0518-.16s.028-.10915.04583-.16212A.01174.01174,0,0,0,5.47935,6.27315Z" /><path d="M5.61182,7.75817a.595.595,0,0,0-.09943-.04831C5.473,7.69728,5.43355,7.685,5.3951,7.66975c-.03578-.01419-.07012-.03147-.10469-.04831a.65947.65947,0,0,0-.10465-.05025.01124.01124,0,0,0-.014.01485c.02257.07474.11133.12258.17707.1524a1.00016,1.00016,0,0,0,.11568.04387.48209.48209,0,0,0,.13133.01854C5.61681,7.8017,5.63439,7.7702,5.61182,7.75817Z" /><path d="M5.64133,2.14634c.01051-.0148-.00971-.03476-.0238-.02219a.396.396,0,0,0-.11447.17107c-.011.03386.006.06257-.00032.09518l-.00459.01429a.20207.20207,0,0,1-.08849-.0638c-.00629-.00852-.02106.00032-.016.00986a.22361.22361,0,0,0,.06719.08644l.00545.00369a.23043.23043,0,0,1-.0714.02966.00928.00928,0,0,0,.0029.01833A.32877.32877,0,0,0,5.502,2.46061a.138.138,0,0,0,.06167.01126c.0222-.00118.02279-.034.0041-.04106l-.02523-.00919A.09194.09194,0,0,0,5.55279,2.387c.002-.01995-.00667-.03857-.00574-.05829a.15947.15947,0,0,1,.02031-.05894A.83558.83558,0,0,1,5.64133,2.14634Z" /><path d="M5.65331,2.81024c-.054-.00716-.10882-.01765-.16255-.02717-.05872-.0104-.12275-.03384-.11649-.10471a.0091.0091,0,0,0-.0175-.00406.11516.11516,0,0,0,.06195.13754.35586.35586,0,0,0,.11282.033c-.00138.04122.00717.11685.00286.17437-.016-.016-.03487-.03029-.05-.04407-.03167-.02886-.06457-.0565-.09794-.08338-.06852-.05518-.141-.10583-.21461-.154a3.00032,3.00032,0,0,0-.45658-.234c-.01733-.00753-.02618.01877-.01.027a3.56684,3.56684,0,0,1,.42954.27173c.06615.04682.13006.09646.193.14749q.04994.0405.09911.08181a.56307.56307,0,0,0,.07454.06269.03371.03371,0,0,1-.0159.00068c-.00544-.001-.06373-.01494-.08665-.02318a1.71365,1.71365,0,0,0-.18693-.05521c-.06006-.01415-.12176-.0235-.18262-.03583a1.32716,1.32716,0,0,0-.191-.20243L4.73685,2.687c-.039-.035-.08253-.06578-.11873-.10366-.00935-.00978-.02577.00336-.01643.01344.03318.03581.059.07763.08918.116s.06063.07635.09107.11442c.02925.03658.06037.07421.09332.11l-.00375-.00147A1.63342,1.63342,0,0,1,4.587,2.7215C4.4779,2.645,4.3657,2.572,4.25179,2.503a.36667.36667,0,0,1-.08388-.05843A.21386.21386,0,0,1,4.12862,2.352a.11347.11347,0,0,0-.08175-.09232c-.008-.00148-.013.01116-.00568.01519.055.03032.04963.09714.06667.14961a.22234.22234,0,0,0,.08792.10644c.10706.08017.21866.15348.329.22894a1.17511,1.17511,0,0,1,.14372.11327.62886.62886,0,0,0,.13635.1052.707.707,0,0,0,.179.06105.03127.03127,0,0,0,.02086.00445c.03848.008.07725.0147.11554.022a1.69377,1.69377,0,0,1,.21246.05483c.03563.01177.0707.025.10557.03885A.29318.29318,0,0,0,5.537,3.1903a.02364.02364,0,0,0,.02038-.038.14456.14456,0,0,0-.02315-.02121.09429.09429,0,0,0,.05146-.07253.49693.49693,0,0,0-.00148-.10867.66434.66434,0,0,0-.00782-.10133A.47435.47435,0,0,0,5.6543,2.845.01761.01761,0,0,0,5.65331,2.81024Z" /><path d="M5.35918,3.50593c-.07148-.10935-.21572-.11277-.32305-.169a2.88752,2.88752,0,0,1-.36694-.2774A1.70506,1.70506,0,0,0,4.481,2.93381,1.707,1.707,0,0,1,4.29236,2.816a2.27785,2.27785,0,0,1-.33067-.30291c-.0106-.01187-.02936.00372-.019.01594a2.47381,2.47381,0,0,0,.29492.32952c.11542.09544.25514.155.37632.24256.12207.08819.22784.20127.35634.28026a.48726.48726,0,0,0,.05734.02976,1.19723,1.19723,0,0,0-.08608.11354.3911.3911,0,0,0-.06965.11141.18115.18115,0,0,0,.0092.10922.29953.29953,0,0,0,.12571.15293.279.279,0,0,0,.14608.04531,1.34232,1.34232,0,0,1-.06945.23972c-.02773.06578-.0758.11536-.10893.17735l-.00233.00469c-.08139-.05972-.16245-.1201-.23926-.18562a2.50156,2.50156,0,0,1-.24514-.2507.46038.46038,0,0,0-.23818-.1642.23713.23713,0,0,0-.11389.00574.14251.14251,0,0,0,.01692-.06237c.00423-.06766.0037-.136.00424-.20381.00054-.06815-.00086-.13631-.00217-.20445-.00137-.07144-.01556-.14291-.01562-.214,0-.01567-.02392-.01866-.02468-.00247-.00291.06188-.0182.12359-.02351.18555s-.00891.12452-.01188.18671c-.00285.05969-.00439.11944-.00549.17918-.00054.02907-.00213.05829-.00123.08735.00068.0218.01.05823-.002.07923a.18249.18249,0,0,0-.03927.03629c-.007.00881.00564.0197.01409.01314a.221.221,0,0,1,.24371.00134.7454.7454,0,0,1,.20565.20259,2.42928,2.42928,0,0,0,.45433.40149.20717.20717,0,0,0,.01937.10035.02226.02226,0,0,0,.04074-.00124c.01309-.03393.01287-.07.0269-.1041a.41528.41528,0,0,1,.05233-.0875.7202.7202,0,0,0,.09837-.18051.78854.78854,0,0,0,.04931-.45462c-.00367-.01381-.0252-.01957-.03032-.003-.01391.045-.02483.09063-.035.13648a.3428.3428,0,0,1-.0996-.02545.22746.22746,0,0,1-.09906-.095.153.153,0,0,1-.0207-.06613c-.0001-.03116.02651-.05931.04246-.08452.01717-.02714.03459-.05414.05153-.08143.005-.00809.02511-.05277.04082-.07528a.96572.96572,0,0,1,.24418.10358C5.35162,3.55309,5.37183,3.52528,5.35918,3.50593Z" /><path d="M4.01015,4.81906c-.01987-.10545-.04819-.209-.07018-.314a1.07665,1.07665,0,0,1,.01377-.59083c.0039-.01086-.01262-.02073-.01862-.00984a.88536.88536,0,0,0-.06061.56056c.0159.10681.03884.21267.06012.3185.0108.0537.01948.10761.02775.16174a1.63845,1.63845,0,0,0,.02192.16921c.005.01891.03582.02772.04234.00423A.70539.70539,0,0,0,4.01015,4.81906Z" /><path d="M5.9161,4.30178A1.70814,1.70814,0,0,1,5.951,4.0532c.01592-.0885.03528-.17584.05626-.26328a.016.016,0,0,0-.02994-.01114,1.70833,1.70833,0,0,0-.12856.3788,1.05061,1.05061,0,0,0,.01176.40231c.04882.227.16824.54788-.03689.73556a.24289.24289,0,0,1-.29484.02764.31552.31552,0,0,0,.16376-.28293.03188.03188,0,0,0-.06082-.00608.668.668,0,0,1-.09291.15981.39623.39623,0,0,1-.14576.0979.47512.47512,0,0,1-.39056-.03418,1.768,1.768,0,0,1-.58378-.699,1.30792,1.30792,0,0,0-.339-.36548c-.01485-.01044-.02987.01145-.01614.0228a1.007,1.007,0,0,1,.17379.19138.29608.29608,0,0,1,.01085.0902c.00167.03327.00228.0668.00271.10011.0009.07055,0,.14115.00013.2117a3.85326,3.85326,0,0,1-.03022.42892c-.00144.01311.01946.01876.0231.00536a2.93817,2.93817,0,0,0,.08135-.45827,1.72849,1.72849,0,0,0,.00813-.22741l-.00012-.00251.0378.06446a4.0819,4.0819,0,0,0,.26539.43426,1.07352,1.07352,0,0,0,.22166.21923.73212.73212,0,0,0-.01952.1462q-.0069.08288-.01472.16566-.01594.16955-.03828.33839-.022.16486-.05047.32878c-.00991.05707-.02142.11413-.02616.1719s-.00195.11583-.00652.17353a.01357.01357,0,0,0,.02612.00606c.01943-.054.04479-.10575.062-.16066a1.326,1.326,0,0,0,.03669-.16573q.0297-.16766.05213-.33653l.00292-.0226.01256.03526a.7584.7584,0,0,1,.05779.24465.58491.58491,0,0,1-.06732.22768,3.02133,3.02133,0,0,0-.05279.90723,1.56459,1.56459,0,0,1-.055.24506.24646.24646,0,0,0,.01893.22292c.01089.01344.038.00381.03285-.01472a.33836.33836,0,0,1,.0419-.21881.83073.83073,0,0,0,.04845-.21189A3.00035,3.00035,0,0,0,4.914,6.91158a1.01168,1.01168,0,0,1,.05765-.43841.97412.97412,0,0,0,.07694-.21228.50409.50409,0,0,0-.02634-.23053c-.03178-.10074-.08435-.196-.1177-.29563q.00724-.066.01352-.13213.00808-.08674.01353-.17373c.00208-.0331.00536-.06967.00423-.1051a.56606.56606,0,0,0,.45429.06648.80148.80148,0,0,0,.01807.16924c.01134.07448.02284.14892.035.22327s.02449.14868.03924.2226a.388.388,0,0,1,.00516.20712.02142.02142,0,0,0,.0374.01976.26561.26561,0,0,0,.04443-.186c-.00511-.07961-.01887-.159-.03124-.23767q-.01943-.12361-.04019-.247a.74466.74466,0,0,0-.0443-.1957l.0194-.00951a.26465.26465,0,0,0,.281.06876.37922.37922,0,0,0,.23482-.2454C6.092,4.88675,5.90669,4.59636,5.9161,4.30178Z" /><path d="M5.83,3.654c-.07057.18334-.13968.36735-.20538.55257a.99918.99918,0,0,0-.0596.24459.29219.29219,0,0,0,.05755.23578c.02736.02468.06071-.00871.0596-.037-.0015-.03814-.02036-.07425-.0256-.11231A.506.506,0,0,1,5.65475,4.425,1.35405,1.35405,0,0,1,5.70558,4.183c.048-.174.09694-.34755.14261-.52215A.00973.00973,0,0,0,5.83,3.654Z" /><path d="M3.93773,2.66864a.44364.44364,0,0,0-.33385.33823,1.45913,1.45913,0,0,0,.02758.60014,2.20509,2.20509,0,0,1,.05658.6448c-.01121.1025-.02957.2045-.03061.30787a2.17512,2.17512,0,0,0,.032.33018q.02641.18417.05325.36827l.00942.06037c-.00514.01222-.008.02582-.014.03845a.1946.1946,0,0,1-.05264.06541.68067.68067,0,0,1-.162.09981c-.01017.0043-.00558.0215.00558.01892a.42.42,0,0,0,.21285-.07853.31921.31921,0,0,0,.02939-.03113l.00313.01821a1.46677,1.46677,0,0,0,.03253.18266c.00853.02806.05545.01928.05607-.009a1.01854,1.01854,0,0,0-.01424-.15269c-.0069-.05355-.01064-.10744-.01715-.16107-.01234-.10173-.02623-.20331-.03962-.30492-.014-.10638-.03057-.2128-.04018-.3197a1.41321,1.41321,0,0,1,.0106-.309,1.99,1.99,0,0,0,.023-.29984,2.05749,2.05749,0,0,0-.031-.29325,3.42937,3.42937,0,0,1-.08263-.59916A.68539.68539,0,0,1,3.734,2.8904a.34783.34783,0,0,1,.208-.19462C3.95909,2.69152,3.9549,2.66435,3.93773,2.66864Z" /><path d="M4.25174,5.44389c-.03544-.00649-.03389-.07219-.04767-.09886a.19213.19213,0,0,0-.051-.05989c-.04437-.03582-.10516-.054-.13182-.10768a.01044.01044,0,0,0-.01977.00583c.00746.07209.07348.11014.11839.15856.03154.034.02717.07515.04835.11375a.06919.06919,0,0,0,.091.0354A.02489.02489,0,0,0,4.25174,5.44389Z" /><path d="M4.13011,5.59282a1.66968,1.66968,0,0,0-.01678-.17921c-.00149-.00931-.0171-.01232-.01958-.002-.01315.05507-.02147.11134-.02939.16736a.31283.31283,0,0,0,.00087.16584.0285.0285,0,0,0,.04889.00489A.29211.29211,0,0,0,4.13011,5.59282Z" /><path d="M4.04815,5.76a1.19241,1.19241,0,0,1-.056-.12806A.3233.3233,0,0,1,3.984,5.49112c.00357-.01851-.02558-.02129-.02912-.00291a.34512.34512,0,0,0,.04825.29945A.02682.02682,0,0,0,4.04815,5.76Z" /><path d="M3.79416,5.67372a.45184.45184,0,0,0-.1427-.05234c-.04866-.01353-.09809-.0227-.14722-.034-.01322-.003-.01659.01735-.00516.02224.0475.02029.094.04249.14258.06029a.43843.43843,0,0,0,.13911.03963A.01993.01993,0,0,0,3.79416,5.67372Z" /><path d="M4.32385,5.5471a.02838.02838,0,0,0-.056.0016.13773.13773,0,0,1-.01863.069.09294.09294,0,0,1-.063.04321c-.01537.00063-.01147.02424.00373.02362a.12879.12879,0,0,0,.09785-.03538A.11378.11378,0,0,0,4.32385,5.5471Z" /><path d="M3.95943,2.09384a.42565.42565,0,0,0-.09045.15642.32943.32943,0,0,0,.02827.18194c.00444.01558.02944.01222.02538-.004a.204.204,0,0,1-.00877-.0995.67038.67038,0,0,1,.02983-.0666.55988.55988,0,0,0,.05555-.14689C4.00215,2.0958,3.97416,2.07815,3.95943,2.09384Z" /><path d="M4.69,2.34835A.62034.62034,0,0,1,4.586,2.3567a.35577.35577,0,0,1-.11178-.00829.44844.44844,0,0,1-.19108-.09286c-.01017-.009-.02277.00675-.01556.01668a.33039.33039,0,0,0,.19669.13616.41821.41821,0,0,0,.07174.0104.352.352,0,0,0-.0009.17956.01174.01174,0,0,0,.02318-.00366.21624.21624,0,0,1,.01489-.11161c.00928-.02221.02108-.043.02852-.06562a.16729.16729,0,0,0,.036-.007.44493.44493,0,0,0,.06067-.03386C4.71251,2.36946,4.70707,2.34356,4.69,2.34835Z" /><path d="M6.48221,2.56157a.79271.79271,0,0,0-.21531-.47249.46235.46235,0,0,0-.26683-.106.71408.71408,0,0,0-.32946.06766.01918.01918,0,0,0,.01071.03633.6026.6026,0,0,1,.52533.08713.76342.76342,0,0,1,.18018.4524,1.76223,1.76223,0,0,1-.18059,1.04295,1.24336,1.24336,0,0,0-.12258.27087.2666.2666,0,0,0,.05174.25892c.01725.01644.05784.00817.04937-.02212a.414.414,0,0,1,.00533-.25526,2.55492,2.55492,0,0,1,.1272-.25605,1.85684,1.85684,0,0,0,.17088-.5434A1.75268,1.75268,0,0,0,6.48221,2.56157Z" /><path d="M5.41842,2.59571a.05213.05213,0,0,1-.03181-.02288c-.00494-.01015-.02248-.00612-.01977.00583a.05163.05163,0,0,0,.04542.0436A.0138.0138,0,0,0,5.41842,2.59571Z" /><path d="M5.87241,2.88678a.49325.49325,0,0,1-.08229-.18942.79388.79388,0,0,1,.044-.17953.20752.20752,0,0,0-.047-.162c-.03542-.04575-.118-.10513-.09683-.17013a.01224.01224,0,0,0-.02136-.01128.14471.14471,0,0,0-.01507.14908c.02258.05209.08231.09974.08207.15919a1.602,1.602,0,0,1-.04671.17528.34771.34771,0,0,0,.0509.202.67388.67388,0,0,1,.08541.18818.33392.33392,0,0,1-.01135.17935c-.04414.11983-.17941.19659-.177.335.00039.02281.03375.02758.03622.00362.00824-.07992.06687-.12352.11939-.1763a.46651.46651,0,0,0,.10387-.14537A.39672.39672,0,0,0,5.87241,2.88678Z" /><path d="M6.08019,2.96819a1.359,1.359,0,0,1-.07591-.17158.38528.38528,0,0,1,.0335-.19416.34147.34147,0,0,0-.08667-.31254.012.012,0,0,0-.0185.01514.306.306,0,0,1,.04223.18962.81721.81721,0,0,1-.05336.17053.28568.28568,0,0,0-.00008.18435c.01984.059.054.11182.07648.16974a.3927.3927,0,0,1-.01264.35041c-.05878.09386-.1462.20589-.0701.316a.02575.02575,0,0,0,.045-.02018.228.228,0,0,1,.0591-.17723.56626.56626,0,0,0,.0916-.16553A.54194.54194,0,0,0,6.08019,2.96819Z" /><path d="M6.27916,2.61055A.71488.71488,0,0,0,6.15188,2.302a.038.038,0,0,0-.06389.03928,2.68031,2.68031,0,0,1,.0999.29817,1.40334,1.40334,0,0,1,.03372.309,3.044,3.044,0,0,1-.09874.6788c-.003.01236.01475.01981.01907.00709a2.44842,2.44842,0,0,0,.15871-.69948A1.33716,1.33716,0,0,0,6.27916,2.61055Z" /></svg>