<svg xmlns="http://www.w3.org/2000/svg" data-name="Layer 1" viewBox="1.8324478217698847 3.9519377612820095 6.335244067247256 2.0959436112528524" x="0px" y="0px"><title>KAMASUTRA</title><path d="M2.3524,4.73642a.878.878,0,0,1-.13744.00615.31882.31882,0,0,1-.13046-.0452.33575.33575,0,0,1-.15044-.18031.51221.51221,0,0,1,.15012-.4936c.00918-.00909-.00333-.02485-.01289-.01575a.828.828,0,0,0-.20053.25312.40251.40251,0,0,0-.01563.3046.39031.39031,0,0,0,.199.21934A.34463.34463,0,0,0,2.36968,4.775C2.38926,4.76145,2.37187,4.73518,2.3524,4.73642Z" /><path d="M2.48236,5.52727c-.11806-.09036-.03093-.24361-.00455-.358a.377.377,0,0,0-.10277-.347.0134.0134,0,0,0-.02073.017.3338.3338,0,0,1,.05908.22092,1.00849,1.00849,0,0,1-.05332.2116c-.02737.09727-.01677.26071.10072.29633A.02339.02339,0,0,0,2.48236,5.52727Z" /><path d="M4.06126,5.70107a1.513,1.513,0,0,0-.38764-.03086c-.1301-.00066-.25854.01466-.38832.02091A1.62957,1.62957,0,0,1,2.946,5.67327a1.407,1.407,0,0,1-.161-.03676.54269.54269,0,0,1-.174-.06179.01248.01248,0,0,0-.01442.02036,1.4179,1.4179,0,0,0,.13759.10915.63014.63014,0,0,0,.15564.05978,1.36062,1.36062,0,0,0,.35013.03385,2.74981,2.74981,0,0,0,.3884-.03264c.06882-.01121.13768-.02089.2072-.02651.07282-.00589.14505-.00252.21788-.00376C4.07138,5.73464,4.08227,5.70683,4.06126,5.70107Z" /><path d="M2.6934,4.108A.48123.48123,0,0,0,2.5568,4.0023a.38006.38006,0,0,0-.32153-.02653.01.01,0,0,0,.003.019.57965.57965,0,0,1,.282.07662.43689.43689,0,0,1,.10522.09215c.03031.03674.04623.08919.08959.11186A.033.033,0,0,0,2.75745,4.256C2.7732,4.2012,2.728,4.14692,2.6934,4.108Z" /><path d="M6.77287,4.42812c-.0189-.045-.01467-.09311-.03485-.13858a.19916.19916,0,0,0-.07024-.0864.41328.41328,0,0,0-.23814-.05038,1.2672,1.2672,0,0,0-.30176.07191c-.05217.0158-.10469.03157-.1575.04509-.02771.00709-.05629.01244-.08445.019-.02884-.00807-.057-.01431-.08107-.02009a2.18749,2.18749,0,0,0-.44226-.0655c-.04759-.00151-.09529-.00108-.143.00094a.02648.02648,0,0,0,.00991-.0337.20775.20775,0,0,0-.21247-.07926c-.04637.00364-.09187.015-.13837.01725a.58476.58476,0,0,1-.15427-.018,1.22638,1.22638,0,0,0-.5434-.08005c-.044.01028-.086.02753-.12964.03905a.89388.89388,0,0,1-.17049.02349c-.10777.007-.21579.011-.32362.0171-.11343.00645-.22747.01-.34058.021a.7333.7333,0,0,0-.27957.0739.584.584,0,0,0-.21411.20348c-.02488.03861-.04507.07983-.06844.11934a.37531.37531,0,0,1-.089.12507c-.00647.00445.00123.01347.00765.00935A.66988.66988,0,0,0,2.671,4.58049a.6527.6527,0,0,0,.077-.09025.934.934,0,0,1,.15809-.18753A.96222.96222,0,0,1,3.4713,4.183a2.55483,2.55483,0,0,0,.59918-.06888,1.10236,1.10236,0,0,1,.14118-.04025.46764.46764,0,0,1,.13755.00049,2.16789,2.16789,0,0,1,.25764.06321.80258.80258,0,0,0,.28114.02959,1.24051,1.24051,0,0,1,.17384-.01889.20762.20762,0,0,1,.1261.05612l.00163.00112a1.87891,1.87891,0,0,0-.65694.15813.45017.45017,0,0,1-.05862.00651c-.04392.00172-.08637-.01044-.13021-.01126a.81843.81843,0,0,0-.22659.04439c-.07465.01967-.1481.03983-.22061.06641a2.221,2.221,0,0,1-.22933.07357,1.21559,1.21559,0,0,1-.2346.03365.89168.89168,0,0,0-.23695.045c-.01586.0052-.00748.0293.008.02723a2.41729,2.41729,0,0,1,.263.00826.95116.95116,0,0,0,.18553-.02419A.2982.2982,0,0,0,3.755,4.7215a.68309.68309,0,0,0,.17178.07117,1.18936,1.18936,0,0,0,.3942.03c.07344-.00515.14646-.0149.21918-.02622a1.45829,1.45829,0,0,0,.19838-.03766c.06683-.02022.13344-.04031.20044-.05994a1.21177,1.21177,0,0,0,.19263-.08359c.00916-.00447.00546-.02113-.00532-.018-.0643.01837-.13154.02671-.19666.04251a1.26677,1.26677,0,0,1-.18508.03063c-.13325.01219-.26423.04274-.39776.05472a1.1601,1.1601,0,0,1-.38662-.02218.89713.89713,0,0,1-.16385-.05962c-.01776-.0084-.0377-.02078-.0584-.032.06025-.01723.11963-.03754.17852-.0589.07207-.02614.1397-.06047.21043-.08963a.57249.57249,0,0,1,.2413-.02426c.008.00009.01609-.00014.02422-.00046a.59191.59191,0,0,0-.05506.04043.32446.32446,0,0,0-.06766.07094.46956.46956,0,0,0-.03935.09954c-.00375.01108.01181.02025.01865.00986a.56975.56975,0,0,1,.12365-.11691.77162.77162,0,0,1,.14622-.09033,1.69906,1.69906,0,0,1,.36679-.127,1.86211,1.86211,0,0,1,.79476-.00437,2.123,2.123,0,0,1,.20873.05135.24127.24127,0,0,1,.13375.09035c.0159.02249.04825.00323.04586-.02055A.14329.14329,0,0,0,5.993,4.33206c.03128-.00558.06182-.01309.0899-.02036.09472-.02452.18812-.05508.28412-.07439a.35309.35309,0,0,1,.25479.00061.18139.18139,0,0,1,.07249.09883.57818.57818,0,0,0,.059.10338C6.76063,4.45135,6.77774,4.43972,6.77287,4.42812Z" /><path d="M5.65944,4.4007a.23113.23113,0,0,0-.16405.02714A.61805.61805,0,0,0,5.344,4.537c-.10616.09922-.18122.22584-.28943.32324a1.06186,1.06186,0,0,1-.167.12645c-.06.03546-.12881.05035-.18753.0868a.65708.65708,0,0,0-.13261.13377.3692.3692,0,0,1-.05259.049l-.01217-.00318a1.44615,1.44615,0,0,0-.20414.00016c-.03206.0016-.06405.00553-.09587.00968-.03706.00483-.0722.02459-.10879.02692-.01182.00075-.01056.01888.00058.02018.03532.00412.06643.024.10243.02849a.72112.72112,0,0,0,.10427.00644,1.02418,1.02418,0,0,0,.10631-.00746.38945.38945,0,0,0-.05262.18518.303.303,0,0,0,.01337.11659.37265.37265,0,0,0-.20748.13351.33034.33034,0,0,0-.05225.118.299.299,0,0,0-.00446.13409.01428.01428,0,0,0,.02541.00594c.04214-.06211.04937-.14408.09182-.2071a.58117.58117,0,0,1,.168-.13331.38855.38855,0,0,0,.03063.05012c.0206.02871.05895-.00118.04939-.03036a.85321.85321,0,0,1-.03644-.18973A.17076.17076,0,0,1,4.507,5.34191c.09745-.05694.157-.15573.25332-.21327a2.27622,2.27622,0,0,0,.31749-.19549A1.807,1.807,0,0,0,5.32651,4.653.71778.71778,0,0,1,5.477,4.49883a.45888.45888,0,0,1,.0861-.04748c.03155-.01328.06564-.01765.09688-.03137A.01052.01052,0,0,0,5.65944,4.4007Z" /><path d="M6.01918,4.53867a.45637.45637,0,0,1-.16191.14945c-.06845.0453-.13712.09064-.2079.13225-.13953.082-.28587.15043-.43113.22142-.07184.03511-.14434.0716-.21256.11338a1.05539,1.05539,0,0,0-.177.14495,1.33466,1.33466,0,0,0-.30215.36377c-.00491.0103.01035.02141.01851.01323.04231-.04241.08666-.08257.13109-.12264a.33924.33924,0,0,0,.10793.03832.42178.42178,0,0,0,.14007-.03712c.1062-.03458.21314-.06684.32115-.09531.103-.02714.20746-.0473.31141-.07011.05406-.01187.10588-.03043.15919-.045a.36872.36872,0,0,1,.17-.00094c.024.00485.028-.03365.00381-.03809A.7444.7444,0,0,0,5.735,5.3a1.19133,1.19133,0,0,0-.15869.0094,3.01323,3.01323,0,0,0-.32592.081c-.10289.02838-.20528.05822-.30673.0914a.47311.47311,0,0,1-.16657.04776c-.02043-.00206-.04179-.00856-.06236-.00986.03707-.03363.07381-.06763.10905-.10328a1.18677,1.18677,0,0,1,.28755-.2439c.05585-.02864.11556-.04973.17267-.07577q.0897-.0409.17783-.085a3.34129,3.34129,0,0,0,.32511-.18388A.75542.75542,0,0,0,6.06523,4.563C6.078,4.53655,6.03357,4.5125,6.01918,4.53867Z" /><path d="M5.96233,5.41082a.27576.27576,0,0,1-.05626.06159.59235.59235,0,0,1-.05746.05068.72252.72252,0,0,1-.14527.081,1.17013,1.17013,0,0,1-.39144.09107c-.13842.00991-.27775.00593-.41565.0232a1.51923,1.51923,0,0,0-.3723.09738,1.15473,1.15473,0,0,0-.18837.09582c-.06128.03875-.12447.07718-.18221.1205a.0089.0089,0,0,0,.00469.01556.28489.28489,0,0,0,.17337-.04971c.061-.032.11975-.06682.18236-.09571a1.31245,1.31245,0,0,1,.39367-.11294c.14585-.01776.29315-.01146.43944-.02286a1.4614,1.4614,0,0,0,.39922-.096.59533.59533,0,0,0,.16521-.08953.27.27,0,0,0,.0597-.06358.30933.30933,0,0,0,.03148-.09151A.02145.02145,0,0,0,5.96233,5.41082Z" /><path d="M6.32511,4.43464a.15462.15462,0,0,0-.02917-.07806.05214.05214,0,0,0-.056-.008c-.04386.01111-.0876.02178-.13219.02979-.00621.00112-.0065.01164.00033.01152.02843-.00052.05676.00013.08518.00078.02912.00066.05313-.00686.06247.02363.01594.052.04093.09906.06163.14946a.01.01,0,0,0,.01892-.00558C6.33086,4.51731,6.33095,4.47525,6.32511,4.43464Z" /><path d="M7.45871,5.46692a1.36832,1.36832,0,0,1-.21229-.14208,2.0561,2.0561,0,0,0-.22412-.12751,1.9728,1.9728,0,0,0-.23745-.09542.54939.54939,0,0,0-.22748-.04459c-.00887-.02764-.01814-.05515-.02819-.08233a2.00754,2.00754,0,0,0-.19884-.3736c-.0049-.00778-.0176.0003-.01369.00842a3.43369,3.43369,0,0,1,.146.38632c.022.06468.04245.12974.05957.1959.00894.03454.0169.06928.02453.10413a.1761.1761,0,0,0,.03217.085A.02514.02514,0,0,0,6.62145,5.374a.36277.36277,0,0,0-.02775-.19331c-.00662-.02461-.01366-.04914-.02094-.0736a1.48009,1.48009,0,0,0,.19379.06494,2.221,2.221,0,0,1,.24977.104q.05279.02573.10459.054c-.04186-.00123-.0845.00084-.12618.00293-.04606.00231-.09277.005-.13854.01061a.91408.91408,0,0,0-.143.03612c-.01092.00314-.01279.02066.00062.02155.03374.00222.06646.00633.0998.00785-.04586.02685-.09054.05557-.13508.08516a.78844.78844,0,0,1-.11823.06444.27576.27576,0,0,1-.07137.02741l-.00079-.002a1.187,1.187,0,0,0-.074-.09974.701.701,0,0,1-.05977-.12525,1.61861,1.61861,0,0,1-.08384-.317c-.00423-.02589-.00741-.052-.01039-.07812a.03485.03485,0,0,0-.00585-.05132.8364.8364,0,0,0-.031-.1598.956.956,0,0,0-.07232-.1437.65319.65319,0,0,1-.055-.16274.00673.00673,0,0,0-.01329.0021.79.79,0,0,0,.02449.155c.01731.05691.05176.10632.06782.16356a.7044.7044,0,0,1,.02156.1407A1.43971,1.43971,0,0,0,5.87,4.956a1.9198,1.9198,0,0,0-.33017.14662c-.112.0582-.225.11435-.33788.1708-.05449.02725-.10861.05518-.16337.08189-.02495.01217-.04977.024-.07568.034a.21469.21469,0,0,0-.07718.03476.01031.01031,0,0,0,.0029.01741.27654.27654,0,0,0,.1537-.02077.97849.97849,0,0,0,.16412-.06206c.11326-.054.22522-.11068.33865-.1643a3.46735,3.46735,0,0,1,.33111-.1493,1.49355,1.49355,0,0,1,.3243-.06864c.00211.03915.00447.07812.00989.116a1.67465,1.67465,0,0,0,.07622.31821c.026.07373.07627.19439.15989.21775l.00451.00092a.06483.06483,0,0,0,.03259.01674.27157.27157,0,0,0,.14328-.04392,1.16221,1.16221,0,0,0,.27484-.195c.02914-.00177.05827-.004.08738-.0056.046-.00258.09262-.00451.13848-.009.02678-.00263.0532-.00762.07967-.01238l.04332.02744c.05776.038.13032.10592.20513.08956A.01582.01582,0,0,0,7.45871,5.46692Z" /><path d="M8.14558,5.16063a.02518.02518,0,0,0-.04489-.0105.50565.50565,0,0,1-.10836.11683.38871.38871,0,0,1-.17155.07666.599.599,0,0,0-.1783.04125.34085.34085,0,0,0-.12188.10551c-.00626.00888.00389.02364.01439.01759a.641.641,0,0,1,.1794-.07179,1.46229,1.46229,0,0,0,.20807-.03851.56984.56984,0,0,0,.155-.097A.14975.14975,0,0,0,8.14558,5.16063Z" /><path d="M7.78806,4.35006a.4788.4788,0,0,0-.32135-.1205.68069.68069,0,0,0-.34555.09215.29883.29883,0,0,0-.094.10453.23887.23887,0,0,0-.02324.06242.2031.2031,0,0,0,.0046.076c.00164.01337.0205.0095.02011-.00318a.20877.20877,0,0,1,.04878-.11562A.22384.22384,0,0,1,7.109,4.41395l.00648-.00111a.31877.31877,0,0,1,.17325-.03137,1.32362,1.32362,0,0,1,.153.04179.287.287,0,0,1,.09416.084.34212.34212,0,0,0,.08894.06548c.01333.00691.02074-.01306.01135-.02147C7.59781,4.5169,7.58808,4.45649,7.56,4.4137a.19741.19741,0,0,0-.12534-.0834l-.0496-.01168c.02385-.00317.04766-.00554.07116-.00723a.37443.37443,0,0,1,.26152.08991.35343.35343,0,0,1,.16872.20966.01489.01489,0,0,0,.02844.00284C7.95795,4.50414,7.86848,4.41051,7.78806,4.35006Z" /><path d="M7.30523,4.51966c-.00467-.01818-.00935-.03628-.01466-.05428A.02721.02721,0,0,0,7.2678,4.4489c-.07454-.006-.118.04684-.153.1053a.00976.00976,0,0,0,.01409.01313.23276.23276,0,0,1,.11613-.0626l.01025.02965C7.265,4.5622,7.31265,4.54853,7.30523,4.51966Z" /><path d="M8.15821,4.87383c-.05571-.035-.14436-.00724-.2041.00583l-.02317.00522a.30694.30694,0,0,0-.00548-.1912.00961.00961,0,0,0-.01712-.004c-.03966.06281-.008.1433-.05064.20445l-.0037.009c-.0457.011-.09142.022-.13764.03075q-.05364.01018-.10846.019l.02051-.01768A.9258.9258,0,0,1,7.712,4.86075c.01649-.01283.03345-.025.05008-.03769a.19166.19166,0,0,0,.02828-.02727.07846.07846,0,0,0,.05933-.05345A.02191.02191,0,0,0,7.8206,4.715c-.08369.04208-.1988-.03124-.26083-.085a.31663.31663,0,0,0-.22964-.08631c-.00959.00023-.01511.01443-.00415.01789a.43683.43683,0,0,1,.146.08333.67964.67964,0,0,0,.12625.09789.6623.6623,0,0,0,.10066.04366h0a.40224.40224,0,0,0-.09066.05794c-.03811.03267-.06347.07493-.09838.10461-.00852-.011-.02178-.01877-.03246-.02982a.11583.11583,0,0,1-.029-.04515.01161.01161,0,0,0-.02-.002.0829.0829,0,0,0-.002.08138.09411.09411,0,0,0,.01621.02187c-.06253.00682-.12513.01173-.187.0137-.0278-.01525-.055-.0317-.08225-.04874q-.0764-.0478-.15236-.09633a.64361.64361,0,0,1,.03554-.11271.51731.51731,0,0,1,.04121-.05534c.01564-.02312.01176-.04607.02271-.06927.00517-.011-.00992-.02018-.01851-.01323a.119.119,0,0,1-.02957.01361l-.00427-.00252a.149.149,0,0,0-.06327-.00595.34251.34251,0,0,1-.08131-.011.1679.1679,0,0,1-.12841-.0933c-.00337-.01043-.01863-.0047-.01761.00519a.12741.12741,0,0,0,.02862.08084.19138.19138,0,0,0,.07712.0515.32127.32127,0,0,0,.13739.02568.222.222,0,0,0-.02821.04993.27562.27562,0,0,0-.0114.11111q-.103-.06586-.20553-.13235c-.06383-.04132-.12812-.08185-.19228-.12264-.02647-.01683-.05282-.0337-.07962-.04992a.22068.22068,0,0,0,.04315-.04321c.00733-.00958.04034-.0628.01314-.06775-.01987-.00361-.04376.02814-.057.03957a.36755.36755,0,0,1-.03163.02554.17994.17994,0,0,0-.02147.01537.19907.19907,0,0,1-.05847-.04346.01.01,0,0,0-.0154.0126.53587.53587,0,0,0,.06212.07361c.031.02743.06467.05168.09793.07618.06554.04829.13139.09595.19862.14185q.2047.13974.41554.26992a.98634.98634,0,0,0,.2.09915,2.19946,2.19946,0,0,0,.21863.05794,1.47263,1.47263,0,0,0,.23238.04089,1.03733,1.03733,0,0,0,.25151-.02814c.01447-.00258.01493-.026-.00076-.02656q-.07839-.00259-.15638-.00964a.50115.50115,0,0,1,.05755-.01382.43486.43486,0,0,0,.06689-.0102.14842.14842,0,0,0,.0832-.07012c.01143-.02019.04312-.0586.02836-.08341A.01425.01425,0,0,0,8.11,4.96463l-.00376.00468c-.00753.01916-.046.0392-.06233.05132-.02644.01958-.05153.04132-.07873.05987a.27286.27286,0,0,1-.11454.03252c-.03012.00565-.05839.01355-.08812.01885-.06156-.00893-.12278-.02024-.18352-.03443a1.9166,1.9166,0,0,1-.2168-.05939l-.03174-.01258a1.308,1.308,0,0,0,.37525-.00741c.07816-.01341.15353-.03432.22988-.05522a1.22042,1.22042,0,0,1,.1221-.02822.25922.25922,0,0,0,.10179-.02487A.02269.02269,0,0,0,8.15821,4.87383Z" /><path d="M7.38565,4.69805a.06991.06991,0,0,1-.02932-.07069c.00183-.00908-.01249-.01043-.01431-.00143-.00477.0237-.01936.0457-.00957.07056a.04335.04335,0,0,0,.04667.02946A.01561.01561,0,0,0,7.38565,4.69805Z" /><path d="M7.21784,4.86274a.11483.11483,0,0,1-.01637-.04953A.0084.0084,0,0,0,7.188,4.80806a.08257.08257,0,0,0-.00365.11892.033.033,0,0,0,.03052.01164L7.218,4.93769A.02836.02836,0,0,0,7.24,4.91977C7.24622,4.89353,7.23062,4.88287,7.21784,4.86274Z" /><path d="M2.59416,4.24113a.08828.08828,0,0,1-.05551-.02825.07264.07264,0,0,1-.01344-.02519c-.00093-.00329-.00684-.03166.00456-.02784a.01425.01425,0,0,0,.01779-.0189.04086.04086,0,0,0-.05743-.018A.07573.07573,0,0,0,2.46,4.20608a.13164.13164,0,0,0,.13621.10571C2.63911,4.30651,2.63138,4.24885,2.59416,4.24113Z" /><path d="M2.54421,4.56691a.21789.21789,0,0,0,.01312-.19324.02261.02261,0,0,0-.03216-.01086l.00088-.00122a.0235.0235,0,0,0-.014.01932c-.00523.03278-.01106.065-.01728.09717A.18516.18516,0,0,0,2.44643,4.433a.01171.01171,0,0,0-.01809.01124c.00519.03981.01687.07865.0245.11806.00459.02367.006.04814.00917.07214-.05708.00821-.11228.02694-.16957.03013a.01071.01071,0,0,0-.002.02047.43073.43073,0,0,0,.21875.02174A.03491.03491,0,0,0,2.54,4.66584a.22111.22111,0,0,0-.00166-.092Z" /><path d="M3.775,5.24262c-.0904-.00326-.17873.00561-.26882.01115-.093.00571-.19014.00342-.28329-.00018a1.23642,1.23642,0,0,1-.22668-.03254.62418.62418,0,0,1-.2257-.08273c-.0105-.00738-.02549.0073-.01593.01708a.6584.6584,0,0,0,.18271.14433.70537.70537,0,0,0,.24805.058A1.04351,1.04351,0,0,0,3.47,5.33912c.10182-.01993.20456-.03249.30619-.054C3.79885,5.28033,3.80048,5.24354,3.775,5.24262Z" /></svg>