<svg xmlns="http://www.w3.org/2000/svg" data-name="Layer 1" viewBox="1.6547774199127954 3.2510951801039867 6.690427205959246 3.4972781672762046" x="0px" y="0px"><title>KAMASUTRA</title><path d="M2.70983,3.38579c-.05112-.00139-.10559-.01093-.157-.01591-.05381-.00521-.107-.01527-.16057-.02221a.91736.91736,0,0,0-.26524.00166.53087.53087,0,0,0-.4085.29174.5376.5376,0,0,0,.00787.522.3486.3486,0,0,0,.18885.13389.341.341,0,0,0,.21206.00588.01741.01741,0,0,0-.001-.03188c-.03153-.01163-.06563-.012-.09754-.02343a.34977.34977,0,0,1-.08127-.04281.4199.4199,0,0,1-.13068-.13126.4509.4509,0,0,1,.05212-.44072.487.487,0,0,1,.36466-.182,1.14169,1.14169,0,0,1,.23808.01931.852.852,0,0,0,.13024.01188A.30611.30611,0,0,0,2.72,3.44968.0337.0337,0,0,0,2.70983,3.38579Z" /><path d="M2.54559,3.72079a.20847.20847,0,0,0-.13174-.10635.17325.17325,0,0,0-.15193.01753.10664.10664,0,0,0-.01773.13727.10882.10882,0,0,0,.02555.02753c-.027.04911-.09517.05059-.1414.0749a.25154.25154,0,0,0-.09944.08587.15767.15767,0,0,0-.02018.11083.242.242,0,0,0,.01983.06679.38279.38279,0,0,0,.03916.05565c.00877.01351.02705-.00068.02258-.01389a.23541.23541,0,0,1-.007-.13448.20217.20217,0,0,1,.09158-.095c.04854-.03075.11563-.073.13147-.1332A.05856.05856,0,0,0,2.35882,3.801a.01294.01294,0,0,0,.0036-.01507.4486.4486,0,0,1-.03229-.05437c-.01054-.0251-.01815-.03936.00863-.04183a.26808.26808,0,0,1,.175.05713C2.52934,3.75947,2.55671,3.73894,2.54559,3.72079Z" /><path d="M2.592,4.271a.02272.02272,0,0,0-.03652-.01392c-.02661.02569-.05886-.00053-.08714-.00823a.19191.19191,0,0,0-.06505-.00715l-.01641.00218c-.0045-.01882-.01371-.037-.03473-.03523a.015.015,0,0,0-.01294.01167l-.00016-.001a.10554.10554,0,0,0-.00759.03972c-.02584.00954-.051.0214-.0761.03228a.007.007,0,0,0,.00039.01274A.10959.10959,0,0,0,2.32773,4.3a.32246.32246,0,0,0-.00177.05682.02513.02513,0,0,0,.04491.0105A.13758.13758,0,0,0,2.39193,4.29a.31406.31406,0,0,1,.09851.03072C2.52939,4.33666,2.60246,4.33033,2.592,4.271Z" /><path d="M3.15519,5.82978A2.75114,2.75114,0,0,0,3.081,5.27439a1.36834,1.36834,0,0,1-.05014-.26065,3.3465,3.3465,0,0,0-.09555-.56539c-.023-.10119-.04618-.20305-.07886-.30163-.02438-.07356-.05612-.14457-.08028-.218l-.00179-.036a.95669.95669,0,0,1,.014-.192c.00389-.02469-.0277-.031-.04135-.01546a.34078.34078,0,0,0-.04981.24733.95767.95767,0,0,1-.0027.15408c-.00723.05654-.02174.0962-.08145.11021-.008.00188-.00894.01525.00044.01539a.14775.14775,0,0,0,.14778-.09739c.01722.07582.03492.15148.05257.22724l.01309.05645a2.53161,2.53161,0,0,0-.00783.4072c.00483.16185.02078.3237.02115.48562a1.96874,1.96874,0,0,1-.01093.22038.25167.25167,0,0,1-.02824.11712c-.02065.02161-.07781.01911-.10674.024a.32269.32269,0,0,0-.1801.06446.46121.46121,0,0,1-.08049.05964.90661.90661,0,0,1-.10754.03376c-.017.007-.01861.03745.00128.04227A.28865.28865,0,0,0,2.524,5.80489a.24217.24217,0,0,1,.09333-.03874c.04366-.00737.08745-.01405.13113-.02131.07609-.01264.12564-.01994.153-.09917a.77915.77915,0,0,0,.04436-.24719c.00035-.17412-.03014-.34744-.04193-.521-.00331-.04879-.00519-.098-.00673-.14747.00925.05065.0177.10133.02481.15193.01173.08352.00672.16836.022.25146.01593.08668.0429.171.059.25772a4.27046,4.27046,0,0,1,.05262.43051.247.247,0,0,0-.193-.023c-.04792.01474-.09441.02895-.1431.04136a.49814.49814,0,0,1-.15865.037.01284.01284,0,0,0-.00573.0247.439.439,0,0,0,.22666-.00647.35707.35707,0,0,1,.25472.0412.05426.05426,0,0,0,.029.01A.303.303,0,0,1,3.013,6.1951c-.05356.05417-.13946.08-.17769.14758-.015.02651.00882.06779.04158.05082A1.09657,1.09657,0,0,0,3.05,6.27834a.28536.28536,0,0,0,.10425-.18155A1.44094,1.44094,0,0,0,3.15519,5.82978Z" /><path d="M3.29062,6.703c-.01108-.0469-.04759-.06993-.07738-.10513a.31444.31444,0,0,1-.0466-.18709c-.01249-.10885-.13648-.06673-.19366-.02711-.01026.00711-.00212.02671.01033.023a.19414.19414,0,0,1,.06212-.01138c.02542.00262.02486.012.04216.03089a.25286.25286,0,0,1,.04527.11836.51664.51664,0,0,0,.12483.17317A.01883.01883,0,0,0,3.29062,6.703Z" /><path d="M5.75319,5.55731a.375.375,0,0,1-.13731-.02158c-.03991-.01667-.07429-.04321-.11379-.061-.07891-.03548-.15968-.06686-.23843-.103-.16943-.07784-.34045-.15122-.50786-.23347-.16064-.07893-.32086-.15712-.47651-.24573C4.122,4.803,3.96788,4.708,3.81331,4.614c-.0841-.05118-.16813-.10213-.25527-.148a1.10261,1.10261,0,0,0-.21919-.10478l-.01017-.06963c-.017-.11234-.04534-.22091-.06534-.33235a.01161.01161,0,0,0-.02292.00362c.00641.08871.00316.17719.01082.266q.01139.13206.02122.26426c.01243.171.01337.346.03691.51582.01149.08287.04253.1611.0568.24337a.91325.91325,0,0,1,.003.25733c-.00905.08177-.02456.1627-.03541.24424-.011.08252-.01341.164-.01675.247a.26691.26691,0,0,0,.041.2052.794.794,0,0,0,.21011.17313.02324.02324,0,0,0,.03126-.03352.64014.64014,0,0,0-.10385-.11037c-.03493-.03041-.09328-.06428-.11127-.10855a.3305.3305,0,0,1,.00594-.16812c.0092-.04567.02076-.09075.03086-.13621l.00973-.04426.0085.00208A.27521.27521,0,0,0,3.698,5.65552a.49421.49421,0,0,0,.05417-.15939c.01286-.05857.04875-.11074.05788-.16949a.01616.01616,0,0,0-.02244-.01626.2834.2834,0,0,0-.117.11559c-.03265.05487-.0439.12058-.08037.17282a.25469.25469,0,0,1-.12622.09581l-.01715.00622a1.23033,1.23033,0,0,0,.0207-.47445c-.0192-.09841-.05557-.19032-.06533-.29089-.01067-.10993-.01568-.22024-.0296-.32989q-.00981-.07728-.02066-.15442c.04137.034.08859.06278.13059.09187.074.05125.14985.09906.22689.14559.15815.09552.316.19155.47708.28211l.03179.01756c-.0292.032-.05878.0702-.09848.07589-.04766.00683-.08477-.00582-.12974.01877a.34329.34329,0,0,0-.1649.19914c-.00471.02043.02507.0349.03957.02123.0715-.0674.11712-.17287.22754-.17448a.17661.17661,0,0,0,.08276-.01493.01022.01022,0,0,0-.00411.01156.377.377,0,0,1,.00845.08466.02332.02332,0,1,0,.04643-.00133.23465.23465,0,0,0-.03113-.09034.01421.01421,0,0,0-.01874-.005l.01594-.0106a.45479.45479,0,0,0,.07646-.08725c.10292.05527.20761.10691.31323.15664a.49234.49234,0,0,1,.01829.07138l.00178.01775c-.00563.00882-.013.01676-.01881.02587a.32132.32132,0,0,1-.0291.04478c-.024.02728-.05324.04728-.07891.07235a.01968.01968,0,0,0,.02032.03306A.2503.2503,0,0,0,4.624,5.35116a.10872.10872,0,0,0,.01558-.03062.13179.13179,0,0,0,.02106-.07208.2904.2904,0,0,0-.00187-.04022c.068.03135.13633.062.20474.09252L4.835,5.33311c-.02844.03121-.05085.06965-.08041.09932a.01841.01841,0,0,0,.0233.02847,1.05556,1.05556,0,0,0,.113-.06814.34415.34415,0,0,0,.05719-.0543c.07743.03442.15487.0688.232.10379l.06129.02843a.91392.91392,0,0,1-.05867.09258.44522.44522,0,0,1-.12031.12465.01368.01368,0,0,0,.01107.025.47689.47689,0,0,0,.09472-.02668.25923.25923,0,0,0,.06932-.056A.4706.4706,0,0,0,5.31988,5.507a1.29861,1.29861,0,0,0,.13931.05485.474.474,0,0,0,.13612.01429c.05151.0013.10265.01258.15457.01422C5.77123,5.59107,5.77456,5.55776,5.75319,5.55731Z" /><path d="M3.43344,6.63935c-.01749-.03759-.03-.07589-.0508-.11216a.55424.55424,0,0,0-.1285-.17371.01146.01146,0,0,0-.01771.011.59331.59331,0,0,0,.07525.20534c.01719.03492.03935.064.05918.09723.018.03006.02575.05877.05616.07741a.02248.02248,0,0,0,.035-.01594A.16931.16931,0,0,0,3.43344,6.63935Z" /><path d="M3.58994,6.6093a1.70545,1.70545,0,0,0-.12625-.198c-.03105-.03687-.089-.117-.14461-.1083a.00874.00874,0,0,0-.00365.01561c.01117.007.02089.03423.02909.04548.011.01515.02312.02923.03506.04368a1.07227,1.07227,0,0,1,.07349.09611c.03174.0487.04457.14119.1159.14448A.02435.02435,0,0,0,3.58994,6.6093Z" /><path d="M5.0045,4.57362a1.976,1.976,0,0,0-.11274-.23843A.68546.68546,0,0,0,4.75063,4.133c-.14225-.13-.329-.08048-.50017-.12391a.61062.61062,0,0,1-.23327-.14521c-.0813-.06768-.166-.13115-.24729-.19886a2.52571,2.52571,0,0,0-.46947-.35149.45233.45233,0,0,0-.50209.02907c-.01184.01046-.00013.03226.01511.02458.345-.17384.67951.18892.9171.39a2.22282,2.22282,0,0,0,.42944.3427c.15312.074.34671-.00679.48989.09.15067.10184.15656.33683.31944.42114C4.9928,4.62315,5.01135,4.59353,5.0045,4.57362Z" /><path d="M7.29094,5.98725a.29979.29979,0,0,0-.05574-.129.41977.41977,0,0,0-.14074-.09291A1.972,1.972,0,0,0,6.705,5.65916a3.97363,3.97363,0,0,0-.4096-.06866c-.07245-.0079-.145-.011-.2176-.017-.074-.00619-.14546-.00306-.219-.00379a.01368.01368,0,0,0-.00272.0272c.12295.01945.24684.04436.36927.06824.1261.0246.25227.04878.37815.07452q.0924.01889.18422.04056a.51506.51506,0,0,1-.27823.13836.72385.72385,0,0,1-.4117-.10546.7806.7806,0,0,0-.47319-.0375c-.08987.0165-.17883.037-.269.05166a1.38618,1.38618,0,0,0-.2514.055.01139.01139,0,0,0,.00345.02159,1.50333,1.50333,0,0,0,.27851-.01883c.09064-.01063.18192-.01592.27286-.02357a.9.9,0,0,1,.286.007,1.39813,1.39813,0,0,1,.2333.09744.59358.59358,0,0,0,.41368.03281.55713.55713,0,0,0,.29749-.194l.08185.02062a.57373.57373,0,0,1,.16147.06066.32731.32731,0,0,1,.12149.112C7.26294,6.01721,7.29711,6.00887,7.29094,5.98725Z" /><path d="M7.39746,6.37245A1.04055,1.04055,0,0,0,7.357,6.2146a.78465.78465,0,0,0-.05349-.15618c-.00473-.00881-.02077-.00858-.021.00336a3.06764,3.06764,0,0,0,.05259.32975.22026.22026,0,0,1-.05556.16716c-.02177.0255-.039.04731-.013.07555a.02.02,0,0,0,.035-.01569c-.00677-.041.05922-.075.07777-.11282A.23108.23108,0,0,0,7.39746,6.37245Z" /><path d="M7.61407,5.66959a.17605.17605,0,0,0-.09979-.10138.58277.58277,0,0,0-.16318-.01027.0122.0122,0,0,0-.00243.02427.21977.21977,0,0,1,.18387.16785,1.14424,1.14424,0,0,1-.03377.309,2.42773,2.42773,0,0,0,.00159.30861.29923.29923,0,0,1-.09973.24987.02264.02264,0,0,0,.02339.038.26451.26451,0,0,0,.155-.223c.02508-.1365.0042-.27738.02621-.41513A.6101.6101,0,0,0,7.61407,5.66959Z" /><path d="M7.71408,5.48207a1.14049,1.14049,0,0,0-.13726-.26792.67028.67028,0,0,1-.11048-.2935c-.00678-.05036-.01173-.1037-.01375-.15723l.00157-.0064c.0118-.05176.02279-.10364.0358-.15512a.7882.7882,0,0,1,.04091-.14526c.0108-.02247-.02629-.04244-.039-.0206a1.12814,1.12814,0,0,0-.07059.12019,1.16039,1.16039,0,0,0-.04282.1251c-.02865.095-.05581.19-.08926.28346a2.20747,2.20747,0,0,1-.12015.27129.79485.79485,0,0,1-.06952.11219.54253.54253,0,0,0-.05517.0713c-.0244-.01266-.04875-.02528-.0727-.03823-.09105-.04924-.1804-.10122-.27193-.14972-.03076-.0163-.06141-.03363-.0924-.05039a.25347.25347,0,0,0,.0203-.0282,1.66658,1.66658,0,0,0,.0935-.16528c.05831-.12063.11185-.2437.17582-.36153a1.60754,1.60754,0,0,1,.19037-.28276c.07617-.08863.17712-.14609.25578-.23041.02076-.02225-.0067-.05776-.03311-.05331a.50726.50726,0,0,0-.25581.17065,1.46233,1.46233,0,0,0-.1994.26534c-.06189.10385-.11432.213-.16552.32244-.02654.0567-.054.11306-.07992.17-.01365.03-.02471.06065-.03751.09089A.28453.28453,0,0,1,6.54,5.1469a.696.696,0,0,0-.08026-.03273.78017.78017,0,0,0-.16538-.03363l.004-.00462A.41442.41442,0,0,0,6.34292,5.001c.03271-.06691.06284-.13526.09156-.204.05708-.13649.11151-.27421.17153-.40944a2.44427,2.44427,0,0,1,.20375-.38173.8426.8426,0,0,1,.11869-.14353.84832.84832,0,0,0,.13521-.12273A.01919.01919,0,0,0,7.05,3.70974c-.114-.0119-.2224.12215-.28348.20176a1.94028,1.94028,0,0,0-.2086.36274c-.03988.08529-.07673.172-.11229.25926a1.08385,1.08385,0,0,0-.469-.05278,1.10079,1.10079,0,0,0-.24031.04377c-.03809.0114-.07554.02419-.1124.03909a.59562.59562,0,0,0-.08633.04617,1.03555,1.03555,0,0,0-.00909-.13207c-.00571-.04157-.0054-.11806-.056-.13208a.35607.35607,0,0,0-.16986.02466.84718.84718,0,0,0-.19356.09175c-.01464.00884-.00564.032.01107.025a.88182.88182,0,0,1,.16229-.048c.04423-.0093.09127-.01121.13476-.02236A.02374.02374,0,0,0,5.44461,4.407L5.452,4.4478c.00331.02048.006.04106.00822.06169a1.2225,1.2225,0,0,1,.007.13322.99261.99261,0,0,0-.31431.00763c-.01427.00206-.01441.02632.00074.02594a.93931.93931,0,0,1,.31012.05389c.0408.01359.091.024.10753.06875a.23624.23624,0,0,1,.00165.11145c-.05067-.02717-.10152-.054-.15291-.07992-.09427-.04754-.1925-.08506-.28866-.12848-.01658-.00749-.02991.01811-.01486.02812.08514.05663.16644.11857.254.17151.08783.05312.177.1035.26641.15392a.96312.96312,0,0,0,.23214.11082,1.14178,1.14178,0,0,0,.268.01507,1.04286,1.04286,0,0,1,.26749.0275,1.26661,1.26661,0,0,1,.24828.11166c.08863.04639.17845.08971.26777.13465a2.61736,2.61736,0,0,0,.28829.14052.0351.0351,0,0,0,.03237-.06127,1.03928,1.03928,0,0,0-.098-.06205.53142.53142,0,0,0,.10707-.1518,2.04813,2.04813,0,0,0,.11685-.27276l.01745-.04918a.57338.57338,0,0,0,.06677.19637c-.00641.05828-.03165.11746.00445.17113a.15354.15354,0,0,0,.05635.04875c.02982.016.07063.01706.09758.0355a.02929.02929,0,0,0,.01777.00539l.00914.01988a.41748.41748,0,0,1,.02692.17063.28665.28665,0,0,0,.025.13613.01516.01516,0,0,0,.02771-.01226c-.01842-.05845.01617-.104.01842-.16179A.36569.36569,0,0,0,7.71408,5.48207ZM5.5583,4.66815l-.02114-.00764.00023-.01768c.02823-.00566.05789-.00924.08554-.01574.037-.00871.0743-.01653.11179-.02306a2.311,2.311,0,0,1,.23754-.02888,1.70393,1.70393,0,0,1,.23661.00182c.0382.00266.07629.00675.11444.00944.03247.0023.06389.00872.09574.01305L6.383,4.69015l-.032.0814a.43957.43957,0,0,0-.08966.011c-.03923.00492-.07775.00755-.11681.01489-.07369.01384-.14715.02854-.22061.04357-.07178.01469-.14452.02731-.21528.04651a.28286.28286,0,0,0-.04887.01747C5.66634,4.80917,5.66488,4.71025,5.5583,4.66815Zm.6817.4083-.03552-.00126a2.17048,2.17048,0,0,1-.274,0,.78806.78806,0,0,1-.25421-.109c.1036-.02093.20946-.0343.31328-.053.06669-.012.13357-.02377.19982-.038.03516-.00757.06893-.01976.10392-.02791l.03148-.007-.02231.06118c-.01267.03591-.02464.07214-.03781.10787C6.25792,5.02752,6.25,5.05456,6.24,5.07645Zm1.29344.28117A.12045.12045,0,0,1,7.48255,5.245c.02954.043.06318.08387.09343.12647A.18427.18427,0,0,1,7.53343,5.35762Z" /><path d="M3.93672,5.31222c-.12059.05018-.13913.2052-.18153.31233a.29751.29751,0,0,1-.12115.1556c-.06489.03841-.13777.06044-.20222.09889a.02116.02116,0,0,0,.01181.04006c.04118-.00425.07905-.01719.11946-.02507a.72474.72474,0,0,0,.11037-.02482.26433.26433,0,0,0,.14533-.129.8037.8037,0,0,0,.06084-.19061.87777.87777,0,0,1,.07992-.20953A.01888.01888,0,0,0,3.93672,5.31222Z" /><path d="M4.50024,5.62811a.30947.30947,0,0,0-.09782-.063.41876.41876,0,0,1-.11669-.0456c-.01395-.0119-.02806.00868-.02008.02153.058.09345.24235.134.20019.27849-.02221.07612-.10588.086-.19095.08842.10365-.12286-.00681-.29729-.096-.40455-.02083-.025-.05611.00536-.03853.03153a.63472.63472,0,0,1,.08647.1914.12048.12048,0,0,1-.01421.11812.21961.21961,0,0,1-.08317.0573A.44821.44821,0,0,1,3.96,5.92451a.25836.25836,0,0,0,.03592-.03062.31182.31182,0,0,0,.0839-.19126.72853.72853,0,0,0-.04748-.25847c-.00658-.02413-.04331-.01966-.03926.0062.02034.13017.02992.32323-.09783.40384-.11233.07089-.26468.04285-.37038.12584a.02865.02865,0,0,0,.02245.0501c.0729-.01258.14754-.02206.22041-.03584a.63891.63891,0,0,0,.12663.00529,1.074,1.074,0,0,0,.14346.01121.36023.36023,0,0,0,.12743-.02693c.14979.0248.35541.04774.40164-.13392A.23149.23149,0,0,0,4.50024,5.62811Z" /><path d="M4.1704,5.29268a.19759.19759,0,0,0-.02019-.046A.13177.13177,0,0,1,4.142,5.20036a.02064.02064,0,0,0-.03692-.00863.091.091,0,0,0-.01051.07139.06529.06529,0,0,0,.05066.05617A.02331.02331,0,0,0,4.1704,5.29268Z" /><path d="M4.9971,5.86038a.60326.60326,0,0,1-.15-.0762A.55572.55572,0,0,1,4.772,5.6657a.24305.24305,0,0,0-.19269-.13138.00933.00933,0,0,0-.00626.01674.77937.77937,0,0,1,.17519.23347.26094.26094,0,0,0,.23906.11826A.022.022,0,0,0,4.9971,5.86038Z" /><path d="M8.32934,5.6792a1.78043,1.78043,0,0,1-.2439-.09061.27606.27606,0,0,1-.12634-.16884A.17707.17707,0,0,0,8.035,5.40783a.0144.0144,0,0,0,.00247-.02469.22382.22382,0,0,0-.10056-.03423q-.012-.04086-.02252-.08216a.24429.24429,0,0,0,.22461.0906.01943.01943,0,0,0,.00371-.03712.52115.52115,0,0,1-.1575-.08462c-.02806-.02213-.06471-.04679-.09568-.074-.02165-.09847-.0396-.19789-.05845-.29645-.03428-.17924-.06659-.3592-.11753-.53465-.03471-.11957-.1052-.29907-.26253-.26962a.00752.00752,0,0,0-.00144.01438c.09216.03026.12355.11388.1509.19834s.048.17158.06692.25819c.0398.18176.06577.36606.10263.54837.01807.08935.03811.17836.06258.2662a.73907.73907,0,0,0,.08408.21859.446.446,0,0,0,.40778.16272A.02538.02538,0,0,0,8.32934,5.6792Z" /><path d="M7.32311,3.95562A.66331.66331,0,0,0,7.278,3.84919a.30746.30746,0,0,0-.05762-.07251c-.023-.02079-.0513-.02925-.07589-.0477-.00966-.00725-.02411.00733-.01489.016a.48252.48252,0,0,1,.08606.16344c.01923.04819.02683.12369.08137.14292a.02723.02723,0,0,0,.03429-.0157A.0964.0964,0,0,0,7.32311,3.95562Z" /><path d="M8.24821,5.77847a.23311.23311,0,0,1-.12179.00331.584.584,0,0,0-.11974.00088.69939.69939,0,0,0-.11676.02362.31942.31942,0,0,1-.1264.02294.01525.01525,0,0,0-.01026.02744.15151.15151,0,0,0,.10208.02729c.04809-.00352.09612-.01361.14426-.01817A.654.654,0,0,0,8.26,5.8051.01457.01457,0,0,0,8.24821,5.77847Z" /><path d="M2.21607,4.17446a.05984.05984,0,0,0-.01917.03527.06916.06916,0,0,0,.00483.03907c.00583.01633.02986.01045.03175-.00508a.3786.3786,0,0,0,.00811-.05955C2.2411,4.17156,2.22458,4.16792,2.21607,4.17446Z" /></svg>