<svg xmlns="http://www.w3.org/2000/svg" data-name="Layer 1" viewBox="3.492665245216937 1.7865057103764599 3.02008800147932 6.426026277316197" x="0px" y="0px"><title>KAMASUTRA</title><path d="M4.31142,4.75946a.21323.21323,0,0,1-.1701.03849c-.06754-.00131-.136-.00917-.203-.01725a.36945.36945,0,0,1-.18417-.06432.35727.35727,0,0,1-.11962-.1548.99619.99619,0,0,1-.04709-.21383,1.2367,1.2367,0,0,1-.01834-.213.916.916,0,0,1,.0415-.19095.74523.74523,0,0,0,.025-.18035c.0003-.0141-.021-.01663-.02208-.00221-.00877.11529-.09647.21191-.11931.32506a1.1243,1.1243,0,0,0,.04459.37768.52306.52306,0,0,0,.03708.17951.4068.4068,0,0,0,.11867.12186.40182.40182,0,0,0,.10148.07194,1.10277,1.10277,0,0,0-.01025.27212,1.31645,1.31645,0,0,0,.07292.31589,1.29008,1.29008,0,0,1,.04692.31974c.006.11181.00981.22371.01592.33551a2.07885,2.07885,0,0,1,.00762.33938c-.01235.11172-.04706.21892-.0557.33149-.01673.21795.01678.43522.01906.653.00115.10993-.016.21742-.019.32681a.23622.23622,0,0,0,.09485.234c.0236.01235.05521-.02049.041-.04358a.29387.29387,0,0,1-.04493-.09889.42826.42826,0,0,1-.00064-.11921,2.64429,2.64429,0,0,0,.02176-.28982c-.00168-.215-.03391-.42988-.01813-.64495.00787-.10735.03772-.20943.053-.31545a1.58294,1.58294,0,0,0-.00175-.31391Q4.00936,5.976,3.998,5.81285a2.10824,2.10824,0,0,0-.03166-.322c-.02529-.11214-.07541-.2172-.10012-.32939a1.07765,1.07765,0,0,1-.02171-.17438c-.00247-.04619-.00109-.093-.00453-.13923l.00047.00005c.03.00235.061-.00184.09117-.00062.03464.0014.06915.00428.10371.00693A.31242.31242,0,0,0,4.32916,4.776C4.33769,4.76537,4.32149,4.74991,4.31142,4.75946Z" /><path d="M5.22186,4.41846a.02815.02815,0,0,0-.05028-.01176.7222.7222,0,0,0-.06768.16388c-.02242.05752-.04526.11468-.07139.17064a2.05743,2.05743,0,0,1-.18092.31393.436.436,0,0,1-.2403.19724.27124.27124,0,0,1-.24112-.07412c-.00562-.005-.01266.00174-.01234.00766a.17052.17052,0,0,0,.15214.1432c-.01026.019-.0158.04077-.02746.0599a.26121.26121,0,0,1-.0613.06875.29612.29612,0,0,1-.0857.04581.26717.26717,0,0,1-.12088.02211c-.01173-.00206-.01659.01782-.00477.02055a.36726.36726,0,0,0,.12379.02244.26871.26871,0,0,0,.12448-.04553l.001-.00071-.01053.04889c-.01553.076-.03091.15185-.04267.2285-.02386.15549-.04488.31148-.06709.46721-.0227.15921-.03484.31848-.064.477-.02858.15542-.05187.31151-.07319.46809-.012.08792-.02308.17542-.02948.26395-.00661.09139-.01947.18149-.01941.27329,0,.02619.03995.04088.04853.01125.02167-.07482.03417-.15036.04871-.22672.00938-.04925.01964-.09814.02888-.14727a.15233.15233,0,0,0,.08594-.01248.12465.12465,0,0,0,.0326-.02462.15863.15863,0,0,0,.02358-.04062.01369.01369,0,0,0-.01975-.01842.38812.38812,0,0,1-.1105.02808l.00344-.02212c.01572-.10709.03139-.21418.04517-.32152.00795.01809.01587.03552.02232.05178.02894.0729.06777.14167.10217.21206a.01346.01346,0,0,0,.02548-.00752,1.86432,1.86432,0,0,0-.04775-.231A.45566.45566,0,0,0,4.35895,6.809c.0076-.07371.01338-.14768.02445-.221.012-.07958.02884-.15817.0411-.23762l.00616-.0414c.00643.01874.01288.03719.01813.05516.01953.06684.03817.13394.05534.20143q.05349.21028.08965.42457a1.17768,1.17768,0,0,0,.04184.18308,1.0318,1.0318,0,0,1,.0683.18968.1033.1033,0,0,1-.05473.12144.56493.56493,0,0,1-.14721.03354c-.01429.00263-.01857.02528-.003.02977.09117.02625.23019.02109.27735-.07747a.18452.18452,0,0,0-.02128-.17863.6193.6193,0,0,1-.06553-.21719,4.5228,4.5228,0,0,0-.09183-.47494c-.019-.07623-.03958-.15212-.06236-.22731a.63588.63588,0,0,0-.08272-.21486c.01278-.09137.02513-.18281.03811-.27414.01282-.09023.02355-.18041.03228-.27113.00423-.04395.00831-.0878.01121-.13186L4.535,5.45143a.17389.17389,0,0,0,.04614-.116.4146.4146,0,0,0,.28851-.17028,1.77456,1.77456,0,0,0,.21628-.349,2.06391,2.06391,0,0,0,.08589-.19659A.52154.52154,0,0,0,5.22186,4.41846Z" /><path d="M4.40132,7.504a.33118.33118,0,0,0-.07715.11059l-.069.12457a1.05841,1.05841,0,0,1-.06389.10665c-.00963.01345-.074.10042-.08939.09219-.01365-.00729-.03259.00794-.02028.02175.08962.10052.35919-.35684.36206-.433A.02637.02637,0,0,0,4.40132,7.504Z" /><path d="M4.77366,6.45692A1.01538,1.01538,0,0,0,4.753,6.3395c-.01246-.0389-.02772-.07693-.04-.11593a2.29788,2.29788,0,0,1-.06243-.25213c-.03246-.16687-.03734-.33741-.069-.50431a.00861.00861,0,0,0-.017.00049,2.52294,2.52294,0,0,0,.01316.5228,1.57681,1.57681,0,0,0,.0468.25166.99265.99265,0,0,0,.04.12218.40873.40873,0,0,0,.07872.10633A.01744.01744,0,0,0,4.77366,6.45692Z" /><path d="M5.21745,7.50473c-.03185-.11361-.06829-.22437-.11049-.3346-.044-.11493-.08342-.23166-.12536-.34736a1.45385,1.45385,0,0,0-.14772-.323c-.00785-.01169-.0243-.0014-.02319.01039a1.43663,1.43663,0,0,0,.08949.33947c.03993.11348.08271.22614.12061.3403.03605.10861.07816.2143.11758.32161.0396.1078.05721.222.09043.33169.006.01976.034.0111.03655-.00584A.78177.78177,0,0,0,5.21745,7.50473Z" /><path d="M5.21132,7.89891a1.6363,1.6363,0,0,0-.08828.1385.18406.18406,0,0,0-.04752.12659.02.02,0,0,0,.02761.015A.18725.18725,0,0,0,5.177,8.0659c.01783-.05176.04852-.09927.06266-.152A.01623.01623,0,0,0,5.21132,7.89891Z" /><path d="M5.52712,7.62405a.02857.02857,0,0,0-.04991.02236.61859.61859,0,0,1-.012.16266c-.00579.03179-.01194.06332-.01611.09539-.00391.03006-.00248.0607-.00767.0903a.224.224,0,0,1-.03444.08671.19161.19161,0,0,1-.0532.045.51131.51131,0,0,1-.162.06133.0105.0105,0,0,0,.00058.01927.38381.38381,0,0,0,.19232-.01644.13149.13149,0,0,0,.09883-.13438C5.49232,7.92222,5.62892,7.75312,5.52712,7.62405Z" /><path d="M5.2645,4.73772c-.00167-.04234-.01-.08408-.00756-.12655.00067-.01188-.01775-.01377-.01842-.00184-.00426.0756-.02915.15216-.03966.22754-.01062.07612-.01979.15241-.02845.22877q-.02506.22087-.06112.44028a1.33458,1.33458,0,0,0,.00767.82291.01669.01669,0,0,0,.0316-.00932,2.52051,2.52051,0,0,1,.04627-.82981c.0224-.1436.04188-.28789.05626-.43253.00707-.07109.01187-.14228.01382-.21369C5.26588,4.80833,5.26589,4.77288,5.2645,4.73772Z" /><path d="M5.44977,7.3865c-.0069-.05628-.00822-.11326-.01243-.16978-.00825-.1107-.01123-.22184-.02406-.33218a.67391.67391,0,0,0-.23026-.5058c-.00957-.00614-.02491.00373-.01862.01524a1.4823,1.4823,0,0,1,.1156.24908,1.33886,1.33886,0,0,1,.05563.28783c.01024.107.01315.21463.02323.32169a1.26948,1.26948,0,0,0,.02887.1593.329.329,0,0,0,.05432.13839.01446.01446,0,0,0,.02532-.00764A.838.838,0,0,0,5.44977,7.3865Z" /><path d="M4.98793,6.36962a.20505.20505,0,0,0-.01271-.08977.01055.01055,0,0,0-.018-.0018.17714.17714,0,0,0-.02733.0927.19944.19944,0,0,0,.00635.10235.024.024,0,0,0,.044-.00133A.25834.25834,0,0,0,4.98793,6.36962Z" /><path d="M4.09221,4.39208a.36642.36642,0,0,0-.18233.03644.4343.4343,0,0,0-.07918.045l-.02262.01768A.32423.32423,0,0,1,3.789,4.43c-.01078-.034-.024-.06773-.03714-.10085-.02768-.06967-.067-.13226-.09911-.19972-.00486-.01021-.02271-.006-.0198.00584.02236.09135.03612.18155.06743.27081a.29022.29022,0,0,0,.05784.11612.02869.02869,0,0,1-.02025.00091c-.00993-.00427-.01546.01114-.00581.01563.027.01258.03944.02951.07244.02158a.36821.36821,0,0,0,.08871-.05045c.06514-.0366.14144-.04213.205-.07952A.02023.02023,0,0,0,4.09221,4.39208Z" /><path d="M4.32785,4.621a.43874.43874,0,0,0-.19171-.05107L4.089,4.56735c-.01156-.00036-.04613.00582-.0554.00006L4.031,4.57212l.00731-.02426A.15359.15359,0,0,1,4.059,4.49323c.00709-.00879-.0066-.022-.01475-.01376-.02678.027-.06237.04012-.07484.08007a.052.052,0,0,0,.0363.07012.34521.34521,0,0,0,.069.00165q.03934.001.0785.00492a1.50077,1.50077,0,0,0,.164.01321C4.33094,4.64934,4.34307,4.62963,4.32785,4.621Z" /><path d="M4.28059,4.6954c-.02331.00251-.04661.00445-.06983.00777a.3422.3422,0,0,1-.07769.00852.00719.00719,0,0,0-.00143.01431c.02643.00228.05209.01009.07882.00985a.22611.22611,0,0,0,.07725-.01628C4.30175,4.71437,4.29435,4.69391,4.28059,4.6954Z" /><path d="M4.63426,4.33309c.01712-.03815.03678-.07444.0563-.11138a1.16268,1.16268,0,0,0,.05422-.13178c.00416-.01083-.01016-.017-.017-.009a1.383,1.383,0,0,0-.15163.20526L4.57707,4.274c.00647-.088.01637-.17575.01991-.264a1.12227,1.12227,0,0,0-.001-.11965c-.00323-.04826-.01788-.09273-.02429-.14-.00178-.01312-.02122-.00973-.02011.00318a.71125.71125,0,0,1-.01419.14639c-.00615.04754-.01333.095-.02111.14228a2.30184,2.30184,0,0,0-.03347.27862.31523.31523,0,0,0,.0439.20763c.044.05858.11359.07238.17107.11077.01436.00959.04-.0021.03464-.02152-.0183-.06678-.06836-.08377-.11614-.12567a.11267.11267,0,0,1-.02793-.03826l.00052-.00117C4.60555,4.41331,4.61668,4.37227,4.63426,4.33309Z" /><path d="M5.85842,3.90275a.36328.36328,0,0,1-.31362-.01418c-.11422-.04547-.19637-.13764-.30632-.18883A.55717.55717,0,0,0,5.09705,3.666.50805.50805,0,0,0,4.951,3.65938a.36633.36633,0,0,0-.144.04841.49317.49317,0,0,0-.10891.10445c-.00668.00715.00192.0189.01.01219a.434.434,0,0,1,.14822-.06411.71311.71311,0,0,1,.15416-.03026.29426.29426,0,0,1,.156.02723.68985.68985,0,0,1,.13989.08808.99464.99464,0,0,0,.12088.08286c-.01185.035-.01315.075-.02422.11016a.63925.63925,0,0,1-.05337.12532.48956.48956,0,0,1-.083.10708c-.01273.01238-.031.03449-.04966.03808-.02127.00411-.05-.01956-.068-.02955a1.65809,1.65809,0,0,1-.22561-.15278c-.03684-.02914-.07076-.062-.10533-.09371-.03609-.03314-.077-.05958-.11442-.091-.0101-.00849-.02276.00662-.01531.01642a1.56077,1.56077,0,0,0,.103.13429c.03762.0398.07749.07788.11763.11513a.64531.64531,0,0,0,.28636.16889c.099.02029.1788-.09823.22094-.17381a.48512.48512,0,0,0,.05356-.14206A.383.383,0,0,0,5.48,3.95606a.66207.66207,0,0,0,.14956.05071c.08946.0187.21793.02447.2595-.0752C5.89615,3.91453,5.87566,3.89288,5.85842,3.90275Z" /><path d="M4.82588,3.364a.43555.43555,0,0,0-.09288.025.21323.21323,0,0,0-.08819.04475.32084.32084,0,0,0-.05591.09963.77442.77442,0,0,0-.0594.13178c-.00166.00659.00462.01567.01212.0114a.3375.3375,0,0,0,.08815-.08026.36368.36368,0,0,0,.03868-.05424.20465.20465,0,0,1,.03283-.05546c.0448-.04046.1347-.02663.148-.10056A.02052.02052,0,0,0,4.82588,3.364Z" /><path d="M6.44989,1.95711a.0179.0179,0,0,0-.03419-.00342c-.01051.02627-.027.04834-.03882.074a.30658.30658,0,0,1-.05476.08067,1.30933,1.30933,0,0,1-.1542.12125,1.42736,1.42736,0,0,0-.25345.30819,4.18825,4.18825,0,0,1-.52078.611c-.06711-.07544-.17307-.07784-.26687-.11176a.35663.35663,0,0,1-.0778-.03882A.08878.08878,0,0,1,4.99995,2.924a1.2475,1.2475,0,0,1-.008-.19656.10932.10932,0,0,0,.02-.1018.0195.0195,0,0,0-.03-.00715c-.03781.03157-.05809.0796-.09473.11318-.0466.04271-.10876.0404-.16392.06319a.014.014,0,0,0,.00078.02566.25412.25412,0,0,0,.22842-.05315.92918.92918,0,0,0-.03317.15894.14048.14048,0,0,0,.094.15216c.05886.02478.12332.034.18214.05786.047.019.09424.04163.14.06508a1.37015,1.37015,0,0,1-.14115.10724q-.04748.03123-.09628.0603a.19519.19519,0,0,0-.03789.027c-.03042-.02064-.05986-.04351-.09208-.06523a.35844.35844,0,0,0-.24325-.0693.01054.01054,0,0,0-.00439.01877.525.525,0,0,0,.11108.05428.60584.60584,0,0,1,.11173.06689.6262.6262,0,0,0,.20983.12251,1.79786,1.79786,0,0,0,.22432.04066.64346.64346,0,0,1,.10867.02379.78.78,0,0,1,.11193.03727c.02053.01058.03978-.01973.02561-.03583a.24247.24247,0,0,0-.08563-.07261.50606.50606,0,0,0-.10953-.02848c-.08068-.014-.164-.01255-.24354-.03282a.32112.32112,0,0,1-.05313-.01881A.61472.61472,0,0,0,5.21381,3.396a1.00058,1.00058,0,0,0,.16649-.11573,2.73482,2.73482,0,0,0,.2952-.30933A3.52344,3.52344,0,0,0,5.948,2.6181,1.34024,1.34024,0,0,1,6.21859,2.28a1.31779,1.31779,0,0,0,.16676-.14568.355.355,0,0,0,.05773-.082A.15743.15743,0,0,0,6.44989,1.95711Z" /><path d="M4.74013,3.56207c-.00721.00781-.021.01049-.03008.01655-.01121.00744-.02214.01591-.033.02389a.12294.12294,0,0,0-.04339.0653c-.01035.02809.02161.0446.04341.031a.13691.13691,0,0,0,.03106-.02138A.12306.12306,0,0,0,4.72993,3.645l.01288-.02872a.29619.29619,0,0,1,.01469-.04188C4.76573,3.56292,4.74914,3.55232,4.74013,3.56207Z" /><path d="M6.50386,2.02623c-.00124-.00609-.011-.0082-.013-.0013a1.1225,1.1225,0,0,1-.0886.22528,1.755,1.755,0,0,0-.10157.18348,1.17833,1.17833,0,0,0-.028.1846.06177.06177,0,0,1-.06458.05423c-.03226.00087-.06281-.001-.09526.00246a.02584.02584,0,0,0-.01079.04614.16723.16723,0,0,0,.20257.008c.06454-.05.05662-.132.06334-.2045a.76851.76851,0,0,1,.10695-.236A.42692.42692,0,0,0,6.50386,2.02623Z" /><path d="M6.03948,2.80721c-.01735.03756-.04786.069-.06815.10538-.01446.02591-.027.05293-.04007.07953a1.20387,1.20387,0,0,1-.1019.17816c-.03835.05286-.07869.10382-.122.15273l-.06056.06773c-.02184.02439-.04819.04471-.04944.07924a.033.033,0,0,0,.03737.0353.07462.07462,0,0,0,.04241-.02165c.05028.11038.12368.20952.17194.32061.00436.01.02193.00555.01892-.00558A1.35657,1.35657,0,0,0,5.73694,3.418l.0405-.04537a1.0038,1.0038,0,0,0,.12206-.16187A1.75,1.75,0,0,0,5.984,3.02905c.01471-.03478.03107-.0694.04295-.10527a1.09576,1.09576,0,0,1,.03121-.10964C6.06342,2.80246,6.04482,2.79564,6.03948,2.80721Z" /><path d="M4.45,2.36008a.1066.1066,0,0,0-.04785-.07031.25529.25529,0,0,0-.07437-.03043.8666.8666,0,0,0-.21549-.02109.36991.36991,0,0,0-.313.16561.66413.66413,0,0,0-.11481.347,1.43683,1.43683,0,0,0,.00672.22062.35317.35317,0,0,0-.10186.2473c-.00194.10715.01969.213.02313.31965.00032.01.01681.00935.01744-.0005.0063-.09835.02317-.19727.03329-.29548a.45146.45146,0,0,1,.03373-.1349l.00724-.0161.00065.00521a.78738.78738,0,0,1,.01845.13825c-.00062.013.0193.01517.02025.002.00268-.03694.0141-.07358.01909-.11042a.91945.91945,0,0,0,.00655-.09529c.00208-.06642.00188-.13289.00476-.19929a.7398.7398,0,0,1,.07237-.323.35939.35939,0,0,1,.223-.1829A.29322.29322,0,0,1,4.14278,2.315l-.01391.00989a.35321.35321,0,0,0-.09682.11387.59624.59624,0,0,0-.05781.15978.58877.58877,0,0,0-.01239.07566c-.00309.033.00446.067-.00064.09947-.00218.01384.01946.01595.02162.00216a.506.506,0,0,1,.03038-.082c.00823-.02388.01547-.0481.02393-.07192A.64464.64464,0,0,1,4.101,2.48751a.60557.60557,0,0,1,.07521-.09494c.0245-.0253.05618-.04146.08209-.06377L4.2756,2.333a.36237.36237,0,0,1,.06672.02119.23615.23615,0,0,1,.05827.03626A.0294.0294,0,0,0,4.45,2.36008Z" /><path d="M4.6139,3.17751a.42835.42835,0,0,0-.0638-.041.79666.79666,0,0,0,.08521-.33976.86166.86166,0,0,0-.02711-.22445.38012.38012,0,0,0-.03674-.09587.4.4,0,0,0-.067-.07361c-.00872-.00928-.02418.00325-.0154.0126a.24742.24742,0,0,1,.04.09421.57072.57072,0,0,1,.01711.08624.82919.82919,0,0,1-.00336.20681.94878.94878,0,0,1-.12328.362c-.063.10743-.13841.20707-.20062.31506a.89358.89358,0,0,0-.11925.3561,1.45086,1.45086,0,0,0-.00809.22025c.00171.03787.00554.07571.00571.11365a.95523.95523,0,0,0-.00225.1137.02815.02815,0,0,0,.05028.01176.30828.30828,0,0,0,.02191-.18895A.93657.93657,0,0,1,4.17074,3.896a1.10058,1.10058,0,0,1,.156-.38282c.05992-.09881.12623-.1955.182-.29628a.3818.3818,0,0,0,.06944.02831.11066.11066,0,0,0,.07673.0036.01135.01135,0,0,0,.00647-.01188A.1125.1125,0,0,0,4.6139,3.17751Z" /><path d="M4.25273,3.1364a2.54618,2.54618,0,0,0-.17226.24955,1.41354,1.41354,0,0,0-.11017.27086.91487.91487,0,0,0-.04125.27906.569.569,0,0,0,.02108.14529,1.14548,1.14548,0,0,0,.05692.127c.00553.01283.02362.00413.01946-.00861a.54939.54939,0,0,1-.01429-.14308,1.25468,1.25468,0,0,1,.00232-.1378A1.05587,1.05587,0,0,1,4.0674,3.653a2.18005,2.18005,0,0,1,.10593-.2437c.04-.08383.07232-.17206.11336-.255C4.29655,3.13444,4.265,3.11875,4.25273,3.1364Z" /><path d="M4.43382,2.58173a1.23,1.23,0,0,0-.07-.15646c-.00541-.01273-.02405-.00413-.01946.00861a.53994.53994,0,0,1,.01537.16167,1.03507,1.03507,0,0,1-.0053.14669.95946.95946,0,0,1-.02611.13977.35652.35652,0,0,0-.0297.13889.02878.02878,0,0,0,.03977.02166.20682.20682,0,0,0,.08178-.12638.61153.61153,0,0,0,.01369-.33445Z" /><path d="M4.21172,2.62479c-.09871.249-.21084.4924-.32173.736a1.56211,1.56211,0,0,0-.12015.36639.74335.74335,0,0,0-.01454.17869.51206.51206,0,0,0,.05259.18067A.02015.02015,0,0,0,3.846,4.07531a.91832.91832,0,0,1-.00358-.1871.87639.87639,0,0,1,.0254-.18561,2.15317,2.15317,0,0,1,.139-.3487A3.07333,3.07333,0,0,0,4.15039,2.999c.03786-.12008.05653-.24626.08366-.369C4.23695,2.61683,4.21639,2.613,4.21172,2.62479Z" /><path d="M3.88454,2.88536a3.794,3.794,0,0,1-.13672.41688.86265.86265,0,0,0-.04228.40494.01876.01876,0,0,0,.037-.00106,2.70578,2.70578,0,0,1,.08708-.4128,2.72853,2.72853,0,0,0,.07559-.40589C3.9067,2.8739,3.887,2.87239,3.88454,2.88536Z" /><path d="M5.15552,2.07225a.4384.4384,0,0,0-.2577-.24709A.40164.40164,0,0,0,4.562,1.82147a.30209.30209,0,0,0-.1099.10089.32592.32592,0,0,0-.04376.14053c-.00265.01344.01854.01546.02117.00212a.221.221,0,0,1,.07885-.10578.39475.39475,0,0,1,.10876-.05678.36629.36629,0,0,1,.44332.2284c.01024.051.01014.1042.0166.15572.00284.02266.00884.0431.013.06469a.09971.09971,0,0,1,.00155.02023.02458.02458,0,0,0-.03365.01279c-.01333.02646-.00282.04767.00282.07428A.082.082,0,0,1,5.04464,2.53c-.013.01635.00806.04436.02706.03307A.11163.11163,0,0,0,5.125,2.48327a.13228.13228,0,0,0-.01018-.09012A.22224.22224,0,0,1,5.13157,2.343a.33227.33227,0,0,0,.02863-.08138A.38.38,0,0,0,5.15552,2.07225Z" /><path d="M4.98888,2.27277c-.01341-.01981.00665-.05541.00094-.07939A.07978.07978,0,0,0,4.95,2.14266a.27788.27788,0,0,0-.15563-.00913c-.04823.00288-.12147.01423-.16016-.02161-.01181-.01094-.0455-.07128-.06725-.05544-.03054.02224-.00706.08183.00778.10792a.134.134,0,0,0,.11754.063,1.69036,1.69036,0,0,0,.17217-.01306.08078.08078,0,0,1,.047.00275c.0113.00753.01206.02171.01776.03266a.11642.11642,0,0,0,.0428.041A.01254.01254,0,0,0,4.98888,2.27277Z" /><path d="M4.85728,2.44186a.09819.09819,0,0,0-.05659-.02028l-.02522-.00739c-.00875-.00208-.01781-.00174-.02669-.00349a.01046.01046,0,0,0-.01055.01457.119.119,0,0,0,.015.02493.12872.12872,0,0,0,.02632.01955.075.075,0,0,0,.06749.01489A.02782.02782,0,0,0,4.85728,2.44186Z" /></svg>