<svg xmlns="http://www.w3.org/2000/svg" viewBox="6.269947547069158 19.44899999999999 115.54441361389058 88.23477589050208" x="0px" y="0px"><g><path d="M95.984,82.318l-.232.239a2,2,0,0,0-.159.261,2.488,2.488,0,0,0-.217.557,4.175,4.175,0,0,0-.05.6,6.943,6.943,0,0,0,.52,2.322c.275.709.579,1.338.861,1.91.073.144.145.282.21.419a1.863,1.863,0,0,1,.1.2,31.174,31.174,0,0,1,1.693-7.516c.969-2.59,2.156-5.273.571-7.979-.513-.882-1.02-1.772-1.511-2.662-.145.449-.29.9-.434,1.382a2.624,2.624,0,0,1-2.612,1.808,1.338,1.338,0,0,0-.34.875,1.582,1.582,0,0,0,.485.963,4,4,0,0,0,1,.752c.094.05.181.1.275.145l.174.079a2.536,2.536,0,0,0,.332.123c.456.145.905.282,1.353.42l-1.136.9c-.086.079-.166.152-.238.231a1.3,1.3,0,0,0-.116.123l-.188.224a2.776,2.776,0,0,0-.506.941,1.149,1.149,0,0,0,.043.817.85.85,0,0,0,.108.167l.058.086c.044.036.13.1.188.152.254.2.594.42.905.637-.21.144-.427.3-.637.448A3.238,3.238,0,0,0,95.984,82.318Z" /><path d="M67.881,97a85.306,85.306,0,0,1,11.125,3.32c4.312,1.6,8.652,3.458,13.187,4.319a35.363,35.363,0,0,0,7.574.593,23.1,23.1,0,0,1-3-11.523,1.37,1.37,0,0,0-.593.123,1.565,1.565,0,0,0-.622.571,5.6,5.6,0,0,0-.593,1.866c-.051.34-.1.673-.152.991-.051.282-.1.557-.145.832l-.087.456c-.014.029-.007.087-.029.1l-.108-.043-.21-.08c-.275-.094-.586-.224-.832-.3a3.615,3.615,0,0,0-.383-.1,2.965,2.965,0,0,0-.738-.065,2.134,2.134,0,0,0-1.924,1.353c-.044.087-.065.181-.1.268l-.051.137-.043.246c-.029.166-.058.333-.087.492-.029.181-.051.354-.073.528l-.021.13-.008.065c0,.022,0,.051-.021.022l-.21-.159c-.137-.1-.268-.195-.405-.3a3.344,3.344,0,0,0-.4-.282l-.145-.065-.1-.051a3.6,3.6,0,0,0-1.512-.246,2.578,2.578,0,0,0-.6.058,1.983,1.983,0,0,0-.463.1,3.56,3.56,0,0,0-.579.195c-.13.043-.21.051-.232.022s0-.094.1-.2a1.715,1.715,0,0,1,.549-.405,1.889,1.889,0,0,1,.5-.217A3.142,3.142,0,0,1,87.1,99.6c.108-.022.217-.029.333-.044a1.467,1.467,0,0,0,.079-1.1.375.375,0,0,0-.34-.261,1,1,0,0,0-.622.254l-.593.441-.145-.767a23.439,23.439,0,0,0-.709-3.031,5.762,5.762,0,0,0-.7-1.476,2,2,0,0,0-1.093-.839c-.13-.014-.282-.043-.39-.043-.08.022-.138,0-.232.022a1.943,1.943,0,0,0-.535.2,3.368,3.368,0,0,0-.933.883,9.854,9.854,0,0,0-1.23,2.3L79.5,97.386l-.463-1.2a1.249,1.249,0,0,0-.926-.8c-.3-.036-.52.275-.622.644l-.593,2.126-.043-1.179c-.007-.065-.022-.137-.036-.224a4.336,4.336,0,0,0-.673-1.635,3.331,3.331,0,0,0-.977-.984,1.959,1.959,0,0,0-.716-.26,1.37,1.37,0,0,0-.383.007,1.094,1.094,0,0,0-.2.051l-.043.014-.08.022L73.69,94l-.254.13c-.166.08-.332.166-.5.253-.115.109-.1-.087-.137-.152l-.087-.282c-.116-.354-.246-.767-.3-.875A5.594,5.594,0,0,0,71.838,92a2.3,2.3,0,0,0-2.084-1.092A12.747,12.747,0,0,0,67.881,97Z" /><path d="M75.737,86.622a9.006,9.006,0,0,0-5.252,3.248,3.067,3.067,0,0,1,.991.348,3.632,3.632,0,0,1,1.237,1.172,6.017,6.017,0,0,1,.666,1.3,1.162,1.162,0,0,1,.1.3c0,.022.007.022.021.015l.094-.029a2.761,2.761,0,0,1,.341-.072,2.477,2.477,0,0,1,.665.029,2.726,2.726,0,0,1,1.063.448,3.9,3.9,0,0,1,1.114,1.3,2.763,2.763,0,0,1,.333.39,1.281,1.281,0,0,1,.955-.557,1.886,1.886,0,0,1,1.259.434,8.2,8.2,0,0,1,.955-1.8,4.326,4.326,0,0,1,1.258-1.222,2.671,2.671,0,0,1,.941-.362,2.844,2.844,0,0,1,.564-.043c.159.007.275.036.419.05a3.023,3.023,0,0,1,1.932,1.368,6.612,6.612,0,0,1,.81,1.808,15.646,15.646,0,0,1,.485,2.626,1.482,1.482,0,0,1,.622-.022,1.183,1.183,0,0,1,.911.883,1.782,1.782,0,0,1-.195,1.294,1.6,1.6,0,0,0,.152.051,4.086,4.086,0,0,1,.774.159c.072.029.152.058.231.087.015.007.044.014.058.022l.051.029c.021.021.036.021.029-.015v-.079l.021-.131.008-.065.05-.166a3.071,3.071,0,0,1,.116-.347,3.244,3.244,0,0,1,.948-1.338,3.1,3.1,0,0,1,1.75-.666,3.816,3.816,0,0,1,.991.058,2.78,2.78,0,0,1,.485.123c.058.014.029,0,.043.007s0,.029.029-.145c.044-.325.087-.658.145-1.012a6.336,6.336,0,0,1,.723-2.264,2.686,2.686,0,0,1,1.078-.984,2.448,2.448,0,0,1,1.049-.225c.007-.846.058-1.685.13-2.51-.108-.188-.2-.361-.311-.564-.174-.311-.362-.636-.557-.984a19.948,19.948,0,0,1-.984-1.938,7.625,7.625,0,0,1-.665-2.641,4.422,4.422,0,0,1,.058-.81,3.3,3.3,0,0,1,.3-.824,3.5,3.5,0,0,1,.232-.391l.3-.326c.145-.159.1-.115.116-.13a.1.1,0,0,1,.022-.014.389.389,0,0,1-.08-.058c-.014-.022-.014-.015-.043-.043l-.116-.152a1.258,1.258,0,0,1-.21-.326,2.231,2.231,0,0,1-.137-1.555,3.92,3.92,0,0,1,.68-1.317c.072-.094.152-.188.231-.282l.116-.123a.024.024,0,0,0,.007-.014l-.014-.007-.138-.058c-.115-.051-.224-.1-.34-.16a5.037,5.037,0,0,1-1.266-.962,2.243,2.243,0,0,1-.173-.2,3.317,3.317,0,0,1-.666.774,4.674,4.674,0,0,1-1.454.81,5.923,5.923,0,0,1-.759.2l-.383.065-.095.014h-.029l-.05.007c-.036.008-.08,0-.1.015l-.015.079v.044l-.051.188-.1.369a3.875,3.875,0,0,1-1.866,2.221,2.7,2.7,0,0,1-2.749-.152,3.688,3.688,0,0,1-.506-.42c-.116-.13-.311-.34-.311-.354-.022-.022-.058-.1-.073-.087l-.021.014c-.022.015.014-.014-.058.044a8.385,8.385,0,0,1-1.686,1.222,1.618,1.618,0,0,1-1.222.058l-.268-.137a.233.233,0,0,1-.072-.044l-.029-.029a.524.524,0,0,1-.072-.072c-.029-.036-.051.036-.073.065a.26.26,0,0,0-.021.058c-.022.072-.058.159-.08.246-.094.347-.166.7-.239,1.049a5.34,5.34,0,0,1-.651,1.975.928.928,0,0,1-.246.224,2.219,2.219,0,0,1-.231.108,1.409,1.409,0,0,1-.478.138.518.518,0,0,1-.275-.007.708.708,0,0,1-.217-.058C78.276,85.971,77.278,86.3,75.737,86.622Zm15.61,8.29a1.865,1.865,0,0,1-1.562,0,2.144,2.144,0,0,1-.4-.188.562.562,0,0,1-.051.087,1.327,1.327,0,0,1-.369.42,1.408,1.408,0,0,1-.55.2,1.233,1.233,0,0,1-.5-.036,1.188,1.188,0,0,1-.39-.138l-.167-.086-.079-.044-.022-.007-.072-.051-.008-.007-.021-.022a1.534,1.534,0,0,1-.261-.253,2.431,2.431,0,0,1-.492-1.244,5.23,5.23,0,0,1-.021-1c.108-1.165.376-1.816.535-1.816.181.014.217.738.326,1.8a5.718,5.718,0,0,0,.159.818,1.59,1.59,0,0,0,.311.665c0,.015.065.065.137.116l.007.007.051.015.087.043a.4.4,0,0,0,.166.043.11.11,0,0,0,.094.008c.029-.008,0,.014.036-.051a.309.309,0,0,0,.051-.137.519.519,0,0,0,.029-.2l.014-.137.109-1.3.9.832c.543.5,1.23.781,1.461.665.239-.029.347-.586.174-.984a3.425,3.425,0,0,0-.586-.94c-.217-.224-.311-.376-.268-.449s.224-.05.521.051a2.575,2.575,0,0,1,1.092.955,2.048,2.048,0,0,1,.311,1.078A1.433,1.433,0,0,1,91.347,94.912Zm-6.395-9.968a2.193,2.193,0,0,1,.21-.463l.109-.173.007-.022.043-.058a.294.294,0,0,0,.051-.058l.08-.094a3.467,3.467,0,0,1,.376-.354,2.34,2.34,0,0,1,1.027-.463,2.532,2.532,0,0,1,1.165.087,3.2,3.2,0,0,1,1.446.983,3.18,3.18,0,0,1,1.454-.549,2.251,2.251,0,0,1,1.179.195,1.862,1.862,0,0,1,.514.369,1.361,1.361,0,0,1,.2.231l.058.087.029.044.036.065a.527.527,0,0,0,.022.065,2.668,2.668,0,0,1-.029,1.924,6.464,6.464,0,0,1-.651,1.309c-.94,1.483-1.917,2.084-2.011,1.939-.174-.282,1.418-2.612,1.534-3,.441-1.519-.637-2.879-1.983-1.389l-.535.593-.448-.694-.065-.1a2.28,2.28,0,0,0-1.122-.933,1.205,1.205,0,0,0-1.143.145,1.548,1.548,0,0,0-.643.919,1.819,1.819,0,0,0,.231,1.056c.347.687.789,1.244,1.027,1.671s.326.694.254.738-.275-.131-.623-.442a8.783,8.783,0,0,1-1.41-1.533,2.656,2.656,0,0,1-.485-1.592A2.211,2.211,0,0,1,84.952,84.944Zm-5.3,3.668a1.583,1.583,0,0,1,.08-.29,1.83,1.83,0,0,1,1.179-1.063,2.432,2.432,0,0,1,2.264.492,1.77,1.77,0,0,1,.622,1.411c-.058.318-.145.477-.224.477s-.152-.166-.239-.463a1.7,1.7,0,0,0-.673-.738,1.671,1.671,0,0,0-1.388-.123.727.727,0,0,0-.427.427,1.5,1.5,0,0,0,.05.8l.362,1.62L79.918,90.2l-.1-.072a2.45,2.45,0,0,0-1.758-.615,1.066,1.066,0,0,0-.991.7,1.163,1.163,0,0,0,.347.89c.2.2.318.369.282.441s-.224.058-.557-.05A1.7,1.7,0,0,1,76.6,91.1a1.142,1.142,0,0,1-.261-.383,1.237,1.237,0,0,1-.137-.535,1.592,1.592,0,0,1,.484-1.158,2.275,2.275,0,0,1,1.187-.622A2.974,2.974,0,0,1,79.65,88.612Z" /><path d="M98.535,61.406a8.461,8.461,0,0,0-1.574.974,18.367,18.367,0,0,0-2.812,3.579C93,67.893,92.6,69.49,92.977,70.7a2.884,2.884,0,0,0,1.871,1.455h.05a.656.656,0,0,0,.626-.4,6.663,6.663,0,0,0,.373-1.279l.088-.385a11.9,11.9,0,0,1,1.031-2.721c.448-.828.963-1.645,1.459-2.436a26.77,26.77,0,0,0,2.3-4.192l-.686-.3A8.286,8.286,0,0,1,98.535,61.406Z" /><path d="M38.649,77.754l.037.289.036.145.072.282a2.847,2.847,0,0,0,1.331,1.635,1.694,1.694,0,0,0,1.736-.072,2.793,2.793,0,0,0,.355-.29,2.685,2.685,0,0,0,.4-.47l.267-.369.138-.181c.014-.058.057-.007.094.008l.1.065c.137.086.275.173.412.267a4.2,4.2,0,0,1,.355.253,7.96,7.96,0,0,0,1.446,1.129.675.675,0,0,0,.543.058.926.926,0,0,1,.13-.058.669.669,0,0,0,.109-.094l.137-.13a6.946,6.946,0,0,0,.543-.572,3.1,3.1,0,0,1,.289.376,2.691,2.691,0,0,1,.26.42c.058.159.145.311.188.47.037.123.058.21.08.311.1.4.159.767.217,1.114a5.494,5.494,0,0,0,.42,1.686c.029.05.05.043.065.072l.137.072a1.029,1.029,0,0,0,.289.116.243.243,0,0,0,.21-.036,6.713,6.713,0,0,1-.108-.745c-.253-3.075-1.136-7.024-5.057-7.2A9.048,9.048,0,0,1,40.82,75.9a2.43,2.43,0,0,1-1.093-1.411,10.442,10.442,0,0,0-2.821-4.065,3.471,3.471,0,0,1-.716,1.946,4.2,4.2,0,0,1-.933.861,2.454,2.454,0,0,0-.449,1.967,2.6,2.6,0,0,0,1.751,1.613,4.941,4.941,0,0,0,.622.167l.318.058.08.014.145.007.289.022.3.029.145.007.08.007h.036v.037Z" /><path d="M99.76,66.231a17.343,17.343,0,0,0-1.4,2.8c1.439,2.771,3.2,4.984,2.937,8.254-.232,2.879-1.961,5.562-2.5,8.4-1.215,6.409-1.252,13.853,2.481,19.474.47-.037.94-.087,1.411-.138-3.538-5.592-3.386-13.375-1.078-19.437,1.866-4.9,1.237-8.782.224-13.809a18.646,18.646,0,0,1-.087-8.883C101.156,64.024,100.462,65.109,99.76,66.231Z" /><path d="M36.732,68.712a.568.568,0,0,1,.247.116,10.317,10.317,0,0,1,3.334,3.464c.311.63.637,2.445,1.346,2.547,1,.144,2.018.144,3.023.246,2.756.267,4.832,3.168,5.31,5.664a29.127,29.127,0,0,0,.333,3.313c.448,1.4,2.1,1.128,3.1,1.475a10.22,10.22,0,0,1,3.544,1.939A13.069,13.069,0,0,1,61.4,96.75c.413-.094.818-.181,1.237-.261a.21.21,0,0,1-.014-.065,10.5,10.5,0,0,1,.253-2.705c-1.222-4.3-5.635-6.879-9-9.787a.908.908,0,0,1-.2-1.223c-.224-5.143-4.731-8.912-9.758-8.948a1.087,1.087,0,0,1-.955-1.563,1.051,1.051,0,0,1,.029-.3c.651-2.915-3.849-4.745-7.046-5.375A11.375,11.375,0,0,1,36.732,68.712Z" /><path d="M65.364,96.482c.412.08.824.159,1.237.246a13.048,13.048,0,0,1,4.427-9.252,9.222,9.222,0,0,1,4.362-2.112c2.842-.543,2.206-2.445,2.618-4.615.478-2.5,2.554-5.4,5.31-5.664,1.873-.188,3.233.376,4.029-1.881a11.418,11.418,0,0,1,.636-1.519c.579-1.179,2.011-2.083,3.039-2.857a.557.557,0,0,1,.267-.116,10.082,10.082,0,0,1,.738-2.178c-3.2.63-7.668,2.467-7.017,5.368a1.393,1.393,0,0,1,.029.3,1.087,1.087,0,0,1-.955,1.563c-5.027.036-9.534,3.805-9.758,8.948a.917.917,0,0,1-.2,1.223c-3.364,2.908-7.784,5.483-9,9.787a10.506,10.506,0,0,1,.246,2.705C65.371,96.446,65.364,96.46,65.364,96.482Z" /><path d="M98.772,55.893l1.346.254-1.028-.9A7.085,7.085,0,0,0,93.367,53.5a3.214,3.214,0,0,0-2.353,1.864,9.316,9.316,0,0,0-.369.957l-.276.826.789-.367A12.989,12.989,0,0,1,98.772,55.893Z" /><path d="M90.474,59.761a2.089,2.089,0,0,0,1.079,1.248,2.445,2.445,0,0,0,1.044.212,5.125,5.125,0,0,0,1.728-.353,33.1,33.1,0,0,0,5.406-2.574l.729-.423-.8-.258c-3.1-1-6.984-.52-9.1,1.11h-.327l.089.448A5.032,5.032,0,0,0,90.474,59.761Z" /><path d="M79.166,84.286a.921.921,0,0,0,.282-.116l.144-.072c.015-.029.036-.022.058-.072a5.277,5.277,0,0,0,.427-1.686c.058-.347.116-.716.21-1.114.021-.1.05-.188.087-.311a4.185,4.185,0,0,1,.188-.47,3.315,3.315,0,0,1,.253-.42c.1-.123.21-.3.289-.376.181.195.369.413.55.572l.137.13c.051.05.094.094.109.094a.926.926,0,0,1,.13.058.676.676,0,0,0,.543-.058,8.471,8.471,0,0,0,1.446-1.129,3.3,3.3,0,0,1,.355-.253c.13-.094.267-.181.412-.267l.1-.065c.037-.015.08-.066.094-.008l.131.181.274.369a2.685,2.685,0,0,0,.4.47,2.03,2.03,0,0,0,.355.29,1.694,1.694,0,0,0,1.736.072,2.847,2.847,0,0,0,1.331-1.635l.072-.282.036-.145.037-.289.072-.6.007-.037h.036l.073-.007.144-.007.3-.029.3-.022.145-.007.08-.014.318-.058a4.545,4.545,0,0,0,.615-.167,2.6,2.6,0,0,0,1.758-1.613,2.378,2.378,0,0,0-.355-1.823,3.007,3.007,0,0,1-1.2-1.222,4.6,4.6,0,0,1-.47-1.78,12.813,12.813,0,0,0-3.212,4.789,1.9,1.9,0,0,1-1.273.94c-1.439.2-3.385-.05-4.6.847-2.416,1.794-2.793,3.79-3.017,6.561a6.713,6.713,0,0,1-.108.745A.243.243,0,0,0,79.166,84.286Z" /><path d="M115.6,26.336l.036.135a1.064,1.064,0,0,1,.024.172,38.624,38.624,0,0,1-.687,7.546c-.279,1.766-.568,3.594-.673,5.429-.123,2.19-.406,4.4-.679,6.544-.254,1.991-.517,4.05-.652,6.1l-.007.1.048.093a6.366,6.366,0,0,1,.272.627l.361.949.757-2.1a39.654,39.654,0,0,0,2.25-7.8,122.093,122.093,0,0,0,1.176-13.113c.024-.738.062-1.493.1-2.258a54.167,54.167,0,0,0,.087-5.644l-.075-1.352-.631,1.2c-.616,1.166-1.154,2.23-1.648,3.253Z" /><path d="M104.332,81.147a10.808,10.808,0,0,1-.413,1.808c-2.271,7.169-4.412,15.169.188,21.875.651-.1,1.288-.217,1.932-.355,1.483-4.369,3.211-9.121,2.893-13.78C108.636,86.442,106.849,84,104.332,81.147Z" /><path d="M111.551,55.326c-2.134-2.05-6.522,1.825-7.381,2.623l-.524.487.7.153a15.666,15.666,0,0,0,3.236.377,5.293,5.293,0,0,0,4.2-1.5,2.991,2.991,0,0,0,.631-1.518l.058-.437-.441.013A.623.623,0,0,1,111.551,55.326Z" /><path d="M119.1,79.866a3.371,3.371,0,0,1,.7-.246c.029,0,.051-.007.08-.007a28.161,28.161,0,0,0-5.9-11.408,3.8,3.8,0,0,1-.347,1.1c-.116.188-.224.369-.355.542a3.957,3.957,0,0,1-.484.442l-.145.087-.022.007c0,.007.145.152.145.152.1.108.188.217.275.325a3.109,3.109,0,0,1,.644,1.6,2.187,2.187,0,0,1-.564,1.656,1.914,1.914,0,0,1-.311.283l-.145.115c-.036.022-.044.022-.058.022a.015.015,0,0,0,.014.014l.116.109.4.376c.109.138.224.275.333.412a5.355,5.355,0,0,1,.55.876,7.625,7.625,0,0,1,.361.918,4.871,4.871,0,0,1,.123,1.845c-.022.145-.05.289-.072.434l-.044.21-.094.238a1.8,1.8,0,0,1-.578.724.893.893,0,0,0-.326.376.979.979,0,0,0-.1.492v.253c.022.239.072.383.1.572.065.347.13.68.195,1,.348,1.808.312,3.66.825,5.447a5.573,5.573,0,0,1,.123.6,11.131,11.131,0,0,1,.1,1.635c.008.311.015.8.029.832a1.356,1.356,0,0,0,.037.195l.014.08c.007.007.007.029.015.029l.028-.058a2.117,2.117,0,0,1,.145-.231,2.225,2.225,0,0,1,.637-.521,1.948,1.948,0,0,1,.578-.239,3.167,3.167,0,0,1,.651-.072c.29.036.261.05.3.05l.073.022c0-.014-.029-.065-.037-.094l-.014-.036c-.015-.087-.058-.246-.08-.369a4.524,4.524,0,0,1-.021-1.714,3.018,3.018,0,0,1,.962-1.7,3.838,3.838,0,0,1,.824-.579l.174-.094c-.029-.08-.166-.4-.253-.622-.123-.311-.224-.637-.333-.962a10.211,10.211,0,0,1-.434-2.134,3.463,3.463,0,0,1,.579-2.5A2.759,2.759,0,0,1,119.1,79.866Z" /><path d="M110.719,82.022c-1.736-2.452-4.955-4.217-5.8-7.241-.962-3.429-.889-6.865-2.2-10.192-.709,4.947,1.75,9.837,1.736,14.749,2.835,3.132,5.381,5.614,5.692,10.149.348,5.085-1.034,9.874-2.625,14.634.81-.21,1.62-.441,2.409-.709C113.562,97.271,115.088,88.214,110.719,82.022Z" /><path d="M103,61.432c.333.554.723,1.077,1.1,1.582.287.386.574.771.835,1.168a23.815,23.815,0,0,1,1.311,2.389c.292.582.584,1.164.907,1.731l.26.453.442-.278c.248-.156.5-.313.751-.462l.3-.175-.06-.343a9.316,9.316,0,0,0-5.193-6.769l-1.549-.781Z" /><path d="M111.189,53.54l1.011.306-.592-.875a.753.753,0,0,1-.06-.136l-.052-.1a3.068,3.068,0,0,0-3.668-1.236,10.473,10.473,0,0,0-4.606,4.4l-1.2,1.982,1.762-1.5C104.817,55.5,108.4,52.7,111.189,53.54Z" /><path d="M106.292,50.616l.18-.1.013-.2c.369-5.3,2.275-10.777,4.2-15.932a105.622,105.622,0,0,1,6.35-13.861l.2-.373-.4-.156a10.347,10.347,0,0,0-1.7-.5l-.218-.045-.144.17c-3.768,4.455-5.47,11.074-6.973,16.913-.195.756-.385,1.5-.575,2.214-.413,1.545-.791,3.128-1.156,4.659-.429,1.8-.873,3.659-1.376,5.464-.275.983-.6,1.925-.91,2.8l-.542,1.524L104.4,52.06A8.93,8.93,0,0,1,106.292,50.616Z" /><path d="M111.884,69.558l.2-.116.08-.043c.1-.065.173-.166.275-.246.079-.108.137-.224.217-.34a3.28,3.28,0,0,0,.3-1.5,1.124,1.124,0,0,1-.3-.673,6.393,6.393,0,0,0-5.433-5.411,11.068,11.068,0,0,1,3.385,6.923.87.87,0,0,1-.651.991c-.007,0-.007,0-.007.007-.738.427-1.461.861-2.17,1.324a1.1,1.1,0,0,1-1.49-.391,17.906,17.906,0,0,1-1.128-1.953c.065.3.137.593.195.9.513,2.713.144,5.563,2.25,7.748a30.419,30.419,0,0,1,4.817,5.6c.051.05.1.094.152.151l.087.087c.007.007.022.029.036.029l-.029-.116a3.927,3.927,0,0,0-.123-.412,1.545,1.545,0,0,0-.05-.173.331.331,0,0,1-.015-.066c-.007-.123-.015-.238-.022-.369a1.685,1.685,0,0,1,.145-.8,1.831,1.831,0,0,1,.535-.7.923.923,0,0,0,.326-.412l.05-.123.022-.167c.015-.108.029-.224.051-.34a4.176,4.176,0,0,0-.145-1.468,5.913,5.913,0,0,0-.3-.738,4.467,4.467,0,0,0-.47-.709l-.275-.34-.333-.3-.079-.08-.094-.079-.109-.073-.412-.282c-.282-.188-.564-.383-.854-.579.406-.166.832-.325,1.223-.52l.3-.145a.919.919,0,0,0,.123-.087,1.244,1.244,0,0,0,.173-.166,1.131,1.131,0,0,0,.29-.868,2.149,2.149,0,0,0-.441-1.042c-.073-.08-.138-.159-.21-.239l-.109-.115a2.086,2.086,0,0,0-.3-.246c-.463-.326-.926-.637-1.381-.941l1.1-.26Z" /><path d="M19.154,67.5l-.059.338,1.5.9.252-.448c.287-.513.548-1.044.808-1.574A18.3,18.3,0,0,1,23.058,64.2c.214-.307.443-.611.672-.917a20.11,20.11,0,0,0,1.289-1.859l.853-1.454-1.509.754A9.292,9.292,0,0,0,19.154,67.5Z" /><path d="M19.108,51.255c-.047,0-.095,0-.144,0a2.953,2.953,0,0,0-2.443,1.358l-.059.152a.539.539,0,0,1-.074.208l-.557.859.98-.3c2.788-.841,6.377,1.967,7.41,2.848l1.7,1.453-1.136-1.928C23.754,54.159,21.658,51.255,19.108,51.255Z" /><path d="M16.449,55.327a.683.683,0,0,1-.406.2l-.346.034.008.347a2.185,2.185,0,0,0,.944,1.953A8.075,8.075,0,0,0,20.884,58.9a13.455,13.455,0,0,0,2.775-.3l.708-.149-.53-.493C22.979,57.157,18.58,53.279,16.449,55.327Z" /><path d="M17.318,34.377l.135.374c1.828,5.1,3.719,10.379,4.069,15.67l.014.2.175.1a9.6,9.6,0,0,1,1.99,1.532l1.152,1.139-.534-1.529a43.811,43.811,0,0,1-1.314-4.241L22.659,46.2c-.595-2.45-1.209-4.983-1.885-7.456-.24-.877-.478-1.788-.721-2.72-1.476-5.649-3.149-12.052-6.826-16.4l-.144-.17-.218.045a10.992,10.992,0,0,0-1.692.487l-.4.153.209.379A96.4,96.4,0,0,1,17.318,34.377Z" /><path d="M110.35,104.649a37.2,37.2,0,0,1-15.871,1.685c-5.063-.549-9.9-2.553-14.626-4.311A91.513,91.513,0,0,0,64,97.545a90.145,90.145,0,0,0-15.849,4.478c-4.723,1.765-9.57,3.769-14.626,4.311a37.2,37.2,0,0,1-15.871-1.685.578.578,0,0,1-.4-.138,37.262,37.262,0,0,1-5.989-2.7,14.122,14.122,0,0,0,4.166,3.1c14.33,6.872,31.735-.752,46.159-4.362a1.155,1.155,0,0,1,.47-.144c.065-.007.13-.007.2-.015.26-.065.521-.13.781-.188a1.039,1.039,0,0,1,.847.145c3.385.079,6.517,1.2,9.83,2.119,3.979,1.107,7.957,2.272,11.994,3.154,7.971,1.751,17.542,3.219,25.361-.036a16.391,16.391,0,0,0,5.194-3.508,36.645,36.645,0,0,1-5.512,2.437A.6.6,0,0,1,110.35,104.649Z" /><path d="M121.6,86.926c-.406-2.04-.854-4.152-1.426-6.25a1.122,1.122,0,0,0-.831.384,2.521,2.521,0,0,0-.34,1.707,9.359,9.359,0,0,0,.383,1.91c.094.3.188.607.3.9a12,12,0,0,0,.477,1.135,3.538,3.538,0,0,1,.167.405l-.42.174-.412.174-.051.021-.058.029-.043.022-.087.051a2.945,2.945,0,0,0-.629.419,2.042,2.042,0,0,0-.666,1.143,3.522,3.522,0,0,0-.007,1.346c.022.123.043.209.072.361.044.224.123.449.188.666.131.427.261.846.384,1.251-.362-.173-.716-.347-1.071-.513a2.611,2.611,0,0,0-.825-.283,1.449,1.449,0,0,0-.759.167,1.609,1.609,0,0,0-.325.224,2.029,2.029,0,0,0-.485.535c-.253.369-.478.709-.687,1.028a24.72,24.72,0,0,1-2.655,8.8,36.609,36.609,0,0,0,7.038-3.762A16.327,16.327,0,0,0,121.6,86.926Z" /><path d="M10.23,32.36a91.514,91.514,0,0,0,1.33,13.125A44.192,44.192,0,0,0,13.6,52.062l.818,2.249.345-1.009c.076-.223.16-.439.252-.655l.034-.081-.006-.088c-.13-2.1-.4-4.219-.664-6.265-.276-2.157-.563-4.388-.682-6.594a53.286,53.286,0,0,0-.676-5.485,38.293,38.293,0,0,1-.683-7.515.673.673,0,0,1,.017-.1l.034-.132-.059-.122c-.517-1.076-1.078-2.194-1.67-3.324l-.618-1.183-.088,1.332a56.253,56.253,0,0,0,.152,7.228C10.151,31.013,10.2,31.7,10.23,32.36Z" /><path d="M16.21,75.193l-.1.073-.094.079-.079.08-.333.3c-.094.116-.188.232-.282.34a4.421,4.421,0,0,0-.463.709,7.267,7.267,0,0,0-.311.738,4.166,4.166,0,0,0-.138,1.468c.015.116.036.232.051.34l.022.167.05.123a.828.828,0,0,0,.326.412,1.831,1.831,0,0,1,.535.7,1.79,1.79,0,0,1,.145.8c-.007.131-.015.246-.022.369-.007,0-.015.051-.022.066a1.678,1.678,0,0,1-.05.173c-.037.123-.08.261-.116.412l-.029.123c.007,0,.022-.021.036-.036l.087-.087a.374.374,0,0,0,.051-.057,12,12,0,0,1,1.367-2.069c1.4-1.65,3.711-3.1,4.6-5.107,1.107-2.51,1.288-5.23,1.78-7.907A22.834,22.834,0,0,1,21.7,70.086a1.1,1.1,0,0,1-1.483.391c-.716-.463-1.44-.9-2.17-1.324a.007.007,0,0,0-.007-.007.863.863,0,0,1-.651-.991,10.993,10.993,0,0,1,3.385-6.923,6.385,6.385,0,0,0-5.433,5.411,1.086,1.086,0,0,1-.311.673,3.489,3.489,0,0,0,.3,1.5c.08.116.145.232.224.34a2.866,2.866,0,0,0,.275.246l.08.043.2.116.6.145c.369.087.738.173,1.1.26-.456.3-.919.615-1.382.941a2.056,2.056,0,0,0-.3.246l-.116.115c-.072.08-.13.159-.2.239a2.075,2.075,0,0,0-.441,1.042,1.126,1.126,0,0,0,.282.868,1.041,1.041,0,0,0,.181.166.575.575,0,0,0,.123.087l.3.145c.4.2.817.354,1.222.52-.282.2-.564.391-.846.579Z" /><path d="M13.541,93.929c-.2-.319-.427-.659-.687-1.028a2.2,2.2,0,0,0-.478-.535,1.478,1.478,0,0,0-.332-.224,1.426,1.426,0,0,0-.752-.167,2.627,2.627,0,0,0-.832.283c-.348.166-.7.34-1.064.513.123-.405.253-.824.384-1.251.058-.217.137-.442.188-.666.029-.152.05-.238.065-.361a3.389,3.389,0,0,0,0-1.346A2.014,2.014,0,0,0,9.36,88a2.733,2.733,0,0,0-.622-.419l-.094-.051L8.6,87.512l-.051-.029L8.5,87.462l-.412-.174-.42-.174a2.062,2.062,0,0,1,.167-.405c.311-.68.354-.817.477-1.135.109-.29.21-.594.3-.9A9.359,9.359,0,0,0,9,82.767a2.521,2.521,0,0,0-.34-1.707,1.234,1.234,0,0,0-.954-.4,52.707,52.707,0,0,0-1.31,6.264A18.6,18.6,0,0,0,9.078,98.913a37.626,37.626,0,0,0,7.132,3.841A24.818,24.818,0,0,1,13.541,93.929Z" /><path d="M8.9,79.866a2.635,2.635,0,0,1,.593.492,3.5,3.5,0,0,1,.579,2.5,10.751,10.751,0,0,1-.434,2.134c-.109.325-.217.651-.34.962-.08.224-.217.542-.253.615.007.007.181.1.181.1a4.019,4.019,0,0,1,.824.579,3.018,3.018,0,0,1,.962,1.7,4.36,4.36,0,0,1-.029,1.714c-.014.123-.057.282-.072.369l-.022.036c-.007.029-.036.08-.029.094l.073-.022a2.683,2.683,0,0,1,.3-.05,3.183,3.183,0,0,1,.659.072,1.834,1.834,0,0,1,.571.239,2.37,2.37,0,0,1,.644.521,2.139,2.139,0,0,1,.137.231l.036.058c.008,0,.008-.022.008-.029l.021-.08a1.279,1.279,0,0,0,.029-.195,6.879,6.879,0,0,0,.029-.832,13.675,13.675,0,0,1,.1-1.635c.043-.238.086-.434.13-.593a61.972,61.972,0,0,0,1.02-6.459,5.094,5.094,0,0,0,.094-.572c0-.08,0-.166.007-.253a.979.979,0,0,0-.1-.492.893.893,0,0,0-.326-.376,1.825,1.825,0,0,1-.586-.724l-.094-.238-.036-.21c-.029-.145-.05-.289-.08-.434a5.047,5.047,0,0,1,.131-1.845,6.615,6.615,0,0,1,.361-.918,5.355,5.355,0,0,1,.55-.876c.109-.137.217-.274.333-.412l.4-.376.116-.109s.014-.007.014-.014a.061.061,0,0,1-.043-.014,1.91,1.91,0,0,1-.16-.123,1.663,1.663,0,0,1-.311-.283,2.187,2.187,0,0,1-.564-1.656,3.134,3.134,0,0,1,.644-1.6c.087-.108.174-.217.268-.325l.152-.152-.029-.007-.138-.087a3.957,3.957,0,0,1-.484-.442,5.261,5.261,0,0,1-.355-.542,3.821,3.821,0,0,1-.354-1.1,29.3,29.3,0,0,0-6,11.394,1.6,1.6,0,0,0,.18.021A3.225,3.225,0,0,1,8.9,79.866Z" /><path d="M18.084,103.448c.8.275,1.6.514,2.4.731-1.6-4.717-3.314-9.874-2.612-14.866.644-4.615,2.843-6.835,5.823-10.156.152-4.9,2.351-9.722,1.584-14.6a23.9,23.9,0,0,0-1.569,6.8,12.269,12.269,0,0,1-.7,3.581c-1.309,2.951-4.1,4.4-5.736,7.089C13.266,88.633,14.243,96.988,18.084,103.448Z" /><path d="M34.254,61.048a4.66,4.66,0,0,0,1.033.125,2.571,2.571,0,0,0,1.529-.434,2.135,2.135,0,0,0,.839-1.629l.019-.2-.157-.125C35.407,57.1,31.45,56.6,28.312,57.62l-.781.254.7.424A22.094,22.094,0,0,0,34.254,61.048Z" /><path d="M29.266,64.4a29.933,29.933,0,0,1,1.71,2.951,16.57,16.57,0,0,1,1.153,3.27v0c.022.09.04.188.058.286a1.39,1.39,0,0,0,.54,1.06.833.833,0,0,0,.409.1,1.091,1.091,0,0,0,.427-.092,1.649,1.649,0,0,0,1.471-1.336,7.326,7.326,0,0,0-1.306-4.62l-.07-.119-.13-.046a.672.672,0,0,1-.415-.683l0-.121-.163-.242c-.134-.2-.263-.389-.386-.566a10.477,10.477,0,0,0-4.841-3.993l-.844-.355.352.845A24.64,24.64,0,0,0,29.266,64.4Z" /><path d="M25.9,72.944c-1.028,4.615-1.18,8.2.477,12.644,2.293,6.12,2.474,13.911-1.128,19.524.47.058.933.108,1.4.145,3.87-5.744,3.986-13.925,2.344-20.465-.673-2.683-2.612-5.7-2.387-8.543.217-2.756,1.765-4.8,3-7.19-.948-2.083-2.265-3.979-3.313-6C27.177,66.361,26.649,69.6,25.9,72.944Z" /><path d="M35.807,104.642c8.326-1.881,16.037-5.549,24.312-7.6a11.289,11.289,0,0,0-1.939-6.141A2.3,2.3,0,0,0,56.162,92a5.188,5.188,0,0,0-.579,1.078c-.05.108-.187.521-.3.875l-.087.282c-.036.065-.022.261-.137.152-.174-.087-.34-.173-.507-.253L54.31,94l-.065-.029-.072-.022-.051-.014a.936.936,0,0,0-.2-.051,1.366,1.366,0,0,0-.383-.007,1.925,1.925,0,0,0-.709.26,3.331,3.331,0,0,0-.977.984,4.182,4.182,0,0,0-.672,1.635c-.015.087-.03.159-.037.217l-.043,1.186-.593-2.126c-.109-.369-.326-.68-.622-.644a1.249,1.249,0,0,0-.926.8l-.463,1.2-.492-1.244a9.924,9.924,0,0,0-1.237-2.3,3.275,3.275,0,0,0-.933-.883,1.775,1.775,0,0,0-.536-.2c-.086-.022-.144,0-.224-.022-.108,0-.26.029-.39.043a2,2,0,0,0-1.093.839,5.539,5.539,0,0,0-.7,1.476,23.439,23.439,0,0,0-.709,3.031l-.152.767-.586-.441a1.02,1.02,0,0,0-.622-.254.375.375,0,0,0-.34.261,1.48,1.48,0,0,0,.072,1.092l.007.007c.109.015.225.022.326.044a3.213,3.213,0,0,1,.665.159,2,2,0,0,1,.5.217,1.667,1.667,0,0,1,.542.405c.1.109.13.174.109.2s-.1.021-.232-.022a3.457,3.457,0,0,0-.586-.195,1.905,1.905,0,0,0-.463-.1,2.478,2.478,0,0,0-.593-.058,3.649,3.649,0,0,0-1.519.246l-.094.051-.145.065a4.1,4.1,0,0,0-.412.282c-.13.1-.26.2-.4.3l-.21.159c-.021.029-.021,0-.029-.022l-.007-.065-.014-.13c-.022-.174-.051-.347-.073-.528-.029-.159-.058-.326-.087-.492l-.05-.246-.044-.137a2,2,0,0,0-.108-.268,2.124,2.124,0,0,0-1.917-1.353,2.937,2.937,0,0,0-.738.065,3.735,3.735,0,0,0-.39.1c-.246.072-.55.2-.825.3l-.21.08-.108.043c-.022-.014-.022-.072-.029-.1L33.34,98.1c-.051-.275-.094-.55-.145-.832-.05-.318-.1-.651-.152-.991a5.6,5.6,0,0,0-.593-1.866,1.671,1.671,0,0,0-.622-.571,1.535,1.535,0,0,0-.651-.131,22.987,22.987,0,0,1-3.009,11.632A30.225,30.225,0,0,0,35.807,104.642Z" /><path d="M36.855,56.79l.754.353-.235-.8a5,5,0,0,0-.4-1c-1.079-1.967-3.1-2.457-5.7-1.382a9.692,9.692,0,0,0-2.19,1.228l-1.207.929,1.5-.262A13.008,13.008,0,0,1,36.855,56.79Z" /><path d="M34.092,76.235c-.058.065-.116.137-.173.2a5.156,5.156,0,0,1-1.266.955c-.116.058-.225.116-.34.167l-.138.058-.014.007a.024.024,0,0,0,.007.014l.108.123c.08.094.167.188.239.282a3.782,3.782,0,0,1,.673,1.317,2.191,2.191,0,0,1-.13,1.555,1.508,1.508,0,0,1-.21.326l-.116.152c-.029.028-.029.021-.043.043a.389.389,0,0,1-.08.058s.015.007.015.014a1,1,0,0,1,.116.13l.3.326a3.544,3.544,0,0,1,.239.391,3.656,3.656,0,0,1,.3.824,5.116,5.116,0,0,1,.051.81,7.326,7.326,0,0,1-.665,2.641,20.233,20.233,0,0,1-.977,1.938c-.2.348-.383.673-.557.984-.116.2-.21.391-.318.579.007.094.014.181.021.275.037.73.058,1.475.058,2.213a2.564,2.564,0,0,1,1.1.232,2.662,2.662,0,0,1,1.085.984,6.478,6.478,0,0,1,.723,2.264c.058.354.1.687.145,1.012.029.174.007.138.022.145s-.008.007.043-.007a3.026,3.026,0,0,1,.492-.123,3.816,3.816,0,0,1,.991-.058,3.08,3.08,0,0,1,1.743.666,3.12,3.12,0,0,1,.948,1.338,3.342,3.342,0,0,1,.123.347l.05.166.008.065.021.131v.079c-.007.036.008.036.029.015l.051-.029c.014-.008.043-.015.058-.022l.231-.087a4.086,4.086,0,0,1,.774-.159,1.6,1.6,0,0,0,.152-.051,1.782,1.782,0,0,1-.2-1.294,1.183,1.183,0,0,1,.911-.883,1.45,1.45,0,0,1,.615.022,16.453,16.453,0,0,1,.492-2.626,6.407,6.407,0,0,1,.81-1.808,3.023,3.023,0,0,1,1.932-1.368c.137-.014.253-.043.412-.05a2.916,2.916,0,0,1,.571.043,2.643,2.643,0,0,1,.934.362,4.269,4.269,0,0,1,1.265,1.222,8.84,8.84,0,0,1,.955,1.8,1.873,1.873,0,0,1,1.259-.434,1.281,1.281,0,0,1,.955.557,2.763,2.763,0,0,1,.333-.39,3.742,3.742,0,0,1,1.114-1.3,2.638,2.638,0,0,1,1.063-.448,2.439,2.439,0,0,1,.658-.029,2.468,2.468,0,0,1,.34.072l.094.029c.015.007.029.007.022-.015a1.852,1.852,0,0,1,.1-.3,6.392,6.392,0,0,1,.673-1.3,3.632,3.632,0,0,1,1.237-1.172,2.951,2.951,0,0,1,.846-.319A12.332,12.332,0,0,0,51.4,86.456a2.841,2.841,0,0,1-2.155-1.591.765.765,0,0,1-.217.058.518.518,0,0,1-.275.007,1.363,1.363,0,0,1-.478-.138,1.822,1.822,0,0,1-.239-.108,1.066,1.066,0,0,1-.245-.224,5.471,5.471,0,0,1-.651-1.975c-.066-.347-.138-.7-.232-1.049-.022-.087-.058-.174-.08-.246a.113.113,0,0,0-.028-.058c-.015-.029-.037-.1-.066-.065a.369.369,0,0,1-.079.072l-.022.029a.233.233,0,0,1-.072.044l-.268.137a1.639,1.639,0,0,1-1.23-.058,8.349,8.349,0,0,1-1.678-1.222c-.072-.058-.043-.029-.058-.044l-.029-.014c-.014-.015-.043.065-.065.087,0,.014-.2.224-.318.354a3.2,3.2,0,0,1-.5.42,2.706,2.706,0,0,1-2.749.152A3.85,3.85,0,0,1,37.8,78.8l-.1-.369-.051-.188-.007-.044-.015-.079c-.021-.015-.065-.007-.094-.015l-.05-.007h-.029l-.094-.014-.384-.065a5.923,5.923,0,0,1-.759-.2,4.674,4.674,0,0,1-1.454-.81A3.161,3.161,0,0,1,34.092,76.235ZM44.827,87.751a2.427,2.427,0,0,1,2.264-.492,1.846,1.846,0,0,1,1.179,1.063,2.654,2.654,0,0,1,.08.29,2.974,2.974,0,0,1,1.779-.21,2.275,2.275,0,0,1,1.187.622,1.617,1.617,0,0,1,.477,1.158,1.417,1.417,0,0,1-.391.918,1.782,1.782,0,0,1-.542.391c-.333.108-.521.123-.557.05s.072-.238.282-.441a1.189,1.189,0,0,0,.347-.89,1.076,1.076,0,0,0-1-.7,2.469,2.469,0,0,0-1.758.615l-.1.072-1.338.969.361-1.62a1.443,1.443,0,0,0,.058-.8.727.727,0,0,0-.427-.427,1.668,1.668,0,0,0-1.388.123,1.7,1.7,0,0,0-.673.738c-.087.3-.159.47-.239.463s-.173-.159-.231-.477A1.8,1.8,0,0,1,44.827,87.751Zm-3.233,5.787a2.382,2.382,0,0,1-.5,1.244,1.3,1.3,0,0,1-.253.253l-.029.022-.007.007-.065.051-.022.007-.079.044-.167.086a1.71,1.71,0,0,1-.889.174,1.37,1.37,0,0,1-.55-.2,1.449,1.449,0,0,1-.376-.42l-.044-.087a2.211,2.211,0,0,1-.405.188,1.848,1.848,0,0,1-1.555,0,1.433,1.433,0,0,1-.752-1.287,2.048,2.048,0,0,1,.311-1.078,2.487,2.487,0,0,1,1.092-.955c.3-.1.477-.123.521-.051s-.058.225-.268.449a3.266,3.266,0,0,0-.586.94c-.173.4-.072.955.174.984.231.116.918-.166,1.454-.665l.9-.832.109,1.3.007.137a.506.506,0,0,0,.036.2.341.341,0,0,0,.043.137c.044.065.015.043.044.051a.108.108,0,0,0,.094-.008.4.4,0,0,0,.159-.043l.094-.043.051-.015v-.007c.072-.051.144-.1.144-.116a1.682,1.682,0,0,0,.311-.665,5.675,5.675,0,0,0,.152-.818c.116-1.063.152-1.787.333-1.8.152,0,.42.651.535,1.816A5.876,5.876,0,0,1,41.594,93.538Zm-6.554-8.7.014-.036.008-.015.007-.014.036-.065.029-.044.058-.087a1.361,1.361,0,0,1,.2-.231,1.764,1.764,0,0,1,.514-.369,2.226,2.226,0,0,1,1.172-.195,3.114,3.114,0,0,1,1.453.549,3.285,3.285,0,0,1,1.447-.983,2.562,2.562,0,0,1,1.172-.087,2.377,2.377,0,0,1,1.027.463,2.845,2.845,0,0,1,.369.354l.087.094.036.051.007.007.044.058.014.022.109.173a3.362,3.362,0,0,1,.21.463,2.211,2.211,0,0,1,.1.5,2.657,2.657,0,0,1-.492,1.592,8.8,8.8,0,0,1-1.4,1.533c-.355.311-.55.485-.63.442s.007-.319.261-.738c.238-.427.68-.984,1.027-1.671a1.875,1.875,0,0,0,.231-1.056,1.579,1.579,0,0,0-.643-.919,1.22,1.22,0,0,0-1.151-.145,2.3,2.3,0,0,0-1.114.933l-.065.1-.448.694-.535-.593a2.122,2.122,0,0,0-1.238-.651,1.117,1.117,0,0,0-.556.058.705.705,0,0,0-.189.116c-.021.021-.036.007-.086.086l-.058.08-.036.014a1.816,1.816,0,0,0,0,1.151,7.059,7.059,0,0,0,.448,1.193c.68,1.461,1.36,2.214,1.259,2.337-.094.152-1.071-.449-2-1.932a6.517,6.517,0,0,1-.651-1.309A2.663,2.663,0,0,1,35.04,84.836Z" /><path d="M23.835,104.9c2.336-3.356,2.828-6.807,2.712-10.894s-1.511-7.2-2.474-11.053a12.628,12.628,0,0,1-.318-1.9c-2.828,3.19-4.948,6.054-4.694,10.85A47.476,47.476,0,0,0,21.99,104.54C22.6,104.678,23.22,104.8,23.835,104.9Z" /><path d="M30.526,71.605c-.087-.34-.188-.672-.3-1.005-1.056,1.758-2.466,3.819-2.314,5.649.18,2.236,1.128,4.073,1.772,6.178a33.643,33.643,0,0,1,1.3,6.38,1.776,1.776,0,0,1,.087-.181c.072-.137.137-.275.21-.419a19.148,19.148,0,0,0,.86-1.91,6.758,6.758,0,0,0,.528-2.322,4.175,4.175,0,0,0-.05-.6,2.177,2.177,0,0,0-.225-.557,1.341,1.341,0,0,0-.159-.261l-.231-.239a2.763,2.763,0,0,0-.492-.376c-.21-.152-.427-.3-.644-.448.318-.217.658-.434.9-.637.066-.05.152-.116.188-.152l.066-.086a.592.592,0,0,0,.1-.167,1.147,1.147,0,0,0,.05-.817,2.776,2.776,0,0,0-.506-.941l-.188-.224c-.036-.043-.051-.051-.123-.123a2.408,2.408,0,0,0-.239-.231c-.369-.3-.745-.594-1.128-.9.441-.138.9-.275,1.353-.42a2.123,2.123,0,0,0,.325-.123l.174-.079c.1-.044.188-.095.282-.145a4.134,4.134,0,0,0,1-.752,1.661,1.661,0,0,0,.485-.963,1.387,1.387,0,0,0-.355-.889A2.746,2.746,0,0,1,30.526,71.605Z" /></g></svg>