<svg xmlns="http://www.w3.org/2000/svg" data-name="Layer 1" viewBox="3.186767787446827 2.206012478623616 3.625216092640112 5.5897754137033395" x="0px" y="0px"><title>KAMASUTRA</title><path d="M5.60348,4.66662c-.04721.02253-.084.09223-.1128.13439-.035.05126-.07074.10206-.10775.15191q-.05992.0807-.12464.15713l.00136-.00728a.5738.5738,0,0,0,.01647-.22137.015.015,0,0,0-.02665-.00623.48093.48093,0,0,0-.05718.175c-.006.03011-.0116.06044-.02.09-.00816.02857-.02172.05558-.02862.08443a.02986.02986,0,0,0-.0002.01194l-.00379.004a1.03886,1.03886,0,0,1-.29.21759c-.05389.02626-.11112.04716-.16238.0783a.25468.25468,0,0,0-.11289.10252c-.0032.00779.00635.01293.01237.00884a.39393.39393,0,0,1,.08-.04832c.02815-.01076.0578-.01557.08652-.02432a.78182.78182,0,0,0,.1655-.07209,1.61915,1.61915,0,0,0,.29332-.21494,2.10938,2.10938,0,0,0,.24174-.27686c.03718-.04973.073-.10043.1082-.15161.01761-.02563.03414-.05143.04967-.07838a.19249.19249,0,0,0,.03692-.082A.03258.03258,0,0,0,5.60348,4.66662Z" /><path d="M5.7719,3.6996c-.00575-.02016-.037-.03562-.05028-.01176a.55075.55075,0,0,0-.04693.21158c-.00919.07782-.01835.1556-.02639.23355-.00808.07828-.01344.15594-.0159.23459a1.1536,1.1536,0,0,0,.00066.22174.00933.00933,0,0,0,.01782.00178,1.15775,1.15775,0,0,0,.05125-.21655c.015-.0745.02736-.14866.037-.224.00959-.075.01828-.15.02677-.22507A.58775.58775,0,0,0,5.7719,3.6996Z" /><path d="M5.93968,3.24617a.86066.86066,0,0,0-.21511-.11712c-.03716-.01471-.07512-.027-.11317-.03918a.26007.26007,0,0,1-.11757-.05781c-.01057-.01227-.02713.00251-.019.01551a.25968.25968,0,0,0,.06221.076A.40131.40131,0,0,0,5.62241,3.17a1.48749,1.48749,0,0,1,.21422.10248.43076.43076,0,0,1,.22471.37494c.00188.02588.04007.02718.04835.00483A.38514.38514,0,0,0,5.93968,3.24617Z" /><path d="M6.439,5.23291a.27031.27031,0,0,0-.11454-.00316.44654.44654,0,0,0-.12675.03067.48959.48959,0,0,0-.20113.15755l-.01142.01588a.4413.4413,0,0,0-.05325-.088A.247.247,0,0,0,5.79306,5.245a.44714.44714,0,0,0-.11531-.01438q.04374-.038.08463-.07878A.7194.7194,0,0,0,5.894,4.97942c.03485-.06587.04712-.14242.08114-.20956a.73007.73007,0,0,0,.05-.10619c.01086-.034.02054-.06853.03009-.103l.00124.00259c.03187.06743.0605.1359.08784.20528.02625.06661.051.13377.07637.20072.017.045.0273.11581.0793.134.01111.00388.02351-.01051.01426-.02-.019-.0194-.01691-.0546-.02088-.07995-.00475-.03028-.00981-.06047-.01649-.09039a1.5964,1.5964,0,0,0-.05143-.18031c-.02035-.0581-.04449-.11507-.0699-.17112-.01266-.02793-.02719-.05516-.03911-.08341-.00914-.02167-.01231-.04522-.02293-.06555.00813-.03465.01575-.06942.02262-.10436a1.59087,1.59087,0,0,0,.03329-.27014,1.21728,1.21728,0,0,0-.00577-.13623c-.0044-.04832-.01772-.09349-.025-.14108-.00281-.01851-.02956-.01362-.02828.00447a1.34116,1.34116,0,0,1-.01846.24907c-.00978.07974-.02059.15868-.036.23757-.01578.08072-.03569.1605-.057.23991a1.45159,1.45159,0,0,0-.05444.22161.3712.3712,0,0,1-.08715.21212,1.48392,1.48392,0,0,1-.14925.1583,2.62513,2.62513,0,0,1-.3535.2766.53982.53982,0,0,0-.27438.29391c-.00644.02628.03013.05305.04646.02455a.79288.79288,0,0,1,.29048-.242q.06043-.0387.11949-.0806c.03182-.00585.06368-.01368.09572-.01732a.56621.56621,0,0,1,.13809.00031.27331.27331,0,0,1,.12214.04991.22134.22134,0,0,1,.08775.08319c-.04016.06656-.0718.139-.11391.20425-.05871.09092-.11878.17965-.16973.27522-.006.01119.00641.0265.01775.01655a1.16181,1.16181,0,0,0,.18734-.20092c.05581-.07924.09832-.16412.14607-.248a.45924.45924,0,0,1,.17189-.17521.59124.59124,0,0,1,.105-.04717c.043-.01426.0868-.01127.13-.02155A.02231.02231,0,0,0,6.439,5.23291Z" /><path d="M5.21572,4.1109a.38338.38338,0,0,0-.03672-.191.016.016,0,0,0-.02725.00453.17831.17831,0,0,0-.00657.0282.09338.09338,0,0,0-.04208-.0251.021.021,0,0,0-.02621.02785.38861.38861,0,0,0,.047.08581.02631.02631,0,0,0,.01986.00992c.00119.02129.00245.04223.00208.06183a1.40024,1.40024,0,0,1-.01856.20163c-.01637.09932-.027.19978-.05033.29739a.243.243,0,0,0-.09991.0135.29273.29273,0,0,0-.08955.05772.00953.00953,0,0,0,.00985.016A.3659.3659,0,0,1,5.05794,4.681L5.04929,4.707a.08051.08051,0,0,0-.05244-.00366.07177.07177,0,0,0-.02583.01136c-.007.00513-.01169.01252-.01859.01767-.01073.008-.00155.02273.00985.022a.04414.04414,0,0,1,.0162.00519l.01878.00522.02536.0074-.01222.02533a.12828.12828,0,0,0-.07208-.0089.11186.11186,0,0,0-.087.03474.008.008,0,0,0,.00368.01194.30917.30917,0,0,0,.07963.01068c.0158.00275.03042.00915.04511.01238l-.02207.04482c-.02881.06131-.05655.1231-.08658.18384a3.8575,3.8575,0,0,0-.16258.36937.01669.01669,0,0,0,.02913.01539,1.84922,1.84922,0,0,0,.22515-.35065,1.86838,1.86838,0,0,0,.08852-.19976c.02344-.06642.03826-.13569.05945-.20281a1.7245,1.7245,0,0,0,.102-.40327A1.90571,1.90571,0,0,0,5.21572,4.1109Z" /><path d="M5.42211,4.49444a.34106.34106,0,0,1-.01461-.14408.464.464,0,0,0-.01111-.24875.32686.32686,0,0,0-.13715-.1754A.01538.01538,0,0,0,5.24,3.94666a.6214.6214,0,0,1,.08392.18973.8247.8247,0,0,1-.00853.22061A.93422.93422,0,0,0,5.35,4.57878a.19427.19427,0,0,1-.02265.10588.64566.64566,0,0,1-.04768.09878.01692.01692,0,0,0,.02441.02277A.53133.53133,0,0,0,5.398,4.72927.20654.20654,0,0,0,5.44,4.6255.33491.33491,0,0,0,5.42211,4.49444Z" /><path d="M4.74212,4.82782c-.143.09032-.18193.28785-.26968.422-.08607.13161-.25125.2664-.22252.44a.01908.01908,0,0,0,.0364.00364,1.8966,1.8966,0,0,1,.12135-.20695,1.89354,1.89354,0,0,0,.13436-.2072c.03665-.07122.06331-.14695.09472-.2205a.95436.95436,0,0,1,.12645-.21139C4.774,4.83342,4.755,4.81971,4.74212,4.82782Z" /><path d="M4.85667,5.635a.02788.02788,0,0,0-.03849-.021c-.04628.02639-.0731.08868-.10231.132a.85168.85168,0,0,1-.125.13269c-.00534.00514-.0021.01611.0064.01428a.406.406,0,0,0,.16755-.0927C4.80858,5.76428,4.86775,5.69594,4.85667,5.635Z" /><path d="M5.602,5.86029a2.04243,2.04243,0,0,1-.41534.17329,1.1632,1.1632,0,0,1-.41919.03115.15552.15552,0,0,0-.0459-.05691.265.265,0,0,0,.1607-.03679.30881.30881,0,0,0,.09149-.08344c.01364-.01847.02616-.03759.0411-.05509.01548-.01814.033-.03.03952-.0533A.02323.02323,0,0,0,5.0294,5.7487c-.03508.0013-.0593.03459-.08351.057a.99906.99906,0,0,1-.08848.07457.44637.44637,0,0,1-.2112.08366A.013.013,0,0,0,4.6353,5.972a.33873.33873,0,0,0-.10686-.00244l-.02383.00427A.36935.36935,0,0,1,4.5,5.93119a.20175.20175,0,0,1,.0202-.07624.2947.2947,0,0,0,.04732-.136.0105.0105,0,0,0-.01687-.00643.39068.39068,0,0,0-.11193.149.23906.23906,0,0,0-.01591.055.25813.25813,0,0,1-.075-.03841.25232.25232,0,0,1-.091-.14328A.02222.02222,0,0,0,4.213,5.736a.264.264,0,0,0,.03286.15795.20779.20779,0,0,0-.1361.06227.45582.45582,0,0,0-.0702.11862c-.00712.01321.01029.02682.01962.01389a.34035.34035,0,0,1,.15409-.10823.16231.16231,0,0,1,.1519.03517.02544.02544,0,0,0,.03653-.00455l.00476.00113a.24887.24887,0,0,0-.12512.16455.01444.01444,0,0,0,.0233.0125.39543.39543,0,0,1,.21529-.12772c.08251-.01341.21428.01014.24884.09795a.01253.01253,0,0,0,.02373-.007.39558.39558,0,0,0-.00937-.0455A.4041.4041,0,0,0,4.851,6.132a.70438.70438,0,0,0,.11345.01993.72486.72486,0,0,0,.23738-.0224,1.04941,1.04941,0,0,0,.4272-.22524C5.65022,5.88563,5.6291,5.84639,5.602,5.86029Z" /><path d="M5.06781,4.456a.51893.51893,0,0,0-.076.02328.499.499,0,0,0,.04976-.16777c.00653-.05.0119-.10069.01382-.151C5.05752,4.1043,5.04952,4.049,5.05,3.99325c.00015-.01871-.02824-.0222-.0294-.00294-.003.04982-.01442.10088-.02064.15065a1.07391,1.07391,0,0,1-.02475.14819c-.01242.04587-.02776.09038-.04292.13533-.00719.02133-.01083.04366-.0174.06518l-.00584.017a.54829.54829,0,0,0-.09189.041.22678.22678,0,0,0-.11486.1882.01432.01432,0,0,0,.02848.00285c.01564-.08155.10956-.11539.17933-.14228.06033-.02325.14707-.05515.17514-.1191A.016.016,0,0,0,5.06781,4.456Z" /><path d="M4.92485,4.37282c-.00614-.03788-.02023-.07366-.02924-.11086-.00915-.03776-.01578-.07611-.02382-.11411a.69616.69616,0,0,1-.018-.11644c-.00165-.04217.00343-.08263.00538-.1246.00228-.049-.037-.37246-.13626-.3035-.01059.00735-.00218.02705.01057.0236a3.30379,3.30379,0,0,1,.06386.38526c.00662.12721-.0238.2811.06627.38809A.035.035,0,0,0,4.92485,4.37282Z" /><path d="M4.84583,3.27546a.25373.25373,0,0,0-.18772.12648.35264.35264,0,0,0-.03586.26675.01853.01853,0,0,0,.03658-.001.57187.57187,0,0,1,.059-.23084.33509.33509,0,0,1,.0613-.07966c.02395-.02226.05307-.03942.075-.06351A.01162.01162,0,0,0,4.84583,3.27546Z" /><path d="M4.7774,4.54022a.73009.73009,0,0,1-.04835-.181.85326.85326,0,0,1,.0023-.10928.73679.73679,0,0,0-.00924-.09558c-.00831-.06623-.0169-.1322-.02709-.19817a.62035.62035,0,0,0-.0479-.19776.01217.01217,0,0,0-.02225.00067.52141.52141,0,0,0-.01473.19364c.0026.07545.00816.15021.015.22539.00647.071.03038.1359.03909.20624a.6334.6334,0,0,0,.04033.18813A.03985.03985,0,0,0,4.7774,4.54022Z" /><path d="M5.58737,3.31465A.12641.12641,0,0,0,5.5071,3.33a.54316.54316,0,0,1-.10278.03383c-.01617.00373-.0122.0293.004.02555a.50354.50354,0,0,1,.10837-.01471.12948.12948,0,0,0,.08172-.02333A.021.021,0,0,0,5.58737,3.31465Z" /><path d="M5.26611,3.12066a.03045.03045,0,0,0-.018.00287A.03543.03543,0,0,0,5.227,3.1527c-.00043.058-.064.08635-.10416.11772-.04322.03375-.10374.09183-.16363.07718a.01133.01133,0,0,0-.0079.02123.18321.18321,0,0,0,.19392-.04726c.03395-.026.0667-.05353.09975-.08068a.11928.11928,0,0,0,.05321-.08108A.03642.03642,0,0,0,5.26611,3.12066Z" /><path d="M4.12572,5.771c-.0417.026-.06428.08008-.09406.11837a.24752.24752,0,0,1-.06284.06251.43209.43209,0,0,0-.06749.04817.29894.29894,0,0,0-.1195.2378c.00041.01366.02059.01355.0249.00249.03753-.09635.13871-.13931.19656-.21863.02912-.03992.06237-.07435.09414-.11246a.208.208,0,0,0,.06318-.11952A.02177.02177,0,0,0,4.12572,5.771Z" /><path d="M5.61623,6.00388c-.18506.05353-.36652.11741-.55235.16908-.08852.02461-.17717.05254-.26315.08494a1.04205,1.04205,0,0,0-.11958.05243.71585.71585,0,0,0-.10353.0765c-.01379.01067.00275.029.01667.02037a.54619.54619,0,0,1,.12824-.04648c.04256-.01266.0861-.02179.12939-.03154a1.9709,1.9709,0,0,0,.26051-.07582,4.3088,4.3088,0,0,0,.51338-.217C5.64163,6.02792,5.636,5.99816,5.61623,6.00388Z" /><path d="M4.837,6.678a1.417,1.417,0,0,1-.1982.04394,1.01648,1.01648,0,0,1-.19964-.0234.66127.66127,0,0,0-.181-.01292.41419.41419,0,0,0-.15957.06188c-.01321.00727-.00375.02887.00954.02156a.3157.3157,0,0,1,.19416-.01161c.0638.0094.12659.02315.18987.03533A.43565.43565,0,0,0,4.8639,6.738.03434.03434,0,0,0,4.837,6.678Z" /><path d="M6.7196,6.29165a.16984.16984,0,0,0-.05245.01858A.1553.1553,0,0,1,6.608,6.3161a.41157.41157,0,0,1-.09809-.024.56669.56669,0,0,1-.18167-.10667,2.12951,2.12951,0,0,0-.26983-.23852,1.49834,1.49834,0,0,0,.10437-.23172.19644.19644,0,0,1,.11972-.1346A.42667.42667,0,0,0,6.44269,5.499c.01385-.01358.00093-.03911-.01867-.03038-.09658.043-.21408.03309-.28979.1181a.46971.46971,0,0,0-.07642.1527,1.128,1.128,0,0,1-.07985.17033.8391.8391,0,0,1-.10621.14278.49533.49533,0,0,1-.16439.11345c-.12464.05916-.24556.12963-.36424.19982-.06658.03938-.135.07786-.19808.12271-.06645.04724-.12132.10821-.18764.15559-.00981.007.00078.02478.01128.01835a1.83724,1.83724,0,0,1,.19053-.09124c.06186-.02873.1194-.06713.17843-.1012.1228-.07087.2474-.13841.373-.20417a.88039.88039,0,0,0,.29-.23121c.01127-.01488.02188-.03017.032-.04573a1.59779,1.59779,0,0,0,.28615.30678.45889.45889,0,0,0,.20391.09717.4249.4249,0,0,0,.11517-.00139A.19359.19359,0,0,0,6.74977,6.359.03858.03858,0,0,0,6.7196,6.29165Z" /><path d="M6.79107,5.99464a1.603,1.603,0,0,0-.05529-.21331A1.23115,1.23115,0,0,0,6.535,5.3849c-.01046-.013-.03578-.00359-.03129.014.03555.13932.08831.27262.13494.40859.02326.06782.04528.13607.0684.20394a1.16419,1.16419,0,0,0,.07479.20663.0149.0149,0,0,0,.02821-.00451A.68193.68193,0,0,0,6.79107,5.99464Z" /><path d="M3.99408,6.27028a.23656.23656,0,0,1-.10985.04168c-.01952.00257-.04114-.00045-.0617.00039-.045-.04326-.12039-.09732-.17337-.07428a.01146.01146,0,0,0-.002.01961c.02678.02191.06031.03293.087.05677a.52691.52691,0,0,1,.06591.07073.70245.70245,0,0,1,.09084.17038.01719.01719,0,0,0,.0326-.00521.28871.28871,0,0,0-.04477-.16893l.02574-.00555a.17381.17381,0,0,0,.10771-.09261C4.01763,6.2721,4.00254,6.26426,3.99408,6.27028Z" /><path d="M3.52525,6.27363a.57406.57406,0,0,0-.12245.09644.45784.45784,0,0,0-.04471.05334.18593.18593,0,0,0-.02521.07067.01306.01306,0,0,0,.02031.01452.25208.25208,0,0,0,.04773-.03792.698.698,0,0,0,.04165-.0635.44025.44025,0,0,1,.099-.11352C3.55539,6.28354,3.53895,6.26516,3.52525,6.27363Z" /><path d="M4.4383,7.71729a3.52517,3.52517,0,0,0-.43888-.02462.20254.20254,0,0,1-.16642-.07c-.03249-.04949-.00735-.12186-.02214-.178a.36265.36265,0,0,0-.22658-.22134c-.09856-.04342-.22183-.07566-.27555-.17854a.38225.38225,0,0,1-.03394-.19011c.002-.06759.01839-.13414.02023-.20118.00033-.0121-.01638-.021-.02384-.00892a.63513.63513,0,0,0-.06675.17391.49493.49493,0,0,0-.01466.18547.36939.36939,0,0,0,.23525.2789c.09938.04639.23937.08331.29449.18875.03073.05878.0087.128.04508.187a.24951.24951,0,0,0,.1424.10254,1.1216,1.1216,0,0,0,.25929.02786,1.75738,1.75738,0,0,0,.27414.00268C4.48537,7.78716,4.4778,7.72467,4.4383,7.71729Z" /><path d="M4.43037,7.54258c-.01675-.05013-.06764-.06434-.09308-.10579-.01609-.02622.0298-.0709.03359-.10272.01116-.09377-.10661-.13707-.17732-.1569-.01869-.00524-.04318-.00956-.0525-.029a.11454.11454,0,0,1,.00234-.06378.45772.45772,0,0,0,.01283-.15461.37857.37857,0,0,0-.06138-.15249.52708.52708,0,0,0-.10753-.121c-.00911-.00694-.0258.00184-.02241.01392.01438.05119.04067.1006.058.15128a.38452.38452,0,0,1,.028.16678.94591.94591,0,0,0-.02293.14927.14314.14314,0,0,0,.07642.12368.353.353,0,0,0,.13786.01913c.02047.00219.05418.01163.04147.0373-.00914.01846-.03207.03051-.04331.0486a.1164.1164,0,0,0,.01327.13887c.03226.03878.08267.05148.1203.08352C4.40522,7.61524,4.4409,7.57411,4.43037,7.54258Z" /><path d="M4.21711,7.49663a.35217.35217,0,0,1-.08405-.08644.31028.31028,0,0,0-.13483-.08026c-.05045-.021-.069-.0863-.07827-.13543A.6313.6313,0,0,1,3.91341,7.003c.00267-.02339-.034-.033-.041-.00951-.0387.131-.08631.30538.04026.40736a.31754.31754,0,0,0,.09019.042.14642.14642,0,0,1,.06136.05061c.03707.04428.08544.0875.14653.06651A.03681.03681,0,0,0,4.21711,7.49663Z" /><path d="M3.774,7.11375a.12566.12566,0,0,0-.12762-.08816c-.07454-.004-.13955.01987-.19326-.04849a.01393.01393,0,0,0-.02513.01111.165.165,0,0,0,.10382.12355c.062.02332.13475.00561.19127.04361C3.75065,7.17389,3.78019,7.1407,3.774,7.11375Z" /><path d="M3.9105,6.72636C3.89,6.7669,3.86688,6.807,3.84367,6.846a.51766.51766,0,0,1-.078.11646.012.012,0,0,0,.01522.0186.39991.39991,0,0,0,.12256-.10084.27945.27945,0,0,0,.0494-.14407A.022.022,0,0,0,3.9105,6.72636Z" /><path d="M5.44581,2.53349a.45989.45989,0,0,0-.18224-.26385.50189.50189,0,0,0-.635.12288.42172.42172,0,0,0-.08224.16972.52476.52476,0,0,0,.01235.18477c.00127.01109.01772.00817.01693-.00268a.21762.21762,0,0,1,.026-.10564c.01159-.02848.02111-.05754.03442-.08538a.45256.45256,0,0,1,.10129-.14059.43182.43182,0,0,1,.327-.11.3167.3167,0,0,1,.267.19863A.55932.55932,0,0,1,5.372,2.6811c.00646.07755.012.15432.014.2322.00059.02409.03841.03933.04586.01064A.72072.72072,0,0,0,5.44581,2.53349Z" /><path d="M5.11171,2.5627a.7561.7561,0,0,0-.15812-.01093.30223.30223,0,0,0-.14078.00929.19812.19812,0,0,0-.08937.06412.27385.27385,0,0,0-.04549.10966.01363.01363,0,0,0,.02554.0095.20982.20982,0,0,1,.173-.098c.03947-.00378.07712-.01095.11633-.01573a.393.393,0,0,0,.12049-.01544A.02866.02866,0,0,0,5.11171,2.5627Z" /><path d="M5.30341,2.70874a.06559.06559,0,0,0-.03283-.0182.07254.07254,0,0,0,.03325-.08485A.03312.03312,0,0,0,5.26069,2.589c-.01745.00755-.02385.02034-.03764.03238a.13507.13507,0,0,1-.05107.02583,1.10566,1.10566,0,0,1-.14067.02525.01248.01248,0,0,0,.0039.02465.4472.4472,0,0,1,.11313.02005.21335.21335,0,0,0,.03981.00135.16931.16931,0,0,0-.03524.07857c-.00306.014.02044.01947.02455.0057a.05984.05984,0,0,1,.05383-.04386c.0266.00014.02258.03071.02373.05182a.49236.49236,0,0,1-.02053.12382c-.00519.02731.029.039.048.02575A.14453.14453,0,0,0,5.332,2.84226.19773.19773,0,0,0,5.30341,2.70874Z" /><path d="M4.89463,2.88349c-.02427-.01649-.0471-.00448-.07138.00662a.25625.25625,0,0,1-.08724.02547c-.01557.00133-.01388.02471.00076.02656.04172.00528.1521.02872.16689-.0294A.02606.02606,0,0,0,4.89463,2.88349Z" /><path d="M4.834,3.09539c-.01589-.00547-.02961.00364-.045-.0008a.04613.04613,0,0,1-.03279-.029c-.004-.02.01135-.07544-.02666-.07132a.0104.0104,0,0,0-.00854.009.17847.17847,0,0,1-.00383.02928.11226.11226,0,0,0-.00754.03157.09477.09477,0,0,0,.021.05923c.02493.02986.10032.05511.11882.00573A.0266.0266,0,0,0,4.834,3.09539Z" /><path d="M4.95567,3.16475a.02555.02555,0,0,0-.03378-.00127l-.01032.0092-.005.0036-.003.00257-.01045.00667-.00892.00666-.00276.00262c-.01118.0036-.00829.01917.0007.0231l.005.0044.01256.00456a.04859.04859,0,0,0,.02081-.00113.06578.06578,0,0,0,.03873-.02737A.02588.02588,0,0,0,4.95567,3.16475Z" /><path d="M3.646,6.417c-.00593-.05974-.09586-.07122-.12729-.02633a.02556.02556,0,0,0,.01187.03847c.016.00384.03227.004.04831.00766a.18741.18741,0,0,0,.04966.0042A.02126.02126,0,0,0,3.646,6.417Z" /><path d="M3.6561,6.704a.09066.09066,0,0,0-.04393-.01034.05711.05711,0,0,0-.02271.00481l-.0145.01055c-.01074.00517-.00975.0247.00395.0247a.081.081,0,0,1,.02335.01031.09128.09128,0,0,1,.02125.01266.19373.19373,0,0,1,.03786.04235c.01165.01792.03633.00487.03954-.01193A.07721.07721,0,0,0,3.6561,6.704Z" /><path d="M3.26476,6.57162a.01537.01537,0,0,0,.012.02683.08961.08961,0,0,1,.07387.05444.02165.02165,0,0,0,.0397-.0012A.07788.07788,0,0,0,3.26476,6.57162Z" /><path d="M3.67323,6.92229a.27363.27363,0,0,0-.15191-.03394c-.04339-.00421-.12467-.01905-.13912-.07017a.01455.01455,0,0,0-.02873.00454.13781.13781,0,0,0,.09589.12474.36944.36944,0,0,0,.1.01769.87723.87723,0,0,0,.11215.00742C3.68767,6.97126,3.69041,6.93593,3.67323,6.92229Z" /></svg>