<svg xmlns="http://www.w3.org/2000/svg" data-name="Layer 1" viewBox="2.633236778713621 1.8710244470010962 4.733526442572757 6.258177943458762" x="0px" y="0px"><title>KAMASUTRA</title><path d="M3.3062,5.65191c-.01447.0288-.03441.05432-.04844.08339a.69944.69944,0,0,0-.037.0953,1.23516,1.23516,0,0,0-.0392.18871c-.021.143-.032.287-.03918.43127-.00743.14894-.00786.29851-.00579.44759.00091.06527.00641.13143.00223.19663-.00293.04566-.01.11807-.05863.13519a.85093.85093,0,0,1-.11408.01836.92516.92516,0,0,0-.09688.028.28064.28064,0,0,1-.19789.00757c-.02513-.01292-.05012.02472-.0318.0445a.15724.15724,0,0,0,.15448.05136c.069-.0117.12735-.05736.19609-.07012a.37912.37912,0,0,0,.17775-.051.18021.18021,0,0,0,.06842-.14221,2.09533,2.09533,0,0,0-.00172-.21668q-.00178-.12437.00005-.24875c.0024-.16317.0092-.32624.01494-.48931a2.38389,2.38389,0,0,1,.01879-.25245c.00548-.03848.0119-.077.01992-.11507a.5632.5632,0,0,1,.03742-.135C3.33171,5.64722,3.31217,5.64,3.3062,5.65191Z" /><path d="M3.38856,7.42671a.35485.35485,0,0,1-.13691.00294.61265.61265,0,0,0-.12077.00282c-.0459.00718-.08858.02568-.13527.02964A.53428.53428,0,0,1,2.835,7.44523c-.01308-.00287-.01789.01868-.00528.02277a1.11746,1.11746,0,0,0,.15238.0435.51782.51782,0,0,0,.15945-.01176c.04861-.00581.09789.00683.14673.00442a.17629.17629,0,0,0,.11612-.05172A.01531.01531,0,0,0,3.38856,7.42671Z" /><path d="M4.20263,5.67236c-.01707.02076-.03661.03234-.04658.05806a.27206.27206,0,0,0-.01434.065c-.00674.05487.00157.11024-.00658.16519a.49654.49654,0,0,1-.01783.07586c-.03374-.02145-.06463-.05-.099-.0684a.9794.9794,0,0,0-.16821-.07123.76888.76888,0,0,0-.1707-.03638.55563.55563,0,0,0-.083.0008c-.03474.00265-.0661.01652-.10026.02a.0093.0093,0,0,0,.00053.01836.53134.53134,0,0,1,.087.023l.00835.00206c-.023.11171-.01767.22892-.03078.342a2.27583,2.27583,0,0,1-.07946.38447c-.03495.11815-.074.23565-.09879.35649a.9277.9277,0,0,0-.02053.18184.32.32,0,0,0,.01056.09082c.00816.02869.02515.05327.03394.08192.003.00966.01834.00468.01674-.00494a.4575.4575,0,0,1,.00561-.10087c.00167-.03007.00168-.06019.00375-.09024a1.10849,1.10849,0,0,1,.03084-.18758c.02993-.12191.07437-.2395.10846-.36021a2.68077,2.68077,0,0,0,.07667-.36684.99961.99961,0,0,0,.00951-.31074l.01256.003a1.4694,1.4694,0,0,1,.18193.0517,1.2244,1.2244,0,0,0,.24219.10022.7489.7489,0,0,1-.11979.18942,2.03231,2.03231,0,0,0-.22916.28318.577.577,0,0,0-.06291.16127c-.01011.04-.03027.10257.00525.13357a.01856.01856,0,0,0,.02234-.00078c.01986-.016.0189-.03427.02229-.05887a.31742.31742,0,0,1,.0224-.08527.9979.9979,0,0,1,.08593-.15073c.064-.09428.139-.18234.20839-.27275a.72289.72289,0,0,0,.15919-.28633.49412.49412,0,0,0,.00573-.15343c-.00236-.02454-.00673-.049-.0085-.07354a.16269.16269,0,0,1,.01331-.09715C4.22812,5.67406,4.21112,5.662,4.20263,5.67236Z" /><path d="M4.34544,5.38432a.48527.48527,0,0,0-.10878.01279,3.285,3.285,0,0,1,.00309-.61418,2.67484,2.67484,0,0,0,.00159-.62646.01091.01091,0,0,0-.02154.00062c-.03089.21234-.06158.42632-.07953.64023a2.59642,2.59642,0,0,0,.00337.6194l-.01207.002c-.07634.01206-.1529.02257-.22887.03687-.07776.01464-.15557.02941-.23227.04888-.03432.00871-.06885.017-.10284.02695-.045.01313-.08783.039-.13316.04911-.01189.00265-.009.0214.003.01874a1.20467,1.20467,0,0,1,.13084-.00883c.03789-.004.0756-.01023.11337-.01531.081-.0109.16166-.0244.2426-.03588.07877-.01118.15764-.022.23631-.03382a.37509.37509,0,0,0,.20115-.06738C4.37951,5.42178,4.37355,5.38494,4.34544,5.38432Z" /><path d="M4.41914,7.68512a2.30089,2.30089,0,0,1-.29082-.07923.167.167,0,0,1-.10941-.0779c-.02366-.04021-.04836-.0798-.073-.11939a2.004,2.004,0,0,1-.13419-.24075c-.038-.08536-.06807-.1738-.09768-.26234-.00388-.01159-.02-.00665-.02163.00346a.91637.91637,0,0,0,.18453.58517.88787.88787,0,0,0,.08444.12567.2791.2791,0,0,0,.13376.07539.84972.84972,0,0,0,.32531.03424C4.44738,7.7277,4.44238,7.68949,4.41914,7.68512Z" /><path d="M4.64224,6.08327A.22829.22829,0,0,0,4.59677,6.082c-.0243-.00276-.03427-.0188-.0417-.03976a.49281.49281,0,0,1-.01612-.13379.66023.66023,0,0,0-.06284-.26862.01.01,0,0,0-.01819.00805c.03887.12579-.02389.25639.00044.38219a.15.15,0,0,0,.09136.11143c.03466.01463.09418.01913.10731-.0259A.02547.02547,0,0,0,4.64224,6.08327Z" /><path d="M4.49248,6.18854a.13685.13685,0,0,0-.154.0173.3605.3605,0,0,0-.0927.19312,1.28149,1.28149,0,0,1-.08454.21241c-.01786.03539-.03852.06893-.0578.10348-.00931.0167-.01942.03317-.02836.05005a.31066.31066,0,0,0-.01453.03543.10886.10886,0,0,0-.10866-.02483.01048.01048,0,0,0,.00318.01987c.02774.0006.0449.04468.05844.06335.01393.01921.02866.03786.04338.05648a.73433.73433,0,0,0,.09188.09858c.03135.0275.06488.05239.09723.07868.01735.0141.03413.02866.05033.04405a.54094.54094,0,0,1,.05414.048c.02681.03369.07422-.00714.051-.0417-.01048-.01556-.01806-.03134-.02815-.04611.00342-.01186.005-.025.0078-.03919l.01921-.09574c.01341-.06682.02761-.13357.03921-.20074a1.28374,1.28374,0,0,0,.02427-.195.96544.96544,0,0,0-.03132-.20123c-.00217-.01106-.02046-.01173-.02063.00059a1.48757,1.48757,0,0,1-.03051.1924c-.00981.06773-.018.1353-.03052.20265-.01194.06433-.02461.12851-.03721.19271-.00407.02075-.01175.04531-.01755.07032-.03989-.03221-.08189-.06213-.11883-.0978-.02519-.02432-.0532-.06329-.08494-.09621a.38028.38028,0,0,0,.05418-.049.6574.6574,0,0,0,.06128-.0879,1.18359,1.18359,0,0,0,.08571-.17659c.02385-.06151.03676-.12639.06012-.18792.01982-.05223.06808-.13512.13559-.12507C4.4979,6.20418,4.49979,6.19188,4.49248,6.18854Z" /><path d="M4.36932,5.5861a.24543.24543,0,0,0-.09411.16409c-.01877.07994.02022.159-.006.23785a.01179.01179,0,0,0,.02209.00822.34755.34755,0,0,0,.01919-.09914.81994.81994,0,0,1,.01981-.09831c.00768-.035.01462-.06946.02557-.10364a.38258.38258,0,0,0,.02774-.09876C4.38387,5.58938,4.37649,5.58221,4.36932,5.5861Z" /><path d="M6.6938,5.65191c.01447.0288.03441.05432.04844.08339a.69944.69944,0,0,1,.037.0953,1.23516,1.23516,0,0,1,.0392.18871c.021.143.032.287.03918.43127.00743.14894.00786.29851.00579.44759-.00091.06527-.00641.13143-.00223.19663.00293.04566.01.11807.05863.13519a.85093.85093,0,0,0,.11408.01836.92516.92516,0,0,1,.09688.028.28064.28064,0,0,0,.19789.00757c.02513-.01292.05012.02472.0318.0445a.15724.15724,0,0,1-.15448.05136c-.069-.0117-.12735-.05736-.19609-.07012a.37912.37912,0,0,1-.17775-.051.18021.18021,0,0,1-.06842-.14221,2.09533,2.09533,0,0,1,.00172-.21668q.00178-.12437-.00005-.24875c-.0024-.16317-.0092-.32624-.01494-.48931a2.38389,2.38389,0,0,0-.01879-.25245c-.00548-.03848-.0119-.077-.01992-.11507a.5632.5632,0,0,0-.03742-.135C6.66829,5.64722,6.68783,5.64,6.6938,5.65191Z" /><path d="M6.61144,7.42671a.35485.35485,0,0,0,.13691.00294.61265.61265,0,0,1,.12077.00282c.0459.00718.08858.02568.13527.02964A.53428.53428,0,0,0,7.165,7.44523c.01308-.00287.01789.01868.00528.02277a1.11746,1.11746,0,0,1-.15238.0435.51782.51782,0,0,1-.15945-.01176c-.04861-.00581-.09789.00683-.14673.00442a.17629.17629,0,0,1-.11612-.05172A.01531.01531,0,0,1,6.61144,7.42671Z" /><path d="M5.79737,5.67236c.01707.02076.03661.03234.04658.05806a.27206.27206,0,0,1,.01434.065c.00674.05487-.00157.11024.00658.16519a.49654.49654,0,0,0,.01783.07586c.03374-.02145.06463-.05.099-.0684a.9794.9794,0,0,1,.16821-.07123.76888.76888,0,0,1,.1707-.03638.55563.55563,0,0,1,.083.0008c.03474.00265.0661.01652.10026.02a.0093.0093,0,0,1-.00053.01836.53134.53134,0,0,0-.087.023l-.00835.00206c.023.11171.01767.22892.03078.342a2.27583,2.27583,0,0,0,.07946.38447c.03495.11815.074.23565.09879.35649a.9277.9277,0,0,1,.02053.18184.32.32,0,0,1-.01056.09082c-.00816.02869-.02515.05327-.03394.08192-.003.00966-.01834.00468-.01674-.00494a.4575.4575,0,0,0-.00561-.10087c-.00167-.03007-.00168-.06019-.00375-.09024a1.10849,1.10849,0,0,0-.03084-.18758c-.02993-.12191-.07437-.2395-.10846-.36021a2.68077,2.68077,0,0,1-.07667-.36684.99961.99961,0,0,1-.00951-.31074l-.01256.003a1.4694,1.4694,0,0,0-.18193.0517,1.2244,1.2244,0,0,1-.24219.10022.7489.7489,0,0,0,.11979.18942,2.03231,2.03231,0,0,1,.22916.28318.577.577,0,0,1,.06291.16127c.01011.04.03027.10257-.00525.13357a.01856.01856,0,0,1-.02234-.00078c-.01986-.016-.0189-.03427-.02229-.05887a.31742.31742,0,0,0-.0224-.08527.9979.9979,0,0,0-.08593-.15073c-.064-.09428-.139-.18234-.20839-.27275a.72289.72289,0,0,1-.15919-.28633.49412.49412,0,0,1-.00573-.15343c.00236-.02454.00673-.049.0085-.07354a.16269.16269,0,0,0-.01331-.09715C5.77188,5.67406,5.78888,5.662,5.79737,5.67236Z" /><path d="M6.56557,5.58057c-.04534-.0101-.08812-.036-.13316-.04911-.034-.00991-.06853-.01824-.10285-.02695-.0767-.01946-.15451-.03424-.23227-.04888-.071-.01336-.14243-.02345-.21376-.03454-.00161-.20024-.00731-.40057-.02159-.60032-.00731-.10232-.01374-.20521-.02582-.30708a1.17161,1.17161,0,0,0-.05556-.297c-.00407-.01-.0171-.00591-.019.003a1.35182,1.35182,0,0,0-.00764.29636c.00179.10107.0081.20216.01138.3032.00631.19406.01334.38811.01823.58223a.55235.55235,0,0,0-.129-.01714c-.0281.00062-.03407.03746-.01622.05377a.37509.37509,0,0,0,.20115.06738c.07867.01183.15755.02264.23631.03382.08094.01149.16158.025.2426.03588.03777.00508.07548.01129.11337.01531a1.20471,1.20471,0,0,1,.13084.00883C6.57454,5.602,6.57746,5.58322,6.56557,5.58057Z" /><path d="M5.58086,7.68512a2.30089,2.30089,0,0,0,.29082-.07923.167.167,0,0,0,.10941-.0779c.02366-.04021.04836-.0798.073-.11939a2.004,2.004,0,0,0,.13419-.24075c.038-.08536.06807-.1738.09768-.26234.00388-.01159.02-.00665.02163.00346a.91637.91637,0,0,1-.18453.58517.88787.88787,0,0,1-.08444.12567.2791.2791,0,0,1-.13376.07539.84972.84972,0,0,1-.32531.03424C5.55262,7.7277,5.55762,7.68949,5.58086,7.68512Z" /><path d="M5.35776,6.08327A.22829.22829,0,0,1,5.40323,6.082c.0243-.00276.03427-.0188.0417-.03976a.49281.49281,0,0,0,.01612-.13379.66023.66023,0,0,1,.06284-.26862.01.01,0,0,1,.01819.00805c-.03887.12579.02389.25639-.00044.38219a.15.15,0,0,1-.09136.11143c-.03466.01463-.09418.01913-.10731-.0259A.02547.02547,0,0,1,5.35776,6.08327Z" /><path d="M6.04808,6.7755a.10885.10885,0,0,0-.10866.02483.31066.31066,0,0,0-.01453-.03543c-.00894-.01688-.019-.03335-.02836-.05005-.01927-.03456-.03994-.0681-.05779-.10348A1.2815,1.2815,0,0,1,5.7542,6.399a.36048.36048,0,0,0-.0927-.19312.13685.13685,0,0,0-.154-.0173c-.00731.00334-.00542.01564.00332.01433.06751-.01005.11576.07284.13559.12507.02336.06153.03627.12641.06012.18792a1.1834,1.1834,0,0,0,.08571.17659.65722.65722,0,0,0,.06128.0879.38027.38027,0,0,0,.05418.049c-.03174.03292-.05975.07189-.08494.09621-.03307.03193-.07021.05924-.10624.08772L5.687,6.91842c-.01852-.0595-.03776-.119-.0521-.17965a.93581.93581,0,0,1-.022-.17963c-.00131-.03405-.00209-.06807-.00279-.10214-.00055-.02671-.0112-.0549-.00911-.081a.01064.01064,0,0,0-.02117-.00212c-.00453.02868-.0226.05619-.02886.08522a.89707.89707,0,0,0-.016.09439.6571.6571,0,0,0,.00807.19187,1.57892,1.57892,0,0,0,.04982.17848l.03.09536a.39544.39544,0,0,0,.0193.05837L5.642,7.07776a.39794.39794,0,0,0-.04349.06505c-.02326.03456.02416.07539.051.0417a.54094.54094,0,0,1,.05414-.048c.0162-.0154.033-.03.05033-.04405.03235-.02629.06587-.05118.09723-.07868a.73433.73433,0,0,0,.09188-.09858c.01471-.01862.02944-.03727.04337-.05648C6,6.84,6.01717,6.796,6.0449,6.79537A.01048.01048,0,0,0,6.04808,6.7755Z" /><path d="M5.63068,5.5861a.24543.24543,0,0,1,.09411.16409c.01877.07994-.02022.159.006.23785a.01179.01179,0,0,1-.02209.00822.34755.34755,0,0,1-.01919-.09914.81994.81994,0,0,0-.01981-.09831c-.00768-.035-.01462-.06946-.02557-.10364a.38258.38258,0,0,1-.02774-.09876C5.61613,5.58938,5.62351,5.58221,5.63068,5.5861Z" /><path d="M5.308,6.05642c-.03982-.04506-.11545-.04318-.1668-.072a.24281.24281,0,0,1-.09051-.08479A.20812.20812,0,0,0,5.04,5.74954a.01007.01007,0,0,0-.01842.00056c-.01447.03752-.0176.07827-.03362.11577a.408.408,0,0,1-.06916.1147.31192.31192,0,0,1-.09892.07126.52614.52614,0,0,0-.11151.04528.02159.02159,0,0,0,.00119.03409.16579.16579,0,0,0,.13577-.00578.33638.33638,0,0,0,.17642-.15408.21687.21687,0,0,0,.05.06575c.05226.04727.16758.10052.23283.05338A.02437.02437,0,0,0,5.308,6.05642Z" /><path d="M5.47732,7.5401a.03066.03066,0,0,0-.058.00928.3764.3764,0,0,0-.00541.04173.5461.5461,0,0,0-.13135-.135.3954.3954,0,0,0-.28632-.11442c-.10975.01509-.15985.10654-.2165.18881-.01191.01731.01258.03324.026.0184A.45972.45972,0,0,1,4.912,7.47076.17553.17553,0,0,1,5.01982,7.445a.72406.72406,0,0,1,.22739.07793.22278.22278,0,0,1,.09348.06956.23151.23151,0,0,1,.02791.103.99649.99649,0,0,1-.01143.2l-.0021.00347a.30014.30014,0,0,1-.2733.13779.46633.46633,0,0,1-.32207-.12654.24089.24089,0,0,1-.03561-.185c.00489-.06506.01013-.12984.01885-.19454.00174-.01287-.01784-.02128-.02467-.00923a.65723.65723,0,0,0-.06031.14313.17851.17851,0,0,0-.118.04187c-.0097.00773-.00266.02743.01057.0236a.1362.1362,0,0,1,.092.00795.38969.38969,0,0,0,.00255.12908.35028.35028,0,0,0,.22876.222.45752.45752,0,0,0,.3346.0158.42766.42766,0,0,0,.24165-.176A.45544.45544,0,0,0,5.47732,7.5401Z" /><path d="M5.00084,7.14772c-.02324.03456-.05659.04022-.09167.05689a.32048.32048,0,0,0-.08214.05775.483.483,0,0,0-.10965.163.01461.01461,0,0,0,.0255.01347.46478.46478,0,0,1,.15381-.147.63547.63547,0,0,0,.147-.11378C5.06579,7.15336,5.02015,7.119,5.00084,7.14772Z" /><path d="M5.31669,7.3061c-.06643-.05311-.14119-.09264-.2097-.14251a.00961.00961,0,0,0-.01485.00922c.00344.07306.09426.10881.14471.14618a.32078.32078,0,0,1,.07808.08781c.02007.03013.02628.07009.0554.09283a.02894.02894,0,0,0,.04014-.00686C5.453,7.41972,5.36686,7.34622,5.31669,7.3061Z" /><path d="M5.09061,6.73862a.01915.01915,0,0,0-.03781.006c.00178.0449-.01407.10619.00892.147.01167.02072.05073.02765.058-.00176A.33706.33706,0,0,0,5.09061,6.73862Z" /><path d="M4.56893,4.61221a1.84316,1.84316,0,0,0-.08873-.32412.50225.50225,0,0,0-.07353-.12783.31418.31418,0,0,0-.05117-.04741c.03158-.002.06344-.00284.09585-.00257a.0403.0403,0,0,0,.008-.08015.97682.97682,0,0,0-.52906.10536c-.08457.034-.16834.07035-.25558.09713A.41789.41789,0,0,1,3.42,4.25815a.00886.00886,0,0,0-.00988.01382.19723.19723,0,0,0,.19173.05755A1.51512,1.51512,0,0,0,3.877,4.247c.09181-.03456.18252-.07333.27694-.10045a.89415.89415,0,0,1,.13579-.0275c.00717.01124.01409.02532.02.03372.01328.01885.0246.03924.03612.05921a.7691.7691,0,0,1,.05682.1243,2.06533,2.06533,0,0,1,.07331.29066,1.17372,1.17372,0,0,1,.02824.33856,1.1536,1.1536,0,0,1-.0749.28735.02185.02185,0,0,0,.034.02432C4.66228,5.1289,4.61391,4.82085,4.56893,4.61221Z" /><path d="M6.41338,4.22407c-.069-.00561-.13454.01449-.20468.00437a.84934.84934,0,0,1-.196-.05928.77676.77676,0,0,0-.34991-.08671c.005-.0235.00953-.047.013-.07066.00479-.0323-.03945-.03788-.05208-.01208a2.72114,2.72114,0,0,0-.12748.34107,1.29619,1.29619,0,0,0-.08285.33414.67527.67527,0,0,0,.08057.3163,2.67569,2.67569,0,0,0,.15429.30787c.0077.0122.02794.00191.02522-.0113a2.52006,2.52006,0,0,0-.09578-.30706.73914.73914,0,0,1-.068-.32026A2.09891,2.09891,0,0,1,5.594,4.34181c.01823-.06747.039-.13557.05614-.20418a2.56313,2.56313,0,0,1,.39.14495c.11064.041.30668.09855.395-.01069A.03063.03063,0,0,0,6.41338,4.22407Z" /><path d="M3.18564,3.08573A.40175.40175,0,0,0,3.1302,2.998c-.026-.03047-.07025-.063-.07983-.1032a.01317.01317,0,0,0-.026.00411.27866.27866,0,0,0,.02429.09849.50958.50958,0,0,0,.06374.08852.357.357,0,0,1,.05482.10622c.01653.04354.03779.08484.05218.12927.00338.01044.01869.00635.01987-.00318A.425.425,0,0,0,3.18564,3.08573Z" /><path d="M3.32656,4.0563c-.01329-.07338-.0241-.14693-.03063-.22124-.00632-.07189-.01291-.14378-.01782-.21578l-.00788-.10773c-.0033-.04237-.01349-.08431-.01466-.12667-.00037-.01327-.02058-.01613-.02117-.00212-.00319.07686-.01884.15315-.02142.23066a2.0484,2.0484,0,0,0,.0031.22646,1.60586,1.60586,0,0,0,.03216.22881.4396.4396,0,0,0,.07516.20048.02217.02217,0,0,0,.03873-.01169A.82334.82334,0,0,0,3.32656,4.0563Z" /><path d="M3.24418,2.89291a.43573.43573,0,0,0-.05137-.152.01462.01462,0,0,0-.02489.00414.36927.36927,0,0,0,.00849.16662.65618.65618,0,0,0,.05734.17248.02016.02016,0,0,0,.03816-.01125A1.04355,1.04355,0,0,0,3.24418,2.89291Z" /><path d="M3.3518,2.889a.85039.85039,0,0,0-.02416-.181c-.00383-.01216-.02216-.00988-.02608.00079a.5067.5067,0,0,0-.0183.18661.32515.32515,0,0,0,.03039.17863A.02557.02557,0,0,0,3.357,3.06686.41673.41673,0,0,0,3.3518,2.889Z" /><path d="M3.6213,3.02135a.50473.50473,0,0,0-.10292.04764c-.01713.00827-.03356.01448-.04675-.00124-.0108-.01286-.005-.04535-.0047-.06077.00139-.07823-.00728-.15543-.01261-.23337-.00141-.02061-.033-.01845-.03522.001-.00716.06158-.01757.1229-.02153.18479a.2643.2643,0,0,0,.014.14657c.057.09747.18114-.002.22387-.06185A.0147.0147,0,0,0,3.6213,3.02135Z" /><path d="M3.60137,3.12193c-.03882.0446-.07836.08836-.11326.1364a.43816.43816,0,0,1-.04932.067c-.0144.01337-.03327.0195-.04336.03731a.02681.02681,0,0,0,.00108.03069c.0441.065.114-.02874.13618-.06424a.38087.38087,0,0,0,.08-.20448C3.61251,3.11846,3.60447,3.11837,3.60137,3.12193Z" /><path d="M4.40375,3.58284a.37068.37068,0,0,0-.19282.02862.96241.96241,0,0,0,.01363-.1887c-.00028-.09211-.00363-.18428-.00733-.27631A2.60646,2.60646,0,0,0,4.15294,2.59a.01.01,0,0,0-.01972.00056,4.028,4.028,0,0,0-.01092.53377c.00091.0882.00137.17642.00246.26462a.93707.93707,0,0,1-.02205.25791l-.00184.012c-.05079.025-.1.05324-.14828.08273-.07011.04283-.13757.09045-.20872.13149a.54962.54962,0,0,1-.1104.05161l-.0124.00381a.52267.52267,0,0,0-.05234-.21645,1.15618,1.15618,0,0,1-.048-.13839.5592.5592,0,0,0-.04754-.1352.00985.00985,0,0,0-.018.00055.39875.39875,0,0,0,.01768.2752,1.25926,1.25926,0,0,1,.05019.13851.83809.83809,0,0,0,.026.09271.13222.13222,0,0,1-.0445-.00124c-.01975-.00455-.02291.02444-.00744.0321a.20842.20842,0,0,0,.10861.03362A.31479.31479,0,0,0,3.7201,3.98a1.69062,1.69062,0,0,0,.22048-.13234,1.90645,1.90645,0,0,1,.22465-.12581c.08013-.03668.16615-.05348.24668-.088A.02694.02694,0,0,0,4.40375,3.58284Z" /><path d="M6.66162,3.09346a.40175.40175,0,0,1,.05544-.08774c.026-.03047.07025-.063.07983-.1032a.01317.01317,0,0,1,.026.00411.27866.27866,0,0,1-.02429.09849.50958.50958,0,0,1-.06374.08852A.357.357,0,0,0,6.68,3.19986c-.01653.04354-.03779.08484-.05218.12927-.00338.01044-.01869.00635-.01987-.00318A.425.425,0,0,1,6.66162,3.09346Z" /><path d="M6.52069,4.064c.01329-.07338.0241-.14693.03063-.22124.00632-.07189.01291-.14378.01782-.21578L6.577,3.51927c.0033-.04237.01349-.08431.01466-.12667.00037-.01327.02058-.01613.02117-.00212.00319.07686.01884.15315.02142.23066a2.0484,2.0484,0,0,1-.0031.22646,1.60586,1.60586,0,0,1-.03216.22881.4396.4396,0,0,1-.07516.20048.02217.02217,0,0,1-.03873-.01169A.82334.82334,0,0,1,6.52069,4.064Z" /><path d="M6.60307,2.90064a.43573.43573,0,0,1,.05137-.152.01462.01462,0,0,1,.02489.00414.36927.36927,0,0,1-.00849.16662.65618.65618,0,0,1-.05734.17248.02016.02016,0,0,1-.03816-.01125A1.04355,1.04355,0,0,1,6.60307,2.90064Z" /><path d="M6.49545,2.89678a.85039.85039,0,0,1,.02416-.181c.00383-.01216.02216-.00988.02608.00079a.5067.5067,0,0,1,.0183.18661.32515.32515,0,0,1-.03039.17863.02557.02557,0,0,1-.04337-.00721A.41673.41673,0,0,1,6.49545,2.89678Z" /><path d="M6.226,3.02908a.50473.50473,0,0,1,.10292.04764c.01713.00827.03356.01448.04675-.00124.0108-.01286.005-.04535.0047-.06077-.00139-.07823.00728-.15543.01261-.23337.00141-.02061.033-.01845.03522.001.00716.06158.01757.1229.02153.18479a.2643.2643,0,0,1-.014.14657c-.057.09747-.18114-.002-.22387-.06185A.0147.0147,0,0,1,6.226,3.02908Z" /><path d="M6.24588,3.12967c.03882.0446.07836.08836.11326.1364a.43816.43816,0,0,0,.04932.067c.0144.01337.03327.0195.04336.03731a.02681.02681,0,0,1-.00108.03069c-.0441.065-.114-.02874-.13618-.06424a.38087.38087,0,0,1-.08-.20448C6.23474,3.12619,6.24278,3.1261,6.24588,3.12967Z" /><path d="M6.37442,3.722a.39874.39874,0,0,0,.01768-.2752.00985.00985,0,0,0-.018-.00055.55937.55937,0,0,0-.04754.1352,1.15617,1.15617,0,0,1-.048.13839.52267.52267,0,0,0-.05234.21645l-.0124-.00381a.54973.54973,0,0,1-.1104-.05161c-.07115-.041-.13861-.08866-.20872-.13149-.02808-.01716-.05648-.03389-.08532-.04984.00165-.15333-.00452-.30672-.00343-.46007s.00667-.30576.01619-.45876c.0049-.07866.01593-.15641.028-.23425a2.19236,2.19236,0,0,1,.03876-.22356c.02424-.09227.105-.271-.00026-.34171a.01053.01053,0,0,0-.01629.01012.38335.38335,0,0,1-.0071.19012c-.02.07025-.04.1403-.05933.21075a1.94961,1.94961,0,0,0-.04962.208c-.01166.07246-.02267.14549-.03078.21843a5.062,5.062,0,0,0-.01708.8302l-.03827-.01641a.41908.41908,0,0,0-.22666-.04177.02694.02694,0,0,0-.00816.051c.08053.03454.16654.05134.24668.088a1.90645,1.90645,0,0,1,.22465.12581,1.69034,1.69034,0,0,0,.22048.13234.31478.31478,0,0,0,.11443.0299.20841.20841,0,0,0,.10861-.03362c.01546-.00766.01231-.03665-.00744-.0321a.13221.13221,0,0,1-.0445.00124.83809.83809,0,0,0,.026-.09271A1.25925,1.25925,0,0,1,6.37442,3.722Z" /><path d="M5.01981,4.38478a1.462,1.462,0,0,0-.226-.34148.89669.89669,0,0,1-.10612-.16995.91763.91763,0,0,1-.05982-.25219,3.38948,3.38948,0,0,1-.0293-.56845,1.74119,1.74119,0,0,1,.02206-.26415A.366.366,0,0,1,4.71731,2.58a.01184.01184,0,0,0-.01223-.0199.34221.34221,0,0,0-.19288.31814q-.00911.07773-.01341.156C4.482,2.9815,4.468,2.92836,4.45508,2.87444a.45636.45636,0,0,0-.06016-.16964.0091.0091,0,0,0-.01545.00257.37919.37919,0,0,0,.00035.171,1.25165,1.25165,0,0,0,.04384.18494,1.31372,1.31372,0,0,1,.04823.16836c.00783.04405.01728.08754.02649.13111q.00217.04355.00534.087a1.218,1.218,0,0,0,.11189.51357c.07067.12463.17179.22715.25059.34611a.50142.50142,0,0,1,.08548.21447.68822.68822,0,0,1-.00022.15125c-.00562.05422-.02435.10764-.02587.16182a.02416.02416,0,0,0,.04341.01623.65278.65278,0,0,0,.08065-.24682A.4445.4445,0,0,0,5.01981,4.38478Z" /><path d="M4.84417,2.51117c-.13649.06561-.15736.26535-.17136.39677a1.25648,1.25648,0,0,0,.02968.569.02367.02367,0,0,0,.04488-.00718c.003-.17693-.00149-.35181.015-.52847a2.151,2.151,0,0,1,.02735-.21575.75731.75731,0,0,1,.07613-.19394C4.87214,2.51895,4.856,2.5055,4.84417,2.51117Z" /><path d="M5.15572,4.43542a1.06215,1.06215,0,0,0-.0288-.12828A.95138.95138,0,0,0,5.015,4.06842c-.04408-.07279-.09314-.1424-.13669-.21552a.81154.81154,0,0,1-.12243-.24719.00972.00972,0,0,0-.0192.003,1.10885,1.10885,0,0,0,.05269.23623,1.75932,1.75932,0,0,0,.12145.23c.04524.07459.08575.15143.12769.22784a.57133.57133,0,0,1,.05111.11765.73081.73081,0,0,1,.03269.13874c.00123.01614.02651.01487.02792-.0008A.51933.51933,0,0,0,5.15572,4.43542Z" /><path d="M5.56447,2.88419c-.00146-.00883-.015-.01344-.02-.00468a.81268.81268,0,0,0-.07559.261c-.00235-.02687-.00549-.05368-.00981-.08039A1.84809,1.84809,0,0,0,5.39989,2.82,1.08945,1.08945,0,0,0,5.32,2.61048a.28591.28591,0,0,0-.3671-.16339c-.02074.00993-.01229.04493.01177.03991.13036-.02723.24263.08915.2917.19641a1.49585,1.49585,0,0,1,.11164.41486,2.69274,2.69274,0,0,1,.00312.46236c-.00555.14587-.01428.29184-.03342.43663-.01063.08044-.02282.16088-.038.2406-.01615.0848-.02916.17178-.05145.255-.00192.00718.00838.01438.01261.00666a1.153,1.153,0,0,0,.098-.20913,1.76579,1.76579,0,0,0,.05613-.23164,4.37234,4.37234,0,0,0,.047-.49673l.00326-.05708.00253-.005c.011-.05474.03064-.10725.04134-.162.01005-.05145.02063-.10282.0296-.15448A.92311.92311,0,0,0,5.56447,2.88419Z" /><path d="M5.18841,3.70912c-.00206-.11885.0022-.23759.0036-.3564a2.761,2.761,0,0,0-.01257-.341,2.14444,2.14444,0,0,0-.0721-.345C5.10379,2.6542,5.084,2.65659,5.08678,2.67a3.09769,3.09769,0,0,1,.01564.70551,2.377,2.377,0,0,0,.03651.695.0341.0341,0,0,0,.06732-.01064C5.19847,3.94322,5.19044,3.826,5.18841,3.70912Z" /><path d="M5.00516,3.33521c-.00606-.11869-.00893-.237-.00408-.35577a.01064.01064,0,0,0-.02117-.00212,1.97864,1.97864,0,0,0-.01769.69575c.00609.02677.04829.02878.05025-.00144A2.91844,2.91844,0,0,0,5.00516,3.33521Z" /><path d="M4.10782,2.17674a.544.544,0,0,1-.01246-.15095.32962.32962,0,0,1,.013-.0683A.41911.41911,0,0,1,4.131,1.88832a.01115.01115,0,0,0-.01608-.015.1665.1665,0,0,0-.057.05091.25443.25443,0,0,0-.02677.0619.44471.44471,0,0,0-.01266.15427c.00891.13071.06674.25287.08189.383a.017.017,0,0,0,.03242.00324A.70149.70149,0,0,0,4.10782,2.17674Z" /><path d="M4.49994,2.4744a.26657.26657,0,0,0-.04759-.09976.363.363,0,0,1-.05071-.12313,1.66435,1.66435,0,0,0-.07219-.25213c-.01842-.043-.08356-.14409-.1428-.10994l-.00308.008c.00987.02878.04321.0444.06.07019a.27528.27528,0,0,1,.0342.09545c.01459.07174.0227.14451.04025.21576a.30062.30062,0,0,0,.036.09163c.0164.02582.038.048.05426.07385a.271.271,0,0,1,.00323.21058c-.00274.011.00943.023.01959.014A.20743.20743,0,0,0,4.49994,2.4744Z" /><path d="M5.78935,1.922a.2861.2861,0,0,0-.15222.17814c-.01583.04611-.02.09524-.03438.14175a.41444.41444,0,0,1-.076.12811.31711.31711,0,0,0,.02115.44138.01838.01838,0,0,0,.02719-.02225.56678.56678,0,0,1-.04294-.21082.34677.34677,0,0,1,.09156-.20775.3577.3577,0,0,0,.05954-.09872.73153.73153,0,0,0,.02434-.118.36292.36292,0,0,1,.03576-.11506c.01842-.03339.042-.06453.06234-.0968A.01352.01352,0,0,0,5.78935,1.922Z" /><path d="M5.05118,4.9459a.02492.02492,0,0,0-.04566.00138.33828.33828,0,0,0-.0134.13742.58739.58739,0,0,0,.00577.06771c.00391.02684.01574.05021.02.0767a.01091.01091,0,0,0,.02155-.00062c.00388-.02418.01525-.04558.01914-.07a.57909.57909,0,0,0,.00683-.07918A.33343.33343,0,0,0,5.05118,4.9459Z" /></svg>