<svg xmlns="http://www.w3.org/2000/svg" data-name="Layer 1" viewBox="2.0564191798848466 2.480292742458886 5.886781978000998 5.028469345177105" x="0px" y="0px"><title>KAMASUTRA</title><path d="M3.45767,6.13637a.20207.20207,0,0,0-.111-.03009.22566.22566,0,0,0-.09905.03731.23.23,0,0,1-.11257.04742.00987.00987,0,0,0-.002.01962.1756.1756,0,0,0,.08219-.00586A.68186.68186,0,0,1,3.31518,6.167a.15664.15664,0,0,1,.11129.02318c.02806.01663.05616.05383.09114.04709a.02387.02387,0,0,0,.01922-.02644C3.53536,6.17556,3.48519,6.15174,3.45767,6.13637Z" /><path d="M3.91946,7.014a.29313.29313,0,0,0-.04451-.09209c-.01843-.03057-.03612-.0616-.05343-.09282-.03465-.06251-.06567-.12682-.09614-.19144-.02953-.06261-.05451-.12755-.08029-.19177-.02689-.067-.05606-.13478-.07859-.2033-.00332-.0101-.01869-.00478-.01736.00512a1.79734,1.79734,0,0,0,.03759.21539,1.83247,1.83247,0,0,0,.06948.20517l.01366.03347c-.01942.03363-.03305.07136-.05235.10473a1.43426,1.43426,0,0,1-.08449.12744,2.50656,2.50656,0,0,1-.20087.24773.947.947,0,0,1-.24743.19368,1.05653,1.05653,0,0,1-.29492.093.01772.01772,0,0,0-.00339.03387.63656.63656,0,0,0,.59909-.2461,2.6073,2.6073,0,0,0,.2211-.27009,1.0388,1.0388,0,0,0,.0929-.14939l.01648-.035q.01516.03043.03113.06041c.0177.03327.03657.06588.05618.09805a.25641.25641,0,0,0,.067.08445A.03175.03175,0,0,0,3.91946,7.014Z" /><path d="M3.3747,6.01211a.19.19,0,0,0-.09248.03.53079.53079,0,0,0-.0819.06246c-.00829.00665.00167.0177.01016.01241a.542.542,0,0,1,.094-.0389.41148.41148,0,0,0,.08087-.03057A.02016.02016,0,0,0,3.3747,6.01211Z" /><path d="M3.49159,5.93667a.27845.27845,0,0,0-.11214.0018.336.336,0,0,0-.101.04664.00821.00821,0,0,0,.00665.015.342.342,0,0,1,.10128-.01775.48358.48358,0,0,1,.10009.00542C3.52,5.992,3.52321,5.94333,3.49159,5.93667Z" /><path d="M5.3159,6.57032c-.20907.01481-.41589.05478-.62414.07791-.19815.022-.3975.02878-.59572.046a.95791.95791,0,0,1-.08253-.08883.83767.83767,0,0,1-.06843-.109c-.04278-.08016-.07617-.16473-.11477-.24688a.8506.8506,0,0,0-.13371-.213A.53523.53523,0,0,0,3.49927,5.902c-.01131-.00474-.01776.01289-.00662.0178a.43819.43819,0,0,1,.181.17593,1.77008,1.77008,0,0,1,.11566.2223c.03433.07891.06678.15893.10876.2342a.58316.58316,0,0,0,.14719.18851.02624.02624,0,0,0,.02231.01488l.00252.00015a.0332.0332,0,0,0,.01547.0009,3.63422,3.63422,0,0,0,.61864-.02977A2.67491,2.67491,0,0,0,5.325,6.60133C5.34347,6.59459,5.3332,6.56909,5.3159,6.57032Z" /><path d="M5.84183,6.88415a5.17794,5.17794,0,0,1-.71769.16677,3.28641,3.28641,0,0,1-.73237.02516c-.13682-.01032-.273-.029-.41019-.03061a.00991.00991,0,0,0-.00442.01905,1.20688,1.20688,0,0,0,.35813.08914,2.927,2.927,0,0,0,.381.01808,2.81966,2.81966,0,0,0,.74146-.1A2.30425,2.30425,0,0,0,5.85548,6.915.01687.01687,0,0,0,5.84183,6.88415Z" /><path d="M6.22723,6.00724c-.1006-.01987-.12516.11534-.15993.17846-.01581.02869-.032.05683-.04975.08414a.14975.14975,0,0,0-.04134-.03778.35581.35581,0,0,0-.0836-.04.26545.26545,0,0,0-.1655.00466.663.663,0,0,0-.14348.07368c-.02334.01489-.0473.02841-.07163.04162l-.01522.00849-.00537-.00179a.34948.34948,0,0,0-.04929-.02539c-.03029-.01215-.0609-.02374-.09182-.03419-.05772-.01951-.116-.0381-.17449-.05512s-.11783-.03281-.17718-.047a.7006.7006,0,0,0-.17673-.02937.014.014,0,0,0-.00587.0251.81252.81252,0,0,0,.1622.05913l.18066.05639.03419.01083a.37966.37966,0,0,0-.16828.06165.30642.30642,0,0,0-.068.06708c-.02145.02809-.0344.06187-.0576.08876-.00843.00977.008.02135.0164.01161a.56056.56056,0,0,1,.073-.06323.605.605,0,0,1,.07286-.055.34693.34693,0,0,1,.16519-.04576.58838.58838,0,0,1,.18279.027.932.932,0,0,0,.18513.05119.02331.02331,0,0,0,.01566-.04186.29955.29955,0,0,0-.045-.03L5.57,6.34868c.04773-.01955.09178-.04592.13864-.06716a.22359.22359,0,0,1,.14756-.02285.29869.29869,0,0,1,.08116.038.20768.20768,0,0,0,.04645.02154c-.01245.01683-.02492.03358-.037.05076a.36179.36179,0,0,1-.04622.06722.00839.00839,0,0,0,.01062.013c.01713-.01339.04014-.01783.05844-.0302a.33036.33036,0,0,0,.04973-.04.52606.52606,0,0,0,.07919-.10581.60269.60269,0,0,0,.05127-.11591c.01307-.03938.01723-.12785.07455-.12191C6.24281,6.0372,6.24472,6.0107,6.22723,6.00724Z" /><path d="M6.35074,6.61407c-.00955-.01014-.03283-.00756-.03242.00978.00308.12859-.1968-.01911-.243-.02793a.009.009,0,0,0-.00972.01029.12823.12823,0,0,0,.04678.06282c-.01938.0069-.03792.0153-.05386.02217-.05229.02255-.10588.048-.15936.067a.00916.00916,0,0,0,.00512.01736c.05541-.01254.11436-.02.17067-.02864a.3202.3202,0,0,0,.11858-.03363.29075.29075,0,0,0,.05736.01529.10284.10284,0,0,0,.0966-.03051A.06084.06084,0,0,0,6.35074,6.61407Z" /><path d="M6.48126,6.23856c-.0228.01147-.04687.0198-.0688.033-.01982.012-.04844.0283-.04886.05435-.00021.0128.01053.02777.02534.02393.02344-.00608.03288-.027.04651-.04535a.15614.15614,0,0,1,.05321-.04928C6.49912,6.25,6.49177,6.23328,6.48126,6.23856Z" /><path d="M6.79333,6.2051c-.03787-.02607-.08275-.0408-.123-.063l.01921-.01765.01558-.012a.11282.11282,0,0,1,.01574-.01309c.00883-.004.00746-.01934-.00312-.01953-.00758-.00014-.0151-.00358-.02346-.00308a.09687.09687,0,0,0-.02977.007.12557.12557,0,0,0-.04073.02763.13682.13682,0,0,1-.04836-.08119.01983.01983,0,0,0-.02728-.01486.56746.56746,0,0,0-.12684.06934.009.009,0,0,0,.01132.01384.18916.18916,0,0,1,.10189-.04629c-.00048.07962.09.12676.15366.15587a.29166.29166,0,0,1,.11435.0921c.02727.03714.03411.08482.06217.12034A.0231.0231,0,0,0,6.90387,6.414C6.92806,6.33807,6.85153,6.24516,6.79333,6.2051Z" /><path d="M6.37071,6.00845a.09989.09989,0,0,0-.06819.023.09453.09453,0,0,0-.03986.06327c-.00414.02136.02533.0284.03686.01379a.52439.52439,0,0,1,.03516-.04178c.01305-.01334.03052-.02028.04377-.03264l-.00034-.00032A.01439.01439,0,0,0,6.37071,6.00845Z" /><path d="M6.56808,6.28281a.55688.55688,0,0,1-.23439.11.01466.01466,0,0,0,.00458.02894.41329.41329,0,0,0,.24324-.12256C6.59093,6.28976,6.57887,6.274,6.56808,6.28281Z" /><path d="M6.45717,6.57086A.02746.02746,0,0,0,6.422,6.587a.32017.32017,0,0,0-.00061.06537A.13658.13658,0,0,1,6.4,6.71757a.23312.23312,0,0,1-.12915.08913c-.05414.01851-.11113.02777-.166.04381a.95517.95517,0,0,0-.1789.07185c-.04634.02449-.1141.05355-.12564.11074a.11168.11168,0,0,0,.073.11764.43911.43911,0,0,0,.18207.01875.2052.2052,0,0,1,.08787.01288c.02769.01327.05857.04733.05057.08011-.00336.01377.01749.02173.0209.00777a.12124.12124,0,0,0-.00991-.096.17847.17847,0,0,0-.0955-.07044.71406.71406,0,0,0-.14434-.01906.14513.14513,0,0,1-.06357-.01815c-.02082-.01421-.01344-.01811.00428-.02991A.87457.87457,0,0,1,6.18612,6.921a.47641.47641,0,0,0,.25139-.11209.24113.24113,0,0,0,.06261-.122C6.50731,6.646,6.49982,6.589,6.45717,6.57086Z" /><path d="M7.04078,7.2054a1.083,1.083,0,0,1-.66593-.04674c-.02535-.01343-.10062-.04824-.09867-.08377.00266-.04853.09752-.05246.13047-.06156a.33777.33777,0,0,0,.211-.17216.323.323,0,0,0-.02293-.30846c-.008-.01336-.02924-.00506-.02275.01007a.29488.29488,0,0,1-.05647.30617.26826.26826,0,0,1-.11867.07775.4296.4296,0,0,0-.15976.05646.11809.11809,0,0,0-.03973.133.228.228,0,0,0,.10849.10131.68994.68994,0,0,0,.31635.08122,1.94437,1.94437,0,0,0,.425-.05268A.02055.02055,0,0,0,7.04078,7.2054Z" /><path d="M7.90021,7.04006a.27292.27292,0,0,1-.23341.05928q-.18174-.01331-.364-.01787-.08044-.00206-.16093-.00253a.3672.3672,0,0,1-.11959-.0414c-.0327-.01917-.04793-.0387-.02913-.07505a.54122.54122,0,0,0,.05665-.11359.37637.37637,0,0,0-.2426-.40254c-.01057-.00533-.0204.01007-.01314.01838a.75508.75508,0,0,1,.16032.2192.24429.24429,0,0,1,.01369.13476.66278.66278,0,0,1-.05956.11714.11608.11608,0,0,0,.03327.14443q-.14133.00253-.28252.00958a.61421.61421,0,0,0,.16483-.30356.35331.35331,0,0,0-.02132-.1906c-.021-.04993-.066-.11267-.12492-.11549a.00941.00941,0,0,0-.00944.013c.01084.02239.0267.041.0393.06254a.29425.29425,0,0,1,.02978.06864.32824.32824,0,0,1,.00273.162.753.753,0,0,1-.21623.31934.04485.04485,0,0,0,.03506.07825,7.567,7.567,0,0,1,.8086-.01533c.11959.00411.241.01985.36056.0144a.21339.21339,0,0,0,.21382-.1209A.024.024,0,0,0,7.90021,7.04006Z" /><path d="M7.7007,6.99213a.73683.73683,0,0,1-.27608-.02586.45411.45411,0,0,1-.12539-.05075.138.138,0,0,1-.06368-.09987L7.233,6.8a.409.409,0,0,0,.06073.04293.28106.28106,0,0,0,.10212.0373.19142.19142,0,0,0,.04953-.00043A.25728.25728,0,0,0,7.5,6.8603c.01028-.00353.0051-.01988-.00532-.01806a.226.226,0,0,1-.09228-.01468.29485.29485,0,0,1-.09214-.047,1.07846,1.07846,0,0,1-.09622-.09319.40921.40921,0,0,0-.04429-.10011.45693.45693,0,0,0-.0716-.08968.63359.63359,0,0,0-.09413-.0683c-.01248-.00836-.02609.01069-.01352.0191a.3988.3988,0,0,1,.14207.21511c.02493.08543.00572.18552.05905.26125a.37614.37614,0,0,0,.238.1241.56931.56931,0,0,0,.28144-.02154C7.73193,7.02075,7.72053,6.99,7.7007,6.99213Z" /><path d="M2.65588,4.19859c-.02858-.01575-.05332-.03681-.08358-.05058a.66624.66624,0,0,0-.10185-.03142c-.03637-.00986-.07329-.01924-.11059-.02572a2.20424,2.20424,0,0,0-.14121-.172c-.05207-.05592-.115-.10773-.08962-.19169a.61123.61123,0,0,1,.11332-.19479.13444.13444,0,0,1,.07907-.05752c.023-.00232.0475-.01138.04274-.0397a.0351.0351,0,0,0-.03056-.02885c-.08154-.0073-.12614.06829-.16452.12747-.02255.03477-.0429.07088-.0627.10726a.40825.40825,0,0,0-.04708.10764c-.01655.07933.04143.13844.09162.191.04827.05053.0987.09783.15082.1438-.01244-.00093-.02491-.00141-.03741-.00134-.01975.00013-.0366.028-.01516.04053a.75723.75723,0,0,0,.19192.07283.86474.86474,0,0,0,.10113.02387.87266.87266,0,0,0,.1061-.0006C2.65817,4.21895,2.66662,4.2045,2.65588,4.19859Z" /><path d="M2.81117,4.2863a1.31038,1.31038,0,0,1-.2661-.0058,1.55667,1.55667,0,0,1-.2561-.0824.01031.01031,0,0,0-.01148.01607.40688.40688,0,0,0,.24969.13712.45147.45147,0,0,0,.29043-.02471C2.83436,4.318,2.834,4.2857,2.81117,4.2863Z" /><path d="M2.79322,4.40427a.77832.77832,0,0,0-.10494.00393.54146.54146,0,0,1-.10549-.00572.62692.62692,0,0,1-.103-.02544.53883.53883,0,0,1-.11022-.03681.01005.01005,0,0,0-.01161.0164c.01749.01379.03007.03232.04707.04681a.22259.22259,0,0,0,.04814.02953.45967.45967,0,0,0,.11736.0377.33155.33155,0,0,0,.23537-.02454C2.82352,4.43448,2.81225,4.40605,2.79322,4.40427Z" /><path d="M2.72243,4.51346a.12314.12314,0,0,0-.07365-.01378Q2.60825,4.49724,2.5681,4.491a1.104,1.104,0,0,1-.17339-.02858.01005.01005,0,0,0-.007.01883.71621.71621,0,0,0,.16815.0696.84371.84371,0,0,0,.08657.01244.10876.10876,0,0,0,.08138-.01011A.02521.02521,0,0,0,2.72243,4.51346Z" /><path d="M4.92734,3.06761a.68038.68038,0,0,1-.31827.22788c-.06693.02205-.13559.0344-.204.05048a1.91118,1.91118,0,0,0-.21476.0629.67037.67037,0,0,0-.33772.27064,2.30942,2.30942,0,0,1-.13517.19634,1.46336,1.46336,0,0,1-.16177.1654c-.06651.05913-.13662.11392-.20651.16893-.03967.03123-.0797.06194-.1197.09273-.02018.01553-.03977.03138-.05862.0485a.22157.22157,0,0,0-.02477.02868q-.12733-.11332-.254-.22741c-.07378-.06654-.147-.13322-.21566-.20474a.11689.11689,0,0,1,.04351-.01976.03134.03134,0,0,1,.03991.03483c-.00378.0189.02149.02969.03494.01874a.0703.0703,0,0,0-.038-.12106.1072.1072,0,0,0-.1128.05263l-.02584-.02865A.79442.79442,0,0,1,2.411,3.51889a.01042.01042,0,0,0-.02057.00325.7305.7305,0,0,0,.12415.34471,1.73885,1.73885,0,0,0,.26114.2809q.35271.32158.70876.64a4.72877,4.72877,0,0,0,.416.35527c.02521.0178.059-.01642.03771-.04044a2.0195,2.0195,0,0,0-.16719-.16764l-.1744-.15612-.03834-.03412.01616-.00427A.5818.5818,0,0,0,3.713,4.68017a1.011,1.011,0,0,0,.17588-.13683.63333.63333,0,0,0-.01014.10589.86242.86242,0,0,0,.0245.24252,1.85178,1.85178,0,0,0,.086.231c.00471.01114.02419.00606.02086-.00615a.96707.96707,0,0,1-.03033-.21926c-.00234-.07355-.00748-.14731-.00524-.22092a.5988.5988,0,0,1,.06683-.28687,1.4129,1.4129,0,0,1,.13087-.11973.73575.73575,0,0,1,.123-.08016.37379.37379,0,0,1,.158-.05109c.01475.00042.01714-.0225.00229-.02292a.56025.56025,0,0,0-.14738.00166.51939.51939,0,0,0-.13276.05064,1.03886,1.03886,0,0,0-.24068.19624,1.65424,1.65424,0,0,1-.23141.214.56174.56174,0,0,1-.12824.06653.536.536,0,0,1-.074.01921l-.02593.007q-.11446-.10107-.22914-.20191l-.06225-.05535.0206-.00759a.44659.44659,0,0,0,.05182-.03033c.0389-.02567.07568-.05468.11272-.08293.06517-.0497.13021-.09965.19307-.15226A1.572,1.572,0,0,0,3.882,3.78327a1.101,1.101,0,0,1,.13862-.19152.54675.54675,0,0,1,.18817-.115c.13628-.05333.28462-.07025.42336-.11694.13761-.04632.30081-.113.347-.26482A.0297.0297,0,0,0,4.92734,3.06761Z" /><path d="M3.652,5.82106c-.05987-.0869-.03344-.201-.03736-.29964a.359.359,0,0,0-.12471-.25683,1.483,1.483,0,0,0-.24132-.16441,1.951,1.951,0,0,1-.2651-.19922,1.30042,1.30042,0,0,1-.25967-.28686c-.00757-.01254-.02871-.00333-.02107.00932a2.10234,2.10234,0,0,0,.18129.2789,1.33311,1.33311,0,0,0,.24894.229c.15609.11052.3624.18839.4016.39765L3.54,5.56258a.02183.02183,0,0,0-.01066.01606.34785.34785,0,0,1-.08006.16273.17826.17826,0,0,0-.04258.139.0099.0099,0,0,0,.01955-.00056c.00746-.06992.08784-.12132.13229-.17994a.28542.28542,0,0,0,.06563.14394A.018.018,0,0,0,3.652,5.82106Z" /><path d="M7.79563,3.41915a.57216.57216,0,0,0-.19275.0632,2.06552,2.06552,0,0,0-.19032.09538,1.88546,1.88546,0,0,0-.33247.24808.01134.01134,0,0,0,.01435.01754,2.95517,2.95517,0,0,1,.35579-.20964c.05944-.03087.12032-.059.182-.08507a1.01541,1.01541,0,0,0,.18514-.081C7.84241,3.45043,7.81972,3.41813,7.79563,3.41915Z" /><path d="M7.81969,3.5147a.79129.79129,0,0,1-.05422.17395.24734.24734,0,0,1-.13172.1293,3.00793,3.00793,0,0,0-.41487.17341c-.01689.01083-.00225.03643.01519.03391a1.23261,1.23261,0,0,0,.24616-.07672A1.38838,1.38838,0,0,0,7.701,3.86082a.27059.27059,0,0,0,.12192-.14552.6255.6255,0,0,0,.0219-.1981A.01263.01263,0,0,0,7.81969,3.5147Z" /><path d="M7.05154,4.36278c-.03526.05926-.07289.11672-.10725.17663-.03467.06046-.06682.12231-.10243.18225a1.73084,1.73084,0,0,1-.24261.33293c-.10069.10277-.22925.17073-.33065.27185a1.16656,1.16656,0,0,0-.21685.35432,4.40616,4.40616,0,0,1-.24876.442c-.01018.01676.00991.03845.0263.02453a1.0873,1.0873,0,0,0,.26661-.36127A1.498,1.498,0,0,1,6.30177,5.42c.09883-.10864.23524-.17637.33984-.27955a1.53362,1.53362,0,0,0,.24956-.3302,2.0746,2.0746,0,0,0,.10382-.2068c.03247-.07466.05432-.15141.07967-.22846C7.07909,4.36149,7.05952,4.34937,7.05154,4.36278Z" /><path d="M4.555,6.29465a.01884.01884,0,0,0-.036-.0036.3234.3234,0,0,1-.05456.10714.41307.41307,0,0,1-.0933.07357c-.0219.01391-.00183.04307.01868.04169A.19546.19546,0,0,0,4.555,6.29465Z" /><path d="M6.76029,4.04594a.57911.57911,0,0,1-.24077.15189,1.6363,1.6363,0,0,1-.27834.07323c-.10625.01838-.21387.02966-.319.05422a.85971.85971,0,0,0-.14276.04524.824.824,0,0,0,.014-.10815.95929.95929,0,0,0,.00026-.18678.84682.84682,0,0,0-.0333-.178,1.06562,1.06562,0,0,0-.05109-.12483L5.699,3.74714l-.01174-.02085-.00106-.00221L5.68317,3.72a.42177.42177,0,0,0-.072-.07571c-.0086-.0076-.0189.007-.01033.0146a.30279.30279,0,0,1,.03873.2867,2.03624,2.03624,0,0,1-.12758.30083c-.02373.05053-.04823.10069-.07225.15108-.01784.03743-.03153.07563-.04571.114l-.00276.0045a.35179.35179,0,0,0-.02067.0554,1.06618,1.06618,0,0,1-.07417.13314,1.02256,1.02256,0,0,0-.07908.15589.02617.02617,0,0,0,.0457.02415,1.1403,1.1403,0,0,0,.09535-.1758.462.462,0,0,0,.05368.17736.0212.0212,0,0,0,.01714.01241c.004.00008.00927.001.01261-.00208.01858-.01705.00617-.04109.00221-.06282a.746.746,0,0,1-.01044-.1014c-.0024-.05363-.00258-.10788-.00192-.1618l.00905-.01385a2.27331,2.27331,0,0,0,.17372-.33375,1.54166,1.54166,0,0,0,.09127-.22206c.004.0248.00776.04962.01073.07455.00675.05662.01228.11359.01564.17051.00179.03027.00271.06047.00333.09078.00036.01783-.00061.03648.00055.05468a.39082.39082,0,0,0-.09285.06779c-.006.00606-.00268.01958.00764.017.10613-.02609.21051-.05573.31859-.07438.10834-.0187.21772-.03174.3257-.0524a.8891.8891,0,0,0,.28361-.09328.62171.62171,0,0,0,.2112-.1892C6.80334,4.04727,6.77542,4.02869,6.76029,4.04594Z" /><path d="M7.12763,3.87177a.2479.2479,0,0,0-.16408.03112.5547.5547,0,0,0-.15136.0902c-.01317.01123-.00416.03843.0149.03326.02287-.0062.04527-.013.06757-.02008-.13833.15035-.26065.31449-.38752.47476L6.463,4.537l-.03694.032a1.35607,1.35607,0,0,1-.11248.09077,1.57167,1.57167,0,0,1-.256.13771,1.78076,1.78076,0,0,1-.56185.12021c-.01211.001-.01475.02142-.00243.0243a.755.755,0,0,0,.29858.0119,1.24365,1.24365,0,0,0,.29645-.08693A1.04328,1.04328,0,0,0,6.30407,4.74c-.07289.09283-.14639.18517-.22219.27547a1.78361,1.78361,0,0,1-.2136.21942,1.51372,1.51372,0,0,1-.26037.171c-.08965.04841-.18124.09333-.26874.14564A1.5024,1.5024,0,0,0,5.2134,5.636c-.02153-.01925-.04534-.03644-.0662-.05619-.02776-.02629-.05482-.05342-.08289-.07938l.0186-.05687c.02389-.07388.044-.149.06547-.22364a1.07679,1.07679,0,0,0,.05417-.22367A.01086.01086,0,0,0,5.183,4.989a1.07,1.07,0,0,0-.09532.20841c-.03.07383-.06118.14728-.08873.22207-.02679.07273-.05246.1458-.078.219-.01314.03759-.027.07509-.03815.11335a.3173.3173,0,0,0-.00908.11279c.00083.01827.02461.01892.03406.008a.347.347,0,0,0,.03757-.04373.32314.32314,0,0,0,.0242-.05184c.01367-.035.0253-.07093.03746-.10652l.02721-.08005a.46007.46007,0,0,0,.12524.0875q-.03629.02919-.07158.06012a1.60093,1.60093,0,0,1-.27657.215.67493.67493,0,0,1-.28558.0763,1.68292,1.68292,0,0,0-.077-.15834q-.06275-.12505-.13308-.24632c-.04534-.0782-.095-.15392-.14725-.22787-.02755-.039-.05528-.078-.0849-.1155-.03039-.0385-.06465-.07019-.098-.10559-.01154-.01226-.03649,0-.02717.01627.02218.03877.04029.07955.0639.11809s.048.07687.07134.11566c.04806.07976.09409.16074.14.2417q.06736.11882.12756.24131c.02006.04082.03987.08175.059.123a.42323.42323,0,0,0,.07147.11923.03219.03219,0,0,0,.05612-.02449.24949.24949,0,0,0-.00367-.03236.42517.42517,0,0,0,.22637-.03426.98763.98763,0,0,0,.2634-.17c.08226-.06971.16-.145.24787-.20785a2.31578,2.31578,0,0,1,.27479-.16009,2.54359,2.54359,0,0,0,.273-.15843,1.45783,1.45783,0,0,0,.23472-.20981c.15361-.16583.28854-.35.429-.52685a7.72072,7.72072,0,0,0,.49449-.649l.00111-.00222A.347.347,0,0,0,7.135,3.916.02614.02614,0,0,0,7.12763,3.87177Z" /><path d="M7.15864,4.295A.63252.63252,0,0,0,7.112,4.209a.6469.6469,0,0,0-.04471-.08859.01056.01056,0,0,0-.01782.003c-.02209.04363.01138.1108.02642.15258a.28537.28537,0,0,1,.02651.17109.02581.02581,0,0,0,.04505.0238.11894.11894,0,0,0,.0311-.0828A.27422.27422,0,0,0,7.15864,4.295Z" /><path d="M7.24878,4.19672a.34237.34237,0,0,0-.05431-.0857c-.02454-.02884-.05462-.05119-.07985-.07887a.0106.0106,0,0,0-.0164.01342.81108.81108,0,0,1,.04892.08778c.01277.024.02489.04828.03545.07336a.5111.5111,0,0,1,.02892.173.023.023,0,0,0,.041.00959A.207.207,0,0,0,7.24878,4.19672Z" /><path d="M7.25718,4.05764c-.01125-.00546-.0219.00844-.01757.01867.00912.02154.02157.04117.029.06357a.57555.57555,0,0,1,.01693.06911c.00344.0173.03251.024.03741.00374A.13883.13883,0,0,0,7.25718,4.05764Z" /><path d="M3.2935,6.20143a.90647.90647,0,0,0-.28425.24569.36823.36823,0,0,0-.19005-.06118.25915.25915,0,0,0-.183.05721c-.00558.00611.00051.01548.00746.01638.02605.00335.053-.003.07941-.00213a.6299.6299,0,0,1,.088.00976.43491.43491,0,0,1,.14407.0516q-.0226.03159-.04386.06371a1.47886,1.47886,0,0,0-.12854.23628.96712.96712,0,0,0-.04667.13188c-.00518.01961-.01039.0393-.01454.05915-.00561.02685-.00291.05484-.00982.081-.00365.01386.017.02206.02125.0079a.39926.39926,0,0,1,.03189-.06153c.00992-.01959.01842-.03993.028-.0597.01882-.03892.03732-.07806.05668-.11671a2.09989,2.09989,0,0,1,.1324-.22831A5.00582,5.00582,0,0,1,3.31768,6.231.02.02,0,0,0,3.2935,6.20143Z" /><path d="M2.68284,6.81778a.81989.81989,0,0,1,.115-.21413c.008-.01-.00744-.02483-.01669-.01557a.77834.77834,0,0,0-.16358.22249.986.986,0,0,0-.08148.28286,1.23539,1.23539,0,0,0-.01166.146A.55729.55729,0,0,0,2.533,7.386a.1632.1632,0,0,0,.07979.106c.03263.01782.087.0297.10914-.01015a.02255.02255,0,0,0-.01038-.03363c-.03209-.01179-.06526-.00406-.08524-.03873A.24989.24989,0,0,1,2.605,7.29065a1.41108,1.41108,0,0,1,.01741-.24307A1.12913,1.12913,0,0,1,2.68284,6.81778Z" /><path d="M3.05613,6.24143c-.03787-.0439-.12909-.023-.17724-.00836A1.27667,1.27667,0,0,0,2.6972,6.32a.01042.01042,0,0,0,.00843.019.50249.50249,0,0,1,.1825-.03326c.0279-.00183.05569-.00446.08358-.00643a.12.12,0,0,0,.08093-.023A.02535.02535,0,0,0,3.05613,6.24143Z" /><path d="M4.64311,3.65565a.17655.17655,0,0,0-.18163-.12879.01922.01922,0,0,0-.01178.0309c.0206.02189.04559.03973.06653.06165a.98492.98492,0,0,0,.06413.0752C4.60767,3.718,4.64768,3.68744,4.64311,3.65565Z" /><path d="M4.78133,5.08992a3.3005,3.3005,0,0,0-.13277.44865c-.00719.03725.05561.05238.06529.01514.03875-.149.066-.30075.10633-.44935C4.827,5.07911,4.79019,5.06426,4.78133,5.08992Z" /><path d="M5.36068,3.6051A.0984.0984,0,0,1,5.29381,3.59a.39746.39746,0,0,1-.04706-.03888c-.03452-.032-.06808-.06517-.10115-.09864a.59817.59817,0,0,1-.0839-.09628.11778.11778,0,0,1-.02553-.07243c.00119-.02491.00661-.04946.0095-.07418.00153-.013-.016-.01566-.02119-.00491a.25522.25522,0,0,0-.02677.17283.40015.40015,0,0,0,.10495.13381.94011.94011,0,0,0,.13058.12357.124.124,0,0,0,.14453.00835A.02184.02184,0,0,0,5.36068,3.6051Z" /><path d="M5.77921,2.93482a.24992.24992,0,0,0-.04414.00074.09172.09172,0,0,1-.04973-.01939c-.029-.02108-.05193-.05011-.08006-.07257A.25.25,0,0,0,5.423,2.78631a.2641.2641,0,0,0-.16476.08011.42726.42726,0,0,0-.08349.17043.01152.01152,0,0,0,.02159.008.31466.31466,0,0,1,.12015-.14005.21421.21421,0,0,1,.17071-.03513c.05966.01554.0993.06982.15382.0965.0383.01875.12381.047.152-.0011A.0196.0196,0,0,0,5.77921,2.93482Z" /><path d="M5.47059,3.14853a.20355.20355,0,0,0-.11989.01841A.01138.01138,0,0,0,5.357,3.1885a.18386.18386,0,0,1,.10164.01695c.02505.00973.05107.03828.07876.03167a.02323.02323,0,0,0,.01892-.02C5.55891,3.17629,5.504,3.15576,5.47059,3.14853Z" /><path d="M5.46244,3.27617c-.025-.01525-.0606-.01277-.08285-.03271-.01083-.00971-.02387.00885-.0131.0185a.23779.23779,0,0,0,.03889.03523.06588.06588,0,0,0,.04963.01071C5.46871,3.30474,5.47654,3.28476,5.46244,3.27617Z" /><path d="M5.80469,3.01713a.57409.57409,0,0,0-.0467.13752c-.00663.02376-.01225.04815-.02006.07155-.01052.03152-.023.03343-.053.0416-.093.02539-.10555.11042-.10642.195-.00011.01034.01578.016.01905.00442a.31429.31429,0,0,1,.03781-.09221.40905.40905,0,0,0,.055-.00271c.011-.00029.01667-.01567.00467-.02012l-.0279-.01188c.02919-.02158.06858-.01927.09506-.0477a.27661.27661,0,0,0,.045-.11967.58755.58755,0,0,0,.03128-.14319C5.83864,3.01312,5.8151,2.9994,5.80469,3.01713Z" /><path d="M5.48022,3.52709a.29775.29775,0,0,0-.04984-.01491l-.02078-.0094a.10269.10269,0,0,1-.0247-.01634c-.00658-.00828-.01827.00012-.0151.00928a.119.119,0,0,0,.01207.03328.08866.08866,0,0,0,.02375.02453.07366.07366,0,0,0,.07062.01325A.02318.02318,0,0,0,5.48022,3.52709Z" /><path d="M5.1393,2.97219c-.01118-.04645-.06757-.086-.10814-.0432a.10686.10686,0,0,0-.01624.08262c.00165.0342-.00264.08755.02173.114a.0188.0188,0,0,0,.03168-.00527c.01386-.02758.00082-.06786-.00153-.0979a.16336.16336,0,0,1-.00257-.05129c.01073-.03529.04614-.00881.05836.00856A.00956.00956,0,0,0,5.1393,2.97219Z" /><path d="M5.56015,3.47777c-.01045-.02274-.04051-.02593-.06259-.02745a.01171.01171,0,0,0-.00233.02329c.01854.003.02831.01945.04548.02481A.01558.01558,0,0,0,5.56015,3.47777Z" /><path d="M5.66162,2.60321a.67777.67777,0,0,0-.32307-.12178.33616.33616,0,0,0-.29185.1272A.37869.37869,0,0,0,4.978,2.7615a.76913.76913,0,0,0-.02221.1889c.00042.01181.01768.01163.02147.00215.02-.05016.02926-.10416.0497-.15433a.62472.62472,0,0,1,.07023-.12859.259.259,0,0,1,.24458-.10742.64556.64556,0,0,1,.27194.10874.68935.68935,0,0,1,.10327.07831.40755.40755,0,0,1,.0682.1053.02.02,0,0,0,.03781-.006C5.83524,2.74892,5.73689,2.65178,5.66162,2.60321Z" /></svg>