<svg xmlns="http://www.w3.org/2000/svg" data-name="Layer 1" viewBox="1.7401697648433274 2.210790323760173 6.519387472644415 5.581406966172997" x="0px" y="0px"><title>KAMASUTRA</title><path d="M3.28117,7.01466c0-.06416.00017-.12833-.00046-.19249a1.5454,1.5454,0,0,0-.00711-.183,1.348,1.348,0,0,1-.0088-.19682c.00117-.06256.01182-.12472.012-.18712a.692.692,0,0,0-.02592-.18034,1.01086,1.01086,0,0,1-.06056-.3435c.01082-.13854.063-.268.08623-.404a.01383.01383,0,0,0-.02486-.0093.90765.90765,0,0,0-.139.33632.75253.75253,0,0,0,.02742.35844,1.42235,1.42235,0,0,1,.04152.1742c.00949.06123.021.12387.02553.18563a1.3727,1.3727,0,0,1-.0056.21673.33587.33587,0,0,0-.12134-.02828,1.76457,1.76457,0,0,0-.313-.01364c-.00951.00052-.00974.01455-.00176.01757a1.71214,1.71214,0,0,0,.23473.06638c.03819.00857.07653.01556.11491.02321a.08941.08941,0,0,1,.07337.05042l.0036.0055c-.00114.01866-.002.03734-.00246.05606-.00081.035-.00234.0704-.00376.106a.50376.50376,0,0,0-.064-.04649,1.35179,1.35179,0,0,0-.18813-.09036.49618.49618,0,0,1-.17993-.11446.56111.56111,0,0,1-.0656-.09105c-.0191-.03273-.042-.06327-.06089-.09589-.00684-.01181-.027-.00816-.02436.00718a.67474.67474,0,0,0,.01958.10549.46.46,0,0,0,.04688.10034.42434.42434,0,0,0,.17253.14371c.06438.033.13338.05614.19725.09006a.46384.46384,0,0,1,.085.05708c.02074.01782.03662.04131.05843.05729a.99117.99117,0,0,0,.01859.21155.03136.03136,0,0,0,.06189-.00177A.54537.54537,0,0,0,3.28,7.11408C3.28185,7.081,3.28118,7.04777,3.28117,7.01466Z" /><path d="M1.86185,6.91206a.0197.0197,0,0,0-.02608-.02455.17466.17466,0,0,0-.095.17021.16738.16738,0,0,0,.09787.14911c.01.00333.02386-.00763.01734-.01842a.19859.19859,0,0,1-.03536-.133A.93741.93741,0,0,1,1.86185,6.91206Z" /><path d="M2.54406,6.37525a.1339.1339,0,0,0-.16274-.04632.18782.18782,0,0,0-.09436.08983A.21614.21614,0,0,0,2.2416,6.419c-.03334.00193-.06655.00616-.09964.01052a.68932.68932,0,0,0-.17587.04069.25172.25172,0,0,0-.16974.2287c.00059.021.03516.02368.0406.00406a.255.255,0,0,1,.19017-.16674A.96837.96837,0,0,1,2.17921,6.509c.02213-.00269.0443-.00508.06653-.00668a.215.215,0,0,1-.02135.034.38021.38021,0,0,1-.07729.0671c-.03212.02351-.06489.04612-.09617.07076-.0168.01324-.03316.02736-.04891.04188-.01606.01481-.02817.03312-.04394.04795a.011.011,0,0,0,.01138.01851c.03117-.014.06351-.023.09444-.03853.03165-.01593.06173-.03488.09188-.05347a.48064.48064,0,0,0,.14384-.11418c.02993-.04043.043-.09022.07138-.13136.03536-.05129.08114-.04136.13339-.02758C2.52718,6.4234,2.55913,6.401,2.54406,6.37525Z" /><path d="M3.74265,7.57177a.4343.4343,0,0,0-.13588.00043.81687.81687,0,0,1-.144-.00531.77662.77662,0,0,1-.2643-.081,1.32226,1.32226,0,0,1-.24747-.1842q-.12717-.10974-.25388-.22c-.04888-.04251-.09736-.08609-.14826-.12618A.56179.56179,0,0,0,2.391,6.86a.01352.01352,0,0,0-.01688.01793.317.317,0,0,0,.03129.05042l-.00393.00108c-.03382.00923-.06762.01845-.10124.02839a1.49981,1.49981,0,0,0-.14983.05c-.07986.03307-.19014.09154-.21255.18316a.01385.01385,0,0,0,.02156.01541.6786.6786,0,0,1,.10461-.08076A.65168.65168,0,0,1,2.19111,7.076c.04853-.014.098-.02468.147-.03708.03023-.00766.06027-.016.09038-.02416.01428-.00385.02868-.00713.04221-.01212L2.4789,7.011c.04067.04095.08486.07878.12806.117.09062.08027.18169.16.27225.24036a1.42236,1.42236,0,0,0,.25741.19675.88865.88865,0,0,0,.28283.09676.82984.82984,0,0,0,.16912.00929.27577.27577,0,0,0,.16375-.04126A.0342.0342,0,0,0,3.74265,7.57177Z" /><path d="M4.34348,7.52745c-.02872-.02782-.06569-.04833-.09657-.07426a.446.446,0,0,1-.07946-.09365.90079.90079,0,0,1-.10762-.24523.84521.84521,0,0,0-.27848-.49971,1.52524,1.52524,0,0,0-.16518-.09479c-.03037-.01575-.0615-.02943-.093-.0428A.90432.90432,0,0,1,3.42,6.43563c-.01553-.00905-.032.01385-.01629.023a.61027.61027,0,0,1,.07057.05654c.02341.01882.04762.037.07218.05427.048.03372.099.06265.1482.09449a.49744.49744,0,0,1,.19364.22382l.01343.03185A1.12592,1.12592,0,0,0,3.8686,7.037c-.01133.05708-.01993.11443-.02757.1721-.00759.05733-.0168.11515-.019.173a.43847.43847,0,0,1-.0137.16017c-.00729.01589.01447.02981.027.01933a.1894.1894,0,0,0,.06117-.11823c.00677-.03192.01226-.06379.017-.09578A.38626.38626,0,0,0,3.9621,7.366c.03849.01229.07727.02462.11628.0351l.0096.0013.007.01037a.433.433,0,0,0,.10618.10507.18861.18861,0,0,0,.13145.03816C4.34432,7.5536,4.35368,7.53734,4.34348,7.52745ZM3.985,7.30436a.39049.39049,0,0,0-.064-.01309l.00468-.04011c.00689-.0621.01445-.12408.01878-.18644l.0009-.01826a1.91677,1.91677,0,0,0,.09517.27286Z" /><path d="M3.87829,6.28567a.20675.20675,0,0,0-.08323-.07187.73971.73971,0,0,0-.09553-.04968.66548.66548,0,0,0-.10326-.03663.47831.47831,0,0,0-.05207-.01037c-.01908-.00245-.03853.00175-.05737-.00076a.01193.01193,0,0,0-.00533.023.78846.78846,0,0,1,.08865.04182c.03243.01465.06523.02809.09652.04516.02854.01557.0566.03265.0837.05061a.30875.30875,0,0,0,.08569.05361C3.86157,6.33673,3.89251,6.31392,3.87829,6.28567Z" /><path d="M3.66714,6.29541a.34.34,0,0,0-.13658-.06689.7.7,0,0,0-.1528-.02959c-.01142-.00117-.01992.01646-.00843.02253.04392.02319.08638.0469.13236.06668a.45828.45828,0,0,0,.142.0509C3.66473,6.34029,3.68468,6.31285,3.66714,6.29541Z" /><path d="M3.63583,6.39494a.24409.24409,0,0,0-.07559-.04221c-.03045-.01393-.0603-.02957-.08975-.04549-.03074-.01661-.08224-.05387-.10877-.01257a.00849.00849,0,0,0,.00816.01313c.0195-.0033.04048.02345.05355.03455a.46521.46521,0,0,0,.06345.046.25078.25078,0,0,0,.13285.04887A.02618.02618,0,0,0,3.63583,6.39494Z" /><path d="M5.68336,7.35826a.38615.38615,0,0,1-.1003.066.49021.49021,0,0,1-.11854.02279c-.11189.01062-.22463.01516-.33678.02249-.11754.00768-.23509.01482-.35232.02642-.05742.00568-.11451.01246-.1717.02018-.06144.0083-.12236.02146-.18377.02891-.01272.00154-.0126.02295.00065.02284.06582-.00054.132.00473.198.00509.06077.00032.1213-.001.182-.0028.12683-.00384.25344-.01314.38006-.02118.114-.00724.23115-.00733.34409-.02511.07781-.01225.19192-.04886.20733-.13944C5.73672,7.35712,5.70281,7.34408,5.68336,7.35826Z" /><path d="M3.259,3.49442a.44155.44155,0,0,0-.28618.12252.69909.69909,0,0,0-.13417.34027q-.04658.19885-.089.39865c-.02813.13291-.06114.26715-.07948.40181-.00981.072-.01767.14531-.02484.2177a.288.288,0,0,0,.0281.18208c.02913.04281.08777-.008.06142-.05025a.13224.13224,0,0,1-.02823-.06844.33633.33633,0,0,1,.0067-.07866c.01073-.05954.02934-.117.04415-.17545.03062-.12088.04907-.24565.07455-.36774q.0378-.18112.07922-.36146c.01411-.06143.02828-.12287.04343-.184a.5925.5925,0,0,1,.05093-.149.32843.32843,0,0,1,.113-.116c.04822-.03041.10345-.04751.14961-.08111A.01757.01757,0,0,0,3.259,3.49442Z" /><path d="M5.30849,7.06985c-.08109.01075-.16059.03221-.24126.04575-.0829.01391-.16619.02717-.24981.036-.10214.01074-.20451.00856-.30666.00974a.59062.59062,0,0,0-.07743-.09923q-.05483-.06424-.10658-.13082c-.06655-.08572-.12685-.17587-.18557-.26707a1.69975,1.69975,0,0,1-.11688-.22206.71671.71671,0,0,0,.11753.08945.86125.86125,0,0,0,.20694.08782c.04351.01277.08764.02426.13093.03806-.00176.01321-.00113.02742-.00172.043-.0013.03424-.00313.06843-.006.10258-.00568.0674-.01.13661-.02225.20313-.00243.01325.01889.01814.023.00533.02084-.06543.04329-.12889.05831-.19611.00749-.03355.01431-.06728.02017-.10116l.00531-.02839.01808.008a.32807.32807,0,0,1,.1533.13718.72067.72067,0,0,1,.0457.11291.518.518,0,0,0,.05493.11384c.01119.01776.03829-.00065.03064-.01883a1.59322,1.59322,0,0,1-.034-.21947.30838.30838,0,0,0-.117-.16294,1.472,1.472,0,0,0-.40667-.16038.64858.64858,0,0,1-.30078-.23486A.69462.69462,0,0,1,3.883,5.86988a2.28815,2.28815,0,0,1,.01764-.2767c.00709-.06915.01233-.13879.02022-.20794l.04313.01554c.05391.02.10826.03827.16392.05291a.671.671,0,0,0,.16843.0197A.02884.02884,0,0,0,4.3021,5.416c-.09682-.0208-.19344-.052-.28786-.08187-.04746-.015-.09459-.031-.14127-.04826s-.09138-.03876-.13893-.05354a2.15292,2.15292,0,0,0-.60848-.057c-.05656-.001-.11332-.00165-.16972-.00628a1.41717,1.41717,0,0,0-.165-.01673c-.01642.00059-.018.023-.00734.03141a.33248.33248,0,0,0,.13229.05247,1.11968,1.11968,0,0,0,.15217.02661c.10132.01.20349.00736.30512.0115a1.83143,1.83143,0,0,1,.48656.09028.71428.71428,0,0,0-.04385.16948,2.35932,2.35932,0,0,0-.02922.25066.87311.87311,0,0,0,.08208.45222l.00494.00911c.01554.048.03492.095.05422.14139.04413.10615.099.2058.15223.30745a2.1746,2.1746,0,0,0,.18071.28275c.03341.04519.0688.08914.10565.13159.01423.01639.0306.03624.0486.05463-.02843.00136-.05683.00333-.08519.00636-.01178.00126-.01083.01637-.00208.02076a.8993.8993,0,0,0,.49655.0454,2.13689,2.13689,0,0,0,.24894-.04118,1.896,1.896,0,0,0,.25222-.06778C5.35837,7.115,5.34168,7.06545,5.30849,7.06985Z" /><path d="M4.19946,4.72662c-.009.053-.06746.07129-.1095.09073a.26585.26585,0,0,0-.11328.08877c-.00826.01148-.01636.02465-.02512.03753.01047-.04761.02066-.09537.03013-.14318.00935-.04725.01819-.09462.02607-.14213A.72621.72621,0,0,0,4.024,4.51059c-.00085-.02039-.02783-.01744-.03493-.00349a.70516.70516,0,0,0-.04447.13658c-.01314.04857-.02524.09743-.03682.14639-.01086.04589-.02086.092-.03107.13806a.42163.42163,0,0,0-.016.07647.40976.40976,0,0,1-.13126-.03618,3.2312,3.2312,0,0,0-.34465-.09761c-.05853-.01325-.11738-.02494-.1767-.03407l-.0145-.00223a.69188.69188,0,0,0,.04951-.13375c.02043-.06279.03839-.12617.05246-.1907a2.71517,2.71517,0,0,0,.04743-.3959.01668.01668,0,0,0-.03318-.00332,2.67586,2.67586,0,0,1-.09012.38163c-.01761.05991-.03528.11987-.05522.17906a.7749.7749,0,0,0-.05018.15376.27615.27615,0,0,0-.092.00929c-.01462.00424-.0261.027-.00858.03672a.57961.57961,0,0,0,.18582.05073c.068.01236.136.02571.20325.04183q.09379.02248.18608.05071a1.93327,1.93327,0,0,0,.18515.05673.24288.24288,0,0,0,.16449-.01921A.32008.32008,0,0,0,4.037,4.94885a.22308.22308,0,0,1,.05551-.05693c.024-.01591.05175-.02585.07709-.03942a.18454.18454,0,0,0,.10329-.10884A.03786.03786,0,1,0,4.19946,4.72662Z" /><path d="M4.4911,4.96338a.61077.61077,0,0,0-.17.00333,1.3592,1.3592,0,0,1-.15479.01137.10063.10063,0,0,1,.00856-.03692A.00993.00993,0,0,0,4.16409,4.928a.08009.08009,0,0,0-.05662.07667.03288.03288,0,0,0,.021.03369.50761.50761,0,0,0,.17791.00408L4.399,5.03771A.32026.32026,0,0,0,4.493,5.027.03466.03466,0,0,0,4.4911,4.96338Z" /><path d="M4.50983,5.04812a.18856.18856,0,0,0-.07088.02.5466.5466,0,0,1-.07958.025c-.024.00561-.04832.01013-.07264.01413a.13908.13908,0,0,0-.0646.01756.01111.01111,0,0,0,.0006.01744c.034.02866.1051.01817.14657.01372a.29832.29832,0,0,0,.15944-.04518C4.54841,5.09227,4.54335,5.04745,4.50983,5.04812Z" /><path d="M4.50389,5.16246a.23747.23747,0,0,0-.10814.04363.31292.31292,0,0,0-.08759.06345.01251.01251,0,0,0,.00892.01956.29547.29547,0,0,0,.09955-.01948.25139.25139,0,0,0,.10579-.04577C4.54026,5.20533,4.5377,5.16174,4.50389,5.16246Z" /><path d="M4.42582,5.29123c-.03155.02152-.061.04818-.09135.07156-.00939.00724.00018.02063.01043.017.03668-.01314.07564-.02375.11142-.03892C4.49446,5.32465,4.4623,5.26635,4.42582,5.29123Z" /><path d="M6.16654,7.3796C6.15436,7.31753,6.025,7.32693,5.98,7.33626a.37723.37723,0,0,0-.18967.08534c-.00759.00807-.00356.02407.00967.02159.03433-.00645.06671-.02039.1013-.02635a.48254.48254,0,0,1,.10888-.00253c.03573.00186.071.01058.10646.012C6.144,7.42747,6.17259,7.41043,6.16654,7.3796Z" /><path d="M6.2211,6.80691a.20076.20076,0,0,0-.2555.1076l-.00276.01089H5.96263a.08565.08565,0,0,1-.04046-.00621.09488.09488,0,0,0-.03907-.01229.0156.0156,0,0,0-.01275.0135c-.00459.02029.01912.04073.03474.04928a.10628.10628,0,0,0,.0537.01224.354.354,0,0,0,.01932.08887,1.09823,1.09823,0,0,0,.08337.19423c.00585.01036.02578.00709.02191-.00646a.84156.84156,0,0,1-.05764-.294c.006-.06424.05144-.08534.10285-.09755a.16461.16461,0,0,0-.00534.07506.0197.0197,0,0,0,.03889-.00111.12654.12654,0,0,1,.021-.056c.00835-.01252.01933-.02291.02778-.03508L6.217,6.84821C6.23525,6.84307,6.24415,6.81351,6.2211,6.80691Z" /><path d="M8.2307,7.543a.57693.57693,0,0,0-.12551.00463.27075.27075,0,0,1-.12359-.01912,1.3389,1.3389,0,0,0-.20791-.09394,3.11622,3.11622,0,0,0-.41906-.02419.34525.34525,0,0,1-.17942-.0632.4723.4723,0,0,1-.11952-.16842.903.903,0,0,0-.11535-.18556.63163.63163,0,0,0-.07517-.07346.06491.06491,0,0,0-.02735-.02122A.611.611,0,0,0,6.781,6.8612a.531.531,0,0,0-.2173-.07315c-.01977-.00186-.03946-.00264-.0591-.00255l.006-.00634C6.51948,6.77,6.51491,6.74859,6.499,6.753a.15332.15332,0,0,0-.06516.03662.94512.94512,0,0,0-.09856.016.0106.0106,0,0,0,.00331.02094.41862.41862,0,0,1,.06614-.00305.07725.07725,0,0,0-.01511.06918.02593.02593,0,0,0,.03976.00948c.01934-.0149.02385-.04356.03554-.06419l.00484-.00809a.59925.59925,0,0,1,.07151.01634.2828.2828,0,0,1-.00322.038.36863.36863,0,0,1-.01774.05633.01587.01587,0,0,0,.02474.01768.15934.15934,0,0,0,.05059-.09357.7983.7983,0,0,1,.14335.0729.60418.60418,0,0,1,.10141.08136.193.193,0,0,1-.00086.04343c-.00357.02821-.01206.05533-.01745.08318a.104.104,0,0,1-.02471.06468.26651.26651,0,0,1-.06935.02985.26433.26433,0,0,0-.06023.03557.25786.25786,0,0,0-.0482.04835.39429.39429,0,0,0-.03157.06855c-.00566.01166.01341.02181.0202.01067A.24068.24068,0,0,1,6.67675,7.343a.2441.2441,0,0,1,.08192-.03492c.06106-.01454.11552-.03228.1358-.09849a.37784.37784,0,0,0,.0158-.1044c.0322.04984.0562.10462.08461.15669a.48008.48008,0,0,0,.13464.16653.42407.42407,0,0,0,.18734.07031c.13817.02045.27944-.00576.41707.02081a1.8876,1.8876,0,0,1,.23716.1035.34317.34317,0,0,0,.27636-.02448C8.27258,7.58289,8.25444,7.54683,8.2307,7.543Z" /><path d="M7.581,7.68583a.82066.82066,0,0,0-.08445.00967.42709.42709,0,0,1-.08379-.0036c-.05911-.00727-.11657-.02263-.17521-.03249a1.29392,1.29392,0,0,0-.37422.02531,1.08526,1.08526,0,0,1-.36384-.01142.55136.55136,0,0,1-.28683-.14021.01521.01521,0,0,0-.02352.01925.60289.60289,0,0,0,.26018.19736.86714.86714,0,0,0,.38416.0347,2.60179,2.60179,0,0,1,.40793-.04461c.06283.00426.12518.01568.18813.01778a.23731.23731,0,0,0,.16291-.03379A.02171.02171,0,0,0,7.581,7.68583Z" /><path d="M6.46738,7.39018a.0191.0191,0,0,0-.01418.026c.01657.04852-.04733.03732-.07926.03489a.3571.3571,0,0,1-.10985-.029.01427.01427,0,0,0-.0178.01892c.02335.068.14118.08163.20162.07059A.07674.07674,0,0,0,6.51582,7.447C6.51887,7.41874,6.5011,7.38107,6.46738,7.39018Z" /><path d="M8.21807,7.69847a.7834.7834,0,0,1-.30773-.02083c-.09565-.02977-.17731-.09085-.27257-.1209a.69462.69462,0,0,0-.282-.01233.52718.52718,0,0,1-.263-.01359.26717.26717,0,0,1-.10833-.091.32874.32874,0,0,1-.06748-.135c-.00189-.0176-.02775-.01285-.02675.00423.0014.024-.0042.04773-.00168.07206a.36962.36962,0,0,0,.01623.067.27132.27132,0,0,0,.078.118.3723.3723,0,0,0,.27237.08056,1.60809,1.60809,0,0,1,.30652-.01281.57962.57962,0,0,1,.15376.05549.83474.83474,0,0,0,.15662.05739.62428.62428,0,0,0,.35779-.00842C8.25319,7.73,8.2405,7.6963,8.21807,7.69847Z" /><path d="M6.85844,7.58476c-.019-.02743-.051-.04072-.069-.06933a.1329.1329,0,0,1-.0103-.11322c.00507-.016-.01577-.03589-.02965-.02119a.15034.15034,0,0,0-.03142.161c.02081.04959.07455.10162.13144.08027A.0245.0245,0,0,0,6.85844,7.58476Z" /><path d="M6.34748,7.03473a.17473.17473,0,0,0-.04285.0561c-.00874.0196-.01738.05084.00025.06773a.01833.01833,0,0,0,.02856-.001c.01142-.014.00812-.03405.00994-.05105a.11138.11138,0,0,1,.02107-.056C6.37238,7.04027,6.35715,7.02556,6.34748,7.03473Z" /><path d="M6.44881,7.10852a.0257.0257,0,0,0-.04568-.01068c-.01648.01937-.01262.04772-.02525.06906a.24237.24237,0,0,1-.05.05526c-.0146.01294-.0002.03969.01864.03032a.17648.17648,0,0,0,.06728-.06013C6.43014,7.16841,6.45722,7.14014,6.44881,7.10852Z" /><path d="M6.25926,6.883a.05346.05346,0,0,0-.01177.07.01706.01706,0,0,0,.03117-.0138.03743.03743,0,0,1,.00877-.0299C6.30112,6.89186,6.276,6.86932,6.25926,6.883Z" /><path d="M5.53659,6.49938a.28428.28428,0,0,0-.31967.07539.32654.32654,0,0,0-.06186.33036c.00777.0157.03562.01424.03605-.00576a.42733.42733,0,0,1,.0895-.2664c.06457-.079.16156-.06273.25092-.08306A.02646.02646,0,0,0,5.53659,6.49938Z" /><path d="M5.79929,6.69719a.30813.30813,0,0,0-.09856-.11536c-.0126-.01059-.026.00785-.01831.01963a.55726.55726,0,0,1,.05034.12518.41163.41163,0,0,1,.01576.06406.10452.10452,0,0,0,.01825.05647.0309.0309,0,0,0,.04876-.00169C5.841,6.80439,5.81722,6.73848,5.79929,6.69719Z" /><path d="M6.10807,6.533a.252.252,0,0,0-.11256-.13721.24831.24831,0,0,0-.3022.073c-.01009.01125.00577.02925.01856.02268a.26429.26429,0,0,1,.25166-.015.211.211,0,0,1,.07318.10565.63574.63574,0,0,0,.04549.14228A.023.023,0,0,0,6.12112,6.718.2882.2882,0,0,0,6.10807,6.533Z" /><path d="M5.09039,6.1572a.34088.34088,0,0,0-.15751-.153A.69146.69146,0,0,0,4.833,5.95334a.58359.58359,0,0,1-.11418-.03779.01245.01245,0,0,0-.01438.02031c.02755.02283.04679.05441.07292.07877a.5284.5284,0,0,0,.09075.0629c.06045.03629.11537.082.17567.11779A.03151.03151,0,0,0,5.09039,6.1572Z" /><path d="M5.52868,6.397A.46994.46994,0,0,0,5.445,6.31164a.98779.98779,0,0,1-.07761-.09079c-.05282-.06876-.09817-.14287-.151-.21163a1.211,1.211,0,0,1-.16536-.23043,1.024,1.024,0,0,1-.083-.28027c-.00311-.0224-.03527-.0163-.034.00538a.965.965,0,0,0,.04655.29995,1.06838,1.06838,0,0,0,.17149.25151c.05561.0728.103.152.16132.2227.04674.05674.12226.14538.20277.14189A.01655.01655,0,0,0,5.52868,6.397Z" /><path d="M4.71819,5.67293c-.01176-.01062-.0176-.02565-.03083-.036a.29483.29483,0,0,0-.052-.03238A.39148.39148,0,0,0,4.5311,5.573l.001-.01338c.00249-.03806.01395-.096-.02267-.12074a.02655.02655,0,0,0-.03089.00108c-.03473.02279-.02592.08182-.02774.118-.00225.0447-.0061.08937-.00951.134s-.00678.08908-.01226.13347c-.00561.04547-.00746.09383-.01731.13843-.00327.0148.02124.02033.02581.006.01419-.0445.03372-.08635.04612-.13175.01249-.04571.024-.092.03244-.13865L4.522,5.66189c.03059.00544.06067.01256.09106.01916l.04279.009c.016.00335.03578.0002.051.00442A.01232.01232,0,0,0,4.71819,5.67293Z" /><path d="M3.345,2.55861a.01366.01366,0,0,0-.01654-.02021.31444.31444,0,0,0-.17214.19186,1.08905,1.08905,0,0,0-.01665.29861.75442.75442,0,0,1-.02239.1553.54411.54411,0,0,0-.033.15676.14408.14408,0,0,0,.05283.10815.08457.08457,0,0,0,.111.00428.03292.03292,0,0,0-.01735-.05749c-.09319-.01187-.054-.10811-.03691-.1695a.85267.85267,0,0,0,.03113-.245.96969.96969,0,0,1,.00621-.23373A.60658.60658,0,0,1,3.345,2.55861Z" /><path d="M4.01478,4.4049a1.51713,1.51713,0,0,0-.27129-.25219.76167.76167,0,0,1-.16965-.24122,1.38828,1.38828,0,0,0-.276-.50128c-.00943-.00817-.02506.00481-.01911.01564a1.96171,1.96171,0,0,1,.12145.26854c.03445.09371.06785.1883.11152.27823a.81.81,0,0,0,.18278.24938c.04309.03933.08887.076.13455.11223a.63249.63249,0,0,0,.16316.10235C4.01235,4.44433,4.025,4.42063,4.01478,4.4049Z" /><path d="M4.34665,4.24564c-.04333-.05482-.08521-.11077-.12915-.1651L4.213,4.06687c-.01149-.03121-.02389-.06205-.035-.09341-.02119-.05978-.03944-.12037-.05647-.18145-.01678-.06014-.03149-.12085-.04507-.1818-.00724-.03251-.014-.06514-.02144-.09759-.00619-.02683-.01589-.05325-.02229-.08013a.29842.29842,0,0,0,.067-.09968.02254.02254,0,0,0-.03514-.02512c-.05044.04331-.08391.09883-.15832.09555a.59319.59319,0,0,1-.10894-.0237A.34029.34029,0,0,1,3.68171,3.33c-.01382-.00927-.02637.01-.01459.02061a.3901.3901,0,0,0,.2543.13541A.15183.15183,0,0,0,4.004,3.45634a.56343.56343,0,0,0-.00119.06454c.00219.03327.00585.06631.01067.09929a1.8288,1.8288,0,0,0,.03966.19521c.00884.03406.01875.0679.02934.10152q-.07956-.09513-.16091-.18876c-.08912-.1022-.184-.20056-.26428-.31a1.02651,1.02651,0,0,1-.10264-.16447,1.18928,1.18928,0,0,1-.06822-.19,3.71,3.71,0,0,1-.087-.453c-.002-.01311-.02413-.01335-.02393.00068a2.896,2.896,0,0,0,.02861.404,1.08261,1.08261,0,0,0,.13511.37978,2.05078,2.05078,0,0,0,.24221.31552c.09789.11087.19312.224.28773.3377.05324.064.10634.1279.16092.19075.05249.06045.09895.12516.14993.18658a.02485.02485,0,0,0,.04349-.01312A.25848.25848,0,0,0,4.34665,4.24564Z" /><path d="M4.50394,4.79852c-.00369-.03964-.00727-.07928-.01128-.1189a1.7509,1.7509,0,0,0-.03734-.23509.00991.00991,0,0,0-.01955.00056,1.28726,1.28726,0,0,0-.00977.23166q.00214.05658.00594.113a.34012.34012,0,0,0,.0183.11867c.00943.02094.04706.02395.05337-.00162A.31485.31485,0,0,0,4.50394,4.79852Z" /><path d="M4.97254,4.90533c-.03795-.03027-.10253.00029-.13892.02124a.15818.15818,0,0,0-.07709.101.00989.00989,0,0,0-.00279.01762.02962.02962,0,0,0,.03719.00038.39865.39865,0,0,1,.06226-.04084c.04144-.01769.10907-.02311.129-.068A.02746.02746,0,0,0,4.97254,4.90533Z" /><path d="M5.04675,4.98188a.02722.02722,0,0,0-.0238-.02248A.1157.1157,0,0,0,4.95,4.98471c-.02551.01386-.05179.02633-.07688.041a.1822.1822,0,0,0-.09768.11793c-.00588.03093.03463.03768.05122.01916a.36428.36428,0,0,1,.12379-.0823C4.99088,5.06125,5.05089,5.035,5.04675,4.98188Z" /><path d="M4.99818,5.12128,4.99409,5.1188a.042.042,0,0,0-.0412-.00412.37655.37655,0,0,0-.1666.17131c-.00862.0201.01691.03447.03254.02326.03512-.02519.06834-.05274.10393-.07734.02945-.02035.0879-.03978.089-.08087A.03278.03278,0,0,0,4.99818,5.12128Z" /><path d="M4.99073,5.23713a.11375.11375,0,0,0-.06076.0503.18289.18289,0,0,0-.03255.06633c-.002.0088.00891.01481.01612.01168a.22224.22224,0,0,0,.05712-.04007.12475.12475,0,0,0,.04494-.05784C5.0193,5.25309,5.00895,5.232,4.99073,5.23713Z" /><path d="M4.70877,4.04439c-.02264-.03573-.0465-.07068-.06978-.106-.04764-.07228-.095-.14463-.14149-.21767-.04516-.071-.08894-.14283-.1356-.21282C4.31266,3.434,4.259,3.364,4.214,3.28734c-.0079-.01345-.02964-.00481-.02275.01007.03715.08022.06774.16323.10583.243.03718.07785.08141.15232.12613.226s.09154.14642.14009.21764c.02372.0348.04787.06952.07341.103.02457.03222.04693.06859.0893.076A.02048.02048,0,0,0,4.748,4.145.151.151,0,0,0,4.70877,4.04439Z" /><path d="M4.90654,4.66811a.94774.94774,0,0,0-.03914-.16619c-.03276-.10427-.071-.20852-.10951-.31073-.00457-.01214-.02167-.00758-.0234.00374A.669.669,0,0,0,4.7829,4.512a1.6763,1.6763,0,0,1,.0401.16278.40652.40652,0,0,0,.05123.14932.01606.01606,0,0,0,.02727-.00453A.34119.34119,0,0,0,4.90654,4.66811Z" /><path d="M4.09266,2.37313A.33753.33753,0,0,0,3.827,2.21321a.9588.9588,0,0,0-.36486.04467.27576.27576,0,0,0-.1406.08262.62321.62321,0,0,0-.07914.14094c-.006.01243.01308.02154.02084.011a.3806.3806,0,0,1,.22835-.16092,1.58288,1.58288,0,0,1,.1877-.03408l-.01605.0065a.3025.3025,0,0,0-.11783.1043c-.00828.01067.00818.02675.01776.01656a.24214.24214,0,0,1,.10858-.05511.51817.51817,0,0,1,.13955-.01736c.07872.00023.18339.00136.22793.079a.02357.02357,0,0,0,.02055.01183.80239.80239,0,0,1,.06655.22416c.00356.01574.0301.01743.03014-.00086A.58239.58239,0,0,0,4.09266,2.37313Z" /><path d="M4.15952,2.819a.01134.01134,0,0,0-.02239.00354c.00845.10641-.01634.21352-.0179.31993a.02266.02266,0,0,0,.0436.01011A.56581.56581,0,0,0,4.15952,2.819Z" /><path d="M3.93072,2.50951a.68181.68181,0,0,1-.08927.05179.34674.34674,0,0,1-.11383.00817c-.06525-.001-.14425.00165-.16849.07523a.41361.41361,0,0,0-.0073.10313.30631.30631,0,0,1-.0257.11317c-.00579.01254.013.02152.02084.011a.41579.41579,0,0,0,.079-.15057c.00485-.02093.00243-.05423.025-.06412A.22519.22519,0,0,1,3.73666,2.653a.31677.31677,0,0,0,.1731-.03261.37352.37352,0,0,1,.07211-.04394c.02318-.00724.03909.006.0613.00684a.029.029,0,0,0,.03114-.02548C4.08035,2.48329,3.97535,2.487,3.93072,2.50951Z" /><path d="M3.83037,2.79232a.10081.10081,0,0,0-.1133-.00786.19356.19356,0,0,0-.08689.08159c-.00609.00842.0039.023.01384.01691A.30414.30414,0,0,1,3.7382,2.8561c.02944-.00633.065-.00266.08825-.02452A.0283.0283,0,0,0,3.83037,2.79232Z" /><path d="M4.14495,2.73379a.11268.11268,0,0,0-.17669.04743.01761.01761,0,0,0,.02336.022.22716.22716,0,0,1,.06677-.02288c.02348-.00332.04717-.00012.07058-.0046A.02611.02611,0,0,0,4.14495,2.73379Z" /><path d="M3.789,2.91071a.14122.14122,0,0,0-.049.01621.14488.14488,0,0,1-.05178.01841.0112.0112,0,0,0,.00063.02211.274.274,0,0,0,.06462.00516.07494.07494,0,0,0,.05532-.03C3.82065,2.92887,3.80511,2.9082,3.789,2.91071Z" /><path d="M4.13089,2.84814a.03335.03335,0,0,0-.01029-.01258.02985.02985,0,0,0-.03-.003.42308.42308,0,0,1-.08148.04306c-.01107.00343-.00741.018.00067.022a.0884.0884,0,0,0,.05536.011.10145.10145,0,0,0,.05718-.02443A.03147.03147,0,0,0,4.13089,2.84814Z" /><path d="M4.02632,3.17585a.26387.26387,0,0,0-.07385.02362.19094.19094,0,0,1-.0893.02938.01079.01079,0,0,0-.00214.02145c.06824.0137.14461.03159.18616-.04085A.02176.02176,0,0,0,4.02632,3.17585Z" /><path d="M4.01874,3.08762a.43227.43227,0,0,1-.07307-.19635c.00018-.01125-.01771-.01758-.02083-.00483a.23309.23309,0,0,0-.00673.1218A.16693.16693,0,0,0,3.99138,3.11C4.00547,3.11859,4.02808,3.10479,4.01874,3.08762Z" /></svg>