<svg xmlns="http://www.w3.org/2000/svg" version="1.1" viewBox="7.813299999999995 9.578299999999995 84.35918000000004 80.82814500000003">
 <g>
  <path d="m58.828 32.547c-13.531 0-24.531 11-24.531 24.531s11 24.531 24.531 24.531 24.531-11 24.531-24.531-11-24.531-24.531-24.531zm0 45.922c-11.797 0-21.406-9.5938-21.406-21.406s9.5938-21.406 21.406-21.406 21.406 9.5938 21.406 21.406-9.5938 21.406-21.406 21.406z" />
  <path d="m65.688 24.422v-4.6562h2.1719c1.7188 0 3.125-1.4062 3.125-3.125v-3.9375c0-1.7188-1.4062-3.125-3.125-3.125h-18.078c-1.7188 0-3.125 1.4062-3.125 3.125v3.9375c0 1.7188 1.4062 3.125 3.125 3.125h2.1719v4.6562c-7.625 1.5938-14.281 5.8125-19.031 11.641h-23.547c-0.85938 0-1.5625 0.70312-1.5625 1.5625s0.70312 1.5625 1.5625 1.5625h21.344c-1.4844 2.3125-2.6875 4.8125-3.5625 7.4688h-8.9531c-0.85938 0-1.5625 0.70312-1.5625 1.5625s0.70312 1.5625 1.5625 1.5625h8.0938c-0.53125 2.3438-0.82812 4.7656-0.82812 7.2656v0.20312h-12.578c-0.85938 0-1.5625 0.70312-1.5625 1.5625s0.70312 1.5625 1.5625 1.5625h12.734c0.26562 2.5938 0.84375 5.0938 1.6562 7.4688h-5.5625c-0.85938 0-1.5625 0.70312-1.5625 1.5625s0.70312 1.5625 1.5625 1.5625h6.5469c0.09375 0 0.17188-0.03125 0.25-0.046875 5.2812 11.484 16.859 19.484 30.297 19.484 18.391 0 33.359-14.969 33.359-33.359 0-16.047-11.391-29.469-26.5-32.641zm-15.891-11.719h18.078v3.9375h-3.7344-14.328v-3.9375zm5.2969 11v-3.9375h7.4688v3.9375zm3.7344 63.594c-16.672 0-30.234-13.562-30.234-30.234s13.562-30.234 30.234-30.234 30.234 13.562 30.234 30.234-13.562 30.234-30.234 30.234z" />
  <path d="m63.344 59.375c0.35938-0.70312 0.57812-1.4688 0.57812-2.3125s-0.21875-1.6094-0.57812-2.3125l4.25-4.25c0.60938-0.60938 0.60938-1.5938 0-2.2031s-1.5938-0.60938-2.2031 0l-4.25 4.25c-0.70312-0.35938-1.4688-0.57812-2.3125-0.57812-2.8125 0-5.0938 2.2812-5.0938 5.0938s2.2812 5.0938 5.0938 5.0938c0.82812 0 1.6094-0.21875 2.3125-0.57812l8.9531 8.9531c0.3125 0.3125 0.70312 0.45312 1.1094 0.45312s0.79688-0.15625 1.1094-0.45312c0.60938-0.60938 0.60938-1.5938 0-2.2031l-8.9531-8.9531zm-6.4844-2.3125c0-1.0938 0.89062-1.9688 1.9688-1.9688 0.53125 0 1.0156 0.21875 1.375 0.5625v0.015625c0 0.015625 0 0 0.015625 0 0.34375 0.35938 0.5625 0.84375 0.5625 1.375s-0.21875 1.0156-0.5625 1.375h-0.015625c-0.015625 0 0 0 0 0.015625-0.35938 0.34375-0.84375 0.5625-1.375 0.5625-1.0938 0-1.9688-0.89062-1.9688-1.9688z" />
  <path d="m58.828 42.734c0.85938 0 1.5625-0.70312 1.5625-1.5625v-1.7656c0-0.85938-0.70312-1.5625-1.5625-1.5625s-1.5625 0.70312-1.5625 1.5625v1.7656c0 0.85938 0.70312 1.5625 1.5625 1.5625z" />
  <path d="m76.5 55.5h-1.7656c-0.85938 0-1.5625 0.70312-1.5625 1.5625s0.70312 1.5625 1.5625 1.5625h1.7656c0.85938 0 1.5625-0.70312 1.5625-1.5625s-0.70312-1.5625-1.5625-1.5625z" />
  <path d="m58.828 71.406c-0.85938 0-1.5625 0.70312-1.5625 1.5625v1.7656c0 0.85938 0.70312 1.5625 1.5625 1.5625s1.5625-0.70312 1.5625-1.5625v-1.7656c0-0.85938-0.70312-1.5625-1.5625-1.5625z" />
  <path d="m42.938 55.5h-1.7656c-0.85938 0-1.5625 0.70312-1.5625 1.5625s0.70312 1.5625 1.5625 1.5625h1.7656c0.85938 0 1.5625-0.70312 1.5625-1.5625s-0.70312-1.5625-1.5625-1.5625z" />
  <path d="m15.922 67.859h-1.25c-0.85938 0-1.5625 0.70312-1.5625 1.5625s0.70312 1.5625 1.5625 1.5625h1.25c0.85938 0 1.5625-0.70312 1.5625-1.5625s-0.70312-1.5625-1.5625-1.5625z" />
 </g>
<text x="0.0" y="117.5" font-size="5.0" font-weight="bold" font-family="Arbeit Regular, Helvetica, Arial-Unicode, Arial, Sans-serif" fill="#000000">Created by Yosua Bungaran</text><text x="0.0" y="122.5" font-size="5.0" font-weight="bold" font-family="Arbeit Regular, Helvetica, Arial-Unicode, Arial, Sans-serif" fill="#000000">from Noun Project</text></svg>