<svg xmlns="http://www.w3.org/2000/svg" data-name="Layer 1" viewBox="1.1390319696799818 2.7609502445027596 7.716424818693747 4.4768324668244075" x="0px" y="0px"><title>KAMASUTRA</title><path d="M3.18722,6.32594a.1892.1892,0,0,1-.08631-.04849c-.0349-.04279-.01251-.10423-.00973-.15475.00653-.11846.01037-.23688.019-.35524a2.2094,2.2094,0,0,1,.04628-.36178c.02771-.11468.06413-.2273.08828-.34281a1.34569,1.34569,0,0,0,.023-.35047C3.25509,4.476,3.20165,4.24449,3.17262,4.01A1.605,1.605,0,0,1,3.16,3.64722a.57671.57671,0,0,1,.03347-.14679.38524.38524,0,0,1,.082-.13807.016.016,0,0,0-.021-.02417.35443.35443,0,0,0-.09754.09034.43472.43472,0,0,0-.05655.12938.94352.94352,0,0,0-.02312.301c.01359.24528.06816.48552.09385.72944a2.02,2.02,0,0,1,.008.36949,2.17138,2.17138,0,0,1-.06642.35836c-.02009.08026-.03908.16183-.055.24364a.03915.03915,0,0,0-.01752-.00114.33822.33822,0,0,0-.12879.04674,1.18282,1.18282,0,0,0-.109.08756c-.01109.00913.00255.02548.014.01716a.3074.3074,0,0,1,.12035-.04806c.03538-.00734.07069-.01608.10638-.022l-.0059.0366a3.44255,3.44255,0,0,0-.02827.37426c-.00146.035-.00334.07032-.00278.1054a.41894.41894,0,0,0,.01544.08346l.00079.00362c-.02761.00611-.05389.022-.08116.02948-.03491.00956-.07092.01515-.106.024-.04093.01033-.0822.02053-.12247.03323a.23938.23938,0,0,1-.13595.02545.14978.14978,0,0,1-.03654-.02224.46783.46783,0,0,0-.04672-.02375c-.02881-.014-.05653-.03016-.08507-.0447a.462.462,0,0,0-.18883-.04732.01075.01075,0,0,0-.0048.02069,1.05857,1.05857,0,0,1,.18.12841.36943.36943,0,0,0,.0964.04918.52085.52085,0,0,0,.11734.00691.89033.89033,0,0,0,.2743-.04006.28184.28184,0,0,0,.15646-.08638.14245.14245,0,0,0,.05185.059c.06476.04337.15385.04716.20141.11466.01577.02238.04391.00041.04262-.0206C3.33057,6.37313,3.24792,6.348,3.18722,6.32594Z" /><path d="M4.53012,5.90185A.48009.48009,0,0,1,4.307,5.89342a.23365.23365,0,0,1-.16433-.12521.81642.81642,0,0,1-.07854-.46131c.01145-.0839.04629-.161.05859-.2445A.84732.84732,0,0,0,4.129,4.834a.88087.88087,0,0,0-.175-.40746,1.17741,1.17741,0,0,0-.33167-.31642q.0067-.103.01491-.206c.00365-.04475.008-.08942.01193-.13414a1.45314,1.45314,0,0,1,.01371-.14717c.00417-.0218-.02968-.02473-.03411-.00341-.0088.04236-.02424.08223-.03472.12413s-.01925.08409-.02753.12644c-.01553.0795-.02748.1597-.03514.24033-.01574.16572-.01166.33133-.01524.49746a3.83355,3.83355,0,0,1-.19312.88317,2.07068,2.07068,0,0,0-.0499.24637.94126.94126,0,0,0,.006.24682.02538.02538,0,0,0,.05012-.00143,2.05061,2.05061,0,0,1,.02931-.21887c.01152-.07337.02642-.14549.04452-.21752.03649-.14526.08372-.28751.12333-.43191a2.04285,2.04285,0,0,0,.0797-.43714c.008-.15972.00174-.3196.01081-.47941.0341.04038.071.07846.108.11658-.00014.04482.00611.09055.00763.13455.00219.06348.00156.12761-.00147.19105a1.48351,1.48351,0,0,1-.05887.38094c-.0369.11621-.0935.22545-.13693.33923a.61982.61982,0,0,0-.04344.174.86676.86676,0,0,0-.01095.17145c.00833.06594.09226.07558.14457.08358a.48938.48938,0,0,0,.088.00638c-.02812.02159-.05629.04313-.08344.066-.0242.02036-.04809.04107-.072.06172a.27292.27292,0,0,0-.06861.07058.01125.01125,0,0,0,.01078.01736.26048.26048,0,0,0,.087-.04051c.03082-.018.06163-.03607.09221-.05452a1.23808,1.23808,0,0,0,.17152-.1137.19016.19016,0,0,0,.06594-.158,1.72353,1.72353,0,0,1-.012-.1756.71447.71447,0,0,1,.10493-.25715c-.00655.06354-.01587.12674-.01785.19076a1.02177,1.02177,0,0,0,.03507.32317l-.01039.02107c-.01528.029-.03428.05631-.05186.08392-.03687.05792-.0794.1116-.12121.16595-.04283.05568-.08705.11027-.13189.16435-.04731.05705-.08732.11914-.133.17712-.008.01015.00637.02222.01607.015a1.53364,1.53364,0,0,0,.17813-.14376c.05378-.054.10554-.11055.15434-.16914a1.2985,1.2985,0,0,0,.12444-.16941c.00624-.01061.01336-.02342.02026-.03746l.0174.029a.34612.34612,0,0,0,.21923.13013.32.32,0,0,0,.24678-.03471C4.58254,5.94068,4.55917,5.89626,4.53012,5.90185Zm-.5-.97474a.62069.62069,0,0,1-.09166.25607.7518.7518,0,0,0-.11365.2547.52654.52654,0,0,0,.00347.15238.16541.16541,0,0,1-.02114.12566.77222.77222,0,0,0-.15344-.01834A.66008.66008,0,0,1,3.56624,5.683l-.02572-.0068c-.00458-.00521,0-.026.00116-.03454a.73372.73372,0,0,1,.05494-.16832c.0203-.05279.03823-.1065.05866-.15928a1.95867,1.95867,0,0,0,.16828-.67745,1.11425,1.11425,0,0,0-.01436-.19341L3.80054,4.3943c.02474.02726.04858.05528.07056.0849a.76876.76876,0,0,1,.16395.41687l.00042.02Z" /><path d="M3.44671,6.36758c-.01037-.02932-.03751-.04335-.0574-.06593-.01777-.02016-.0297-.04731-.05489-.05946a.46656.46656,0,0,0-.18-.00926c-.01905-.0006-.02006.02954-.0019.03282.03067.00553.06074.01432.09127.02069a.07783.07783,0,0,1,.062.03491c.02551.038.06263.08965.11294.08831A.03217.03217,0,0,0,3.44671,6.36758Z" /><path d="M3.53506,6.33651A.54984.54984,0,0,0,3.473,6.23361a.6598.6598,0,0,0-.07684-.1043c-.04334-.04157-.12622-.0139-.171.01261a.01215.01215,0,0,0,.00444.02184.33928.33928,0,0,0,.05291.00212.32446.32446,0,0,1,.05182-.00418.786.786,0,0,0,.05852.10024.62086.62086,0,0,0,.08379.11379A.0367.0367,0,0,0,3.53506,6.33651Z" /><path d="M3.51233,6.19769a.64508.64508,0,0,1-.057-.15736.03281.03281,0,0,0-.03324-.02209.23412.23412,0,0,0-.09867.01689.03023.03023,0,0,0,.00368.05207.12351.12351,0,0,0,.082.00247,1.23719,1.23719,0,0,0,.08035.12324A.01375.01375,0,0,0,3.51233,6.19769Z" /><path d="M6.37195,4.14289a.29166.29166,0,0,0-.30884-.0525,1.53686,1.53686,0,0,0-.32448.13418,2.24079,2.24079,0,0,0-.55983.44347,2.60233,2.60233,0,0,0-.19134.23554,1.88951,1.88951,0,0,0-.35268.09881,1.58322,1.58322,0,0,0-.18056.08267c-.05837.03184-.11046.07364-.16584.11016-.01432.00944.00051.03248.01563.02543a1.40633,1.40633,0,0,1,.15176-.05537c.05119-.01706.10147-.03684.15256-.05422a2.70943,2.70943,0,0,1,.31082-.0862,2.3308,2.3308,0,0,1,.3197-.04426,1.00687,1.00687,0,0,1,.32916.01675.5288.5288,0,0,1,.2522.16545c.02219.02436.07254.00871.06354-.02847a.27967.27967,0,0,0-.02428-.06444.907.907,0,0,0,.07811-.06945,1.0423,1.0423,0,0,0,.11537-.11872.90041.90041,0,0,0,.1483-.28757.01734.01734,0,0,0-.03249-.01208.87308.87308,0,0,1-.19251.24339c-.03619.03577-.07237.07137-.11025.10538-.02136.01918-.04784.03755-.07021.05872a.70536.70536,0,0,0-.46051-.121,2.29633,2.29633,0,0,0-.26794.022c.04009-.038.08058-.07553.12055-.1133.08093-.07648.16306-.15161.249-.22247a1.94057,1.94057,0,0,1,.5559-.33386.35692.35692,0,0,1,.31968-.01425C6.35264,4.23368,6.40539,4.18145,6.37195,4.14289Z" /><path d="M8.79339,5.82908a.35817.35817,0,0,1-.17434.20513.98464.98464,0,0,1-.30357.14234,1.68109,1.68109,0,0,1-.713-.10546c-.23538-.05117-.47643-.06915-.71271-.11566a1.90675,1.90675,0,0,1-.34564-.09718,1.47039,1.47039,0,0,0-.16188-.06067.94737.94737,0,0,0-.1865-.02646q-.12606-.00853-.25217-.01687a2.97747,2.97747,0,0,0,.13043-.27307c.0479-.10581.0946-.21213.13918-.31938.08657-.20824.17933-.41826.24665-.63369a.50312.50312,0,0,0,.02769-.16433.26623.26623,0,0,0-.01285-.07235A.17726.17726,0,0,0,6.43,4.22374a.01174.01174,0,0,0-.02053.0092.43885.43885,0,0,1-.01085.17935,1.499,1.499,0,0,1-.06119.18108q-.07455.19388-.15412.38583c-.05315.12788-.1091.25469-.1655.38116-.05716.12818-.12733.25454-.17224.38761l-.08968-.00546c-.07352-.00431-.14714-.01016-.22075-.01242-.02916-.0009-.05823-.00148-.08706-.0003q.08634-.08056.17337-.16048c.04581-.04223.09059-.08519.13283-.131a.85192.85192,0,0,0,.05908-.06916c.02093-.02825.03432-.06017.05541-.08814.00842-.01117-.00858-.02481-.01706-.01357a.50379.50379,0,0,1-.07188.06675c-.02246.02016-.04442.04089-.06731.06057-.04616.03969-.09421.07737-.14188.11523-.10064.08-.19872.16246-.29365.24914a6.34425,6.34425,0,0,0-.53651.55638.35207.35207,0,0,0-.1.16279.13.13,0,0,0,.07065.137.02356.02356,0,0,0,.02826-.0352c-.02985-.03842-.0051-.09309.01916-.12827a1.48445,1.48445,0,0,1,.11071-.13177q.07534-.08574.15335-.1691a.45511.45511,0,0,0,.0925.0493,1.14957,1.14957,0,0,0,.13652.04c.09519.0228.192.03808.28724.06058a1.069,1.069,0,0,1,.27357.10607,1.98006,1.98006,0,0,0,.28939.12931c.20852.075.42366.13873.63766.196.21331.05712.42877.11582.646.15625A.8166.8166,0,0,0,7.743,6.886a.60381.60381,0,0,0,.15388-.06867.35634.35634,0,0,0,.131-.112c.013-.02245-.002-.06071-.03286-.05291a.40934.40934,0,0,0-.1231.06679.633.633,0,0,1-.13726.07129.58681.58681,0,0,1-.30168.0098c-.21334-.03868-.42462-.09581-.63425-.15077-.20535-.05384-.41232-.10471-.61265-.17572-.049-.01735-.09643-.03685-.14294-.0584l.02708.00059a1.34088,1.34088,0,0,1,.24088.0205c.085.01766.16642.05046.2495.07517a1.92665,1.92665,0,0,0,.25594.063,2.62528,2.62528,0,0,0,.27431.02444A4.4632,4.4632,0,0,0,7.66216,6.588c.09981-.008.198-.02177.2969-.03689a.27236.27236,0,0,1,.22457.03715c.02457.01887.051-.01472.0352-.03774a.22354.22354,0,0,0-.17671-.08319,1.17223,1.17223,0,0,0-.23432.00832c-.19077.01786-.3808.03036-.57253.0297a1.93763,1.93763,0,0,1-.54822-.04807c-.08354-.02525-.16221-.0637-.24524-.09053a1.00368,1.00368,0,0,0-.2465-.048c-.09161-.00573-.18356-.00138-.27517-.00749q-.04381-.00292-.087-.00774a1.00025,1.00025,0,0,0-.19721-.08371c-.10025-.029-.20339-.04484-.30564-.06473a1.52741,1.52741,0,0,1-.15451-.03662c-.03112-.00949-.06363-.01843-.09525-.02882l.02676-.028c.08588-.08885.17432-.17492.264-.25972a1.37577,1.37577,0,0,0,.34682.04137c.13549.00961.27109.01784.40664.02659.06582.00425.13156.00791.19674.0184a.9.9,0,0,1,.17277.05136,2.43056,2.43056,0,0,0,.35538.103c.24407.051.49307.07453.73665.12856a1.62519,1.62519,0,0,0,.73843.10346,1.17313,1.17313,0,0,0,.34773-.17527.3375.3375,0,0,0,.183-.25592C8.85615,5.80984,8.8025,5.79125,8.79339,5.82908Z" /><path d="M5.52947,5.12693c-.01347-.00295-.0254-.01047-.03874-.01375a.25563.25563,0,0,0-.03949-.00492.33576.33576,0,0,0-.08726.00435.46561.46561,0,0,0-.15459.0598,1.00759,1.00759,0,0,0-.25358.238,1.41711,1.41711,0,0,0-.1971.32232c-.04974.11132-.09378.22559-.1492.33429a1.31743,1.31743,0,0,1-.1043.17458c-.04041.05588-.07985.113-.122.16757-.01116.01444.0081.03658.023.024a.93089.93089,0,0,0,.11957-.11286c.03627-.04359.07135-.0887.10454-.13468A1.5736,1.5736,0,0,0,4.802,5.88175,1.77131,1.77131,0,0,1,4.95976,5.568a1.4374,1.4374,0,0,1,.22514-.26213.68111.68111,0,0,1,.147-.10385.53458.53458,0,0,1,.08628-.0339.4184.4184,0,0,1,.04867-.012.30446.30446,0,0,1,.05929-.008A.01071.01071,0,0,0,5.52947,5.12693Z" /><path d="M5.16911,6.99661a.99066.99066,0,0,1-.28336-.0062.54951.54951,0,0,1-.24214-.12978.74862.74862,0,0,0-.10892-.08495.37138.37138,0,0,0-.13717-.04011c-.10072-.01777-.0765-.16981-.06627-.2404A.01437.01437,0,0,0,4.304,6.48724a.32311.32311,0,0,0-.0615.1669.19509.19509,0,0,0,.00867.05795l-.04782.00448c-.03826.003-.0766.00543-.115.00638A2.06139,2.06139,0,0,1,3.856,6.71534c-.07488-.00661-.15008-.0139-.22453-.02424-.03816-.0053-.07624-.01052-.11426-.01682-.0189-.00313-.03782-.00562-.05692-.007a.62453.62453,0,0,1-.0635-.00179c-.01362-.00242-.01615.01692-.00514.02215.01771.00841.03268.02257.05.032a.40746.40746,0,0,0,.05283.02415c.03793.01408.0771.02646.11621.03673a1.44133,1.44133,0,0,0,.23443.04323,2.10214,2.10214,0,0,0,.23231.00855c.04129-.00077.0826-.00227.12379-.00536a.284.284,0,0,0,.11907-.0216.61.61,0,0,0,.12839.03506.40571.40571,0,0,1,.13081.09191.6548.6548,0,0,0,.29124.15362.44879.44879,0,0,0,.31983-.03317C5.219,7.03608,5.19733,6.995,5.16911,6.99661Z" /><path d="M5.09168,6.9229a.49745.49745,0,0,1-.16593-.10735c-.02507-.02269-.04969-.04582-.0729-.07044a.4652.4652,0,0,0-.07225-.07259.01158.01158,0,0,0-.01786.013.36143.36143,0,0,0,.05164.10277.44963.44963,0,0,0,.07416.09258.30275.30275,0,0,0,.08958.05945.26747.26747,0,0,0,.108.01785A.01859.01859,0,0,0,5.09168,6.9229Z" /><path d="M7.82983,7.14131c-.02981.0192-.07057-.00026-.09781-.015a.4338.4338,0,0,0-.1312-.05239,1.20073,1.20073,0,0,0-.292.00811,2.67756,2.67756,0,0,1-.59954-.01958,3.58788,3.58788,0,0,1-.56806-.1425c-.09505-.03125-.18918-.06518-.28287-.10029A1.776,1.776,0,0,0,5.57419,6.732,3.0563,3.0563,0,0,0,5.239,6.69269c-.05879-.00473-.11746-.006-.17641-.00643-.02524-.0002-.05041-.00068-.07563.00049a.99127.99127,0,0,1-.10207.006.01147.01147,0,0,0-.00228.02281c.05337.00845.10585.03023.15929.04142s.1065.02238.16041.03027c.10257.015.20608.02272.30859.03824a1.46284,1.46284,0,0,1,.29353.08385c.09566.03577.19161.07073.28855.10288a3.82431,3.82431,0,0,0,.58685.14958,2.725,2.725,0,0,0,.61756.02389c.05848-.00378.11687-.00891.17533-.01288a.3543.3543,0,0,1,.15056.01345.52441.52441,0,0,0,.13522.05038.12139.12139,0,0,0,.11733-.05248A.03188.03188,0,0,0,7.82983,7.14131Z" /><path d="M8.12639,6.6042a.02113.02113,0,0,0,.0064.04c.02067.003.00166.05111-.0007.06347-.00429.02252-.0078.04518-.01187.06773a.683.683,0,0,1-.0387.13919.55372.55372,0,0,1-.145.18446.03275.03275,0,0,0,.02563.0572c.12479-.021.191-.15958.21866-.27088C8.19323,6.8354,8.25792,6.55053,8.12639,6.6042Z" /><path d="M8.78834,6.07923c-.04858.118-.174.18311-.24057.28914a.50062.50062,0,0,0-.05166.17617.07741.07741,0,0,1-.05935.06614.18854.18854,0,0,1-.05276.00361.43724.43724,0,0,1-.0692.00093c-.01445-.00292-.01718.01809-.00548.02361.01955.00922.03383.02708.05428.03588a.17415.17415,0,0,0,.06017.01216.14651.14651,0,0,0,.10336-.03424c.0601-.05366.04659-.13582.07226-.20484a.65435.65435,0,0,1,.11007-.17421.53729.53729,0,0,0,.10426-.18491A.01355.01355,0,0,0,8.78834,6.07923Z" /><path d="M2.08811,6.10522a.263.263,0,0,0-.09245.01923.18913.18913,0,0,0-.09058-.068.20369.20369,0,0,0-.0695-.014.37633.37633,0,0,0-.07746.01193c-.01225.00208-.01252.02191.00064.02235a.23326.23326,0,0,1,.11018.04808.28541.28541,0,0,1,.04.03208l.01085.0117a.28069.28069,0,0,0-.10856.19471.011.011,0,0,0,.01973.00738.48986.48986,0,0,1,.11664-.12231A.55386.55386,0,0,1,2.1,6.17951.03916.03916,0,0,0,2.08811,6.10522Z" /><path d="M3.06457,6.70481a2.42978,2.42978,0,0,1-.63717.01832,2.26872,2.26872,0,0,1-.3193-.05631c-.093-.024-.19879-.06961-.22024-.17413a.01261.01261,0,0,0-.02489.00393c.01464.24835.328.29985.52091.32742a2.13585,2.13585,0,0,0,.38536.01851c.10451-.004.25231-.00173.32045-.09728A.02615.02615,0,0,0,3.06457,6.70481Z" /><path d="M3.39017,6.4733a1.45135,1.45135,0,0,0-.12987.10586c-.0418.03571-.089.06653-.12909.104a.01156.01156,0,0,0,.009.02019.46591.46591,0,0,0,.16157-.06789.38849.38849,0,0,0,.13212-.12129A.03035.03035,0,0,0,3.39017,6.4733Z" /><path d="M2.7342,5.7268a.35187.35187,0,0,1-.12708.03642.45425.45425,0,0,1-.12389-.0014.37092.37092,0,0,1-.0961-.02449c-.0153-.00618-.03332-.01194-.05092-.01851.05908-.06967.10977-.15213.05084-.2294a.02181.02181,0,0,0-.0371.00617.37272.37272,0,0,1-.05768.12916c-.03065.04312-.06894.08036-.101.12247a.91484.91484,0,0,0-.084.13206c-.02487.04781-.06276.10679-.12262.10918-.01246.0005-.012.02224.00063.022a.21119.21119,0,0,0,.14564-.05607,1.45371,1.45371,0,0,0,.12953-.15073c.01-.01184.0218-.02468.0343-.03832a.13683.13683,0,0,0,.04312.043.28892.28892,0,0,0,.12594.04144.34955.34955,0,0,0,.137-.02023.54509.54509,0,0,0,.07-.027c.02667-.01254.05123-.03079.07885-.04088C2.77321,5.753,2.75474,5.71423,2.7342,5.7268Z" /><path d="M1.68416,5.99324A.34381.34381,0,0,1,1.37288,5.938a.384.384,0,0,1-.13177-.29778.60024.60024,0,0,1,.11311-.35106.44482.44482,0,0,1,.12952-.10951,1.513,1.513,0,0,1,.15875-.08227.01247.01247,0,0,0-.007-.02361.63819.63819,0,0,0-.07833.00466.71841.71841,0,0,0-.08448.02118.40208.40208,0,0,0-.14055.07719.57849.57849,0,0,0-.16768.29858.49966.49966,0,0,0,.20986.58132A.28867.28867,0,0,0,1.702,6.02218.01722.01722,0,0,0,1.68416,5.99324Z" /><path d="M3.64813,3.127c-.0712-.04042-.1386-.08906-.211-.12724A.991.991,0,0,0,3.179,2.91821a.14855.14855,0,0,1-.10427-.05812.25525.25525,0,0,0-.0848-.08629.08457.08457,0,0,0-.12573.04713c-.002.00995.013.01254.01666.00386.0198-.04733.07268-.01734.093.01029a.42062.42062,0,0,1,.02341.03666c.00328.01646.00884.03282.01279.04837q.01075.04232.01928.08523a.61189.61189,0,0,1,.01163.08591.737.737,0,0,0,.0017.09734c.00166.00869.0149.01355.02.00468a.398.398,0,0,0,.0271-.19356l-.00153-.03132a.70828.70828,0,0,0,.14383.03862.67.67,0,0,1,.21275.085.30161.30161,0,0,0,.19273.0802A.02533.02533,0,0,0,3.64813,3.127Z" /><path d="M4.2044,3.20293c-.02851-.04235-.07529-.0398-.116-.06279-.043-.02427-.076-.06261-.12074-.08459a.29394.29394,0,0,0-.27248.02352c-.0136.008-.00479.03018.0102.023a.25273.25273,0,0,1,.25131.03084c.03355.02316.0621.053.09782.07305a.19238.19238,0,0,0,.05617.02123.24113.24113,0,0,1,.0606.01124A.02465.02465,0,0,0,4.2044,3.20293Z" /><path d="M4.981,4.82708c-.04568-.08213-.083-.17119-.12061-.25738a1.35343,1.35343,0,0,1-.085-.27484,2.84175,2.84175,0,0,1-.04209-.31651c-.00465-.05375-.0101-.10743-.01587-.16107-.00355-.033-.00867-.0658-.01321-.09864a.31656.31656,0,0,0,.01953-.05692.42374.42374,0,0,0-.0191-.2605A.35542.35542,0,0,0,4.55585,3.232a.34975.34975,0,0,0-.10277-.04018.3851.3851,0,0,0-.11068.00165c-.01443.00109-.01331.02374.00071.025a.35821.35821,0,0,1,.16325.075.35.35,0,0,1,.1101.13619.34044.34044,0,0,1,.01759.19651.31469.31469,0,0,1-.07677.14145c-.018.02117.00574.04922.02918.047a.12394.12394,0,0,0,.06743-.02763L4.651,3.81917c-.004.05834-.00562.11667-.004.17514a1.89233,1.89233,0,0,0,.037.33289,1.45848,1.45848,0,0,0,.08969.2873.65011.65011,0,0,0,.17918.23559C4.96672,4.86208,4.98986,4.843,4.981,4.82708Z" /><path d="M4.446,3.79691a.01722.01722,0,0,0-.034.001.29612.29612,0,0,1-.21728.21761A.4143.4143,0,0,1,3.85984,3.912c-.01174-.01089-.02518.00777-.0178.01908a.3824.3824,0,0,0,.16342.15269.34545.34545,0,0,0,.2225.01891A.27887.27887,0,0,0,4.446,3.79691Z" /><path d="M4.33571,3.51769A.33124.33124,0,0,0,4.16,3.45149a.40069.40069,0,0,0-.09047.00222.76986.76986,0,0,0-.09535.03c-.01768.00466-.01418.032.00452.02863a.31962.31962,0,0,1,.08691.00561.66831.66831,0,0,1,.08058.013,1.46629,1.46629,0,0,1,.15576.05066A.03661.03661,0,0,0,4.33571,3.51769Z" /><path d="M2.64837,3.2345a.15671.15671,0,0,0-.026-.04537.15656.15656,0,0,0,.01071-.07745.57051.57051,0,0,0-.026-.15784.01081.01081,0,0,0-.01983.0006.63015.63015,0,0,0-.01607.15342.219.219,0,0,1-.00416.03342.516.516,0,0,0-.11132-.04954.0128.0128,0,0,0-.00892.024.341.341,0,0,1,.08638.07142l.00366.00414-.02576.02493A.25624.25624,0,0,0,2.42,3.44192c.00472.02356.04263.02482.04374-.00125A.21431.21431,0,0,1,2.507,3.304a.45617.45617,0,0,1,.07189-.05986l.01916.02132A.03.03,0,0,0,2.64837,3.2345Z" /><path d="M2.84911,5.071a.46641.46641,0,0,1-.23089-.32913c-.00979-.05633-.00543-.11366-.0127-.17021a1.33851,1.33851,0,0,0-.12542-.32375,1.30864,1.30864,0,0,1-.09567-.51464c.00068-.02957.00245-.05914.006-.08851a.96717.96717,0,0,0,.01487-.09843.01806.01806,0,0,0-.03242-.01212.41013.41013,0,0,0-.06389.15765.69519.69519,0,0,0-.02253.17462,1.1356,1.1356,0,0,0,.06937.3636,1.567,1.567,0,0,0,.0709.168.68271.68271,0,0,1,.067.172c.011.06077.00481.12309.01494.184a.43027.43027,0,0,0,.05549.14921.4592.4592,0,0,0,.262.211C2.85131,5.12117,2.87465,5.08684,2.84911,5.071Z" /><path d="M2.928,3.37945c-.04039.01883-.07028.05357-.11023.07352a.171.171,0,0,1-.06319.01775c-.01191.001-.03209.00177-.04069-.00812-.00408-.0047-.00433-.01632-.00773-.02223a.015.015,0,0,0-.01552-.00845c-.027.00517-.03092.036-.02252.05881a.09941.09941,0,0,0,.08858.05416.24192.24192,0,0,0,.20818-.12038C2.9779,3.40029,2.95768,3.36562,2.928,3.37945Z" /><path d="M3.112,4.7009c-.02816-.26281-.09067-.5203-.10605-.78473A1.76392,1.76392,0,0,1,3.02726,3.488c.00385-.02-.02464-.02333-.03239-.00751A.88661.88661,0,0,0,2.90439,3.83a1.91662,1.91662,0,0,0,.02382.37625A4.72312,4.72312,0,0,1,3.02267,4.97a.57851.57851,0,0,1-.02244.16271,1.11226,1.11226,0,0,1-.07755.14646c-.01108.02312.01658.0411.03647.03432.09324-.03177.13241-.16538.14922-.25109A1.21858,1.21858,0,0,0,3.112,4.7009Z" /><path d="M2.93638,4.65249c-.0203-.10487-.0566-.20615-.08124-.31a1.42651,1.42651,0,0,1-.03674-.32768c-.00009-.05627.00374-.11245.00714-.16859a.90752.90752,0,0,0,.00571-.16043.02133.02133,0,0,0-.03809-.00891.41522.41522,0,0,0-.05558.14893.90011.90011,0,0,0-.02079.16583A1.32019,1.32019,0,0,0,2.747,4.3268a2.81815,2.81815,0,0,0,.098.31371.72124.72124,0,0,1,.06551.32184c-.00235.01633.0231.01882.02545.00255A.90779.90779,0,0,0,2.93638,4.65249Z" /><path d="M2.61521,3.89771c-.00291-.05785-.005-.11579-.00836-.1736-.00179-.03086-.00289-.06176-.00542-.09257-.0025-.03049-.01068-.06054-.01238-.0908-.00077-.01369-.024-.01633-.02717-.00272-.0065.02778-.01837.054-.02436.08218-.00654.03075-.01047.06179-.014.093a1.34841,1.34841,0,0,0-.00706.18732,1.14094,1.14094,0,0,0,.05931.36366.02793.02793,0,0,0,.053-.00847C2.63185,4.136,2.62122,4.01715,2.61521,3.89771Z" /><path d="M2.8527,2.92681a.296.296,0,0,0-.02979-.03966A.12364.12364,0,0,0,2.784,2.85434a.02308.02308,0,0,0-.03049.025.11986.11986,0,0,0,.0188.04535.33549.33549,0,0,0,.02988.04352.03266.03266,0,1,0,.05055-.04136Z" /><path d="M3.57424,3.23222a.25092.25092,0,0,0-.12608.05032c-.00844.00688-.00507.02452.00733.02429a.65306.65306,0,0,0,.12759-.01869A.02832.02832,0,0,0,3.57424,3.23222Z" /><path d="M1.83792,5.22534a.41432.41432,0,0,0-.07863.00212.86283.86283,0,0,0-.0036-.15565c-.00136-.01618-.025-.014-.02723.00078a.62237.62237,0,0,1-.045.165.96874.96874,0,0,1-.088.14172c-.05107.07549-.13531.20076-.08139.294a.02892.02892,0,0,0,.05277-.0016c.02223-.04713.03262-.09843.05673-.14529.02532-.04924.05769-.09434.0841-.143a.45842.45842,0,0,0,.04418-.11053c.03794.00681.08-.00673.11482.012a.01862.01862,0,0,0,.02875-.0131C1.90238,5.23824,1.86426,5.22584,1.83792,5.22534Z" /><path d="M1.78106,5.78626a.27014.27014,0,0,1-.06057-.08233c-.015-.02918-.04262-.068-.03751-.10177.00261-.01727-.02435-.0199-.027-.0027a.61307.61307,0,0,0-.02221.09868.20681.20681,0,0,0,.03866.11369.34341.34341,0,0,0,.091.08466.68494.68494,0,0,1,.097.0819A.02616.02616,0,0,0,1.90473,5.971C1.93626,5.88306,1.83444,5.83236,1.78106,5.78626Z" /><path d="M2.14675,5.28758a.52736.52736,0,0,0-.10752.0209.3972.3972,0,0,0-.04557.01379l-.00914.00424A.70507.70507,0,0,0,2.01007,5.228c.0031-.01388-.02028-.01932-.02434-.00565a.69361.69361,0,0,1-.11394.19488c-.01321.01811.012.04258.02923.02726a.30792.30792,0,0,0,.0654-.0795c.01349.00049.02731.003.0406.0025a.48888.48888,0,0,0,.05448-.00589A.54075.54075,0,0,0,2.16221,5.34C2.19391,5.3286,2.17549,5.28625,2.14675,5.28758Z" /><path d="M2.25807,5.37484a.01385.01385,0,0,0-.02377-.00238.30227.30227,0,0,0-.03051.06336A.249.249,0,0,0,2.184,5.506a.02229.02229,0,0,0,.03592.01927A.1504.1504,0,0,0,2.25807,5.37484Z" /></svg>