<svg xmlns="http://www.w3.org/2000/svg" data-name="Layer 1" viewBox="2.331743981607587 2.558314320068217 5.33659733295573 4.88368836032933" x="0px" y="0px"><title>KAMASUTRA</title><path d="M4.447,4.45289c-.01577-.277-.1157-.54038-.15731-.81346A1.764,1.764,0,0,1,4.26889,3.411c-.0014-.067-.00829-.17158.04623-.22059.0119-.0107-.00383-.03007-.0158-.01931a.378.378,0,0,0-.101.30746,1.85368,1.85368,0,0,0,.05565.39457c.02979.1328.06492.26448.08928.39845.01209.06648.02287.13339.02862.20075a.44155.44155,0,0,1-.01175.18864c-.015.04067-.06238.06172-.09852.08031-.03483.01792-.07055.03457-.10611.051a.72869.72869,0,0,0-.21.10891.0286.0286,0,0,0,.02236.04991.42724.42724,0,0,0,.189-.082q.08791-.05486.17145-.116a.27174.27174,0,0,0,.10684-.11849A.477.477,0,0,0,4.447,4.45289Z" /><path d="M4.81466,4.65951A.038.038,0,0,0,4.74932,4.653c-.01088.02-.0126.04236-.02327.06212a.13364.13364,0,0,1-.05233.04843.38984.38984,0,0,1-.17261.032.56292.56292,0,0,0-.17048.03087,1.10147,1.10147,0,0,0-.16218.09437.00857.00857,0,0,0,.00694.01567,1.0952,1.0952,0,0,1,.21082-.05172c.07236-.01139.146-.00025.21847-.01a.2815.2815,0,0,0,.15817-.06959C4.7998,4.77,4.83856,4.71133,4.81466,4.65951Z" /><path d="M5.50894,4.45082c-.02561-.00386-.051.003-.07685.00171a.4395.4395,0,0,1-.07216-.01162.51842.51842,0,0,1-.14276-.05044,1.056,1.056,0,0,1-.2484-.23759c-.0773-.08813-.14955-.18006-.22-.27371-.03354-.04459-.06563-.09061-.10218-.13281-.03982-.046-.08251-.08887-.11868-.138a.01645.01645,0,0,0-.02766.017c.02863.05875.04982.12134.08067.179.0164.03062.03492.06029.05439.08931a.94281.94281,0,0,0-.01828.18011c-.00421.07323-.00846.14646-.01223.21972a.44283.44283,0,0,0,.01271.18691.1823.1823,0,0,0,.10645.09937c.01392.00665.02552-.01556.01262-.02389-.04433-.02864-.05245-.10621-.05387-.15322-.00175-.058.00412-.11645.00688-.17434.00285-.05973.00535-.11948.00816-.17921l.003-.0633c.07123.09657.1474.18976.22732.27921a.83939.83939,0,0,0,.27565.2356.37182.37182,0,0,0,.16577.03025.292.292,0,0,0,.15136-.04052A.02261.02261,0,0,0,5.50894,4.45082Z" /><path d="M5.41444,3.66184a.0187.0187,0,0,0-.0305-.02159.60829.60829,0,0,0-.08605.11818c-.02369-.02307-.05017-.044-.07425-.06536-.03994-.03534-.07916-.07146-.11841-.10755-.0714-.06564-.13889-.13524-.20951-.20166a1.075,1.075,0,0,0-.20492-.15955.5848.5848,0,0,0-.23512-.07047c-.01308-.00127-.019.01992-.00538.02322a.97428.97428,0,0,1,.4116.294c.06537.06479.13054.12962.198.19228.03706.03443.07521.0677.1136.10062a.75343.75343,0,0,0,.09521.07423.54287.54287,0,0,0-.01373.10936.81665.81665,0,0,0,.0152.172c.0058.03207.01194.0641.0174.09624a.1883.1883,0,0,0,.02568.08488.02782.02782,0,0,0,.0473-.00787.4049.4049,0,0,0-.00947-.16186,1.23718,1.23718,0,0,1-.01416-.16085.65989.65989,0,0,1,.02383-.15177A.65546.65546,0,0,1,5.41444,3.66184Z" /><path d="M5.47669,4.21492a.41945.41945,0,0,1-.0521-.18805c-.00153-.01892-.03154-.01767-.03294.00094a.46777.46777,0,0,0,.01012.20228.398.398,0,0,0,.04741.08451c.01883.028.03359.05979.06718.07076a.0307.0307,0,0,0,.04084-.02547C5.55883,4.30559,5.5037,4.25914,5.47669,4.21492Z" /><path d="M6.25645,3.33557c-.12148.0301-.25531.06054-.292.19937a.18753.18753,0,0,0-.00625.05192c-.06645.0337-.132.0677-.2.09723-.02438-.0199-.05218-.03706-.07708-.05629a.22323.22323,0,0,0-.07173-.04.31855.31855,0,0,0-.17174.01785c-.01006.00227-.01114.01933.00055.01927a.43483.43483,0,0,1,.16121.03113c.03532.01479.0692.03392.10386.05061-.01674.00644-.03361.01264-.05078.01832-.01081.00358-.00793.01835.00067.02225a.25777.25777,0,0,0,.21894-.016.47811.47811,0,0,0,.11437-.05988.12188.12188,0,0,0,.01831.01908.15287.15287,0,0,0,.17312.014c.01854-.01164.00846-.038-.00754-.04534-.0345-.01586-.08234-.00723-.11145-.03508-.03018-.02888-.01253-.08232.00672-.11222a.408.408,0,0,1,.20136-.14024C6.28671,3.36387,6.27744,3.33037,6.25645,3.33557Z" /><path d="M6.03708,3.75113a.30044.30044,0,0,0-.16983.03871.29064.29064,0,0,0-.13481.1321c-.01107.01965-.02138.03981-.03115.06028-.00728-.02519-.018-.04993-.02511-.07036-.00962-.0275-.02-.055-.03232-.08146-.01294-.02776-.04066-.0611-.03224-.09341.00559-.02147-.02652-.03414-.03286-.01222a.27606.27606,0,0,0,.01684.17056c.0106.033.02128.066.03126.09913a.14462.14462,0,0,0,.037.075l-.01428.03873c-.011-.02173-.02441-.04248-.03336-.06544-.01214-.03112-.014-.07108-.04459-.09038a.01172.01172,0,0,0-.01818.00828.23717.23717,0,0,0,.06811.22359l.00262.00167-.01295.04454A.2521.2521,0,0,0,5.5887,4.1656c-.0233-.04923-.08043-.11251-.07191-.17016C5.52012,3.97292,5.48585,3.97,5.4819,3.992a.25348.25348,0,0,0,.01719.16035c.01094.0255.024.04971.03313.076a.22046.22046,0,0,0,.02647.06659.02426.02426,0,0,0,.03465.003l-.01084.044c-.01615.06744-.02772.135-.037.20273-.01314.00739-.02542.0162-.03974.02377A.39357.39357,0,0,1,5.427,4.5998a.73642.73642,0,0,1-.16284.02268c-.05811.00264-.11626.00164-.17438.00347-.03219.001-.06429.00205-.0964.00451-.04088.00313-.08224.01627-.12286.01714-.01906.00041-.02308.02934-.003.03031.03738.00181.07454.01461.11177.01914.03749.00456.07512.00663.11281.0088a1.72644,1.72644,0,0,0,.19894.00138.72964.72964,0,0,0,.17874-.03081.5252.5252,0,0,0,.06251-.02358c-.00588.05329-.01112.10679-.01679.16059a1.39707,1.39707,0,0,1-.04428.23275.75443.75443,0,0,1-.07991.21232.00789.00789,0,0,0,.01286.00911.78953.78953,0,0,0,.11206-.1582.77174.77174,0,0,0,.05616-.19118c.03015-.149.04389-.30052.07247-.44973a2.487,2.487,0,0,1,.11931-.42073.72565.72565,0,0,1,.09288-.17193.19616.19616,0,0,1,.1769-.0935A.0157.0157,0,0,0,6.03708,3.75113Z" /><path d="M6.342,4.36909c-.00082-.021-.03082-.02012-.03773-.00377-.01505.0356-.04162.06464-.05663.1014a.35247.35247,0,0,1-.06212.1048.2652.2652,0,0,1-.09183.06647l-.0233.00845a1.454,1.454,0,0,0,.11874-.25109A.8797.8797,0,0,0,6.208,3.894a.01547.01547,0,0,0-.03055.00483A.99566.99566,0,0,1,6.1273,4.34a2.13519,2.13519,0,0,1-.20673.39666c-.07013.11445-.16067.21407-.2323.32731a.87406.87406,0,0,0-.11568.38934.46517.46517,0,0,1-.169.36189.02529.02529,0,0,0,.01982.04424.321.321,0,0,0,.21838-.25467A1.86122,1.86122,0,0,1,5.736,5.16749c.065-.127.16095-.236.23553-.3573.01887-.03067.03811-.06177.05716-.09327a.27144.27144,0,0,0,.20593-.08977.2658.2658,0,0,0,.06385-.12444.34647.34647,0,0,1,.02945-.08026A.097.097,0,0,0,6.342,4.36909Z" /><path d="M5.345,5.35208c-.0304.08609-.073.168-.1066.253-.02489.06291-.07026.152-.04522.21988a.03471.03471,0,0,0,.037.02013l.01987.00565a.01823.01823,0,0,0,.0282-.02307l-.01533-.02148c.00874-.03125.00839-.06677.01585-.0982.00828-.0349.01929-.06917.02952-.10352.02381-.08.039-.16264.06572-.2416A.01547.01547,0,0,0,5.345,5.35208Z" /><path d="M6.54341,3.82471a.08352.08352,0,0,0-.03375-.03613A.115.115,0,0,1,6.47079,3.737a.20225.20225,0,0,1,.0045-.15163c.00485-.00928-.00951-.01542-.01543-.00815a.294.294,0,0,0-.06076.08884.15484.15484,0,0,0-.00132.09689c.01394.04617.07406.13141.1312.09912A.02923.02923,0,0,0,6.54341,3.82471Z" /><path d="M6.82927,3.54847c-.0133-.00666-.02474.01516-.0122.02308.01081.00684.01289.04173.0156.054a.28829.28829,0,0,1,.009.083c-.00354.047-.02969.06447-.05915.09568-.01667.01766-.01386.05562.017.05621.0673.00128.10638-.07138.1098-.13157A.199.199,0,0,0,6.82927,3.54847Z" /><path d="M6.53552,3.97116a.68608.68608,0,0,0-.0423.08851c-.01106.03381-.00945.06964-.01838.10376-.018.069-.07892.11837-.09919.18586a.02556.02556,0,0,0,.0398.02845.44849.44849,0,0,0,.071-.09249.41153.41153,0,0,0,.05188-.081c.02838-.07143.00283-.15068.02361-.22328A.01409.01409,0,0,0,6.53552,3.97116Z" /><path d="M6.649,3.81583A.01072.01072,0,0,0,6.63064,3.814a.35132.35132,0,0,0-.047.1775.96.96,0,0,1-.021.20134.02478.02478,0,0,0,.04323.02284.296.296,0,0,0,.04026-.19633c-.0002-.03613-.001-.072.00232-.10806A.21705.21705,0,0,0,6.649,3.81583Z" /><path d="M6.82855,4.34882A.17892.17892,0,0,0,6.748,4.38a.19821.19821,0,0,1-.09039.01864c-.01094-.01219-.02215-.02414-.03372-.03571.015-.027.03173-.05312.04613-.08032a.36389.36389,0,0,0,.0425-.13275A1.12087,1.12087,0,0,1,6.726,3.95848c.00422-.01471-.018-.02329-.02252-.00838a1.43115,1.43115,0,0,1-.08875.32639.99727.99727,0,0,0-.0752.13666.43358.43358,0,0,0-.019.1514.58662.58662,0,0,0,.11.29864c.02794.04793.05506.09624.07919.14623.01232.02551.02431.051.034.07767.00945.02588.01347.05362.02462.07868a.0219.0219,0,0,0,.04012-.00122.40675.40675,0,0,0-.07293-.28474,1.64591,1.64591,0,0,1-.14275-.29687A.23626.23626,0,0,1,6.59668,4.42l.00468-.01144a.33831.33831,0,0,0,.10587.14641.02833.02833,0,0,0,.04194-.03432.32219.32219,0,0,0-.04769-.07038.15911.15911,0,0,0,.04733-.00415.14868.14868,0,0,0,.10173-.062A.02639.02639,0,0,0,6.82855,4.34882Z" /><path d="M6.96459,4.66683A.46633.46633,0,0,0,6.897,4.62675c-.01648-.00832-.035-.0172-.05072-.00249-.00773.00724-.008.02353.00444.0267.01209.00309.02615.02412.03521.03265.01244.0117.02509.02251.03846.03312a.45245.45245,0,0,1,.0539.06105.021.021,0,0,0,.033-.00114C7.03922,4.733,6.99811,4.69159,6.96459,4.66683Z" /><path d="M6.61625,5.40348a.95442.95442,0,0,1-.07414-.06233.29884.29884,0,0,1-.05434-.08522.9005.9005,0,0,1-.04835-.24924c-.0099-.08653-.01685-.17334-.02612-.25992-.00462-.04317-.00831-.08641-.01269-.1296-.005-.04948-.02188-.10065-.02285-.14989-.00022-.01112-.01748-.01318-.01751-.00175-.00012.05086-.01483.10175-.0163.15326s-.001.10294.00032.15431c.0025.10105.01273.20228.02438.30263.00406.035.00837.07064.015.10578a.23987.23987,0,0,0-.14508.03649l-.02466.01409.009-.02594c.00658-.02226-.02035-.04757-.04016-.02871-.04555.04338-.08475.09471-.12686.14149a1.21352,1.21352,0,0,1-.13452.126.95737.95737,0,0,0-.25683.24648c-.00505.00875.00557.02131.01408.01314a2.63787,2.63787,0,0,1,.30978-.21024A.74019.74019,0,0,0,6.1732,5.3099a.74715.74715,0,0,1,.07334-.03881.29118.29118,0,0,1,.07461-.021A.75856.75856,0,0,0,6.398,5.24422l.00051-.00017a.39194.39194,0,0,0,.0357.08492.1983.1983,0,0,0,.17233.11609A.02334.02334,0,0,0,6.61625,5.40348Z" /><path d="M6.23074,4.737a.31911.31911,0,0,0-.19612.09954c-.01883.016.004.04263.02395.02927a1.24034,1.24034,0,0,1,.18173-.069C6.26677,4.78428,6.26358,4.73762,6.23074,4.737Z" /><path d="M7.28759,5.246c-.1149-.02254-.16951-.15617-.18128-.26006-.00744-.0657-.0037-.13175-.01009-.1974A1.59087,1.59087,0,0,0,7.059,4.59576a2.12441,2.12441,0,0,1-.06055-.40111.57449.57449,0,0,0-.07666-.34643.02345.02345,0,0,0-.041.01837l.01011.0478a.24073.24073,0,0,0-.06684.03967.39651.39651,0,0,0-.07459.09146c-.00585.00834.00549.01969.01342.01251a.34084.34084,0,0,1,.093-.05215c.01493-.00664.03281-.0116.04977-.01787.01772.09106.0329.18224.04323.27531l.003.02693a.12117.12117,0,0,0-.04063-.03971.06259.06259,0,0,0-.06077-.00313.06616.06616,0,0,0-.03031.04326c-.00229.00618.00728.01181.01059.0056.01774-.0333.067.01823.07589.03269a.20513.20513,0,0,0,.05906.07916c.0034.02672.007.05342.01112.08.011.07036.02922.13939.0439.209.01049.04973.02132.1.029.15054a.83935.83935,0,0,0-.05125.16132.95494.95494,0,0,1-.0718.16366.62626.62626,0,0,1-.21969.23845c-.02023.01085-.0062.04346.01457.03291A.59275.59275,0,0,0,6.873,5.34913a.63632.63632,0,0,0,.1061-.13125.75094.75094,0,0,0,.07608-.17171l.0125-.04189a.91421.91421,0,0,0,.01723.09683.24295.24295,0,0,0,.197.20168C7.31854,5.30884,7.32317,5.25294,7.28759,5.246Z" /><path d="M7.64663,5.18375c-.0758-.00968-.11443-.08021-.18245-.107A.15347.15347,0,0,0,7.38,5.07025c-.04908.00842-.09584.02346-.10541-.04081-.02394-.16066.031-.32189.01183-.48316-.00945-.07963-.03485-.15656-.048-.23559q-.00834-.04995-.0133-.10061a.42271.42271,0,0,1,.04425.04592.35311.35311,0,0,1,.07432.25335.78.78,0,0,0-.02159.13116.01286.01286,0,0,0,.02059.00785.19743.19743,0,0,0,.0621-.1329A.39755.39755,0,0,0,7.4,4.34857.33887.33887,0,0,0,7.223,4.10809L7.21829,4.107l-.001-.05133c-.00025-.08209.00266-.1641-.00059-.24618a.99327.99327,0,0,0-.02207-.23158.219.219,0,0,0-.13643-.14223.3399.3399,0,0,0-.08552-.01942c.00113-.02588-.00262-.053.00084-.0784a.25128.25128,0,0,1,.04842-.12136A.01118.01118,0,0,0,7.02146,3.202l.017-.027c.0012.04284-.00323.086-.00332.13069,0,.02.02783.0362.04049.01514a.32057.32057,0,0,0-.05224-.3479.803.803,0,0,0-.15694-.11723c-.04928-.03254-.12814-.094-.09012-.16286a.01709.01709,0,0,0-.02787-.01973.14922.14922,0,0,0-.02164.146.268.268,0,0,0,.12591.12844c.05928.03494.12784.04631.16038.10985a1.28971,1.28971,0,0,1-.06855.14407.44694.44694,0,0,1-.136.11585c-.01114.00719-.0013.02323.00985.022a.24057.24057,0,0,0,.10274-.04l-.00757.01828a.21657.21657,0,0,0-.01366.09919c-.02434.00021-.04793-.00251-.05434-.016a.013.013,0,0,0-.0247.00395c-.00308.05625.0605.06862.1043.07283a.23152.23152,0,0,1,.189.0864.52418.52418,0,0,1,.0554.245c.0035.0937.001.18812-.002.28182a1.25872,1.25872,0,0,0,.01114.25355,1.9461,1.9461,0,0,1,.04763.25788c.00329.08986-.01257.17894-.01613.26852A.40826.40826,0,0,0,7.239,5.09c.04716.07395.14077.02731.20549.06053.06631.034.12543.12127.2097.0803A.02485.02485,0,0,0,7.64663,5.18375Z" /><path d="M7.45529,5.21421c-.0783-.01432-.1575-.07273-.23439-.03168a.00887.00887,0,0,0,.00269.0168c.08343.00819.15736.106.2429.052C7.48341,5.24063,7.471,5.21708,7.45529,5.21421Z" /><path d="M7.32932,3.43995c-.00722-.09179.011-.18358.008-.27555a.9265.9265,0,0,0-.0462-.25792A.537.537,0,0,0,7.182,2.69857a.4416.4416,0,0,0-.16753-.1099c-.11877-.04418-.31009-.05563-.37986.0743a.74238.74238,0,0,0-.0617.22735.48735.48735,0,0,1-.08873.24905c-.00918.00976.00382.02632.01347.01646a.42185.42185,0,0,0,.05581-.06A.44139.44139,0,0,0,6.58928,3.029a.38973.38973,0,0,0,.00658.22673.57954.57954,0,0,0-.05678-.03322.21214.21214,0,0,0-.10471-.0347.18055.18055,0,0,0-.134.1102c-.00341.00922.0069.02074.01643.01547.05037-.02784.07612-.071.14072-.048.04087.01454.077.03788.11766.05122l-.005.00571a.1665.1665,0,0,1-.07319.04946c-.01637.00377-.0127.0291.00411.026a.28629.28629,0,0,0,.1022-.02925.16342.16342,0,0,0,.0392-.03043l.01.01a.13466.13466,0,0,0,.0986.01822.017.017,0,0,0,.0071-.03038A.14617.14617,0,0,0,6.712,3.31366a.08918.08918,0,0,1-.0258-.00725.22031.22031,0,0,1-.04689-.08371.63874.63874,0,0,1-.03213-.22639L6.60453,2.991l.00629-.01836A.113.113,0,0,0,6.642,3.013a.09644.09644,0,0,0,.05577.0196.02352.02352,0,0,0,.00468-.04678.21086.21086,0,0,1-.04069-.01022.09235.09235,0,0,1-.0385-.02193l-.00538-.0038.01224-.04438a.1878.1878,0,0,1,.02786.00911.33873.33873,0,0,1,.04466.02951.02093.02093,0,0,0,.031-.02533.0954.0954,0,0,0-.06-.04608.09829.09829,0,0,0-.03393-.00407L6.648,2.83642c.01566-.05884.03022-.145.08458-.18073a.28262.28262,0,0,1,.19536-.02282.36667.36667,0,0,1,.28933.26682,1.05139,1.05139,0,0,1,.04044.23553c.00552.08151-.00186.16192-.00173.24335a1.798,1.798,0,0,0,.03259.26784.64326.64326,0,0,1,.01316.12876.36831.36831,0,0,1-.03357.12821c-.0075.017.01685.02782.02752.01454C7.40546,3.78133,7.34152,3.59509,7.32932,3.43995Z" /><path d="M6.08336,4.03025a.16853.16853,0,0,0-.05715.04407.099.099,0,0,0-.03339.0538.01993.01993,0,0,0,.01755.02145A.10091.10091,0,0,0,6.07,4.12388a.1623.1623,0,0,0,.05015-.0486A.03043.03043,0,0,0,6.08336,4.03025Z" /><path d="M4.39441,3.326a.02053.02053,0,0,0-.02855-.00285l-.02271.02174a.0214.0214,0,0,0-.003.02952.02118.02118,0,0,0,.02952.003l.02184-.02281a.0222.0222,0,0,0,.00734-.01368A.02061.02061,0,0,0,4.39441,3.326Z" /><path d="M3.914,5.00472a1.25185,1.25185,0,0,0-.18373.10893c-.06158.03661-.12492.06986-.18805.10367a3.24978,3.24978,0,0,1-.38174.17957.603.603,0,0,1-.40295.02432,1.355,1.355,0,0,1-.1811-.07949c-.02976-.01455-.05909-.02973-.0886-.04477A.86758.86758,0,0,1,2.38936,5.25a.00858.00858,0,0,0-.0099.014c.0308.02348.05323.05659.08256.08191.02534.02188.05168.04361.07891.06311a.74285.74285,0,0,0,.18566.09553.59877.59877,0,0,0,.42429-.01686,3.489,3.489,0,0,0,.41619-.19543c.06574-.03594.129-.07677.19174-.11766a.80429.80429,0,0,0,.18227-.13686C3.95608,5.01982,3.93283,4.99767,3.914,5.00472Z" /><path d="M3.0323,5.81262A.0323.0323,0,0,0,2.99569,5.786c-.02631.00544-.04416.02754-.07192.029a.12647.12647,0,0,1-.08687-.04363.70426.70426,0,0,0-.16663-.14583.72316.72316,0,0,1-.17968-.11387.55379.55379,0,0,1-.13342-.174c-.00585-.01322-.02882-.00743-.025.00739a.49941.49941,0,0,0,.108.2228.50811.50811,0,0,0,.09588.0819c.03988.026.085.042.12515.06721.07557.04755.1133.1384.20018.17173C2.918,5.91045,3.04322,5.89827,3.0323,5.81262Z" /><path d="M5.26509,4.9701a.55555.55555,0,0,1-.06288.06c-.01734.01715-.03289.03647-.04863.05506-.03242.03828-.06326.07805-.092.11919l-.0087.01259a.03641.03641,0,0,0-.033-.01549c-.07221.00407-.1447.02272-.21669.03141a1.51809,1.51809,0,0,1-.21456.00966.70245.70245,0,0,0-.39219.06839,2.82194,2.82194,0,0,1-.33664.19789,1.59306,1.59306,0,0,1-.3863.10243c-.071.01032-.14341.01391-.21388.027a.45052.45052,0,0,0-.10315.02854.65813.65813,0,0,0-.08421.05718c-.01345.00862.00109.03257.01486.02417A.235.235,0,0,1,3.18133,5.727c.03321-.00366.06638-.00719.09979-.00847.06407-.00246.12835-.00878.19192-.01706a1.781,1.781,0,0,0,.37891-.08622,1.26638,1.26638,0,0,0,.33191-.19085.43215.43215,0,0,1,.17644-.08811.8889.8889,0,0,1,.2117-.00492A1.49561,1.49561,0,0,0,4.80984,5.325.75723.75723,0,0,0,5.00958,5.281c-.03983.06016-.07772.12139-.113.18465-.049.0878-.1.17425-.15109.26083-.02684.04546-.05318.0912-.07942.137a.826.826,0,0,0-.07134.13424.03539.03539,0,0,0,.06177.03264A.97251.97251,0,0,0,4.73278,5.901q.03728-.06532.07573-.13c.05257-.08865.108-.17481.16776-.25872.05825-.08174.11375-.165.169-.24875.02764-.04194.05388-.0849.0788-.12852.012-.02108.025-.042.03549-.064a.50225.50225,0,0,1,.0368-.07886A.01915.01915,0,0,0,5.26509,4.9701Z" /><path d="M4.09675,5.02455a.38546.38546,0,0,0-.08307.04041c-.03685.01771-.01117.07586.02573.05813a.39093.39093,0,0,0,.08387-.03931A.03387.03387,0,0,0,4.09675,5.02455Z" /><path d="M4.566,6.06809a1.51571,1.51571,0,0,0-.16474.26658c-.05017.093-.10533.18389-.14976.27983-.04251.09178-.07829.18659-.1208.27827a.16829.16829,0,0,1-.08128.08971c-.04179.01831-.08854.023-.13048.04181-.0343.0154-.0111.06319.02312.05224a.30557.30557,0,0,1,.07789-.0107.06825.06825,0,0,1,.01386.033c.00327.02645-.00971.05561.00885.07787a.02843.02843,0,0,0,.03922.00392.04267.04267,0,0,0,.01471-.02108l.00458.00682.00117.00073.00131.00384c-.00149-.00427.00114.00646.00125.00761a.22209.22209,0,0,0,.002.03205.03581.03581,0,0,0,.06834.00684.08986.08986,0,0,0-.03384-.10984.06147.06147,0,0,0-.04252-.00307.1073.1073,0,0,0-.016-.04593l.00835-.00219a.1777.1777,0,0,0,.0984-.07642,1.91425,1.91425,0,0,0,.12695-.28254c.04417-.10054.08313-.2039.13072-.30286a3.11431,3.11431,0,0,0,.14738-.31127A.01646.01646,0,0,0,4.566,6.06809Z" /><path d="M4.23647,7.3294a.15612.15612,0,0,1-.105.02295.5982.5982,0,0,1-.11458-.07024c-.0358-.01909-.07406-.032-.11108-.04838-.02609-.01153-.035-.01425-.03987-.04266a.4902.4902,0,0,1-.01184-.08085.021.021,0,0,0-.04174-.00417c-.00767.05561-.04375.12243.00139.17095.04239.04556.11836.05545.17037.08676.05289.03184.09607.07675.16181.0779a.13694.13694,0,0,0,.1314-.07385A.03073.03073,0,0,0,4.23647,7.3294Z" /><path d="M4.24831,7.2132a.02958.02958,0,0,0-.038-.01466.09947.09947,0,0,0-.028.01437.01472.01472,0,0,0,.0008.02313l.00808.00567-.00017.00142a.05488.05488,0,0,0,.002.03067.02982.02982,0,0,0,.04572.0109A.06234.06234,0,0,0,4.24831,7.2132Z" /><path d="M5.29638,5.89626a.40567.40567,0,0,0-.25763.1561,2.17084,2.17084,0,0,0-.17516.31974,2.50781,2.50781,0,0,1-.23136.29831c-.04345.05074-.0867.10156-.12916.15313a.871.871,0,0,0-.11522.15092.73562.73562,0,0,0-.04245.17677c-.01352.05962-.06185.10378-.06938.1645-.0021.01694.02046.0198.02721.00631.0164-.03276.04961-.05183.07285-.07923a.27848.27848,0,0,0,.04633-.08691.887.887,0,0,1,.07093-.19216,1.59337,1.59337,0,0,1,.15177-.17661c.05215-.05941.10494-.11834.15563-.179a1.55284,1.55284,0,0,0,.23517-.37685.57375.57375,0,0,1,.10715-.17753,1.00436,1.00436,0,0,1,.16818-.10819A.02812.02812,0,0,0,5.29638,5.89626Z" /><path d="M4.975,5.9566a.19217.19217,0,0,0-.07736.05406.88872.88872,0,0,0-.07348.0569.02271.02271,0,0,0,.012.03961A.16638.16638,0,0,0,4.93972,6.079c.03332-.01956.07-.044.07428-.08564A.03412.03412,0,0,0,4.975,5.9566Z" /><path d="M7.19562,2.99876a.4052.4052,0,0,0-.11279-.16208.64318.64318,0,0,1-.16-.14912.01409.01409,0,0,0-.02576.0114.33626.33626,0,0,0,.10208.14167.40282.40282,0,0,1,.123.1697A.83028.83028,0,0,1,7.15532,3.22c.00534.08.01021.16.01759.23986a.03075.03075,0,0,0,.06073-.00173A1.20545,1.20545,0,0,0,7.19562,2.99876Z" /><path d="M6.91668,3.04041a.17244.17244,0,0,1-.07081-.01662c-.01223-.00636-.0246.00959-.01953.02075a.06386.06386,0,0,0,.01466.02421.10712.10712,0,0,0,.02105.01492.08164.08164,0,0,0,.05616.01017A.02707.02707,0,0,0,6.91668,3.04041Z" /><path d="M6.77175,3.19838a.28777.28777,0,0,0-.03886-.0077.08109.08109,0,0,1-.03138-.009c-.01373-.00807-.0363.005-.02685.022a.078.078,0,0,0,.09857.04383A.02678.02678,0,0,0,6.77175,3.19838Z" /></svg>