<svg xmlns="http://www.w3.org/2000/svg" data-name="Layer 1" viewBox="1.9977555958040007 3.6939198779501194 6.004754374026814 2.6119637944354612" x="0px" y="0px"><title>KAMASUTRA</title><path d="M2.60456,5.13072a.36916.36916,0,0,1-.12635-.14983c-.00336-.01044-.01862-.0047-.01761.00519a.30349.30349,0,0,0,.05267.14665.26042.26042,0,0,0,.03383.037.34512.34512,0,0,0-.04523.00228c-.04877.005-.09754.01112-.14575.02-.09122.01687-.17238.05981-.26269.07736a.0093.0093,0,0,0,.00052.01836.7269.7269,0,0,0,.25757-.02025c.0451-.01078.09031-.02122.13607-.02882a.31459.31459,0,0,0,.10284-.02476.11812.11812,0,0,0,.03121.02789.02055.02055,0,0,0,.02764-.00473C2.68257,5.1969,2.63312,5.15479,2.60456,5.13072Z" /><path d="M4.86627,5.00591a.66233.66233,0,0,1-.07263.03921.373.373,0,0,1-.09447.01811c-.078.00729-.15582.005-.234.00583-.0705.00075-.14128.00045-.21162.00593a1.41627,1.41627,0,0,0-.22082.04111,2.05792,2.05792,0,0,1-.45552.0704c-.15089.00233-.30183-.00889-.4526-.0068a1.60026,1.60026,0,0,0-.25359.02086,1.25126,1.25126,0,0,0-.23731.08126c-.00918.00359-.004.01584.00455.01543.15763-.00771.31283-.03754.4708-.04105.15642-.00348.31263.00278.46907.00036a2.09243,2.09243,0,0,0,.46052-.05346,2.16475,2.16475,0,0,1,.2204-.04375c.0772-.0102.15494-.00693.23252-.01053.08264-.00383.16776-.00743.24965-.01947A.201.201,0,0,0,4.904,5.04141C4.91459,5.01989,4.88682,4.99526,4.86627,5.00591Z" /><path d="M2.56536,5.00214a.59762.59762,0,0,1-.03184-.05879.00518.00518,0,0,0-.00948.00029.13245.13245,0,0,0,.02345.116A.02409.02409,0,0,0,2.57,5.06825l.00328-.00041a.0184.0184,0,0,0,.01441-.01179C2.59566,5.03413,2.57645,5.01914,2.56536,5.00214Z" /><path d="M2.65094,5.02623a.2228.2228,0,0,1-.04923-.09213.00863.00863,0,0,0-.0165-.00165.11558.11558,0,0,0-.00252.06606.0872.0872,0,0,0,.0405.05746A.02063.02063,0,0,0,2.65094,5.02623Z" /><path d="M5.31581,4.47492A.70984.70984,0,0,1,5.14,4.45609a.26718.26718,0,0,0-.16085.00465.30036.30036,0,0,0-.11326.11265c-.02776.04376-.04618.09921-.07844.14038a5.32158,5.32158,0,0,1-.76118.179,1.40071,1.40071,0,0,1-.24363.02937c-.07857.00018-.15663-.01145-.23522-.01172a1.43142,1.43142,0,0,0-.4578.08406.669.669,0,0,1-.13391.0365.42872.42872,0,0,1-.11265-.00282.25613.25613,0,0,1-.181-.11368c-.00591-.00913-.01827.00046-.01524.00937a.28194.28194,0,0,0,.2861.16042c.17085-.00627.32827-.07971.49777-.09662a1.59808,1.59808,0,0,1,.26663.00295,1.138,1.138,0,0,0,.24567-.01083c.17634-.02643.35163-.06445.525-.10571q.1353-.03219.26813-.0727a.49553.49553,0,0,0,.23123-.11955A.01716.01716,0,0,0,4.94961,4.653c-.03312.01378-.06661.02669-.10036.039a.33991.33991,0,0,0,.0454-.04981A.35234.35234,0,0,1,5.011,4.51671.24451.24451,0,0,1,5.17444,4.512a.22606.22606,0,0,0,.15043-.0064A.01623.01623,0,0,0,5.31581,4.47492Z" /><path d="M3.80622,5.65969c-.02512-.03721-.08758-.03782-.1283-.0463l-.16357-.034c-.1083-.02253-.21662-.04492-.32466-.06864a.72574.72574,0,0,0-.15283-.02337.51947.51947,0,0,0-.13624.02447c-.02308.00631-.04617.01318-.06932.0191a.177.177,0,0,1-.07153-.00062.17183.17183,0,0,1-.122-.06571c-.00573-.01021-.022-.00353-.01693.0075a.17214.17214,0,0,0,.16847.10593c.05111-.00138.10019-.00148.15125-.00744a.74782.74782,0,0,1,.17366-.00449,3.48907,3.48907,0,0,1,.34419.07182l.17966.04009c.045.01.11751.04252.15982.01668A.02311.02311,0,0,0,3.80622,5.65969Z" /><path d="M2.38165,5.0108a.37163.37163,0,0,0-.31966.02827.19747.19747,0,0,0-.06263.11772c-.0047.03186-.0008.08536.03534.09659a.0092.0092,0,0,0,.01161-.00531c.0107-.03-.01026-.06066,0-.09322a.1489.1489,0,0,1,.09418-.07954,1.68828,1.68828,0,0,1,.24184-.04022A.0123.0123,0,0,0,2.38165,5.0108Z" /><path d="M2.593,5.42241c-.05.0113-.10084.01429-.15069.02648a1.11381,1.11381,0,0,1-.15864.03.42641.42641,0,0,1-.16177-.006c-.04691-.01538-.06422-.08639-.08029-.129a.01094.01094,0,0,0-.02075.00332.2373.2373,0,0,0,.03652.15664c.03527.04178.1098.04093.1596.04132a.83087.83087,0,0,0,.19021-.02226.83992.83992,0,0,0,.1919-.07982C2.60964,5.43784,2.60555,5.41957,2.593,5.42241Z" /><path d="M5.54359,3.73253c-.05858.01159-.11795.01554-.17566.032a.60392.60392,0,0,0-.1527.0716,1.3515,1.3515,0,0,0-.233.19358c-.3167-.07713-.63343-.15133-.9565-.19771a3.95619,3.95619,0,0,0-.48856-.04473A.36363.36363,0,0,0,3.34088,3.82c-.02649.01513-.04991.0352-.07616.05073-.03229.01911-.06589.03477-.099.05221-.06961.03667-.14212.06828-.2083.11122a.67754.67754,0,0,0-.18093.14615.00748.00748,0,0,0,.00906.01107c.062-.03015.11634-.07453.17906-.10449a1.33934,1.33934,0,0,1,.19376-.07568A.41365.41365,0,0,0,3.329,3.92269c.01978-.01854.037-.05081.06394-.05853A.37962.37962,0,0,1,3.50425,3.87a6.21756,6.21756,0,0,1,.93241.1241q.24186.04969.48309.10361c-.02412.03125-.04506.06532-.06748.09757a1.00565,1.00565,0,0,0-.0811.14712,1.39917,1.39917,0,0,0-.068.17749c-.01068.034-.01966.06859-.0301.1027a.23875.23875,0,0,0-.017.08652c.0015.02589.03464.02677.04821.01127a.5386.5386,0,0,0,.06884-.15695c.02127-.05456.038-.11092.05578-.16668a.56649.56649,0,0,1,.072-.15A.89961.89961,0,0,1,5.0133,4.1284c.07334-.075.15527-.14078.23212-.212A.67922.67922,0,0,1,5.546,3.74764C5.55539,3.74528,5.55337,3.7306,5.54359,3.73253Z" /><path d="M6.01312,4.08848c-.09955-.0556-.23191-.00409-.3405-.01831-.04547-.006-.08908-.02317-.13416-.03159a.198.198,0,0,0,.03566-.05113c.00758-.016-.01147-.02876-.02538-.02389a.65123.65123,0,0,0-.10079.05534.87286.87286,0,0,1-.089.04434,1.33917,1.33917,0,0,0-.17472.0846c-.03843.02349-.10055.06614-.08677.11916a.27716.27716,0,0,0,.11727.13484c.00824.00662.02025-.006.01283-.01375a.385.385,0,0,1-.04835-.07694.25978.25978,0,0,1-.02043-.0361c-.00787-.02076-.00735-.02385.00534-.04006A.22823.22823,0,0,1,5.275,4.16972a.441.441,0,0,0,.05527.01274c.02579.00615.05084.01484.07653.02142a.26512.26512,0,0,0,.13583.0006c.0521-.01358.1-.03886.15233-.05266l.04073-.0101c.03507-.00085.06987-.00524.105-.00868.05462-.00536.10891-.00132.16336-.00587A.02163.02163,0,0,0,6.01312,4.08848Zm-.48128.04746a.36474.36474,0,0,1-.15165-.00141L5.379,4.13435a.59892.59892,0,0,0,.0949-.04505.39351.39351,0,0,1,.07781.01649l.04154.01322C5.57279,4.125,5.55232,4.13079,5.53184,4.13594Z" /><path d="M6.483,3.80014a.34722.34722,0,0,0-.202-.10106c-.09141-.00834-.18525-.00391-.277-.00453-.04741-.00032-.09487-.00083-.14222.002-.02188.0013-.0442.00206-.06595.00486-.0275.00354-.05325.01394-.08072.01691-.00889.001-.00793.014.00043.01517.04458.00607.08609.02019.13146.02452.03879.0037.07758.0055.11653.0064.086.002.17205.00322.25808.00466a.3152.3152,0,0,1,.20654.06185.42791.42791,0,0,1,.07368.08028.38181.38181,0,0,0,.06.08332.01979.01979,0,0,0,.03083-.014C6.60307,3.91274,6.52838,3.84169,6.483,3.80014Z" /><path d="M7.064,5.06537c-.07443-.09025-.2044-.062-.30779-.06511-.06574-.002-.12913-.01863-.19419-.02619a.61382.61382,0,0,0-.18875.01159,1.93751,1.93751,0,0,1-.19348.03425,1.714,1.714,0,0,1-.20158.00191,1.5146,1.5146,0,0,0-.34445.00633.87956.87956,0,0,0,.00357-.12077.58519.58519,0,0,0-.051-.19821.44162.44162,0,0,0-.10371-.15975c-.01261-.01106-.03144.00622-.02479.02029a.80221.80221,0,0,1,.071.17084.97616.97616,0,0,1,.01573.18148,1.2165,1.2165,0,0,1-.06691.3913,1.05863,1.05863,0,0,1-.15152.35372.703.703,0,0,1-.13518.11881.48.48,0,0,1-.16567.08372.00811.00811,0,0,0,.00253.016.3919.3919,0,0,0,.18207-.04388.466.466,0,0,0,.13816-.12487,1.24568,1.24568,0,0,0,.20987-.37366,1.39742,1.39742,0,0,0,.068-.25395,1.38234,1.38234,0,0,0,.3348.02786,1.38447,1.38447,0,0,0,.38071-.0315.61122.61122,0,0,1,.18888-.02509c.06132.00432.12089.021.182.02682.05541.00524.111.00085.16655.002a1.34085,1.34085,0,0,1,.16318.01693A.02537.02537,0,0,0,7.064,5.06537Z" /><path d="M5.5697,5.87269a.44905.44905,0,0,1-.05956.16907.18139.18139,0,0,1-.15495.0646.36961.36961,0,0,0-.18482.03137.49574.49574,0,0,0-.06527.05363.17309.17309,0,0,1-.10688.03675L4.986,6.22887c-.02228-.00249-.04556-.00789-.06688-.01111a.37846.37846,0,0,1-.15349-.062.20656.20656,0,0,1-.10285-.13994c-.00751-.0616.00186-.12274-.01116-.18435a.56193.56193,0,0,0-.15891-.28645.47278.47278,0,0,0-.13559-.0878.40248.40248,0,0,0-.07177-.02515c-.02744-.00665-.05465-.00213-.08126-.00732-.01214-.00237-.01353.01621-.00189.01888A.37345.37345,0,0,1,4.28731,5.49a.52353.52353,0,0,1,.06738.04626.67786.67786,0,0,1,.1131.12069.49506.49506,0,0,1,.07647.156.681.681,0,0,1,.01467.18331.30287.30287,0,0,0,.143.239L4.59828,6.2344a.31194.31194,0,0,1-.114-.08547c-.06849-.08073-.05293-.19027-.079-.28655A.46786.46786,0,0,0,4.235,5.61614c-.05633-.0441-.17756-.12893-.12752-.21328a.62931.62931,0,0,1,.15622-.08057.28379.28379,0,0,1,.11275-.01956.3922.3922,0,0,1,.10436.0286c.11942.04117.27237.06163.33941.18111a.78632.78632,0,0,1,.10521.3815.2112.2112,0,0,0,.05446.175.14819.14819,0,0,0,.13623.04358c.01415-.00411.01149-.02657-.00368-.02328-.09775.02115-.0966-.1-.09784-.16362a1.425,1.425,0,0,0-.01166-.20788.56647.56647,0,0,0-.184-.34017.50793.50793,0,0,0-.18275-.08494c-.03779-.01176-.07607-.025-.11476-.036A.38.38,0,0,1,4.752,5.2403a.16729.16729,0,0,0,.101.00439c.032-.00968.07493-.021.088-.05447a.013.013,0,0,0-.01084-.01738.051.051,0,0,0-.035.00986.08957.08957,0,0,1-.08138.01183.26109.26109,0,0,0-.122-.02312.62708.62708,0,0,0-.20635.07571.54228.54228,0,0,0-.06272-.01159.51627.51627,0,0,0-.36749.10653A.50407.50407,0,0,0,3.98,5.41163l-.04559.00228a1.03065,1.03065,0,0,1-.10757-.00333c-.06366-.0049-.12737-.01035-.19084-.01727-.1356-.01478-.27056-.03559-.40684-.04347-.06439-.00372-.13115.00345-.195-.0049-.059-.00773-.11081-.03831-.16865-.05045a.21359.21359,0,0,0-.14295.02189.79157.79157,0,0,1-.1576.06123.0098.0098,0,0,0-.00187.01871.18763.18763,0,0,0,.1307-.01921A.244.244,0,0,1,2.86616,5.352a1.07622,1.07622,0,0,0,.16219.05181c.06711.00989.13453.00941.20211.01393.13347.00893.26587.02911.39882.04325a1.644,1.644,0,0,0,.20737.01165c.02911-.00059.0642.00179.0984.0008l-.01433.027A.48323.48323,0,0,0,3.895,5.706c-.00023.01214.01865.01412.01888.00189a.34876.34876,0,0,1,.07392-.172.60441.60441,0,0,1,.03852-.05407.25394.25394,0,0,0,.07373.14112,1.7823,1.7823,0,0,1,.14046.12618.3583.3583,0,0,1,.07433.17892.78952.78952,0,0,0,.03788.19944.2785.2785,0,0,0,.075.10017.44111.44111,0,0,1-.06358-.01345c-.10094-.04868-.1322-.17425-.16376-.27664A.47983.47983,0,0,0,4.12258,5.783c-.01863-.02422-.03957-.0466-.058-.071a.24491.24491,0,0,1-.04973-.08031c-.00226-.01078-.01919-.00813-.01693.00268a.495.495,0,0,0,.01776.09269.92752.92752,0,0,0,.04581.09351.946.946,0,0,1,.07529.21114.721.721,0,0,0,.02858.08726l-.02606-.01576a.40835.40835,0,0,1-.14655-.14758.37573.37573,0,0,1-.035-.10484.543.543,0,0,0-.019-.09879.0096.0096,0,0,0-.01757.00053.32174.32174,0,0,0,.00386.19623.36712.36712,0,0,0,.09548.18291.703.703,0,0,0,.18251.11529.46457.46457,0,0,0,.22829.05892c.14878-.00518.29748-.01322.44627-.018a.35189.35189,0,0,0,.06682.00036l.01639-.00268.00344-.00009a.44116.44116,0,0,0,.21117-.04082.23836.23836,0,0,1,.09519-.03886.889.889,0,0,0,.11169-.01226.21028.21028,0,0,0,.14592-.1252.76055.76055,0,0,0,.064-.19334C5.59525,5.86069,5.57269,5.85856,5.5697,5.87269Z" /><path d="M4.9022,6.17177c-.10073-.05027-.08358-.16273-.06992-.2552A.39753.39753,0,0,0,4.78088,5.65a.5399.5399,0,0,0-.19581-.18167.88761.88761,0,0,0-.12134-.06268A.67628.67628,0,0,0,4.329,5.37424a.00632.00632,0,0,0-.00425.01136c.03909.02589.07555.05443.11671.07736a.82722.82722,0,0,1,.11973.07589.49574.49574,0,0,1,.15907.2244c.02963.09249-.01359.18583.01237.2783a.26847.26847,0,0,0,.162.15059C4.90781,6.19754,4.91446,6.17788,4.9022,6.17177Z" /><path d="M4.86028,4.83644c-.01284.04-.01923.08171-.035.12083a.95589.95589,0,0,1-.06139.11678.62353.62353,0,0,1-.07207.09736c-.02989.03446-.05231.0752-.08079.11114-.005.00628.00405.01417.01009.00941.03814-.03007.08271-.05316.11758-.08681a.40475.40475,0,0,0,.07884-.10275.39649.39649,0,0,0,.035-.11758c.00851-.04789.0218-.09549.02735-.14382A.01022.01022,0,0,0,4.86028,4.83644Z" /><path d="M4.78219,4.152a.34421.34421,0,0,0-.18879.0137.78627.78627,0,0,0-.18272.06386.46354.46354,0,0,0-.15134.12677,1.28333,1.28333,0,0,0-.07576.11579,1.02837,1.02837,0,0,0-.34333-.22319c-.06966-.01646-.14219-.01714-.21157-.03541a.81852.81852,0,0,1-.09-.03274.14746.14746,0,0,1-.08926-.06407c-.00513-.01075-.02207-.00327-.01693.0075a.471.471,0,0,0,.04731.08436c-.05042.01133-.1088-.02265-.15875-.02808a.74035.74035,0,0,0-.1931.00666c-.067.01039-.13323.02608-.19917.04147a.22477.22477,0,0,1-.17939-.02122.00985.00985,0,0,0-.01521.00945.10685.10685,0,0,0,.1043.08836c.04853.01963.10074.03248.14946.04912a.4819.4819,0,0,1,.18264.10553c.0915.08947.04235.23142.084.34289a1.523,1.523,0,0,0-.19507.04953c-.04543.01445-.08978.03083-.13375.04922-.04382.01832-.08446.04423-.12791.0623-.01192.005-.00385.02259.00805.0182.037-.01364.07741-.0205.11518-.03235.04049-.01271.08084-.0259.12125-.03888a1.49078,1.49078,0,0,1,.23787-.05753.88163.88163,0,0,1,.2498-.00226,1.10322,1.10322,0,0,0,.22919.02372.55169.55169,0,0,0,.35264-.18725,1.20375,1.20375,0,0,0,.13136-.167.7641.7641,0,0,1,.1256-.16973.48885.48885,0,0,1,.19909-.0993.96018.96018,0,0,0,.21593-.04392A.03032.03032,0,0,0,4.78219,4.152Zm-.9862.65256a.75965.75965,0,0,1-.24434-.00922A.96354.96354,0,0,0,3.329,4.79224l-.001-.00261a.69341.69341,0,0,1-.03118-.20955A.279.279,0,0,0,3.2132,4.401a.43818.43818,0,0,0-.19435-.10784L2.9852,4.28506c.03532-.01029.07037-.02195.10574-.02941a.53686.53686,0,0,1,.26054-.00223c.05656.016.11677.04586.17088.00754l.00433-.0037a.05081.05081,0,0,1-.00054.0498c-.00546.01118-.01205.02189-.01664.03279a.37939.37939,0,0,0-.05176-.01308c-.00645-.00115-.00982.00709-.00628.01171.0485.0633.12574.10931.15625.18431-.0232.00469-.04622.01043-.06991.01617a.00907.00907,0,0,0,.00051.0179c.04536.00669.08911.016.135.01926.04825.00339.09678.004.14509.00687.09041.00539.17989.01653.26938.02992A.52321.52321,0,0,1,3.796,4.80455Zm.34367-.26186-.01114.01642a.03665.03665,0,0,0-.02243-.01236A2.43618,2.43618,0,0,0,3.81714,4.515c-.04332-.00233-.0871-.004-.13049-.00226l-.00184-.00948a.239.239,0,0,0-.11623-.13763A.13751.13751,0,0,0,3.58126,4.281l-.00119-.0044a1.45187,1.45187,0,0,0,.17447.03765.50388.50388,0,0,1,.20357.08969c.06143.04618.11744.096.18255.13719Z" /><path d="M7.96445,5.10771a1.51534,1.51534,0,0,1-.17394.06968.6469.6469,0,0,1-.20578.00727c-.0746-.00794-.14735-.02547-.221-.03881-.0714-.01293-.14438-.01576-.21568-.02856a.01.01,0,0,0-.00446.01922c.07961.02475.15528.06066.23574.08341a1.2971,1.2971,0,0,0,.23734.048.60885.60885,0,0,0,.21279-.01575.25923.25923,0,0,0,.16849-.10358A.02768.02768,0,0,0,7.96445,5.10771Z" /><path d="M7.65324,4.86932c-.02005-.0093-.03714-.02547-.05791-.03389a.49609.49609,0,0,0-.06446-.01628l-.00029-.00007a.72335.72335,0,0,1-.0683-.13359.604.604,0,0,0-.05212-.144.18668.18668,0,0,0-.10321-.08067.396.396,0,0,0-.06662-.01119c-.01822-.00149-.05241.00569-.06474-.01122-.00592-.00812-.01777.00021-.01447.00889.01238.03251.03783.03315.0694.03783a.19794.19794,0,0,1,.129.09481c.02517.04352.03659.09507.06076.13987.01482.02746.03044.05735.04828.08511a.26381.26381,0,0,1-.04267-.01412.64633.64633,0,0,1-.09395-.06917.66953.66953,0,0,0-.08319-.04844.65082.65082,0,0,0-.18671-.059l-.0168-.0024a.17631.17631,0,0,1,.01-.10208.49267.49267,0,0,0,.03852-.09136L7.092,4.41183l.02264-.01991C7.12628,4.38247,7.112,4.36554,7.1,4.374a.76716.76716,0,0,1-.11019.05646.6511.6511,0,0,1-.12055.04485.28918.28918,0,0,1-.23205-.01595c-.00868-.007-.01883.00547-.01283.01375a.237.237,0,0,0,.23353.06989.35641.35641,0,0,0,.14344-.05131l.0115-.00813L6.99191,4.517a.15758.15758,0,0,0-.02473.09037H6.9665a.41212.41212,0,0,0-.10274.03191c-.00947.00273-.01157.01944.00055.01927.03391-.00047.06942.01492.10416.01761a.92275.92275,0,0,1,.093.01026.57928.57928,0,0,1,.18891.0694.93928.93928,0,0,0,.16332.108c.035.01157.07241.01808.10824.02672a.49179.49179,0,0,0,.05743.01366c.02205.00252.04462-.00425.06651-.0032A.01646.01646,0,0,0,7.65324,4.86932Z" /><path d="M7.97371,5.01943a.48424.48424,0,0,0-.09695-.20772c-.04533-.07038-.09766-.13568-.1488-.20184a1.46338,1.46338,0,0,1-.13884-.202,1.1108,1.1108,0,0,1-.04925-.10568.42639.42639,0,0,1-.04235-.13726c-.0002-.01-.01588-.0117-.01568-.00157.00074.03782-.00585.0737-.00178.11178a.41008.41008,0,0,0,.02954.112,1.07034,1.07034,0,0,0,.12935.2173c.05072.06933.10614.13511.15523.20566a1.3604,1.3604,0,0,1,.07261.11625.46812.46812,0,0,0,.07036.10948A.02094.02094,0,0,0,7.97371,5.01943Z" /><path d="M6.59709,4.27391c.00121-.01126-.0156-.01891-.02176-.00814a.17551.17551,0,0,0-.032.08746.17051.17051,0,0,0,.00348.046l.00554.01618.00873.01a.01049.01049,0,0,0,.0051.0095l.0085.00085c.02-.01143.01976-.03417.02031-.05476C6.59589,4.34615,6.5934,4.30839,6.59709,4.27391Z" /><path d="M7.40992,3.87865a.3306.3306,0,0,0-.30674-.18344.57926.57926,0,0,0-.35712.17026.55254.55254,0,0,0-.1115.16421.77631.77631,0,0,0-.04917.19661c-.00155.00944.01434.01338.01656.00384a.65044.65044,0,0,1,.177-.31288A.135.135,0,0,0,6.89,4.112c.03251.00252.09212-.00984.0999.03506a.3729.3729,0,0,0,.0067.0528.203.203,0,0,0,.02167.04357c.01212.0202.04162.0584.025.08268a.01557.01557,0,0,0,.00723.02343c.05619.01376.08876-.051.07852-.09933a.481.481,0,0,0-.0502-.09321.12846.12846,0,0,0-.05917-.07068c-.055-.029-.15277-.03353-.177-.09833a.13335.13335,0,0,1,.02412-.13276.97321.97321,0,0,1,.12154-.054.26066.26066,0,0,1,.20943-.01151.38283.38283,0,0,1,.187.34623.37435.37435,0,0,1-.0632.15162.18542.18542,0,0,1-.06079.06962.43823.43823,0,0,1-.08734.03468c-.0148.00444-.00565.02409.007.02373a.40175.40175,0,0,0,.15434-.05A.238.238,0,0,0,7.45059,4.248.3935.3935,0,0,0,7.40992,3.87865Z" /><path d="M6.71462,4.11817a.119.119,0,0,1-.01918-.03089c-.003-.01015-.0194-.00494-.01761.00519.00241.01365.00026.027.00343.04064a.0478.0478,0,0,0,.02376.03233.0136.0136,0,0,0,.021-.013A.0616.0616,0,0,0,6.71462,4.11817Z" /><path d="M6.88728,4.33208a.4386.4386,0,0,0-.0401-.03984c-.01053-.00951-.02211-.027-.03717-.0283l-.00869.004c-.00988.01587.00224.0391.01016.05355a.10961.10961,0,0,0,.04966.04719C6.88233,4.37916,6.90152,4.34871,6.88728,4.33208Z" /><path d="M6.25193,4.44705a.2177.2177,0,0,0-.146.06741.01.01,0,0,0,.00283.017.15063.15063,0,0,0,.07734-.00524.13522.13522,0,0,0,.083-.0415A.02416.02416,0,0,0,6.25193,4.44705Z" /></svg>