<svg xmlns="http://www.w3.org/2000/svg" data-name="Layer 1" viewBox="1.098887243509485 2.9799473204998495 7.802636475129382 4.045948163292323" x="0px" y="0px"><title>KAMASUTRA</title><path d="M3.99617,5.68913a1.04668,1.04668,0,0,1-.72913.03926A.644.644,0,0,0,3.2778,5.475c-.00415-.02916-.0067-.08344-.03541-.10134a.03037.03037,0,0,0-.04613.01717c-.00563.01261.01245.0205.02038.01077-.00472.00579.00069.03081.00076.04023.0001.014,0,.02792-.00025.04189-.00048.03058-.00177.06087-.00431.09136-.004.04821-.015.0952-.0221.14264a1.258,1.258,0,0,0-.18281-.01136.793.793,0,0,0-.21216.03412A.33992.33992,0,0,1,2.72247,5.673a.19455.19455,0,0,1-.03093-.12229A.01258.01258,0,0,0,2.669,5.54231a.15117.15117,0,0,0,.04341.228,1.23658,1.23658,0,0,0-.23669.1329.50876.50876,0,0,0,.04061-.15879c.00852-.08206-.00736-.19534.0511-.262.00749-.00855-.00646-.02164-.01472-.01373a.3461.3461,0,0,0-.0969.21227.48568.48568,0,0,1-.08661.24306.48924.48924,0,0,1-.20067.1126.29325.29325,0,0,0-.1673.13126c-.00976.01878.01972.04.03434.02455A.44575.44575,0,0,1,2.232,6.09146l.01294-.00419-.07654.06694c-.16279.143-.3185.29419-.48121.437a.00975.00975,0,0,0,.01234.01507c.14947-.119.30483-.23145.45553-.34915a5.07034,5.07034,0,0,1,.40751-.30675.87152.87152,0,0,1,.45809-.15185c.17915-.00094.35271.05141.53084.06124a.59343.59343,0,0,0,.46707-.14323A.0177.0177,0,0,0,3.99617,5.68913Z" /><path d="M4.35818,6.1659a.23161.23161,0,0,1-.15352.00961A1.07259,1.07259,0,0,0,4.014,6.16837a.29939.29939,0,0,0-.15393.07468.6623.6623,0,0,0-.15316.12258c-.02148.02928.01164.061.04177.05105a.69786.69786,0,0,0,.16411-.1092.17254.17254,0,0,1,.0852-.03462.93424.93424,0,0,1,.1003-.00475.92146.92146,0,0,0,.18808-.01819c.04174-.01018.07967-.02656.08837-.072A.01189.01189,0,0,0,4.35818,6.1659Z" /><path d="M4.68015,6.2713a.50615.50615,0,0,1-.15753.09986.76441.76441,0,0,1-.21492.0294,1.65259,1.65259,0,0,0-.24554.01294,1.22388,1.22388,0,0,1-.25184.06357c-.02156-.00091-.02512.03229-.00335.03353a1.99011,1.99011,0,0,0,.26185-.00851c.09474-.00689.18966-.00027.2845-.00415.13-.00532.32551-.05392.36579-.19881A.025.025,0,0,0,4.68015,6.2713Z" /><path d="M7.69266,5.99258A.53941.53941,0,0,1,7.64,5.95445a.18574.18574,0,0,1-.03375-.063c-.01891-.05157-.02632-.10683-.04111-.15961a1.60173,1.60173,0,0,0-.067-.18883l0-.00114a.059.059,0,0,0-.01445-.03256c-.02577-.0586-.05384-.11625-.08251-.17355a2.97385,2.97385,0,0,1-.176-.39365,1.06221,1.06221,0,0,1-.04742-.2125,1.64834,1.64834,0,0,0-.00938-.19733.43667.43667,0,0,0,.09425-.0721c.02065-.02164.00185-.06487-.03008-.04893-.06187.03089-.11861.07064-.181.101-.06286.03057-.12767.05669-.19285.08184a3.21,3.21,0,0,0-.38166.15935c-.25423.138-.43927.38843-.72137.47651a.52653.52653,0,0,1-.20982.02312.36557.36557,0,0,1-.20768-.07727c-.01206-.01121-.0317.00961-.01995.02139a.55941.55941,0,0,0,.06461.06321.4488.4488,0,0,0,.086.04776.47258.47258,0,0,0,.19624.0333A.51922.51922,0,0,0,5.79091,5.322a.51441.51441,0,0,0,.02315.14907.35906.35906,0,0,0,.04445.10831.12059.12059,0,0,0,.098.04259c.08743.007.17534.01.263.01384.04389.00191.08781.00462.13173.00585a.26906.26906,0,0,0,.09655-.00928l.0248.04952a1.43218,1.43218,0,0,0,.09067.15982.24852.24852,0,0,0,.11669.10607.50509.50509,0,0,0,.1811.00061q.1016-.007.20309-.015c.1484-.01176.29681-.02338.44512-.03626.025.07888.07723.18921.1673.16462A.039.039,0,0,0,7.69266,5.99258ZM7.05223,4.59193l.0344-.0165a.45055.45055,0,0,0-.00609.10189.90958.90958,0,0,0,.023.18357,1.46412,1.46412,0,0,0,.06831.21418.39907.39907,0,0,0-.15557.00011l-.00006-.02179c-.00063-.08024-.00171-.16049-.00457-.24067q-.00217-.06087-.00492-.12171a.29791.29791,0,0,0-.00782-.07462Zm-1.02623.939c-.02254-.00159-.07763.00427-.096-.01A.23982.23982,0,0,1,5.891,5.437c-.0116-.03-.02266-.06019-.0323-.09089-.00437-.01393-.00794-.02821-.01155-.0425a1.02137,1.02137,0,0,0,.21806-.11947c.05738-.03991.11158-.08391.16527-.12859a.97348.97348,0,0,0,.02342.09825,1.70489,1.70489,0,0,0,.06282.17986q.04223.10756.09026.213A2.22125,2.22125,0,0,1,6.026,5.53093Zm1.00085.31163c-.08.00713-.1599.01537-.23985.02314a.13174.13174,0,0,1-.10331-.01421.24289.24289,0,0,1-.04231-.0824c-.06349-.13429-.13362-.26456-.19122-.40173-.02917-.06946-.05637-.13979-.0829-.21029-.01325-.0352-.02841-.06948-.04488-.1033-.0083-.017-.01637-.03568-.02613-.053.04392-.03652.08821-.07256.13432-.10624A1.875,1.875,0,0,1,6.83,4.687l.07645-.03138c.00021.01442.00155.029.00222.04323q.00291.06082.00524.12167c.00332.08666.00708.17329.00947.26.00228.08285.006.16539.011.24812a.28749.28749,0,0,0,.05306.18913.01616.01616,0,0,0,.02821-.01264,1.28484,1.28484,0,0,1-.0047-.20889c.00326-.0517.00465-.10334.00515-.155.02358.00152.04736.00194.07074.0047a.93036.93036,0,0,1,.11325.0213l.01171.00134.01871.04027c.03451.07265.07146.14412.10706.21624a.39751.39751,0,0,0-.04114-.01462.27773.27773,0,0,0-.23162.02638.01277.01277,0,0,0,.00676.0224.52062.52062,0,0,1,.21882.04129.78861.78861,0,0,1,.09328.04924l.01747.01081a1.8195,1.8195,0,0,1,.08231.24227C7.33118,5.81528,7.179,5.829,7.02685,5.84256Z" /><path d="M7.454,4.03085a.41973.41973,0,0,0-.04349-.02253A.40611.40611,0,0,0,7.36259,3.998c-.03276-.00643-.06576-.01173-.09891-.01561a1.47455,1.47455,0,0,0-.19981-.0089,2.49474,2.49474,0,0,0-.40708.04382,4.74369,4.74369,0,0,0-.50608.12222.85821.85821,0,0,1-.19147.017c-.11251-.00421-.22346-.01714-.335-.03177-.11358-.0149-.22669-.03358-.34006-.05-.04862-.007-.09732-.01332-.146-.02013a.31286.31286,0,0,1-.05452-.01171c.00017-.01542.00017-.03085-.00013-.04626.00467-.036.00912-.07179.01257-.10806a.36685.36685,0,0,1,.01947-.09775.39088.39088,0,0,0,.0323-.09442.02789.02789,0,0,0-.03167-.02992c-.08663.00782-.12211.11253-.13152.18518l-.00243.03148a1.75481,1.75481,0,0,0-.00657.20121c-.001.07671-.00087.15369-.005.2303s-.01091.153-.01682.22953-.00286.15443-.01368.23013c-.0218.15254-.06173.30278-.08937.45441-.02768.15181-.05829.3029-.08943.454a3.42305,3.42305,0,0,0-.08044.513.0142.0142,0,0,0,.02731.00633A2.77025,2.77025,0,0,0,4.846,5.756c.02242-.09234.04308-.18518.06265-.27822L4.91134,5.474a.64269.64269,0,0,1,.06455-.12169c.03355-.03761.07294-.06127.08949-.11169a.842.842,0,0,0,.02591-.15278c.00384-.02948.00814-.05893.01079-.08855.00317-.0355,0-.06916.00127-.10444.00045-.01248-.01833-.01851-.02246-.00521-.00949.03056-.02251.05879-.03085.09-.00769.02881-.0135.058-.01963.08713s-.0123.05848-.01794.08783a.22807.22807,0,0,1-.022.07682.11952.11952,0,0,1-.03933.0349,4.25655,4.25655,0,0,0,.05556-.42559c.00677-.07982.02767-.15611.03848-.23517.01039-.076.01683-.15252.02228-.22906l.00316-.044.02422-.00469c.0417-.00614.08319-.01293.12514-.01741a1.15281,1.15281,0,0,1,.26368.003c.0407.005.08651.01258.13351.01744-.06659.02082-.13424.037-.20208.05355-.01641.004-.01817.03031.00089.03133a1.18977,1.18977,0,0,0,.38043-.07407q.19534-.05526.391-.10947a3.93593,3.93593,0,0,1,.8004-.1549,1.85229,1.85229,0,0,1,.22322.00045q.05346.00319.10667.00984.02838.00355.05658.00826a.44557.44557,0,0,0,.06447.00061A.03415.03415,0,0,0,7.454,4.03085Zm-2.2966.21164a.628.628,0,0,0-.08186.01924c.00283-.0435.00522-.087.00634-.13056a.37927.37927,0,0,0,.111.03744l.04621.00868C5.21192,4.19928,5.18424,4.22026,5.15743,4.24249Zm.66208.013a.53807.53807,0,0,1-.1458.00816c-.08244-.00571-.16322-.02481-.24554-.03179a1.10553,1.10553,0,0,0-.164-.00142L5.26983,4.228a.877.877,0,0,0,.0831-.03119c.07753.01257.15535.02383.23288.03464a1.8304,1.8304,0,0,0,.24452.01966Z" /><path d="M8.53205,5.36781A.36505.36505,0,0,0,8.30237,5.217a1.04871,1.04871,0,0,1-.27247-.05881C7.954,5.11555,7.902,5.03861,7.81112,5.0241a.1677.1677,0,0,0-.10716.01807q-.01586-.0826-.031-.16533-.035-.19259-.06568-.38593c-.01022-.06436-.01943-.12919-.0326-.193-.00712-.03449-.0147-.06886-.02316-.103a.24724.24724,0,0,0-.02683-.0794.01463.01463,0,0,0-.0249.00414.5158.5158,0,0,0,.00226.18215c.0052.06744.01634.13475.02683.20155q.03035.19337.06505.386c.02314.12842.04739.25667.07408.3844.01335.06387.02656.12782.04114.19142.00786.0343.01672.06841.0255.10249a.19471.19471,0,0,0,.03168.08458.02669.02669,0,0,0,.0453-.00753A.18735.18735,0,0,0,7.806,5.55637c-.006-.032-.01172-.06411-.01812-.096-.01332-.06642-.02764-.13263-.0409-.19907l-.02954-.14967a.16354.16354,0,0,1,.13229.03235.70194.70194,0,0,0,.197.13008c.07609.02362.15639.0208.2331.04023.08021.02032.1419.077.22249.0947A.02952.02952,0,0,0,8.53205,5.36781Z" /><path d="M8.36383,5.59324c-.05251-.06786-.15036-.01919-.21843-.00668a1.39108,1.39108,0,0,1-.2748.02361.01147.01147,0,0,0-.00512.02205.54219.54219,0,0,0,.24293.0383c.08148-.0081.15976-.03166.24125-.04014A.02311.02311,0,0,0,8.36383,5.59324Z" /><path d="M8.34495,5.69264a.93166.93166,0,0,0-.11808.11495.31607.31607,0,0,1-.15516.08.51728.51728,0,0,0-.17229.06081c-.04366.02652-.11364.05836-.13705.10616-.00529.01079.005.0201.01505.02012a.22826.22826,0,0,0,.09-.03406.76586.76586,0,0,1,.08593-.03579c.06186-.021.12944-.0258.18967-.0502a.44962.44962,0,0,0,.1384-.09377.37355.37355,0,0,0,.10408-.13649A.02692.02692,0,0,0,8.34495,5.69264Z" /><path d="M3.04573,5.29288a.11684.11684,0,0,0-.06213.0212c-.02468.01484-.04123.03664-.06466.05233-.00879.00589.00032.0202.00967.01574.02381-.01134.04945-.01461.07344-.02637a.09462.09462,0,0,1,.0296-.01233c.016-.00081.01531.00895.02025.0199a.02406.02406,0,0,0,.04128.00413C3.11546,5.33386,3.08215,5.29362,3.04573,5.29288Z" /><path d="M3.76515,6.174a.39225.39225,0,0,0-.1899-.04635c-.06953-.00828-.13911-.016-.20891-.02158a1.02039,1.02039,0,0,0-.3922.03666,2.48825,2.48825,0,0,0-.36633.16672c-.12719.06408-.25417.12868-.38019.195-.06826.03595-.13356.07349-.1979.11595-.07095.04681-.14509.08558-.21959.12655-.01152.00634-.004.02451.00839.019a1.98634,1.98634,0,0,1,.19221-.08557,1.76552,1.76552,0,0,0,.18811-.07153c.12469-.057.24806-.11749.371-.17815.11819-.05832.23539-.12.35642-.17227a.8115.8115,0,0,1,.38569-.05668c.07719.00491.15426.012.23132.01877A.46847.46847,0,0,0,3.76064,6.219.02631.02631,0,0,0,3.76515,6.174Z" /><path d="M4.5258,4.619c-.02744-.17013-.05547-.34036-.07341-.51182-.01-.09579-.01833-.19208-.02443-.2882-.00311-.049-.003-.09782-.00455-.1468A.88836.88836,0,0,1,4.41916,3.517c.0029-.0199-.02814-.02294-.031-.0031-.0065.04458-.02347.08711-.033.13123a.97665.97665,0,0,0-.016.13232q-.006.07966-.00564.1593a.23.23,0,0,0-.0478-.035.24873.24873,0,0,0-.23149-.0033.34548.34548,0,0,1,.01595-.15391.01377.01377,0,0,0-.024-.01271.2899.2899,0,0,0-.047.1009c-.0096.042-.01305.08509-.01866.12773a.54922.54922,0,0,1-.02214.09919.223.223,0,0,1-.05532.08841c-.01355.01515.00424.039.02228.03588.07461-.01272.11509-.096.12681-.16272l.00192-.01355a.04781.04781,0,0,0,.02209-.00417.1862.1862,0,0,1,.16441-.00458.40328.40328,0,0,1,.10043.093c.00968.11881.02629.23708.04454.35494-.01736.00358-.03444.00774-.05138.01232-.034-.05877-.0729-.11506-.10726-.1737-.017-.02894-.03363-.05805-.05123-.08661-.02056-.03338-.04951-.06331-.06809-.09735a.01393.01393,0,0,0-.02546.01127c.01254.03531.01637.07357.0297.10917a.88883.88883,0,0,0,.04687.10133,1.4968,1.4968,0,0,0,.09435.16141l-.05234.01956a1.177,1.177,0,0,0-.21118.09415.41959.41959,0,0,0-.13072.15361.28117.28117,0,0,1-.05665.07767.28656.28656,0,0,1-.03263.02342.32175.32175,0,0,0-.21359-.01.205.205,0,0,0-.10419.05617.18042.18042,0,0,0-.03258.11166c-.004.05155-.01075.10251-.01951.15345a.64907.64907,0,0,1-.0384.15856c-.00564.01268.01459.02018.02022.00752a1.8091,1.8091,0,0,0,.09323-.20611A.94593.94593,0,0,0,3.50033,5.019c.00561-.03066.00639-.05625.03677-.07129a.21518.21518,0,0,1,.30657.13558c.0038.02195.03983.029.04613.00461a.19062.19062,0,0,0-.04162-.17783.30255.30255,0,0,0,.043-.03743c.04857-.05034.07622-.12034.12872-.166a.73027.73027,0,0,1,.20383-.095,1.32228,1.32228,0,0,0,.17447-.08449L4.4026,4.555a2.64507,2.64507,0,0,1,.06037.52138c-.00134.03149-.00374.06291-.00681.09429a.25142.25142,0,0,0-.19277-.13977c-.18174-.0181-.42187.17-.32729.36434.00559.01147.02665.01055.02659-.00425a.2582.2582,0,0,1,.088-.19662.27868.27868,0,0,1,.21767-.07044.21116.21116,0,0,1,.13556.14332.53352.53352,0,0,1,.02383.1236c-.0096.0688-.01856.13767-.02311.20691-.00347.05282-.00353.10614-.00233.15943a.56046.56046,0,0,1-.0811.18776.45232.45232,0,0,1-.081.08638c-.01507.01249-.03053.0245-.0462.03622a.2144.2144,0,0,1-.05521.04086c-.01247.0039-.00622.02536.00652.02211.02335-.006.04742-.00025.071-.00661a.2504.2504,0,0,0,.0676-.03064A.39161.39161,0,0,0,4.393,5.98912l.01634-.02474a.88022.88022,0,0,0,.0286.21987c.00971.03251.05989.02036.06252-.01.00748-.08632-.006-.17376-.00706-.26034-.0011-.08762.00413-.17385.01048-.26115s.01141-.17418.02195-.261.026-.17328.03716-.26017A1.77226,1.77226,0,0,0,4.5258,4.619Z" /><path d="M5.185,4.9308c-.00865.04668-.02817.09234-.03978.13863-.011.044-.023.08776-.03086.13244a.235.235,0,0,1-.01018.05068.07494.07494,0,0,1-.03326.0303c-.02619.01695-.04644.03141-.04711.06484-.00035.01724.01769.03639.03588.026.05957-.034.11581-.06744.12973-.14011a1.16848,1.16848,0,0,0,.01394-.14308c.00344-.05184-.00106-.106.00561-.1573C5.211,4.91762,5.18778,4.91576,5.185,4.9308Z" /><path d="M5.29594,5.00447a.30815.30815,0,0,0-.05059.08273.44631.44631,0,0,0-.018.10514.28312.28312,0,0,1-.024.10575.32488.32488,0,0,1-.058.06521.02556.02556,0,0,0,.01822.04c.06782.00271.1067-.07023.11985-.12823.01926-.085.00654-.17658.03134-.26059A.01084.01084,0,0,0,5.29594,5.00447Z" /><path d="M8.80712,5.56273a.52937.52937,0,0,0-.13135-.04344c-.10067-.02161-.20395-.02526-.30348-.053a1.02365,1.02365,0,0,1-.15984-.0598A.49687.49687,0,0,0,8.05621,5.35a.21832.21832,0,0,0-.13744.03408.304.304,0,0,0-.08521.12346c-.00664.01209.01031.025.01795.01271a.18918.18918,0,0,1,.11214-.091.25693.25693,0,0,1,.13444.0266,2.02336,2.02336,0,0,0,.287.11222c.08539.02021.1728.026.25889.04206a.46368.46368,0,0,1,.11528.03512c.03651.01744.063.05164.10476.05543a.03482.03482,0,0,0,.03719-.03938C8.89953,5.61142,8.84673,5.583,8.80712,5.56273Z" /><path d="M8.74719,5.72538c-.02536-.04912-.10272-.0393-.14991-.0352A.34965.34965,0,0,0,8.5157,5.708c-.03045.01027-.05668.02877-.08679.03935-.01526.00536-.00493.02766.01009.02279a.518.518,0,0,1,.16733-.00422c.04028.00168.0999.02422.13254-.00562A.03026.03026,0,0,0,8.74719,5.72538Z" /><path d="M2.87,5.33321c-.00176-.01-.01874-.0104-.01848.00053.00081.03436-.008.068-.00824.1027a.11183.11183,0,0,0,.01658.08265.02316.02316,0,0,0,.03644-.00127C2.92944,5.46446,2.87964,5.38785,2.87,5.33321Z" /><path d="M3.14487,5.35446c-.00713-.007-.02217-.01025-.02812.001a.18441.18441,0,0,0-.01387.04635.06814.06814,0,0,0,.00123.05177.02528.02528,0,0,0,.03838.00915A.07783.07783,0,0,0,3.14487,5.35446Z" /><path d="M1.73141,6.78974a.84609.84609,0,0,0-.15888.10752.22805.22805,0,0,1-.178.0399c-.01354-.00193-.02718-.00405-.04087-.00481a.49137.49137,0,0,1-.05076.00179.024.024,0,0,0-.01152-.00026L1.2863,6.92446a.33892.33892,0,0,1-.01748-.0473.64042.64042,0,0,0-.0731-.12607.56567.56567,0,0,0,.05261-.068,1.11289,1.11289,0,0,0,.0559-.10787c.00611-.012-.01248-.02542-.02187-.01563-.05241.05468-.1139.10333-.16836.15668a.043.043,0,0,0-.00593.05929.54731.54731,0,0,1,.064.094c.01614.03074.02559.06446.04159.095A.08218.08218,0,0,0,1.281,7.013c.01705.0012.03408-.00306.05118-.00209a.49617.49617,0,0,1,.06091.01018.2393.2393,0,0,0,.1941-.04519c.0291-.02014.05643-.04284.08338-.06573a.48922.48922,0,0,0,.08911-.08589A.02332.02332,0,0,0,1.73141,6.78974Z" /><path d="M1.53967,6.5757c-.05194.02439-.10431-.01315-.15765-.008a.0619.0619,0,0,0-.05622.03355c-.01862.03421-.0255.0717-.04672.105-.00771.01208.01033.02507.01829.01295a.71017.71017,0,0,1,.076-.08551c.06552-.00928.15574.05116.19427-.03166A.021.021,0,0,0,1.53967,6.5757Z" /><path d="M1.53955,6.673A.3276.3276,0,0,0,1.38324,6.69a.14711.14711,0,0,0-.05344.05508c-.01035.01624-.02205.04764-.04017.05534a.02584.02584,0,0,0,.00783.04895c.06184.00972.0811-.04209.11277-.08232.03417-.0434.10159-.03215.1378-.0755A.0119.0119,0,0,0,1.53955,6.673Z" /><path d="M1.49867,6.74992c-.03391.00862-.05345.044-.06716.07364-.00432.00935.01041.0171.016.00844a.11922.11922,0,0,1,.02907-.03122A.27274.27274,0,0,0,1.51,6.77518C1.51849,6.7662,1.51421,6.746,1.49867,6.74992Z" /><path d="M2.76345,5.33154c-.0374.00578-.07806.00285-.11606.00717-.03357.00381-.06735.00725-.10057.01344a.34973.34973,0,0,0-.16764.07133.32306.32306,0,0,0-.09249.16766.27452.27452,0,0,0-.06581.01186l-.1039.02188c-.07179.01512-.14335.0311-.2149.04733a1.90806,1.90806,0,0,0-.19889.0548.82078.82078,0,0,0-.0876.03429c-.00737.00352-.02276.01442-.03939.02461a.05953.05953,0,0,1-.05071-.01077,1.11918,1.11918,0,0,0-.08683-.07632c-.04488-.02774-.13972-.078-.17956-.01637a.01152.01152,0,0,0,.00534.01729.2404.2404,0,0,1,.105.04353.38551.38551,0,0,0,.09283.077.29642.29642,0,0,0,.22043-.00279c.03913-.01263.078-.02691.11725-.039.0264-.0033.05275-.00671.07874-.01142l.01737-.00324.03395-.00248a.47125.47125,0,0,0,.15877-.03554l.02787-.00577.1262-.02636.01923-.00365-.006.02237a.3083.3083,0,0,1-.07635.14238.71949.71949,0,0,1-.14674.09238.36124.36124,0,0,0-.186.277.01791.01791,0,0,0,.03561.00356.29178.29178,0,0,1,.08423-.16813.43934.43934,0,0,1,.14377-.08028A.45492.45492,0,0,0,2.259,5.898a.29138.29138,0,0,0,.072-.1246.87084.87084,0,0,1,.09086-.28265.25857.25857,0,0,1,.14627-.0819c.02886-.0077.05807-.01389.0872-.02044.03739-.00841.07495-.0246.11223-.03145A.01288.01288,0,0,0,2.76345,5.33154Z" /><path d="M1.59966,5.57126A.19578.19578,0,0,0,1.526,5.53249a.69252.69252,0,0,0-.079-.03155.01964.01964,0,0,0-.02445.026.15748.15748,0,0,0,.061.06714.84775.84775,0,0,0-.10863-.044.10174.10174,0,0,0-.09951.03981.02133.02133,0,0,0,.03075.02868c.02913-.01834.07623.00784.1037.02125a.12915.12915,0,0,0,.118.012.02664.02664,0,0,0,.0134-.03476.0923.0923,0,0,0,.04849-.00386A.02725.02725,0,0,0,1.59966,5.57126Z" /><path d="M2.22791,5.41729c-.11943.01357-.229.07154-.34707.09264a.32992.32992,0,0,1-.157-.00524.2531.2531,0,0,1-.12548-.06927c-.00766-.01063-.02426.00181-.01855.01295a.20811.20811,0,0,0,.098.11164.32676.32676,0,0,0,.1641.02524.896.896,0,0,0,.19931-.04636,1.10885,1.10885,0,0,0,.20321-.0757A.02471.02471,0,0,0,2.22791,5.41729Z" /><path d="M6.34686,3.56724c-.19659-.09069-.374-.21716-.56579-.31734a1.97641,1.97641,0,0,0-1.209-.25856,1.30671,1.30671,0,0,0-.33038.09822c-.05243.02329-.10476.04581-.1584.06614a.29558.29558,0,0,1-.12706.02172L3.94719,3.1717a1.2762,1.2762,0,0,0-.21931-.11214.77959.77959,0,0,0-.42865-.04535.59193.59193,0,0,0-.34874.20039.59834.59834,0,0,0-.1058.44.85429.85429,0,0,0,.06284.254.55976.55976,0,0,0,.06088.10923.3942.3942,0,0,0,.03958.04554c.01612.01591.03583.02476.053.0393.0106.009.02549-.00742.01656-.01775a.41759.41759,0,0,1-.04965-.08964.744.744,0,0,1-.03884-.0959,1.16314,1.16314,0,0,1-.04141-.20178.56776.56776,0,0,1,.06531-.4003.414.414,0,0,1,.1036-.10362.50255.50255,0,0,0-.03362.06084.70238.70238,0,0,0-.0406.37494c.0013.01438.0255.014.02553-.00073a.73245.73245,0,0,1,.08473-.33741.50483.50483,0,0,1,.08127-.112c.02273-.023.05517-.04075.07824-.06476a.66837.66837,0,0,1,.19-.006.28533.28533,0,0,0-.10707.10373.74482.74482,0,0,0-.08927.17862.46577.46577,0,0,0-.02223.10011c-.00339.03227.00046.06342-.00294.09542a.01163.01163,0,0,0,.02312.00231.66412.66412,0,0,1,.05792-.16347.78318.78318,0,0,1,.08007-.14875A.22314.22314,0,0,1,3.56544,3.17c.03211-.00825.06454-.01542.09669-.02352l.00421-.001.00187.00063a1.13284,1.13284,0,0,1,.20976.10079.80661.80661,0,0,0,.21241.11758c.01888.00454.0425-.01244.03159-.03356A.2968.2968,0,0,0,4.048,3.24254a.39465.39465,0,0,0,.09452-.0171c.09557-.02975.184-.07749.28035-.10545a1.41042,1.41042,0,0,1,.60753-.02947,2.125,2.125,0,0,1,.58085.18723c.18854.089.35957.20572.541.30722.09729.05442.20465.09156.29882.15115a.43017.43017,0,0,1,.18046.231.02333.02333,0,0,0,.04282-.0013C6.73605,3.7582,6.49946,3.63764,6.34686,3.56724Z" /><path d="M3.61773,3.83107c-.06632.02794-.12014-.01038-.17936-.03368a.16925.16925,0,0,0-.16565.01748.24547.24547,0,0,0-.06974.11095c-.01551.04242-.0311.09379-.07724.11069-.01509.00553-.0049.02828.01009.02279a.21707.21707,0,0,0,.09307-.07.501.501,0,0,1,.08731-.10159c.04684-.033.12014-.00827.1718.00183a.15826.15826,0,0,0,.15132-.02329A.02092.02092,0,0,0,3.61773,3.83107Z" /><path d="M3.972,3.47211c-.04056.01257-.06914.05275-.10683.0725a.3716.3716,0,0,1-.126.0354.52644.52644,0,0,0-.12107.02428.292.292,0,0,0-.09287.06635.01121.01121,0,0,0,.01419.01734.13257.13257,0,0,1,.06911-.02388.14523.14523,0,0,0-.01069.07237c.00156.01468.02331.01318.02512-.00072a.08147.08147,0,0,1,.13359-.05115c.03988.0378.03456.11436.0903.13529A.02782.02782,0,0,0,3.882,3.8038c.01737-.04228-.01813-.10086-.03979-.13744a.19007.19007,0,0,0-.0169-.02411c.0709-.01882.17523-.06775.18317-.14372A.02641.02641,0,0,0,3.972,3.47211Z" /><path d="M3.82358,4.12621c-.00394-.01308-.02107-.011-.02808-.00281a.1253.1253,0,0,0-.02173.04739c-.00365.01188-.008.02317-.01249.03449-.02021.00966-.04334.0064-.0639.01659a.12785.12785,0,0,0-.04493.043c-.01705.02289-.03113.03767-.05892.01772a.3231.3231,0,0,1-.0633-.09565.15776.15776,0,0,0-.059-.059.1909.1909,0,0,0-.00105-.057c-.00166-.00909-.01619-.01467-.02134-.005a.37354.37354,0,0,0-.02037.04764L3.42039,4.1124a.30241.30241,0,0,0-.07579.00415c-.02929.00425-.06377.01653-.09071.00013a.01017.01017,0,0,0-.01174.01658.21581.21581,0,0,0,.1508.03341c.00546-.00012.01053-.00009.01531.00013-.01306.031-.02795.06125-.041.09227-.01.02375.023.0381.038.02007a.31211.31211,0,0,0,.05233-.09382.1134.1134,0,0,1,.01879.02551.55881.55881,0,0,0,.0638.104.091.091,0,0,0,.07443.035c.02858-.00323.04055-.02272.054-.04534.00875-.01476.01605-.03633.03591-.03859.0127-.00144.02722.00567.04078.00454A.06308.06308,0,0,0,3.775,4.26117a.03666.03666,0,0,0,.0103.00031.02791.02791,0,0,0,.02228-.01824A.21925.21925,0,0,0,3.82358,4.12621Z" /></svg>