<svg xmlns="http://www.w3.org/2000/svg" data-name="Layer 1" viewBox="1.225391072048454 0.2115258595542816 2.5505313198003945 4.576510064237236" x="0px" y="0px"><title>sex_position_pose_kamasutra_sexual</title><g><path d="M3.05894,1.5775c-.05106-.086-.07061-.16167-.1817-.17085a.00387.00387,0,0,0-.00252.00722c.068.04433.08723.16116.13182.22553A1.65144,1.65144,0,0,1,3.14,1.82193c.01254.02452.04394.00688.04535-.01451C3.19165,1.71152,3.10351,1.65254,3.05894,1.5775Z" /><path d="M3.16389,1.84953a.43146.43146,0,0,0-.1121.183.19306.19306,0,0,1-.011-.04316,1.72459,1.72459,0,0,1,.00072-.23514c.00035-.0147-.02016-.017-.02643-.00554a.47791.47791,0,0,0-.06334.23257.2675.2675,0,0,0,.07115.14755c-.0176.06816-.03125.13683-.04863.19662a.25523.25523,0,0,1-.13791.19567.54172.54172,0,0,0-.06414.02958c-.06074.0377-.08524.10188-.13123.15363a.02142.02142,0,0,0,.02729.03225.154.154,0,0,0,.04958-.04333.44939.44939,0,0,1,.06142-.07485.59913.59913,0,0,1,.07688-.035.34866.34866,0,0,0,.15-.14717.928.928,0,0,0,.08156-.2681c.02239-.1077.05564-.20925.0825-.31529Z" /><path d="M3.46152,1.87065a.02092.02092,0,0,0-.0393-.00825,5.83282,5.83282,0,0,1-.38557.75178l.0029.00261a.74864.74864,0,0,0,.13286-.13665c.05484-.07641.07691-.16733.13325-.2444A.5753.5753,0,0,0,3.46152,1.87065Z" /><path d="M3.462,1.79494c-.02558-.08257-.06069-.16206-.08645-.245A1.36676,1.36676,0,0,0,3.294,1.294a.29992.29992,0,0,0-.25741-.15215l-.00146.007c.26431.10263.24211.45565.39611.66047A.01717.01717,0,0,0,3.462,1.79494Z" /><path d="M2.49041,1.16778a.22588.22588,0,0,0-.15939.04445.28831.28831,0,0,0-.05746.159c-.00134.01944.02687.02725.03839.01364a.78468.78468,0,0,0,.06546-.12063.27658.27658,0,0,1,.11831-.07988C2.50436,1.18019,2.49859,1.16763,2.49041,1.16778Z" /><path d="M2.38532,1.35583a.00554.00554,0,0,0-.0109-.00084c-.02994.08806-.05994.18155-.08507.27094a.34964.34964,0,0,0,.03643.24077c.00756.01827.03951.01594.03658-.00665a.75652.75652,0,0,1-.00767-.14984,1.27318,1.27318,0,0,1,.032-.143A.84315.84315,0,0,0,2.38532,1.35583Z" /><path d="M2.36751,1.98428a.009.009,0,0,0-.01757.00319.85706.85706,0,0,0,.02919.24308c.0286.0834.07291.16264.10683.24415.011.02638.05381.02239.05165-.00938A2.42158,2.42158,0,0,0,2.36751,1.98428Z" /><path d="M3.21185,2.51063c-.00693-.016-.03529-.01442-.03264.00593a1.31409,1.31409,0,0,1,.03274.31071,1.57129,1.57129,0,0,1-.067.29128c-.00625.021.02477.0295.03476.0121a.78489.78489,0,0,0,.1197-.29666A.63893.63893,0,0,0,3.21185,2.51063Z" /><path d="M2.51884,1.7413a1.09531,1.09531,0,0,1,.00073-.2058c.00018-.00633-.00881-.00744-.01148-.00241-.0362.06847-.08747.14864-.03833.22392C2.48328,1.77771,2.52333,1.76884,2.51884,1.7413Z" /><path d="M2.88352,1.1765c-.08367.01586-.16928.00679-.253.02366a.00593.00593,0,0,0-.00085.01086.31884.31884,0,0,0,.25954-.01666A.00938.00938,0,0,0,2.88352,1.1765Z" /><path d="M2.46805,2.52846a.04313.04313,0,0,0-.03435.02726.19522.19522,0,0,0-.00494.02184c-.006.0189-.01013.02086-.028.03237a.10945.10945,0,0,1-.14953-.00911l-.00689.0013c-.027.06447.05443.09916.10555.09a.24451.24451,0,0,0,.1049-.05637c.02885-.024.023-.05414.03468-.088C2.494,2.53467,2.47871,2.5262,2.46805,2.52846Z" /><path d="M2.52469,2.59392a.00668.00668,0,0,0-.01049-.00087c-.01733.01652-.02747.0386-.04613.054a.28418.28418,0,0,0-.05175.05674.02161.02161,0,0,0,.02753.03252.14125.14125,0,0,0,.06961-.06736A.07917.07917,0,0,0,2.52469,2.59392Z" /><path d="M2.571,2.65349a.00651.00651,0,0,0-.01091-.00236.38165.38165,0,0,0-.07727.087.01853.01853,0,0,0,.01738.02659A.08639.08639,0,0,0,2.571,2.65349Z" /><path d="M2.54494,2.77189c-.01129.00363-.02354.00486-.035.00856a.10941.10941,0,0,0-.03462.01561.02229.02229,0,0,0-.01024.01989l.001.00559a.0216.0216,0,0,0,.01666.015.07633.07633,0,0,0,.04594-.01074l.0179-.01264a.19922.19922,0,0,0,.01451-.01625A.01555.01555,0,0,0,2.54494,2.77189Z" /><path d="M2.38337,2.807C2.373,2.77944,2.35065,2.76922,2.3256,2.757a.75814.75814,0,0,1-.07147-.04673c-.004-.00253-.00823.00227-.00721.00616a.17016.17016,0,0,0,.0365.06969.50556.50556,0,0,0,.063.04465C2.36288,2.84425,2.39176,2.82931,2.38337,2.807Z" /><path d="M2.31108,2.0961c-.00087-.00795-.01305-.00973-.01454-.00112-.01051.0609-.02129.12086-.035.18039a.58129.58129,0,0,0-.20771-.05085,1.69944,1.69944,0,0,0-.36324-.01311.00867.00867,0,0,0-.00131.01708c.182.04456.3716.07324.5507.12924l-.00438.01561a.42722.42722,0,0,0-.02706.21188c.00144.00676.01094.005.01243-.00064.02254-.08589.07641-.155.09831-.24032A.71328.71328,0,0,0,2.31108,2.0961Z" /><path d="M2.75559,2.6751a.28085.28085,0,0,0-.07638.10777.81969.81969,0,0,0-.00763.14283.01577.01577,0,0,0,.0272.00965c.02861-.03466.02184-.0787.03625-.11919.01545-.04342.02208-.08919.03574-.13335C2.77344,2.6742,2.76108,2.66889,2.75559,2.6751Z" /><path d="M2.81053,2.75717,2.80245,2.753c-.03036.00921-.04079.04645-.04951.074a.47417.47417,0,0,0-.0213.13488.01369.01369,0,0,0,.02573.0054.51.51,0,0,0,.03822-.118A.24336.24336,0,0,0,2.81053,2.75717Z" /><path d="M2.86691,2.75489c-.05839.05566-.04649.13639-.06816.20655-.00371.012.01268.01771.02025.01027.057-.05609.04716-.13676.06626-.20752C2.88823,2.75321,2.874,2.74815,2.86691,2.75489Z" /><path d="M2.976,2.70789c-.01686.03718-.05823.05238-.07586.087a.138.138,0,0,0-.0087.03543.58638.58638,0,0,1-.023.08025.01747.01747,0,0,0,.03121.01566.23388.23388,0,0,0,.02917-.0579.42394.42394,0,0,1,.014-.05641c.007-.01382.02135-.0245.02834-.03942a.24334.24334,0,0,0,.01513-.061A.00553.00553,0,0,0,2.976,2.70789Z" /><path d="M2.99631,3.12344a.055.055,0,0,0-.04221-.02063.10025.10025,0,0,0-.03966-.0032.01707.01707,0,0,0-.011.02124.06973.06973,0,0,0,.03317.03218.04932.04932,0,0,0,.05207.0049A.02538.02538,0,0,0,2.99631,3.12344Z" /><path d="M3.757,3.43935a3.71351,3.71351,0,0,0-.59444-.11678A.76918.76918,0,0,0,3.14743,3.196c-.00272-.01318-.02231-.01044-.02486.00129a4.78328,4.78328,0,0,0-.10457.58153,2.36814,2.36814,0,0,1-.03747.325c-.017.07419.01944.133.00639.20637-.00357.02007.02442.03816.03828.01941a.13544.13544,0,0,0,.01718-.13471.85679.85679,0,0,1,.0427-.40211A1.95688,1.95688,0,0,0,3.162,3.39835c.19479.031.38988.05988.58493.08922A.02464.02464,0,0,0,3.757,3.43935Z" /><g><path d="M2.78158,4.5422a.54554.54554,0,0,0,.02252-.1623c.001-.01406-.01886-.01531-.02469-.00518-.0614.10672-.13448.22737-.07082.35166a.01707.01707,0,0,0,.03081-.00566c.00446-.02689-.0014-.05184.00169-.07834A.38436.38436,0,0,1,2.78158,4.5422Z" /><path d="M2.87782,4.69139a.47771.47771,0,0,0-.04843-.0809.00665.00665,0,0,0-.01149.00059.12788.12788,0,0,0-.00867.06261.16487.16487,0,0,1-.00318.06821.0325.0325,0,0,0,.05293.03616A.083.083,0,0,0,2.87782,4.69139Z" /><path d="M2.97013,4.70391a.05575.05575,0,0,0-.01322-.032c-.00526-.00567-.01642-.01334-.02423-.00695-.01124.00922-.01131.02411-.01489.03726-.004.01465-.01031.02874-.01461.0434a.02505.02505,0,0,0,.03763.026A.06625.06625,0,0,0,2.97013,4.70391Z" /><path d="M3.01805,4.69553a.01108.01108,0,0,0-.0148.00491C3,4.70905,2.9984,4.72126,2.9907,4.72736a.01824.01824,0,0,0-.00649.02275.0178.0178,0,0,0,.02163.00959A.04114.04114,0,0,0,3.032,4.72858.03025.03025,0,0,0,3.01805,4.69553Z" /><path d="M3.10265,4.624a.79861.79861,0,0,0-.04916-.253c-.01008-.019-.03754-.01032-.04219.00774a.2969.2969,0,0,0,.01735.17924.34933.34933,0,0,1,.03928.09323.39616.39616,0,0,1-.01366.08853.00727.00727,0,0,0,.01087.0075C3.12361,4.71761,3.11266,4.67909,3.10265,4.624Z" /></g><path d="M2.0679,2.99919c-.07722-.09593-.22-.07642-.33135-.10006A.91857.91857,0,0,0,1.293,2.84191a.01074.01074,0,0,0,.00106.02059,1.012,1.012,0,0,0,.17769.02048.907.907,0,0,1,.24708.08028c.10434.0378.22161.03333.32907.06493A.0193.0193,0,0,0,2.0679,2.99919Z" /><path d="M1.30488,3.05132a.41512.41512,0,0,1-.02372-.15116.00838.00838,0,0,0-.0144-.00511.14335.14335,0,0,0-.03368.14706c.01206.02738.03931.0394.055.06421.0147.02327.00785.04234.03188.05769.01071.00684.02329-.00419.02313-.01511A.20553.20553,0,0,0,1.30488,3.05132Z" /><path d="M2.57525,2.96953c-.03963-.11727-.20181-.11291-.29829-.15371a1.22819,1.22819,0,0,1-.34762-.24172.25778.25778,0,0,0-.00467-.03787.241.241,0,0,0-.13935-.17531.00723.00723,0,0,0-.00925.01027c.11024.18152.022.41036.20789.54921a.01385.01385,0,0,0,.02085-.01765.41856.41856,0,0,1-.07887-.1821.77053.77053,0,0,1,.0028-.08849.79669.79669,0,0,0,.19615.20346.55054.55054,0,0,0,.17488.07894c.09034.02189.18345-.00257.25848.06592A.01055.01055,0,0,0,2.57525,2.96953Z" /><path d="M1.75875,2.81434a.7561.7561,0,0,0-.1101-.21919.47926.47926,0,0,1-.0621-.34884.00609.00609,0,0,0-.01136-.00395.26892.26892,0,0,0-.0219.28182,1.0873,1.0873,0,0,0,.17713.30841C1.7431,2.8459,1.7629,2.82985,1.75875,2.81434Z" /><path d="M2.67708,2.98188c-.02517-.03467-.05026-.06932-.0761-.10352-.004-.00529-.01533-.00372-.01387.00444a.38771.38771,0,0,0,.04276.12157c.01871.03389.04365.08029.08343.09068a.01721.01721,0,0,0,.02054-.01761C2.73044,3.04049,2.69813,3.01086,2.67708,2.98188Z" /><path d="M2.022,3.08c-.11121.07846-.21793.03329-.34094.04024-.05517.00312-.10916.018-.16463.01885a.6157.6157,0,0,0-.12251.00161.00775.00775,0,0,0-.00417.0115c.06675.08985.20961.03688.30092.02092.10556-.01846.27737.03127.35862-.06087C2.06474,3.09468,2.04208,3.06581,2.022,3.08Z" /><path d="M2.86683,4.0952c-.00432-.11262-.0298-.22585-.03608-.339a5.49665,5.49665,0,0,0-.03721-.65731.00424.00424,0,0,0-.00835-.00064.93375.93375,0,0,0-.03224.1546c-.19892-.02673-.39831-.04885-.597-.07737a.00864.00864,0,0,0-.00352.01691,3.74179,3.74179,0,0,0,.59352.12975,2.641,2.641,0,0,0,.02811.50527c.0076.06023.01451.12055.02273.18069a.36671.36671,0,0,1-.0152.17876.1093.1093,0,0,0,.02476.12855c.0184.0179.04166-.00709.032-.02706C2.81528,4.24088,2.869,4.15079,2.86683,4.0952Z" /><path d="M2.62235,2.44285c-.02557-.09139-.0699-.17691-.10094-.26644A.00793.00793,0,0,0,2.506,2.1792a.48424.48424,0,0,0,.08137.28A.01957.01957,0,0,0,2.62235,2.44285Z" /><path d="M1.37937,2.93986a.01533.01533,0,0,0-.03017-.00232.172.172,0,0,0-.00995.11028.02706.02706,0,0,0,.05183-.00267A.259.259,0,0,0,1.37937,2.93986Z" /><path d="M2.41623,2.49793a.08931.08931,0,0,0-.105-.01462.07262.07262,0,0,0-.03328.07291c.00475.01844.029.01348.03373-.00174.00424-.01372.01494-.0161.02739-.01633a.01883.01883,0,0,0,.0226.01267c.013-.00273.02682-.00979.03976-.01114L2.4041,2.539l.00334-.00043-.00022-.00034A.0242.0242,0,0,0,2.41623,2.49793Z" /><path d="M2.39144.39587c-.0331.00185-.054.0453-.06223.07271a.104.104,0,0,0,.00914.09286A.01891.01891,0,0,0,2.37049.55613.58538.58538,0,0,1,2.39731.48228c.01064-.02253.0268-.05014.01538-.07521A.02041.02041,0,0,0,2.39144.39587Z" /><path d="M2.95784.35239A.512.512,0,0,0,2.69993.21275C2.59307.2009,2.5218.27734,2.45009.34442c-.0029.0027-.00006.00819.00385.00619a.38514.38514,0,0,1,.264-.05246A.55987.55987,0,0,1,2.898.40447c.15716.12849.01035.295-.004.4448-.00129.0134.01885.02265.02623.00978C3.01594.69211,3.12669.511,2.95784.35239Z" /><path d="M2.79511.81594A.63844.63844,0,0,1,2.674.90789a.21593.21593,0,0,1-.18088.0377l-.00278.003a.09038.09038,0,0,0,.12677.04612A.17116.17116,0,0,1,2.619,1.023a.20023.20023,0,0,1-.03388.08543.0205.0205,0,0,0,.02944.02775.11943.11943,0,0,0,.06772-.103.12584.12584,0,0,0-.01749-.06.23922.23922,0,0,0,.14364-.1478C2.81.81839,2.8018.80923,2.79511.81594Z" /><path d="M2.65642.58805a.15809.15809,0,0,0-.0653-.02444A.06862.06862,0,0,0,2.52793.585a.01814.01814,0,0,0,.004.02463.08592.08592,0,0,0,.05793.00981C2.61.61855,2.63013.61508,2.6504.61413A.01465.01465,0,0,0,2.65642.58805Z" /><path d="M2.43421.60372a.072.072,0,0,0-.03654.01036.01208.01208,0,0,0-.0033.01421A.0463.0463,0,0,0,2.45069.6439a.02054.02054,0,0,0,.012-.017A.024.024,0,0,0,2.43421.60372Z" /><path d="M2.69957.53436a.118.118,0,0,0-.07715-.037c-.02717-.00345-.07733-.00593-.0982.0149a.01125.01125,0,0,0-.00153.01525c.0158.02392.05206.01935.07713.01843a.17335.17335,0,0,1,.08364.011C2.69656.56287,2.70852.54477,2.69957.53436Z" /><path d="M2.5124.75676A.13069.13069,0,0,0,2.462.7558a.08815.08815,0,0,0-.04076.0116L2.41889.77768a.07013.07013,0,0,0,.099.01209A.01948.01948,0,0,0,2.5124.75676Z" /><path d="M2.55976.82553A.091.091,0,0,0,2.526.83044.14577.14577,0,0,1,2.48624.832C2.46811.83165,2.43676.834,2.4394.85958l.0002.002a.02331.02331,0,0,0,.01484.01787A.088.088,0,0,0,2.52093.87356.07537.07537,0,0,0,2.56958.84111C2.57325.83411,2.56639.82636,2.55976.82553Z" /><path d="M2.86849.65207C2.84617.59916,2.79741.5744,2.76312.53106a.00631.00631,0,0,0-.01106.00341.13516.13516,0,0,0,.03243.091l.00958.01637L2.78921.65725a.23156.23156,0,0,1-.01067.02967c-.0081.01864-.02419.03317-.03114.05213A.01611.01611,0,0,0,2.761.76056.07108.07108,0,0,0,2.82037.71438a.35566.35566,0,0,1,.00669.06087A.02087.02087,0,0,0,2.8672.78432.16084.16084,0,0,0,2.86849.65207Z" /><path d="M2.49344.45163a.13955.13955,0,0,0-.0453.03131.10976.10976,0,0,0-.015.01883C2.42751.5111,2.42712.522,2.42179.53119c-.00519.00891.00565.022.01432.0135A.095.095,0,0,1,2.45838.5325l.01978-.013L2.51791.49092C2.53954.47488,2.51728.44106,2.49344.45163Z" /><path d="M2.99364,1.09353A.30738.30738,0,0,1,2.93213.92032C2.93225.90887,2.9166.90874,2.91209.917a.13663.13663,0,0,0,.07068.19378C2.99266,1.11332,2.99816,1.10091,2.99364,1.09353Z" /></g></svg>