<svg xmlns="http://www.w3.org/2000/svg" data-name="Layer 1" viewBox="2.001462936704091 2.79240437167934 5.996815596258855 4.417873501853277" x="0px" y="0px"><title>KAMASUTRA</title><path d="M2.49955,4.929A.16688.16688,0,0,0,2.428,4.85833c-.03627-.01728-.07661-.02568-.11415-.03987a.3439.3439,0,0,1-.18706-.15069A.54691.54691,0,0,1,2.144,4.17784c.005-.01036-.011-.01807-.01744-.00922a.57389.57389,0,0,0-.11822.25043.4613.4613,0,0,0,.02973.25945.39227.39227,0,0,0,.1697.1868.69756.69756,0,0,0,.12855.05231c.02082.0065.04148.0133.062.02059a.39146.39146,0,0,1,.07132.02291A.02224.02224,0,0,0,2.49955,4.929Z" /><path d="M2.79326,5.81561c-.04676-.13425-.20844-.16781-.25428-.30257a.51207.51207,0,0,1-.00982-.228c.00522-.04182.01109-.08416.013-.12629a.89265.89265,0,0,0-.01041-.1307.01022.01022,0,0,0-.02018.00058,1.02144,1.02144,0,0,1-.03436.14728c-.00977.04165-.02021.0829-.02707.12516a.55218.55218,0,0,0,.00511.23671.33049.33049,0,0,0,.122.17425,1.84562,1.84562,0,0,1,.18055.1254A.02109.02109,0,0,0,2.79326,5.81561Z" /><path d="M3.56734,6.07773a.7737.7737,0,0,1-.33972-.07913c-.058-.02232-.115-.04769-.172-.07252-.0272-.01185-.0542-.02407-.08151-.03566-.01353-.00574-.02681-.01243-.04051-.01775a.46.46,0,0,1-.06667-.024.0088.0088,0,0,0-.01017.01436.41551.41551,0,0,1,.04211.04407.48065.48065,0,0,0,.04667.03744.93539.93539,0,0,0,.0865.058,1.36076,1.36076,0,0,0,.19156.0929c.09782.03981.28613.13.36506.01667A.02217.02217,0,0,0,3.56734,6.07773Z" /><path d="M4.72424,4.88075c-.01576.014-.0254.03191-.03986.047a.25793.25793,0,0,1-.06005.04354c-.03113.0176-.065.03006-.09673.04638L4.51671,5.008a.80826.80826,0,0,0-.41409-.05191.85878.85878,0,0,1-.41242-.06563,1.57029,1.57029,0,0,0-.3405-.14872.41871.41871,0,0,0-.34728.08893c-.01016.00815.00214.02237.0126.0154a.41038.41038,0,0,1,.38629-.03274c.1112.04619.21086.11658.32347.15943a1.30975,1.30975,0,0,0,.3799.0557c.06479.00473.12967.0061.19453.01012.05788.00359.11357.00984.17024.01782a.38637.38637,0,0,0-.09558.12786A.49658.49658,0,0,0,4.282,5.1679c-.0484-.0084-.09592-.02144-.144-.03151a2.43873,2.43873,0,0,1-.29481-.08181c-.09269-.032-.1823-.071-.27284-.10828-.04576-.01887-.09107-.03942-.13791-.0555-.04748-.01631-.09763-.02055-.14588-.03425-.00938-.00266-.01483.01151-.00533.01434a.636.636,0,0,1,.13812.0762c.04249.02525.08507.051.12863.07434a1.83144,1.83144,0,0,0,.273.11517,2.62581,2.62581,0,0,0,.28592.07962c.0507.01116.10112.01663.15249.02331a.78146.78146,0,0,0,.08583.0118c-.00669.01771-.013.03562-.019.05359a.23983.23983,0,0,1-.09681.13757.7469.7469,0,0,1-.1692.07141c-.11511.03756-.23247.068-.3487.10185a1.93513,1.93513,0,0,0-.19272.06393L3.5118,5.6826a.04206.04206,0,0,0-.01656-.007c-.05084-.00988-.08546-.05292-.13174-.075-.04778-.02275-.09933-.03524-.1482-.05514a.34558.34558,0,0,1-.13313-.09222C3.06223,5.431,3.044,5.40715,3.02411,5.3848c-.023-.02578-.05486-.04832-.07457-.07584-.00716-.01-.02147.002-.01468.012.02395.03523.03608.0808.05748.11841a.65444.65444,0,0,0,.05256.08262.36678.36678,0,0,0,.1545.10258.65271.65271,0,0,1,.16736.08913.40452.40452,0,0,0,.035.02582c-.01673.0146-.02985.03188-.0476.04831a.00861.00861,0,0,0,.00889.01447.87319.87319,0,0,0,.09224-.02008c.02846-.01195.05742-.02264.08662-.03263.06229-.02132.12529-.04016.18891-.05708a3.15625,3.15625,0,0,0,.355-.103A.4843.4843,0,0,0,4.36225,5.396c.02635-.05182.03632-.10957.05887-.16287a.33459.33459,0,0,1,.11163-.13547c.04625-.03476.09738-.06041.14531-.09236a.14305.14305,0,0,0,.07943-.11188A.02063.02063,0,0,0,4.72424,4.88075Z" /><path d="M4.82267,5.00349c-.04562-.01425-.09065.02308-.12833.04615-.049.03-.09213.07408-.14343.09958a.01.01,0,0,0,.00805.01819c.05311-.0186.10774-.03265.16033-.05291.04011-.01545.10376-.03382.11843-.07813A.0259.0259,0,0,0,4.82267,5.00349Z" /><path d="M4.82943,5.1184c-.04671.01307-.09282.03351-.13916.04872a.19464.19464,0,0,0-.11337.077.01009.01009,0,0,0,.00967.01558c.08059-.01555.24077-.00775.27309-.10436C4.86558,5.13761,4.85055,5.11249,4.82943,5.1184Z" /><path d="M2.98093,4.66788c-.00971-.01432-.03293-.00243-.03007.01347a.13046.13046,0,0,1-.02444.095.15132.15132,0,0,1-.0909.04427A.45852.45852,0,0,0,2.74606,4.85a.68625.68625,0,0,0-.0863.0623c-.01072.00742.0004.02526.012.01951A.74008.74008,0,0,1,2.818,4.8904.38342.38342,0,0,0,2.94866,4.849.12532.12532,0,0,0,2.98093,4.66788Z" /><path d="M2.83848,4.36942c-.03183-.06337-.04883-.1341-.083-.19618a.28525.28525,0,0,0-.14979-.12518.37179.37179,0,0,0-.19283-.01867.35882.35882,0,0,0-.101.03148.37391.37391,0,0,0-.04236.02434c-.02011.01342-.03383.03193-.05349.04557-.01012.007.002.02123.012.01469A.36721.36721,0,0,1,2.334,4.111a.50556.50556,0,0,1,.09537-.01508.35086.35086,0,0,1,.16507.03233.27655.27655,0,0,1,.11853.11907.33784.33784,0,0,0,.10246.141C2.82755,4.396,2.84573,4.38384,2.83848,4.36942Z" /><path d="M2.56232,4.15315c-.049.00984-.02557.05513-.053.083-.0334.03395-.09627.02688-.13332.0601-.04685.042-.024.094-.0238.14864a.82681.82681,0,0,1-.01211.0928.58056.58056,0,0,0-.00134.06761.07946.07946,0,0,0-.066.00118c-.0292.01744-.02262.04763-.00771.07236a.203.203,0,0,0,.18194.0987c.01511-.0027.02427-.02682.00827-.03536a.35712.35712,0,0,1-.1241-.07887l.03113.00624a.02752.02752,0,0,0,.02854-.01779c.0062-.02564.01794-.049.02166-.07543a.35989.35989,0,0,0,.00212-.07928c-.00376-.0461-.02064-.13065.0277-.15808.03425-.01943.07372-.02518.10082-.05625a.08817.08817,0,0,0,.02138-.0403c.00389-.01917-.0111-.05965.00567-.07176A.01.01,0,0,0,2.56232,4.15315Z" /><path d="M2.71175,4.43059a.02224.02224,0,0,0-.0383-.00383.10956.10956,0,0,1-.02264.0258.05921.05921,0,0,1-.02906.00881.01929.01929,0,0,0-.01182.031.05837.05837,0,0,0,.07147.00992.06291.06291,0,0,0,.03158-.031A.05647.05647,0,0,0,2.71175,4.43059Z" /><path d="M2.64878,4.34691a.18393.18393,0,0,0-.06455.03683.25715.25715,0,0,0-.05473.053c-.00434.00623.001.01693.00923.01486a.25839.25839,0,0,0,.06791-.03146.18365.18365,0,0,0,.05853-.04691C2.673,4.36245,2.66319,4.343,2.64878,4.34691Z" /><path d="M2.90123,4.4584l-.00784.00242a.21949.21949,0,0,0-.015.02734.14454.14454,0,0,1-.02642.02874.27468.27468,0,0,0-.04674.05692c-.01837.02893.02917.05369.04122.02178.00664-.01758.02239-.024.0351-.03657a.1325.1325,0,0,0,.02854-.03721C2.91918,4.50219,2.92521,4.46937,2.90123,4.4584Z" /><path d="M2.91131,4.58694c-.00439.00532-.01421.00766-.02.01157l-.0196.01592a.10221.10221,0,0,0-.02854.04367.02094.02094,0,0,0,.03258.02329A.09814.09814,0,0,0,2.91,4.64182l.0092-.02009A.10962.10962,0,0,1,2.926,4.59737C2.93285,4.58781,2.91864,4.578,2.91131,4.58694Z" /><path d="M4.39245,6.05638a.13318.13318,0,0,0-.15282-.08447.31732.31732,0,0,0-.11619.048.33588.33588,0,0,1-.12541.047.74852.74852,0,0,0-.24785.06863.50663.50663,0,0,0-.18844.16025.01415.01415,0,0,0,.02041.019.943.943,0,0,1,.19177-.109.78011.78011,0,0,1,.20233-.045.43912.43912,0,0,0,.19424-.06429c.04856-.03.11611-.07179.1599-.01226C4.35019,6.11107,4.402,6.09041,4.39245,6.05638Z" /><path d="M7.502,7.00107a1.71288,1.71288,0,0,0-.52061-.2617,2.96556,2.96556,0,0,0-.603-.07626,2.546,2.546,0,0,1-.62854-.07834c-.19617-.063-.38906-.139-.58226-.21051-.22615-.08374-.45169-.16883-.68482-.23155-.01078-.0029-.02088.01183-.00985.01865a2.52685,2.52685,0,0,0,.252.13555,1.87673,1.87673,0,0,0-.291-.01954c-.2632.00344-.52534.03844-.78641.06754-.01.00112-.00983.01769.00051.0179.13157.00269.26348.00449.39525.00683.12738.00226.2545-.00357.38186-.00443a2.65477,2.65477,0,0,1,.375.02525c.0786.0106.15689.0247.23542.03657l.00627.00239q.29184.11034.585.21726a1.57722,1.57722,0,0,0,.29374.08023,3.018,3.018,0,0,0,.31488.02709,4.43266,4.43266,0,0,1,.61805.05956,3.34108,3.34108,0,0,1,.62172.238A.02892.02892,0,0,0,7.502,7.00107Z" /><path d="M7.81764,6.81466A.433.433,0,0,0,7.646,6.701a.688.688,0,0,1-.19282-.12162c-.00972-.00838-.0216.0046-.01793.01467a.28889.28889,0,0,0,.11194.13806,1.64846,1.64846,0,0,1,.174.1078.28834.28834,0,0,1,.085.14062.9585.9585,0,0,1,.01272.13808c-.01431-.00068-.03992-.00608-.0466-.007-.02093-.00277-.04187-.00688-.06259-.01083a.48284.48284,0,0,1-.13568-.04073c-.00969-.00523-.02415.00619-.01469.01575a.39737.39737,0,0,0,.15851.114c.04725.01542.14447.04211.176-.01125a.04805.04805,0,0,0,.001-.04576A.33015.33015,0,0,0,7.81764,6.81466Z" /><path d="M7.98416,5.0536a.21317.21317,0,0,0-.17475.02835.73478.73478,0,0,1-.19709.08652A1.6798,1.6798,0,0,1,7.15761,5.16a2.4873,2.4873,0,0,1-.86967-.19526.91185.91185,0,0,0-.2132-.09354.54426.54426,0,0,0-.25887.0385c-.01367.00421-.00635.025.00687.02329a.49766.49766,0,0,1,.24862.01352,1.98771,1.98771,0,0,1,.19274.103,1.617,1.617,0,0,0,.41334.14092,3.075,3.075,0,0,0,.43455.0573,3.07665,3.07665,0,0,0,.44766.01512.55053.55053,0,0,0,.22793-.06893c.03233-.01814.06356-.03828.09593-.05628.03258-.01812.06818-.02735.10191-.04266A.02263.02263,0,0,0,7.98416,5.0536Z" /><path d="M7.98765,5.183A.02486.02486,0,0,0,7.945,5.17871a.57062.57062,0,0,1-.04327.07016.69321.69321,0,0,1-.05709.0573A.83891.83891,0,0,0,7.726,5.4517c-.0376.05446-.09668.12266-.16928.08469-.028-.01464-.052-.03507-.08114-.04829a.36335.36335,0,0,0-.09609-.027,1.93968,1.93968,0,0,0-.43984.02407c-.08147.00669-.16319.0113-.24488.01435-.08492.00316-.17154.00864-.25637.00735a.01087.01087,0,0,0-.00216.02162c.07083.01142.13959.02558.21135.0316.06808.00571.13613.0094.20445.00975a3.9709,3.9709,0,0,0,.39671-.02446.40039.40039,0,0,1,.17763.01606c.05458.02034.09666.06746.15747.0709.12352.007.17368-.11655.23948-.19585C7.87886,5.36951,8.0373,5.29338,7.98765,5.183Z" /><path d="M5.03772,3.57031c-.12139-.02114-.18065.13258-.21361.222a1.09189,1.09189,0,0,0-.05127.42551,1.22058,1.22058,0,0,1-.02966.41583A.63132.63132,0,0,1,4.659,4.8035a.38256.38256,0,0,0-.08326.1442.01025.01025,0,0,0,.01843.00689A.49333.49333,0,0,1,4.708,4.8322a.38811.38811,0,0,0,.096-.13281.85146.85146,0,0,0,.05708-.3625,2.5735,2.5735,0,0,1,.01036-.41619.82941.82941,0,0,1,.05435-.197c.0205-.04907.05546-.10828.113-.11594A.019.019,0,0,0,5.03772,3.57031Z" /><path d="M6.37214,5.51011a.24743.24743,0,0,0-.06332-.12928.91658.91658,0,0,0-.241-.2257,1.36381,1.36381,0,0,0-.14277-.07491.46166.46166,0,0,0-.13609-.051,1.25119,1.25119,0,0,0-.01545-.125c-.0122-.0683-.0305-.13546-.04242-.20373-.01209-.06925-.02079-.13939-.02694-.20941l-.00585-.06778A1.04482,1.04482,0,0,0,5.719,4.286c.00424-.0628.00853-.12557.01211-.18842a1.93185,1.93185,0,0,0,.00577-.37314l-.00077-.00235a.09882.09882,0,0,0,.05118-.0254c.0097-.00915.00723-.03139-.00936-.031a.19539.19539,0,0,1-.14159-.05873c-.01739-.01614-.03433-.03278-.052-.04861-.02042-.01826-.04505-.03-.06515-.0482-.00644-.00582-.01483.00437-.01.01075.02234.02972.03044.07157.05025.10386a.24087.24087,0,0,0,.02371.03228.21863.21863,0,0,0-.029.04634.17084.17084,0,0,0-.01.13434A.01331.01331,0,0,0,5.56839,3.837a.43728.43728,0,0,1,.04672-.10133A.30137.30137,0,0,1,5.643,3.70525a.15772.15772,0,0,0,.07375.0187,1.66529,1.66529,0,0,0-.06018.37441l-.00747.08041c-.01859-.04639-.03878-.092-.05272-.1366-.00311-.00993-.01661-.00534-.01812.0029a.83556.83556,0,0,0,.03722.2618.19952.19952,0,0,1-.02008.13406.08928.08928,0,0,1-.0188.02022l.005-.02288a.67511.67511,0,0,0-.01389-.233.77194.77194,0,0,0-.09518-.21593.01088.01088,0,0,0-.01988.0088A.93077.93077,0,0,1,5.48435,4.18a1.134,1.134,0,0,1,.00972.17849.14235.14235,0,0,1-.05868.13236.20372.20372,0,0,1-.0728.03319l-.02067.00172c-.00488-.09541-.00965-.19082-.01509-.28619-.00966-.1695.00971-.38169-.12317-.50973a.01115.01115,0,0,0-.01874.01152,1.85463,1.85463,0,0,1,.05355.50374c.00836.19122.0152.38274.02744.57376a2.64994,2.64994,0,0,0,.13363.51519,1.02941,1.02941,0,0,0,.178.44151.71215.71215,0,0,0,.188.14628.64366.64366,0,0,0,.233.09313.02878.02878,0,0,0,.01935-.05173.93775.93775,0,0,0-.17778-.08833.01329.01329,0,0,0-.005-.01419.58571.58571,0,0,1-.0843-.09107.43533.43533,0,0,1-.06221-.09831,1.01374,1.01374,0,0,1-.0658-.27032c-.03011-.1897-.05987-.37977-.08709-.56985a.01.01,0,0,0-.01972.00056q-.0036.08-.00337.15945a.11976.11976,0,0,0-.08839-.0028,1.18588,1.18588,0,0,1,.0217-.161c.01195-.0537.028-.10639.04381-.159a.64374.64374,0,0,0,.02887-.11577.09753.09753,0,0,0,.09516-.01285A.16785.16785,0,0,0,5.63755,4.521a1.45139,1.45139,0,0,0,.016.2c.01073.07385.02729.1466.038.22042a1.80058,1.80058,0,0,1,.01593.23136,1.29841,1.29841,0,0,0,.03763.41107.38727.38727,0,0,0,.27649.23137.028.028,0,0,0,.02582-.04887c-.04514-.03479-.097-.05923-.14108-.09509a.26945.26945,0,0,1-.09164-.15047,1.92058,1.92058,0,0,1-.02106-.39564c.01905.00952.03932.01728.05746.02549.03894.01764.07788.03525.11556.0555a1.06373,1.06373,0,0,1,.21754.15349c.05334.049.17108.13644.10759.21453a.38842.38842,0,0,1-.23826.12273A.00768.00768,0,0,0,6.054,5.712a.46706.46706,0,0,0,.15124-.0073.25472.25472,0,0,0,.12264-.07354A.17158.17158,0,0,0,6.37214,5.51011ZM5.49006,5.075a.03387.03387,0,0,0,.02412.002,2.84477,2.84477,0,0,0,.03717.38209.81068.81068,0,0,0,.09117.26882l.01153.01931-.0053-.00541a1.03992,1.03992,0,0,1-.17051-.45166c-.01842-.06735-.04027-.13322-.06277-.19912l.00331-.03522A.2.2,0,0,1,5.49006,5.075Zm-.06859-.42353a1.27359,1.27359,0,0,0-.05826.17291l-.00332.0133-.00362-.04891q-.00551-.09136-.01016-.18279a.22444.22444,0,0,0,.10117-.01249C5.43781,4.61249,5.4295,4.63216,5.42147,4.65144Z" /><path d="M7.41349,6.55081a.60844.60844,0,0,0-.27811-.06923,1.11075,1.11075,0,0,1-.28249-.0323,4.71188,4.71188,0,0,1-.53447-.211,1.82092,1.82092,0,0,0-.26918-.0911c-.09384-.02255-.18978-.03279-.28454-.05018a.5632.5632,0,0,1-.12788-.16747c-.00391-.01211-.02212-.00563-.02067.0061a.31523.31523,0,0,0,.03937.13707l-.05347-.015a2.25683,2.25683,0,0,0-.23085-.45652.579.579,0,0,0-.15363-.19485l-.00265-.00193a.66445.66445,0,0,1-.07118-.255q-.02865-.18579-.0565-.37173c-.01906-.12653-.0366-.25334-.0578-.37953-.01014-.06034-.02186-.12053-.03427-.18043-.0136-.06564-.035-.12948-.04748-.19521a.0111.0111,0,0,0-.02192.00346c.00416.06722-.00038.13477.00344.20217.00378.06678.009.13368.0166.20012.01557.13549.03515.2704.05537.40526.01869.12468.03425.25107.062.37415a.51535.51535,0,0,0,.05016.13864l-.00717-.0032a.39816.39816,0,0,0-.05924-.02151c-.02287-.00588-.04759-.0057-.06973-.01378-.01041-.0038-.01983.01208-.00943.01784.03337.01848.06173.0498.09452.07071.0313.02.06194.04154.0916.06386a.869.869,0,0,1,.1637.18264,1.36834,1.36834,0,0,1,.20259.38795,3.47007,3.47007,0,0,1-.3817-.16911q-.16581-.08251-.32776-.17251A1.24705,1.24705,0,0,0,4.51415,5.543l.03751-.03992a.50027.50027,0,0,0,.05517-.06723.11491.11491,0,0,1,.06786-.059,1.26083,1.26083,0,0,0,.17985-.07645c.01451-.008.00964-.03278-.00867-.02942a1.10086,1.10086,0,0,0-.17814.05151.41127.41127,0,0,0-.07209.029.2004.2004,0,0,0-.05216.05731,1.144,1.144,0,0,1-.13665.13c-.0442.03923-.08778.07918-.13273.11757-.09.07685-.18451.1477-.28.21747-.04755.03474-.09484.0698-.14306.10361-.05422.038-.10665.08415-.1643.11663-.013.00733-.00409.02857.00954.02156.05219-.02686.1087-.045.16124-.07168.05094-.0259.101-.0544.1497-.08433A2.54054,2.54054,0,0,0,4.299,5.7451c.06129-.051.11911-.10458.17485-.1607a.81112.81112,0,0,0,.24656.17712q.14549.08241.29448.15835a3.17187,3.17187,0,0,0,.58827.24441,3.14977,3.14977,0,0,0,.32387.06219,1.49523,1.49523,0,0,1,.291.08185c.17693.06812.34566.15968.5276.21453a1.10366,1.10366,0,0,0,.30881.0499,1.5805,1.5805,0,0,0,.16893-.00881.36373.36373,0,0,1,.18124.01069C7.42024,6.58087,7.42754,6.55817,7.41349,6.55081Z" /><path d="M5.84687,5.98388a.22012.22012,0,0,0-.1295-.03295c-.00916.00021-.01638.01235-.00689.01844.03316.02127.06584.04583.09784.069.028.02021.05535.057.0916.05919a.02171.02171,0,0,0,.02346-.01919C5.92524,6.0348,5.88037,6.00426,5.84687,5.98388Z" /><path d="M5.98484,5.89838c-.00392-.03038-.03611-.05-.05952-.06638-.028-.01955-.0636-.03031-.08939-.05193-.01048-.00879-.02274.0086-.01229.01736a.27446.27446,0,0,1,.03588.04569.36364.36364,0,0,0,.0348.0371c.0215.02045.042.04316.07326.04189A.021.021,0,0,0,5.98484,5.89838Z" /><path d="M5.91795,2.8195a.55273.55273,0,0,0-.43413.03959,1.27794,1.27794,0,0,0-.672.65456,1.20724,1.20724,0,0,0-.06695.25394c-.01457.088-.01515.17855-.03142.26591-.00246.01318.01827.01517.02071.00207a1.71558,1.71558,0,0,1,.06041-.20605c.02016-.06263.04272-.12416.06563-.18581A1.10309,1.10309,0,0,1,5.06083,3.294a1.45174,1.45174,0,0,1,.32437-.26992.7726.7726,0,0,1,.37021-.14272.30262.30262,0,0,1,.20087.06776c.05167.03942.14449.08939.13145.16573-.00326.01911.026.02516.03254.00755C6.17,2.98894,6.0269,2.86683,5.91795,2.8195Z" /><path d="M6.02593,3.15084a.12115.12115,0,0,0-.10774-.03727,1.23467,1.23467,0,0,0-.174.02409.6389.6389,0,0,0-.28547.094.25393.25393,0,0,0-.06816.12042.35657.35657,0,0,1-.083.14162.12663.12663,0,0,1-.13358.03695.2529.2529,0,0,0-.13288.00057c-.01243.00362-.00937.02376.00318.02011.04433-.01291.08694.03432.12566.0515a.15751.15751,0,0,0,.12239.00479.34769.34769,0,0,0,.18138-.21738c.0154-.04436.02645-.08429.07117-.10682a.585.585,0,0,1,.13352-.03858,1.52317,1.52317,0,0,0,.16862-.0447.2396.2396,0,0,1,.15839-.02068C6.02166,3.18562,6.03862,3.16431,6.02593,3.15084Z" /><path d="M5.92747,3.00083c-.04915-.007-.09694-.022-.14615-.02952a.582.582,0,0,0-.12371-.00337.42846.42846,0,0,0-.232.09645,1.09069,1.09069,0,0,0-.18208.17629c-.02614.03127-.05165.06292-.07868.09345a.467.467,0,0,1-.10988.10546c-.01179.00675-.00326.02625.00861.01946.03486-.01994.07239-.035.1069-.05549a.78355.78355,0,0,0,.09391-.069c.06411-.05239.11892-.11427.18215-.16753a.74733.74733,0,0,1,.20579-.12379.26772.26772,0,0,1,.1383-.00787A.45455.45455,0,0,0,5.9285,3.037.0183.0183,0,0,0,5.92747,3.00083Z" /><path d="M5.86018,3.43215c-.01223-.00943-.02556-.01565-.0384-.02393A.06279.06279,0,0,1,5.79129,3.376a.01064.01064,0,0,0-.021.00332.12088.12088,0,0,0,.01785.06212.0639.0639,0,0,0,.06311.029A.02145.02145,0,0,0,5.86018,3.43215Z" /><path d="M5.9188,3.341a.10753.10753,0,0,0-.1175-.03116A.01022.01022,0,0,0,5.80188,3.33a.32508.32508,0,0,1,.09673.03924C5.91523,3.37771,5.92923,3.3539,5.9188,3.341Z" /><path d="M6.087,3.16275a.01145.01145,0,0,0-.01938.00322.24289.24289,0,0,0-.01388.08036.64075.64075,0,0,1-.02639.08157.02133.02133,0,0,0,.02816.0265C6.12219,3.332,6.12272,3.21029,6.087,3.16275Z" /><path d="M5.96512,3.46263a.149.149,0,0,0-.05991.11184l-.01279.00726c-.01576.00574-.01113.02586.001.032a.0504.0504,0,0,0,.05122,0,.02818.02818,0,0,0,.01672-.0231.43241.43241,0,0,1,.018-.1179A.0091.0091,0,0,0,5.96512,3.46263Z" /></svg>