<svg xmlns="http://www.w3.org/2000/svg" data-name="Layer 1" viewBox="2.3693738139893883 2.1217448544862734 5.261262388444058 5.756229637112156" x="0px" y="0px"><title>KAMASUTRA</title><path d="M4.26389,6.83839a1.196,1.196,0,0,1-.14628.0573.43162.43162,0,0,1-.10775.00394l-.00633-.0122a1.78185,1.78185,0,0,0-.32691-.2879,2.70857,2.70857,0,0,0-.35955-.24026,1.46763,1.46763,0,0,0-.39859-.13258c-.07185-.01466-.14431-.02589-.21665-.03783-.07664-.01266-.15571-.01629-.23167-.03054-.01268-.00238-.0179.01913-.00516.02223.07193.01754.14218.04583.21408.065.065.01736.13.03492.19511.05187a1.80176,1.80176,0,0,1,.39963.14368,2.64876,2.64876,0,0,1,.34113.22951c.10709.08091.20864.17445.3215.24779a.118.118,0,0,0-.02846.01353.3285.3285,0,0,0-.054.02027.65165.65165,0,0,0-.14584.09735,2.112,2.112,0,0,0-.25321.27986.73183.73183,0,0,1-.265.22953.34318.34318,0,0,1-.31486-.01189c-.01406-.01122-.03123.009-.02095.02246a.29711.29711,0,0,0,.27438.1308.5277.5277,0,0,0,.32229-.17575,2.83145,2.83145,0,0,0,.23751-.32448.6469.6469,0,0,1,.1525-.15174.759.759,0,0,0-.01292.1c-.00131.01593.02411.02332.0284.00658.01759-.06861.079-.11318.11153-.17243.015-.00533.03021-.01006.04583-.014a.0255.0255,0,0,0,.017-.01517.289.289,0,0,0,.267-.0735C4.31633,6.85639,4.2876,6.83055,4.26389,6.83839Z" /><path d="M3.79775,7.204a2.58575,2.58575,0,0,1-.16191.26257.68529.68529,0,0,1-.19505.20388.66273.66273,0,0,1-.51879.07542c-.01971-.005-.03935.02237-.0183.03463A.5853.5853,0,0,0,3.47948,7.774a.62947.62947,0,0,0,.2297-.226,1.42954,1.42954,0,0,0,.11762-.33327A.01551.01551,0,0,0,3.79775,7.204Z" /><path d="M3.96293,7.25532a.16324.16324,0,0,0-.11478.1236.86523.86523,0,0,1-.07.18281.70252.70252,0,0,1-.125.1568.49523.49523,0,0,1-.1806.12213c-.01579.00482-.00522.02824.01039.02348a.793.793,0,0,0,.19447-.07123.57336.57336,0,0,0,.15025-.13542.56668.56668,0,0,0,.094-.17958.58669.58669,0,0,1,.06491-.1846A.02453.02453,0,0,0,3.96293,7.25532Z" /><path d="M4.06905,7.25857a.28105.28105,0,0,0-.09112.14921.9902.9902,0,0,0-.01.19014.267.267,0,0,1-.1992.23141c-.02158.00731-.01144.03552.00627.03923A.261.261,0,0,0,4.05119,7.709a.46017.46017,0,0,0,.01992-.19992A.74405.74405,0,0,1,4.103,7.28283.0218.0218,0,0,0,4.06905,7.25857Z" /><path d="M4.42622,7.62944a.40239.40239,0,0,0-.02251-.10679c-.01658-.04774-.047-.09119-.06112-.13927a.01477.01477,0,0,0-.01054-.01071.1014.1014,0,0,0,.04483-.07155.02661.02661,0,0,0-.03695-.02677.7726.7726,0,0,1-.078.04854.11486.11486,0,0,1-.04486.00878.03945.03945,0,0,1-.02082-.00506c-.00539-.00388-.007-.0156-.00717-.00742a.01359.01359,0,0,0-.01539-.01453.0398.0398,0,0,0-.035.05243.05481.05481,0,0,0,.01712.02811.43723.43723,0,0,0,.02374.20958.221.221,0,0,1-.0129.1528c-.02864.03654-.07067.06078-.1.09762a.021.021,0,0,0,.02024.03258.361.361,0,0,0,.135-.05194.14945.14945,0,0,0,.05792-.13136.381.381,0,0,0-.02639-.154.55611.55611,0,0,1-.05911-.137.13963.13963,0,0,0,.02536.00317.193.193,0,0,0,.0958-.02356l-.00034.00459c.0044.07057.00827.13995.01574.21067a.31718.31718,0,0,1-.0008.09429c-.00592.03045-.02259.05651-.02987.08622a.04063.04063,0,0,0,.06316.04515A.21608.21608,0,0,0,4.42622,7.62944Z" /><path d="M5.10993,7.57855c-.0548-.001-.10748.02542-.16288.02868a.56716.56716,0,0,1-.199-.03033.53091.53091,0,0,1-.17722-.07053c-.01923-.01595-.03579-.03535-.05422-.0522a.98467.98467,0,0,1-.0927-.07686.01391.01391,0,0,0-.02151.0176c.04608.06263.05633.151.123.19981a.60626.60626,0,0,0,.20776.07471.73976.73976,0,0,0,.21144.0252.23518.23518,0,0,0,.18634-.07A.02956.02956,0,0,0,5.10993,7.57855Z" /><path d="M6.95722,7.46261c-.05058-.03941-.04773-.10739-.0645-.164A.43351.43351,0,0,0,6.792,7.13118c-.05043-.05526-.1073-.10408-.1522-.16431a.83381.83381,0,0,1-.10252-.18837c-.05679-.141-.08681-.29027-.12986-.43559a.307.307,0,0,0-.09793-.16532.61516.61516,0,0,1-.11676-.08745.27377.27377,0,0,1,.14519-.18487c.01249-.00576.01119-.02893-.00457-.02857-.13324.003-.20216.14717-.22942.25944-.0331.13632-.06033.274-.10247.408a.88213.88213,0,0,1-.191.35677c-.05261.05574-.11349.103-.1678.157a1.9943,1.9943,0,0,0-.13381.151,2.07334,2.07334,0,0,1-.31374.33627c-.01454.01132.0003.03156.01608.02616a.72057.72057,0,0,0,.30309-.22859,3.38238,3.38238,0,0,1,.27945-.29947A1.27417,1.27417,0,0,0,6.14557,6.339c.01165-.05716.01854-.12105.0309-.18271a.3121.3121,0,0,0,.02566.03028c.02209.02331.04661.04423.06831.06791a.2676.2676,0,0,1,.05516.11688,4.383,4.383,0,0,0,.12917.46038.84906.84906,0,0,0,.11724.21032c.046.05891.10356.10705.15277.16308a.35366.35366,0,0,1,.06436.09717c.01282.031.01911.06429.03263.095.02357.05347.05463.10642.11739.11361A.02687.02687,0,0,0,6.95722,7.46261Z" /><path d="M6.40888,5.51351c-.058.04938-.099.11428-.15565.16488-.01608.01435.00477.04017.02131.026.05746-.04911.12683-.08059.18325-.13113C6.49463,5.54029,6.44692,5.48112,6.40888,5.51351Z" /><path d="M6.45609,5.62158a1.535,1.535,0,0,0-.162.16535.01577.01577,0,0,0,.02.02439,1.53349,1.53349,0,0,0,.1933-.12709A.04051.04051,0,0,0,6.45609,5.62158Z" /><path d="M6.51834,5.70594a.21258.21258,0,0,0-.04219.04161c-.01347.01511-.02832.02877-.04295.04275-.01816.01735.00586.04765.025.03056.01571-.014.03109-.02822.04788-.04092a.21914.21914,0,0,0,.047-.04156C6.57062,5.715,6.53969,5.69244,6.51834,5.70594Z" /><path d="M3.11579,5.89317a.23027.23027,0,0,0-.2275.05117.28252.28252,0,0,1-.12.06056c-.04793.0075-.09668.00567-.14455.01382a.48566.48566,0,0,0-.25021.1174c-.01009.00937-.00031.02847.01332.02167a.62665.62665,0,0,1,.2231-.07062A1.0444,1.0444,0,0,0,2.832,6.07907c.06669-.02057.115-.07714.18076-.09768.084-.02624.09921.04919.11678.11275a.03106.03106,0,0,0,.06129-.00175A.1728.1728,0,0,0,3.11579,5.89317Z" /><path d="M4.8365,5.81837a.40891.40891,0,0,0-.16475.15329,2.10722,2.10722,0,0,1-.12416.21686c-.0276.03242-.26325.24291-.33859.343a.47279.47279,0,0,0-.13013-.13857.75576.75576,0,0,0-.22769-.11434,2.19565,2.19565,0,0,0-.286-.066,1.07346,1.07346,0,0,1-.31771-.08241.01285.01285,0,0,0-.01484.021,1.58133,1.58133,0,0,0,.52286.1929.93069.93069,0,0,1,.22294.10223.509.509,0,0,1,.09113.07326c.02854.02975.04748.06677.07521.09648.02569.02753.082.01541.08491-.02225l.01249-.00807a1.29834,1.29834,0,0,0,.12347-.09384,2.74982,2.74982,0,0,0,.21845-.20122.596.596,0,0,0,.12467-.21721.36457.36457,0,0,1,.0733-.11488.57161.57161,0,0,0,.08862-.09838A.02827.02827,0,0,0,4.8365,5.81837Z" /><path d="M4.60449,6.9332c-.01843-.0603-.08562-.10986-.14043-.05679a.015.015,0,0,0,.01553.02527c.08627-.03336.05659.23646.05691.27149.00022.02429.03486.04557.05021.01878A.35306.35306,0,0,0,4.60449,6.9332Z" /><path d="M4.21694,6.97481c-.0079-.01543-.03437-.00965-.03049.009.00609.02926.00278.05936.00938.08844.00417.01838.03419.02579.04007.004A.138.138,0,0,0,4.21694,6.97481Z" /><path d="M4.39888,6.8714a.01537.01537,0,0,0-.024.01092.50424.50424,0,0,0,.00405.05292c.0013.019.00054.03823.00157.05732a.03043.03043,0,0,0,.03114.0256.03131.03131,0,0,0,.02963-.02734A.11877.11877,0,0,0,4.39888,6.8714Z" /><path d="M5.09975,6.76558a.18934.18934,0,0,0-.15639-.05406.21069.21069,0,0,0-.06091.01669A.14635.14635,0,0,0,4.84,6.70365a.482.482,0,0,0,.06862-.053.349.349,0,0,0,.09486-.21469,1.73921,1.73921,0,0,0,.03369-.2894A.49715.49715,0,0,0,4.993,5.87439a.02092.02092,0,0,0-.03561.00592.82385.82385,0,0,0-.00966.239,1.7429,1.7429,0,0,1-.014.24564.39536.39536,0,0,1-.06865.22036c-.02439.0261-.048.05456-.07314.07967a.20605.20605,0,0,1-.03031.02443.162.162,0,0,0-.05112.00783.16384.16384,0,0,0-.1006.1414c-.00257.01635.023.01884.02554.00255.00817-.05193.06392-.0734.10975-.07718a.13246.13246,0,0,1,.0685.01531l-.01252.01713c-.03345.05258-.041.124-.08168.17094-.00976.01125.00879.02885.01938.01807.05429-.05529.09148-.13679.1636-.17086a.11368.11368,0,0,1,.11228.0018c.03841.026.04045.06631.05368.10616.01219.03673.05974.025.0735-.00223A.1432.1432,0,0,0,5.09975,6.76558Z" /><path d="M4.9384,5.70885a.796.796,0,0,1-.15153-.16666.754.754,0,0,1-.048-.09375c-.01586-.03513-.03889-.06706-.05725-.101a1.763,1.763,0,0,1-.15549-.42259,1.02467,1.02467,0,0,0-.08375-.22732c-.03847-.07429-.08008-.14625-.1124-.22361a2.26606,2.26606,0,0,1-.15406-.48561.71563.71563,0,0,1,.07357-.50578l.0016-.00872a.2416.2416,0,0,1,.02245.03227c.01586.02752.01742.06094.03828.08484a.02206.02206,0,0,0,.03479-.00121c.03236-.05573-.0189-.12916-.0604-.17234a.15571.15571,0,0,0,.0577-.09236.01644.01644,0,0,0-.02281-.01652.33463.33463,0,0,0-.09078.05837.33871.33871,0,0,0-.1636-.0816.01107.01107,0,0,0-.01113.01537.39382.39382,0,0,0,.126.10963l-.003.00268a.0276.0276,0,0,0,.0285.04636l.02289-.00824.01135.0114-.01005.00309c-.2521.25086-.15013.63011-.05045.92548a1.53459,1.53459,0,0,0,.1065.25013,2.16628,2.16628,0,0,1,.12969.23169,2.101,2.101,0,0,1,.06883.268q.0078.03057.01744.06066a1.05217,1.05217,0,0,0-.14794.24528c-.051.097-.10041.19511-.14647.29463a2.46744,2.46744,0,0,0-.11663.29564.471.471,0,0,0-.02245.289c.00523.01508.02651.009.02857-.00457a.97111.97111,0,0,1,.08461-.28916c.04522-.0932.094-.18479.14-.27763q.06788-.137.14185-.27072c.028-.05076.06156-.10155.08842-.15462l.013.02674a1.07612,1.07612,0,0,0,.0648.11346.70662.70662,0,0,0,.08949.09676c.06169.06267.12138.127.18795.18472C4.93368,5.77288,4.96318,5.73063,4.9384,5.70885Z" /><path d="M5.40465,6.10806a.23182.23182,0,0,0-.10175-.048c-.04933-.0169-.07675-.06332-.10859-.10185a.9694.9694,0,0,0-.10872-.10206.43084.43084,0,0,0-.12287-.086c-.01325-.00548-.021.01056-.01471.02058a1.33771,1.33771,0,0,0,.09878.11965c.03351.04177.06153.08893.09528.13126a.25354.25354,0,0,0,.09848.08015c.04559.01871.09494.00254.13955.02059C5.39921,6.15015,5.42039,6.12369,5.40465,6.10806Z" /><path d="M5.444,6.0353c-.05942-.03938-.13627-.04645-.19709-.08255a.01764.01764,0,0,0-.02037.02877.68144.68144,0,0,0,.09351.07315.2456.2456,0,0,0,.10283.0371A.03143.03143,0,0,0,5.444,6.0353Z" /><path d="M5.44752,5.87242c-.06012-.00836-.1188-.01027-.17883-.022-.01486-.00291-.019.01718-.00942.02518a.33027.33027,0,0,0,.13847.06221.51371.51371,0,0,1,.06453.01786.17438.17438,0,0,0,.05994.02093A.028.028,0,0,0,5.55207,5.945C5.549,5.89474,5.48928,5.87823,5.44752,5.87242Z" /><path d="M5.53982,5.80836a.91693.91693,0,0,1-.19369-.154.2863.2863,0,0,0-.23079-.06056.03576.03576,0,0,0-.00682.06821c.03867.01813.0821.025.12189.041a.95255.95255,0,0,1,.10856.05229c.03082.01727.05993.03761.09138.05376a.36432.36432,0,0,0,.10229.03021C5.55091,5.843,5.55623,5.81482,5.53982,5.80836Z" /><path d="M5.42072,5.57309a.52964.52964,0,0,0-.35532-.08445c-.03948.00234-.078.01809-.10631-.01558a.31493.31493,0,0,1-.03842-.09372c-.02393-.06667-.05225-.13112-.0799-.19628-.05523-.13017-.10542-.26222-.15822-.39335-.02525-.0627-.05456-.12343-.08048-.1858a.59314.59314,0,0,1-.06384-.2291.01284.01284,0,0,0-.02554-.00255.436.436,0,0,0,.01566.20541c.02188.07348.04314.14748.06792.22.05059.14809.10868.2945.17191.43764a1.53239,1.53239,0,0,0,.10269.19581c.02733.04367.04543.1095.10116.12383a.37759.37759,0,0,0,.09952.00016.77918.77918,0,0,1,.11684.00662c.07477.01016.14223.043.2159.05528C5.4306,5.62143,5.4371,5.58751,5.42072,5.57309Z" /><path d="M5.56106,2.82776c-.08835.12592-.15069.2718-.22822.40468a2.816,2.816,0,0,1-.25644.37611c-.03729.04518-.07686.08825-.11721.1306l-.01427-.02644a.54863.54863,0,0,0-.03851-.0783.02539.02539,0,0,0-.04289.00713.1816.1816,0,0,0,.02464.17112c-.035.03589-.07.07177-.10413.10846a1.6448,1.6448,0,0,0-.13253.15878c-.01353.01879-.02679.03807-.03931.05775a.98559.98559,0,0,0-.1949-.22527c-.00918-.00768-.02023.00421-.01678.01373a.98738.98738,0,0,0,.16616.28583l.00538.00526a.39658.39658,0,0,1-.01978.04945c-.00689.01336.01563.02534.02344.01239A.88444.88444,0,0,1,4.64785,4.194c.02326-.029.0471-.05748.07207-.085.04765-.05258.09712-.10383.1472-.15409a4.23252,4.23252,0,0,0,.29059-.30975A2.75849,2.75849,0,0,0,5.412,3.26743a2.41661,2.41661,0,0,0,.20331-.411A.03105.03105,0,0,0,5.56106,2.82776Z" /><path d="M5.725,2.13908A.02126.02126,0,0,0,5.68441,2.135a.41763.41763,0,0,0-.04575.14455c-.00653.051-.01261.102-.01591.15339-.00311.04834-.00654.09563-.014.14356-.00824.05268-.02281.10552-.027.15865-.001.0124.01718.02119.02421.00906a1.17261,1.17261,0,0,0,.093-.2936c.01216-.04726.02078-.09535.02815-.14354A.4555.4555,0,0,0,5.725,2.13908Z" /><path d="M5.87013,2.40115c-.01714-.07224-.07974-.12614-.09081-.19867a.01231.01231,0,0,0-.02431.00384c.00725.0782.03443.15269.04139.23161.00506.05735-.02051.14214.0455.1717a.02045.02045,0,0,0,.02725-.017A.581.581,0,0,0,5.87013,2.40115Z" /><path d="M5.90629,2.58394a.01292.01292,0,0,0-.02222-.00222.55645.55645,0,0,0-.05759.16152c-.01288.04841-.0385.1047-.00686.14936a.03067.03067,0,0,0,.03613.00862c.04986-.02865.05024-.09516.05547-.14752A.44462.44462,0,0,0,5.90629,2.58394Z" /><path d="M6.06362,2.85711a.0172.0172,0,0,0-.0277-.01056.52907.52907,0,0,0-.07235.09774l-.00481.00677a.5704.5704,0,0,0,.01967-.07116.26669.26669,0,0,0-.0034-.155.01648.01648,0,0,0-.03017.00092c-.02017.04531-.0274.09654-.043.14369a.50622.50622,0,0,0-.04715.13556.03.03,0,0,0,.04817.02584l.00457-.00325a.16081.16081,0,0,0-.01013.02511c-.00718.02405.01674.0537.04256.04006A.28275.28275,0,0,0,6.06362,2.85711Z" /><path d="M5.83991,3.1903a.1874.1874,0,0,0-.183.06981.59933.59933,0,0,0-.07349.20968,1.90736,1.90736,0,0,1-.15061.42809.9483.9483,0,0,1-.28826.32888c-.10488.07728-.21954.1618-.21186.30607.00147.02763.03806.02418.04774.00477a.8757.8757,0,0,1,.27677-.26111.959.959,0,0,0,.25062-.30514,1.74617,1.74617,0,0,0,.14514-.3791c.03342-.12436.043-.33014.19115-.37542C5.85779,3.21267,5.853,3.19123,5.83991,3.1903Z" /><path d="M6.36014,5.41342a.39175.39175,0,0,0-.16551.11384.48053.48053,0,0,0-.0738.09745c.00674-.03915.01459-.07809.02262-.118.00331-.01645-.01879-.02053-.02758-.01031a.38517.38517,0,0,0-.0798.1842c-.00552.02849-.00775.05755-.0136.08595a.66357.66357,0,0,1-.03606.09354.03288.03288,0,0,0,.00019.02159c-.04494.07714-.0928.15271-.13817.23l0,.00007.00846-.03823a.47805.47805,0,0,0,.00732-.11565l.01125-.033a.42558.42558,0,0,0,.00519-.20265A.90513.90513,0,0,0,5.67777,5.326c-.01742-.02124-.03548-.04192-.05378-.06239l.00114-.00688a1.219,1.219,0,0,1,.0198-.12917,1.08051,1.08051,0,0,1,.0308-.134.01343.01343,0,0,0-.02344-.01239.48745.48745,0,0,0-.0867.11974.43067.43067,0,0,0-.02586.07256c-.0642-.06615-.13042-.13047-.194-.197-.05919-.06193-.11837-.12386-.17583-.18741a.36758.36758,0,0,1-.132-.23824c.00029-.00748-.01115-.01118-.0135-.00313-.04261.14542.06926.27112.15233.37784.10178.13076.22129.245.33431.36572a1.07715,1.07715,0,0,1,.25117.37714.81271.81271,0,0,1,.03476.15514c-.00489.03369-.01307.06853-.01725.09887-.00646.04694-.01122.095-.02113.14134a2.31823,2.31823,0,0,1-.09573.26494,1.81843,1.81843,0,0,1-.14109.40527,1.7794,1.7794,0,0,1-.17992.16148c-.06767.05457-.13492.10968-.20564.16033-.072.05159-.134.11931-.209.16594-.01519.00946.00059.03412.01636.02661a2.1096,2.1096,0,0,0,.21377-.094,1.557,1.557,0,0,0,.18654-.13675,1.98337,1.98337,0,0,0,.31024-.32845,2.6981,2.6981,0,0,0,.20706-.417A3.66871,3.66871,0,0,0,6.0835,5.8527a.69718.69718,0,0,1,.11776-.23428.71184.71184,0,0,1,.09051-.083.38762.38762,0,0,0,.09352-.08154C6.39664,5.43656,6.38292,5.40815,6.36014,5.41342Z" /><path d="M7.62209,7.64006A.02151.02151,0,0,0,7.581,7.636a.68777.68777,0,0,1-.02939.10214c-.01416.02328-.05045.0119-.07351.00629a1.04784,1.04784,0,0,1-.19394-.07071,1.89042,1.89042,0,0,1-.17827-.09741c-.034-.02062-.08556-.0689-.12584-.03822a.01728.01728,0,0,0,.00486.02924c.01131.00512.02194.0255.03065.03443.0138.01414.02885.02736.04394.04005a.80035.80035,0,0,0,.094.06733,1.10824,1.10824,0,0,0,.228.10582.24894.24894,0,0,0,.19848.01536C7.645,7.793,7.63281,7.703,7.62209,7.64006Z" /><path d="M7.57613,7.51905c-.03046-.08657-.15731-.12749-.23419-.15762a.45618.45618,0,0,1-.24872-.16421.01444.01444,0,0,0-.0264.01169.34407.34407,0,0,0,.19053.20937c.05006.026.10284.04673.15512.0678a1.002,1.002,0,0,0,.14363.06062C7.57193,7.55028,7.58047,7.53139,7.57613,7.51905Z" /><path d="M7.018,7.06162c-.01132-.05358-.01685-.10776-.029-.16149-.01285-.05659-.02567-.113-.03548-.17025a2.94661,2.94661,0,0,0-.06809-.32362.5442.5442,0,0,0-.12138-.2379.66288.66288,0,0,1-.16158-.20684c-.005-.01293-.0276-.01015-.02756.00441a.36967.36967,0,0,0,.07906.20724.96769.96769,0,0,1,.124.25859c.03086.1052.066.20658.10525.30886.01958.05106.037.10269.05379.15472.01887.05838.04361.11381.06322.17154C7.00357,7.07694,7.02018,7.072,7.018,7.06162Z" /><path d="M6.24191,5.27252c-.01253-.04105-.024-.08247-.03586-.12371a1.042,1.042,0,0,0-.10172-.21937c-.03644-.0646-.07689-.12647-.11635-.18922a.784.784,0,0,1-.05672-.102.38678.38678,0,0,1-.02308-.12639c-.01183-.16861-.023-.33493-.0513-.50188-.01474-.08691-.03229-.173-.05177-.259-.01959-.08646-.05116-.16933-.06862-.25628A.01391.01391,0,0,0,5.709,3.499c.01584.08695.017.17508.02873.26259.01167.08721.02333.17447.0339.26182.02106.174.027.34742.04032.5218a.54066.54066,0,0,0,.06412.225c.03923.06971.08559.13513.12463.20506.03953.0708.07257.14488.11493.214a1.03193,1.03193,0,0,1,.05725.10413.26168.26168,0,0,0,.05452.0929c.01229.01111.02958-.00126.0319-.01454A.21341.21341,0,0,0,6.24191,5.27252Z" /><path d="M5.3297,4.57849c-.01963-.07446-.05312-.1428-.07778-.21533-.01126-.03313-.05939-.01067-.04925.0218A1.14916,1.14916,0,0,1,5.235,4.6027a.49668.49668,0,0,0,.03394.19889.04081.04081,0,0,0,.07448-.00226A.35137.35137,0,0,0,5.3297,4.57849Z" /><path d="M5.6649,6.77785a.07431.07431,0,0,0-.06305.033.07122.07122,0,0,0-.022.05172l-.00015.00029c-.00924.0164.01369.03374.02443.0173l.00138-.00187a.11282.11282,0,0,0,.03779-.02568.10738.10738,0,0,0,.04017-.045A.02243.02243,0,0,0,5.6649,6.77785Z" /><path d="M4.80313,2.78275a.83109.83109,0,0,1-.06559-.08514c-.01687-.02925-.03085-.05959-.04625-.08955A.33109.33109,0,0,0,4.3679,2.44a.52046.52046,0,0,0-.51633.41229.43833.43833,0,0,0,.09282.36975c.00865.00787.02378-.00244.02135-.01326A1.07522,1.07522,0,0,1,3.925,3.03048a.48914.48914,0,0,1,.02924-.191A.45859.45859,0,0,1,4.19163,2.58a.44215.44215,0,0,1,.35792.016.2658.2658,0,0,1,.164.14659c.02563.0648.00522.14389.04534.20268a.03744.03744,0,0,0,.05248.00525A.12335.12335,0,0,0,4.80313,2.78275Z" /><path d="M5.44343,2.66651a1.13651,1.13651,0,0,0-.171-.00615.37774.37774,0,0,0-.16527.03619.69242.69242,0,0,0-.20706.22082c-.00907.01148.00809.0278.019.01771a.70338.70338,0,0,1,.23117-.14116,1.89833,1.89833,0,0,1,.29564-.04029A.04413.04413,0,0,0,5.44343,2.66651Z" /><path d="M5.52409,2.72336c-.04075-.00553-.04606.0523-.06451.077a.09985.09985,0,0,0-.02816.05426c-.00032.00925.00181.01648.001.02573a.246.246,0,0,0-.00445.02749c.00019.01783.0274.02137.02819.00282a.03779.03779,0,0,0-.00261-.02058.03433.03433,0,0,0,.01727.00173.08428.08428,0,0,0,.02431-.00741.14391.14391,0,0,0,.05357-.04491C5.57294,2.8052,5.5806,2.731,5.52409,2.72336Z" /><path d="M6.40151,3.39248a.433.433,0,0,1-.15014.07159A.20808.20808,0,0,1,6.16552,3.454a.49925.49925,0,0,1-.03776-.04442.67894.67894,0,0,1-.05691-.10136c-.0155-.03182-.0299-.06418-.04574-.09583-.01261-.0252-.02141-.05581-.05069-.06354a.01337.01337,0,0,0-.015.00461c-.0207.028-.0043.06448.00391.09533a.72807.72807,0,0,0,.04075.11792c.00678.01472.01444.03091.02309.04729a1.05542,1.05542,0,0,1-.15136-.03442.15614.15614,0,0,0-.14131-.00781.01322.01322,0,0,0,.004.025.2405.2405,0,0,1,.0956.04533.42379.42379,0,0,0,.08375.03964c.067.02307.13552.03954.20233.06374a.23092.23092,0,0,0,.17964.00522.35951.35951,0,0,0,.13453-.118C6.44874,3.41208,6.42573,3.37927,6.40151,3.39248Z" /><path d="M6.29635,3.11713q-.04761-.03782-.09667-.074c-.03032-.02236-.05694-.04944-.08745-.071a.01293.01293,0,0,0-.02019.0092c.00063.0676.07174.119.11727.16045.03346.03047.06648.06146.09816.09378a.25247.25247,0,0,0,.085.067.01828.01828,0,0,0,.02439-.01521C6.41838,3.21393,6.349,3.15892,6.29635,3.11713Z" /><path d="M4.81483,3.23515a.02136.02136,0,0,0-.038-.00889c-.04749.05387-.05558.13986-.09579.20048a.31664.31664,0,0,1-.18368.14377c-.01084.00108-.00786.01692.0026.01643a.29512.29512,0,0,0,.12355-.01762.28246.28246,0,0,0,.09978-.08368A.37033.37033,0,0,0,4.81483,3.23515Z" /><path d="M4.35206,2.98444c-.01278.02856-.0657.0315-.09195.03812a.28389.28389,0,0,0-.08459.02492.16389.16389,0,0,0-.0546.07372c-.0183.03362-.06354.08061-.10792.06709-.01573-.00479-.02481.01923-.009.02406a.15543.15543,0,0,0,.11051.01212c.04925-.01729.0684-.05652.09348-.09871a.064.064,0,0,1,.07559-.0374A.18777.18777,0,0,0,4.345,3.08664.11665.11665,0,0,0,4.433,3.01457.04323.04323,0,0,0,4.35206,2.98444Z" /><path d="M4.64888,3.166A.14577.14577,0,0,0,4.573,3.071a.09813.09813,0,0,0-.09589.00624c-.02173.01507-.03358.03986-.011.05956.00925.00806.02344-.007.01484-.01591.00372.00384.01865-.00213.0253-.00115a.091.091,0,0,1,.0254.01.08922.08922,0,0,1,.03933.03938c.01985.04133.00241.09412.03235.13067a.02333.02333,0,0,0,.03648-.00127A.14724.14724,0,0,0,4.64888,3.166Z" /><path d="M4.53531,3.45419a.02641.02641,0,0,0-.02809-.01529c-.02268.00426-.03357.02419-.04744.04034a.10093.10093,0,0,0-.02915.04254.01806.01806,0,0,0,.01143.01833c.02.01046.04847-.005.06428-.01745A.0623.0623,0,0,0,4.53531,3.45419Z" /><path d="M4.78591,3.11687a.26056.26056,0,0,0-.10008-.11957.44233.44233,0,0,0-.14789-.06072.01417.01417,0,0,0-.00988.02655.74321.74321,0,0,1,.20745.18471A.03.03,0,0,0,4.78591,3.11687Z" /><path d="M5.11624,6.20253c.00455.06042.01148.122.01046.18258a.01524.01524,0,0,0,.0303.003,1.11252,1.11252,0,0,0,.02369-.18745A.03237.03237,0,1,0,5.11624,6.20253Z" /></svg>