<svg xmlns="http://www.w3.org/2000/svg" data-name="Layer 1" viewBox="1.6303662779299282 2.6812141136912278 6.739109017148019 4.636496755312362" x="0px" y="0px"><title>KAMASUTRA</title><path d="M3.82343,4.29706c-.1966.09156-.31124.32285-.43318.499a1.13482,1.13482,0,0,1-.21391.2445,2.36009,2.36009,0,0,1-.33233.18084A.871.871,0,0,0,2.564,5.5019a4.3189,4.3189,0,0,1-.2623.345.56407.56407,0,0,1-.30063.2187.41973.41973,0,0,0-.17417.05276.23225.23225,0,0,0-.08342.12131.77253.77253,0,0,0-.02576.17781.89589.89589,0,0,1-.0354.20427c-.04031.13186-.09688.28961.00761.40467a.01514.01514,0,0,0,.025-.01649.53932.53932,0,0,1,.04339-.38064c.0343-.1084.02741-.22011.05178-.32987a.16576.16576,0,0,1,.07463-.11794.89452.89452,0,0,1,.17785-.03874.63947.63947,0,0,0,.28365-.21283,4.1485,4.1485,0,0,0,.25736-.32921.91832.91832,0,0,1,.26155-.27793c.10659-.06308.22455-.10027.32792-.17021a.96767.96767,0,0,0,.22318-.2232c.07311-.09674.13619-.2015.20629-.30067a1.73572,1.73572,0,0,1,.23771-.26755C3.89,4.3333,3.86081,4.27966,3.82343,4.29706Z" /><path d="M4.62428,4.47608a.93627.93627,0,0,0-.15709.1066c-.05127.03893-.10207.07861-.15307.11794L4.002,4.94136c-.20512.15819-.40718.32075-.61429.476A11.488,11.488,0,0,0,2.231,6.27465a1.45837,1.45837,0,0,0-.413.61173c-.00359.01188.01122.021.01835.01038a3.35134,3.35134,0,0,1,.41149-.51412q.03822-.03782.07786-.07383l-.01349.04184a.28386.28386,0,0,0-.01836.18447.25063.25063,0,0,0,.11984.12137c.01.00521.01821-.0078.01506-.01713a.29163.29163,0,0,0-.03436-.07113A.20939.20939,0,0,1,2.361,6.50878a.306.306,0,0,1,.03648-.15763.739.739,0,0,1,.05433-.12493.6971.6971,0,0,1,.04815-.065c.06373-.05042.129-.09864.195-.14559-.02482.03914-.04882.079-.07292.11838a1.44965,1.44965,0,0,0-.10143.18578.82464.82464,0,0,0-.048.21345c-.002.01406.01992.02.023.00572a1.15943,1.15943,0,0,1,.19578-.36232c.03786-.05865.07517-.11771.113-.17636.02587-.04006.05658-.078.08364-.11766.16715-.11218.33637-.22083.49916-.34025.20628-.15134.40825-.30951.61307-.46312.11535-.08651.22934-.17515.34388-.26287l.06168-.04716c.00413.02349.00981.04636.014.0661.01286.06116.0267.12217.03807.18368a.85787.85787,0,0,1,.01568.17472c-.00128.06059.00253.12412-.00354.18425a.02241.02241,0,0,0,.04043.01619.31477.31477,0,0,0,.07289-.17426.76655.76655,0,0,0-.01313-.197,1.36575,1.36575,0,0,0-.05185-.19523.93123.93123,0,0,0-.04033-.1137l.038-.02912A1.04637,1.04637,0,0,0,4.67694,4.545C4.70714,4.51008,4.66023,4.45892,4.62428,4.47608Z" /><path d="M5.39149,4.39581a.22206.22206,0,0,1-.07674.02,1.069,1.069,0,0,1-.10786-.0075c-.07158-.00631-.14313-.01383-.2144-.02333a3.69042,3.69042,0,0,1-.43359-.08668c-.07233-.01864-.144-.04008-.21591-.06041-.06267-.01772-.1265-.02937-.188-.05181a.44335.44335,0,0,0-.09083-.03035.30071.30071,0,0,0-.08055.00061.3051.3051,0,0,0-.085.02262.2799.2799,0,0,0-.06979.05348c-.00991.00874.00017.02791.01216.02117a.3074.3074,0,0,1,.19147-.01856.754.754,0,0,1,.18641.03411c.06926.02807.13527.06059.20666.08356.07052.02269.14158.04358.21331.06141a4.30649,4.30649,0,0,0,.43682.08534c.04026.00567.08084.01087.12149.01493a.32013.32013,0,0,1,.03687.09031c.01315.045.03622.09027.04593.13569a.01.01,0,0,0,.01992-.00061c.0017-.02911.00941-.05569.00946-.08536a.42135.42135,0,0,0-.00868-.0883.46107.46107,0,0,0-.01147-.04484l.00467.00024c.05523.00236.13313-.00369.14968-.07329C5.45193,4.41282,5.42445,4.38352,5.39149,4.39581Z" /><path d="M4.08072,4.03368a.15713.15713,0,0,0-.12294.0253.84677.84677,0,0,0-.10847.08019c-.00846.00616.00029.02086.00935.01628a.45752.45752,0,0,1,.12408-.03074.21727.21727,0,0,0,.10752-.02954A.03747.03747,0,0,0,4.08072,4.03368Z" /><path d="M4.1485,3.914a.10831.10831,0,0,0-.09322-.005c-.03631.01176-.05745.04027-.09008.05814-.01291.00707-.00381.02922.00915.02212.05046-.02765.117.0051.16914-.02157A.03241.03241,0,0,0,4.1485,3.914Z" /><path d="M5.07116,3.95712c-.01675-.00239-.03359-.00382-.05047-.00481-.01432-.18254-.04853-.36519-.07225-.54648A.48072.48072,0,0,1,4.959,3.16339c.02758-.06926.07664-.12375.09847-.19657.00411-.0137-.01369-.02532-.02163-.01224-.03994.06581-.1023.11245-.14049.17984a.37377.37377,0,0,0-.03652.21377.208.208,0,0,0-.0457-.02007.20258.20258,0,0,0-.12952.00433.11061.11061,0,0,0-.04491.02951.86452.86452,0,0,0-.104-.10909c-.00835-.00815-.01939.00447-.01593.014.02175.05951.0495.11483.07333.17311a.28992.28992,0,0,1,.015.15474.4789.4789,0,0,0-.13945.03121A.47338.47338,0,0,0,4.29,3.76667c-.00759.00831.00287.02257.01088.01424a.34671.34671,0,0,1,.17454-.08117.55639.55639,0,0,1,.18729-.00863.34275.34275,0,0,1,.17971.06992.337.337,0,0,1,.05415.05955l.014.01866c.004.03768.00858.07528.0143.11255-.03465.00126-.06928.00347-.10365.00515-.089.00435-.17814.00625-.26723.00462-.0358-.00066-.07862.00756-.10529-.02a.29806.29806,0,0,0-.0744-.062.34608.34608,0,0,0-.18017-.04311c-.00624.00019-.00476.00952.00029.01073A.32018.32018,0,0,1,4.37694,3.98c.02015.02805.037.05515.07048.06511a.49483.49483,0,0,0,.12062.009c.0841.0029.16823.00288.2523-.00084a.81238.81238,0,0,0,.25877-.04285C5.10487,4.0005,5.09534,3.96057,5.07116,3.95712ZM4.69167,3.596l-.03051-.0022a.309.309,0,0,0,.01792-.11923.17437.17437,0,0,0-.0114-.05974.3339.3339,0,0,1,.04908-.00974.17229.17229,0,0,1,.08669.00915.17608.17608,0,0,1,.06823.06148c.00771.06714.01609.1342.02293.20145A.39094.39094,0,0,0,4.69167,3.596Z" /><path d="M6.145,4.49926c-.01361.035-.03444.06526-.04928.09974l-.02022.04727A.675.675,0,0,0,5.985,4.48985a1.71157,1.71157,0,0,0-.15321-.18261q-.08027-.08406-.16729-.16012c-.04115-.03618-.09232-.06744-.1316-.10846A2.33788,2.33788,0,0,0,5.5214,3.7788c-.01678-.167-.09207-.38679.00265-.5417a.01237.01237,0,0,0-.01727-.01725c-.15685.116-.11177.32526-.08834.49757a2.15037,2.15037,0,0,1,.01988.3131,1.55371,1.55371,0,0,0,.00075.31134c.00364.01886.03093.03045.0414.01036a.50449.50449,0,0,0,.04879-.20571c.01077.01263.02243.0248.03427.03678.05573.0564.11444.10931.16973.16625a1.84154,1.84154,0,0,1,.15158.17536c.0487.06475.086.14035.1389.20111a.03712.03712,0,0,0,.01465.01023c-.022.05714-.04085.1159-.0594.17428-.04569.14381-.08754.2889-.12865.43429-.06372.22535-.12941.45177-.18522.68012a.66214.66214,0,0,0-.04524-.09981c-.03061-.05574-.06444-.10939-.09338-.16619-.02791-.05477-.04806-.11281-.07128-.16986a.45286.45286,0,0,1-.0576-.18692c.00172-.06517.01726-.12894.01706-.19435a.83908.83908,0,0,0-.09306-.37153.01321.01321,0,0,0-.02505.00791,3.58167,3.58167,0,0,1,.03993.386,1.19767,1.19767,0,0,0-.00286.18126c.00746.06065.01942.12313.032.18284a1.1353,1.1353,0,0,0,.14068.33551.92385.92385,0,0,1,.1159.28115,1.12168,1.12168,0,0,0-.02862.21571.33419.33419,0,0,0,.047.22307.04141.04141,0,0,0,.07334-.0237.29129.29129,0,0,0-.00933-.089.53083.53083,0,0,1-.00776-.09932,1.05767,1.05767,0,0,1,.02576-.20214c.02922-.13686.06755-.272.10335-.407C5.9,5.549,5.9816,5.27208,6.06,4.99393c.02162-.07668.04393-.15323.06211-.23094.00923-.03944.017-.07921.02541-.11885.00953-.04468.01142-.09084.02248-.13489C6.17443,4.49168,6.15168,4.48193,6.145,4.49926Z" /><path d="M8.34265,6.81263a.59668.59668,0,0,0-.239-.07722q-.12329-.025-.2477-.043a4.55893,4.55893,0,0,0-.50735-.044c-.342-.01044-.68245.03235-1.02434.02738-.09486-.00138-.18994-.00411-.28471-.00883-.05-.00249-.1-.00475-.15-.00524a.47769.47769,0,0,0-.13966.0085c-.01019.003-.017.019-.00573.02624a.61151.61151,0,0,0,.23393.06462,2.46637,2.46637,0,0,0,.25332.02482A4.99565,4.99565,0,0,0,6.745,6.78051a5.60991,5.60991,0,0,1,1.01955.01731q.13924.0175.27748.04324a.91408.91408,0,0,0,.28562.04041A.03945.03945,0,0,0,8.34265,6.81263Z" /><path d="M8.36879,6.6946c-.04-.16319-.1972-.18161-.32627-.21983a.39611.39611,0,0,1-.17085-.10759.49754.49754,0,0,0-.15122-.11743.2696.2696,0,0,0-.20065.00987.73533.73533,0,0,1-.10433.03637.23953.23953,0,0,1-.121-.013c-.16862-.0524-.33588-.11086-.50582-.1582A1.63071,1.63071,0,0,0,6.557,6.07561l.01093-.0183q.03683-.06137.07111-.12443.06511-.11969.12123-.24477.05609-.1249.10235-.25452c.03065-.086.052-.17649.08552-.26114a1.29389,1.29389,0,0,1,.13833-.20732.55172.55172,0,0,0,.0791-.22532.7809.7809,0,0,0-.09641-.46669,1.04568,1.04568,0,0,0-.16743-.22792c-.03372-.03463-.06859-.06741-.10506-.09868-.01686-.01446-.03374-.029-.05126-.04251a.6524.6524,0,0,1-.07264-.05313c-.01049-.01063-.0246.00516-.01358.01559A1.0437,1.0437,0,0,1,6.74,3.971c.02557.03156.05075.06347.076.09532a2.00391,2.00391,0,0,1,.1415.19887.71618.71618,0,0,1,.11119.4389.44684.44684,0,0,1-.07.203,1.54345,1.54345,0,0,0-.1377.1999,2.55039,2.55039,0,0,0-.08236.24653q-.041.11987-.09057.2361-.05659.13279-.12425.25962-.03386.06329-.0703.125c-.01844.0312-.03984.06126-.05629.09384a.279.279,0,0,0-.187.06365c-.00515.00457-.0046.01564.00274.01764a1.18816,1.18816,0,0,0,.22362.024,1.3308,1.3308,0,0,1,.2417.04356c.1602.04335.31769.09892.47591.14977a.49913.49913,0,0,0,.22548.04111c.06907-.01056.13038-.05312.19935-.06241a.18713.18713,0,0,1,.15025.06982.83318.83318,0,0,0,.14086.12161c.124.07274.31409.04929.40249.18486A.03212.03212,0,0,0,8.36879,6.6946Z" /><path d="M4.52712,2.82934c-.02652.003-.05746-.04044-.07538-.05645a.34477.34477,0,0,0-.08252-.0514.41923.41923,0,0,0-.1855-.04023.582.582,0,0,0-.35956.14263.54052.54052,0,0,0-.20608.34559,1.441,1.441,0,0,0-.00746.21772.5394.5394,0,0,0,.03557.19407.30042.30042,0,0,0,.337.18464.028.028,0,0,0,.0049-.05245c-.08995-.03354-.20158-.06461-.24849-.16279a.70616.70616,0,0,1-.0286-.34973.51278.51278,0,0,1,.48248-.42465.43749.43749,0,0,1,.19018.03628c.02761.01234.05379.03035.08187.041a.08405.08405,0,0,0,.06626-.0072C4.54108,2.8427,4.53619,2.82833,4.52712,2.82934Z" /><path d="M6.52569,3.70315A3.18594,3.18594,0,0,0,6.27685,3.262.96924.96924,0,0,0,6.004,2.94747a2.20247,2.20247,0,0,0-.38326-.19.90844.90844,0,0,0-.43209-.07267,1.32608,1.32608,0,0,0-.24654.05772c-.08368.02569-.16093.06767-.24345.09587-.01087.00371-.00351.02063.00712.01723.07237-.02313.14988-.03311.22391-.04906A1.04082,1.04082,0,0,1,5.14148,2.776a1.35059,1.35059,0,0,1,.21352.00935.951.951,0,0,1,.1932.05434,2.26429,2.26429,0,0,1,.36979.17773.82613.82613,0,0,1,.26229.28515,3.35937,3.35937,0,0,0,.29646.43278A.02957.02957,0,0,0,6.52569,3.70315Z" /><path d="M4.33256,3.13779a.2215.2215,0,0,0-.08116.01456.74725.74725,0,0,0-.08123.02536.084.084,0,0,0-.04515.112.0735.0735,0,0,0,.016.02107.35866.35866,0,0,1-.06507.00983.16482.16482,0,0,0-.16155.16277.18664.18664,0,0,0,.01841.10839A.00987.00987,0,0,0,3.95,3.58871c.0146-.03129.01165-.06968.0263-.10215a.1708.1708,0,0,1,.08076-.081.55246.55246,0,0,1,.10726-.04608c.01916-.0062.04463-.01228.05552-.03026L4.24237,3.325a.01185.01185,0,0,0,.0045-.02061A.23247.23247,0,0,1,4.20106,3.263c-.01146-.01954.0219-.02758.03764-.03368a.3398.3398,0,0,1,.06959-.02213.37087.37087,0,0,1,.07186.00933.0328.0328,0,0,0,.03468-.03038C4.41594,3.14516,4.36181,3.13986,4.33256,3.13779Z" /><path d="M4.42248,2.96509a.49748.49748,0,0,0-.013.05684.47834.47834,0,0,1-.0141.05449.01054.01054,0,0,0,.0161.01233c.00662-.00469.01438-.00676.021-.01181a.17694.17694,0,0,0,.02456-.02359.16112.16112,0,0,0,.03808-.05929A.03913.03913,0,1,0,4.42248,2.96509Z" /><path d="M4.20269,3.77023A.0382.0382,0,0,0,4.165,3.7496a.11238.11238,0,0,1-.04216-.0049c-.01146-.00418-.01886.01171-.0097.01965.01983.01716.05919.0574.08436.02907A.02124.02124,0,0,0,4.20269,3.77023Z" /><path d="M5.45831,6.61518a.7928.7928,0,0,1-.199-.02023,1.59153,1.59153,0,0,0-.19061-.01777,1.66866,1.66866,0,0,0-.3675.01977,1.16642,1.16642,0,0,1-.36538.02319.22908.22908,0,0,1-.14824-.0729.28494.28494,0,0,1-.08646-.14659.00954.00954,0,0,0-.01737-.00435.10356.10356,0,0,0-.015.08058c-.01292-.0035-.02607-.00618-.039-.0085a.56339.56339,0,0,0-.12277-.011.22419.22419,0,0,0-.05866.00919.524.524,0,0,0-.05946.03282c-.01.00455-.00548.02312.00552.02a.29414.29414,0,0,1,.11019.0101c.03376.00585.06706.01421.10029.02274a.36844.36844,0,0,1,.13775.06887.248.248,0,0,0,.07124.06774.58889.58889,0,0,0,.39365.01745c.07142-.01187.14244-.0267.21448-.03384a1.31323,1.31323,0,0,1,.2084-.00114,1.62327,1.62327,0,0,0,.21684.00849A2.04746,2.04746,0,0,0,5.46241,6.643.01415.01415,0,0,0,5.45831,6.61518Z" /><path d="M5.39408,6.14216a1.66339,1.66339,0,0,1-.08219-.21957,1.84946,1.84946,0,0,1-.04672-.22724c-.00642-.04-.01376-.07968-.01884-.11989a.72965.72965,0,0,1-.01341-.13122.0086.0086,0,1,0-.01709-.00183c-.00253.04-.01445.08008-.01831.12038a.967.967,0,0,0,.02723.35,1.40576,1.40576,0,0,0,.06792.22249.917.917,0,0,0,.04707.10149l.00783.01259a.83807.83807,0,0,0-.163-.01505c-.06293-.00148-.12586-.00052-.18879-.00078l.02473-.0506a1.37169,1.37169,0,0,0,.07418-.17626,1.2044,1.2044,0,0,0,.0451-.185,1.2191,1.2191,0,0,0,.00535-.20929.009.009,0,1,0-.01792-.00192,1.72491,1.72491,0,0,1-.05282.195c-.016.058-.03586.11438-.05722.17037a1.40568,1.40568,0,0,1-.07521.16459c-.01558.029-.039.0585-.05463.09005-.06363-.00444-.1266-.01391-.19016-.021a.89422.89422,0,0,0-.23667.008c-.01093.00163-.01072.02019.00056.02089a1.221,1.221,0,0,1,.23142.05931,1.049,1.049,0,0,0,.23969.03433c.08007.00251.16016-.00274.2401-.00686.07521-.00387.15022-.00239.225-.00993l.00992.01782a.01463.01463,0,0,0,.02746-.00089A.271.271,0,0,0,5.39408,6.14216Z" /><path d="M5.26477,5.1666c-.00356-.04678-.00862-.09355-.01035-.14046a.50648.50648,0,0,1,.0068-.15308c.00311-.01118-.01094-.02059-.01762-.01a.39687.39687,0,0,0-.05163.25717c.0033.04792.00838.09594.00707.14406a.86928.86928,0,0,0-.01292.14112.02365.02365,0,0,0,.03854.01573C5.28764,5.37016,5.27037,5.24019,5.26477,5.1666Z" /><path d="M4.3996,5.506a.103.103,0,0,0-.08307-.042.15732.15732,0,0,0-.10364.0377.30233.30233,0,0,0-.08273.24338,1.31151,1.31151,0,0,0,.01938.14553.80847.80847,0,0,1,.014.10213.21832.21832,0,0,1-.01016.02849.165.165,0,0,1-.13244.09738A.06669.06669,0,0,1,3.98178,6.115c-.01694-.01057-.01585-.02963-.01709-.04836A.77.77,0,0,0,3.951,5.9498c-.00841-.03826-.01609-.11736-.06477-.12074a.01248.01248,0,0,0-.01.02005.17867.17867,0,0,1,.01788.1208,2.82755,2.82755,0,0,1-.06512.29023.009.009,0,0,0,.01382.01058.19614.19614,0,0,0,.08407-.09826.15318.15318,0,0,0,.148.02065.2312.2312,0,0,0,.12922-.10823l.00912-.0121a.251.251,0,0,0,.0374-.12176,2.53861,2.53861,0,0,1-.02642-.28218.18814.18814,0,0,1,.05369-.1112.13768.13768,0,0,1,.11327-.03484C4.399,5.52462,4.40547,5.512,4.3996,5.506Z" /><path d="M3.35529,5.94507a.37055.37055,0,0,0-.3675.09837.53635.53635,0,0,0-.17439.35871c-.01116.13283.02444.2959-.05065.413a.53485.53485,0,0,1-.31771.18382c-.11353.03278-.34245.0523-.3283.23165a.023.023,0,0,0,.04458.00477.16595.16595,0,0,1,.13785-.123c.06778-.016.13764-.0232.206-.03645a.53823.53823,0,0,0,.30606-.14931.52412.52412,0,0,0,.10272-.37282,1.00592,1.00592,0,0,1,.01038-.19944A.45846.45846,0,0,1,2.9958,6.188a.4527.4527,0,0,1,.1597-.14339c.06442-.03521.13523-.05033.20028-.08254A.00959.00959,0,0,0,3.35529,5.94507Z" /><path d="M3.22884,6.10609a.36587.36587,0,0,0-.22415.23034.52689.52689,0,0,0,.00137.37276.35723.35723,0,0,1,.02633.18029.24819.24819,0,0,1-.081.1467c-.09325.08078-.21672.05324-.32777.06406a.90581.90581,0,0,0-.1877.0367.45565.45565,0,0,0-.09193.0392c-.027.0157-.04916.03806-.075.05559-.01021.00695.00181.0225.01193.01562A.45045.45045,0,0,1,2.45806,7.194a.84448.84448,0,0,1,.18057-.00435.53485.53485,0,0,0,.33262-.03613.36328.36328,0,0,0,.16953-.29186.48306.48306,0,0,0-.03361-.18437.51742.51742,0,0,1-.04663-.18291.3071.3071,0,0,1,.06205-.18251.566.566,0,0,1,.14489-.11341A.053.053,0,0,0,3.22884,6.10609Z" /><path d="M3.36513,6.341c.03452-.0379.09894-.10668.049-.15974A.03528.03528,0,0,0,3.364,6.17585c-.02259.016-.03415.04418-.05315.06444-.02456.02619-.04882.05243-.07112.08092a.49179.49179,0,0,0-.0977.17532.37387.37387,0,0,0,.03614.21953.55113.55113,0,0,1,.03216.22086.317.317,0,0,1-.06232.16855.282.282,0,0,1-.163.089,2.296,2.296,0,0,1-.45058.06332c-.01188.00064-.01015.01959.00057.02133a1.74927,1.74927,0,0,0,.38.03853A.429.429,0,0,0,3.22947,7.182a.45147.45147,0,0,0,.08935-.32087.73947.73947,0,0,0-.04009-.18472c-.02052-.06071-.05216-.11311-.02455-.17739A.5974.5974,0,0,1,3.36513,6.341Z" /><path d="M3.67066,6.44642a.0254.0254,0,0,0-.03121-.008.11837.11837,0,0,0-.03.02664.1197.1197,0,0,1-.04641.02928.28494.28494,0,0,1-.12231.02933.16523.16523,0,0,1,.01083-.10323.01051.01051,0,0,0-.01674-.01269.26683.26683,0,0,0-.07274.18757c.00265.08808.03047.17273.03375.26113a.40384.40384,0,0,1-.038.22836A.90832.90832,0,0,1,3.221,7.242c-.01866.01937-.0011.05671.02511.04374A.53451.53451,0,0,0,3.41378,7.165a.32206.32206,0,0,0,.07931-.21467,1.06265,1.06265,0,0,0-.02081-.25805c-.00749-.0346-.01531-.0692-.02153-.10411a.24.24,0,0,0,.08572-.00368C3.58872,6.57525,3.72277,6.5281,3.67066,6.44642Z" /><path d="M3.83019,6.75817a.31867.31867,0,0,0-.1689-.15768c-.00824-.00372-.0173.0087-.01058.01584a.58324.58324,0,0,1,.099.16647.38116.38116,0,0,1,.02954.20089c-.01032.07127-.07291.10265-.1274.13225-.06616.03594-.13209.0717-.19755.10874a.02124.02124,0,0,0,.011.04.56882.56882,0,0,0,.26038-.07415.25668.25668,0,0,0,.14808-.18972A.43835.43835,0,0,0,3.83019,6.75817Z" /><path d="M3.66266,5.78574c-.01671-.04093-.062-.03318-.08788-.0075-.01732.01717-.032.03559-.05083.05119-.01655.01374-.03424.02566-.05121.03868-.01161-.01961-.02481-.03818-.0372-.05578A.00908.00908,0,0,0,3.41967,5.82a.6641.6641,0,0,0,.04661.16638c.01023.01749.04018.00718.04022-.013a.178.178,0,0,0-.017-.073A.16247.16247,0,0,0,3.55727,5.873a.2454.2454,0,0,0,.0387-.03328c.01508-.01568.018-.02247.03856-.016a.01967.01967,0,0,0,.02261-.00747l.003-.00366A.02852.02852,0,0,0,3.66266,5.78574Z" /><path d="M3.795,5.84767c-.00343-.0215-.01233-.04917-.03283-.05755a.01293.01293,0,0,0-.01667.00817.18182.18182,0,0,0-.00221.051c-.001.019-.00127.038-.00353.05688a.02114.02114,0,0,0,.03817.01529A.10626.10626,0,0,0,3.795,5.84767Z" /><path d="M4.17069,3.67425c-.00222-.01462-.00981-.027-.01324-.041-.00273-.01116-.01985-.01281-.02033.00062a.30474.30474,0,0,1-.00786.03882.0698.0698,0,0,0,.00448.03914.0163.0163,0,0,0,.02891.00309A.06291.06291,0,0,0,4.17069,3.67425Z" /></svg>