<svg xmlns="http://www.w3.org/2000/svg" data-name="Layer 1" viewBox="0.4480169810753186 3.813147377453836 9.1039964229185 2.379352912465264" x="0px" y="0px"><title>KAMASUTRA</title><path d="M1.75667,4.741a.34677.34677,0,0,0-.21887.03146.5642.5642,0,0,0-.17535.16485c-.055.07486-.09862.15751-.1493.23523-.05505.08443-.10944.16884-.15957.25631-.04619.0806-.08559.16682-.136.24479a.39045.39045,0,0,1-.20107.14415.55314.55314,0,0,0-.19861.12255c-.04037.04252-.08622.10677-.06413.16748a.023.023,0,0,0,.03933.00393c.02093-.02581.03-.05855.05316-.08324a.30636.30636,0,0,1,.09338-.06332C.70448,5.93529.7738,5.9161.838,5.88413a.72019.72019,0,0,0,.28353-.358c.08489-.15685.16543-.3168.25859-.46895A.81054.81054,0,0,1,1.522,4.8728a.35372.35372,0,0,1,.23223-.10743A.01226.01226,0,0,0,1.75667,4.741Z" /><path d="M1.72293,4.89435a.386.386,0,0,0-.17567.10158A.77738.77738,0,0,0,1.435,5.158c-.07454.13632-.14.28277-.20095.42554a.7024.7024,0,0,1-.22806.35226.67841.67841,0,0,1-.21413.06839,1.0868,1.0868,0,0,0-.2053.08A.00971.00971,0,0,0,.59444,6.102a.79153.79153,0,0,1,.24312-.02148.53922.53922,0,0,0,.217-.05366.60959.60959,0,0,0,.247-.31718c.06361-.14467.10825-.29723.17789-.43922a.99555.99555,0,0,1,.263-.34439C1.7604,4.91216,1.74184,4.88845,1.72293,4.89435Z" /><path d="M1.81232,5.04272c-.02672.00472-.05235-.00179-.079.0048a.20739.20739,0,0,0-.06124.02826.29231.29231,0,0,0-.10129.123,2.46553,2.46553,0,0,0-.11688.36428c-.06011.20412-.107.5086-.37041.53415-.0207.002-.018.03209.001.035.22451.03382.35951-.20434.42-.38521.04212-.126.07919-.25375.11764-.38091a.77472.77472,0,0,1,.06569-.17673.2947.2947,0,0,1,.05437-.06588.2278.2278,0,0,1,.0739-.057C1.83067,5.06253,1.82778,5.04,1.81232,5.04272Z" /><path d="M4.93513,5.82136c-.07356-.00832-.14753-.01258-.22136-.01771-.14854-.0103-.2963-.02707-.44495-.03616a3.21276,3.21276,0,0,0-.41553-.00857,1.02946,1.02946,0,0,0-.19675.03146.22344.22344,0,0,0-.08134-.26074c-.01595-.00831-.03449.00983-.0315.02578A.893.893,0,0,1,3.57318,5.69a.2027.2027,0,0,1-.04626.14251.19911.19911,0,0,1-.02838.02728l-.00982.00678L3.487,5.86809a.39322.39322,0,0,1-.259.04271A.85882.85882,0,0,1,2.92786,5.805a.4529.4529,0,0,0-.27521-.05233c-.01791.00238-.01775.03167.00091.03215a.29629.29629,0,0,1,.14819.0547c-.01344.001-.02692.00235-.04052.00442a.723.723,0,0,0-.17194.05726c-.12169.05214-.23829.11413-.36427.156a1.10331,1.10331,0,0,1-.21709.049.26954.26954,0,0,1-.20725-.0314A.46848.46848,0,0,1,1.658,5.82445a.23011.23011,0,0,1,.07651-.148.49974.49974,0,0,1,.04609-.0328c.02036.01249.04069.02625.06045.03725a.294.294,0,0,1,.07186.0524l.01228.01335a.46628.46628,0,0,0-.0765.0545.01094.01094,0,0,0,.00856.01909.71848.71848,0,0,0,.20936-.05185,1.20078,1.20078,0,0,0,.19123-.08118c.05405-.03087.09621-.07577.14807-.10935a.50323.50323,0,0,1,.09983-.04789.62189.62189,0,0,0,.09816-.032.03192.03192,0,0,0-.00177-.05833.21772.21772,0,0,0-.13293.009.361.361,0,0,0-.14265-.01848.4975.4975,0,0,0-.1553.02889.00834.00834,0,0,0,.00253.01583.79385.79385,0,0,1,.16549.02889l.01475.003c-.03633.02565-.06958.055-.1067.08146a1.40661,1.40661,0,0,1-.24653.12016c-.0309-.06816-.10864-.08234-.18009-.095l.01238-.01262a.24126.24126,0,0,0,.04907-.106c.01025-.044.01506-.08929.02146-.134.00648-.04523.023-.09191-.00435-.13176a.02585.02585,0,0,0-.036-.00359c-.03144.02464-.03136.062-.03738.0993-.00708.04393-.013.08822-.02158.13189a.17132.17132,0,0,1-.04953.10366c-.02864.025-.06329.04019-.09075.06731a.32354.32354,0,0,0-.09153.18659c-.01089.07363.003.21543-.08333.24685a.0123.0123,0,0,0,.00687.02331.17529.17529,0,0,0,.13405-.11371.5229.5229,0,0,0,.07806.12242.3877.3877,0,0,0,.38854.07728,1.67074,1.67074,0,0,0,.42016-.15178,1.977,1.977,0,0,1,.20031-.0839c.05111-.01726.10231-.0379.15516-.05022a1.11921,1.11921,0,0,0,.12576.07012.6983.6983,0,0,0,.38063.05909.338.338,0,0,0,.23166-.1292c.03074-.00443.06152-.00867.09257-.01079a2.01557,2.01557,0,0,1,.20937.00172c.13844.005.27659.014.41493.02128.14552.00766.29137.00709.437.01356a1.01062,1.01062,0,0,0,.403-.03775C5.192,5.86336,5.00842,5.82965,4.93513,5.82136Z" /><path d="M2.25539,5.30444c-.02475.01132-.05209.01611-.07613.02874-.027.01417-.05232.03316-.07839.04888a.22534.22534,0,0,1-.06484.03681c-.04126.00478-.03535-.048-.03634-.07527-.00039-.01057-.01627-.01328-.02159-.005-.0337.05217-.03643.14443.04543.14968a.24815.24815,0,0,0,.12285-.051c.0196-.01115.03952-.02232.05816-.03506a.47812.47812,0,0,0,.06856-.06886C2.28583,5.32036,2.27414,5.29586,2.25539,5.30444Z" /><path d="M2.21615,4.65747c-.0283.00754-.05313.02368-.08184.03024a.25769.25769,0,0,1-.10314-.01031.48187.48187,0,0,0-.18929.045c-.01074.00324-.0051.02.00544.01846.03812-.00572.07772-.01478.1162-.01672a.4102.4102,0,0,1,.11052.02567c.0649.01228.09761-.03931.14913-.06854C2.23446,4.67492,2.231,4.65352,2.21615,4.65747Z" /><path d="M2.72735,4.89887c-.001-.01208-.02112-.01458-.02413-.00241a.10157.10157,0,0,1-.03063.04517c-.016.01154-.04154.00915-.06042.01384l-.002.00054.004-.03767a.25225.25225,0,0,0-.01085-.1282c-.02216-.03789-.09037-.02844-.12762-.0319a.0123.0123,0,0,0-.00549.02367c.023.00749.04673.01421.06921.02332.02013.00816.02.00328.0255.02613a.26989.26989,0,0,1-.00561.11841.70522.70522,0,0,1-.10067.20518.0234.0234,0,0,0,.03376.03148.301.301,0,0,0,.09647-.13763l.01371-.00367.03177-.01193a.17579.17579,0,0,0,.06115-.029.10319.10319,0,0,0,.03209-.04661A.12813.12813,0,0,0,2.72735,4.89887Z" /><path d="M2.09653,4.7921a.01238.01238,0,0,0-.02269.00069c-.01351.048-.012.10494-.05.14287-.01658.01655-.00125.04768.02271.03693A.13312.13312,0,0,0,2.09653,4.7921Z" /><path d="M1.98452,4.77019a.23677.23677,0,0,0-.05047.12578.012.012,0,0,0,.02382.00238A.27245.27245,0,0,1,2.00406,4.784.012.012,0,0,0,1.98452,4.77019Z" /><path d="M2.41264,4.75485c-.00053-.01793-.02807-.01336-.02756.00436a.19125.19125,0,0,1-.01625.07276c-.00593.01484.01759.02824.02546.01345a.14264.14264,0,0,0,.017-.04306A.25717.25717,0,0,0,2.41264,4.75485Z" /><path d="M3.81909,3.895a.62826.62826,0,0,0-.19426-.00764.35844.35844,0,0,0-.179.02943c-.02715.0177-.04908.04407-.07543.06322-.02981.02167-.06163.04044-.093.05966l-.19464.11889a2.929,2.929,0,0,0-.3177.21023.68671.68671,0,0,0-.20812.28228.014.014,0,0,0,.02446.01293.97912.97912,0,0,1,.243-.23566c.09359-.07076.19465-.13071.294-.19284a3.0098,3.0098,0,0,0,.32554-.20861A.53958.53958,0,0,1,3.51484,3.967a.28838.28838,0,0,1,.09932-.02384c.06689-.00948.13505.00031.20111-.00981A.02.02,0,0,0,3.81909,3.895Z" /><path d="M5.16176,4.31022a.74507.74507,0,0,0-.10543-.07876c-.03669-.02884-.07168-.06-.11006-.08664a.35893.35893,0,0,0-.12212-.05769,1.10414,1.10414,0,0,1-.16735-.01872.94791.94791,0,0,0-.153-.05676c-.06147-.01318-.12411-.02088-.186-.032a2.2949,2.2949,0,0,0-.39542-.06107.01231.01231,0,0,0-.00549.02367,2.53258,2.53258,0,0,0,.355.08509q.09937.02258.19769.04992a1.67618,1.67618,0,0,1,.16023.06348.58174.58174,0,0,0,.157.0131.27708.27708,0,0,1,.12953.05815c.06263.04541.13924.13971.22108.14347A.02816.02816,0,0,0,5.16176,4.31022Z" /><path d="M3.62878,5.01746a.20745.20745,0,0,0-.12021-.14757.0251.0251,0,0,0-.03121.03316c.01535.04479.04275.08216.05453.12973a.23283.23283,0,0,1-.00555.14374.3303.3303,0,0,1-.29314.18079c-.0179.00142-.01655.0295.00089.031a.4051.4051,0,0,0,.24326-.01723.3268.3268,0,0,0,.13975-.16083A.31511.31511,0,0,0,3.62878,5.01746Z" /><path d="M4.54794,5.27577a.31969.31969,0,0,0-.1475-.02054c-.05687.00242-.10608.02736-.16227.03171-.01851.00143-.01583.02839.00089.031a1.38758,1.38758,0,0,0,.16432.03986.29448.29448,0,0,0,.14633-.02372A.03191.03191,0,0,0,4.54794,5.27577Z" /><path d="M7.68492,4.05165A1.51749,1.51749,0,0,0,7.3928,3.895a.93056.93056,0,0,0-.32344-.08086,1.00143,1.00143,0,0,0-.3205.03777c-.11045.03153-.21147.08628-.31892.12568-.20523.07525-.429.08282-.63212.16524a.94145.94145,0,0,0-.26347.171c-.03885.0338-.07741.06812-.11919.09832a.63037.63037,0,0,1-.14164.0136c-.02863-.00044-.05761-.00314-.08644-.00627a.66526.66526,0,0,0-.14769-.05131c-.03625-.01064-.07309-.01875-.10946-.02894A.60591.60591,0,0,1,4.8017,4.3c-.01578-.00889-.03244.01422-.01645.02324.032.018.05861.04264.09189.05879A.90307.90307,0,0,0,4.99,4.42629l.05869.01837a.738.738,0,0,0,.09608.049.38132.38132,0,0,0,.089.02264.55466.55466,0,0,0-.08131.06007.03179.03179,0,0,0-.02294-.01416.65677.65677,0,0,0-.25241.04805,2.039,2.039,0,0,0-.25784.1c-.03627.01637-.07228.03325-.10818.05033l-.00861-.00164c-.07679-.00713-.15386-.01151-.23007-.02392-.0771-.01255-.14806-.04-.22324-.05892A.48913.48913,0,0,0,3.847,4.67549a1.80325,1.80325,0,0,0-.20347.056L3.54206,4.692c-.082-.0315-.164-.06292-.24344-.10057-.02848-.0135-.05557-.0292-.083-.04446l.01845-.01306c.03619-.02471.07106-.05089.10516-.07829.02717-.0178.05351-.03757.08073-.05918a.76211.76211,0,0,1,.22877-.13908.819.819,0,0,1,.2766-.02228,2.39284,2.39284,0,0,0,.4713.06372.53863.53863,0,0,1,.28532.06906c.04009.02381.07359.05536.11166.08181a.13577.13577,0,0,0,.10054.02469c.03267-.0028.02914-.05184-.00159-.05572-.04239-.00534-.08081-.04683-.11332-.071a.66763.66763,0,0,0-.1096-.06521,1.10911,1.10911,0,0,0-.27273-.07879,1.65846,1.65846,0,0,0-.32062-.024c-.04407-.00877-.08772-.01965-.132-.02663a.72668.72668,0,0,0-.2975.00823.70332.70332,0,0,0-.23.12233.81189.81189,0,0,0-.1058.09678l-.0114.01336c-.03276.02375-.066.047-.09929.06987a.55328.55328,0,0,0-.06463.04393A.34808.34808,0,0,1,3.05827,4.465c-.01744-.01383-.04061.01163-.02651.02842a1.0251,1.0251,0,0,0,.08153.1011.53093.53093,0,0,0,.11387.07669,2.37494,2.37494,0,0,0,.25047.1115,2.65435,2.65435,0,0,0,.575.18035.49305.49305,0,0,0,.275-.00813C4.41708,4.918,4.5023,4.868,4.589,4.8251c.08851-.04382.17887-.08238.271-.11794a1.26061,1.26061,0,0,1,.14647-.04751c.02888-.00727.05876-.01225.08773-.0199a.40287.40287,0,0,0-.053.09541.34718.34718,0,0,0,.01893.29577.00861.00861,0,0,0,.0163-.00481.53061.53061,0,0,1,.055-.27328.42539.42539,0,0,1,.199-.18371,1.2229,1.2229,0,0,0,.2488-.17336.91113.91113,0,0,1,.23994-.16423,4.70828,4.70828,0,0,1,.57257-.14716,2.962,2.962,0,0,0,.29626-.11709.81152.81152,0,0,1,.30294-.06361,1.77118,1.77118,0,0,1,.34647.037,1.41823,1.41823,0,0,1,.33884.12748C7.68595,4.0729,7.69344,4.0577,7.68492,4.05165Zm-3.44882.83022a.523.523,0,0,1-.14434-.01959,1.97311,1.97311,0,0,1-.28385-.06938c-.02872-.00991-.05724-.02044-.0857-.03117a.983.983,0,0,0,.1281-.00685.40148.40148,0,0,1,.21832.0232,1.14946,1.14946,0,0,0,.27175.06568A.30754.30754,0,0,1,4.23609,4.88187Z" /><path d="M5.22846,4.92941c.00311-.03338.01921-.10036-.02475-.11384l-.009.00278a.32814.32814,0,0,0-.04886.1511.2039.2039,0,0,0,.03406.17213.0247.0247,0,0,0,.04179-.00695A.91439.91439,0,0,0,5.22846,4.92941Z" /><path d="M5.34168,5.05482A.70458.70458,0,0,1,5.335,4.87494a.01537.01537,0,0,0-.03057-.00306.76571.76571,0,0,0-.02561.17081.50767.50767,0,0,0,.04375.13876c.00588.01817.03091.0133.03737-.00113C5.3822,5.1306,5.352,5.10295,5.34168,5.05482Z" /><path d="M8.55088,3.96274a.595.595,0,0,0-.4449-.02235,1.88742,1.88742,0,0,0-.44289.22791.78965.78965,0,0,0-.18315.1375.29917.29917,0,0,0-.05916.08918.45231.45231,0,0,0-.01611.102c-.00154.00956.013.01074.0148.00148a.38773.38773,0,0,1,.115-.16474.84432.84432,0,0,1,.169-.11843c.04031-.02322.08155-.04615.12344-.06818a.86388.86388,0,0,1,.14578-.01319c.05215-.00206.1341-.00664.17223.03688s-.011.11224-.02646.15706a.1742.1742,0,0,0-.01357.07716.26618.26618,0,0,0,.03514.073.01435.01435,0,0,0,.02718-.00435A.51519.51519,0,0,1,8.2,4.40386c.00554-.01635.0089-.033.01533-.04928a.63724.63724,0,0,0,.04278-.1101A.15332.15332,0,0,0,8.1903,4.0813a.23465.23465,0,0,0-.14623-.03369L8.077,4.03537a.49018.49018,0,0,1,.38319.0083.44693.44693,0,0,1,.23767.26877c.00578.02008.04034.02435.04057-.00116A.3881.3881,0,0,0,8.55088,3.96274Z" /><path d="M8.0432,4.75776,7.96682,4.757a.0341.0341,0,0,0-.0119-.01993L7.94576,4.7306l-.00364-.00692c-.00591-.00953-.00925-.02138-.01457-.03134a.40294.40294,0,0,1-.03478-.0718c-.0043-.01425-.02514-.00629-.02385.007a.38.38,0,0,0,.01516.1278,1.55316,1.55316,0,0,1-.15837-.01191.53891.53891,0,0,1-.13033-.03113.23709.23709,0,0,1-.10915-.07205c-.00678-.01135-.02559-.00382-.01931.00855a.21238.21238,0,0,0,.07662.10059.4413.4413,0,0,0,.12788.0509l-.00069.0005a.19942.19942,0,0,0-.03616.04521c-.00776.01007.00492.02758.01669.0204.013-.00794.02912-.01067.0429-.01749A.427.427,0,0,1,7.743,4.82848a.29569.29569,0,0,1,.0311-.00818.76218.76218,0,0,0,.08956.00673.50907.50907,0,0,0,.1854-.0329A.01917.01917,0,0,0,8.0432,4.75776Z" /><path d="M8.75452,4.58221c-.02155.00254-.043.0044-.06431.0065A.27346.27346,0,0,0,8.711,4.47329a.006.006,0,0,0-.012-.0012.23883.23883,0,0,1-.11343.13371.34175.34175,0,0,0-.03433.01094.5481.5481,0,0,0-.08412.04684.357.357,0,0,1-.10861.03909.75882.75882,0,0,0-.12166.034c-.00578-.01113-.01475-.02079-.02162-.0326a.1344.1344,0,0,1-.00467-.07873A.13659.13659,0,0,0,8.18645,4.542a.00807.00807,0,0,0-.01529.00245c-.00485.06076-.06335.10653-.04994.16877a.15375.15375,0,0,0,.04089.07041.21475.21475,0,0,0-.052.11691c-.00183.00876.01187.01143.01492.00346.0204-.05332.10858-.074.159-.08535a1.11566,1.11566,0,0,0,.16538-.0411c.05647-.0222.09517-.06868.14952-.09305A1.39087,1.39087,0,0,0,8.765,4.6179.01886.01886,0,0,0,8.75452,4.58221Z" /><path d="M9.38209,5.76611c-.06841-.05175-.14623-.09086-.21174-.14646a1.10414,1.10414,0,0,0-.167-.14459.518.518,0,0,0-.217-.046.95.95,0,0,1-.193-.038.2972.2972,0,0,0-.023-.05913c-.01448-.02475-.03042-.04833-.04673-.07189A.78479.78479,0,0,1,8.43286,5.11c-.01336-.03333-.01966-.059.00593-.086.02054-.0217.04612-.04.06726-.06163a.95135.95135,0,0,0,.10315-.13662c.00812-.012-.00812-.02892-.0194-.01809a1.37425,1.37425,0,0,1-.17244.13263c-.05622.039-.08886.06931-.07563.14164a.51548.51548,0,0,0,.07558.18413.9784.9784,0,0,0,.05992.08481c-.05742-.02227-.11405-.04655-.17189-.06772-.03191-.01168-.0644-.02129-.09713-.03008a.05121.05121,0,0,0-.00128-.01328,1.03683,1.03683,0,0,1-.01961-.14854.477.477,0,0,0-.01965-.14376.01293.01293,0,0,0-.02219-.00222.40378.40378,0,0,0-.04047.27611,2.27122,2.27122,0,0,0-.48566-.13125c-.1927-.0273-.38773-.02319-.5817-.032a3.47624,3.47624,0,0,1-.53788-.07,3.02708,3.02708,0,0,1-.2984-.07672c-.02153-.00673-.04293-.01385-.0643-.02107a.71066.71066,0,0,0,.14162-.09857.51316.51316,0,0,0,.06445-.06175l.02751-.02463a1.48263,1.48263,0,0,0,.1175-.12243c.03678-.04365.07075-.09038.10629-.13506.0143-.018.02886-.03842.04435-.05836l.09057-.02993c.05593-.01879.11761-.0273.17138-.051A.0309.0309,0,0,0,6.89138,4.25a.67735.67735,0,0,0-.295.05513,1.68489,1.68489,0,0,1-.32467.07774,1.04518,1.04518,0,0,0-.30536.07624,1.2537,1.2537,0,0,1-.14809.05972.97576.97576,0,0,1-.11939.03047.15242.15242,0,0,0-.11049-.03886.03545.03545,0,0,0-.029.03992.06331.06331,0,0,0,.04257.05309.41479.41479,0,0,1,.083.04852.38111.38111,0,0,1,.12975.1501.01263.01263,0,0,0,.02393-.00383.24826.24826,0,0,0-.06334-.1747.46072.46072,0,0,0,.139-.032,1.46851,1.46851,0,0,0,.15958-.07132.39886.39886,0,0,1,.17487-.04468,1.04838,1.04838,0,0,0,.20627-.03088L6.42787,4.483c-.03385.04935-.059.104-.095.15188-.00826.011-.01687.02146-.02578.0317-.02572.01774-.05142.03527-.0757.05358-.03474.02621-.07047.05071-.107.07436a.21667.21667,0,0,0-.07634.06512c-.04678-.01543-.09717-.02591-.14184-.04473-.01022-.0043-.01921.01182-.00925.01751.03467.01982.063.047.09848.06563.04189.02207.08422.04292.12752.06209a2.52981,2.52981,0,0,0,.24582.095,2.36664,2.36664,0,0,0,.51985.104c.19318.017.38748.01093.58077.02573a2.54354,2.54354,0,0,1,.54418.10679c.09781.02974.19442.0638.29136.09624.0987.033.19485.08823.29551.11256a.024.024,0,0,0,.01323-.00059l.04464.01151a1.94865,1.94865,0,0,0,.21332.02823.33212.33212,0,0,1,.18233.10081,1.40639,1.40639,0,0,0,.169.12765c.10469.068.28377.1713.25883.3215a.02631.02631,0,0,0,.04731.01769C9.60669,5.9921,9.46938,5.83215,9.38209,5.76611Z" /><path d="M7.85465,4.29227c-.00357-.03273.00074-.0651-.0046-.09779-.00178-.0109-.01935-.011-.0198.00057-.00242.06186-.075.15928.00422.19972a.02457.02457,0,0,0,.03281-.02046A.44963.44963,0,0,0,7.85465,4.29227Z" /><path d="M7.7712,4.28582c.00155-.01007-.01515-.01427-.01766-.0041-.01052.04264-.02524.09015.00782.1267a.01749.01749,0,0,0,.03055-.01369C7.78788,4.35767,7.7653,4.32409,7.7712,4.28582Z" /><path d="M7.86285,4.68825c-.00263-.01573-.01393-.02257-.02161-.03511a.05433.05433,0,0,1-.0079-.02675c-.00043-.013-.01852-.01459-.02516-.00588-.02351.03081-.02148.09162.02409.10012A.02833.02833,0,0,0,7.86285,4.68825Z" /><path d="M7.6138,4.609a.42126.42126,0,0,0-.02347-.06558.22419.22419,0,0,1-.02368-.07268c-.00077-.01484-.02529-.014-.026.00074a.31845.31845,0,0,0-.001.08687.121.121,0,0,0,.04162.07081A.02093.02093,0,0,0,7.6138,4.609Z" /><path d="M5.92925,4.915a.03382.03382,0,0,0-.02431-.0176c-.02631-.00766-.05426-.00617-.0812-.01658-.05734-.02215-.09531-.07639-.15292-.09519a.14757.14757,0,0,0-.14764.02993.18673.18673,0,0,1,.052-.068c.0124-.00986-.0029-.02831-.01551-.019a.31894.31894,0,0,0-.12959.192.61222.61222,0,0,0-.01631.13954c-.00072.05661.03222.13465-.01834.17729a.01424.01424,0,0,0,.018.022A.13809.13809,0,0,0,5.459,5.17726a.60418.60418,0,0,0,.02633-.148.99676.99676,0,0,1,.01322-.1348.21793.21793,0,0,1,.09329-.04783c.05787-.01418.08645.01861.12854.0505.041.031.15225.09659.20049.053A.03027.03027,0,0,0,5.92925,4.915Z" /><path d="M9.40709,6.08077a.89683.89683,0,0,0-.30171-.21156,1.73067,1.73067,0,0,0-.34884-.11188,7.51184,7.51184,0,0,0-.80994-.12169c-.59922-.07-1.203-.057-1.80387-.10143-.16608-.01228-.33211-.02963-.49664-.05555a.881.881,0,0,1-.422-.13982.02027.02027,0,0,0-.02758.029.54361.54361,0,0,0,.30222.15947c.13658.03322.27565.05833.41481.07785.29774.04178.598.05914.89821.07132a13.68469,13.68469,0,0,1,1.74868.15476,2.61219,2.61219,0,0,1,.41314.10237c.06778.02332.13489.05043.20048.07934.06761.0298.12763.07487.19191.111C9.39344,6.13939,9.43079,6.1088,9.40709,6.08077Z" /><path d="M9.07264,6.02a2.567,2.567,0,0,0-.33378-.1081,1.80271,1.80271,0,0,0-.357-.01713c-.24744.00573-.495.01188-.7422.0235-.25848.01215-.5164.03571-.77508.04337S6.347,5.961,6.08879,5.94422c-.14318-.00929-.28682-.02546-.43031-.02638-.141-.0009-.28368-.02521-.42432-.01252a.0112.0112,0,0,0-.00214.0214,2.73105,2.73105,0,0,0,.36768.06322c.12541.01982.25031.03488.377.04458.25539.01955.51152.03191.76772.02954.25-.00232.49911-.02322.74858-.038.25935-.01534.51909-.02281.77879-.02941a3.38924,3.38924,0,0,1,.39248.00156.95.95,0,0,1,.20021.03894.65432.65432,0,0,0,.19464.041C9.09121,6.07865,9.10734,6.03115,9.07264,6.02Z" /><path d="M3.75353,4.39225c-.047-.02228-.10844.01859-.15446.02853a.01373.01373,0,0,0,.00077.0271c.05452.01016.12374.03548.16735-.01133C3.78118,4.42153,3.76835,4.39927,3.75353,4.39225Z" /></svg>