<svg xmlns="http://www.w3.org/2000/svg" data-name="Layer 1" viewBox="2.0688588533725825 2.7628291353064283 5.861707753397576 4.4721339425194095" x="0px" y="0px"><title>KAMASUTRA</title><path d="M4.18471,6.40123c-.0105-.0096-.03328-.02294-.038-.03571a.33657.33657,0,0,1-.004-.07471A.60723.60723,0,0,0,4.119,6.14423a.01259.01259,0,0,0-.0231.0007.578.578,0,0,0-.0224.13977.21325.21325,0,0,0,.00746.12184c.04567.07565.15737.10306.17217.20087a.01484.01484,0,0,0,.02929-.00084A.23428.23428,0,0,0,4.18471,6.40123Z" /><path d="M4.32451,6.4975a.79207.79207,0,0,0-.03321-.08144c-.01478-.02485-.04521-.04619-.05437-.07177A.38689.38689,0,0,1,4.23386,6.251a.34552.34552,0,0,0-.01957-.09233.00911.00911,0,0,0-.01672.00051.38255.38255,0,0,0-.01893.19859.13524.13524,0,0,0,.04859.06248.40372.40372,0,0,1,.07908.0853C4.31235,6.51665,4.32989,6.5093,4.32451,6.4975Z" /><path d="M4.38337,6.30483a.19288.19288,0,0,1-.047-.05607.793.793,0,0,1-.04281-.12048c-.00371-.01411-.02569-.01125-.02283.00361a1.05089,1.05089,0,0,1,.01292.11546.12923.12923,0,0,0,.01835.07052c.01759.024.04234.04171.05958.0664.01666.02388.02153.05358.046.07077a.02437.02437,0,0,0,.03631-.01121C4.4673,6.397,4.414,6.33607,4.38337,6.30483Z" /><path d="M4.47824,6.19848a.3819.3819,0,0,1-.05016-.08935c-.01809-.03347-.04178-.0631-.06019-.096a.01317.01317,0,0,0-.02408.01066.80552.80552,0,0,0,.06485.20207c.02729.04269.07763.055.11746.0819.0103.007.02886.00133.02866-.01306C4.554,6.23864,4.51222,6.23265,4.47824,6.19848Z" /><path d="M4.59976,4.5212a.2044.2044,0,0,0-.17622.09393c-.05428.0667-.09934.14-.15652.20446a1.58435,1.58435,0,0,1-.18989.17551c-.03238.02629-.0637.05351-.09527.08075a.77037.77037,0,0,1-.11607.09874.00834.00834,0,0,0,.00675.01525.8356.8356,0,0,0,.10912-.04378c.03589-.02164.07113-.04556.10472-.07064q.04631-.03458.09092-.07153l.00151.02487a.30232.30232,0,0,0,.00622.05671c.00581.02533.024.04983.0271.07536.00129.01076.01916.01061.01927-.00055a.41486.41486,0,0,1,.01981-.07251.39584.39584,0,0,0,.00592-.067.19486.19486,0,0,0-.00392-.08257l.02856-.026a.78407.78407,0,0,0,.151-.18637.304.304,0,0,1,.17413-.15974C4.63025,4.55913,4.62158,4.523,4.59976,4.5212Z" /><path d="M4.98055,5.964a.32045.32045,0,0,0-.24531-.04872.52226.52226,0,0,0-.128.04114c-.04874-.06228-.13183-.028-.19822-.04128a.2948.2948,0,0,1-.1683-.14315c-.05362-.08068-.09982-.16691-.14917-.25026-.01911-.03227-.03824-.06444-.05812-.0962l.001-.00879c-.01053-.11037.144-.15824.13549-.26933a.02694.02694,0,0,0-.04332-.01651.50552.50552,0,0,0-.11536.14168.20828.20828,0,0,0-.02687.08137,1.21042,1.21042,0,0,1-.07225-.099c-.00876-.01432-.033-.00448-.0245.01084.02684.04844.04338.10236.06852.15188.02526.04976.05336.09791.08109.14632.04853.08471.0948.17149.14792.25344a.39916.39916,0,0,0,.15961.15513.54757.54757,0,0,0,.19046.01646c-.01763.00785-.03539.0154-.05352.0221-.01042.00385-.00632.01832.00318.01987a.6627.6627,0,0,0,.23352-.03813.66142.66142,0,0,1,.24417.01914C4.99006,6.01715,5.00013,5.97894,4.98055,5.964Z" /><path d="M7.85205,6.78291a.02943.02943,0,0,0-.05063-.00506.51546.51546,0,0,0-.03757.1266.45752.45752,0,0,1-.04915.12079.23411.23411,0,0,1-.214.11459c-.099-.00233-.198-.01742-.29686-.02417-.04922-.00336-.09814-.00331-.14746-.00284a.18651.18651,0,0,0-.11359.01676L6.94163,7.141c.02781.03228.08491.03351.12419.04145.05914.012.11778.02146.17778.02792.05684.00612.11372.01192.17058.01783a.57116.57116,0,0,0,.16514.00148.32465.32465,0,0,0,.21387-.15659.46106.46106,0,0,0,.05554-.14135A.28129.28129,0,0,0,7.85205,6.78291Z" /><path d="M2.99292,6.47263c-.05132-.00993-.10369-.00956-.15528-.01839a.9348.9348,0,0,1-.151-.03976.62254.62254,0,0,1-.25386-.19039.56134.56134,0,0,1-.14248-.29576.26151.26151,0,0,1,.16309-.24816c.015-.008.01479-.036-.00577-.03611a.24312.24312,0,0,0-.1868.10069.0465.0465,0,0,0-.0179-.00755c-.04827-.00961-.06941-.07913-.07743-.1207a.85.85,0,0,1-.00984-.15522.26794.26794,0,0,1,.00654-.08475.37957.37957,0,0,1,.03662-.07235c.01526-.02626.03152-.05185.04737-.07769l.00934.02336a.03054.03054,0,0,0,.05783-.01705c-.0046-.02741-.01287-.0541-.01669-.08164a.26875.26875,0,0,1-.00755-.07712c.002-.01055-.0142-.01372-.01789-.00415-.00609.01579-.01724.028-.02286.04428a.173.173,0,0,0-.00863.044.71426.71426,0,0,0-.12347.15039.35932.35932,0,0,0-.04688.19772c-.002.1078.02178.28326.14841.313a.36418.36418,0,0,0,.02126.27729.81761.81761,0,0,0,.43284.40947.48287.48287,0,0,0,.33324.043C3.04734,6.53584,3.0274,6.47931,2.99292,6.47263Z" /><path d="M7.68821,6.832c-.09115.00119-.18.01513-.27148.00923-.09108-.00587-.18161-.01313-.27207-.02553q-.10144-.01391-.20149-.03358l-.001-.003A.75084.75084,0,0,0,6.773,6.48678.9487.9487,0,0,0,6.4766,6.3304a.65825.65825,0,0,1-.26954-.18592.44156.44156,0,0,1-.08734-.31.01072.01072,0,0,0-.01927-.00721.22844.22844,0,0,0-.04363.10363.53288.53288,0,0,0-.18.087l-.03791.02334a3.48864,3.48864,0,0,0,.08632-.50829c.00319-.0321.00653-.06484.00956-.09792l.02257-.006c.03139-.00689.06243-.01563.094-.02177.06671-.013.13612-.01464.20359-.02247.02616-.003.02357-.03573.00457-.04569a.32544.32544,0,0,0-.22922-.0206.4427.4427,0,0,0-.08874.03008,1.1757,1.1757,0,0,0-.00541-.23446.2606.2606,0,0,0-.22682-.234A.29.29,0,0,0,5.673,4.87748c.00132-.01546.00066-.03173.00142-.048l.00322-.07777a1.98863,1.98863,0,0,0,.06479-.50837.97119.97119,0,0,0-.0613-.26248A.767.767,0,0,1,5.611,3.70027a.01179.01179,0,0,0-.02345-.00235.56332.56332,0,0,0,.00738.26242,2.24239,2.24239,0,0,1,.07149.27177.71626.71626,0,0,1,.00269.13853A1.26137,1.26137,0,0,0,5.63,4.16572c-.01836-.06511-.0421-.15557-.11016-.18471-.01109-.00475-.01867.00922-.01271.01779a.34055.34055,0,0,1,.04076.118c.00963.03973.0192.07949.02638.11975a1.91187,1.91187,0,0,1,.02654.22945c.0044.07958.00372.15936.00113.239-.00135.04152-.00329.083-.00546.12452a.53637.53637,0,0,0-.00335.05674A.45736.45736,0,0,0,5.49681,4.92a.26326.26326,0,0,0,.0116-.09431c-.00625-.12447-.06818-.27485.01961-.3839a.01864.01864,0,0,0-.01794-.02889c-.11167.02237-.11388.18987-.10673.276a.79942.79942,0,0,1,.01674.20475.19678.19678,0,0,1-.0924.12144.45544.45544,0,0,0-.16493.01076l-.03964.01117a.50244.50244,0,0,0-.01067-.07827.45086.45086,0,0,0-.09669-.20553.01559.01559,0,0,0-.02724.0122c.00681.06706.03315.13121.03828.199a.60541.60541,0,0,1-.00032.097l-.00139.01375a1.32407,1.32407,0,0,0-.2934.19978l-.01314.01138a.16668.16668,0,0,1-.093-.017.2283.2283,0,0,1-.077-.087.40525.40525,0,0,1-.03619-.26952.014.014,0,0,0-.02509-.00938.33443.33443,0,0,0-.00423.35068l.00736.01144a1.26261,1.26261,0,0,0-.1316.004l-.05817.00362a.18093.18093,0,0,1-.04971.0041c-.02212-.00589-.0195-.00836-.023-.02924a.05211.05211,0,0,0-.00959-.02795A.01048.01048,0,0,0,4.206,5.21713a.07572.07572,0,0,0-.03451.07573.0773.0773,0,0,0,.07465.07165.92126.92126,0,0,0,.16028-.00592A.56248.56248,0,0,0,4.554,5.33567a.25692.25692,0,0,0,.05332.03245l.0119.00487c-.03571.03131-.07147.06255-.10774.09322-.0358.03027-.07206.06048-.10982.08828a.5477.5477,0,0,1-.12387.07913.0115.0115,0,0,0-.019-.002L4.25567,5.635l.00049.014c.02825.04.12925-.01654.16018-.03088a1.03792,1.03792,0,0,0,.205-.13015,3.13465,3.13465,0,0,1,.38495-.2963q.0284-.016.05791-.02982a.02457.02457,0,0,0,.0145-.00307l.01117-.00837a.57848.57848,0,0,1,.14165-.04058.258.258,0,0,1,.19273.03317.1652.1652,0,0,1,.04738.10572c.00741.04731.01232.09516.01644.14285a2.10941,2.10941,0,0,1,.00585.2841c-.00494.10233-.01643.2042-.03016.30569-.00725.05359-.01537.10706-.0239.16046-.00471.02947-.01213.05985-.01544.09016l-.06664-.03355c-.09035-.04566-.18522-.08752-.27073-.14184a.01662.01662,0,0,0-.0192.02712c.07013.05691.136.118.21067.16931a2.28372,2.28372,0,0,0,.22989.13707,4.78876,4.78876,0,0,0,.49489.22018,4.5803,4.5803,0,0,0,1.07608.30643,1.66909,1.66909,0,0,0,.3089.0107,1.288,1.288,0,0,0,.30827-.04349A.02736.02736,0,0,0,7.68821,6.832ZM5.61276,6.32378c-.03328-.0156-.06635-.03159-.09933-.04772a.59532.59532,0,0,0,.01915-.09244c.00855-.05066.0168-.10137.02437-.15219.01471-.09876.02633-.198.0325-.29765a1.39476,1.39476,0,0,0-.05152-.56342.22743.22743,0,0,0-.13067-.13472.87116.87116,0,0,1,.16559-.067.27793.27793,0,0,1,.18513.01917.19365.19365,0,0,1,.09093.17444,1.83469,1.83469,0,0,1-.00567.2364,3.39084,3.39084,0,0,1-.06616.48122,4.62465,4.62465,0,0,1-.13125.45921Zm.99733.37688a7.00739,7.00739,0,0,1-.88155-.324,2.2678,2.2678,0,0,0,.084-.23879.68244.68244,0,0,0,.108-.0489c.04565-.02078.092-.04238.137-.06539a.36972.36972,0,0,0,.03234.10154.57458.57458,0,0,0,.24613.24085c.10424.05786.22259.08766.32431.14942a.47819.47819,0,0,1,.18331.24561Q6.72616,6.73456,6.61009,6.70066Z" /><path d="M4.514,5.36376a.25547.25547,0,0,0-.115.03417.72457.72457,0,0,1-.13611.05117.01018.01018,0,0,0,.00318.0201c.08269-.01168.2063.00746.26808-.06124A.02831.02831,0,0,0,4.514,5.36376Z" /><path d="M5.25691,5.395a.286.286,0,0,0-.22017.234.7724.7724,0,0,0-.01255.207.33857.33857,0,0,0,.04024.19432.0287.0287,0,0,0,.04848-.00806.33525.33525,0,0,0,.01016-.15546A1.05785,1.05785,0,0,1,5.125,5.68829.31781.31781,0,0,1,5.26958,5.438.0227.0227,0,0,0,5.25691,5.395Z" /><path d="M2.89442,5.10616a.748.748,0,0,0-.10149-.14406A.18635.18635,0,0,0,2.668,4.88444a.09226.09226,0,0,0-.08879.05875c-.004.00887.00967.016.015.00794.03151-.04725.09321-.00364.11957.02423a.63671.63671,0,0,1,.07386.09847.82815.82815,0,0,1,.05673.10754A.35189.35189,0,0,0,2.9,5.29283a.02643.02643,0,0,0,.046-.01389A.27861.27861,0,0,0,2.89442,5.10616Z" /><path d="M6.87838,7.10921a.39.39,0,0,0-.21267-.077,1.53166,1.53166,0,0,0-.23507-.01381c-.15936,0-.31828.00905-.4773-.00631a2.16775,2.16775,0,0,1-.87223-.28422.59882.59882,0,0,0-.17089-.07735.33451.33451,0,0,1,.1026-.02179c.03723-.00167.04131-.061.00714-.07135A.23449.23449,0,0,0,4.92332,6.542a.30455.30455,0,0,0-.09789.02759.94.94,0,0,0-.169.10885.78138.78138,0,0,1-.38062.17927.379.379,0,0,1-.33686-.13915,2.17919,2.17919,0,0,1-.183-.32277.01606.01606,0,0,0-.0304.00486.36705.36705,0,0,0-.00008.08212c-.02056-.01471-.04167-.02866-.06344-.04133a.50852.50852,0,0,0-.11708-.052c-.03817-.01074-.07767-.01595-.11616-.02523a1.88025,1.88025,0,0,0,.16906-.10656,1.32175,1.32175,0,0,0,.211-.18318c.03-.03246.05434-.06843.08108-.10343a.30816.30816,0,0,1,.07982-.06989,1.18379,1.18379,0,0,1,.16041.17375A.01553.01553,0,0,0,4.15475,6.074c.03789-.0643-.03868-.14895-.07681-.19768a1.87206,1.87206,0,0,0-.17282-.1833c-.06-.05852-.12366-.11345-.18146-.17426-.029-.03049-.05735-.062-.08357-.09488a.55171.55171,0,0,1-.07718-.10851.01468.01468,0,0,0-.02165-.00633A.035.035,0,0,0,3.5301,5.274a.02146.02146,0,0,0,.01428-.01535c.01013-.03256.01392-.06621.02606-.09824a.53561.53561,0,0,1,.05069-.096c.03975-.06274.08635-.12083.1318-.17945.10167-.13113.20421-.26175.30227-.39562a1.52275,1.52275,0,0,1,.26017-.29822.50259.50259,0,0,1,.1736-.09217,1.165,1.165,0,0,0,.196-.05332.36289.36289,0,0,0,.1476-.16479A.96325.96325,0,0,0,4.885,3.76562c.01623-.04353.02-.08988.03508-.13351a.01409.01409,0,0,0-.0264-.00982.76118.76118,0,0,1-.06147.10689c-.02.03519-.0406.07-.06233.10414a.31282.31282,0,0,1-.14841.14975,1.41046,1.41046,0,0,0-.19136.06591,1.05487,1.05487,0,0,0-.1561.10167,1.87975,1.87975,0,0,0-.27914.288c-.10347.12562-.20241.255-.30212.38362a1.55585,1.55585,0,0,0-.1499.21065.32206.32206,0,0,0-.04721.22086l.00518.00961a.33923.33923,0,0,0-.21007.04466.36886.36886,0,0,0-.08633.066l-.00241-.001c-.04187-.014-.0875-.00471-.13057-.01738a.155.155,0,0,1-.10207-.0738c-.00468-.01016-.022-.00587-.01936.00571a.18493.18493,0,0,0,.07738.12427.23181.23181,0,0,0,.11834.03532.06482.06482,0,0,1-.03537.01977c-.01206.00149-.00875.01892.00289.01829a.14.14,0,0,0,.08039-.02233c.03174-.0208.06038-.04451.09418-.0623a.4944.4944,0,0,1,.10172-.0407c.03955-.01056.08015-.00709.11936-.01576a.04154.04154,0,0,0,.02559-.01833l.00061.0019c.0158.03686.02566.076.04337.11213a.7675.7675,0,0,0,.0598.09964c.0188.027.03876.05321.05955.07882-.06722.021-.13381.04472-.201.06558a2.386,2.386,0,0,0-.2747.09622.82828.82828,0,0,0-.23287.15481L2.98092,5.943a.25623.25623,0,0,0-.0773-.06569c-.04169-.02885-.08559-.05471-.12582-.0856-.0664-.051-.11374-.11527-.19922-.13318-.01545-.00323-.021.02183-.00621.02677a.21205.21205,0,0,1,.08915.08457,1.24708,1.24708,0,0,0,.0855.099.88343.88343,0,0,0,.09243.0859.42138.42138,0,0,0,.07612.05446l-.0285.0311a.66927.66927,0,0,1-.10444.10352c-.01158.00815-.00245.0299.01166.026a.42568.42568,0,0,0,.12229-.04865.74032.74032,0,0,0,.1099-.08766.86026.86026,0,0,1,.23561-.16307A2.30479,2.30479,0,0,1,3.5306,5.777a1.09225,1.09225,0,0,0,.228-.08817l.03492.03727c.04186.04336.0852.08537.12825.12762a.68871.68871,0,0,0-.15042.12142,1.87583,1.87583,0,0,1-.2142.18844c-.15335.11085-.33033.18871-.47859.30616-.01272.01007-.00335.03412.01347.03008a1.31027,1.31027,0,0,0,.296-.11365l.00893.00619a.91664.91664,0,0,1,.21719.12857.97747.97747,0,0,1,.0936.07035.55837.55837,0,0,0,.06378.05523c.00756.01681.01572.0331.02436.04863a.54026.54026,0,0,0,.21451.21816.63525.63525,0,0,0,.66546-.116c.03059-.0225.06188-.04651.09431-.06916.11472-.03306.2339.07225.32882.1269a1.99533,1.99533,0,0,0,.39715.17334,2.20238,2.20238,0,0,0,.41713.08818,3.56775,3.56775,0,0,0,.44521.00985A2.26974,2.26974,0,0,1,6.61,7.134c.04.00388.07986.00878.11928.01652a.49414.49414,0,0,0,.12688.01693A.03608.03608,0,0,0,6.87838,7.10921Z" /><path d="M2.82787,5.53066a.64591.64591,0,0,0-.10615.02919.46774.46774,0,0,0-.09637.03485c-.014.00714-.00432.02932.00991.0224.06912-.03363.16861.03653.22418-.0356A.03288.03288,0,0,0,2.82787,5.53066Z" /><path d="M2.44153,5.44164A.0271.0271,0,0,0,2.39488,5.437a1.05782,1.05782,0,0,1-.054.1119.10392.10392,0,0,1-.0422.03139c-.00823.00341-.04893.01432-.04817.00124a.01425.01425,0,0,0-.02293-.0123.04386.04386,0,0,0,.00317.06857.10605.10605,0,0,0,.10624.01583A.17832.17832,0,0,0,2.44153,5.44164Z" /><path d="M2.46779,4.92792c-.08134-.07676-.13137.14156-.14633.18512a.00907.00907,0,0,0,.01583.00836c.019-.02827.03874-.05609.05705-.08484.01515-.02378.02781-.0603.05751-.06682C2.46866,4.96606,2.48316,4.94242,2.46779,4.92792Z" /><path d="M2.48735,5.03746a.36538.36538,0,0,0-.07651.25029.0295.0295,0,0,0,.05631.00563c.03072-.07826.01447-.16827.04316-.24738C2.51584,5.03075,2.49446,5.02389,2.48735,5.03746Z" /><path d="M7.88368,6.56645a1.9586,1.9586,0,0,1-.43017.02987.48487.48487,0,0,1-.31962-.16758c-.09351-.11278-.17912-.233-.26817-.34938q-.13518-.17662-.27127-.35255c-.04913-.06321-.098-.12653-.1433-.19262-.03509-.05124-.075-.11934-.13606-.14213a.01172.01172,0,0,0-.0146.01551.98175.98175,0,0,0,.09222.17908c.03487.06251.074.12213.11487.18086.08906.128.18748.25014.28215.374l.14752.193c.04556.05962.08893.12241.14008.17747a.5426.5426,0,0,0,.33437.16343,1.11914,1.11914,0,0,0,.48672-.05907C7.92815,6.6065,7.91161,6.564,7.88368,6.56645Z" /><path d="M7.886,6.64a.16151.16151,0,0,0-.036.0389.0578.0578,0,0,0-.00936.05644.02608.02608,0,0,0,.02763.015.05964.05964,0,0,0,.0453-.0379.15649.15649,0,0,0,.01693-.04863A.02766.02766,0,0,0,7.886,6.64Z" /><path d="M5.4884,3.84687a.195.195,0,0,1-.15572.041.37189.37189,0,0,1-.09091-.02937c-.01683-.00758-.097-.03961-.09744-.06172a.00926.00926,0,0,0-.01842-.00184c-.005.041.03244.08158.05956.10823A.35187.35187,0,0,0,5.23,3.94073a.38554.38554,0,0,0-.0383.05326.5339.5339,0,0,0-.06029.12512.4483.4483,0,0,0-.01513.26406.0142.0142,0,0,0,.02608-.00079,1.2238,1.2238,0,0,1,.069-.2407.745.745,0,0,1,.06032-.10752.53857.53857,0,0,0,.039-.05685l.00707.00177a.16727.16727,0,0,0,.20324-.11468C5.52441,3.84659,5.50113,3.83678,5.4884,3.84687Z" /><path d="M5.546,2.94519a.46055.46055,0,0,0-.36976-.17994.53773.53773,0,0,0-.40776.133,1.755,1.755,0,0,0-.26414.36777,2.29445,2.29445,0,0,0-.17706.41247c-.028.07976-.05618.1596-.08651.23851a2.06014,2.06014,0,0,1-.1046.24738c-.00689.01269.00995.0258.01887.01336a2.17328,2.17328,0,0,0,.20952-.34982c.05868-.126.11012-.255.16647-.382a1.74262,1.74262,0,0,1,.19661-.37381.63328.63328,0,0,1,.349-.21754.60387.60387,0,0,1,.43942.12272A.02223.02223,0,0,0,5.546,2.94519Z" /><path d="M5.48673,3.00767a.79422.79422,0,0,0-.18882-.01194.37682.37682,0,0,0-.15437.05859.32205.32205,0,0,0-.10438.12507c-.01139.02171-.02056.04488-.03263.06618a.11621.11621,0,0,1-.06456.049.05969.05969,0,0,0-.01642-.01035.06919.06919,0,0,0-.08757.05126.22315.22315,0,0,0,.00872.13141c.01259.04.03357.10578.07236.12656a.02917.02917,0,0,0,.04528-.02063c.00306-.04832-.038-.09373-.04927-.141-.00216-.009-.01456-.07265-.00394-.07576a.491.491,0,0,1,.05305.03527c.00788.00418.02116-.00044.01845-.01146a.33544.33544,0,0,0-.01239-.04117.241.241,0,0,0,.10826-.04229c.04167-.03347.05628-.086.08807-.12729a.32082.32082,0,0,1,.11748-.09206.43826.43826,0,0,1,.20028-.04553A.012.012,0,0,0,5.48673,3.00767Z" /><path d="M4.91118,3.01522a.95866.95866,0,0,0-.30791.4462c-.03737.08361-.0681.17-.10561.25345a.52779.52779,0,0,1-.12944.20175.02292.02292,0,0,0,.02368.03852c.16945-.06139.21724-.24826.27585-.39984a1.94077,1.94077,0,0,1,.26118-.52353C4.9383,3.02,4.92192,3.00855,4.91118,3.01522Z" /><path d="M4.7786,3.56118a.02626.02626,0,0,0-.04506-.00451,1.004,1.004,0,0,0-.07225.15116c-.02718.0557-.04552.115-.07312.17025-.00522.01045.01083.01773.01744.00922A2.04075,2.04075,0,0,0,4.742,3.72553.18427.18427,0,0,0,4.7786,3.56118Z" /><path d="M5.451,3.3746a.15424.15424,0,0,1-.07043-.00092c-.02-.00276-.03961-.00707-.05951-.01009-.03-.00453-.034.03575-.011.04764a.13006.13006,0,0,0,.07657.01224.31793.31793,0,0,0,.07359-.02816C5.47381,3.39016,5.46456,3.36947,5.451,3.3746Z" /><path d="M5.45709,3.30434c-.02443-.09549-.16158-.02667-.21464.00306-.01168.00654-.008.02747.00713.02417a.33452.33452,0,0,1,.17825-.00328C5.44215,3.33333,5.46133,3.3209,5.45709,3.30434Z" /><path d="M5.65109,3.37618a.177.177,0,0,1-.034.0025.07229.07229,0,0,0-.02206.00348l-.00522.00191a.13083.13083,0,0,0,.02013-.10121.81412.81412,0,0,0-.046-.20169c-.00343-.01126-.01913-.00467-.01848.00545.00378.05907-.0021.11855-.00045.17771.00115.041.00112.08394-.00068.12424a.01333.01333,0,0,0,.01843.01335l0,0a.0203.0203,0,0,0,.01735.02241c.00775.00119.0147.00553.02262.00632a.0539.0539,0,0,0,.02639-.0044.088.088,0,0,0,.03472-.02943A.01331.01331,0,0,0,5.65109,3.37618Z" /><path d="M5.62592,3.50206C5.609,3.476,5.57685,3.45913,5.5684,3.42872c-.00156-.0056-.01113-.00865-.013-.0013a.08819.08819,0,0,0,.00708.05555c.01071.026.03106.04212.03009.07007l-.01145.01a.017.017,0,0,0,.01329.02967l.02533-.00315A.02446.02446,0,0,0,5.639,3.57381.07808.07808,0,0,0,5.62592,3.50206Z" /><path d="M5.5485,3.64317c-.04332-.00729-.08847.0081-.13226.00052a.01445.01445,0,0,0-.0125.02331.11245.11245,0,0,0,.07649.04523.08892.08892,0,0,0,.08562-.031A.02446.02446,0,0,0,5.5485,3.64317Z" /></svg>