<svg xmlns="http://www.w3.org/2000/svg" viewBox="31.69889849261481 55.999968420017204 448.60220301477034 399.3568012898543" x="0px" y="0px"><title>clothes-fashion-female clothes-shorts-sailor shorts</title><g><path d="M374.4,57.19A3.425,3.425,0,0,0,371.79,56H338.47l4.06,40h30.86l1.75-35.32c.01-.24.04-.49.07-.73A3.4,3.4,0,0,0,374.4,57.19ZM322.39,56H264V96h8.4a20,20,0,0,1,39.2,0h14.85ZM292,96a4,4,0,1,0,4,4A4,4,0,0,0,292,96ZM189.7,56l-3.88,40H200.4a20,20,0,0,1,39.2,0H248V56ZM220,96a4,4,0,1,0,4,4A4,4,0,0,0,220,96ZM140.21,56a3.454,3.454,0,0,0-3.42,3.95c.03.24.06.49.07.73L138.61,96h31.13l3.89-40ZM212,160a4,4,0,1,0,4,4A4,4,0,0,0,212,160Zm0,0a4,4,0,1,0,4,4A4,4,0,0,0,212,160Zm-8,72a4,4,0,1,0,4,4A4,4,0,0,0,204,232Zm8-72a4,4,0,1,0,4,4A4,4,0,0,0,212,160Zm88,0a4,4,0,1,0,4,4A4,4,0,0,0,300,160Zm0,0a4,4,0,1,0,4,4A4,4,0,0,0,300,160Zm-88,0a4,4,0,1,0,4,4A4,4,0,0,0,212,160Zm-8,72a4,4,0,1,0,4,4A4,4,0,0,0,204,232ZM480.13,430.95c-.12-.33-26.53-116.5-26.53-116.5a754.747,754.747,0,0,0-33.86-109.57l-34.33-86.93c-.04-.1-.08-.2-.11-.3a8.442,8.442,0,0,0-7.97-5.65H345.06l31.78,158.43a7.987,7.987,0,0,1-6.27,9.41,7.772,7.772,0,0,1-1.58.16,8,8,0,0,1-7.83-6.43L328.75,112H307.96a19.92,19.92,0,0,1-31.92,0H264V384a8,8,0,0,1-16,0V112H235.96a19.92,19.92,0,0,1-31.92,0H183.58L151.85,273.54a8,8,0,0,1-7.84,6.46,8.218,8.218,0,0,1-1.55-.15,8,8,0,0,1-6.31-9.39L167.28,112H134.67a8.442,8.442,0,0,0-7.97,5.65c-.03.1-.07.2-.11.3L92.26,204.88A754.747,754.747,0,0,0,58.4,314.45S31.99,430.62,31.87,430.95a2.774,2.774,0,0,0,1.97,3.66l69.34,11.47a2.381,2.381,0,0,1,.26.05,5.522,5.522,0,0,0,6.02-2.95l3.38-6.76a8,8,0,0,1,14.31,0l4.58,9.15a5.569,5.569,0,0,0,4.52,3.04l87.65,6.74a1.836,1.836,0,0,0,1.96-1.48l4.68-23.38A18.086,18.086,0,0,1,248.22,416h15.56a18.067,18.067,0,0,1,17.67,14.49l4.68,23.37a1.861,1.861,0,0,0,1.97,1.49l87.66-6.74a5.548,5.548,0,0,0,4.5-3.03l4.59-9.16a8,8,0,0,1,14.31,0l3.38,6.76a5.542,5.542,0,0,0,6.02,2.95,2.381,2.381,0,0,1,.26-.05l69.34-11.47a2.774,2.774,0,0,0,1.97-3.66ZM204,256a20,20,0,1,1,20-20A20.02,20.02,0,0,1,204,256Zm8-72a20,20,0,1,1,20-20A20.02,20.02,0,0,1,212,184Zm68-20a20,20,0,1,1,20,20A20.02,20.02,0,0,1,280,164Zm28,92a20,20,0,1,1,20-20A20.02,20.02,0,0,1,308,256Zm0-24a4,4,0,1,0,4,4A4,4,0,0,0,308,232Zm-4-68a4,4,0,1,0-4,4A4,4,0,0,0,304,164Zm-92-4a4,4,0,1,0,4,4A4,4,0,0,0,212,160Zm-8,72a4,4,0,1,0,4,4A4,4,0,0,0,204,232Zm8-72a4,4,0,1,0,4,4A4,4,0,0,0,212,160Zm88,0a4,4,0,1,0,4,4A4,4,0,0,0,300,160Zm0,0a4,4,0,1,0,4,4A4,4,0,0,0,300,160Zm-88,0a4,4,0,1,0,4,4A4,4,0,0,0,212,160Z" /></g></svg>