<svg xmlns="http://www.w3.org/2000/svg" data-name="Layer 1" viewBox="1.8693026564292727 3.117276135417208 6.261348460399827 3.7612553762629726" x="0px" y="0px"><title>KAMASUTRA</title><path d="M2.62941,6.51554a.61386.61386,0,0,0-.18933.07624c-.06433.0313-.12767.06506-.19288.0945a.36189.36189,0,0,1-.18334.042.16369.16369,0,0,1-.14038-.082c-.00637-.01642-.02946-.00518-.0245.01085a.19552.19552,0,0,0,.09947.12612.27578.27578,0,0,0,.20083.01075A1.45736,1.45736,0,0,0,2.424,6.69674a.805.805,0,0,0,.22944-.12765A.03068.03068,0,0,0,2.62941,6.51554Z" /><path d="M6.43413,6.46373c-.051-.04491-.11082-.07837-.1655-.11839-.05516-.04036-.10813-.0835-.16048-.1274-.10447-.08761-.20433-.18-.30412-.2729-.10411-.09688-.21481-.1884-.31508-.2892a.55058.55058,0,0,1-.18327-.36863c.0005-.02088-.03151-.0245-.0326-.00326a.669.669,0,0,0,.00781.20526.49539.49539,0,0,0,.042.10823,2.15905,2.15905,0,0,1-.14612.17242.52016.52016,0,0,1-.08569.0689,3.84175,3.84175,0,0,0-.49584.04023c-.22256.029-.44109.07414-.66111.11756q-.125.02466-.24937.05086c-.1162-.162-.24026-.31824-.35511-.48139q-.08395-.11925-.16546-.24023C3.13634,5.2846,3.10941,5.24245,3.079,5.203c-.031-.04022-.06833-.07507-.1006-.11428.01139-.02967.02237-.0595.03323-.08935a1.38447,1.38447,0,0,1,.16205-.35772.01415.01415,0,0,0-.02041-.019.6327.6327,0,0,0-.18079.23969c-.04206.098-.07041.20159-.11544.29829a3.03031,3.03031,0,0,0-.17416.30005.64358.64358,0,0,0-.02537.17748l-.00845.20855c-.00622.15345-.018.30784-.01409.46143-.06729.01514-.13412.03368-.20068.053-.02319-.19929-.04229-.39906-.05243-.59947a.94706.94706,0,0,1,.06958-.55287.69025.69025,0,0,0,.09462-.25629c.01653-.10069.03249-.20131.05648-.30058a.56265.56265,0,0,1,.202-.37159.03386.03386,0,0,0,.01267-.00179A.40523.40523,0,0,1,2.975,4.26264a.4612.4612,0,0,0,.152-.00025A.01219.01219,0,0,0,3.132,4.24071a.36611.36611,0,0,0-.13795-.04483.263.263,0,0,0,.0826-.07569.56834.56834,0,0,0,.08521-.2347c.00261-.01443-.02038-.02371-.02759-.01032a1.07084,1.07084,0,0,1-.12272.19893.259.259,0,0,1-.09432.07118c-.04249.0182-.08831.02725-.13041.04648a.551.551,0,0,0-.25963.3807c-.02732.09727-.04874.19622-.06635.29568a.70589.70589,0,0,1-.08466.26871.62613.62613,0,0,0-.09771.2642,1.82166,1.82166,0,0,0-.00267.28617c.00789.211.02382.42182.051.63122a.323.323,0,0,0-.05479-.01033.60833.60833,0,0,0-.13608-.0039.52586.52586,0,0,0-.11758.02761c-.018.00609-.03568.01319-.05366.01943a.267.267,0,0,1-.08389.02279c-.01409-.0017-.01572.0191-.00216.02162.01911.00357.03547.01517.05474.01827a.25545.25545,0,0,0,.05715.00009c.04115-.00289.08055-.01443.12105-.02129A.43954.43954,0,0,1,2.2399,6.3922c.01968.00244.03888.00677.05788.009l-.01561.00456a1.17813,1.17813,0,0,0-.33555.133c-.00791.00533-.001.01683.00713.0159a2.31018,2.31018,0,0,0,.32394-.07554c.10365-.0274.208-.0522.31169-.07924.105-.02736.20727-.063.31318-.08757.11062-.02568.221-.05235.33148-.07849.21034-.04975.42108-.10121.63285-.14446.21672-.04425.436-.075.65521-.10415.24545-.03265.49311-.04649.73759-.0856a.0273.0273,0,0,0-.00154-.0539l-.05189-.00366.001-.00087a1.3958,1.3958,0,0,0,.15667-.17681l.00848.012A2.537,2.537,0,0,0,5.7009,6.008c.05968.05575.119.11226.17931.16753a.92206.92206,0,0,1-.40213.21629,2.39682,2.39682,0,0,1-.671.03049c-.225-.00894-.44992-.01874-.67492-.02672a2.49832,2.49832,0,0,0-.33481.003,1.95556,1.95556,0,0,0-.31905.073,1.25816,1.25816,0,0,1-.36641.04049c-.0645-.00174-.12916-.00636-.19348-.01141a.75282.75282,0,0,0-.181-.00484.01236.01236,0,0,0-.00236.02357.58613.58613,0,0,0,.16067.04575c.05835.01132.11669.021.1759.02656A1.23263,1.23263,0,0,0,3.418,6.5798c.10871-.02082.21321-.05922.32252-.07742a1.69614,1.69614,0,0,1,.35013-.01564c.23835.01.47662.02276.7149.03419a2.39909,2.39909,0,0,0,.68826-.02967.77451.77451,0,0,0,.44371-.264c.03173.02812.06385.05577.09667.08255a1.68838,1.68838,0,0,0,.17844.12732.627.627,0,0,0,.1975.09085C6.44873,6.5361,6.45732,6.48417,6.43413,6.46373ZM2.74759,5.79795c.0032-.0789.00259-.15917.01167-.23768a.46711.46711,0,0,1,.08951-.20395,1.30447,1.30447,0,0,0,.10988-.21758c.01079.02645.02083.05322.03246.07927l-.00025.001a1.63022,1.63022,0,0,0-.01567.33522c.00584.09356.036.18232.05012.27383a.31769.31769,0,0,0-.1296.01643.3937.3937,0,0,0-.09429.05073c-.01828.01215-.036.02494-.05361.03807L2.74307,5.937C2.74439,5.89056,2.74572,5.84416,2.74759,5.79795Zm.5371.34177c-.18705.0474-.37223.10233-.55971.14752.00962-.09672.01344-.19441.01638-.292a.77128.77128,0,0,0,.12128-.0532.33787.33787,0,0,1,.11067-.03116A.451.451,0,0,0,3.089,5.90518a.02735.02735,0,0,0,.01-.04207A.09685.09685,0,0,0,3.06354,5.838c.00612-.092-.012-.18565-.01063-.27793.00107-.07124.00672-.14206.01159-.21293l.01255.01954q.08325.12949.17149.25555l.03964.05668c-.00138.01686-.00154.034-.00291.04995-.00272.03173-.00579.06342-.00962.095-.00414.0342-.00911.06834-.01555.10219a.168.168,0,0,1-.02536.07526c-.02.02327-.05563.01522-.08314.01453-.039-.001-.07774-.00125-.11677-.00031-.06969.00168-.1358.01228-.20442.02-.01027.00116-.00852.01524.00049.017.04407.00856.08585.02153.13073.02764.04387.006.08786.0114.132.01449.06744.00471.154.02276.20285-.03676a.3918.3918,0,0,0,.056-.19443c.00368-.02681.00667-.05369.00931-.08062.07015.098.14241.1948.21955.28687C3.48218,6.09167,3.38329,6.11473,3.28469,6.13972Z" /><path d="M3.92881,3.3227A.51449.51449,0,0,0,3.6077,3.134a.50863.50863,0,0,0-.58976.27573.74464.74464,0,0,0,.02367.452c.00149.00636.01129.005.01012-.0016a.76659.76659,0,0,1,.00351-.23623.58791.58791,0,0,1,.05248-.20817.4025.4025,0,0,1,.27435-.19931.548.548,0,0,1,.39362.08083.2209.2209,0,0,1,.11019.15417A1.28734,1.28734,0,0,1,3.886,3.661a.02661.02661,0,0,0,.05119.01187A.386.386,0,0,0,3.92881,3.3227Z" /><path d="M3.22694,3.58887a.08479.08479,0,0,0-.09972.02226.13214.13214,0,0,0-.029.11157c.005.03741.01645.09568.05076.11649a.00981.00981,0,0,0,.01472-.00455,1.12909,1.12909,0,0,0-.00047-.1202c.00534-.03813.02587-.07385.06174-.04052a.02028.02028,0,0,0,.02829-.00484A.06023.06023,0,0,0,3.22694,3.58887Z" /><path d="M3.77573,3.4332c-.02866.00576-.04692.01625-.07421-.00084A.577.577,0,0,1,3.649,3.38854a.14429.14429,0,0,0-.13546-.02779.205.205,0,0,0-.11513.09609c-.03131.052-.04031.12557-.08458.16828-.00825.008.00228.02141.01143.014a.67786.67786,0,0,0,.11227-.11151c.03134-.04027.075-.10121.13456-.08843.0436.00936.07287.053.11347.06989a.09514.09514,0,0,0,.12022-.02754C3.818,3.46012,3.80394,3.42753,3.77573,3.4332Z" /><path d="M3.62367,3.66728A.21384.21384,0,0,0,3.507,3.66573c-.02349.00538-.057.01134-.06757.03538a.0148.0148,0,0,0,.00519.01684l.00267.00231a.01221.01221,0,0,0,.01823-.003c.01061.00126.04262.01035.05893.01462a.19791.19791,0,0,0-.03851.00819c-.01673.006-.01275.02878.00106.035a.215.215,0,0,0,.07206.01363c.01817.00138.04328.00229.04617-.02153a.02668.02668,0,0,0-.01232-.02771l.02378-.0026A.03642.03642,0,0,0,3.62367,3.66728Z" /><path d="M5.43074,4.95491a.40266.40266,0,0,0-.15221.01659,2.27851,2.27851,0,0,0-.22869-.3297c-.04073-.05256-.08263-.10458-.12757-.15361a.45162.45162,0,0,0-.14745-.12629c-.00873-.00337-.02106.0048-.01821.01489a.49629.49629,0,0,0,.09438.14987c.04164.05522.08448.10951.12589.16492q.05982.08.11588.16278c.031.0457.05949.094.091.13966-.02491.00676-.04968.014-.07435.02164a1.262,1.262,0,0,0-.30332.14494c-.014.0089-.02756.01816-.041.0276a.03517.03517,0,0,0-.0077-.01446,1.16541,1.16541,0,0,1-.18609-.33332A1.03981,1.03981,0,0,0,4.48676,4.667a.63341.63341,0,0,0-.05526-.07232,1.02348,1.02348,0,0,0-.07925-.06853c-.00651-.00612-.01727.00178-.01113.0091a.25443.25443,0,0,1,.03476.0637.592.592,0,0,0-.12532-.01656.97859.97859,0,0,1-.31248-.06476,1.28706,1.28706,0,0,1-.269-.14889c-.06544-.04587-.12315-.10066-.18387-.15174a.34454.34454,0,0,0,.06658.00819.16267.16267,0,0,0,.12541-.03981.79107.79107,0,0,0,.0944-.11654A.65812.65812,0,0,0,3.846,3.93754a.49792.49792,0,0,0,.04418-.14638.01634.01634,0,0,0-.00685-.01453.03512.03512,0,0,0-.01818-.041.03141.03141,0,0,0-.01739-.02235.11084.11084,0,0,0-.09723.00969c-.014.00606-.00627.02414.007.02373a.06968.06968,0,0,1,.03313.00713l-.02407.00677c-.00909.00336-.0157.00943-.02438.01354l-.00189.00793a.07743.07743,0,0,0,.0569.02718.12862.12862,0,0,0,.04811-.00646c-.01552.02585-.0279.05417-.044.07952q-.03406.05349-.06895.10661a1.08855,1.08855,0,0,1-.07147.09692.12444.12444,0,0,1-.10729.06149.37334.37334,0,0,1-.197-.06306.4096.4096,0,0,1-.14317-.17191.0123.0123,0,0,0-.02329.00687.35511.35511,0,0,0,.19183.25911.24573.24573,0,0,0,.01557.17261.014.014,0,0,0,.02566-.00078c.0086-.03164.01255-.06615.021-.09828a.8143.8143,0,0,0,.15443.17025,1.1209,1.1209,0,0,0,.25681.16476,1.21928,1.21928,0,0,0,.123.05117c.001.03785.0057.076.00806.11355.00343.05454.00642.10933.01159.16375a.57032.57032,0,0,0,.08659.25566.9433.9433,0,0,0,.16569.19086,1.10341,1.10341,0,0,0,.17384.13495c-.04511.03949-.09174.07721-.14041.11445a.01419.01419,0,0,0,.01112.02481.52772.52772,0,0,0,.28862-.15382,1.83723,1.83723,0,0,1,.25559-.22742,1.636,1.636,0,0,1,.29438-.15062c.05108-.02116.1029-.04.15536-.05741a.69883.69883,0,0,0,.15358-.05317C5.46022,4.98251,5.447,4.958,5.43074,4.95491Zm-.8791.42075c-.01854.01922-.03731.03778-.05628.05595-.0527-.04793-.11454-.08687-.16874-.13294a.77442.77442,0,0,1-.16216-.177A2.41384,2.41384,0,0,1,4.03163,4.655a.74887.74887,0,0,0,.13418.02612c.04548.00435.09134.00393.1367.00978a.84009.84009,0,0,1,.12529.04152c.02074.05864.043.11676.0652.17488a.61392.61392,0,0,0,.21615.31816l.00368.00186A1.636,1.636,0,0,0,4.55164,5.37566Z" /><path d="M3.05044,3.91071c-.01546-.024-.04254-.03144-.06634-.04522A.22545.22545,0,0,1,2.918,3.81384a.25052.25052,0,0,1-.02777-.15037c.01892.004.0376.00936.05671.01282a.00819.00819,0,0,0,.00708-.0132.50579.50579,0,0,0-.07832-.06692.03463.03463,0,0,0-.05392.02457.32332.32332,0,0,0,.03356.24436c.03816.04712.12145.11.18427.09124C3.05992,3.95026,3.05945,3.92471,3.05044,3.91071Z" /><path d="M4.73394,4.30189a.27366.27366,0,0,0-.18539-.06873c-.07427-.00543-.14881-.00744-.22313-.01251-.07693-.00524-.1538-.01145-.23015-.02244-.08326-.012-.17037-.023-.25211-.042a.01018.01018,0,0,0-.0071.01908.91781.91781,0,0,0,.20734.08,2.07971,2.07971,0,0,0,.22813.03846,1.1866,1.1866,0,0,1,.42106.06608C4.72465,4.37627,4.75906,4.32705,4.73394,4.30189Z" /><path d="M7.49106,6.45761c-.00954-.01693-.03937-.0271-.051-.0051a.37738.37738,0,0,0-.01854.06252.17658.17658,0,0,1-.03836.06176.31121.31121,0,0,1-.12436.07739,1.67866,1.67866,0,0,1-.35433.04017.63167.63167,0,0,0-.16615.04587.33151.33151,0,0,1-.14814.0423A.08592.08592,0,0,1,6.50321,6.711.73139.73139,0,0,0,6.494,6.63677a.15594.15594,0,0,0-.03231-.04929c-.01-.014-.03518.001-.02611.01605.01412.02335-.00237.07167-.00524.097a.17261.17261,0,0,0,.00606.08018.15719.15719,0,0,0,.11084.09171.28285.28285,0,0,0,.1703-.01693.91526.91526,0,0,1,.2105-.06156,1.18931,1.18931,0,0,0,.41185-.065.29219.29219,0,0,0,.12417-.117C7.48683,6.57181,7.51608,6.502,7.49106,6.45761Z" /><path d="M7.39195,6.384a.21372.21372,0,0,0-.11069-.00272l-.01768-.00546a.57082.57082,0,0,1-.07-.03882c-.04348-.0242-.09338-.03626-.13567-.06161-.01035-.0062-.02138.00891-.011.01549.0504.03182.09086.07717.14168.10983a.56964.56964,0,0,1-.10385.02148c-.0122.00087-.00913.0196.003.01874a1.28811,1.28811,0,0,1,.16657.01443.29049.29049,0,0,0,.13949-.01A.03355.03355,0,0,0,7.39195,6.384Z" /><path d="M7.01076,6.19328A1.00931,1.00931,0,0,1,6.883,5.7227c-.01554-.09641-.03317-.193-.05409-.28836-.00983-.04484-.02269-.08869-.03639-.13247-.01653-.0528-.04-.10508-.05245-.15888a.01892.01892,0,0,0-.03736.0059c.00762.05232.00481.107.00843.15984q.00235.03427.0056.06824c-.0611.024-.119.0577-.17934.08371a1.075,1.075,0,0,0-.17625.08876.451.451,0,0,0-.169.21068c-.09709-.12037-.19424-.24074-.29417-.35878-.05314-.06278-.11165-.12408-.16721-.18759a.21422.21422,0,0,0,.03922-.046l.01039.00947a.18822.18822,0,0,0,.23215.0226.02983.02983,0,0,0-.01573-.05215A.26422.26422,0,0,1,5.83193,5.086a.1814.1814,0,0,1-.0229-.18581c.00956-.02994.015-.05589.04293-.07236.02874-.01692.05763-.03342.08575-.05137a1.2045,1.2045,0,0,0,.164-.137.0203.0203,0,0,0-.02569-.0314c-.01843.01239-.03758.02379-.05712.03461a.21986.21986,0,0,0,.03656-.09943c.00436-.0386-.00875-.09288.023-.12187a.275.275,0,0,1,.132-.03965.02045.02045,0,0,0,.00391-.03906c-.08679-.034-.19895-.02382-.22992.07958a.56811.56811,0,0,0-.00188.14552.22231.22231,0,0,1-.03855.11267c-.04369.02022-.08836.03854-.13211.0569a.25422.25422,0,0,0-.11977.2206.25732.25732,0,0,0,.03381.154l-.0047.00289a.17029.17029,0,0,0-.04258.03719,1.07029,1.07029,0,0,1-.10064-.14468c-.01216-.02148-.04757-.00615-.03543.01568A5.20354,5.20354,0,0,0,6.0154,5.699c.088.112.1758.2242.2659.33453a1.50491,1.50491,0,0,0,.27512.28937.57006.57006,0,0,0,.37806.1036c.02928-.00236.02371-.043-.00137-.048a.77119.77119,0,0,1-.3904-.19884,1.97674,1.97674,0,0,1-.13993-.15495.467.467,0,0,0,.13892.04478.91876.91876,0,0,0,.19049.00917.447.447,0,0,0,.12085-.012l.00053.002c.01983.07148.04994.14465.12744.16614A.02673.02673,0,0,0,7.01076,6.19328ZM6.7291,5.47261q.01452.08745.03185.17457l-.04439-.00771c-.0378-.00766-.07564-.01512-.11368-.02152a1.11634,1.11634,0,0,0-.12457-.015A.86218.86218,0,0,0,6.7291,5.47261Zm.01567.49631A1.03184,1.03184,0,0,1,6.57421,5.965a1.13734,1.13734,0,0,1-.16-.02984.6514.6514,0,0,1-.113-.03779l-.05583-.071a.57491.57491,0,0,1,.16336-.18408,1.18353,1.18353,0,0,0,.17876.04671l.11357.02275c.02455.005.0509.014.07672.01668l.01311.05967c.01314.05754.02423.11594.03681.17388C6.8005,5.96194,6.77211,5.96732,6.74477,5.96892Z" /><path d="M6.58112,5.25843a.21321.21321,0,0,1-.1559.11207.18718.18718,0,0,1-.17175-.06489A.26526.26526,0,0,1,6.275,4.96719a.01409.01409,0,0,0-.01783-.0218.3085.3085,0,0,0-.13407.19621.287.287,0,0,0,.07242.2443.25343.25343,0,0,0,.25585.07334A.23176.23176,0,0,0,6.612,5.27.0172.0172,0,0,0,6.58112,5.25843Z" /><path d="M6.54638,3.77258c-.02159.06957-.09641.10306-.13681.16061l-.00287.00426a.14.14,0,0,0-.01906.04211.02363.02363,0,0,0,.04122.02178l.01523-.01688a.07344.07344,0,0,1,.03529.00764c.0159.01013.039-.0058.02994-.0245a.08988.08988,0,0,0-.02411-.03249.43119.43119,0,0,0,.08069-.15528C6.56914,3.76715,6.55042,3.75956,6.54638,3.77258Z" /><path d="M6.94048,5.16061a.70336.70336,0,0,1-.09613-.38393.65629.65629,0,0,1,.03831-.19735A1.90448,1.90448,0,0,0,6.965,4.3806a.85036.85036,0,0,0,.01534-.21033.61739.61739,0,0,0-.02358-.18266.27418.27418,0,0,0-.12712-.15642.35588.35588,0,0,0-.17783-.05437c-.01444.00061-.01462.01922-.00623.02665.04.0354.094.0513.1368.08379a.24052.24052,0,0,1,.09288.145.82927.82927,0,0,1,.01117.17784.50682.50682,0,0,1-.03124.20085l-.01494.03315-.009.00107c-.03225.01318-.061.03367-.09356.0468a.44283.44283,0,0,1-.1129.03014A.45688.45688,0,0,1,6.405,4.5144c-.038-.01562-.03857-.0542-.04345-.09026-.00512-.0379-.00875-.0759-.01009-.11413a.59311.59311,0,0,1,.02567-.20574.17288.17288,0,0,0,.01966.01974.03254.03254,0,0,0,.04495-.00769A.03306.03306,0,0,0,6.434,4.07137c-.02838-.02581-.06636-.03723-.09559-.06225-.01587-.01359-.034.01272-.01867.02637a.27262.27262,0,0,1,.03558.04115.52545.52545,0,0,0-.06159.24934c-.00259.08005-.02243.20162.05788.25022a.2603.2603,0,0,0,.08848.03107c-.00794.01263-.01611.02511-.02516.03688a.20952.20952,0,0,1-.05448.061c-.01188.00645-.004.02515.00861.01946a.60307.60307,0,0,0,.08535-.0329.23041.23041,0,0,0,.06836-.06465L6.529,4.61331a.43363.43363,0,0,0,.08832-.01156.53.53,0,0,0,.18909-.08489.584.584,0,0,0-.02594.0686.75013.75013,0,0,0-.03111.18171.69526.69526,0,0,0,.07477.35026c.03249.064.07688.12187.105.188a.5832.5832,0,0,1,.035.23069.02569.02569,0,0,0,.04941.01146A.43018.43018,0,0,0,6.94048,5.16061Z" /><path d="M7.862,5.34044c-.105.07657-.19649.1736-.30819.24061a.81091.81091,0,0,1-.17.07539c-.039.01247-.09058.01521-.13118.03135.00864-.04.01671-.08.02479-.11935.01382-.06726.03364-.1355.04063-.20379a1.00938,1.00938,0,0,0-.0046-.20445,3.8858,3.8858,0,0,1-.04362-.41328c.00043-.09461.00743-.18875.01052-.28314.0079.03237.01655.06454.02669.0962.00514.078.01335.15606.0189.23353a1.452,1.452,0,0,0,.02158.17716,1.44674,1.44674,0,0,1,.03032.184c.00078.012.0189.00885.01829-.00289A1.51394,1.51394,0,0,1,7.40553,4.961a1.49873,1.49873,0,0,0-.00014-.18l-.00116-.02952.03419.05171A.48422.48422,0,0,1,7.513,5.023a.84277.84277,0,0,1-.02188.26255,2.09888,2.09888,0,0,0-.07666.27036.03111.03111,0,0,0,.05589.02091.82268.82268,0,0,0,.106-.25584.86.86,0,0,0,.04292-.2583.599.599,0,0,0-.05273-.25384c-.03741-.07943-.0973-.14563-.1321-.2265a1.75492,1.75492,0,0,1-.07725-.27245l-.07451-.29939a.47791.47791,0,0,0-.25591-.38348c-.13016-.05067-.36886-.06245-.4491.08a.01462.01462,0,0,0,.02108.01966A.40007.40007,0,0,1,6.999,3.72052c.14535.07279.16406.23641.19714.37939l.012.05177c-.00033.04521-.00154.09011-.00244.13394-.00279.13507-.02506.2681-.03191.40282a2.20481,2.20481,0,0,0,.03247.407,2.05278,2.05278,0,0,1,.01769.40367c-.01036.15559-.06639.30095-.09071.45366-.00391.02456.03267.03175.04142.00961a1.60814,1.60814,0,0,0,.06875-.23256A.30528.30528,0,0,0,7.40379,5.724a.54944.54944,0,0,0,.1806-.079c.061-.04047.11777-.08723.1782-.12864.05351-.03666.12425-.07812.14538-.14307A.0295.0295,0,0,0,7.862,5.34044Z" /><path d="M7.13422,5.1249c-.01594-.06174-.043-.11947-.06268-.17993a.71886.71886,0,0,1,.01667-.391,1.76842,1.76842,0,0,0,.05078-.414.47744.47744,0,0,0-.09646-.36334c-.01818-.0158-.04387.00878-.03508.0287a.52717.52717,0,0,1,.04769.20978,1.65894,1.65894,0,0,1-.01658.2547c-.02247.1664-.083.32918-.09076.4972a.56555.56555,0,0,0,.038.23218.87891.87891,0,0,1,.07211.23241c.01637.17386-.00244.34934.01311.52318.00114.01279.019.01052.02109-.0006.02681-.14153.03159-.28674.051-.42937A.52463.52463,0,0,0,7.13422,5.1249Z" /><path d="M6.68673,4.287c-.0141-.01127-.02857-.0222-.04235-.03386l-.01819-.01666c-.00716-.00667-.01605-.01138-.02281-.01838-.01232-.01274-.03784-.00049-.02844.01748.00484.00924.00739.01929.01284.02824a.256.256,0,0,0,.01871.02579.25857.25857,0,0,0,.04616.04552C6.683,4.35817,6.71625,4.31061,6.68673,4.287Z" /><path d="M6.76668,4.21931a.13529.13529,0,0,0-.04694-.07952.10159.10159,0,0,0-.07958-.02932.017.017,0,0,0-.0104.0273c.01379.01621.03452.02587.04893.04191a.22489.22489,0,0,1,.03541.05513A.02777.02777,0,0,0,6.76668,4.21931Z" /><path d="M6.5027,4.39162a.18193.18193,0,0,0-.05582-.0346c-.01746-.00822-.04312-.02041-.04991-.03946-.00421-.0118-.02195-.00385-.01777.00787.00506.0142.00542.02955.01085.04385a.10363.10363,0,0,0,.02092.03335.0733.0733,0,0,0,.08331.02429A.02293.02293,0,0,0,6.5027,4.39162Z" /><path d="M8.07842,6.55511a.79628.79628,0,0,0-.246-.0915.4991.4991,0,0,1-.12842-.03.38825.38825,0,0,1-.08145-.09311,1.2468,1.2468,0,0,0-.17622-.17135,1.91337,1.91337,0,0,0-.21842-.13706c-.01232-.00743-.02529.01016-.01309.01849a1.44227,1.44227,0,0,1,.19628.17721,2.39277,2.39277,0,0,1,.17237.191.35279.35279,0,0,0,.07313.079.27505.27505,0,0,0,.113.03157,2.76594,2.76594,0,0,1,.28172.07714C8.08118,6.61436,8.10831,6.57443,8.07842,6.55511Z" /><path d="M8.12271,6.68247a.68519.68519,0,0,0-.18213-.07934A1.73936,1.73936,0,0,0,7.74519,6.569c-.01184-.0022-.01328.01595-.00184.01842a.75212.75212,0,0,1,.11752.03939A.65223.65223,0,0,1,7.67744,6.613a.28557.28557,0,0,0-.1038-.03689c-.011-.00153-.01449.01262-.007.01885a1.47512,1.47512,0,0,1,.10958.10062c.03362.0345.05958.07507.09221.11046a.02277.02277,0,0,0,.03979-.01783.22827.22827,0,0,0-.04605-.10164.33021.33021,0,0,0,.05048.00565,1.19081,1.19081,0,0,1,.23377.05c.02231.0055.04451-.02508.02072-.0392l-.00031-.00018c.013.00428.02606.00825.03906.01157C8.12466,6.71923,8.1409,6.69509,8.12271,6.68247Z" /><path d="M7.82945,5.55064c-.02087.05282-.0796.08389-.12324.1157a.301.301,0,0,0-.11049.13024c-.02345.06335.01339.16288-.08214.17226a1.09048,1.09048,0,0,0-.263.0152.00723.00723,0,0,0-.00124.01245.43705.43705,0,0,0,.13151.03735.49606.49606,0,0,0,.15287.01924.16247.16247,0,0,0,.13841-.17686c.00062-.07328.0505-.10666.09785-.15524a.27352.27352,0,0,0,.09064-.16309A.01622.01622,0,0,0,7.82945,5.55064Z" /><path d="M3.664,3.98233a.41854.41854,0,0,0-.15225-.003c-.00969.00039-.0104.01337-.00429.01836a.14622.14622,0,0,0,.15792.02983A.02477.02477,0,0,0,3.664,3.98233Z" /></svg>