<svg xmlns="http://www.w3.org/2000/svg" data-name="Layer 1" viewBox="1.3395480391221386 4.0675624722615495 7.320935192741169 1.8647768819202515" x="0px" y="0px"><title>KAMASUTRA</title><path d="M1.55477,5.6554c-.0222.00278-.04388.007-.06595.01057l-.04007.00528A.10917.10917,0,0,1,1.42,5.676l-.00194-.00728-.0105-.01961A.06173.06173,0,0,0,1.374,5.622a.02411.02411,0,0,0-.03.01571c-.01091.04837-.005.11092.05471.12137a.27467.27467,0,0,0,.177-.06278C1.59691,5.68113,1.57549,5.65281,1.55477,5.6554Z" /><path d="M2.4143,5.51879a.5607.5607,0,0,0-.36935.04782c-.06523.02635-.12993.05271-.19634.076-.05478.0192-.13372.04878-.17941-.0033-.00676-.0077-.01792.00258-.01175.0105.07661.0984.21091.05593.30879.02118a1.41769,1.41769,0,0,1,.44158-.11525A.019.019,0,0,0,2.4143,5.51879Z" /><path d="M5.04886,5.5888a2.01115,2.01115,0,0,0-.34175.01448A1.36584,1.36584,0,0,1,4.365,5.57374a2.11437,2.11437,0,0,0-.60047-.0449.85612.85612,0,0,0,.21538-.11858c.01421-.01154.00054-.03081-.01478-.029a1.31479,1.31479,0,0,0-.347.121,1.056,1.056,0,0,1-.34824.11467,1.81084,1.81084,0,0,1-.34608-.03645c-.05947-.00865-.119-.01924-.17889-.02473-.06513-.006-.13087-.00509-.19573-.01376-.01-.00134-.01317.01565-.00309.01764.06408.01264.12592.03459.1894.04987.06371.01533.129.02519.19338.03713a1.46255,1.46255,0,0,0,.36.04579,1.13511,1.13511,0,0,0,.35016-.1128l.02528-.01038a2.43792,2.43792,0,0,0,.35784.04782c.0608.00417.12214.00662.18259.01461.05971.00789.11748.02533.1765.03685a1.48511,1.48511,0,0,0,.33687.02365A1.02386,1.02386,0,0,0,5.061,5.645C5.09152,5.63269,5.075,5.59263,5.04886,5.5888Z" /><path d="M4.53562,4.49448c-.03963-.00218-.07623-.016-.11712-.01567a.59893.59893,0,0,0-.09905.0092.96326.96326,0,0,0-.208.06651,1.68433,1.68433,0,0,0-.3739.23109c-.1173.09238-.22742.19347-.34366.28716-.06025.04856-.12165.09588-.18579.13921-.01905.01287-.03753.02651-.05612.04a.65351.65351,0,0,0-.22058-.05861.81175.81175,0,0,0-.27706-.01748,2.14764,2.14764,0,0,0-.3153.01717,1.42483,1.42483,0,0,0-.297.08875.77246.77246,0,0,0-.27539.15285l-.00225.00782a.234.234,0,0,0-.09859.15136.00959.00959,0,0,0,.0158.00749,1.23181,1.23181,0,0,1,.12136-.107.67.67,0,0,1,.15525-.07391c.11669-.04.23936-.05091.35436-.09652a.01441.01441,0,0,0-.00585-.02707.975.975,0,0,0-.16661.01409A1.21894,1.21894,0,0,1,2.353,5.258a1.47176,1.47176,0,0,1,.27264-.00875.56724.56724,0,0,1-.20166.07014.0088.0088,0,0,0-.00077.01758A.62735.62735,0,0,0,2.618,5.32119,1.56444,1.56444,0,0,1,2.8126,5.274a.50089.50089,0,0,1,.20188.00957c.02439.00681.04654.01547.06847.02143a.39246.39246,0,0,1-.05885.04346.00812.00812,0,0,0,.00734.01447c.036-.01337.07482-.01759.1105-.03241a.69082.69082,0,0,0,.1-.05182A2.04748,2.04748,0,0,0,3.41,5.159c.11426-.08859.22348-.18347.338-.27169a1.94308,1.94308,0,0,1,.36583-.22924,1.02628,1.02628,0,0,1,.19751-.06882q.04987-.01164.10022-.02069a.58456.58456,0,0,1,.12172-.02072A.02674.02674,0,0,0,4.53562,4.49448Z" /><path d="M4.30718,4.97064a.63639.63639,0,0,0-.25337.18426.11075.11075,0,0,0-.03627.10976.31739.31739,0,0,0,.02808.072c.01507.02846.03843.04951.0547.07659a.01064.01064,0,0,0,.019-.00962.89225.89225,0,0,1-.0272-.12418c-.00549-.02182-.01309-.041,0-.06122a.30381.30381,0,0,1,.04621-.04674c.02866-.02752.0583-.05379.08607-.08219.03115-.03186.06733-.05822.09643-.092C4.32943,4.98722,4.32383,4.96519,4.30718,4.97064Z" /><path d="M7.41332,4.28536a.43144.43144,0,0,0-.3369-.05195.5443.5443,0,0,0-.27109.19042.4817.4817,0,0,1-.04345.04678A.38418.38418,0,0,0,6.76183,4.43a.29144.29144,0,0,0-.03913-.13783.37281.37281,0,0,0-.18421-.1478.92712.92712,0,0,0-.24409-.055,3.03385,3.03385,0,0,0-.31485-.02154,2.12859,2.12859,0,0,0-.63935.0877c-.09963.02977-.19913.06214-.29686.09764a1.01147,1.01147,0,0,0-.18191.08989l-.00334-.00078c-.1021-.01473-.20783-.01956-.31086-.02524a1.45245,1.45245,0,0,0-.29053.006,1.67944,1.67944,0,0,0-.43658.13351c-.04488.00025-.08973.00453-.13493.0028a1.026,1.026,0,0,1-.19591-.027c-.06779-.01595-.13472-.03527-.20116-.05609-.0699-.02191-.13805-.04063-.20944-.05661a.01438.01438,0,0,0-.012.02569,1.30673,1.30673,0,0,0,.19768.10689,1.2607,1.2607,0,0,0,.21875.07232,1.1785,1.1785,0,0,0,.14608.02367c-.07706.03914-.15352.07946-.23081.11817l-.04126.02081a.34269.34269,0,0,0-.06485-.003.51512.51512,0,0,1-.09185-.01867.40616.40616,0,0,0-.195-.02194.007.007,0,0,0-.00372.01144.44951.44951,0,0,0,.2028.09392l.01329.00385a.71481.71481,0,0,1-.11286.03663.73743.73743,0,0,1-.238-.00929c-.02557-.01356-.0513-.02646-.07789-.0382a1.37931,1.37931,0,0,0-.18112-.06908.96368.96368,0,0,0-.3963-.01c-.01713.00245-.01268.02625.0024.02829.06631.009.13374.00945.19967.02093a1.18024,1.18024,0,0,1,.18108.05212c.02432.00841.0485.01718.07264.02606a1.0658,1.0658,0,0,0-.13241.03407c-.10531.034-.206.07961-.30862.12066a.90113.90113,0,0,1-.31049.0793.01785.01785,0,0,0-.00608.0347.36672.36672,0,0,0,.25706-.0093c.09051-.02935.17856-.06583.26721-.10024a1.16443,1.16443,0,0,1,.29352-.08144,1.80373,1.80373,0,0,1,.28826.02A.65763.65763,0,0,0,3.30338,4.816c.09623-.04056.19013-.08679.283-.13441A2.50467,2.50467,0,0,1,4.171,4.4397a3.0041,3.0041,0,0,1,.32862-.04734c.1-.011.2-.00739.3-.0095l-.02481.017a1.05,1.05,0,0,0-.41671.526c-.00312.00958.00932.01385.015.007a2.69669,2.69669,0,0,1,.388-.41637A1.7577,1.7577,0,0,1,4.9997,4.3634,1.35785,1.35785,0,0,1,5.261,4.24364a2.27348,2.27348,0,0,1,.58979-.07647c.09861-.00331.19717-.00209.29576.00134a1.375,1.375,0,0,1,.2522.02428.4078.4078,0,0,1,.212.10777.30839.30839,0,0,1,.06714.129.77945.77945,0,0,1,.02107.10836.201.201,0,0,0-.01731.02757.27512.27512,0,0,0-.032.173.008.008,0,0,0,.01432.0026,1.31761,1.31761,0,0,0,.08683-.15325c.01438-.02815.02181-.05926.03839-.08638a.23611.23611,0,0,1,.06589-.067.49839.49839,0,0,1,.1586-.08525.47864.47864,0,0,1,.19739-.03686.41325.41325,0,0,1,.26639.18445.60087.60087,0,0,1,.07.15416.25477.25477,0,0,1,.00792.18088c-.00754.01985.02034.02986.03188.01493C7.73166,4.66,7.58743,4.3969,7.41332,4.28536Z" /><path d="M4.50823,5.08766c-.03042.02855-.051.06547-.07923.09548a.23656.23656,0,0,0-.05082.0977.44249.44249,0,0,0-.00228.23307.01091.01091,0,0,0,.02148-.00182.93462.93462,0,0,1,.04569-.21092.69544.69544,0,0,0,.0279-.0946.3108.3108,0,0,1,.05226-.10609C4.52869,5.09108,4.51671,5.0797,4.50823,5.08766Z" /><path d="M6.16376,4.32885a.34777.34777,0,0,0-.19287.00278.73169.73169,0,0,0-.19289.08326q-.09687.053-.1899.11223a.68663.68663,0,0,0-.23641.04578,1.45809,1.45809,0,0,0-.278.1128c-.09207.04574-.18243.09452-.26973.14889a1.00606,1.00606,0,0,0-.11958.085c-.04069.03445-.07773.07395-.12036.10574-.00566.00422.00094.01392.007.01027.08223-.04945.1776-.079.26252-.12478.04245-.02287.0849-.04577.12752-.06835a.43456.43456,0,0,1,.09987.00038c.036.00485.07222.01526.10863.01983a.60636.60636,0,0,0-.1519.3339c-.00159.01634.02567.02167.02886.00506a.84724.84724,0,0,1,.40629-.484A4.01618,4.01618,0,0,1,5.803,4.49952a1.77518,1.77518,0,0,1,.17368-.08642.67141.67141,0,0,1,.18508-.04018C6.1861,4.36974,6.18315,4.33636,6.16376,4.32885Zm-.75907.323a1.56244,1.56244,0,0,0-.16188.1333.04122.04122,0,0,0-.02152-.005c-.041.00074-.082-.00594-.123-.00836.08058-.03973.1647-.07334.24306-.11718A.47107.47107,0,0,1,5.471,4.605Q5.43761,4.62809,5.40468,4.65188Z" /><path d="M6.96739,4.87115c-.02626.00087-.05241.0028-.07853.0049l-.00172-.00487a.51082.51082,0,0,0-.029-.04351A.13908.13908,0,0,1,6.84039,4.78a.0112.0112,0,0,0-.02017-.00367.13593.13593,0,0,0-.01471.10595.82756.82756,0,0,1-.09237.00088.13425.13425,0,0,1-.10037-.03565,1.00081,1.00081,0,0,1-.07843-.10256c-.05125-.07017-.09567-.14446-.13968-.21927-.02955-.05023-.06415-.11884-.12618-.13289-.00435-.001-.00985.00358-.00692.00817a.45258.45258,0,0,1,.05268.1,1.24543,1.24543,0,0,0,.039.11857,1.34931,1.34931,0,0,0,.15706.24258.22948.22948,0,0,0,.19275.11073.53494.53494,0,0,0,.2733-.0602C6.99372,4.9024,6.9909,4.87038,6.96739,4.87115Z" /><path d="M5.52652,5.449c-.07675-.03551-.16441-.04292-.24413-.07258a.38739.38739,0,0,1-.192-.131c-.01088-.01529-.03287-.00028-.03021.01539a.27242.27242,0,0,0,.17324.18107l.045.02023-.00168.0007a.23214.23214,0,0,0-.07424.04939.28753.28753,0,0,0-.04455.07464.00838.00838,0,0,0,.01256.01074.34169.34169,0,0,1,.06562-.03613c.022-.01129.04374-.023.06657-.0325a1.04686,1.04686,0,0,1,.1111-.02541.27649.27649,0,0,0,.11038-.00294A.027.027,0,0,0,5.52652,5.449Z" /><path d="M6.52406,5.60574c-.05718-.076-.1993-.0802-.28508-.08463a.87566.87566,0,0,1-.30764-.03741.53825.53825,0,0,1-.14987-.11724,1.56773,1.56773,0,0,0-.15524-.12917q-.04752-.03442-.09745-.06473A.4.4,0,0,0,5.59164,5.143a.216.216,0,0,0,.0627.08631.19382.19382,0,0,0,.0837.0415.189.189,0,0,0,.04935.00438c.01878-.001.03544-.0091.05446-.00958.0139-.00035.015-.02207.00095-.02171a.22045.22045,0,0,1-.11949-.06769A.19981.19981,0,0,1,5.684,5.12983a.0935.0935,0,0,1-.011-.03765,1.529,1.529,0,0,0,.1419-.10845c.05421-.04625.10518-.09672.15486-.14776s.09132-.10683.13707-.1608c.00979-.01155-.009-.02647-.01984-.01695-.10041.08863-.2108.16955-.31654.252-.05229.04078-.10395.08291-.15985.11873-.026.01668-.05277.03248-.0803.04659a.40791.40791,0,0,0-.08875.04809,1.21172,1.21172,0,0,0-.184-.07634.01507.01507,0,0,0-.01261.02693,3.927,3.927,0,0,1,.346.24478c.0536.04359.10487.08921.15563.136a.50333.50333,0,0,0,.14517.10228.79126.79126,0,0,0,.2995.03811,1.18378,1.18378,0,0,1,.15354.006,1.58623,1.58623,0,0,1,.15164.04723A.02675.02675,0,0,0,6.52406,5.60574Z" /><path d="M6.02043,5.78652c-.08059-.00716-.16223.00351-.24329-.00138-.07659-.00462-.1528-.01385-.22869-.025-.06938-.01023-.1398-.01874-.20832-.034a.507.507,0,0,1-.17171-.07976.01122.01122,0,0,0-.01686.01167c.03055.13808.24413.15662.35547.17527a2.53583,2.53583,0,0,0,.26653.03367.65343.65343,0,0,0,.26-.01953C6.06621,5.83568,6.04942,5.7891,6.02043,5.78652Z" /><path d="M4.18254,5.26814c-.002-.01056-.02009-.00956-.01921.00163.00233.0296-.00255.059.00047.089a.20622.20622,0,0,0,.02419.08635.01906.01906,0,0,0,.03576-.00773A.80453.80453,0,0,0,4.18254,5.26814Z" /><path d="M4.26154,5.3134a.00976.00976,0,0,0-.01816.00645.42812.42812,0,0,0,.04278.16613.02039.02039,0,0,0,.03792-.01346A.42883.42883,0,0,0,4.26154,5.3134Z" /><path d="M4.97621,5.31349c-.0488-.06228-.13729-.05809-.20852-.0664-.01714-.002-.01893.02213-.0049.028.06436.02673.11784.08394.19052.08677A.02939.02939,0,0,0,4.97621,5.31349Z" /><path d="M6.29606,5.68284a.23421.23421,0,0,0-.15995-.06811,1.30076,1.30076,0,0,0-.195-.008.67465.67465,0,0,1-.18783-.02652,1.48485,1.48485,0,0,0-.17909-.06133c-.00765-.00127-.00812.01081-.00053.01207.04127.00686.06915.04472.10174.06777a.32059.32059,0,0,0,.07758.0399.73.73,0,0,0,.16754.03116c.05907.00624.11835.01264.17735.01991.06035.00744.11747.03376.17765.03652A.02637.02637,0,0,0,6.29606,5.68284Z" /><path d="M6.60564,5.71176a.22188.22188,0,0,0-.13086.0528.40284.40284,0,0,0-.06053.05423c-.01991.02145-.03091.03152-.06175.025a1.27592,1.27592,0,0,0-.13232-.0399.17643.17643,0,0,0-.11459.02488c-.00812.00545-.00736.01989.00435.02012.09719.00189.174.09.27283.08306.05124-.00359.07447-.03841.10835-.07145.0401-.03912.09238-.06471.12987-.10574A.025.025,0,0,0,6.60564,5.71176Z" /><path d="M6.49155,5.67736a.10044.10044,0,0,0-.09426.0206.15252.15252,0,0,0-.052.08039.01563.01563,0,0,0,.02175.01841c.047-.02745.10231-.03767.13819-.08148A.02556.02556,0,0,0,6.49155,5.67736Z" /><path d="M6.64388,5.77925a.19147.19147,0,0,0-.06614.06.25019.25019,0,0,0-.04716.07351.01094.01094,0,0,0,.01267.01387A.21112.21112,0,0,0,6.61838,5.881a.17117.17117,0,0,0,.05825-.074A.02358.02358,0,0,0,6.64388,5.77925Z" /><path d="M6.73451,5.12109a.4018.4018,0,0,0-.19825.135.25449.25449,0,0,0-.04789.08947A.42289.42289,0,0,0,6.37029,5.302a.44672.44672,0,0,0-.14431.0076c-.01177.00109-.00894.01855.00167.01966a.7448.7448,0,0,1,.13443.04347c.04258.01317.0806.03436.12149.05131a.22918.22918,0,0,0,.02644.0565.00955.00955,0,0,0,.01794-.00388.32108.32108,0,0,1,.01285-.06158.4026.4026,0,0,1,.01428-.05251.26587.26587,0,0,1,.04853-.081,1.70044,1.70044,0,0,1,.15013-.12271A.02206.02206,0,0,0,6.73451,5.12109Z" /><path d="M6.6755,5.47147a.26687.26687,0,0,0-.048.05947l-.02475-.004a.08512.08512,0,0,1-.03218-.00632.00953.00953,0,0,0-.01222.0143c.00512.00572.0082.0127.01369.01818a.0774.0774,0,0,0,.01985.0136.055.055,0,0,0,.04006.00512.02233.02233,0,0,0,.03733.00062A.06668.06668,0,0,0,6.681,5.52733a.05972.05972,0,0,1,.01017-.04246A.01036.01036,0,1,0,6.6755,5.47147Z" /><path d="M6.952,5.55165a.17993.17993,0,0,0-.11685.01654.19782.19782,0,0,0-.09722.0704.0082.0082,0,0,0,.00646.01249.4458.4458,0,0,0,.10295-.02588.42137.42137,0,0,0,.108-.03269A.02239.02239,0,0,0,6.952,5.55165Z" /><path d="M7.98336,5.55257a2.479,2.479,0,0,0-.46759-.12648.535.535,0,0,1-.20416-.08315c-.029-.02058-.055-.04518-.08187-.06847a.615.615,0,0,1-.086-.07123c-.00724-.00932-.02157.00128-.01667.01139A.89744.89744,0,0,0,7.16956,5.32a.36115.36115,0,0,0,.073.08068.4853.4853,0,0,0,.09993.06543.24207.24207,0,0,1-.29769.1683L7.051,5.61459c.00582-.02241.00893-.0448.01279-.06757.00178-.0105-.01205-.01422-.01886-.00894a.15348.15348,0,0,0-.05851.08817l-.034-.00321a.00857.00857,0,0,0-.00075.01712.08529.08529,0,0,1,.031.00944.21147.21147,0,0,0-.00089.02628.02246.02246,0,0,0,.04367.00766l.00219-.00541.0137.00806a.22425.22425,0,0,0,.06969.025.27723.27723,0,0,0,.15208-.02213.22632.22632,0,0,0,.13706-.19882c.01754.0062.03543.01162.0537.01613a1.73082,1.73082,0,0,0,.2499.03349,2.14039,2.14039,0,0,1,.26885.047A.018.018,0,0,0,7.98336,5.55257Z" /><path d="M7.08236,5.00376a.137.137,0,0,0-.07677-.0033.24119.24119,0,0,0-.06364.04038c-.01041.007-.00211.02449.009.01774a.05166.05166,0,0,1,.04829-.00386.27056.27056,0,0,1,.04257.01035.10233.10233,0,0,1,.03586.02106c.01088.01139.01043.02694.01811.04022a.03176.03176,0,0,0,.04892.00922C7.19218,5.08807,7.13,5.02054,7.08236,5.00376Z" /><path d="M8.638,5.66366c-.122.08059-.2877-.00463-.42182.00653a2.1488,2.1488,0,0,0-.40483.11518,1.369,1.369,0,0,1-.41595.06037.87889.87889,0,0,1-.19159-.027A.69.69,0,0,1,7.02,5.75083a.01.01,0,0,0-.01078.01672.93878.93878,0,0,0,.08661.06309.64074.64074,0,0,0,.07847.03732.7936.7936,0,0,0,.191.04733,1.15541,1.15541,0,0,0,.44187-.038,3.48558,3.48558,0,0,1,.44156-.127c.14029-.01728.29062.04921.407-.06048C8.66833,5.67793,8.65361,5.65334,8.638,5.66366Z" /><path d="M7.87589,5.674c-.04622.002-.09289.0016-.13892.00647-.04771.005-.09439.01873-.1417.0269a.45136.45136,0,0,1-.24672-.01251c-.01-.00421-.01857.01023-.01135.01761a.292.292,0,0,0,.234.08371.7946.7946,0,0,0,.15211-.02282,1.23219,1.23219,0,0,0,.161-.06055A.02066.02066,0,0,0,7.87589,5.674Z" /><path d="M8.40018,5.5119c-.1441-.00741-.25139-.12145-.37434-.18194a1.00031,1.00031,0,0,0-.41572-.05078.324.324,0,0,1-.17667-.05191.25389.25389,0,0,1-.06809-.06851c-.02143-.03414-.033-.07373-.05124-.10949a.29015.29015,0,0,0-.12481-.1303c-.04558-.023-.11211-.05318-.16117-.02553a.00987.00987,0,0,0-.00087.01683.43011.43011,0,0,0,.08262.042.305.305,0,0,1,.077.06241.9596.9596,0,0,1,.10031.18371.37383.37383,0,0,0,.32627.14213c.07205.00236.14483-.0022.2166.00575a.44741.44741,0,0,1,.20744.0831c.10959.07447.22608.16682.3666.12852A.02338.02338,0,0,0,8.40018,5.5119Z" /><path d="M8.27485,5.32377a.38068.38068,0,0,0-.25866-.22115c-.10389-.02374-.212-.014-.31593-.03613a.34517.34517,0,0,1-.12978-.0642c-.05544-.0395-.092-.09931-.15029-.13608a.39116.39116,0,0,0-.15761-.057.33744.33744,0,0,0-.08046-.00054c-.03013.00312-.05478.01675-.083.02228-.01148.00225-.0076.01945.00381.01765a.30484.30484,0,0,1,.08882.011.47468.47468,0,0,1,.08245.02463A.41979.41979,0,0,1,7.411,4.972a.66021.66021,0,0,0,.127.11947.42166.42166,0,0,0,.13636.03662c.0959.0168.19426.01385.28976.03286a.524.524,0,0,1,.28169.18265A.01784.01784,0,0,0,8.27485,5.32377Z" /><path d="M7.20429,4.74685c-.00791-.01428-.02141-.02029-.03131-.03251a.1413.1413,0,0,1-.01944-.056A.22145.22145,0,0,0,7.098,4.53818c-.077-.068-.18928-.01861-.25625.03835a.02736.02736,0,0,0,.01.04622.40821.40821,0,0,0,.13475-.0151c.05068-.00747.06713.01672.078.06339.00977.042.07873.16554.13469.10287A.02343.02343,0,0,0,7.20429,4.74685Z" /><path d="M1.81843,5.024c-.06351-.0149-.09979.03582-.132.08129a1.15031,1.15031,0,0,1-.11865.14138,1.53309,1.53309,0,0,0-.12418.12863.31225.31225,0,0,0-.06114.17646.01326.01326,0,0,0,.02422.0077.86214.86214,0,0,1,.0791-.14221.62651.62651,0,0,1,.12281-.10583.42185.42185,0,0,0,.10589-.10466c.03519-.053.02656-.11289.10149-.12937A.02785.02785,0,0,0,1.81843,5.024Z" /><path d="M2.96267,4.57714c-.01617-.02232-.04052-.03909-.05755-.06171A.48071.48071,0,0,0,2.85293,4.45c-.06209-.05809-.12638-.0319-.19585-.00357a.26205.26205,0,0,1-.03619.01158.38946.38946,0,0,0-.08433-.02981.42053.42053,0,0,1-.09853-.0458.18306.18306,0,0,1-.09127-.18107c.00356-.02872-.03623-.03712-.05085-.01618-.05577.0799.00361.18163.06747.23612a.37954.37954,0,0,0,.08612.05422.39426.39426,0,0,0-.05351.00894.3197.3197,0,0,0-.18574.1317c-.00793.01064.00733.02136.01672.01429a.44039.44039,0,0,1,.23479-.07483.75135.75135,0,0,0,.21207-.02741c.03239-.01173.07476-.04444.11013-.0297a.13485.13485,0,0,1,.04515.04441c.02818.03542.06635.09089.119.07889A.02756.02756,0,0,0,2.96267,4.57714Z" /><path d="M3.027,4.293c-.01449-.01826-.03859-.02286-.05793-.03474A.58562.58562,0,0,1,2.908,4.20949a.29491.29491,0,0,0-.15625-.06128c-.06937-.00973-.13872-.01912-.2079-.03021a.624.624,0,0,0-.20192-.01942.01215.01215,0,0,0-.004.02184.60317.60317,0,0,0,.20075.07153,1.09193,1.09193,0,0,0,.20329.03283.24419.24419,0,0,1,.15186.06888c.033.02724.09014.0712.13117.03444A.02543.02543,0,0,0,3.027,4.293Z" /></svg>