<svg xmlns="http://www.w3.org/2000/svg" data-name="Layer 1" viewBox="1.7545984179679273 2.5379529825490974 6.490795583880803 4.9230970174509014" x="0px" y="0px"><title>KAMASUTRA</title><path d="M5.75082,5.44a.41563.41563,0,0,0-.15609-.05812c-.03333-.00717-.06417-.02082-.09718-.02915a.596.596,0,0,1-.0889-.02821.85565.85565,0,0,1-.17793-.114c-.05889-.04482-.11864-.0891-.17494-.13716A1.25766,1.25766,0,0,1,4.8034,4.7726c-.03414-.05585-.06556-.1125-.09462-.17114-.01935-.03907-.03687-.07957-.05563-.11925l.00379-.01585a.457.457,0,0,0,.01763-.16126,1.14272,1.14272,0,0,0-.04351-.16557.59842.59842,0,0,1-.024-.18886.01876.01876,0,0,0-.0373-.00373.87155.87155,0,0,0-.01565.17247c.001.05763.017.11284.02232.16992a.52352.52352,0,0,1-.02436.17876.92251.92251,0,0,0-.02911.175,3.21163,3.21163,0,0,0,.0511.71544l-.04664.00929a.42513.42513,0,0,1-.1228.01521.20762.20762,0,0,1-.08694-.04283q-.05272-.0346-.10491-.07c-.13173-.08968-.25751-.18577-.38437-.28208q-.02234-.017-.04552-.03309A.67464.67464,0,0,1,3.73572,4.842,1.1184,1.1184,0,0,1,3.70783,4.678a.63462.63462,0,0,0-.02719-.11519.45346.45346,0,0,0-.01577-.07949,1.33475,1.33475,0,0,1-.009-.16159A.6397.6397,0,0,0,3.6287,4.179a.70485.70485,0,0,0-.07061-.14276.0137.0137,0,0,0-.025.01108.92884.92884,0,0,1,.03766.1561.494.494,0,0,0-.02034.1699,1.04189,1.04189,0,0,1-.02733.251.59843.59843,0,0,0-.02473.203L3.4569,4.82213a.016.016,0,0,0-.00716.03089.85864.85864,0,0,1,.18959.11534c.05585.04092.107.08783.16014.13216a3.90329,3.90329,0,0,0,.388.28721.51155.51155,0,0,0,.19239.09824.79831.79831,0,0,0,.24052-.0388.36516.36516,0,0,1,.22508.01786,1.04912,1.04912,0,0,0,.10132.04524.56785.56785,0,0,0,.103.01928.02713.02713,0,0,0,.01211-.05221.70034.70034,0,0,1-.09887-.0566l-.03837-.02047L5.053,5.39791c.06108-.00112.12214-.00168.18321-.00248.02532-.00033.0506-.00064.0759-.00178.00983-.00045.02879-.00432.04849-.00765a.50963.50963,0,0,0,.16335.02919.41476.41476,0,0,1,.20594.05431C5.74976,5.48043,5.77028,5.45383,5.75082,5.44ZM3.65433,4.87627a.43053.43053,0,0,0-.06113-.0265c.00388-.03536,0-.07167.00448-.10736s.01177-.071.01922-.10627c.00314.03416.00452.06843.0076.10307a.43508.43508,0,0,0,.03448.13959Zm1.43826.44825c-.06924.00223-.13838.00727-.20738.01344-.03055.00273-.06069.0076-.09075.01288a.43817.43817,0,0,0-.12939-.00675,2.04823,2.04823,0,0,1-.04576-.70719l.0093-.04608a1.18386,1.18386,0,0,0,.098.22217,1.24207,1.24207,0,0,0,.24627.31124,1.67362,1.67362,0,0,0,.25539.19716C5.183,5.32155,5.13774,5.32307,5.09259,5.32452Z" /><path d="M4.4838,2.64246a.46243.46243,0,0,0-.31445-.104.57166.57166,0,0,0-.33713.11739.38011.38011,0,0,0-.13768.29493.93279.93279,0,0,0,.01941.20024c.0066.03458.01859.06744.02854.10116l.00259.00916a.61458.61458,0,0,1-.29473.2204c-.12835.0458-.27141.07626-.32334.2199a1.05212,1.05212,0,0,0-.03954.23035,2.29174,2.29174,0,0,0-.0258.26484c-.00086.17332.04968.34093.05835.51338.00736.14631-.03708.33219.07965.4482.04322.04295.11523-.01207.0749-.06128-.085-.10364-.054-.24662-.05768-.37055-.00492-.16671-.0544-.32836-.06012-.49489a1.79465,1.79465,0,0,1,.01778-.25029,1.20162,1.20162,0,0,1,.03053-.22962.22987.22987,0,0,1,.17138-.13887c.10465-.01177.21216-.00258.31667-.00581.02625-.00081.02626-.03981.0048-.048a.38644.38644,0,0,0-.14163-.0235A.67582.67582,0,0,0,3.764,3.3196a.10814.10814,0,0,0,.01979.03065.01456.01456,0,0,0,.0246-.00409.19913.19913,0,0,0,.00428-.08889c-.00225-.03535-.00464-.07162-.00948-.10671a1.21458,1.21458,0,0,1-.0196-.19092.30243.30243,0,0,1,.19221-.28784.4588.4588,0,0,1,.38051-.00572.44653.44653,0,0,1,.11538.082.18015.18015,0,0,1,.01508.05451c.00357.03214-.00089.079-.03925.09186-.02977.01-.06232-.02878-.08731-.04194a.2252.2252,0,0,0-.08605-.02533.20224.20224,0,0,0-.1672.05723.1507.1507,0,0,0-.02878.08716,1.072,1.072,0,0,1-.02365.14077c-.00427.01733.02163.02764.02653.00987a.99105.99105,0,0,1,.04611-.131c.01873-.04338.033-.07175.08126-.08478a.15636.15636,0,0,1,.10928.01074c.03324.01666.05757.04645.09548.0542a.11577.11577,0,0,0,.13143-.09139l.00322-.02241a.58809.58809,0,0,1,.02185.05817.0198.0198,0,0,0,.03755-.006A.35986.35986,0,0,0,4.4838,2.64246Z" /><path d="M2.58751,6.41012a.1452.1452,0,0,0-.11408-.02484A1.66565,1.66565,0,0,0,2.237,6.34211a.474.474,0,0,0-.22184.00075c-.018.00547-.00594.03213.01183.02672a.24644.24644,0,0,1,.1337.01752c.03115.00753.06262.0138.09394.02057.03455.00746.07013.01687.1059.02484l-.00072.00044a.82387.82387,0,0,1-.12188.07069c-.0438.0178-.09051.02709-.13569.04067A.61817.61817,0,0,0,1.893,6.652a.4633.4633,0,0,0-.13728.17674c-.00619.01371.01488.0246.0232.01226a.60262.60262,0,0,1,.36171-.21063.73557.73557,0,0,0,.22156-.08556.45028.45028,0,0,1,.215-.09053C2.59946,6.453,2.60356,6.42175,2.58751,6.41012Z" /><path d="M3.69976,7.40114c-.037-.01291-.07677-.01477-.11422-.027A1.08433,1.08433,0,0,1,3.47366,7.328c-.07059-.03222-.14143-.06392-.2118-.09663q-.222-.10318-.436-.2225A1.00732,1.00732,0,0,0,2.40179,6.825a3.61775,3.61775,0,0,0-.493.064c-.01911.002-.01425.031.00463.02932.08821-.00774.17742-.00276.266-.00849a1.09745,1.09745,0,0,1,.24544-.00479.61008.61008,0,0,1,.20666.10737c.069.04292.13938.083.21067.12192q.2094.11421.42618.21414a1.34213,1.34213,0,0,0,.21489.0843.407.407,0,0,0,.21785.015A.02542.02542,0,0,0,3.69976,7.40114Z" /><path d="M5.39255,6.0374a.73674.73674,0,0,0-.32217.12959.69727.69727,0,0,0-.11.13223.68926.68926,0,0,1-.47625-.142.22792.22792,0,0,1-.07978-.11292.75224.75224,0,0,1-.0219-.14849.20592.20592,0,0,1,.03243-.139.42331.42331,0,0,1,.06706-.06758.97554.97554,0,0,0,.15453-.04283.25046.25046,0,0,1,.1175-.01585c.03394.00486.06683.01581.10019.02347a.28858.28858,0,0,0,.20235-.00158.03663.03663,0,0,0-.02044-.06932.69691.69691,0,0,1-.11635-.00092c-.03862-.00492-.07666-.01285-.11556-.01554a.81149.81149,0,0,0-.21629.02419,1.07836,1.07836,0,0,1-.46161-.04219,2.326,2.326,0,0,1-.417-.15979c-.06658-.03212-.13182-.06641-.19567-.10371-.03368-.01967-.06764-.03861-.10181-.05742-.03459-.019-.07208-.03046-.10521-.05219a.01186.01186,0,0,0-.0137.01935c.02374.01916.04081.04178.06222.06265a.77087.77087,0,0,0,.07866.06494c.02507.01858.051.03621.07729.0533a.19582.19582,0,0,0-.04295.04975.4346.4346,0,0,0-.05734.16057.53184.53184,0,0,0,.072.35337.33061.33061,0,0,1,.06812.15719.2135.2135,0,0,1-.01419.07275.82172.82172,0,0,1-.23576-.00491.18824.18824,0,0,1-.09522-.05422.17087.17087,0,0,0-.06137-.041c-.06194-.02015-.12613.02907-.177.05818a.749.749,0,0,1-.09776.05.37107.37107,0,0,1-.08026.01683.23118.23118,0,0,1-.14048-.07416c-.01151-.01576-.03426.0033-.02332.01908a.32147.32147,0,0,0,.14114.12691.77862.77862,0,0,0,.24081.03475,1.22268,1.22268,0,0,1,.25621.04575.66341.66341,0,0,1,.21881.08168,2.40781,2.40781,0,0,1-.05322.2549C3.31274,6.63028,3.207,6.582,3.0863,6.53949a3.33089,3.33089,0,0,0-.38772-.09863c-.01534-.00343-.02132.02238-.00624.0269a3.7816,3.7816,0,0,1,.37267.15163c.11754.04951.22972.09315.34742.14226-.00886.02326-.01457.0546-.025.07794a1.41347,1.41347,0,0,0-.19156-.07076c-.07313-.02429-.14656-.04714-.22032-.06942a1.40257,1.40257,0,0,1-.20072-.07c-.05859-.028-.13865-.0748-.1546-.14221-.00462-.01953-.03485-.01524-.03113.00492A.27612.27612,0,0,0,2.674,6.658a.60162.60162,0,0,0,.20919.10092c.08285.0294.16451.06187.24764.0905a1.67191,1.67191,0,0,0,.22394.07115.17047.17047,0,0,0,.00307.13493.03165.03165,0,0,0,.05993-.00958c.00349-.03364.17032-.66523.21571-.83465a.907.907,0,0,0,.03818-.13405.80579.80579,0,0,0,.02859-.25132A.01521.01521,0,0,0,3.673,5.81953a.54364.54364,0,0,0-.05414.146,1.04079,1.04079,0,0,1-.09456-.18578.48762.48762,0,0,1-.01-.21756.44284.44284,0,0,1,.029-.10366.28206.28206,0,0,1,.02834-.04436l.01346.00837a1.93622,1.93622,0,0,0,.32753.16423,1.71658,1.71658,0,0,0,.35251.09488c.034.00514.06838.00949.10286.0116a.24774.24774,0,0,0-.08012.1622.56228.56228,0,0,0,.0223.23.252.252,0,0,0-.01063.03371c-.01014.04492-.0147.09118-.024.13635a1.03771,1.03771,0,0,0-.02583.13708c-.01731.04389-.03276.08858-.04926.13211-.03644.09614-.07644.19054-.117.285-.04037.0939-.08187.18768-.12862.27859-.02387.04644-.04938.09192-.07525.13726-.02743.04805-.04852.10035-.0792.14643-.012.018.01515.03752.0276.01954.03141-.04534.07018-.0851.10143-.1307.02826-.04123.05484-.08372.08136-.12607.05657-.09037.111-.18182.1597-.2767l.02507-.05054.00895-.00158a1.15423,1.15423,0,0,0,.11539-.02646,1.68728,1.68728,0,0,0,.21486-.07462l.01267-.00556c-.07469.05693-.16735.17166-.085.25389a.02226.02226,0,0,0,.03885-.01172.19515.19515,0,0,1,.05309-.13705.76493.76493,0,0,1,.13672-.09139,1.00808,1.00808,0,0,0,.24514-.21576c.06861-.08349.11044-.1862.18051-.2679A.58733.58733,0,0,1,5.40217,6.07C5.42056,6.06415,5.41137,6.03281,5.39255,6.0374Zm-1.89888.30408s-.1024-.04718-.149-.06088a1.60075,1.60075,0,0,0-.24827-.0587c-.05805-.00735-.11673-.00705-.17511-.01031l.00637-.00288c.03365-.01551.0655-.03471.0981-.05225.03661-.0197.081-.05032.12084-.02349.02515.01695.04391.04188.06931.05859a.23333.23333,0,0,0,.08562.03225,2.04045,2.04045,0,0,0,.22573.01683Zm1.35691.11214L4.83625,6.47c-.11223.05113-.227.09884-.34014.14735-.06842.02935-.13746.05716-.20688.08406l-.05429.02066q.03334-.07586.06263-.15332a1.29554,1.29554,0,0,0,.06335-.20017c.0101-.03448.0168-.07024.02381-.10222l.01061-.048a.60958.60958,0,0,0,.50423.17087C4.88408,6.41136,4.868,6.43307,4.85058,6.45362Z" /><path d="M5.07441,7.40094a.94559.94559,0,0,0-.18934-.02277.2603.2603,0,0,1-.1738-.10092.30306.30306,0,0,1-.04843-.08283c-.01115-.02926-.01182-.05971-.02052-.08937C4.6245,7.04431,4.578,7.03145,4.528,7.0043c-.01581-.00858-.03268.01348-.01662.02347a.16425.16425,0,0,1,.066.07583c.00964.02886.00526.062.012.09184a.38433.38433,0,0,0,.09438.17355.25889.25889,0,0,0,.17184.09206,1.30672,1.30672,0,0,0,.2151-.02313A.01934.01934,0,0,0,5.07441,7.40094Z" /><path d="M6.65087,7.117a.70389.70389,0,0,1-.14923-.2024Q6.43,6.79018,6.3705,6.65935c-.03841-.0848-.07391-.171-.105-.25877-.0159-.04494-.03236-.08946-.05017-.13368a1.00173,1.00173,0,0,1-.05994-.14842c-.0042-.01857-.03353-.014-.02931.00463.01172.05187.00887.10472.01781.15709l.00573.03018-.03887.004a.35091.35091,0,0,1-.08805-.00389.35824.35824,0,0,1-.08332-.02817c-.016-.00721-.03156-.0167-.04746-.025l.00454-.00443a.4556.4556,0,0,0,.16314-.36411.0168.0168,0,0,0-.03211-.00321.73451.73451,0,0,1-.07818.18521.709.709,0,0,1-.14241.15511,3.16307,3.16307,0,0,1-.38206.252q-.19667.11725-.40089.221a.42654.42654,0,0,0-.15576.10755A.24284.24284,0,0,0,4.831,6.9916a.44857.44857,0,0,0,.20194.33187c.01123.00628.02313-.00939.01184-.01672a.2567.2567,0,0,1-.09-.15761,1.00636,1.00636,0,0,1-.03946-.17789.14823.14823,0,0,1,.082-.16012c.06132-.03482.126-.06426.18818-.09757q.18962-.10156.37244-.21508a2.30792,2.30792,0,0,0,.278-.19009.25838.25838,0,0,0,.16527.09811.274.274,0,0,0,.16867-.0124l.01083.0358a2.66543,2.66543,0,0,0,.11414.296,2.57607,2.57607,0,0,0,.14411.27389c.04558.07436.09538.16328.19.17574A.03257.03257,0,0,0,6.65087,7.117Z" /><path d="M5.909,5.69192a.62179.62179,0,0,0-.18087-.07471,1.11462,1.11462,0,0,0-.44085-.01453c-.01953.00265-.01432.03105.0047.02977a1.23245,1.23245,0,0,1,.41086.05273.6051.6051,0,0,1,.16282.068.57113.57113,0,0,1,.06511.04953c.01966.01695.03845.04.06612.03931a.02075.02075,0,0,0,.02177-.01781C6.02976,5.77082,5.94658,5.716,5.909,5.69192Z" /><path d="M2.6066,6.07928c-.00987-.04891-.06884-.05142-.1083-.04009a.8119.8119,0,0,0-.15683.0995.47792.47792,0,0,1-.18.05973.21132.21132,0,0,0-.083.01857c-.02658.01381-.04907.03614-.07607.04852a.0126.0126,0,0,0,.007.02386.94713.94713,0,0,1,.15344-.04273.45787.45787,0,0,0,.14885-.02311.53091.53091,0,0,0,.13853-.08107.18261.18261,0,0,1,.07233-.0413c.02287-.00451.04458.00491.06731.00113A.02037.02037,0,0,0,2.6066,6.07928Z" /><path d="M7.87694,7.16715a.34531.34531,0,0,0-.11687-.052.94238.94238,0,0,0-.12915-.01959,1.41849,1.41849,0,0,0-.28683.01732c-.09383.00937-.188.01537-.2821.02178-.1022.007-.20683.01678-.30918.01722-.01928.00008-.02307.02926-.003.03044.09113.00537.18253.01924.274.02489a2.12683,2.12683,0,0,0,.278.00069c.09267-.00639.18474-.021.27687-.03249A.77573.77573,0,0,1,7.854,7.2105C7.87907,7.21641,7.9025,7.18392,7.87694,7.16715Z" /><path d="M8.12579,7.04249a.70447.70447,0,0,0-.16073-.06964.65818.65818,0,0,0-.15778-.04525q-.13562-.01776-.27157-.02857a.26765.26765,0,0,1-.14855-.098.88643.88643,0,0,1-.09129-.25045.51311.51311,0,0,0-.11752-.21239A.56962.56962,0,0,0,6.97157,6.218c-.01846-.00767-.02929.02144-.01083.02911a.45721.45721,0,0,1,.189.18812,1.07857,1.07857,0,0,1,.0863.26412.33569.33569,0,0,0,.1427.18865l-.09956-.00663A.62375.62375,0,0,1,7.187,6.75284.92231.92231,0,0,1,7.113,6.5451a.50443.50443,0,0,0-.09541-.16277.38313.38313,0,0,0-.07408-.06609.39351.39351,0,0,0-.08822-.03681.01583.01583,0,0,0-.0146.02763.82672.82672,0,0,1,.07325.07787.76874.76874,0,0,1,.06457.07884.55992.55992,0,0,1,.08042.19937.47214.47214,0,0,0,.10933.19807l.01252.01385-.06435-.00384a.33312.33312,0,0,1-.15293-.11746.15069.15069,0,0,1-.04139-.08611c-.00429-.03671-.00645-.0731-.0142-.10939a.33184.33184,0,0,0-.08427-.17092A.22894.22894,0,0,0,6.675,6.324c-.02024-.00242-.02228.027-.00309.0309.06482.01318.11187.09268.12987.15038.02246.072.01283.14867.03317.22a.31182.31182,0,0,0,.09771.13671c-.0194-.0007-.0388-.00125-.05819-.00132-.02021-.00007-.0405.00132-.0608.00315a.5586.5586,0,0,0-.04507-.0973,1.88485,1.88485,0,0,1-.14445-.45384c-.01461-.07863-.01971-.15911-.04013-.23659a.36889.36889,0,0,0-.10566-.17693c-.01476-.01443-.04.00595-.0251.02054a.31712.31712,0,0,1,.0707.19146c.00865.06867.011.138.01949.20667a1.60084,1.60084,0,0,0,.12636.4513.87321.87321,0,0,0,.047.10356c-.01533.00089-.03062.00133-.04583.00076a.01554.01554,0,0,0-.00309.0309c.061.00551.12073.02827.18175.03627s.1224.01188.1837.01676c.12542.01.25115.01663.37671.02463.06143.00391.12291.00683.18438.01.06108.00313.122-.00044.183.0025a.50121.50121,0,0,1,.16471.04.69877.69877,0,0,0,.16489.05818A.02792.02792,0,0,0,8.12579,7.04249Z" /><path d="M8.14881,7.24573c-.0149-.04438-.09578-.06409-.13363-.08375-.0546-.02836-.11539-.0534-.1669-.08675a.016.016,0,0,0-.01848.0261.95615.95615,0,0,0,.15774.11961c.0392.02128.10742.071.15253.04739A.0177.0177,0,0,0,8.14881,7.24573Z" /><path d="M8.24078,7.20709c-.01083-.0346-.0539-.06352-.05636-.09977-.00116-.01709-.02892-.0161-.02988.00085a.15284.15284,0,0,0,.01357.079.57.57,0,0,1,.01723.07891.02173.02173,0,0,0,.02963.01613C8.24751,7.2707,8.24991,7.23628,8.24078,7.20709Z" /><path d="M6.82228,5.94805c-.08589-.08626-.14531-.19661-.229-.2853a1.11787,1.11787,0,0,0-.27337-.2129,1.21841,1.21841,0,0,0-.31748-.12144A.61947.61947,0,0,0,5.905,5.31488,1.38354,1.38354,0,0,0,5.68013,5.231a.77721.77721,0,0,0-.12089-.00871.15069.15069,0,0,1-.103-.0592,1.70026,1.70026,0,0,1-.11707-.22189,1.00688,1.00688,0,0,0-.13831-.17839.85725.85725,0,0,1-.14007-.18163A1.34149,1.34149,0,0,1,4.97944,4.334a2.851,2.851,0,0,0-.20184-.50056.84527.84527,0,0,0-.14-.22168.35126.35126,0,0,0-.09637-.07019.263.263,0,0,0-.11928-.02023c-.01717-.0004-.0201.02606-.00268.02678a.29343.29343,0,0,1,.19808.134,1.176,1.176,0,0,1,.11218.22442,3.64492,3.64492,0,0,1,.17753.50618.90451.90451,0,0,0,.084.22995,1.037,1.037,0,0,0,.14011.17725.88476.88476,0,0,1,.14552.18914.72818.72818,0,0,0,.11961.20316.29954.29954,0,0,0,.09357.06486.32871.32871,0,0,0,.13068.01464.43626.43626,0,0,1,.1524.01341l.02781.01c-.044.00247-.0884.00721-.13426.01183-.01676.00169-.01248.02707.00406.02568a1.008,1.008,0,0,1,.32864.04887,1.05985,1.05985,0,0,1,.30071.13466,1.37385,1.37385,0,0,1,.24994.20536,1.78781,1.78781,0,0,0,.24685.234C6.81348,5.98754,6.83778,5.96362,6.82228,5.94805Z" /><path d="M8.12814,6.90742a.42026.42026,0,0,0-.32692-.16516.73818.73818,0,0,1-.2025-.02265A.21437.21437,0,0,1,7.48506,6.579c-.04559-.127-.04766-.26483-.15726-.35952a.60759.60759,0,0,0-.18174-.095c-.08121-.03163-.16454-.0541-.24682-.082-.01419-.0048-.02732.01653-.0129.02441.07065.03857.1383.08163.21049.11776a.50631.50631,0,0,1,.1813.11807c.08117.1018.06919.25226.12563.36691a.29074.29074,0,0,0,.12164.13177.39015.39015,0,0,0,.1975.03487.67277.67277,0,0,1,.20081.01478.46147.46147,0,0,1,.17071.09252C8.11789,6.9633,8.14178,6.92909,8.12814,6.90742Z" /><path d="M4.52856,3.23283a.07653.07653,0,0,1-.034-.00336.46914.46914,0,0,0,.041-.03378.13524.13524,0,0,0,.01632-.16459.01214.01214,0,0,0-.023.00678.1621.1621,0,0,1-.02759.10482c-.01844.02785-.05141.03952-.06855.06817-.00262.00438-.01634.0276-.01327.03616a.31918.31918,0,0,0,.0337.14587c.00558.01661.02994.01027.03184-.00509a.66345.66345,0,0,0-.01092-.1115l.00675.00008a.20969.20969,0,0,0,.05573-.01622C4.55223,3.25554,4.54435,3.22947,4.52856,3.23283Z" /><path d="M4.00344,3.05775c-.0236-.01688-.05595-.0396-.08627-.02785a.08649.08649,0,0,0-.04613.07153c-.00806.05669.02489.14115.0881.15084a.0238.0238,0,0,0,.02059-.03838c-.02267-.02587-.04895-.03981-.05642-.07678A.08792.08792,0,0,1,3.926,3.09035c.01153-.03226.04145-.02552.06669-.01222C4.00451,3.08437,4.01387,3.06521,4.00344,3.05775Z" /><path d="M4.30726,3.52292c-.04721.07426-.12144.05249-.1848.0119a1.17361,1.17361,0,0,0-.16317-.09625.01421.01421,0,0,0-.01311.02481,1.32918,1.32918,0,0,1,.141.13226A.10174.10174,0,0,0,4.07,3.673a.21147.21147,0,0,0,.04106.07963c.0084.01358.02761-.00062.02273-.014a.12518.12518,0,0,1,.01656-.10215l.00084-.00124.01484.00524a.13108.13108,0,0,0,.16683-.108A.01425.01425,0,0,0,4.30726,3.52292Z" /><path d="M4.33426,3.20867c-.03556-.035-.09436-.02386-.138-.04332-.01709-.00761-.02638.01891-.01.027.043.02113.08865.06729.14011.04964A.02159.02159,0,0,0,4.33426,3.20867Z" /><path d="M4.37389,3.44887c-.0313-.00977-.06313.00777-.09479-.00219-.0187-.00588-.02952.02275-.01067.02868.03528.0111.07714.03258.11105.00717A.0198.0198,0,0,0,4.37389,3.44887Z" /><path d="M4.28463,4.87991a.01508.01508,0,0,0-.03-.003c-.00643.04839-.03084.09545-.04008.144a.25138.25138,0,0,0,.0005.12765c.009.028.04887.02136.05854-.00178A.3404.3404,0,0,0,4.291,5.02059C4.29177,4.97442,4.28,4.92536,4.28463,4.87991Z" /><path d="M4.267,4.094a.01427.01427,0,0,0-.02724-.00272A.64127.64127,0,0,0,4.208,4.231a.25673.25673,0,0,1-.05333.12564.02922.02922,0,0,0,.03019.04911.128.128,0,0,0,.08661-.11736A.66728.66728,0,0,0,4.267,4.094Z" /></svg>