<svg xmlns="http://www.w3.org/2000/svg" version="1.1" viewBox="-2.1316282072803006e-14 0.05799999999999983 100.00000000000003 99.88300000000004">
 <path d="m71.645 83.422h-43.352c-3.3398 0-6.0352-2.6953-6.0352-6.0352 0-1.5234 0.58594-2.9883 1.6406-4.1602l20.621-23.316-20.68-23.375c-1.0547-1.1133-1.6406-2.6367-1.4648-4.2773 0.058594-1.6406 0.82031-3.1055 1.9336-4.1602 1.0547-0.99609 2.4609-1.5234 3.9844-1.5234h43.352c3.3398 0 6.0352 2.6367 6.0352 5.9766v8.0859c0 3.3398-2.6953 6.0352-6.0352 6.0352-3.3398 0-5.9766-2.6953-5.9766-6.0352v-2.1094h-24.078l15.113 17.164c2.2852 2.168 2.4609 5.8594 0.29297 8.2031l-15.406 17.516h24.078v-2.0508c0-3.3398 2.6367-6.0352 5.9766-6.0352 3.3398 0 6.0352 2.6953 6.0352 6.0352v8.0273c0 3.3398-2.6953 6.0352-6.0352 6.0352zm-43.352-64.09c-0.52734 0-1.4648 0.17578-2.168 0.82031-1.4062 1.2305-1.4648 3.2227-0.23438 4.5117l21.441 24.43c0.52734 0.46875 0.52734 1.2891 0 1.8164l-21.383 24.195c-0.41016 0.52734-0.99609 1.2305-0.99609 2.2852 0 1.8164 1.4648 3.2812 3.3398 3.2812h43.352c1.8164 0 3.2812-1.4648 3.2812-3.2812v-8.0273c0-1.8164-1.4648-3.2812-3.2812-3.2812-1.7578 0-3.2227 1.4648-3.2227 3.2812v3.3984c0 0.76172-0.64453 1.4062-1.4062 1.4062h-28.473c-0.52734 0-1.0547-0.35156-1.2305-0.82031-0.23438-0.46875-0.11719-1.0547 0.29297-1.4648l17.398-19.801c1.1133-1.2891 1.0547-3.2227-0.23438-4.4531l-0.11719-0.058594-17.164-19.449c-0.29297-0.41016-0.41016-0.99609-0.23438-1.4648 0.23438-0.52734 0.76172-0.82031 1.2305-0.82031h28.531c0.76172 0 1.4062 0.64453 1.4062 1.4062v3.3984c0 1.7578 1.4648 3.2227 3.2227 3.2227 1.8164 0 3.2812-1.4648 3.2812-3.2227v-8.0859c0-1.7578-1.4648-3.2227-3.2812-3.2227z" fill-rule="evenodd" />
 <path d="m75.746 99.941h-51.609c-13.297 0-24.137-10.836-24.137-24.137v-51.609c0-13.355 10.836-24.137 24.137-24.137h51.668c13.355 0 24.195 10.777 24.195 24.137v51.668c-0.11719 13.238-10.895 24.078-24.254 24.078zm-51.609-97.188c-11.832 0-21.441 9.5508-21.441 21.441v51.668c0 11.773 9.6094 21.383 21.383 21.383h51.668c11.773 0 21.383-9.6094 21.383-21.383v-51.668c0-11.773-9.6094-21.383-21.383-21.383h-51.609z" fill-rule="evenodd" />
 <path d="m75.746 93.32h-51.609c-9.5508 0-17.457-7.8516-17.457-17.457v-51.668c0-9.6094 7.793-17.457 17.457-17.457h51.668c9.668 0 17.516 7.793 17.516 17.457v51.668c0 9.6094-7.9102 17.457-17.574 17.457zm-51.609-83.949c-8.0859 0-14.703 6.6211-14.703 14.762v51.668c0 8.0859 6.6211 14.762 14.703 14.762h51.668c8.1445 0 14.82-6.6797 14.82-14.762v-51.609c0-8.1445-6.6797-14.703-14.82-14.703h-51.668z" fill-rule="evenodd" />
<text x="0.0" y="117.5" font-size="5.0" font-weight="bold" font-family="Arbeit Regular, Helvetica, Arial-Unicode, Arial, Sans-serif" fill="#000000">Created by 8-bit icons</text><text x="0.0" y="122.5" font-size="5.0" font-weight="bold" font-family="Arbeit Regular, Helvetica, Arial-Unicode, Arial, Sans-serif" fill="#000000">from Noun Project</text></svg>