<svg xmlns="http://www.w3.org/2000/svg" version="1.1" viewBox="10.000399999999999 10.00127999999999 80.003812 79.99960000000004">
 <path d="m69.305 56.941c0.58594-0.9375 1.8164-1.2227 2.7539-0.63672 0.9375 0.58594 1.2227 1.8164 0.63672 2.7539l-3.4453 5.5156 5.1172 0.96094c1.0859 0.20312 1.8008 1.2461 1.5977 2.332-0.19141 1.0195-1.1211 1.7109-2.1289 1.625l-0.20313-0.027344-8-1.5c-0.65234-0.12109-1.1992-0.55469-1.4648-1.1602-0.26562-0.60547-0.21484-1.3047 0.13672-1.8633z" />
 <path d="m66.309 10.008c3.1719 0.16016 5.6914 2.7812 5.6914 5.9922 0 2.7266-1.8203 5.0273-4.3125 5.7578l-2 10.004c-0.81641 4.0859-2.5977 7.7695-5.0742 10.844 1.7305-0.39453 3.5352-0.60547 5.3867-0.60547 13.207 0 23.918 10.664 23.996 23.852 0.003906 0.046876 0.007812 0.09375 0.007812 0.14063 0 0.046874-0.003906 0.09375-0.007812 0.13672-0.066406 13.195-10.785 23.871-23.996 23.871h-50c-3.3125 0-6-2.6875-6-6 0-2.7266 1.8203-5.0312 4.3125-5.7578l2-10.004c1.6719-8.3672 7.3789-15.062 14.852-18.238-7.4727-3.1758-13.18-9.8711-14.852-18.238l-2-10.004c-2.4922-0.73047-4.3125-3.0312-4.3125-5.7578 0-3.3125 2.6875-6 6-6h50zm-50.309 71.992c-1.1055 0-2 0.89453-2 2s0.89453 2 2 2h36.73c-1.7031-1.1328-3.2578-2.4805-4.6172-4zm52-34c0 1.1055-0.89453 2-2 2s-2-0.89453-2-2v-1.9023c-9.4453 0.9375-16.961 8.4492-17.902 17.895h1.9062c1.1055 0 2 0.89844 2 2 0 1.1055-0.89453 2-2 2h-1.9062c0.9375 9.4531 8.4531 16.969 17.902 17.91v-1.9023c0-1.1055 0.89453-2 2-2s2 0.89453 2 2v1.9023c9.4492-0.94141 16.965-8.457 17.902-17.91h-1.8984c-1.1016 0-2-0.89453-2-2 0-1.1016 0.89844-1.9961 2-2h1.8984c-0.94141-9.4453-8.457-16.957-17.902-17.895zm-29.004 4.0938c-9.2227 0.87109-16.914 7.6914-18.762 16.93l-1.793 8.9766h3.9258l1.1719-5.7383c1.5586-7.6406 7.8633-13.297 15.461-14.152v-5.8398c0-0.058593-0.003906-0.11719-0.003906-0.17578zm2.0039 9.9062c-6.5703 0-12.23 4.6211-13.543 11.059l-1.0078 4.9414h18.762c-2.043-3.5312-3.2109-7.6289-3.2109-12 0-1.3398 0.10938-2.6562 0.32422-3.9336-0.4375-0.042968-0.87891-0.066406-1.3242-0.066406zm2-9.7305v5.8398c0.10547 0.015625 0.21094 0.027344 0.3125 0.042969 0.68359-1.9766 1.6172-3.832 2.7617-5.5352-1.0039-0.25-2.0312-0.42578-3.0781-0.52344 0 0.058594 0.003906 0.11719 0.003906 0.17578zm-22.766-21.293c1.7578 8.7891 8.8086 15.395 17.438 16.762-0.84766-1.3242-2.0664-2.4062-3.5469-3.0898-3.0234-1.3984-5.3555-3.9531-6.4766-7.0859l-1.0312-2.8906-0.058594-0.19531c-0.24219-0.98437 0.29297-2.0117 1.2695-2.3594 0.97266-0.34766 2.0391 0.10547 2.4766 1.0234l0.078124 0.1875 1.0312 2.8867c0.75781 2.125 2.3398 3.8555 4.3867 4.8008 3.0312 1.3984 5.3086 3.9258 6.4258 6.9492 9.5664-0.55078 17.641-7.4922 19.539-16.988l1.793-8.9766h-45.117zm-4.2344-16.977c-1.1055 0-2 0.89453-2 2s0.89453 2 2 2h50c1.1055 0 2-0.89453 2-2 0-1.0352-0.78906-1.8867-1.7969-1.9883l-0.20312-0.011719z" fill-rule="evenodd" />
<text x="0.0" y="117.5" font-size="5.0" font-weight="bold" font-family="Arbeit Regular, Helvetica, Arial-Unicode, Arial, Sans-serif" fill="#000000">Created by HDM</text><text x="0.0" y="122.5" font-size="5.0" font-weight="bold" font-family="Arbeit Regular, Helvetica, Arial-Unicode, Arial, Sans-serif" fill="#000000">from Noun Project</text></svg>