<?xml version="1.0" encoding="UTF-8" standalone="no"?>
<svg
        width="28.003006mm"
        height="2.8835936mm"
        viewBox="0 0 28.003006 2.8835936"
        version="1.1"
        id="svg1"
        xmlns="http://www.w3.org/2000/svg">
    <defs
            id="defs1" />
    <g
            id="layer1"
            transform="translate(-103.06191,-145.84893)">
        <path
                class="animated-path"
                d="m 105.75015,148.46434 -0.28215,0.11783 q -0.0574,-0.19844 -0.17054,-0.42789 -1.5999,0.16124 -2.15955,0.26976 l -0.076,-0.30851 0.36432,-0.0403 0.82631,-2.0898 0.26355,0.10232 -0.77205,1.94562 1.38751,-0.15193 q -0.2651,-0.49609 -0.49144,-0.72088 l 0.29456,-0.12713 q 0.42478,0.5333 0.81545,1.43092 z m 1.64796,-1.89445 -0.17053,0.24804 q -0.38447,-0.32401 -0.90537,-0.45113 l 0.17518,-0.26045 q 0.5488,0.19844 0.90072,0.46354 z m 1.42937,0.32401 q -0.54725,0.8077 -1.0852,1.16427 -0.53796,0.35656 -1.21698,0.54725 l -0.18139,-0.2868 q 0.84956,-0.18294 1.36271,-0.58446 0.51315,-0.40153 0.89297,-1.04645 z m 3.01997,-0.5023 -0.22014,0.093 q -0.0574,-0.26355 -0.15193,-0.42633 l 0.23255,-0.0946 q 0.0868,0.17363 0.13952,0.42788 z m -1.07435,-0.0946 -0.10077,0.28836 q -0.41548,-0.23875 -0.96583,-0.29456 l 0.10232,-0.2961 q 0.61081,0.12712 0.96428,0.3023 z m 0.72088,0.2217 -0.21859,0.0915 q -0.0589,-0.262 -0.15193,-0.42478 l 0.231,-0.0946 q 0.0884,0.17364 0.13952,0.42789 z m 0.5209,0.39687 q -0.43873,0.69608 -0.98753,1.09916 -0.54881,0.40152 -1.32395,0.60926 l -0.14573,-0.293 q 0.8077,-0.18759 1.34565,-0.57981 0.53951,-0.39378 0.86352,-1.0325 z m -1.54254,0.18138 -0.11162,0.30076 q -0.36587,-0.2558 -0.95188,-0.32091 l 0.10077,-0.28835 q 0.58911,0.11007 0.96273,0.3085 z m 4.40283,1.10846 h -1.97042 V 147.945 h 1.17047 l 0.15968,-1.20458 h -1.0728 v -0.26045 h 1.34875 v 0.19689 l -0.16898,1.26814 h 0.5333 z m 3.55948,-1.32395 h -0.89142 v 0.18914 h 0.79995 v 1.28054 q 0,0.13643 -0.0651,0.21394 -0.0636,0.0775 -0.15038,0.0822 -0.0868,0.005 -0.2806,0.005 l -0.0791,-0.2341 0.28215,0.0124 q 0.0543,0 0.0543,-0.0605 v -1.06661 h -0.5612 v 0.58136 h 0.18448 v -0.42943 h 0.231 v 0.79995 h -0.231 v -0.13642 h -0.61391 v 0.12402 h -0.2279 v -0.78755 h 0.2279 v 0.42943 h 0.18448 v -0.58446 h -0.57206 l -0.003,1.38752 h -0.23719 v -1.61696 h 0.81235 v -0.18914 h -0.90537 v -0.23254 h 0.48369 v -0.30541 h -0.41703 v -0.23099 h 0.41703 V 145.871 h 0.2372 v 0.24185 h 0.59996 V 145.871 h 0.23875 v 0.24185 h 0.45733 v 0.23099 h -0.45733 v 0.30541 h 0.48214 z m -0.72089,-0.23254 v -0.30541 h -0.59996 v 0.30541 z m -1.3038,-0.32711 -0.16588,0.15503 q -0.17363,-0.23875 -0.44183,-0.38292 l 0.14728,-0.15658 q 0.2868,0.14727 0.46043,0.38447 z m -0.12402,0.64492 -0.16898,0.17053 q -0.16588,-0.24649 -0.43718,-0.41858 l 0.15192,-0.15193 q 0.27441,0.15348 0.45424,0.39998 z m 0.10077,0.5302 q -0.21394,0.7674 -0.57361,1.13637 l -0.18448,-0.14883 q 0.40617,-0.46819 0.555,-1.07281 z m 5.37642,0.84491 -0.19069,0.23099 h -0.82011 q -0.69453,0 -1.21543,-0.36121 -0.13177,0.28525 -0.48524,0.52089 l -0.19378,-0.19688 q 0.59531,-0.30696 0.57981,-1.17513 l 0.2713,0.0341 q 0,0.37207 -0.0868,0.57206 0.21239,0.17828 0.524,0.28215 v -1.12706 h -0.81235 v -1.0418 h 1.78438 v 1.0418 h -0.72088 v 0.42323 h 0.94878 v 0.23099 h -0.94878 v 0.5302 q 0.13332,0.0481 1.36581,0.0357 z m -0.88677,-1.46038 v -0.56895 h -1.2914 v 0.56895 z m 3.80132,-0.60461 -0.22015,0.093 q -0.0574,-0.26355 -0.15192,-0.42633 l 0.23254,-0.0946 q 0.0868,0.17363 0.13953,0.42788 z m 0.0636,0.49299 h -0.89297 q 0.003,0.0744 0.003,0.10697 0,0.61237 -0.26665,1.09916 -0.2651,0.48524 -0.75809,0.67593 l -0.20309,-0.2434 q 0.46974,-0.18448 0.70538,-0.58136 0.2372,-0.39842 0.2372,-0.94258 0,-0.0357 -0.003,-0.11472 h -0.78134 q -0.22324,0.37982 -0.46664,0.60307 l -0.25425,-0.19379 q 0.55966,-0.46354 0.75189,-1.26039 l 0.29301,0.0915 q -0.0512,0.18138 -0.18139,0.47439 h 1.17823 q -0.0589,-0.25425 -0.14883,-0.41393 l 0.23099,-0.0946 q 0.0884,0.17364 0.13953,0.42788 -0.18759,0.0806 -0.19069,0.0806 h 0.60772 z m 3.2029,0.65423 h -2.6479 v -0.28681 h 2.6479 z m 2.95331,-1.0325 -0.22014,0.093 q -0.0574,-0.26355 -0.15193,-0.42633 l 0.23254,-0.0946 q 0.0868,0.17363 0.13953,0.42788 z m -1.07435,-0.0946 -0.10077,0.28836 q -0.41548,-0.23875 -0.96583,-0.29456 l 0.10232,-0.2961 q 0.61081,0.12712 0.96428,0.3023 z m 0.72088,0.2217 -0.21859,0.0915 q -0.0589,-0.262 -0.15193,-0.42478 l 0.231,-0.0946 q 0.0884,0.17364 0.13952,0.42789 z m 0.5209,0.39687 q -0.43873,0.69608 -0.98753,1.09916 -0.54881,0.40152 -1.32395,0.60926 l -0.14573,-0.293 q 0.8077,-0.18759 1.34565,-0.57981 0.5395,-0.39378 0.86352,-1.0325 z m -1.54254,0.18138 -0.11162,0.30076 q -0.36587,-0.2558 -0.95188,-0.32091 l 0.10077,-0.28835 q 0.58911,0.11007 0.96273,0.3085 z"
                id="text4"
                style="font-size:3px;stroke-width:0.1"
                aria-label="ムンジュ満足ゲージ" />
    </g>
</svg>