<svg xmlns="http://www.w3.org/2000/svg" data-name="Layer 1" viewBox="1.250935370734936 2.7387777338864154 7.498117405886548 4.522522312775053" x="0px" y="0px"><title>KAMASUTRA</title><path d="M2.23556,6.54412A.02214.02214,0,0,0,2.20167,6.536a.09142.09142,0,0,1-.07381.03557c-.04146-.00079-.08237-.01007-.12379-.01259a1.46013,1.46013,0,0,0-.25331.01207c-.08389.00955-.16808.02117-.2526.02314a1.03363,1.03363,0,0,1-.12627-.0031c-.03277-.00326-.08025-.0065-.10164-.03657-.00776-.01091-.02239.00046-.01874.01152a.1267.1267,0,0,0,.06309.08146.31949.31949,0,0,0,.12811.03474,1.48551,1.48551,0,0,0,.323-.01659,1.37774,1.37774,0,0,1,.31773-.00085.15766.15766,0,0,0,.1234-.0291A.07264.07264,0,0,0,2.23556,6.54412Z" /><path d="M3.59923,6.63316a.77923.77923,0,0,1-.18231.02693.51873.51873,0,0,1-.187-.04921.69236.69236,0,0,1-.29609-.26052A1.6973,1.6973,0,0,1,2.75837,5.97c-.0539-.15276-.1006-.30818-.14361-.46432-.02407-.08739-.04613-.1754-.07222-.26221-.02765-.092-.069-.17846-.09293-.27186a.01225.01225,0,0,0-.02419.00382c.01328.0905.01389.18171.025.27239.00276.02259.00644.04516.01067.06767l-.00775.03162c-.01458.04915-.03666.09677-.05227.146-.031.09769-.0665.1939-.0978.2915a1.62923,1.62923,0,0,0-.07091.30475.98428.98428,0,0,0-.0069.15284c.0023.05851.0157.11545.02269.17338.00133.011.01968.01087.01972-.00056a1.122,1.122,0,0,1,.01878-.15868c.00822-.0558.01462-.11158.02428-.16719A2.072,2.072,0,0,1,2.39308,5.778c.032-.09437.06957-.188.09321-.28492l.0072-.03554.01044.04139q.06393.25439.14652.50355a1.0785,1.0785,0,0,0,.52779.71076.48754.48754,0,0,0,.4508-.01359A.038.038,0,0,0,3.59923,6.63316Z" /><path d="M2.50082,4.20219A.19025.19025,0,0,0,2.2912,4.217a.36038.36038,0,0,0-.13466.19573,1.84656,1.84656,0,0,0-.05485.27076q-.02562.15556-.04786.31165c-.02887.20276-.04944.40627-.07026.61-.00983.09619-.02169.192-.03311.28792-.0091.01365-.01424.0298-.02318.04465a.56885.56885,0,0,1-.04226.05705,1.43629,1.43629,0,0,1-.10947.13312.50194.50194,0,0,1-.14278.07574c-.05559.027-.10718.06058-.1633.0867-.01161.0054-.00671.02607.00661.02242.12062-.03306.276-.03221.36713-.12974a.76462.76462,0,0,0,.06194-.07772.35117.35117,0,0,1-.037.06687.58784.58784,0,0,1-.21178.17533q-.07055.03664-.14392.06693c-.05114.02109-.10468.03492-.15569.05649a.00792.00792,0,0,0,.00442.015,1.31688,1.31688,0,0,0,.26605-.0547.643.643,0,0,0,.21661-.11377.48418.48418,0,0,0,.14253-.18477.73143.73143,0,0,0,.04376-.25595,5.75081,5.75081,0,0,1,.06395-.60246c.03-.19985.05881-.3997.094-.59875a.94066.94066,0,0,1,.07469-.29352.23827.23827,0,0,1,.08779-.09206A.2424.2424,0,0,1,2.47883,4.261.03276.03276,0,0,0,2.50082,4.20219Z" /><path d="M3.65354,5.88656c-.01834-.02173-.03066-.0497-.047-.07326C3.59,5.78944,3.57364,5.766,3.55887,5.74094c-.03547-.06015-.0676-.12235-.10183-.18322q-.10621-.18893-.21175-.37823L3.0299,4.7938c-.0608-.10887-.1191-.21976-.18944-.32291a.53994.53994,0,0,0-.27732-.2449c-.014-.003-.01966.015-.0131.02443.03163.04567.07591.08344.11084.127a1.56936,1.56936,0,0,1,.10117.14035c.06758.10651.12467.22013.18467.331q.20809.38436.41573.769c.03492.06494.06939.13069.10856.19321a.40717.40717,0,0,0,.05661.07564.29952.29952,0,0,0,.08794.05313C3.64653,5.95479,3.67409,5.91091,3.65354,5.88656Z" /><path d="M3.91507,5.66685c-.10731-.04348-.1665-.17174-.22293-.2662q-.11914-.1994-.23723-.39941c-.07743-.13086-.15417-.26216-.23242-.39253a1.76121,1.76121,0,0,0-.23156-.3431.3563.3563,0,0,0-.16981-.10333.2649.2649,0,0,0-.17756.02648.01019.01019,0,0,0,.00824.01861.23394.23394,0,0,1,.18766.04323.44237.44237,0,0,1,.13042.132c.079.11741.1425.24714.214.36923q.22627.38619.45173.77285c.05577.09589.14829.23632.28073.18522A.02353.02353,0,0,0,3.91507,5.66685Z" /><path d="M5.24,6.55136a.38334.38334,0,0,0-.13064-.03249.33427.33427,0,0,1-.12921-.06429.53775.53775,0,0,1-.09648-.10712.2677.2677,0,0,1-.05573-.15393c.00028-.01449-.02225-.01685-.02254-.00225a.6027.6027,0,0,0,.00994.17293l.00482.01622c-.036-.01216-.07195-.0243-.10762-.03735-.023-.00841-.04513-.01879-.06792-.02769a.54214.54214,0,0,1-.08546-.0318.009.009,0,0,0-.01044.01474.78125.78125,0,0,0,.1036.09611.64155.64155,0,0,0,.11711.05782c.04457.01667.08665.03592.12865.05583l.012.01142a.4107.4107,0,0,0,.159.08878.1779.1779,0,0,0,.17254-.00967A.03.03,0,0,0,5.24,6.55136Z" /><path d="M6.284,6.34708a.292.292,0,0,0-.20537-.0709.73371.73371,0,0,0-.2381.0557c-.08338.0284-.16715.05589-.24926.08786-.08771.03415-.16673.08364-.2526.121-.01077.00468-.006.02311.006.02023.06135-.01473.12391-.02205.18573-.03419a.52668.52668,0,0,0-.00136.0964l.00294.02929a.1914.1914,0,0,0-.03062-.0229A.19491.19491,0,0,0,5.328,6.61939a.01024.01024,0,0,0-.00176.01762c.03706.02088.0775.0341.11408.05588a.1651.1651,0,0,1,.06769.08857.03864.03864,0,0,0,.07314-.01169l.0016-.0129a.27358.27358,0,0,0,.02657-.09433A.87815.87815,0,0,1,5.623,6.50392c.06545-.01842.13017-.03933.19477-.06055a1.39956,1.39956,0,0,1,.22727-.06652c.01483-.00219.03-.00406.04515-.00537a3.29476,3.29476,0,0,1-.06375.39782c-.01455.07264-.03406.1442-.0521.216-.0161.06408-.0405.12354-.06138.18585l.00012,0a.01652.01652,0,0,0,.02568.01841A.31994.31994,0,0,0,6.03505,7.023c.02317-.07284.04157-.14712.06343-.22035a2.0033,2.0033,0,0,0,.08059-.42928.5796.5796,0,0,0,.08436.012C6.282,6.3856,6.299,6.36322,6.284,6.34708Z" /><path d="M6.47244,6.29165c-.04256-.02418-.09045-.006-.13545-.01656-.01373-.00322-.02216.01657-.0079.02123a.25509.25509,0,0,1,.05252.02936l.02307.01229c.00355.002.01266.01106.00773.0028a.04175.04175,0,0,0,.04307.02345A.0426.0426,0,0,0,6.482,6.34774.04037.04037,0,0,0,6.47244,6.29165Z" /><path d="M6.38042,6.384l-.02484.00471c-.00843.00231-.01537.00662-.02355.00939a.0177.0177,0,0,0,.001.03246c.00769.00262.01418.007.02223.009l.02691.00488c.0196.002.04536-.007.0443-.03094C6.42538,6.38912,6.40085,6.38179,6.38042,6.384Z" /><path d="M4.48861,6.193c-.01184-.01412-.01735-.02978-.033-.04091a.14828.14828,0,0,0-.04837-.0208.22349.22349,0,0,0-.104-.0008.54405.54405,0,0,0-.21142.12832,1.22412,1.22412,0,0,1-.23293.11922.511.511,0,0,0-.17654.1881c-.0077.01058.00791.02082.01624.0115a.52042.52042,0,0,1,.192-.128A1.344,1.344,0,0,0,4.094,6.35938c.06228-.03969.11254-.0984.17841-.13229A.18724.18724,0,0,1,4.362,6.205a.1368.1368,0,0,1,.08058.0257C4.46782,6.25923,4.51328,6.22247,4.48861,6.193Z" /><path d="M5.84431,7.19585A1.46855,1.46855,0,0,1,5.629,7.17122a1.203,1.203,0,0,1-.20881-.04274,1.38863,1.38863,0,0,1-.39167-.19764,1.75925,1.75925,0,0,1-.17363-.141,1.03853,1.03853,0,0,0-.17512-.14324.7595.7595,0,0,0-.4119-.0857,2.07934,2.07934,0,0,0-.25473.02973,1.89632,1.89632,0,0,0-.27652.055c-.01008.0032-.00634.0185.00311.01943a4.29584,4.29584,0,0,0,.48167-.01328.7258.7258,0,0,1,.41936.08552,1.4809,1.4809,0,0,1,.17124.14887,1.70564,1.70564,0,0,0,.16961.13524,1.41893,1.41893,0,0,0,.39129.19472,1.03642,1.03642,0,0,0,.23338.04516A.69124.69124,0,0,0,5.845,7.22013C5.85686,7.21666,5.85962,7.19549,5.84431,7.19585Z" /><path d="M8.34037,6.9312a.571.571,0,0,1-.25342.05017c-.1053.00053-.21087-.00048-.316-.00645-.0324-.00184-.09922.00131-.12087-.02949a.4651.4651,0,0,1-.02323-.06079c-.01111-.02279-.02469-.04412-.035-.06734-.03889-.08783-.06375-.18146-.0953-.27214a3.35762,3.35762,0,0,1-.16123-.571c-.03-.189-.04985-.38122-.062-.57218-.007-.11051-.00941-.22117-.01364-.33178-.0021-.05484-.00259-.10964-.00528-.16445a1.15108,1.15108,0,0,1-.0059-.1753.00926.00926,0,0,0-.01842-.00184c-.00559.0524-.02276.10469-.03291.15653a1.54972,1.54972,0,0,0-.02168.15745c-.00686.0751-.00957.15058-.00925.226l-.01339.00273a.34816.34816,0,0,0-.06328.02479,1.03674,1.03674,0,0,0-.1248.07451c-.08012.05492-.15356.11892-.23065.17786a1.36681,1.36681,0,0,1-.24731.14878.68218.68218,0,0,0-.09957.05556,1.13553,1.13553,0,0,0,.03358-.14529.27777.27777,0,0,0,.0043-.1375.00793.00793,0,0,0-.01219-.00291.25264.25264,0,0,0-.04749.09551c-.01663.04435-.03278.08887-.04951.13318-.01585.042-.03049.08437-.04683.12615l-.02338.05888-.00938.02677L6.221,5.91068a.63157.63157,0,0,1-.19209.00616A2.279,2.279,0,0,0,5.66,5.91111c.01318-.095.00411-.19714.00861-.29122a1.22641,1.22641,0,0,1,.05421-.32717.63868.63868,0,0,1,.37507-.41639,4.536,4.536,0,0,1,.60091-.101.8189.8189,0,0,0,.26814-.10544.58533.58533,0,0,0,.19333-.21542c.08707-.1584.14814-.38831.32623-.46372l.00707-.00134c.04176-.00737.08313-.01579.12529-.02077a.56294.56294,0,0,0,.12535-.01155l-.00409.02213c-.00764.04066.05194.04981.06718.01558a.40981.40981,0,0,0,.0363-.16229.49929.49929,0,0,0-.0027-.07483L7.847,3.72974a.10412.10412,0,0,0-.03232-.08891.25635.25635,0,0,1-.05487-.10512c-.00394-.0164-.01495-.05116,0-.065a.0867.0867,0,0,1,.0412-.01238c.00464.00579.01561.00526.0154-.00376-.00069-.0292-.04153-.04538-.06662-.04654-.05182-.0024-.07589.0427-.07521.08874a.28136.28136,0,0,0,.04785.15052c.01464.022.0419.04024.05277.06346l.00221.00539a.72761.72761,0,0,0-.01176.10857L7.758,3.87741a.46115.46115,0,0,0-.19707.01269c-.01418.00374-.03291.00866-.05234.01528a.28478.28478,0,0,0-.07347.015l.00046-.001a2.97611,2.97611,0,0,0,.10459-.28374c.03158-.09548.06376-.19061.101-.284a1.36826,1.36826,0,0,1,.133-.27778c.00672-.00967-.00686-.02368-.01575-.01469a.93306.93306,0,0,0-.17564.23025,2.0441,2.0441,0,0,0-.11285.2857c-.03265.09771-.06436.19594-.10127.29215a1.43985,1.43985,0,0,1-.06288.13516.61784.61784,0,0,0-.08308.10047c.03625-.13913.06352-.28042.10062-.41936a1.54625,1.54625,0,0,1,.36207-.72617.55183.55183,0,0,1,.17724-.1191.5032.5032,0,0,1,.11318-.03214.29968.29968,0,0,1,.13677-.00279.01041.01041,0,0,0,.00726-.01951A.40032.40032,0,0,0,7.922,2.739a.43108.43108,0,0,0-.19328.0687.91192.91192,0,0,0-.28171.31,2.67925,2.67925,0,0,0-.28745.85424c-.01845.09013-.03322.181-.05312.27082-.01016.04585-.02177.09137-.03432.13662l-.00891.02916a.49956.49956,0,0,1-.09311.123.58715.58715,0,0,1-.26222.1313,6.38025,6.38025,0,0,0-.63857.11464.70678.70678,0,0,0-.41117.415,1.16656,1.16656,0,0,0-.0779.36245,1.69716,1.69716,0,0,0-.00077.21146l.00246.0387a.30841.30841,0,0,0-.04524-.01966c-.029-.01161-.05844-.02223-.08788-.0327-.05888-.021-.11829-.04048-.1783-.05794a2.11158,2.11158,0,0,0-.36215-.07519,1.80183,1.80183,0,0,0-.38438.0021c-.06246.00669-.12474.015-.18659.026-.06734.012-.133.03356-.20031.0468a.00949.00949,0,0,0,.003.01874c.06371-.00442.12689-.00139.19049-.00377.06314-.00237.12613-.00744.18929-.0094a2.49735,2.49735,0,0,1,.37923.01257,2.1292,2.1292,0,0,1,.35341.07533c.05489.01643.10926.03456.16319.0539.02942.01055.05862.02172.088.0324a.12571.12571,0,0,0,.08045.01464l.00642-.00225.00519.02849a2.65306,2.65306,0,0,0-.35134.03872,1.154,1.154,0,0,0-.38381.142c-.012.00735-.00458.02684.00917.02072A1.28712,1.28712,0,0,1,5.293,6.0237c.147-.01163.29537-.02259.44279-.02569a1.94609,1.94609,0,0,1,.23769.00941.78774.78774,0,0,0,.21031.00666.32707.32707,0,0,0,.05816-.01775.03884.03884,0,0,0,.01795-.00268l.0185-.00984a.09373.09373,0,0,1,.09764.01768.1863.1863,0,0,1,.048.08457c.00547.0176.00844.0368.01493.05384l-.02047-.00345a.17146.17146,0,0,0-.02954-.00138c-.01589.00049-.03222.00658-.04789.00572a.01161.01161,0,0,0-.00518.02233c.01442.00616.02633.01886.04036.02631a.16855.16855,0,0,0,.02721.01189.5517.5517,0,0,0,.07279.01772c.03146.00561.047-.036.03014-.05665a.184.184,0,0,0-.02213-.14271A.22206.22206,0,0,0,6.383,5.91095a.14466.14466,0,0,0-.04683-.01342l.01279-.03211c.0322-.01684.06489-.03286.09776-.0485l.00224.00176a.31591.31591,0,0,0,.16743.054c.03435.00144.06858.0014.10218.005A.10749.10749,0,0,1,6.6899,5.966c-.04086.03223-.07307.05562-.0736.11255a.19455.19455,0,0,0,.01444.071.35324.35324,0,0,1,.0348.07721c.00733.05867-.06911.07583-.10888.09713a.0105.0105,0,0,0,.00318.01987.15165.15165,0,0,0,.14686-.043c.04386-.05426.01574-.12527-.002-.184a.08745.08745,0,0,1-.00582-.04612c.00529-.01642.024-.02026.03778-.02851a.14311.14311,0,0,0,.05708-.064A.13149.13149,0,0,0,6.80426,5.899l.00369.00157A.40307.40307,0,0,1,7.01846,6.17a.55372.55372,0,0,1-.03675.41628.43679.43679,0,0,1-.2893.20777.6038.6038,0,0,1-.408-.10864c-.02018-.01076-.05132.00622-.03851.03151a.41485.41485,0,0,0,.37938.188A.53073.53073,0,0,0,7.01195,6.723a.632.632,0,0,0-.00442-.7812.78867.78867,0,0,0,.02241-.27332.35849.35849,0,0,0-.06473-.18564l.0363-.02691A.97256.97256,0,0,1,7.12022,5.381l.04769-.02375v.00045a3.27624,3.27624,0,0,0,.08326.62981,5.24125,5.24125,0,0,0,.16055.61176c.03712.1023.09094.19693.127.29955a.22086.22086,0,0,0,.1898.145,2.84129,2.84129,0,0,0,.3699.022.33432.33432,0,0,0,.27313-.09644C8.38794,6.95006,8.36223,6.92015,8.34037,6.9312ZM6.969,5.901l-.01525-.014a.31155.31155,0,0,0-.20936-.075c-.04319.00006-.08649.00369-.12967.005A.35718.35718,0,0,1,6.4731,5.8044l.07367-.03469a1.33786,1.33786,0,0,0,.23472-.14285c.04187-.03164.08261-.06476.12371-.09739a.46014.46014,0,0,1,.02528.04762A.529.529,0,0,1,6.96,5.71148C6.96736,5.77455,6.96765,5.83777,6.969,5.901Z" /><path d="M8.324,6.83249a.81767.81767,0,0,0-.51656-.09578c-.01571.00071-.03932.00688-.04954-.00395a.19873.19873,0,0,1-.02174-.06161,1.26427,1.26427,0,0,1-.03605-.14732,2.35138,2.35138,0,0,1-.03259-.28318,5.54218,5.54218,0,0,0-.04649-.56683,1.101,1.101,0,0,1,.00221-.30545c.00535-.05155.01127-.10305.0171-.15456a.14466.14466,0,0,0,.1321-.006.39312.39312,0,0,0,.08628-.06729.04723.04723,0,0,0,.02826.007.24226.24226,0,0,0,.21835-.157.44246.44246,0,0,0-.0653-.33658c-.00465-.00852-.02043-.00567-.01761.00519a.85958.85958,0,0,1,.02622.16953.25749.25749,0,0,1-.03048.16822.17173.17173,0,0,1-.1083.07072c.07531-.15882-.05558-.31769-.04557-.47823.0007-.01129-.0168-.01308-.01751-.00175-.00373.05989-.01745.1167-.0157.17742.00189.06584.02224.13068.01986.1966a.18991.18991,0,0,1-.07674.14206.14588.14588,0,0,1-.06529.0392.17715.17715,0,0,1-.05945-.01108L7.6574,5.055c.02292-.23665.04689-.4727.0642-.70976.00078-.01075-.01627-.01583-.01922-.00446-.0547.21113-.09711.42334-.13068.639-.017.1094-.03045.21909-.04274.32912a1.28678,1.28678,0,0,0-.01434.32512c.01423.099.03158.19617.03905.29617.00734.09832.01086.19688.01681.29529a2.54808,2.54808,0,0,0,.03225.29863,1.34392,1.34392,0,0,0,.03361.14257.4309.4309,0,0,0,.04944.12888c.03018.0417.07626.036.12172.0331a1.51272,1.51272,0,0,1,.16167-.00224,1.02313,1.02313,0,0,1,.32052.071A.03723.03723,0,0,0,8.324,6.83249Z" /><path d="M8.72936,6.41024c-.03344-.011-.06835-.02-.10075-.03382-.03475-.01482-.06738-.034-.10147-.05022a.32409.32409,0,0,0-.10435-.03264.5323.5323,0,0,0-.12582.01471c-.04783.00615-.05986-.02611-.07-.06665a1.39814,1.39814,0,0,1-.0291-.15484,2.10886,2.10886,0,0,1-.01658-.30346c.00458-.41455.05714-.82841.08838-1.24163a1.50614,1.50614,0,0,0,.0011-.2919.469.469,0,0,0-.07027-.21514l.0018-.00574a1.01419,1.01419,0,0,1,.12457-.278.10819.10819,0,0,0,.05655-.07136c.00224-.01118-.00916-.01759-.01833-.01731a.26094.26094,0,0,0-.09107.03393.31657.31657,0,0,1-.109.02327c-.03642.00184-.07228.00476-.10863.00769a.14449.14449,0,0,1-.108-.01983c-.00693-.00637-.01634.00481-.011.01175a.27631.27631,0,0,0,.233.06917A.41932.41932,0,0,0,8.251,3.77874a.37823.37823,0,0,0-.02544.03246.91309.91309,0,0,0-.08327.15257c-.02368.05323-.04221.108-.06058.16326a1.13466,1.13466,0,0,1-.05838.16422c-.00992.01917.01526.03979.03309.03114a.18341.18341,0,0,0,.09166-.12105l.01513-.0482a.86132.86132,0,0,1,.02.12449,1.92255,1.92255,0,0,1-.00729.28266q-.02437.33007-.047.66026c-.0143.20757-.03974.41686-.03809.625a1.88983,1.88983,0,0,0,.02544.30984c.01329.07625.02524.1967.10428.23556a.20053.20053,0,0,0,.137.00094.1909.1909,0,0,1,.12738.0139c.07637.03327.16012.10186.24617.062A.03143.03143,0,0,0,8.72936,6.41024Z" /><path d="M8.58153,6.48959c-.07235-.012-.1478-.0089-.221-.01893a.93869.93869,0,0,1-.1963-.04269.18279.18279,0,0,1-.12132-.133c-.01895-.06822-.03038-.13948-.04338-.209-.02724-.1456-.04708-.29213-.06754-.43877a4.24889,4.24889,0,0,1-.05722-.447c-.00042-.01309-.02052-.00975-.0201.00318.00536.16561-.0064.33094.00693.4965a4.899,4.899,0,0,0,.07065.49658A.62629.62629,0,0,0,7.989,6.4007a.25805.25805,0,0,0,.15194.10859.898.898,0,0,0,.21979.0392.58082.58082,0,0,0,.22667-.02191C8.60683,6.51935,8.59921,6.49252,8.58153,6.48959Z" /><path d="M6.53026,6.48311a.02169.02169,0,0,0-.0125.023c.00224.02762.0623.06393.01047.07052a.32664.32664,0,0,1-.05755-.00265.28843.28843,0,0,1-.07524-.0083.01046.01046,0,0,0-.00964.01825.20955.20955,0,0,0,.11905.05779.11493.11493,0,0,0,.093-.025C6.64413,6.57,6.59887,6.46119,6.53026,6.48311Z" /><path d="M8.16113,2.91314a.34985.34985,0,0,0-.145.01569.23246.23246,0,0,0-.10931.10743.40608.40608,0,0,0-.0401.14966.33938.33938,0,0,1-.03983.15893.00907.00907,0,0,0,.01309.0122.52719.52719,0,0,0,.12168-.23591.21814.21814,0,0,1,.095-.11627c.04029-.02246.09556-.00816.12262-.05187A.0256.0256,0,0,0,8.16113,2.91314Z" /><path d="M8.46809,3.201a.4455.4455,0,0,1-.04336.01767q-.00641-.03064-.01461-.06089c-.03215-.11791-.07782-.29316-.21836-.31569a.01.01,0,0,0-.00674.018.28921.28921,0,0,1,.09567.14223,1.376,1.376,0,0,1,.04608.1325l-.01059.00589A.06757.06757,0,0,0,8.2983,3.156c-.00345.0049-.00584.01664-.00027.02113a.0675.0675,0,0,0,.0373.00877l.00546.00054.00651.027.00644.02886-.01308.00712a.02364.02364,0,0,0,.00666.04l.017.0047A1.25579,1.25579,0,0,1,8.3821,3.422c.003.03631.00377.07253.00492.10891s.00892.07087.01174.10688a.014.014,0,0,0,.02667.00267.52841.52841,0,0,0,.02511-.11483,1.07437,1.07437,0,0,0-.00133-.11425c-.00239-.04386-.00671-.08763-.01336-.131a.17178.17178,0,0,0,.05868-.047C8.50879,3.217,8.48649,3.19207,8.46809,3.201Z" /><path d="M8.13655,3.28016c-.03589-.0353-.08493.01761-.11213.03955-.0059.00476.00037.01594.00722.01175A.1139.1139,0,0,1,8.089,3.31828c.01838-.00084.03615.00034.04832-.01578A.01854.01854,0,0,0,8.13655,3.28016Z" /><path d="M8.35063,3.53129c-.02381-.01-.04582.00336-.06763.01263a.22344.22344,0,0,0-.02909.01319.107.107,0,0,0-.02026.01886.00848.00848,0,0,0,.00046.01326.0633.0633,0,0,0,.031.01677.10768.10768,0,0,0,.03933-.00213c.02823-.00586.05573-.01732.06143-.04821A.0238.0238,0,0,0,8.35063,3.53129Z" /><path d="M8.13987,3.17195A.14117.14117,0,0,0,7.9623,3.27c-.00313.0097.00939.02135.01779.01271a.18373.18373,0,0,1,.07212-.04457A.67228.67228,0,0,1,8.135,3.22074.02556.02556,0,0,0,8.13987,3.17195Z" /></svg>