<svg xmlns="http://www.w3.org/2000/svg" data-name="Layer 1" viewBox="2.4980675887010984 1.8277298914426492 5.004475891487856 6.344559094603225" x="0px" y="0px"><title>KAMASUTRA</title><path d="M3.43335,3.05441a.59439.59439,0,0,0-.09833.07626.62915.62915,0,0,0-.1035-.15363.6191.6191,0,0,0-.123-.1026.81341.81341,0,0,0-.14762-.06657c-.01444-.00567-.02191.0158-.00829.02228a.69974.69974,0,0,1,.20688.172.75027.75027,0,0,1,.07532.10036.38805.38805,0,0,1,.03.05538.50821.50821,0,0,1,.01315.05344c-.00776.01414-.015.02855-.02189.043a.88972.88972,0,0,0-.04572.1193,1.04,1.04,0,0,0-.16873-.287.38544.38544,0,0,0-.06723-.0581c-.02407-.016-.06245-.02519-.07563-.05219-.02252-.04615-.01066-.10034-.05287-.1374-.01128-.00991-.02606.00545-.02131.01744.01946.04914-.00211.10384.02.15268a.12682.12682,0,0,0,.06071.05636.30156.30156,0,0,1,.07476.05869,1.4012,1.4012,0,0,1,.19666.35787l.00285.005-.01654.06971a4.338,4.338,0,0,0-.1046.70862c-.01074.034-.02186.06781-.03516.10059a.76046.76046,0,0,1-.13122.22811c-.00893.00973.00544.0274.01676.02049a.46409.46409,0,0,0,.15563-.151.2297.2297,0,0,0,.07608.127c.02529.02207.06494-.01262.05043-.04126a.50194.50194,0,0,1-.03639-.26044c.00706-.112.01835-.22382.03291-.3351q.02143-.1637.05443-.32561c.02007-.09843.0392-.198.0676-.29443a.82987.82987,0,0,1,.05076-.13612.3183.3183,0,0,1,.08948-.12315C3.46354,3.065,3.447,3.04494,3.43335,3.05441Z" /><path d="M4.05525,5.35036a.70017.70017,0,0,0-.13718-.17756.03081.03081,0,0,0-.01664-.01627c-.021-.02025-.04247-.04-.06369-.05951a3.53407,3.53407,0,0,0-.28556-.23968c-.05-.037-.10169-.0716-.15445-.10455-.02341-.01462-.04755-.02782-.07219-.04028A.87863.87863,0,0,1,3.23061,4.666c-.01367-.00911-.02846.01153-.0148.02091a1.60768,1.60768,0,0,1,.12857.11976c.044.03813.08857.07574.13317.11313.07705.06461.15384.12924.22908.19587-.05025-.00979-.10059-.019-.1505-.0305a2.93183,2.93183,0,0,1-.33154-.09675c-.10887-.039-.21443-.08569-.319-.135-.1049-.04947-.21238-.093-.31639-.14463-.0142-.007-.02217.01384-.012.02278a1.5362,1.5362,0,0,0,.29444.21321c.05453.02872.11029.055.16693.07918.02747.08186.07143.15848.1043.238a1.81413,1.81413,0,0,1,.09473.29643c.02294.10249.03887.20646.06376.30853a1.5374,1.5374,0,0,0,.11008.29363c.03275.06961.07835.22726-.03618.24541a.01175.01175,0,0,0,.00066.0232.17035.17035,0,0,0,.1608-.14292.29193.29193,0,0,0-.03586-.159c-.02363-.05149-.05-.10109-.06939-.15449a2.31621,2.31621,0,0,1-.08191-.34006A2.04118,2.04118,0,0,0,3.25471,5.291a1.10726,1.10726,0,0,0-.11069-.2247l.05089.0187a2.765,2.765,0,0,0,.33978.09714c.05724.01241.11507.02432.17327.0312.03186.00377.06614.00816.10023.01019l.00959.01465a.30139.30139,0,0,1,.02109.04986.96745.96745,0,0,1,.02929.111c.0215.09612.03889.19313.05354.29052.01433.0953.02591.191.03865.28651.00636.04768.01378.09542.02327.14259.01029.05118.02812.10234.035.15392.00227.01713.027.01247.026-.00411-.00314-.0543.00545-.11011.00468-.16468-.00072-.05138-.003-.10267-.00786-.15384q-.01449-.1539-.03913-.30638c-.01547-.09581-.03252-.19217-.05632-.28635l.01627.01893A.41735.41735,0,0,1,4.04258,5.5a.54758.54758,0,0,1,.02957.1488c.00173.02764.03985.02165.04473-.00128A.46077.46077,0,0,0,4.05525,5.35036Z" /><path d="M4.2969,5.76717a.35063.35063,0,0,1-.078-.15634.78841.78841,0,0,0-.06721-.19247c-.00655-.012-.0275-.008-.02436.00718.02723.13142-.0062.3041.11788.397A.03838.03838,0,0,0,4.2969,5.76717Z" /><path d="M4.418,5.841c-.01764-.05938-.037-.11919-.05733-.17781a.64232.64232,0,0,0-.07585-.17457.01646.01646,0,0,0-.02884.0087.671.671,0,0,0,.04008.2058c.00954.03314.01878.0664.02892.09936a.13637.13637,0,0,0,.04211.08017C4.39714,5.90382,4.427,5.87118,4.418,5.841Z" /><path d="M4.48566,5.19266a.18193.18193,0,0,0,.06845-.11056c.00105-.01265-.01781-.02188-.02486-.0093-.02469.044-.07417.06469-.1123.09523a.17958.17958,0,0,0-.05814.1638c.00355.07779.0105.15558.01615.23325a.59613.59613,0,0,0,.042.22593.02618.02618,0,0,0,.04958-.01462c-.01494-.14564-.02074-.29168-.03054-.43774a.17554.17554,0,0,1,.007-.0916A.22753.22753,0,0,1,4.48566,5.19266Z" /><path d="M3.75844,3.38017A.203.203,0,0,0,3.68708,3.46a.69038.69038,0,0,0-.0524.108,1.44651,1.44651,0,0,0-.063.24031c-.01668.08761-.034.175-.05545.26161a1.26531,1.26531,0,0,0-.06136.27047.03612.03612,0,0,0,.06487.02426A.73991.73991,0,0,0,3.61138,4.112c.02163-.08612.03931-.17292.0547-.26035.01364-.07749.02507-.15558.0429-.23227a1.1829,1.1829,0,0,1,.03312-.118.46746.46746,0,0,0,.03557-.10735A.01386.01386,0,0,0,3.75844,3.38017Z" /><path d="M4.95177,4.70169a.45936.45936,0,0,0-.189-.186A2.04823,2.04823,0,0,0,4.46554,4.426,1.16684,1.16684,0,0,1,4.30927,4.357c-.02432-.01234-.04868-.02458-.07282-.03727a.28614.28614,0,0,0-.05456-.01721c.01832-.09314.04-.18563.05616-.27908A.211.211,0,0,1,4.269,3.9323c.01961-.02552.05327-.03494.07445-.06123a.511.511,0,0,0,.0838-.15127,1.14728,1.14728,0,0,0,.04045-.17775A.8344.8344,0,0,1,4.506,3.35477c.0062-.01425-.01643-.02265-.02263-.00842-.01241.02853-.02919.05452-.04066.08358-.01137.02878-.021.05795-.03.08752a1.28407,1.28407,0,0,1-.05742.16331.59893.59893,0,0,1-.04574.08092.552.552,0,0,0-.05093.07744.125.125,0,0,0-.00995.04078.11408.11408,0,0,1-.01937.05124c-.01426.02255-.0305.04483-.04625.06633a.78736.78736,0,0,0-.10181.32263c-.01066.05628-.02009.1129-.03312.1687-.00987.04231-.025.08318-.03764.12461a.65839.65839,0,0,1-.07685-.01014.97357.97357,0,0,1-.14372-.03951l-.01908-.00716a.75828.75828,0,0,0-.06525-.06152c-.02828-.02338-.07492-.06635-.11352-.06479a.01039.01039,0,0,0-.01034.01247.12916.12916,0,0,0,.03275.0495l.02061.02523L3.6367,4.526a.47824.47824,0,0,0,.0441.05111l.011.00928c.02181.02691.04316.05415.06363.08217.06058.08293.11724.16853.17648.25241a1.07721,1.07721,0,0,0,.197.23038c.08789.06951.18079.01489.269-.02109.013-.0053.00863-.02369-.00263-.02769-.04986-.01771-.08769.0163-.13553.02044-.04051.0035-.08088-.04711-.10462-.07462-.06278-.07274-.12025-.14919-.17642-.22709-.03358-.04658-.06684-.09367-.1018-.13939a.663.663,0,0,0,.1408.02609.03537.03537,0,0,0,.03912.00238c.03636.00142.07292.00083.1095-.00083a.91682.91682,0,0,1,.28921.01135.41034.41034,0,0,1,.19589.12138.01886.01886,0,0,0,.03294-.01476.23416.23416,0,0,0-.14726-.17557.58573.58573,0,0,0-.28295-.042c-.04837.0018-.09651.00483-.14455.00575.0096-.02756.01707-.056.02418-.08324.01466-.05625.02662-.11331.0369-.17052a.2187.2187,0,0,0,.02894.02746.61677.61677,0,0,0,.0766.05532.80716.80716,0,0,0,.16121.07381,1.16348,1.16348,0,0,1,.323.10859.39009.39009,0,0,1,.152.243.54546.54546,0,0,1,.00266.17192.80373.80373,0,0,1-.03626.18375c-.00829.02207.0241.04049.0373.01971a.725.725,0,0,0,.07144-.12771.44377.44377,0,0,0,.02781-.147A.52329.52329,0,0,0,4.95177,4.70169Z" /><path d="M3.0147,3.30139c-.01975-.06023-.05334-.11541-.0772-.17411-.0052-.01279-.02721-.00686-.02366.007a1.06912,1.06912,0,0,1,.02437.157,1.24079,1.24079,0,0,1,.01419.16614.76229.76229,0,0,1-.08929.29478c-.09279.19969-.195.39486-.28857.59417A.88414.88414,0,0,0,2.513,4.5111a.272.272,0,0,0-.00386.1657.036.036,0,0,0,.066-.002c.01254-.04959.0098-.10125.02327-.151a.98068.98068,0,0,1,.053-.14232c.04573-.10253.09523-.2035.143-.30507.0476-.10112.09553-.20213.14505-.30232a.7597.7597,0,0,0,.09618-.29566A.49807.49807,0,0,0,3.0147,3.30139Z" /><path d="M3.32025,6.45221a.61821.61821,0,0,0-.264.16454.70129.70129,0,0,0-.1457.28115,1.344,1.344,0,0,1-.23375.5669c-.03515.03756-.077.06807-.11156.10626-.02966.03273-.065.08968-.04.13383a.02555.02555,0,0,0,.04351.00435.385.385,0,0,0,.02779-.04815.26184.26184,0,0,1,.04129-.04856c.03271-.03107.06894-.058.10021-.09063a.80274.80274,0,0,0,.15567-.24623,3.57859,3.57859,0,0,1,.19515-.56022,1.19162,1.19162,0,0,1,.2445-.24193A.01269.01269,0,0,0,3.32025,6.45221Z" /><path d="M3.32531,8.07591a1.0462,1.0462,0,0,1-.11861.015.29172.29172,0,0,1-.11176-.0242c-.07433-.03209-.12155-.10314-.19052-.14356a1.14884,1.14884,0,0,0-.19456-.07056.26883.26883,0,0,1-.08517-.04579c-.02485-.02185-.04128-.053-.07664-.05851a.01529.01529,0,0,0-.01541.02127.48208.48208,0,0,0,.05574.09547.23242.23242,0,0,0,.08984.0595.79511.79511,0,0,1,.2139.0898.61374.61374,0,0,0,.20849.142.27415.27415,0,0,0,.24658-.03166A.028.028,0,0,0,3.32531,8.07591Z" /><path d="M4.01193,6.37978a3.55447,3.55447,0,0,1-.49516.48936,2.61141,2.61141,0,0,0-.50048.55994.87057.87057,0,0,0-.09968.18321.17627.17627,0,0,0,.01421.18077.01237.01237,0,0,0,.02159-.00967.2916.2916,0,0,1,.04433-.17445c.03044-.05221.065-.10264.0996-.15216a2.556,2.556,0,0,1,.23547-.28825c.15721-.16668.34429-.30009.50732-.46046a.788.788,0,0,0,.20752-.30994A.01989.01989,0,0,0,4.01193,6.37978Z" /><path d="M3.27094,7.80129c-.03649-.02124-.07417-.04048-.111-.06119a.29291.29291,0,0,1-.11082-.086c-.00749-.01169-.02834.001-.021.01291a.4419.4419,0,0,0,.0704.09349.667.667,0,0,0,.10392.07568.68256.68256,0,0,1,.09945.07243c.0299.02794.0446.06711.07511.0935.01591.01376.03767-.00128.0407-.01855C3.43123,7.90663,3.3276,7.83427,3.27094,7.80129Z" /><path d="M3.86341,2.64193a.03007.03007,0,0,0-.04506.01391c-.01.02507-.00835.05278-.0199.07728a.1966.1966,0,0,1-.06421.06783c-.02748.02086-.05631.03989-.08285.062-.03031.02525-.05566.05532-.08595.08065a.01046.01046,0,0,0,.01081.01758c.04351-.02022.08952-.03268.13231-.05477a.59971.59971,0,0,0,.112-.06878C3.8706,2.79549,3.93451,2.69463,3.86341,2.64193Z" /><path d="M4.43223,2.92832c-.04164.07328-.14658.04745-.21257.02606a.40194.40194,0,0,1-.094-.04559c-.02942-.019-.05465-.04481-.08469-.06241-.00588-.00345-.01507.00055-.01342.00834A.27977.27977,0,0,0,4.209,3.023a.2355.2355,0,0,0-.01012.05686.24264.24264,0,0,0,.0039.06545.30206.30206,0,0,0,.02912.068.01046.01046,0,0,0,.01981-.00584.431.431,0,0,1,.01888-.12263c.00361-.01415.01014-.0291.015-.04416a.149.149,0,0,0,.17328-.09824C4.46351,2.927,4.44126,2.91243,4.43223,2.92832Z" /><path d="M4.69481,4.28459c-.01852-.06133-.03866-.12223-.05469-.18428a1.19613,1.19613,0,0,1-.04081-.377c.00807-.12574.03319-.25028.03234-.37657a.56344.56344,0,0,0-.02147-.16612.55226.55226,0,0,0-.08-.15176c-.00736-.01047-.02375.0003-.01882.01157a.49659.49659,0,0,1,.03352.171,1.41415,1.41415,0,0,1,.00245.17272c-.00762.1277-.032.25409-.0346.38211a1.29911,1.29911,0,0,0,.05118.3715,1.682,1.682,0,0,0,.05883.1787.55441.55441,0,0,0,.08375.16188c.00912.01042.03119.00679.03111-.00939A.668.668,0,0,0,4.69481,4.28459Z" /><path d="M5.63789,7.66616c-.03069-.04477-.0686-.08475-.10093-.12866a1.04082,1.04082,0,0,1-.08653-.14927,2.04438,2.04438,0,0,1-.1167-.32421,1.25653,1.25653,0,0,0-.11317-.31415.25763.25763,0,0,0-.22647-.133c-.01454.00086-.01392.02115-.00261.02607a.31491.31491,0,0,1,.14945.13694c-.01659-.00062-.0328.00154-.05015.001a.26437.26437,0,0,1-.0732-.013.29128.29128,0,0,1-.12428-.0808,1.439,1.439,0,0,1-.14274-.26265.717.717,0,0,0-.09928-.11968,1.20037,1.20037,0,0,1-.09463-.1195,1.52493,1.52493,0,0,1-.14777-.27993.01194.01194,0,0,0-.02261.00667.73308.73308,0,0,0,.098.30467c-.03044.07179-.04725.14983-.07081.224a2.43818,2.43818,0,0,1-.09557.25311c-.03634.08164-.08235.15909-.116.24188-.0267.06577-.06379.17959-.00523.238a.02841.02841,0,0,0,.04806-.008,1.10154,1.10154,0,0,0,.0151-.11974.5345.5345,0,0,1,.04315-.1179c.03765-.07931.0801-.15553.11343-.23694a1.669,1.669,0,0,0,.07982-.2458.97529.97529,0,0,0,.02841-.16451.88548.88548,0,0,0,.06517.08157.56119.56119,0,0,1,.10709.14253l.00279.00617c-.034.07148-.06474.144-.09393.21771a.39585.39585,0,0,0-.04557.21847.02658.02658,0,0,0,.05248-.0015A.79258.79258,0,0,1,4.692,6.73973c.019-.04254.03735-.085.05495-.12786a.5598.5598,0,0,0,.12369.17031.333.333,0,0,0,.14193.07636.18827.18827,0,0,0,.15928-.01582c.04351.10439.06327.2259.10664.32466.04435.101.09253.20163.14452.29891.02564.048.05032.09778.07851.14423a.1985.1985,0,0,0,.10611.098A.02723.02723,0,0,0,5.63789,7.66616Z" /><path d="M5.1145,7.11046c-.02617-.01316-.05836.00225-.08557.0056a.51282.51282,0,0,1-.09429.00071,1.96116,1.96116,0,0,0-.2127-.00345.99481.99481,0,0,0-.41072.08874.00973.00973,0,0,0,.00543.01841c.149-.00524.2965-.031.446-.02972.07042.00059.14048.00744.2108.00855.05.00079.14566.00095.15753-.06239A.026.026,0,0,0,5.1145,7.11046Z" /><path d="M4.92442,6.94307C4.8867,6.93258,4.848,6.9247,4.8095,6.91794a.44424.44424,0,0,1-.12743-.03214c-.01156-.006-.01927.01186-.01016.01923a.40716.40716,0,0,0,.09206.062c.03578.01566.0733.02558.11035.03757a.50105.50105,0,0,1,.09449.03886c.02789.016.05384.05062.0876.05191a.02617.02617,0,0,0,.02771-.02268C5.09828,7.00211,4.975,6.95712,4.92442,6.94307Z" /><path d="M7.18935,7.67467a.95378.95378,0,0,0-.19027-.07632,1.13126,1.13126,0,0,0-.17943-.04885,1.15333,1.15333,0,0,0-.19892.01.99423.99423,0,0,1-.193-.01147A1.70968,1.70968,0,0,1,6.07,7.42864a.66553.66553,0,0,0-.1734-.0466.2977.2977,0,0,0-.10248.00478c-.01178-.03485-.02576-.06887-.03364-.09934-.024-.09288-.03733-.18753-.05488-.2817a1.18726,1.18726,0,0,0-.06835-.24332.57881.57881,0,0,0-.0576-.1033.82164.82164,0,0,0-.086-.0917c-.01-.01069-.02747.00312-.01783.01459a.404.404,0,0,1,.0548.10725,1.04924,1.04924,0,0,1,.03774.1097,2.05425,2.05425,0,0,1,.0491.24012,2.43079,2.43079,0,0,0,.05028.25661c.01163.04132.02574.0816.04044.1219a1.03028,1.03028,0,0,0,.04085.1204.031.031,0,0,0,.05678-.00172.15889.15889,0,0,0,.00532-.08637.59473.59473,0,0,1,.08988.01316,1.119,1.119,0,0,1,.1654.06122,1.44155,1.44155,0,0,0,.35184.11849.95654.95654,0,0,0,.186.01108c.06293-.00217.12576-.01949.18839-.01859a.66824.66824,0,0,1,.18241.04633.92919.92919,0,0,0,.19519.04392C7.19628,7.7279,7.215,7.689,7.18935,7.67467Z" /><path d="M7.1174,7.76978a1.02832,1.02832,0,0,1-.3433-.01944,2.6607,2.6607,0,0,0-.35332-.03045c-.12133-.00458-.24268-.00948-.36406-.01255a2.56815,2.56815,0,0,0-.36344.01871c-.01356.00157-.0113.02017.00064.02247a2.50631,2.50631,0,0,0,.36734.04622q.18852.00825.37707.01537c.11983.00453.23959.00881.35849.025A.53206.53206,0,0,0,7.12954,7.811.02174.02174,0,0,0,7.1174,7.76978Z" /><path d="M7.49687,7.53787A.77488.77488,0,0,0,7.027,7.35655a.3184.3184,0,0,1-.205-.087.48814.48814,0,0,1-.07562-.22681,1.32054,1.32054,0,0,0-.2131-.50751.5608.5608,0,0,0-.39246-.25348.46123.46123,0,0,0-.24368.0471.41838.41838,0,0,0-.07745.05043.94844.94844,0,0,0-.36035-.39589,1.88346,1.88346,0,0,1-.41053-.38489.90214.90214,0,0,1-.079-.12812c-.01038-.02163-.02019-.04337-.02866-.06583a.33553.33553,0,0,1-.02684-.08417c-.001-.01363-.02189-.0102-.02094.00331.0016.0226-.00365.04615-.00261.06926a.43548.43548,0,0,0,.00861.06638.6134.6134,0,0,0,.04452.13027A.821.821,0,0,0,5.111,5.817c.13558.13863.299.24449.44329.37324.07985.07126.14888.15286.22571.227a.26485.26485,0,0,0-.05479.09052.02237.02237,0,0,0,.03486.02491A.66566.66566,0,0,1,5.93472,6.414a.40136.40136,0,0,1,.19589-.031.49184.49184,0,0,1,.34255.24817,1.42615,1.42615,0,0,1,.18521.47793.49856.49856,0,0,0,.08472.21182.34082.34082,0,0,0,.1997.11041c.084.01839.17055.02085.255.03651a.8172.8172,0,0,1,.271.1C7.48747,7.579,7.51438,7.55569,7.49687,7.53787Z" /><path d="M6.09059,6.54831a.10637.10637,0,0,0-.03131-.0447A.12462.12462,0,0,0,5.94872,6.476a.175.175,0,0,0-.09932.06479A.16087.16087,0,0,0,5.821,6.5932a.14763.14763,0,0,0,.0018.0604c.00114.01434.02315.01074.022-.00348-.0019-.024.02976-.05621.0466-.07008a.163.163,0,0,1,.06225-.03428.06.06,0,0,1,.05881.014.3706.3706,0,0,1,.0249.03557l.00025.00117a.0233.0233,0,0,0,.0445.00445C6.08949,6.58152,6.09783,6.57064,6.09059,6.54831Z" /><path d="M5.93056,7.13565c-.07578.0207-.096-.0965-.10483-.14711-.00617-.03535-.00965-.07116-.01287-.10689-.00278-.03081.00414-.07151-.016-.097a.011.011,0,0,0-.01517-.00152c-.03356.02522-.03187.09375-.032.13174a.57761.57761,0,0,0,.023.15683.15379.15379,0,0,0,.06993.10481.08827.08827,0,0,0,.10228-.00895C5.95714,7.15672,5.94913,7.13058,5.93056,7.13565Z" /><path d="M6.92134,7.467a.48636.48636,0,0,1-.327-.10685.37813.37813,0,0,1-.08072-.31954.48915.48915,0,0,0-.05321-.29305A.228.228,0,0,0,6.4145,6.695a.097.097,0,0,0-.01785-.02282.02983.02983,0,0,0-.02943-.007l-.0139-.0058A.457.457,0,0,0,6.26188,6.641c-.02624-.00385-.07732-.01309-.08544-.0439a.01189.01189,0,0,0-.02348.00371.11757.11757,0,0,0,.05339.0951c.04137.02576.09434.02457.13423.05275a.14815.14815,0,0,1,.02221.01939.31042.31042,0,0,1-.00908.0809.45188.45188,0,0,1-.0182.06609c-.0108.0274-.0338.03756-.05848.05032a.50628.50628,0,0,0-.055.03256.27871.27871,0,0,1-.02807-.07621.011.011,0,0,0-.02174.00062A.224.224,0,0,0,6.18,7.03291a.11291.11291,0,0,0-.03259.1219.01014.01014,0,0,0,.0186-.00056.13539.13539,0,0,1,.0453-.07118.14471.14471,0,0,0,.02193.0186c.01645.01133.04184-.00671.03175-.026L6.2533,7.0543l.01229-.00682c.04368-.02344.09876-.04048.12408-.08651A.29706.29706,0,0,0,6.41648,6.885a.44044.44044,0,0,1,.00722.06724,1.3875,1.3875,0,0,0,.00712.29724.328.328,0,0,0,.16719.20795.49827.49827,0,0,0,.3241.03677C6.93693,7.4916,6.93743,7.46746,6.92134,7.467Z" /><path d="M6.04868,7.08815c-.00825-.01094-.01968-.01908-.02808-.03006a.35382.35382,0,0,1-.02076-.03285c-.00916-.01514-.03679-.016-.03781.006a.11433.11433,0,0,0,.04894.09731.02835.02835,0,0,0,.03634-.00392A.02806.02806,0,0,0,6.04868,7.08815Z" /><path d="M4.548,2.02936a.47075.47075,0,0,0-.24134-.18186.42379.42379,0,0,0-.4939.19033.40147.40147,0,0,0-.04179.1925.77837.77837,0,0,0,.03167.168c-.03517.06066.02317.1685.07363.20212a.02444.02444,0,0,0,.03615-.02957c-.00742-.02088-.018-.04046-.025-.06155-.00348-.01054-.02039-.05991-.01436-.06882.01542-.02281.077.00756.08779.02527.01017.01665.03892.01211.03522-.01038a.11271.11271,0,0,0-.16247-.08578A.87652.87652,0,0,1,3.83984,2.272.61953.61953,0,0,1,3.87,2.1199a.29615.29615,0,0,1,.1562-.16687.34673.34673,0,0,1,.34118.02988.36522.36522,0,0,0-.08665-.00828.43382.43382,0,0,0-.20911.05766.25036.25036,0,0,0-.11679.14568.01263.01263,0,0,0,.02366.0088.22647.22647,0,0,1,.12964-.09732A.46311.46311,0,0,1,4.285,2.05118a.36487.36487,0,0,1,.15693.03742.2219.2219,0,0,1,.06018.04283l.00068.00073c.00957.01527.01865.03073.02722.046a.41521.41521,0,0,1,.03619.09314l-.00431-.001c-.05943-.00578-.09516.04565-.12738.08686-.04243.05427-.12537-.00449-.17428-.01983a.17951.17951,0,0,0-.17858.02966.14423.14423,0,0,0-.04594.07491A.211.211,0,0,0,4.04509,2.53a.01226.01226,0,0,0,.02421-.00383.12746.12746,0,0,1,.04361-.08131.11493.11493,0,0,1,.0602-.03031c.05509-.00974.10727.03113.15865.0447a.162.162,0,0,0,.14987-.023.1549.1549,0,0,0,.044-.0658c.0095-.02546.01449-.05348.0418-.06542l.00655-.005.00449.01691a.02322.02322,0,0,0,.04583-.00131A.45426.45426,0,0,0,4.548,2.02936Z" /><path d="M4.34942,2.6313a.35742.35742,0,0,0-.09265.00133.899.899,0,0,0-.09333.02577.00917.00917,0,0,0,.00052.01809.90455.90455,0,0,0,.09471.02229.35651.35651,0,0,0,.09262-.00231A.033.033,0,0,0,4.34942,2.6313Z" /><path d="M4.58888,2.47849a.01728.01728,0,0,0-.03074-.00719.21638.21638,0,0,0-.02932.08623c-.00682.02786-.0434.03677-.0679.04789-.01413.00642-.0121.03124.005.03148a.26637.26637,0,0,0,.03645-.00165l-.029.008A.01355.01355,0,0,0,4.47761,2.67a.22966.22966,0,0,0,.06525-.0194.01414.01414,0,0,0-.00193-.02626.06525.06525,0,0,0,.02585-.023.16131.16131,0,0,0,.01652-.05457A.15984.15984,0,0,0,4.58888,2.47849Z" /><path d="M4.48046,2.70748a.01515.01515,0,0,0-.02781.00084.30815.30815,0,0,0-.00619.03442.30108.30108,0,0,1-.00493.04184c-.0039.0129-.02676.02075-.03915.02629a.01061.01061,0,0,0,.00858.01938c.01238-.00464.03046.00608.04422.00344a.04254.04254,0,0,0,.02934-.02336A.15468.15468,0,0,0,4.48046,2.70748Z" /><path d="M4.4646,2.85545a.13183.13183,0,0,0-.0552.01986c-.01841.00821-.03911.00823-.05786.01575a.0109.0109,0,0,0,.0006.02.135.135,0,0,0,.065.00329.08288.08288,0,0,0,.06347-.02367A.02249.02249,0,0,0,4.4646,2.85545Z" /><path d="M4.30826,2.71441a.12567.12567,0,0,0-.04751-.001l-.053.004c-.01623.00126-.013.02369.00076.02649a.16548.16548,0,0,0,.10062-.00133C4.31981,2.7369,4.322,2.71836,4.30826,2.71441Z" /><path d="M4.178,3.52245a.01252.01252,0,0,0-.02375.0038c-.0011.03725-.00319.07439-.00721.11144a.65388.65388,0,0,0-.00878.10587c.0013.02512.03507.02245.04379.00438A.31875.31875,0,0,0,4.178,3.52245Z" /></svg>