<svg xmlns="http://www.w3.org/2000/svg" data-name="Layer 1" viewBox="2.2260113630248357 3.25326 5.551908846762516 3.4941770704258213" x="0px" y="0px"><title>KAMASUTRA</title><path d="M3.89057,4.513A.58223.58223,0,0,1,3.975,4.32861c.00866-.01018-.00835-.02218-.017-.012a.78669.78669,0,0,0-.11989.15206A.748.748,0,0,0,3.77878,4.64a1.29206,1.29206,0,0,0-.01184.43347c-.047-.00492-.09533-.00473-.14206-.00736-.065-.00365-.12991-.00761-.19489-.01074A1.25844,1.25844,0,0,1,3.25384,5.041a.513.513,0,0,1-.151-.06311c-.00651-.00356-.01711.00044-.015.00935.02691.1163.18121.13626.2791.14518.07379.00673.14766.01252.22152.01844.0625.005.12647.014.18956.01432.01376.11031.02947.22043.045.33051-.01863-.0088-.03768-.01667-.056-.02453a1.30323,1.30323,0,0,0-.17208-.06133.92878.92878,0,0,0-.16348-.03c-.062-.0054-.12143-.00185-.18331-.00238a.01333.01333,0,0,0-.00265.0265,1.77363,1.77363,0,0,1,.329.08575c.04981.01594.09894.03327.147.05386.03853.01649.07623.03915.11587.05385.00787.05542.016.11063.02507.16556a.63214.63214,0,0,0-.07923-.04223,1.1952,1.1952,0,0,0-.2374-.073c-.1603-.03716-.31842-.07806-.38972-.24221a.02482.02482,0,0,0-.047.01386c.02777.15259.1786.2391.31136.28919.08348.03149.17224.04622.25655.07522a.58347.58347,0,0,1,.115.05192.43684.43684,0,0,0,.09449.05936c.00936.04658.01963.09306.03145.13946.00715.028.05611.0325.0553-.00158a8.24322,8.24322,0,0,0-.10177-.89635,1.84655,1.84655,0,0,1-.01993-.44217A.83.83,0,0,1,3.89057,4.513Z" /><path d="M3.08344,5.353a.2139.2139,0,0,0-.21507-.01179.77139.77139,0,0,0-.247.00271.85768.85768,0,0,0-.26536.05616.01262.01262,0,0,0,.00382.02392c.08694.00864.17638-.00358.26376-.00234q.05274.00075.10553.00243a.94651.94651,0,0,1-.15884.09838.81235.81235,0,0,0-.26138.12647.21945.21945,0,0,0-.07967.20923.01338.01338,0,0,0,.02641-.00075c.02323-.17769.24478-.20042.37618-.2595.143-.0643.26091-.22938.433-.19489C3.09213,5.40855,3.10562,5.36749,3.08344,5.353Z" /><path d="M4.20691,6.42278c-.04513-.00669-.08946-.00315-.13437-.01374a.76447.76447,0,0,1-.12622-.04083,1.08116,1.08116,0,0,1-.23323-.143,3.11862,3.11862,0,0,0-.42724-.3192,1.04727,1.04727,0,0,0-.474-.12356,1.00311,1.00311,0,0,0-.47725.08839.01551.01551,0,0,0,.00866.02937c.08331-.01392.16333-.03581.24811-.04234a1.064,1.064,0,0,1,.259.0159,1.21955,1.21955,0,0,1,.45921.17468c.14989.09731.27381.22874.42255.32758a.7992.7992,0,0,0,.24086.11234.40332.40332,0,0,0,.24456.00083A.03505.03505,0,0,0,4.20691,6.42278Z" /><path d="M3.01287,4.9107a.16571.16571,0,0,0-.195.04084,1.00941,1.00941,0,0,1-.08456.07429.47128.47128,0,0,1-.12039.05333.699.699,0,0,0-.20349.083.26094.26094,0,0,0-.09648.15856c-.00244.01172.01528.01465.01959.00454a.24249.24249,0,0,1,.14128-.11132A1.55618,1.55618,0,0,1,2.655,5.15452a.4602.4602,0,0,0,.16491-.0861c.05373-.04643.09059-.09533.16777-.09041A.03745.03745,0,0,0,3.01287,4.9107Z" /><path d="M4.22211,3.94388c-.09326.01777-.086.12758-.09844.19955a.106.106,0,0,1-.03827.07577c-.02358.01658-.03619.00689-.0585-.00721-.02725-.01723-.05673-.03953-.08908-.02279a.01724.01724,0,0,0,.001.03153c.07018.02512.14763.11344.21884.04359a.15623.15623,0,0,0,.0412-.123c-.00411-.06123-.02455-.13034.03423-.173A.014.014,0,0,0,4.22211,3.94388Z" /><path d="M4.91812,5.32064A.6761.6761,0,0,0,4.765,5.07039c-.07284-.08423-.14777-.1667-.22183-.24986s-.14781-.16675-.22382-.24824c-.03715-.03984-.07312-.08139-.11329-.11823-.04717-.04326-.10162-.07955-.1464-.12531-.01133-.01158-.0303.00317-.0198.0162.03595.04457.06354.09619.09569.14355a1.52329,1.52329,0,0,0,.10167.12633c.074.08742.15015.17294.22619.25862.07216.0813.145.16206.21627.24412a2.75988,2.75988,0,0,0,.20185.22581A.02359.02359,0,0,0,4.91812,5.32064Z" /><path d="M5.0614,6.56352a.28656.28656,0,0,0-.17511-.19164.98445.98445,0,0,1-.25966-.124.30189.30189,0,0,1-.07121-.10887L4.54731,6.117c.00679-.03129.01176-.06315.01591-.095a.42049.42049,0,0,0,.06029.08443.45234.45234,0,0,0,.10027.081c.03235.01943.08287.03346.10495.06451a.02308.02308,0,0,0,.04043-.0122c.00693-.08993-.08072-.11645-.13963-.16153a.662.662,0,0,1-.12342-.13246.95813.95813,0,0,0,.07987.05786,2.38466,2.38466,0,0,1,.21006.12067.40281.40281,0,0,0,.01106.122c.01655.05882.05917.12448.12763.11759a.02041.02041,0,0,0,.01248-.03276.22031.22031,0,0,1-.04653-.08778.5333.5333,0,0,1-.002-.11236c.00288-.08441.005-.169.00293-.25345-.002-.08128-.01224-.161-.02216-.24157a.9035.9035,0,0,0-.04537-.23548.01023.01023,0,0,0-.01936.0031.72357.72357,0,0,0-.00733.14186L4.8932,5.53755a.17005.17005,0,0,0-.11328-.01605c-.01246.00177-.01588.02223-.00256.02564a.322.322,0,0,1,.08889.04143.30252.30252,0,0,1,.04354.04071c.00035.01866.0004.03725-.00025.05569-.00343.09786-.0034.19569-.00506.29359-.00049.02907-.003.05966-.00529.09065a.33685.33685,0,0,0-.0313-.03946c-.03158-.03343-.06883-.06243-.10356-.0925-.03527-.03053-.07143-.06-.10572-.09159a.21931.21931,0,0,0-.07038-.0505l.02459-.22826.01853-.01063.01326-.00669a.29267.29267,0,0,0,.00413.07934.03068.03068,0,0,0,.06055-.00173.865.865,0,0,0-.0167-.23577c-.00115-.01578-.02632-.01472-.02746.00078-.00234.03191-.00813.064-.01312.096a.1744.1744,0,0,0-.03085.00149c.007-.064.01426-.128.0202-.19208a.67855.67855,0,0,0,.00148-.20035A.03293.03293,0,0,0,4.58,5.091a.61926.61926,0,0,0-.03878.1774c-.00788.06326-.01443.12666-.02126.19l-.042.38974a2.25375,2.25375,0,0,1-.04419.30485,1.002,1.002,0,0,1-.03813.13321.53.53,0,0,1-.08165.11959.01664.01664,0,0,0,.02015.02462.35563.35563,0,0,0,.16357-.17067.38184.38184,0,0,0,.16128.13891,1.43256,1.43256,0,0,1,.23984.10906c.06081.04514.11145.13889.05312.20636-.01353.01565.00782.04065.02565.03135A.16617.16617,0,0,0,5.0614,6.56352Z" /><path d="M5.88416,6.338a1.4507,1.4507,0,0,0-.17842.02055c-.05885.00661-.118.01151-.17715.01528-.05876.00375-.11778.00667-.17663.00885a1.33144,1.33144,0,0,1-.19857.00555.01386.01386,0,0,0-.00276.02756c.06231.00713.12238.02746.18474.035a1.48638,1.48638,0,0,0,.19571.01048c.06018-.00063.12-.00384.17984-.00995a.7476.7476,0,0,0,.18627-.03178A.043.043,0,0,0,5.88416,6.338Z" /><path d="M4.30661,3.97122a.0163.0163,0,0,0-.03219.00092c-.00509.0501-.03327.10928-.00839.1581a.02721.02721,0,0,0,.04968-.00151C4.34,4.08075,4.31158,4.02032,4.30661,3.97122Z" /><path d="M4.43155,4.06653A.18268.18268,0,0,0,4.40828,3.987a.00779.00779,0,0,0-.01234.00043.18231.18231,0,0,0-.01844.08067.25612.25612,0,0,0,.0042.09279.02786.02786,0,0,0,.05116-.00155A.2558.2558,0,0,0,4.43155,4.06653Z" /><path d="M5.02181,4.85482c-.09079-.06466-.18739-.11934-.27347-.1907-.048-.03982-.09484-.08144-.14017-.12429-.021-.01981-.0415-.04-.062-.06033-.01833-.01818-.05559-.04409-.0577-.07039-.00206-.02574.02211-.06.02951-.08525a.43642.43642,0,0,0,.01467-.07A.27805.27805,0,0,0,4.51331,4.102a.01609.01609,0,0,0-.03049.00488.62713.62713,0,0,1-.01919.17975c-.01556.04687-.05634.09115-.04589.14318.00979.04875.06173.088.09424.1221.04215.04425.08444.08847.12921.1301a1.97635,1.97635,0,0,0,.27046.20051,1.09713,1.09713,0,0,1,.12995.09545.72118.72118,0,0,0,.11082.10646c.01441.00811.0382.00272.03845-.01752C5.192,4.9747,5.0898,4.90325,5.02181,4.85482Z" /><path d="M5.96659,3.90686A.01321.01321,0,0,0,5.944,3.9046a.955.955,0,0,0-.06092.14865.98633.98633,0,0,1-.09773.15214,1.805,1.805,0,0,0-.206.31162,1.69581,1.69581,0,0,0-.09414.27782.3123.3123,0,0,1-.191-.14763.8006.8006,0,0,0-.17733-.192,1.24943,1.24943,0,0,0-.22328-.12014c-.0494-.02146-.09883-.04279-.14794-.0649s-.10131-.0372-.14959-.06048c-.01155-.00557-.02209.0139-.01063.02011.047.02547.08977.05893.13625.08571.04933.02842.09817.05765.14713.08671a1.10165,1.10165,0,0,1,.23608.15861c.11271.11465.17982.30993.35944.31543l-.00813.0323a.3982.3982,0,0,0,.02638.35832.022.022,0,0,0,.0384-.0172.84379.84379,0,0,1,.04-.38263,1.598,1.598,0,0,1,.14718-.37492c.05776-.1.13028-.19059.18587-.29192a.74286.74286,0,0,0,.06578-.1491A.20584.20584,0,0,0,5.96659,3.90686Z" /><path d="M6.108,6.48207a.79337.79337,0,0,1-.15353-.26646c-.05149-.0993-.105-.19755-.15609-.29705-.047-.09145-.09339-.18331-.13637-.27671l-.03405-.07522-.00364-.0154A.171.171,0,0,0,5.6,5.50379l-.00269-.00605a1.3151,1.3151,0,0,1-.06722-.15116c-.00444-.01478-.02882-.00729-.02584.00762.00448.02246.00746.04509.01034.06773-.02027-.01624-.041-.03188-.06092-.04731-.04343-.03359-.0893-.065-.13-.10185-.02523-.02286-.04519-.057-.07646-.06917q-.01264-.02945-.027-.058a.01338.01338,0,0,0-.02534.00747c.01542.176.05757.35015.08263.52529.01216.08494.02386.16989.03236.2553a.35754.35754,0,0,0,.07864.21645.01557.01557,0,0,0,.0272-.01219c-.01108-.07812-.00571-.15866-.014-.23736-.00727-.069-.016-.13787-.02707-.20637a.3154.3154,0,0,1,.10046-.02857.18976.18976,0,0,1,.07605.00782.17455.17455,0,0,1,.03932.02393c.0422.10509.0923.20641.144.30712.05521.1076.10794.21866.172.32134.031.04966.06035.10088.09222.14992a.0963.0963,0,0,0,.0975.05661A.02821.02821,0,0,0,6.108,6.48207Zm-.61338-.89652a.31776.31776,0,0,0-.13118.04358,2.585,2.585,0,0,0-.07022-.29979l.00993.01142c.03425.03793.07226.07233.10973.107.03875.03586.08033.06855.11634.10726l.01763.02044.00413.01285A.22636.22636,0,0,0,5.49461,5.58555Z" /><path d="M6.46141,6.44225c-.06573-.02588-.114.04-.15212.08466-.05492.01263-.11552.01368-.17095.02133-.0131.00181-.01694.02385-.00272.02717a.99834.99834,0,0,0,.10671.02012.24192.24192,0,0,0,.10367.002c.02889-.01126.0439-.04542.06818-.06317.025-.01827.05193-.02705.0627-.05832A.02681.02681,0,0,0,6.46141,6.44225Z" /><path d="M6.544,6.39189c-.00543-.06232-.07188-.07934-.125-.0747-.0761.00665-.15946.027-.22363-.02824-.01278-.011-.02984.00869-.0198.02123a.22625.22625,0,0,0,.13723.09612c.07008.01153.1354-.02557.20245.00914C6.5308,6.42349,6.54526,6.40613,6.544,6.39189Z" /><path d="M3.89083,4.1273a.51464.51464,0,0,0-.16328-.09119c-.067-.03024-.13413-.0602-.19987-.09324-.06523-.03278-.12908-.06813-.19326-.10286-.062-.03356-.12617-.05882-.18922-.08921-.01474-.0071-.02259.01414-.01234.02336a1.2,1.2,0,0,0,.17172.13842c.0605.03745.12307.07129.18661.10327.06293.03168.12676.06235.192.08889a.43673.43673,0,0,0,.19725.04973A.01686.01686,0,0,0,3.89083,4.1273Z" /><path d="M4.1385,3.94755a.34607.34607,0,0,0-.15734-.21071.228.228,0,0,0-.12485-.03063c-.0495.00316-.09485.02637-.14431.03124a1.04946,1.04946,0,0,1-.27956-.03931.62336.62336,0,0,0-.27089.00254c-.01385.00386-.01133.02523.00358.02265.16832-.02916.32363.08257.49034.09353a.40826.40826,0,0,0,.11291-.007.281.281,0,0,1,.12869-.01725c.09164.02182.13941.1119.20347.17192C4.11378,3.97692,4.14522,3.97095,4.1385,3.94755Z" /><path d="M4.568,3.78113c-.02121-.06093-.11218-.10122-.16452-.13039-.06893-.03843-.14-.07308-.21155-.10631-.07076-.03286-.1416-.06536-.21149-.10007a1.70483,1.70483,0,0,1-.22209-.12068.01333.01333,0,0,0-.0154.02175c.06771.05066.13021.10224.203.14643.06659.04045.13517.0777.20365.11482.06871.03724.138.07336.20666.11077.05554.03027.13262.0919.198.08888C4.56688,3.80573,4.57139,3.791,4.568,3.78113Z" /><path d="M4.552,3.38029c-.07224-.05936-.16133-.01464-.24248-.04819a.73712.73712,0,0,0-.24391-.07884,1.69381,1.69381,0,0,0-.26763.02639c-.01728.00172-.01268.02736.00416.02632a1.064,1.064,0,0,1,.23138.0157.7856.7856,0,0,1,.21729.07477.305.305,0,0,0,.09364.03143.68792.68792,0,0,0,.108-.01243c.08836-.00322.10342.10446.135.16555a.019.019,0,0,0,.03606-.00577A.21539.21539,0,0,0,4.552,3.38029Z" /><path d="M4.69969,3.60131a.015.015,0,0,0-.02956.00085c-.00774.05472-.0464.1285-.00941.17908a.03162.03162,0,0,0,.04982-.00173C4.74643,3.73054,4.70718,3.6542,4.69969,3.60131Z" /><path d="M4.83183,3.745a.38526.38526,0,0,0-.01895-.09256.01452.01452,0,0,0-.02663.00081.67332.67332,0,0,0-.01644.09352.19217.19217,0,0,0-.00114.09449c.01048.02894.04775.0206.059-.00179A.17458.17458,0,0,0,4.83183,3.745Z" /><path d="M4.91417,3.70986a.01449.01449,0,0,0-.02461.00409.30334.30334,0,0,0-.00972.04262c-.00346.015-.00831.02964-.01278.04436a.02605.02605,0,0,0,.04881.01815A.11776.11776,0,0,0,4.91417,3.70986Z" /><path d="M6.60747,3.65824c-.05371-.15575-.2741-.14705-.40719-.14142a2.073,2.073,0,0,0-.55447.11508c-.17357.057-.34142.12943-.5101.19923a.73124.73124,0,0,0-.07213-.031.18643.18643,0,0,0-.04352-.01156.33858.33858,0,0,1-.04544-.00243c-.01035-.00271-.01977.01105-.0094.01778a.46148.46148,0,0,1,.03613.03465.1961.1961,0,0,0,.0352.02194l.01233.00627c-.06841.02784-.13709.05512-.20624.081l-.01658.00617-.00947-.00263a.15755.15755,0,0,1-.01995-.01084A.16163.16163,0,0,1,4.757,3.91614c-.00837-.00844-.02607-.00033-.01936.0119.00861.0157.01411.03251.02431.04743l.00142.00188L4.719,3.994A.1037.1037,0,0,0,4.699,3.903a.14676.14676,0,0,0-.08867-.0485c-.01816-.00443-.02914.02228-.0104.02795.05042.01525.04216.07455.05336.11447a.03741.03741,0,0,0,.012.01832L4.643,4.02464a.49.49,0,0,1-.06008.03035c-.01705.00438-.01319.0314.00433.02736.02125-.0049.04925-.00018.07182-.00322.02359-.00318.04687-.00715.07-.01243.03809-.00867.07608-.01933.11329-.03121.08564-.02734.16955-.05917.25289-.09279.164-.06616.32613-.13727.49269-.19692a2.12784,2.12784,0,0,1,.521-.12387.6498.6498,0,0,1,.45885.06878C6.58961,3.70932,6.61513,3.68047,6.60747,3.65824Z" /><path d="M7.05453,4.14664a.32637.32637,0,0,1-.136-.07732.73416.73416,0,0,1-.10335-.14381c-.02792-.04721-.05744-.09241-.08789-.138-.0201-.03006-.03241-.083-.07536-.08509a.01694.01694,0,0,0-.017.02346c.01046.02227.01185.04678.0205.06973a.47042.47042,0,0,0,.04176.07288c.034.05672.06106.11716.09694.17284.05218.081.14949.17539.25521.15742A.0273.0273,0,0,0,7.05453,4.14664Z" /><path d="M7.763,4.49776a.4576.4576,0,0,0-.19227-.33332A.37784.37784,0,0,0,7.236,4.13225c-.015.00507-.00743.029.00777.02635a.38717.38717,0,0,1,.28425.07773.3976.3976,0,0,1,.14377.29308A.934.934,0,0,1,7.67855,4.67a.32917.32917,0,0,0-.05029-.04491.28871.28871,0,0,0-.12017-.04962.39133.39133,0,0,0-.14315.012.01333.01333,0,0,0,.00416.02631.35544.35544,0,0,1,.18231.06929.24488.24488,0,0,1,.06743.05887.35587.35587,0,0,1,.03191.07419.327.327,0,0,1-.02786.05586l-.00859.0129A.35482.35482,0,0,1,7.526,4.85347a.56441.56441,0,0,0-.10977-.07341.24469.24469,0,0,0-.10575-.01537.43487.43487,0,0,0-.11089.03264c-.01628.00541-.00535.02972.01078.02436.086-.02855.18208.03808.24364.08988a.27409.27409,0,0,0,.09135.0517l-.02612.02324c-.02268.0193-.053.03436-.0787.05239l-.01228.00371a.31774.31774,0,0,1-.13253.00723.01577.01577,0,0,0-.007.03034.38436.38436,0,0,0,.16219.01736.29662.29662,0,0,0,.12659-.04275.37778.37778,0,0,0,.13489-.13664A.64269.64269,0,0,0,7.763,4.49776Z" /><path d="M7.33846,5.43275a.56462.56462,0,0,0-.05336-.15812.29343.29343,0,0,0-.04943-.069c-.01981-.02005-.04439-.0319-.06531-.05026-.01168-.01025-.025.00932-.01386.01958a.39369.39369,0,0,1,.07477.14666.6592.6592,0,0,1,.03132.15268.798.798,0,0,1-.034.34673.43917.43917,0,0,1-.01822.0415.61505.61505,0,0,0,.0246-.13881A.66847.66847,0,0,0,7.10773,5.29a.50785.50785,0,0,0-.06-.06772.34332.34332,0,0,0,.03609-.04449.32777.32777,0,0,1,.06706-.0722.06334.06334,0,0,0,.06164.01745c.01892-.00415.02952-.032.0102-.04362-.01612-.00973-.03193-.01921-.04847-.02839a.04583.04583,0,0,1-.02728-.04415.01359.01359,0,0,0-.027-.0027.1482.1482,0,0,0,.01317.07576c-.01455.0058-.03011.00958-.04438.01629A.2442.2442,0,0,0,7.0411,5.126a.179.179,0,0,0-.04845.05089A.69333.69333,0,0,0,6.872,5.10861c.00292-.0091-.04253-.0482-.05558-.06249a.09859.09859,0,0,1-.01653-.0237.08061.08061,0,0,1-.00922-.02475c.00364-.01548-.01979-.02443-.02348-.00873-.0014.006-.00646.01091-.00857.0171a.07383.07383,0,0,0-.00344.02354.09963.09963,0,0,0,.00654.036c-.034-.0117-.06865-.02266-.1036-.03367A3.23336,3.23336,0,0,0,6.324,4.94307a1.44306,1.44306,0,0,0-.1808-.02582L6.09838,4.914l.00811-.01759A.99962.99962,0,0,1,6.18293,4.752a.18812.18812,0,0,0,.05149.01892q.0554.01675.11089.03312c.03419.01.06818.02063.10228.03093A.11724.11724,0,0,0,6.4958,4.844a.34538.34538,0,0,0,.0704.15622.016.016,0,0,0,.027-.01658.38581.38581,0,0,1-.025-.2113A.67267.67267,0,0,0,6.621,4.59374a.175.175,0,0,0-.15933-.17865.43138.43138,0,0,0,.06663-.26769c-.00151-.016-.0256-.01443-.02746.00079a.6899.6899,0,0,1-.23722.36457,1.54953,1.54953,0,0,0-.14266.15922.97407.97407,0,0,0-.10448.191,2.10538,2.10538,0,0,0-.17441.37511.38529.38529,0,0,0,.00254.20039,1.59845,1.59845,0,0,0,.05855.15033.23889.23889,0,0,0,.02445.06084l.00072.00187c.03084.08288.05694.167.08152.25187.02406.08307.05628.16344.08441.24449.0081.02335.03944.00968.03844-.01134A1.27774,1.27774,0,0,0,6.10677,5.906c-.00718-.03111-.01578-.062-.02509-.0928l.03785.03068a.59163.59163,0,0,0,.15544.099,1.16282,1.16282,0,0,0,.18648.04568c.01446.00292.01816-.01892.00561-.0242a1.17082,1.17082,0,0,1-.28045-.20019c-.04282-.03634-.08453-.0748-.12968-.10827l-.03751-.02715q-.02745-.07463-.05854-.14785a.29955.29955,0,0,1-.03466-.21557,1.2948,1.2948,0,0,1,.11341-.23877c.02076.00347.04248.00353.06463.005.04548.00309.091.00827.13605.01494a2.20219,2.20219,0,0,1,.281.06314c.08688.02476.17382.051.25919.08054a.49639.49639,0,0,1,.19048.11019.57143.57143,0,0,1,.037.74439.80493.80493,0,0,1-.16963.16916c-.06519.04844-.14005.07853-.2062.12414a.01291.01291,0,0,0,.00683.02262.46267.46267,0,0,0,.21455-.06858.83208.83208,0,0,0,.11038-.07385.66635.66635,0,0,0,.37492-.40219A.87769.87769,0,0,0,7.33846,5.43275Zm-.97715-.88624c.01777-.01938.03474-.0393.05071-.05974a.02867.02867,0,0,0,.01176.00239.104.104,0,0,1,.11726.08349.32286.32286,0,0,1-.039.158.21687.21687,0,0,0-.00929.04828L6.47223,4.7687c-.03468-.01693-.0698-.03315-.10536-.04813s-.07155-.02819-.10823-.04025l-.01657-.00545C6.28036,4.6308,6.32187,4.58953,6.36131,4.54652Z" /><path d="M7.15407,4.62a.16608.16608,0,0,0-.13117.02822.20772.20772,0,0,0-.0714.107.012.012,0,0,0,.021.01111.15764.15764,0,0,1,.089-.05522.222.222,0,0,1,.049-.00764c.00938-.00027.041-.00007.01552.01278a.02608.02608,0,0,0,.00145.04772.07127.07127,0,0,0,.08939-.04623A.07964.07964,0,0,0,7.15407,4.62Z" /><path d="M6.98312,4.25542a.12127.12127,0,0,0-.07435.08975c-.0071.02806-.00429.14694-.04255.15054-.02471.00232-.0233.0351-.0044.044.05547.02614.10039-.02306.11151-.07443.01379-.06366.02034-.12939.03251-.1934C7.00828,4.259,6.99357,4.25152,6.98312,4.25542Z" /></svg>