<svg xmlns="http://www.w3.org/2000/svg" data-name="Layer 1" viewBox="2.155872928881264 2.673526632887842 5.688547925130537 4.655774515512952" x="0px" y="0px"><title>KAMASUTRA</title><path d="M5.44833,5.2862a.435.435,0,0,0-.068-.13364.17348.17348,0,0,1-.03788-.07781c-.00308-.02759.00109-.05683.00078-.08464A1.54177,1.54177,0,0,0,5.333,4.83485c-.00675-.06-.02391-.11674-.03471-.17578a.01041.01041,0,0,0-.02056.00325c.00487.12412-.01033.24966-.0072.37416a.27868.27868,0,0,0,.04348.1383.49414.49414,0,0,0,.095.13584A.02533.02533,0,0,0,5.44833,5.2862Z" /><path d="M5.44823,4.87429c-.00136-.06036-.01588-.1176-.02159-.17686-.001-.01082-.01955-.01055-.01927.00055.00144.057-.01054.11711-.01466.17433a1.02045,1.02045,0,0,0,.00179.16505.0158.0158,0,0,0,.03021.003A.51271.51271,0,0,0,5.44823,4.87429Z" /><path d="M5.55,4.80921c-.01877.01019-.0205.02833-.0235.048-.00517.034-.00745.068-.01593.10153-.0161.0636-.05353.11592-.07452.177a.01978.01978,0,0,0,.03078.022.31425.31425,0,0,0,.10888-.19812C5.57865,4.94651,5.59834,4.783,5.55,4.80921Z" /><path d="M6.33981,5.64406a1.403,1.403,0,0,1-.10415-.193.68176.68176,0,0,1-.07374-.20731c-.001-.01368-.022-.01024-.021.00332.00313.04192-.00312.08265.00261.12469a.45421.45421,0,0,0,.0321.11339.44846.44846,0,0,0,.142.18263C6.333,5.68028,6.34934,5.65838,6.33981,5.64406Z" /><path d="M6.3916,5.56259a.712.712,0,0,0-.08144-.216.67164.67164,0,0,1-.03825-.11045.30117.30117,0,0,1-.01429-.10991c.00238-.0131-.01742-.01449-.02025-.002a.39918.39918,0,0,0-.02141.10259.40357.40357,0,0,0,.02189.11933.72658.72658,0,0,0,.12.23154A.0193.0193,0,0,0,6.3916,5.56259Z" /><path d="M6.56929,6.212a1.02508,1.02508,0,0,0,.06976-.25969c.0278-.185.02395-.375.06444-.55807a1.25871,1.25871,0,0,1,.29645-.53484c.012-.01381-.00888-.032-.02276-.02164a.97441.97441,0,0,0-.32806.46686c-.01228.03451-.02241.06921-.031.10407-.014.02649-.02844.097-.05436.10061-.0327.00459-.06484-.08479-.0777-.10983-.02112-.04111-.04023-.08319-.06041-.12474a1.19294,1.19294,0,0,1-.07307-.13592c-.00413-.01263-.02325-.00446-.01916.00806.01218.03723.01057.07808.02127.116a.70967.70967,0,0,0,.02832.0799,1.067,1.067,0,0,0,.09081.17788.07209.07209,0,0,0,.10543.02668l.01385-.01212c-.01851.11828-.026.2381-.04111.3587a1.0231,1.0231,0,0,1-.06817.278c-.04053.09453-.11572.16965-.15345.26522a.25448.25448,0,0,0,.0202.24383c-.08391.02144-.16728.04343-.25281.05895-.10206.01852-.20492.03219-.30774.04574a4.52556,4.52556,0,0,0-.61714.11732c-.20587.05685-.40818.12639-.61586.17666a4.95693,4.95693,0,0,1-.63567.1048c-.11767.01267-.2357.0216-.3533.03494-.05869.00666-.11754.012-.1762.01891A.59317.59317,0,0,0,3.216,7.275a.01052.01052,0,0,0,.00058.01927.98214.98214,0,0,0,.31382.01383q.15938-.00363.31794-.01779a5.46819,5.46819,0,0,0,.64581-.09321c.20927-.04453.41275-.1087.61844-.16679a4.38635,4.38635,0,0,1,.61766-.12364c.11829-.01575.2368-.03044.35441-.05081a1.71186,1.71186,0,0,0,.33675-.08371.20383.20383,0,0,1,.01966.03475.3882.3882,0,0,1,.02129.13993.3508.3508,0,0,0,.09725.26406.32476.32476,0,0,0,.26462.08789A.024.024,0,0,0,6.835,7.25618c-.062-.04869-.14758-.047-.21181-.09338-.07766-.05606-.07167-.143-.07458-.22812a.37871.37871,0,0,0-.07632-.23993.41093.41093,0,0,1-.06838-.09624.17758.17758,0,0,1,.02054-.14919C6.469,6.36732,6.53147,6.29832,6.56929,6.212Z" /><path d="M7.80129,5.07895a1.48,1.48,0,0,1-.11766.37237,2.73088,2.73088,0,0,1-.19775.34091,6.25177,6.25177,0,0,0-.41826.64438,1.60719,1.60719,0,0,0-.08214.19042.51465.51465,0,0,0-.03978.20856c.00321.03825.05311.03459.06693.00669a1.52551,1.52551,0,0,0,.06043-.17506,1.56911,1.56911,0,0,1,.07554-.17763,3.09255,3.09255,0,0,1,.19677-.33165,4.0754,4.0754,0,0,0,.40019-.6603,1.12138,1.12138,0,0,0,.09883-.41439A.02168.02168,0,0,0,7.80129,5.07895Z" /><path d="M6.985,7.10762c-.00231-.06633-.00673-.12944-.00324-.19578a.01634.01634,0,0,0-.0263-.01411.18594.18594,0,0,0-.04465.14684.47112.47112,0,0,1-.018.18128c-.009.025.02414.05353.04522.03232A.19187.19187,0,0,0,6.985,7.10762Z" /><path d="M6.51283,5.93455a.38136.38136,0,0,1-.11564-.0667,1.01394,1.01394,0,0,1-.09045-.1171c-.06059-.08484-.11461-.17532-.16947-.2639-.00678-.011-.02137.00062-.018.011a1.83844,1.83844,0,0,0,.15746.34352.532.532,0,0,0,.05.07262l-.02212.00486c-.03663.00734-.07337.01414-.11.02136a.98855.98855,0,0,1-.2261.0236.45391.45391,0,0,1-.32393-.12795A.5.5,0,0,1,5.558,5.45271a1.38455,1.38455,0,0,1,.03228-.221c.0165-.06671.03624-.13156.05013-.199.00251-.01216-.01484-.01671-.02134-.008a.77166.77166,0,0,0-.12735.3436,1.017,1.017,0,0,0-.00944.2627,5.54037,5.54037,0,0,0-.57231.1,1.24563,1.24563,0,0,0,.08476-.27831c.02686-.12224.047-.24589.06939-.369a3.576,3.576,0,0,1,.09788-.41562c.01644.00828.03336.016.04874.02551a.367.367,0,0,1,.07844.06129.00931.00931,0,0,0,.01563-.00961.238.238,0,0,0-.119-.15c.02181-.06331.04637-.1258.0746-.18719.006-.01311-.01283-.02093-.02107-.01113a1.39427,1.39427,0,0,0-.261.64146c-.0241.122-.043.24494-.06742.36688-.01254.06263-.025.12525-.03987.18737-.01241.05171-.02845.10368-.0378.15626-.05011.0122-.1.02538-.14946.03991a1.40985,1.40985,0,0,0,.02188-.21775q.00968-.1301.02592-.25961c.021-.16748.049-.334.08061-.49979s.065-.33138.09818-.49692a.522.522,0,0,1,.15795-.35282.01349.01349,0,0,0-.01057-.0236.23643.23643,0,0,0-.14995.1512,1.43162,1.43162,0,0,0-.00818-.15047,1.34384,1.34384,0,0,0-.0603-.22375c-.00326-.0114-.02091-.0094-.01874.003a2.146,2.146,0,0,1,.01214.21583,2.06917,2.06917,0,0,1,.00559.22178,3.45691,3.45691,0,0,1-.05646.42475l-.00013.00493c-.05518.25083-.10229.50357-.13432.75845-.00983.07821-.0183.15658-.02475.23514a.74681.74681,0,0,0,.00234.22767l-.00943.003c-.04581.01477-.09121.031-.13652.04718-.05024.018-.09776.04549-.14828.0613-.01017.00318-.005.02086.00532.018.04594-.01247.096-.01372.143-.02234l.15071-.02741c.09813-.01787.19568-.03851.29343-.0583.19165-.03879.38426-.071.57718-.10253l.00084.00315a.46644.46644,0,0,0,.39212.31491l-.07311.024a3.4296,3.4296,0,0,0-.59484.25261c-.00862.00487-.00595.02076.00532.018.20613-.04965.40917-.11769.61137-.18148.10171-.03208.20366-.06363.306-.09365a2.196,2.196,0,0,0,.24266-.089.13388.13388,0,0,0,.124.022C6.54545,5.98547,6.53583,5.94652,6.51283,5.93455Z" /><path d="M7.83661,4.99494c-.02557-.11122-.19632-.15378-.29256-.13526a.28352.28352,0,0,0-.084.03066.26418.26418,0,0,0-.12193-.26984.32737.32737,0,0,0-.03294-.01762c.00021-.03069-.00038-.06148-.00293-.09187-.004-.04778-.01969-.09308-.02537-.14078a.01091.01091,0,0,0-.02154.00062c-.00613.04558-.02164.08871-.02705.13431-.00281.02369-.004.04781-.00453.07193A.64284.64284,0,0,0,6.95,4.59932q-.11654.02986-.23025.071a.54713.54713,0,0,1-.04086-.06518.18174.18174,0,0,1-.0306-.08783c.00161-.01183-.01682-.01364-.01842-.00184-.00264.01939-.01338.03667-.01659.05594a.14978.14978,0,0,0,.00294.05815.18887.18887,0,0,0,.03135.06787q-.05013.01979-.09932.04163c-.08037.03571-.15916.07551-.23681.11741a.18356.18356,0,0,1-.03488-.14161.4018.4018,0,0,0-.00048-.14176.2243.2243,0,0,0,.07918-.14425A.28648.28648,0,0,0,6.311,4.25077c.00234-.029.00544-.05818.0053-.087A.3858.3858,0,0,0,6.30376,4.06a.18483.18483,0,0,0-.13151-.13891c-.0788-.019-.16.00834-.23938-.011a.39228.39228,0,0,1-.2098-.11746c-.00849-.0115-.02564.00258-.01717.01405a.39694.39694,0,0,0,.14448.14215.40742.40742,0,0,0,.20747.03434.25.25,0,0,1,.12116.01.12864.12864,0,0,1,.06212.08709.414.414,0,0,1,.01072.09813c-.032-.0299-.06782-.05451-.10347-.08373-.00829-.0068-.01981.00574-.01282.01375a1.046,1.046,0,0,1,.08774.12415.2938.2938,0,0,1,.05376.15426.16668.16668,0,0,1-.181.16042c-.0307.00121-.02759.0432-.00536.05366a.16254.16254,0,0,0,.09869.01358c.0002.02339.00161.04706-.00007.06979a.32664.32664,0,0,0,.00871.1303.14612.14612,0,0,0,.0565.07317q-.06463.03594-.12832.07313-.10255.05975-.2029.12313a.95572.95572,0,0,0-.19165.14566.01069.01069,0,0,0,.011.018,1.78915,1.78915,0,0,0,.35373-.18616c.116-.06671.23366-.13053.3552-.18663a3.38138,3.38138,0,0,1,.37783-.15066.70172.70172,0,0,1,.40538-.05184l.00346.00117a.047.047,0,0,0,.02877.0114A.18546.18546,0,0,1,7.36,4.771a.25471.25471,0,0,1-.0089.19c-.04711.13588-.10907.26791-.16415.40073-.11129.2684-.2288.53516-.32978.80767a1.92973,1.92973,0,0,0-.15191.90371c.00467.0362.06611.03608.06529-.00186a2.3344,2.3344,0,0,1,.16677-.8636c.10637-.2881.23113-.5699.34886-.85349l.08968-.21576c.02065-.04965.04321-.09919.06049-.15032a.24034.24034,0,0,1,.11274-.05822.22742.22742,0,0,1,.13376.01664c.04249.01877.06729.056.10618.07809C7.80959,5.03621,7.843,5.02282,7.83661,4.99494Z" /><path d="M5.86007,4.35457a.37252.37252,0,0,0-.1265-.17376c-.009-.00819-.01991.00735-.011.01549a.27374.27374,0,0,1,.0362.32111.22186.22186,0,0,1-.282.0849c-.02623-.01315-.04328.02661-.02284.04323a.25053.25053,0,0,0,.38159-.08128A.26722.26722,0,0,0,5.86007,4.35457Z" /><path d="M5.51758,3.93182a.72974.72974,0,0,1-.2085.00895.44052.44052,0,0,1-.20319-.08952A.5403.5403,0,0,1,5.02725,3.774l.00989-.00756a.16384.16384,0,0,0,.02973-.03123.03763.03763,0,0,0,.00666-.03417.00935.00935,0,0,0-.00822-.00777.04082.04082,0,0,0-.02781.00552c-.01116.007-.02136.0155-.032.02321l-.01183.00875q-.01729-.024-.03306-.04891a1.1245,1.1245,0,0,1-.111-.207.0093.0093,0,0,0-.01761.00519.94692.94692,0,0,0,.079.248c.00826.015.01734.02968.02686.04409a.02034.02034,0,0,0,.01939.03142L4.95951,3.803a.58328.58328,0,0,0,.11933.11959c.11685.08617.33151.15231.4513.03729A.01606.01606,0,0,0,5.51758,3.93182Z" /><path d="M5.60837,3.66334A.3549.3549,0,0,0,5.568,3.55489a.19019.19019,0,0,0-.03771-.09778.23634.23634,0,0,0-.18972-.08134,1.18161,1.18161,0,0,0-.23612.03616.36958.36958,0,0,1-.12073.0059.22857.22857,0,0,1-.12157-.04659.00949.00949,0,0,0-.01468.012.20576.20576,0,0,0,.13417.09888.53075.53075,0,0,0,.206-.00442.3063.3063,0,0,0-.05538.06379.00835.00835,0,0,0,.01361.00964.30246.30246,0,0,1,.18954-.09249L5.339,3.45747A.27552.27552,0,0,1,5.411,3.4651a.2175.2175,0,0,1,.07173.03223l.001.00258a.666.666,0,0,1,.06836.17888.5972.5972,0,0,1,.00954.09288.43168.43168,0,0,1,.00348.10049c-.0014.00655.009.00865.01123.0026a.414.414,0,0,0,.03845-.10119A.3589.3589,0,0,0,5.60837,3.66334Z" /><path d="M4.79387,3.29081a.40283.40283,0,0,0-.09271.08476.38992.38992,0,0,0-.04925.12068.90387.90387,0,0,0-.004.31748,1.8257,1.8257,0,0,1,.016.35751c-.00838.12043-.0276.239-.03908.359a.019.019,0,0,0,.03654.00847,1.334,1.334,0,0,0,.09455-.65145,1.81422,1.81422,0,0,1-.03959-.31887.50467.50467,0,0,1,.02184-.13226.31421.31421,0,0,1,.06653-.13207C4.81307,3.29689,4.80225,3.2836,4.79387,3.29081Z" /><path d="M5.91008,3.85343c-.0164-.02777-.04088-.05-.05959-.07654a.52791.52791,0,0,1-.05326-.09431,1.98906,1.98906,0,0,1-.06551-.2033.60714.60714,0,0,0-.227-.32686.53234.53234,0,0,0-.5548-.03835c-.04194.02226-.12.06507-.12527.11789a.00793.00793,0,0,0,.00706.00862.14926.14926,0,0,0,.06837-.02848.754.754,0,0,1,.08324-.03891.50567.50567,0,0,1,.19337-.03678.49416.49416,0,0,1,.32513.1282.71385.71385,0,0,1,.17365.33514.77191.77191,0,0,0,.07482.17412.22638.22638,0,0,0,.1348.11406A.02479.02479,0,0,0,5.91008,3.85343Z" /><path d="M5.33254,3.54757a.00982.00982,0,0,0-.01753-.0041.12593.12593,0,0,1-.014.01332l-.01489.0135a.07959.07959,0,0,1-.03753.0179.01807.01807,0,0,0,.001.03567.07471.07471,0,0,0,.06526-.01843.07335.07335,0,0,0,.01881-.0292A.06036.06036,0,0,0,5.33254,3.54757Z" /><path d="M5.42009,3.81742a.00984.00984,0,0,0-.01575-.006l-.02.014-.02122.01692a.43807.43807,0,0,1-.04332.02815.02032.02032,0,0,0,.00113.03715.08014.08014,0,0,0,.07825-.01758A.08348.08348,0,0,0,5.42215,3.855.05949.05949,0,0,0,5.42009,3.81742Z" /><path d="M3.14083,7.27457c-.01967-.02488-.0518-.03414-.07331-.05757a.26182.26182,0,0,1-.05072-.09223,1.46314,1.46314,0,0,0-.09366-.23456,1.96826,1.96826,0,0,1-.11186-.21778.4354.4354,0,0,1-.04464-.27167c.00351-.01133-.01381-.01788-.01736-.00646a.44594.44594,0,0,0-.01288.26912,2.01865,2.01865,0,0,0,.11655.26593q.01368.031.02591.06221l-.00459-.00438a.42372.42372,0,0,0-.05984-.04157c-.043-.02591-.08674-.05073-.13009-.07609-.08672-.05072-.17306-.10216-.26024-.15211A.45086.45086,0,0,1,2.242,6.577c-.04709-.08227.00095-.18668.014-.27284.0016-.01058-.01253-.01445-.01843-.00689a.36433.36433,0,0,0-.08046.2599.28176.28176,0,0,0,.14839.20354c.09042.05823.1849.11059.27756.16515l.15147.0892c.023.01353.04584.02682.0699.03837a.147.147,0,0,0,.0797.01482.0274.0274,0,0,0,.01858-.00771l.00328.01053a.811.811,0,0,0,.04444.13218c.02685.05554.10677.157.17947.11691A.02994.02994,0,0,0,3.14083,7.27457Z" /><path d="M5.15343,6.329a2.12724,2.12724,0,0,0-.24264.10251c-.08317.03262-.16546.06775-.24792.10218-.16755.07-.3389.13063-.51246.18389-.17213.05282-.34729.10155-.52379.13757a.64663.64663,0,0,1-.23989.014.30932.30932,0,0,1-.13633-.05946,1.38465,1.38465,0,0,0,.24633-.023,2.40159,2.40159,0,0,0,.34515-.08782A2.49985,2.49985,0,0,0,4.16953,6.569,1.13817,1.13817,0,0,0,4.333,6.47125c.03375.00039.06776.00191.10029.00016.05782-.00311.11618-.00927.17358-.0168s.11551-.01459.1721-.02619a.95428.95428,0,0,0,.16339-.05211.01465.01465,0,0,0-.00444-.02777A.96124.96124,0,0,0,4.766,6.34679c-.05749.00546-.11527.01584-.17221.02545s-.11451.021-.17073.03484l-.01132.003c.01654-.01385.033-.028.04919-.04281a.01877.01877,0,0,0-.01939-.03154c-.10454.047-.20887.09271-.3119.14317a2.99477,2.99477,0,0,1-.31722.13538,3.1486,3.1486,0,0,1-.32827.093c-.0923.02183-.18723.03682-.279.06133l-.01839-.02089a2.00736,2.00736,0,0,0-.20312-.265.65283.65283,0,0,0,.09114-.01858c.059-.01475.11728-.033.17537-.05106.117-.03634.23273-.07681.34738-.11989a2.89125,2.89125,0,0,0,.65963-.31744c.01822-.01282-.00079-.03722-.01915-.03115-.23018.07609-.44848.18395-.67524.27005-.11209.04256-.22534.08173-.33932.11888-.05691.01855-.11434.0355-.17115.05434a.429.429,0,0,0-.12612.05536.1975.1975,0,0,0-.08654-.02177.01049.01049,0,0,0-.007.01885.56958.56958,0,0,1,.16509.16651,2.38357,2.38357,0,0,0,.12723.2085.44167.44167,0,0,0,.43347.14117,3.64232,3.64232,0,0,0,.52841-.12886c.178-.052.354-.11079.52634-.17923a2.44548,2.44548,0,0,0,.286-.12979c.04487-.02492.08823-.05256.133-.07774A.57594.57594,0,0,0,5.164,6.35264C5.17245,6.34433,5.16761,6.32544,5.15343,6.329Z" /><path d="M2.67956,6.49294c-.01718-.02665-.05189-.02706-.08038-.03254a.699.699,0,0,1-.10282-.0279.88477.88477,0,0,1-.20032-.088c-.00834-.0057-.01983.00552-.01251.01342a.50479.50479,0,0,0,.18684.14452c.052.02062.16555.0671.21008.01595A.02137.02137,0,0,0,2.67956,6.49294Z" /><path d="M6.46815,3.80774c-.02575-.02184-.06534-.01439-.09648-.02514a.25116.25116,0,0,1-.09793-.06431.648.648,0,0,1-.117-.213C6.15,3.48838,6.14413,3.471,6.13883,3.45347a.16323.16323,0,0,0,.04771-.018.01683.01683,0,0,0,.00287-.02875A.08405.08405,0,0,0,6.13467,3.392l-.01143.00158-.00249-.01093a.08133.08133,0,0,0,.023-.0065.15031.15031,0,0,0,.04054-.01655.02244.02244,0,0,0-.0063-.03792.07167.07167,0,0,0-.05039-.00032l-.0171.00659c-.00462-.02738-.00865-.05477-.01245-.0818-.00618-.04388-.00947-.088-.01427-.132a1.1085,1.1085,0,0,1-.01632-.15107A.00926.00926,0,0,0,6.049,2.96123c-.00506.05148-.01912.10282-.02027.15448a.96261.96261,0,0,0,.01166.15536,1.64106,1.64106,0,0,0,.07691.30286.52823.52823,0,0,0,.12883.21833.30394.30394,0,0,1-.05163.041.25449.25449,0,0,1-.11718.02969c-.01013-.00041-.01521.01525-.00425.01833a.20317.20317,0,0,0,.13584,0,.199.199,0,0,0,.08331-.05413c.01.00621.02085.01229.03218.01785a.19807.19807,0,0,1,.0501.13246.01.01,0,0,0,.018.00674.11447.11447,0,0,0,.02512-.10525l-.00285-.009a.07143.07143,0,0,0,.05942-.02687A.02592.02592,0,0,0,6.46815,3.80774Z" /><path d="M6.73772,3.47143a.0281.0281,0,0,0-.05366-.00537c-.01911.05354-.024.10906-.04754.162a.42734.42734,0,0,1-.10293.14987c-.00778.00692,0,.02191.01009.01641A.3846.3846,0,0,0,6.691,3.6639.2743.2743,0,0,0,6.73772,3.47143Z" /><path d="M6.88657,2.99552a.39808.39808,0,0,0-.2013-.278.47715.47715,0,0,0-.60955.18813.01161.01161,0,0,0,.01675.01562.537.537,0,0,1,.54889-.12068c.20965.11008.1655.38893.15968.58313a.01761.01761,0,0,0,.03387.00786A.732.732,0,0,0,6.88657,2.99552Z" /><path d="M7.79769,4.41971a.71986.71986,0,0,0-.10746-.32565.53889.53889,0,0,0-.26267-.20775c-.11458-.04511-.23807-.0632-.35111-.11262A.40588.40588,0,0,1,6.91261,3.659a.34169.34169,0,0,1-.065-.18074c-.00088-.01138-.01546-.00988-.01959-.002a.24936.24936,0,0,0,.06368.27453.63179.63179,0,0,0,.31643.16622.80491.80491,0,0,1,.33239.14276.52405.52405,0,0,1,.15317.28635c.03185.15458-.00468.30976.01692.464a.02068.02068,0,0,0,.0395.004A.80571.80571,0,0,0,7.79769,4.41971Z" /><path d="M6.72329,3.19c-.05539-.00406-.06946-.07147-.10007-.10793a.17229.17229,0,0,0-.12561-.0584.87416.87416,0,0,0-.30555.09739.00888.00888,0,0,0,.00049.01629c.10865.0302.20233-.05524.3095-.038.09842.01582.10427.1844.22313.15719C6.76072,3.2484,6.76322,3.19294,6.72329,3.19Z" /><path d="M6.504,3.30812a.079.079,0,0,0-.07512-.03093.19285.19285,0,0,0-.08743.02366.01.01,0,0,0,.003.019c.02769.00267.05576.01168.08363.01575a.09389.09389,0,0,0,.07024-.00383A.02.02,0,0,0,6.504,3.30812Z" /><path d="M6.46963,3.37738a.07683.07683,0,0,0-.055-.01252c-.02345.00072-.04544.013-.06879.01183-.01217-.00061-.01412.01827-.00189.01888.02386.0012.04514.01561.0689.019a.07739.07739,0,0,0,.05776-.00894A.01793.01793,0,0,0,6.46963,3.37738Z" /><path d="M6.42151,3.648l-.00358-.00581a.02505.02505,0,0,0-.02364-.009.26772.26772,0,0,0-.05059.01671c-.014.0051-.02787.01715-.04276.01639a.00857.00857,0,0,0-.0017.017.13969.13969,0,0,1,.02649.01043.08214.08214,0,0,0,.02914.00427A.09675.09675,0,0,0,6.41436,3.678.026.026,0,0,0,6.42151,3.648Z" /></svg>