<svg xmlns="http://www.w3.org/2000/svg" data-name="Layer 1" viewBox="2.040315749457891 2.2624952647610743 5.915015252869599 5.473713832774129" x="0px" y="0px"><title>KAMASUTRA</title><path d="M3.60849,3.17619a.48207.48207,0,0,1-.45122-.26775.47334.47334,0,0,1,.14717-.50621.01139.01139,0,0,0-.01176-.01913.43457.43457,0,0,0-.24345.409.48077.48077,0,0,0,.28046.4202.35074.35074,0,0,0,.28761.01891A.029.029,0,0,0,3.60849,3.17619Z" /><path d="M4.26613,2.95148a.02451.02451,0,0,0-.04485.00136.44976.44976,0,0,1-.0342.10014.27381.27381,0,0,1-.08178.0806.9203.9203,0,0,1-.10284.05961.331.331,0,0,0-.10362.06732.0112.0112,0,0,0,.008.01754.36833.36833,0,0,0,.13446-.041.38261.38261,0,0,0-.0356.08694.37033.37033,0,0,0-.01193.12236.23207.23207,0,0,0,.03431.11541c.00676.00926.01894.00275.021-.00634a.48812.48812,0,0,0,.00442-.05c.00235-.01867.00585-.03734.00885-.05592a.72418.72418,0,0,1,.026-.10578,1.15747,1.15747,0,0,1,.08-.17148L4.172,3.16978C4.2325,3.1252,4.30551,3.02962,4.26613,2.95148Z" /><path d="M3.48571,3.36128c-.04559.03938-.10282.06509-.151.10181a1.07665,1.07665,0,0,0-.328.441,1.66025,1.66025,0,0,0-.04766.78856c.0091.0789.01676.15818.02754.23686a.40519.40519,0,0,1,.00019.21.02525.02525,0,0,0,.04408.02329.50471.50471,0,0,0,.04121-.36071c-.01585-.138-.035-.276-.04049-.415a1.39423,1.39423,0,0,1,.032-.37391.82672.82672,0,0,1,.16452-.32656c.04224-.05307.09051-.10013.13612-.15015.02126-.02331.043-.0467.06325-.07087a.69624.69624,0,0,1,.07324-.086C3.51232,3.3697,3.49731,3.35126,3.48571,3.36128Z" /><path d="M3.13884,5.194c-.23971.03859-.36951.30026-.47814.48924-.05257.09145-.11735.21425-.22808.24241-.063.016-.13.01629-.1941.02589a1.28321,1.28321,0,0,0-.19108.03891.01236.01236,0,0,0,.00069.02269.7923.7923,0,0,0,.19279.02244.97373.97373,0,0,0,.19526-.01418.29083.29083,0,0,0,.15544-.07964.65167.65167,0,0,0,.09978-.14649A2.60134,2.60134,0,0,1,2.895,5.46364a.86835.86835,0,0,1,.259-.21828A.02711.02711,0,0,0,3.13884,5.194Z" /><path d="M4.16734,5.72541A.42371.42371,0,0,0,3.91958,5.451c-.00795-.01274-.01562-.02568-.02236-.03926A1.22,1.22,0,0,1,3.848,5.29023,2.581,2.581,0,0,0,3.73363,5.031c-.08533-.17121-.1792-.33953-.2508-.51717A1.14665,1.14665,0,0,1,3.4,4.20261c-.00162-.01565-.0283-.01533-.02795.0008a1.536,1.536,0,0,0,.1289.5615c.07724.18447.17615.35945.25785.542.01276.02852.02613.06227.04207.09552l-.01116-.00372c-.09721-.03167-.19439-.0603-.28853-.10058a1.46532,1.46532,0,0,0-.14232-.05643.32861.32861,0,0,0-.13608-.02246.01276.01276,0,0,0-.00532.02277,1.21957,1.21957,0,0,0,.118.06871q.058.0345.11762.06594a1.43781,1.43781,0,0,0,.2688.09827.64141.64141,0,0,1,.41935.25818C4.14816,5.74593,4.171,5.74156,4.16734,5.72541Z" /><path d="M2.45,6.9549a.38243.38243,0,0,0-.10569-.03672c-.01277-.00424-.03842-.00749-.04778-.01731-.00974-.01021-.00542-.04271-.00522-.05521a.85644.85644,0,0,1,.05842-.21955.61815.61815,0,0,0,.00606-.22631c-.00514-.05859-.01563-.15991.03371-.20132.01189-.01-.00336-.02869-.01528-.01868a.46484.46484,0,0,0-.05008.04623c-.03675-.02975-.08719-.03078-.1271-.055a.23736.23736,0,0,1-.098-.10263.01323.01323,0,0,0-.02506.00739.20565.20565,0,0,0,.12874.1767.36631.36631,0,0,1,.08243.033l.00454.00287a.26154.26154,0,0,0-.0132.07214c-.002.05008.00612.09987.00585.14988a.36394.36394,0,0,1-.02938.13547.437.437,0,0,0-.04132.2681c.01222.04469.04843.05748.08848.07042a.317.317,0,0,0,.13606.02952A.033.033,0,0,0,2.45,6.9549Z" /><path d="M3.98652,7.21571a.34922.34922,0,0,0-.15186-.01451A.938.938,0,0,1,3.672,7.18672a.661.661,0,0,1-.26886-.134c-.17683-.1327-.34922-.26924-.5316-.39456-.05078-.03489-.10171-.06946-.154-.102a.58292.58292,0,0,0-.08227-.04222c-.01523-.00639-.02991-.01482-.04544-.02036a.36866.36866,0,0,1-.04792-.01388c-.01212-.00619-.02038.0125-.01067.0202a.42446.42446,0,0,1,.03176.03721c.00837.00836.01779.01568.0264.0238.01265.01194.02528.02364.03827.035a.5797.5797,0,0,0-.0773.09109.60334.60334,0,0,0-.109.17218.012.012,0,0,0,.016.015.55026.55026,0,0,0,.14092-.125c.0206-.02131.03974-.04366.05975-.06549.01123-.01224.02492-.02359.0374-.03574.03542.02532.07137.04992.10689.07509.09524.06749.18879.13754.28183.208.08948.06778.17591.13965.266.20661a.68718.68718,0,0,0,.4628.15986A.33448.33448,0,0,0,3.995,7.2666C4.01585,7.25275,4.00428,7.22474,3.98652,7.21571Z" /><path d="M3.70267,6.78138a1.363,1.363,0,0,0-.13112-.098.74894.74894,0,0,1-.10333-.0929,1.96747,1.96747,0,0,1-.174-.23192,2.31926,2.31926,0,0,1-.1549-.25951.01392.01392,0,0,0-.02544.01126c.03542.08976.06656.1816.10338.27073.00625.01514.01313.03007.02028.04489a1.98574,1.98574,0,0,0-.27251-.1077c-.04534-.01638-.09-.03417-.13368-.05469a1.064,1.064,0,0,1-.12394-.07444.30724.30724,0,0,0-.23829-.06979.0125.0125,0,0,0,.0007.02466A.45747.45747,0,0,1,2.687,6.2735a.94245.94245,0,0,0,.24162.126,2.40725,2.40725,0,0,1,.24912.09994.89488.89488,0,0,1,.20106.146l.01152.006a1.13635,1.13635,0,0,0,.18921.16027.35934.35934,0,0,1,.103.09778.40378.40378,0,0,1,.051.13592c.0049.0247.04572.0338.053.0053A.276.276,0,0,0,3.70267,6.78138Z" /><path d="M4.53422,6.511a.59386.59386,0,0,1-.314-.14946A2.40011,2.40011,0,0,0,3.94,6.1892a5.85064,5.85064,0,0,1-.56971-.31578c-.04742-.03273-.09378-.06779-.13912-.10412a.024.024,0,0,0-.02528-.02052c-.0388-.03174-.07688-.06423-.11412-.09691-.00944-.00829-.02354.00466-.01856.01519a.61663.61663,0,0,0,.07191.1159,2.39611,2.39611,0,0,0-.2149.12444.51165.51165,0,0,0-.11579.10551.11846.11846,0,0,0-.0215.0702c-.00043.01846.005.06278-.017.07291-.01113.00513-.00644.024.00625.02121A.06985.06985,0,0,0,2.83,6.15264a.1787.1787,0,0,0,.02792-.06027c.01908-.05278.08131-.089.12659-.11863.04606-.03013.09546-.05265.14328-.07952A.2732.2732,0,0,0,3.197,5.84239a1.538,1.538,0,0,0,.37229.25931c.15037.08218.306.15605.45367.24325a.50637.50637,0,0,1,.06945.19451c.02219.0773.0482.15342.07254.23006a.31348.31348,0,0,1,.00936.20473.5315.5315,0,0,1-.10818.18433c-.013.0138.00551.0372.019.02324a.78766.78766,0,0,0,.1579-.17124.30687.30687,0,0,0,.01082-.235c-.026-.089-.05548-.17783-.08734-.26484-.01181-.03225-.02308-.06746-.03841-.10007l.03871.0263c.10538.07362.23975.17869.37418.1164A.02236.02236,0,0,0,4.53422,6.511Z" /><path d="M4.38135,6.13151c-.0175-.04931-.03752-.098-.05867-.14584a.34151.34151,0,0,0-.07524-.12051.01273.01273,0,0,0-.01985.009.31464.31464,0,0,0,.0211.12954c.01406.04452.03006.08821.04574.13218a.50263.50263,0,0,1,.03248.12739c.00306.03793-.014.08509.00285.12017a.02538.02538,0,0,0,.03862.00921A.14683.14683,0,0,0,4.411,6.27315.439.439,0,0,0,4.38135,6.13151Z" /><path d="M4.50759,6.12569a.012.012,0,0,0-.0227.00363c-.00263.04433-.0075.0895-.012.13381-.00456.04524-.0164.08855-.01845.13406a.02219.02219,0,0,0,.03986.01491A.29327.29327,0,0,0,4.50759,6.12569Z" /><path d="M4.62328,6.14628A.02373.02373,0,0,0,4.5831,6.153a.26484.26484,0,0,0-.00234.10905.44849.44849,0,0,1-.00806.132.01263.01263,0,0,0,.02366.0088.51188.51188,0,0,0,.04549-.13062A.1597.1597,0,0,0,4.62328,6.14628Z" /><path d="M4.84248,5.92234a.23966.23966,0,0,1-.08485-.04884c-.02723-.01958-.05607-.03727-.08431-.05534-.04894-.03132-.10032-.05994-.14868-.09226a.88963.88963,0,0,1-.05495-.08137.73262.73262,0,0,1-.08475-.2394c-.00386-.02068-.03889-.02182-.03853.0011a.68553.68553,0,0,0,.16137.42875.97044.97044,0,0,1,.138.18689.36956.36956,0,0,1,.03857.25351c-.00435.01434.01755.02263.02194.00816a.458.458,0,0,0,.02732-.2346.3929.3929,0,0,0-.0593-.13528.23038.23038,0,0,0,.16922.04466A.01823.01823,0,0,0,4.84248,5.92234Z" /><path d="M4.4684,5.29748A.46321.46321,0,0,0,4.324,5.07312a.626.626,0,0,0-.16892-.1303,1.90832,1.90832,0,0,1-.11548-.19151c.00317-.01065.00525-.022.00778-.03374.00647-.03014.015-.05945.02446-.08879.01748-.05444.03775-.10809.052-.16352A.70348.70348,0,0,0,4.147,4.29312a.36794.36794,0,0,0-.02818-.17174c-.00451-.00813-.019-.01026-.022.00067a1.3,1.3,0,0,0-.019.16414,1.09632,1.09632,0,0,1-.04.17992c-.01551.0485-.03491.09569-.05051.14415A3.32359,3.32359,0,0,1,3.93282,4.062a.72761.72761,0,0,0-.03843-.1892.38984.38984,0,0,0-.08293-.1671c-.01547-.0135-.03494.00454-.03389.021.00354.05553.03422.10705.0407.16287.0066.05678.01356.11361.01928.17048.01148.1141.01239.22894.02165.3432a1.1178,1.1178,0,0,0,.072.337,1.31906,1.31906,0,0,0,.167.27531c.035.04739.07333.09286.10561.14215a.61481.61481,0,0,1,.08847.17285c.00369.0146.02631.01156.02348-.00371A.82974.82974,0,0,0,4.27805,5.172a1.00262,1.00262,0,0,0-.04338-.09594c.01341.01233.02651.025.03883.03839a1.0367,1.0367,0,0,1,.08055.099A.64772.64772,0,0,0,4.43,5.31471.022.022,0,0,0,4.4684,5.29748Z" /><path d="M4.645,5.34334c-.02355-.05471-.052-.10693-.07593-.16148-.02325-.053-.04168-.10809-.0619-.16225A2.93091,2.93091,0,0,1,4.404,4.67383c-.05925-.24861-.09614-.501-.14357-.7519-.01339-.07081-.02632-.14172-.03944-.21258a1.75672,1.75672,0,0,0-.0446-.20829c-.00375-.01194-.02325-.00811-.02375.0038a2.71566,2.71566,0,0,0,.02793.38328c.01329.13048.03282.25979.05586.38888a4.89438,4.89438,0,0,0,.1815.73627,1.38842,1.38842,0,0,0,.08138.18636.77261.77261,0,0,0,.10754.1671A.02267.02267,0,0,0,4.645,5.34334Z" /><path d="M6.40634,6.54818c-.025-.03972-.06166-.07168-.09024-.10909a.75547.75547,0,0,1-.07566-.11969c-.04453-.08895-.06543-.1815-.1616-.22982a.30211.30211,0,0,0-.31445.03084c-.04207-.01608-.088-.02279-.13025-.0395a.87923.87923,0,0,1-.1255-.06156,1.70672,1.70672,0,0,1-.23344-.17513,2.42972,2.42972,0,0,0-.2306-.184A1.06782,1.06782,0,0,0,4.798,5.54359.58439.58439,0,0,1,4.53786,5.404a.00729.00729,0,0,0-.01127.00922.51838.51838,0,0,0,.18772.17031c.08176.04594.1684.08329.24729.13426.17136.11071.30753.26751.48173.3742a.72566.72566,0,0,0,.15334.07365.52665.52665,0,0,0,.10376.02477.09237.09237,0,0,0-.01153.05506.0122.0122,0,0,0,.01681.00915.53825.53825,0,0,0,.07966-.05749.32434.32434,0,0,1,.0957-.04039.20747.20747,0,0,1,.19926.04357.34042.34042,0,0,1,.0544.10583.74806.74806,0,0,0,.06193.11743.40734.40734,0,0,0,.1794.167A.02723.02723,0,0,0,6.40634,6.54818Z" /><path d="M6.096,6.44173a.25514.25514,0,0,0-.16675-.08845.27282.27282,0,0,0-.18264.0436A.21857.21857,0,0,0,5.6488,6.543a.17588.17588,0,0,0,.06026.15827.01705.01705,0,0,0,.02637-.02158.16843.16843,0,0,1-.00206-.13219.15544.15544,0,0,1,.07593-.08615.20329.20329,0,0,1,.12186-.01844.61921.61921,0,0,1,.13287.04354A.02869.02869,0,0,0,6.096,6.44173Z" /><path d="M6.33319,6.72249c-.02314-.026-.05616-.03979-.0795-.06611a.2806.2806,0,0,1-.03006-.04085.332.332,0,0,1-.02928-.04842.01549.01549,0,0,0-.02937.0047.17421.17421,0,0,0,.00428.06651.195.195,0,0,0,.0338.05949.14487.14487,0,0,0,.11529.06364A.02419.02419,0,0,0,6.33319,6.72249Z" /><path d="M5.05005,6.2017a.11926.11926,0,0,0-.11213.12673.44929.44929,0,0,0,.02391.10816c.00848.03763-.013.04957-.04675.05707-.12655.02806-.34051-.007-.39989.14286a.01638.01638,0,0,0,.02859.01511c.04187-.05246.13112-.0503.19141-.05289a.81386.81386,0,0,0,.23048-.02728.12437.12437,0,0,0,.08052-.15918c-.01506-.05433-.04211-.12276.01885-.16089A.02832.02832,0,0,0,5.05005,6.2017Z" /><path d="M5.43009,7.52436a.48409.48409,0,0,0-.03878-.07659q-.02-.03808-.03882-.07676-.035-.07184-.06567-.14561A2.93018,2.93018,0,0,1,5.176,6.90626a.196.196,0,0,0-.07216-.11666.47721.47721,0,0,0-.1377-.06108.471.471,0,0,0-.30314.00589.00845.00845,0,0,0,.00256.016,1.29322,1.29322,0,0,1,.288.06265.27251.27251,0,0,1,.11713.06247.40691.40691,0,0,1,.0453.13064,2.8391,2.8391,0,0,0,.10716.28773q.02944.0676.06212.13372a.63691.63691,0,0,0,.07694.13848A.04044.04044,0,0,0,5.43009,7.52436Z" /><path d="M6.83361,6.94684a.25427.25427,0,0,0-.21693.02923L6.61479,6.964c-.00631-.03312-.06176-.04535-.07108-.00711a.36887.36887,0,0,1-.12573.23443,1.08638,1.08638,0,0,1-.27142.12019c-.10623.03986-.21291.07891-.31817.12128-.05366.0216-.10642.04506-.1582.07087s-.10157.05635-.1552.07764c-.02125.00844-.00685.03964.01424.03218.06018-.0213.1248-.0314.18646-.04849q.08889-.02463.17554-.05612c.11511-.04182.22981-.0847.34448-.12773a.73555.73555,0,0,0,.27515-.14481.38515.38515,0,0,0,.09695-.15983.3333.3333,0,0,1,.22337-.10534C6.84409,6.97056,6.845,6.95068,6.83361,6.94684Z" /><path d="M6.25461,6.92224a.725.725,0,0,0-.08734.04046c-.02966.01332-.06052.02478-.09123.03543-.06078.02107-.123.03737-.18492.05444-.04308.01186-.086.02428-.12767.04031l-.01033-.0046a.698.698,0,0,1-.29377-.15785,1.32022,1.32022,0,0,1-.11985-.12934c-.01182-.0143-.02481-.02841-.03783-.04272-.02529-.05978-.048-.1208-.07387-.18015-.02027-.04653-.0402-.09332-.0618-.13925-.02345-.04986-.05393-.09731-.07505-.14787-.00559-.01339-.02516-.00433-.02039.009.01788.05006.02688.10387.04266.155.01571.05085.0332.10118.05028.15159a2.07767,2.07767,0,0,0,.11467.28909,1.58817,1.58817,0,0,0,.1514.2263c.02625.03459.0526.06911.0773.10483.02632.03807.04865.08046.07862.11577.02.02356.06546.00712.05791-.02594a.30636.30636,0,0,0-.02794-.07312c.04969-.01891.09669-.04513.14794-.06149.06115-.01953.12331-.03583.18538-.05215A1.5284,1.5284,0,0,0,6.131,7.07379a.32636.32636,0,0,0,.15811-.10936A.02856.02856,0,0,0,6.25461,6.92224Zm-.66489.27784c-.02586-.03945-.05627-.07661-.083-.11185l-.02056-.02694a.67642.67642,0,0,0,.16492.08741A.26823.26823,0,0,0,5.58972,7.20008Z" /><path d="M5.293,6.13c-.03728-.02573-.082-.03821-.12092-.06123a.52054.52054,0,0,1-.11114-.08528c-.01278-.01331-.0379-.00069-.02908.01788a.28534.28534,0,0,0,.24876.18162A.02966.02966,0,0,0,5.293,6.13Z" /><path d="M3.99074,2.52259A1.2734,1.2734,0,0,0,3.85436,2.384a.42245.42245,0,0,0-.15218-.108.499.499,0,0,0-.16393-.01113.27972.27972,0,0,0-.07864.01467c-.03042.0109-.06113.0428-.09407.0436-.01406.00034-.01672.02216-.00222.02219.04967.00008.09421-.02148.14368-.02319a.602.602,0,0,1,.16629.0154.39167.39167,0,0,1,.14123.10273,1.21673,1.21673,0,0,0,.148.11262C3.98178,2.56536,4.0064,2.54125,3.99074,2.52259Z" /><path d="M3.56775,2.63835c-.00967-.03306.0333-.066.04685-.09463A.30211.30211,0,0,0,3.63314,2.408c.00018-.01622-.0239-.01924-.02548-.00255a.23168.23168,0,0,1-.07428.126.13256.13256,0,0,0-.05262.10454c.00524.06672.06673.10833.08218.17077a.02607.02607,0,0,0,.04635.01084.08627.08627,0,0,0,.00651-.09508A.77182.77182,0,0,1,3.56775,2.63835Z" /><path d="M3.74006,2.99507c-.04462-.01739-.09188-.00092-.138-.01208-.01412-.00342-.03441-.01-.04-.02509-.00668-.01813.016-.05168.02809-.064a.01226.01226,0,0,0-.01552-.019c-.02925.0187-.05852.03069-.068.06787a.0814.0814,0,0,0,.02941.08312.1824.1824,0,0,0,.21094.01092A.0247.0247,0,0,0,3.74006,2.99507Z" /><path d="M3.95153,2.56776c-.02765.01375-.043.04253-.06336.06468-.01063.01156-.02223.022-.03361.03274-.0098.00927-.01635.0204-.02536.02989-.00727.00766-.00328.02244.00909.02029a.13322.13322,0,0,0,.04807-.01311.25988.25988,0,0,0,.04114-.02789A.12808.12808,0,0,0,3.98363,2.591.02319.02319,0,0,0,3.95153,2.56776Z" /><path d="M3.80045,2.51078a.13406.13406,0,0,0-.07965.16209.01183.01183,0,0,0,.01811.00432.27851.27851,0,0,0,.04829-.06362.50192.50192,0,0,0,.04625-.07173C3.84316,2.52072,3.81864,2.50478,3.80045,2.51078Z" /><path d="M4.17834,2.68281c-.02441-.04249-.072-.0455-.10792-.073a.01124.01124,0,0,0-.01664.01362.12878.12878,0,0,0,.04969.04842c.014.00963.046.03262.019.04646a.0265.0265,0,0,0,.008.05021A.05622.05622,0,0,0,4.17834,2.68281Z" /><path d="M4.25765,2.77645a.02482.02482,0,0,0-.03985-.01519.1486.1486,0,0,0-.04414.05952.207.207,0,0,1-.03937.06588c-.01175.00964.00264.02674.01482.01811.01285-.00911.02775-.01214.041-.02045a.21153.21153,0,0,0,.03448-.02717A.09616.09616,0,0,0,4.25765,2.77645Z" /><path d="M6.7998,6.79956a.40911.40911,0,0,1-.13916-.17844c-.03494-.07027-.0846-.15622-.01831-.22317a.01664.01664,0,0,0-.013-.029.10513.10513,0,0,0-.08421.08826.179.179,0,0,0,.00246.077.458.458,0,0,1-.03235.08539c-.01883.0338-.04628.063-.06239.09827a.01086.01086,0,0,0,.009.01449.13639.13639,0,0,0,.12678-.09389.53683.53683,0,0,0,.07485.1194.21289.21289,0,0,0,.12425.074C6.805,6.83543,6.81458,6.80841,6.7998,6.79956Z" /><path d="M6.80611,6.3787a.12452.12452,0,0,0-.02026-.0581.02536.02536,0,0,0-.04315.00717.2075.2075,0,0,0-.008.053l-.00122.02388a.10906.10906,0,0,0,.0011.01726q.001.014.00335.00728a.03086.03086,0,0,0,.06138.00614.13105.13105,0,0,0,.0079-.0233A.17944.17944,0,0,0,6.80611,6.3787Z" /><path d="M7.43618,6.44215c-.02422-.0985-.15708-.12077-.24281-.11438a.387.387,0,0,1-.17025.008c-.02347-.00906-.04286-.02456-.0652-.03564a.14255.14255,0,0,0-.06018-.01273.01027.01027,0,0,0-.00225.02016c.0429.00885.06772.06527.1064.08524a.232.232,0,0,0,.14775.00449l.0011-.00018c.01777.04324.05287.0865.043.13583-.00286.01426.01914.01973.022.00537a.19222.19222,0,0,0-.00818-.1476.29271.29271,0,0,1,.08016.00652.27664.27664,0,0,1,.1135.06582A.02127.02127,0,0,0,7.43618,6.44215Z" /><path d="M7.09792,6.45471c.00568-.01222-.01457-.02325-.02117-.01118-.02172.03978-.05458.10657-.01788.14734a.0221.0221,0,0,0,.03861-.01165.227.227,0,0,0-.00785-.05779A.12159.12159,0,0,1,7.09792,6.45471Z" /><path d="M7.0935,6.73845a.02492.02492,0,0,0-.02568.016c-.0081.02108-.00052.03307.00652.05307.00543.01542.01369.04532-.0058.05528-.01689.00863-.05856-.005-.07735-.00666-.02435-.00211-.04952.00163-.07356-.00248-.01376-.00236-.01923.02019-.00557.024.06438.01813.15147.09085.21186.02614C7.16421,6.86065,7.16042,6.7527,7.0935,6.73845Z" /><path d="M7.3452,6.76285a.23884.23884,0,0,0,.05248-.0621A.0993.0993,0,0,0,7.38582,6.572a.01109.01109,0,0,0-.01609.01389c.02046.0586-.05033.09338-.08546.12179a.16767.16767,0,0,0-.07068.1337c.00014.05751.01084.113-.04042.152a.25791.25791,0,0,1-.169.02743A.291.291,0,0,0,6.832,7.054a.1704.1704,0,0,0-.08264.13008c-.00591.10671.10056.156.18144.1803.07007.021.14085.03972.21123.05954.036.01013.07219.01919.10819.02918a.1959.1959,0,0,1,.08218.03673c.01979.01762.04534-.01389.03025-.03423a.22949.22949,0,0,0-.12821-.07632c-.06278-.01988-.12622-.03754-.18938-.05605-.05485-.01607-.2456-.04851-.20294-.15109.02311-.05557.09034-.0648.14047-.06707a.72139.72139,0,0,0,.17451-.01359.19345.19345,0,0,0,.12055-.098.19587.19587,0,0,0,.02152-.07806.77108.77108,0,0,1-.00237-.08911A.12313.12313,0,0,1,7.3452,6.76285Z" /><path d="M7.802,7.19186a.3939.3939,0,0,0-.09251-.04848.72143.72143,0,0,1-.09462-.02924.05867.05867,0,0,1-.02548-.073.39368.39368,0,0,0,.07126-.20148.31065.31065,0,0,0-.21159-.34042c-.01713-.0026-.02165.0216-.01074.03257a.38123.38123,0,0,1,.12986.31939.30992.30992,0,0,1-.25333.25258.61547.61547,0,0,1-.20877.02392.08315.08315,0,0,0-.06487.01523.07062.07062,0,0,0-.01613.07764c.02528.06155.101.0554.14985.06025a1.26744,1.26744,0,0,1,.21458.04.44016.44016,0,0,1,.18759.0857.1672.1672,0,0,1,.04751.182c-.00874.02059.018.04224.03243.02629a.18519.18519,0,0,0,.03387-.17607A.24394.24394,0,0,0,7.57,7.29392a.733.733,0,0,0-.19164-.06934q-.03567-.009-.07191-.016a.52943.52943,0,0,0,.12408-.03781.3895.3895,0,0,0,.08106-.04853.17411.17411,0,0,0,.1406.10629.38584.38584,0,0,1,.18128.11.2513.2513,0,0,1,.08181.22147c-.00485.0164.015.02389.02169.00915A.31631.31631,0,0,0,7.802,7.19186Z" /><path d="M7.5332,7.45152a.16761.16761,0,0,0-.05544-.06145.41891.41891,0,0,0-.09056-.02971c-.015-.00512-.0236.01908-.00855.02424a.17994.17994,0,0,1,.10264.11664.083.083,0,0,1-.06708.09714c-.043.01327-.08884.01171-.13226.02324a.1922.1922,0,0,0-.10892.06986.02837.02837,0,0,0,.03991.03927.28924.28924,0,0,1,.16336-.03685.2142.2142,0,0,0,.1498-.07209A.15672.15672,0,0,0,7.5332,7.45152Z" /></svg>