<svg xmlns="http://www.w3.org/2000/svg" data-name="Layer 1" viewBox="2.5647076806357068 1.845088207510295 4.8688034962880895 6.308991792489706" x="0px" y="0px"><title>KAMASUTRA</title><path d="M4.66023,2.71969a.2447.2447,0,0,1-.12379.07282.25465.25465,0,0,1-.08239.00546.42254.42254,0,0,0,.04456-.11883.6498.6498,0,0,0,.01112-.16867A1.06088,1.06088,0,0,1,4.49889,2.299c.0032-.01943-.02671-.02208-.03024-.003-.011.05939-.02663.11784-.03364.178-.00633.05434-.00695.10852-.01743.16245a.35242.35242,0,0,1-.04469.12014.41528.41528,0,0,1-.03513.05.15959.15959,0,0,0-.06983.04631.28014.28014,0,0,0-.05939.11444.02083.02083,0,0,0,.03634.0192.2933.2933,0,0,1,.08937-.08921l.00349-.00146a.08836.08836,0,0,0,.02719-.00873c.036-.00832.07368-.00628.11043-.01324a.3208.3208,0,0,0,.12013-.047.31644.31644,0,0,0,.08146-.09546A.01024.01024,0,0,0,4.66023,2.71969Z" /><path d="M5.14,5.16762a.66251.66251,0,0,1-.06214-.083.861.861,0,0,1-.04344-.0984,1.57838,1.57838,0,0,0-.1055-.18741c-.08068-.12143-.17632-.23246-.25342-.35633a.9098.9098,0,0,1-.09221-.19137c-.02549-.07628-.03478-.15669-.05614-.23408a3.11353,3.11353,0,0,0-.17-.41986c-.03252-.07392-.06244-.14864-.08932-.2248a.9612.9612,0,0,1-.06415-.24073c-.00108-.01309-.02037-.01141-.02211.00063a.80227.80227,0,0,0-.005.22237.91685.91685,0,0,0,.064.21509c.027.06743.05713.13342.08709.19951-.00257.03106-.00521.06214-.00617.093a.55238.55238,0,0,1-.02693.19019.37553.37553,0,0,1-.09476.12865c-.04042.03916-.0761.08343-.11533.12377-.01173.01206-.00109.03418.01635.02659a.54719.54719,0,0,0,.16241-.08925.44546.44546,0,0,0,.10906-.1499A.37522.37522,0,0,0,4.39827,3.931c.00872.02144.01717.043.02516.06477.02811.07651.04449.15564.06635.234a.9399.9399,0,0,0,.08507.20542,4.3087,4.3087,0,0,0,.251.36437,1.77233,1.77233,0,0,1,.12645.21133.95515.95515,0,0,0,.07026.10546.25759.25759,0,0,0,.08861.08216C5.13057,5.20937,5.15733,5.18684,5.14,5.16762Z" /><path d="M4.27552,5.31372a.971.971,0,0,1-.22187-.23814A.68163.68163,0,0,1,3.95548,4.76a.62359.62359,0,0,1,.01509-.1692.47277.47277,0,0,1,.06326-.16616.01392.01392,0,0,0-.02271-.01608.61114.61114,0,0,0-.12365.2364.60082.60082,0,0,0-.00471.24966.89948.89948,0,0,0-.12387.02856c-.04731.01554-.09374.03421-.13942.054a2.69921,2.69921,0,0,0-.26775.13585,1.94237,1.94237,0,0,0-.46108.32774.50094.50094,0,0,0-.14.23914.01178.01178,0,0,0,.0212.00793.72456.72456,0,0,1,.21591-.2352c.09068-.06275.18475-.1198.27863-.17756a3.4059,3.4059,0,0,1,.31579-.17481c.054-.0258.109-.04957.16511-.07061.05157-.01936.10309-.04054.15522-.05845a.86075.86075,0,0,0,.2856.39729A.78735.78735,0,0,1,4.37179,5.57c.015.02477.06055.02631.06206-.00992C4.43835,5.45217,4.3516,5.37757,4.27552,5.31372Z" /><path d="M4.43023,7.45411a.8313.8313,0,0,1-.13959-.06816.18049.18049,0,0,1-.04815-.13865.33358.33358,0,0,0-.033-.14773c-.01367-.02351-.03873-.04211-.04566-.06873a.19274.19274,0,0,1,.00149-.10223c.00635-.01555-.01766-.0243-.02435-.00906-.01522.03469-.04432.05686-.04889.09731a.13106.13106,0,0,0,.02966.0957.30355.30355,0,0,1,.0403.177.21861.21861,0,0,0,.07949.16577.24214.24214,0,0,0,.18451.04081A.022.022,0,0,0,4.43023,7.45411Z" /><path d="M5.26056,6.04517a.47845.47845,0,0,0-.20406-.22184.60014.60014,0,0,0-.23732-.09778,1.1203,1.1203,0,0,0,.06588-.19694C4.89,5.504,4.8532,5.492,4.84019,5.51184a.98634.98634,0,0,0-.085.1767c-.02614.06454-.05254.129-.07848.19361-.05094.127-.09463.25715-.1327.38852A2.57663,2.57663,0,0,0,4.4287,7.06a.7301.7301,0,0,0,.0262.20455.30043.30043,0,0,0,.04306.08491c.01966.027.069.06924.03249.10287a.00935.00935,0,0,0,.00966.01572.08063.08063,0,0,0,.03213-.10656c-.01057-.0273-.029-.05048-.039-.07816a.38756.38756,0,0,1-.0172-.09354,1.942,1.942,0,0,1,.00582-.41227,3.59543,3.59543,0,0,1,.2057-.8021c.02346-.06617.0465-.1324.07148-.198.06713.04171.13565.081.20075.126.078.05393.1421.12336.22381.172A.025.025,0,0,0,5.26056,6.04517Z" /><path d="M4.87945,5.32864a.68141.68141,0,0,0-.0299-.14766c-.02866-.09887-.05683-.19816-.08931-.29586-.05253-.158-.14782-.35238-.33368-.37746a.02588.02588,0,0,0-.0174.04653.6086.6086,0,0,1,.1569.14913.81958.81958,0,0,1,.10942.226c.02912.08489.05531.17084.08321.25615.01389.04249.02926.08448.043.127a.487.487,0,0,1,.03139.14513c-.00017.014.02067.02117.02546.0059A.35589.35589,0,0,0,4.87945,5.32864Z" /><path d="M3.0616,6.91973c-.00657-.0554-.01376-.11063-.02406-.16548-.021-.1116-.04752-.22242-.07685-.33209C2.9321,6.31525,2.9,6.20883,2.86553,6.10368q-.02635-.08037-.04512-.16279a.65874.65874,0,0,1-.02475-.17681c.001-.02064-.03076-.024-.03207-.00321a1.43855,1.43855,0,0,0-.00752.1645,1.14235,1.14235,0,0,0,.024.17026c.02223.10882.05829.21469.08727.32185q.04367.16144.07658.32554c.00753.03753.01548.075.02345.11239a.43471.43471,0,0,0-.10516.00286.537.537,0,0,0-.09361.01275.39587.39587,0,0,0-.0864.03589.01411.01411,0,0,0,.01141.02578.478.478,0,0,1,.1526-.0119c.0239.00079.04731.004.07106.00649a.08166.08166,0,0,1,.04924.01157.03207.03207,0,0,0,.01875.00856.36221.36221,0,0,0,.03435.12892c.01021.017.04072.02264.04758-.00144A.41288.41288,0,0,0,3.0616,6.91973Z" /><path d="M3.14972,7.2978c-.02149-.01114-.0433-.00507-.06389-.02209-.02165-.01789-.0371-.04274-.0582-.06147A.56818.56818,0,0,0,2.87284,7.132c-.06119-.02681-.12241-.05378-.18421-.07916-.02088-.00858-.056-.01572-.069-.03621-.0126-.01986-.00654-.04-.02729-.05569a.01741.01741,0,0,0-.027.01675c.00543.028-.00851.05017.00688.07777a.14112.14112,0,0,0,.06266.05259c.07254.03741.14841.06924.2229.10255a.64538.64538,0,0,1,.09758.04765.56812.56812,0,0,1,.069.06782c.0328.031.12965.06828.14075-.00356A.02454.02454,0,0,0,3.14972,7.2978Z" /><path d="M4.3778,5.64017a.01326.01326,0,0,0-.02536-.00254,2.03355,2.03355,0,0,1-.11618.27843L4.235,5.9008a1.06434,1.06434,0,0,0-.02165-.135.49431.49431,0,0,0-.01746-.06684.59027.59027,0,0,1,.1186-.01512.024.024,0,0,0,.01069-.04609.44492.44492,0,0,0-.32426.02632c-.10862.04209-.21151.09629-.32179.13469a1.96536,1.96536,0,0,1-.34511.085,1.61529,1.61529,0,0,1-.16065.018.18588.18588,0,0,1-.12744-.029.01367.01367,0,0,0-.0212.01317c.0221.08258.10442.09946.18091.09947.00821.01464.01728.029.02457.04389a.78932.78932,0,0,1,.03328.07938.96117.96117,0,0,1,.04074.15766,1.47749,1.47749,0,0,1,.00941.355c-.00865.132-.027.26352-.03.3958-.00115.05167-.00185.103-.00543.15462a.29367.29367,0,0,1-.04.16c-.00784.01044.00772.02585.01723.01607a.31868.31868,0,0,0,.06918-.0943.37617.37617,0,0,0,.03109-.12583c.0087-.10459.0096-.20935.02054-.31391a1.75625,1.75625,0,0,0,.0027-.62012A.66165.66165,0,0,0,3.284,5.981a1.76973,1.76973,0,0,0,.33893-.06429c.02585-.0075.05128-.01578.0765-.02448a1.377,1.377,0,0,0,.05969.35306c.01608.06514.034.12981.05017.19493.00859.03459.01665.06931.02484.104.0042.01782.02126.06053.011.07874-.01406.02492.00844.06481.03946.04823.064-.0342.04405-.107.03134-.16531-.01652-.07573-.03727-.15087-.05828-.22547-.0205-.07281-.04121-.14548-.06093-.21851-.01675-.062-.032-.12483-.05212-.18589.07529-.02815.14865-.06053.2225-.09411a1.56325,1.56325,0,0,1,.14911-.0604c.00448.02394.01326.04824.01779.06944A1.05411,1.05411,0,0,1,4.15317,5.92a1.04174,1.04174,0,0,1-.01245.26815c-.01491.08546-.03976.169-.05176.255a.53779.53779,0,0,0,.01792.25083c.00568.01738.03161.008.02962-.00873a.86728.86728,0,0,1,.04676-.33158c.00928.057.02043.1137.0278.171a.83656.83656,0,0,1,.00682.14941c-.00124.02456-.00116.049-.00426.07346a.42734.42734,0,0,1-.01052.0819.01952.01952,0,0,0,.03408.018.551.551,0,0,0,.04355-.06155.32755.32755,0,0,0,.02369-.07443A.51507.51507,0,0,0,4.30875,6.562c-.00888-.11295-.03963-.22294-.04772-.336a.74648.74648,0,0,1,.05413-.31045A.69748.69748,0,0,0,4.3778,5.64017Z" /><path d="M4.0592,6.77317a.11733.11733,0,0,1-.11053.0557.13089.13089,0,0,1-.06345-.04316A.667.667,0,0,0,3.81682,6.722a.4632.4632,0,0,0-.07591-.04689c-.021-.01053-.06031-.017-.07483-.03512a.54861.54861,0,0,1-.03446-.07547l.0019-.00251c.00454-.0012.01194-.01112.01586-.01422a.08676.08676,0,0,1,.04905-.02125.014.014,0,0,0,.00268-.02678.11685.11685,0,0,0-.101.01794.061.061,0,0,0-.03218.083.18518.18518,0,0,0,.06268.11247.38591.38591,0,0,0,.0571.024.37289.37289,0,0,1,.06517.0359c.06686.04568.11259.12867.2007.13416a.14654.14654,0,0,0,.15878-.11427A.02961.02961,0,0,0,4.0592,6.77317Z" /><path d="M5.88809,6.6098c-.0122-.01691-.02725-.03055-.03865-.04861-.01405-.02225-.028-.04442-.0436-.06569a.24484.24484,0,0,0-.0542-.05591c-.02818-.02-.06264-.02751-.0899-.04883-.05232-.04092-.09713-.09466-.14541-.14038-.05194-.04919-.10671-.09728-.15418-.15083a.0165.0165,0,0,0-.02552.02088,1.34386,1.34386,0,0,0,.266.35385c.02708.02191.06114.03024.08916.04988a.20858.20858,0,0,1,.04664.05474c.0272.03906.07667.09286.13086.08029A.03089.03089,0,0,0,5.88809,6.6098Z" /><path d="M6.11057,6.98513a.50394.50394,0,0,0-.08555-.129.53482.53482,0,0,1-.09807-.1242c-.00929-.02256-.04344-.00723-.03453.01529a1.10682,1.10682,0,0,0,.05193.12445c.02142.03942.04633.07632.06526.11716a.61107.61107,0,0,1,.00274.31872,3.10693,3.10693,0,0,0-.01336.366c.0016.05707.00706.11309.01129.16989.00239.032,0,.09293-.03123.11159a.01454.01454,0,0,0,.00811.02751c.10907-.00614.10388-.14868.10432-.22723.00075-.13543.00376-.27043.01451-.40549.00549-.06892.0141-.13735.02192-.206A.31692.31692,0,0,0,6.11057,6.98513Z" /><path d="M6.19984,8.07038a.01817.01817,0,0,0-.01612-.01522c-.02305-.00022-.04106.01525-.06438.01785a.257.257,0,0,1-.07181-.005,1.441,1.441,0,0,0-.18505-.03743c-.06264-.003-.12527.00367-.18787.00433A.35941.35941,0,0,1,5.50367,8.012a.01632.01632,0,0,0-.01885.02662.31847.31847,0,0,0,.16541.07346c.07382.00988.149-.00354.2231.003a1.26857,1.26857,0,0,0,.2086.039C6.12384,8.15065,6.20437,8.12361,6.19984,8.07038Z" /><path d="M6.48129,7.01409a.03264.03264,0,0,0-.05985.00182.64245.64245,0,0,0-.013.12365,1.19541,1.19541,0,0,1-.01493.12672,1.832,1.832,0,0,1-.06276.24472c-.02577.08166-.05443.16256-.0768.24527-.02221.08213-.04011.165-.05816.248-.003.01384.01961.01882.024.00557.02763-.08269.06617-.16171.1017-.24121q.05479-.12259.09772-.25a1.68662,1.68662,0,0,0,.06468-.24914A.47988.47988,0,0,0,6.48129,7.01409Z" /><path d="M6.7845,6.428a.37421.37421,0,0,0-.08124.06993.11864.11864,0,0,1-.10661.03073c-.08694-.01293-.17009-.07837-.26005-.05687q-.01995-.0513-.04233-.10174c-.03722-.08391-.08651-.16351-.12084-.2484-.02427-.06-.04284-.13276-.119-.14084a.02218.02218,0,0,0-.01491.03986c.02355.01648.01937.05338.02434.07844a.38187.38187,0,0,0,.03811.10314c.0396.07577.07849.15154.11309.22976.034.07676.06582.15456.09653.23267.01569.03989.03242.07921.049.11873a1.22642,1.22642,0,0,1,.055.13125c.00488.01694.03166.01378.02784-.0044-.00964-.04593-.01063-.09309-.019-.13935a1.27993,1.27993,0,0,0-.03168-.13546q-.01089-.03678-.02319-.073c.03512.01068.07246.01715.10649.02829a.42076.42076,0,0,0,.14328.02774.17338.17338,0,0,0,.11979-.04653c.03421-.03444.03386-.08614.06374-.12156C6.81216,6.43931,6.79725,6.42073,6.7845,6.428Z" /><path d="M5.38458,5.3536a.40563.40563,0,0,1-.04906-.03847.30855.30855,0,0,0-.04969-.04757.176.176,0,0,0-.12466-.03809.01321.01321,0,0,0-.008.02106.28446.28446,0,0,0,.05112.04644.62242.62242,0,0,1,.05338.057c.028.0324.06209.07846.11072.069A.03893.03893,0,0,0,5.38458,5.3536Z" /><path d="M5.53872,5.38907A.39622.39622,0,0,1,5.505,5.36147a.27506.27506,0,0,1-.023-.03913.16578.16578,0,0,0-.06255-.06256.221.221,0,0,1-.0722-.05.01271.01271,0,0,0-.02223.01.11453.11453,0,0,0,.03458.05839.2197.2197,0,0,1,.05275.06957c.01769.0389.07065.13939.12819.09231A.03218.03218,0,0,0,5.53872,5.38907Z" /><path d="M5.58474,5.25187A.31119.31119,0,0,0,5.566,5.194a.537.537,0,0,0-.03582-.05579.429.429,0,0,0-.08612-.09733.01369.01369,0,0,0-.02121.01317.31048.31048,0,0,0,.02259.07338l-.0021-.00257a1.22356,1.22356,0,0,0-.14994-.1227.47353.47353,0,0,0-.01169-.05235C5.27413,4.9265,5.266,4.90338,5.258,4.88018c-.01643-.04752-.03134-.09539-.04354-.14418-.02414-.09658-.04418-.19489-.05995-.29318a2.8819,2.8819,0,0,1-.03075-.29173c-.00287-.05-.00563-.1-.00684-.15-.00055-.02274-.00206-.04545-.003-.06817-.00087-.021-.00479-.044-.00552-.06585.00671-.0149.01408-.02943.02129-.04413a.27509.27509,0,0,1,.01959-.03223l.0144-.00476a.26966.26966,0,0,0,.147-.15543.20176.20176,0,0,0-.03631-.20235.31379.31379,0,0,1-.06313-.24025c.00354-.02116-.02785-.02311-.03244-.00324a.38811.38811,0,0,0-.00269.1809.366.366,0,0,0,.03139.0845.30147.30147,0,0,1,.04221.08561.16935.16935,0,0,1-.0695.1502.12784.12784,0,0,1-.15626.00833.02667.02667,0,0,0-.03944.03227.10314.10314,0,0,0,.07307.06579.23252.23252,0,0,0-.02043.02665.54589.54589,0,0,0-.05906.1374,1.12335,1.12335,0,0,0-.0429.172c-.00357.02388-.00765.04988-.01055.07622-.0322-.05967-.06917-.11664-.10106-.17647A1.28623,1.28623,0,0,1,4.727,3.7738a.19294.19294,0,0,0,.05432-.00785.203.203,0,0,0,.14649-.16259.26476.26476,0,0,0-.0185-.12328.01245.01245,0,0,0-.02457.00388.234.234,0,0,1-.05919.16868.14335.14335,0,0,1-.06593.03767.4374.4374,0,0,1-.05493.00285c-.00925-.03409-.01844-.06819-.02824-.102-.02422-.08374-.05033-.16678-.07667-.24988a1.35614,1.35614,0,0,0-.09629-.254.01084.01084,0,0,0-.02051.006,1.24157,1.24157,0,0,0,.04123.2428c.01835.07909.03624.1583.05672.23686a2.20394,2.20394,0,0,0,.14243.45288c.0334.06512.07331.12664.10927.19033a1.45477,1.45477,0,0,1,.09459.20454c.05191.13832.079.28334.126.42289a.36928.36928,0,0,0,.14276.188,1.30042,1.30042,0,0,0,.21918.13275A.02613.02613,0,0,0,5.44892,5.135a.35421.35421,0,0,0,.02544.04486l-.00226.00557a.172.172,0,0,0,.00067.07821.116.116,0,0,0,.0399.0673.02573.02573,0,0,0,.03807-.03115c-.00786-.01931-.023-.03475-.032-.05372L5.509,5.22385a.31707.31707,0,0,0,.05.04405C5.56947,5.27531,5.58885,5.26612,5.58474,5.25187Zm-.62142-.96948c.01547-.03643.02645-.07616.04013-.11239.01844-.04886.03386-.09848.04949-.14825-.00325.0417-.00493.08359-.00447.12538a2.07549,2.07549,0,0,0,.01594.23329l-.00827-.00615c-.0211-.01511-.04924-.0276-.07218-.04432Zm.17662.54791c-.02565-.06649-.03939-.138-.05839-.20659-.01907-.06884-.03947-.13739-.06333-.20474l.00393.00333a.147.147,0,0,1,.04523.05463.05533.05533,0,0,0,.01519.02167,1.85926,1.85926,0,0,0,.06487.25081c.01608.04821.03284.0963.05106.14375.00659.01716.01335.03421.02071.051A.29482.29482,0,0,1,5.13994,4.8303Z" /><path d="M4.7567,2.56365a.45227.45227,0,0,1-.07356-.0883.4612.4612,0,0,1-.02029-.04811c-.00408-.01012-.00437-.00784.00823-.00486.015.00354.026-.00154.04105.00912a.01411.01411,0,0,0,.01629-.023c-.028-.02085-.051-.05094-.09051-.04731a.057.057,0,0,0-.04753.06813.27981.27981,0,0,0,.11914.18491C4.74121,2.63271,4.7852,2.59471,4.7567,2.56365Z" /><path d="M5.10364,2.83313c-.05891.038-.12083-.00978-.17332-.039-.02824-.01573-.0561-.03163-.0833-.04916-.0126-.00812-.025-.01646-.03689-.02564L4.78,2.69417c.0079-.00865-.00433-.01978-.01339-.01637-.07641.02879.10561.159.12962.17426a.3499.3499,0,0,0,.13858.06535.09828.09828,0,0,0,.106-.05773A.02389.02389,0,0,0,5.10364,2.83313Z" /><path d="M5.27478,2.082a.48079.48079,0,0,0-.23684-.21033.35219.35219,0,0,0-.31037.02063.37986.37986,0,0,0-.18687.27263c-.00241.02341.03555.03354.04253.00958a.30933.30933,0,0,1,.16018-.1968.34694.34694,0,0,1,.2528-.0232.3946.3946,0,0,1,.243.25028.14693.14693,0,0,0-.16446-.01034.37213.37213,0,0,0-.11344.13009.19757.19757,0,0,1-.06113.06569.2031.2031,0,0,1-.08859.02673.01046.01046,0,0,0-.00467.02012.13414.13414,0,0,0,.06927.01615.17448.17448,0,0,0,.0662-.01864.33775.33775,0,0,0,.10728-.10846c.02761-.03728.06705-.08834.12011-.07093.04668.01532.06951.065.09864.103.00044.01292.00044.02581-.00011.03862a.7726.7726,0,0,1-.008.07992l-.0154-.00258a.09438.09438,0,0,0-.03979.00782c-.01615.00521-.01073.03079.00509.03183.01019.00067.02.00441.03015.00593l.01219.0028-.00414.02093-.011.0071a.04267.04267,0,0,0-.01707.01956l-.0028.0034c-.00739.0093.004.02059.01384.01691l.00227-.00081h.00473a1.66773,1.66773,0,0,0-.04234.1722c-.00119.00919.01048.01162.01586.00576a.51841.51841,0,0,0,.09256-.17092A.68115.68115,0,0,0,5.343,2.41572.5795.5795,0,0,0,5.27478,2.082Z" /><path d="M5.4183,3.28843a1.4576,1.4576,0,0,0-.03569-.28451.21211.21211,0,0,0-.12624-.163.01379.01379,0,0,0-.01272.02407.27557.27557,0,0,1,.08184.19135c.0117.09384.01593.18906.0209.28345.00516.0981.00621.19614.00551.29435-.00035.04861-.00146.09717-.00056.14577a.51844.51844,0,0,0,.01116.14173c.00459.0146.02387.0099.02917-.00088a.46593.46593,0,0,0,.02924-.15379c.00511-.05257.00658-.10552.00689-.15833C5.42843,3.50194,5.42611,3.39485,5.4183,3.28843Z" /><path d="M5.9146,5.07295c-.00247-.016-.00183-.03238-.00339-.04852A.22579.22579,0,0,0,5.8878,4.944a.49334.49334,0,0,0-.139-.14754c-.05545-.04488-.11361-.086-.17214-.12675A.872.872,0,0,0,5.412,4.57294c.0023-.05815.00488-.11629.00639-.17432.00163-.063.003-.12575.00133-.18874-.00182-.06779-.00877-.13556-.00942-.2033-.00019-.01956-.02947-.02354-.031-.0031-.00494.0669-.01637.13326-.02232.20013s-.00867.134-.01123.20124-.00489.13443-.007.20166c-.002.06308-.00781.12757-.00423.19065a.19044.19044,0,0,0,.05829.132,1.06342,1.06342,0,0,0,.1079.07828.23338.23338,0,0,1,.07576.113.20761.20761,0,0,0,.07646.11585c.02052.01117.05089-.00632.03862-.0316a1.25556,1.25556,0,0,1-.054-.12737A.26308.26308,0,0,0,5.56377,4.964c-.03128-.02737-.06836-.04656-.10132-.07165a.13638.13638,0,0,1-.05525-.12069c-.00009-.04366.00089-.08739.0023-.13113a3.02819,3.02819,0,0,0,.27629.21327,1.28969,1.28969,0,0,1,.14414.12573.12639.12639,0,0,1,.0313.08566c.00268.02621.00754.052.03411.06212A.0178.0178,0,0,0,5.919,5.11257.13407.13407,0,0,0,5.9146,5.07295Z" /><path d="M6.5002,5.84985c-.03935-.0468-.08911-.02352-.13029.01483A.13345.13345,0,0,1,6.33014,5.831c-.01076-.01423-.02888-.03127-.02782-.05086A.01373.01373,0,0,0,6.275,5.7774a.1372.1372,0,0,0-.00323.08576.12711.12711,0,0,0,.04966.05723l-.01881.02807a.29988.29988,0,0,0-.04827.24733.01337.01337,0,0,0,.02639-.00417.26073.26073,0,0,1,.06245-.18652.30415.30415,0,0,1,.14387-.12077A.0215.0215,0,0,0,6.5002,5.84985Z" /><path d="M7.03969,6.49256c-.01192.02319-.02426.04561-.03615.068A.2757.2757,0,0,0,6.97539,6.39a.63929.63929,0,0,1-.07509-.12623.02669.02669,0,0,0-.00965-.03759.29238.29238,0,0,0-.14447-.22233c-.05143-.04477-.11236-.078-.16351-.12242-.00909-.0079-.02306.00692-.01457.01563a.9.9,0,0,1,.06548.0786l-.00457.0007a.18778.18778,0,0,0-.05862.025.12268.12268,0,0,0-.02083.016c-.00824.00842-.011.02088-.0199.02845a.01373.01373,0,0,0,.01738.02125c.00683-.00467.01532-.00243.02309-.0038a.2032.2032,0,0,0,.022-.00674c.01566-.00466.03169-.00885.04757-.01273A.03692.03692,0,0,0,6.66752,6.018l.02315.026a.42024.42024,0,0,1,.10922.12959c.008.02279.01108.04706.01839.07011A.19482.19482,0,0,0,6.779,6.2758a.018.018,0,0,0,.02274.0278.16669.16669,0,0,1,.03713-.01727l.01652.02449a.32712.32712,0,0,1,.05785.14409.4194.4194,0,0,1-.07654.29446.20339.20339,0,0,1-.1095.07671.34847.34847,0,0,1-.13776-.00335.01853.01853,0,0,0-.01859.02566c.03191.08381.15617.082.22474.0519a.30567.30567,0,0,0,.13432-.12269c-.0081.05673-.01111.11447-.01456.17129a2.76788,2.76788,0,0,0-.00485.52938c.0023.01752.0314.02226.036.0036a2.75192,2.75192,0,0,0,.05387-.51252c.00423-.0776.01078-.15477.02-.23193a.76072.76072,0,0,1,.04329-.2359C7.07085,6.48647,7.04709,6.47817,7.03969,6.49256Z" /><path d="M5.87516,7.13241a.76232.76232,0,0,1-.12015-.0429.19011.19011,0,0,1-.0918-.05977c-.03584-.05489-.02992-.1268-.06613-.18267-.03269-.05044-.09461-.07446-.12583-.12448a.17261.17261,0,0,1-.00489-.11838c.00659-.04461.0027-.08951.00905-.1339.00211-.01473-.02183-.02081-.02581-.006-.02316.08621-.08142.17548-.05246.26836.02256.07235.093.09929.13195.15866.04058.06189.02527.146.08323.19961a.42063.42063,0,0,0,.25785.063C5.88217,7.15477,5.888,7.13557,5.87516,7.13241Z" /><path d="M5.79843,6.8679c-.01145-.06383.01813-.192-.0624-.22056A.02654.02654,0,0,0,5.701,6.676a.32849.32849,0,0,0,.01517.04844.23713.23713,0,0,1,.00718.0545.56074.56074,0,0,0,.00907.11345.18221.18221,0,0,0,.05586.09092c.0279.02545.06319.0461.07428.08482.004.014.02828.017.02831-.00081C5.891,6.98682,5.81189,6.94291,5.79843,6.8679Z" /><path d="M5.8557,7.90182a.12066.12066,0,0,0-.08854-.01034c-.03114.00309-.06241.00556-.09344.00965a.959.959,0,0,0-.18656.04311c-.01326.00457-.008.02339.004.02516a.98708.98708,0,0,0,.1877.00737c.03132-.00141.06256-.00476.09379-.00749a.12286.12286,0,0,0,.08452-.02455A.02738.02738,0,0,0,5.8557,7.90182Z" /><path d="M5.81126,7.78728a.39007.39007,0,0,0-.10785.02314.60026.60026,0,0,0-.12456.04464c-.01048.00608-.01033.02417.004.02516A1.187,1.187,0,0,0,5.76836,7.858a.19083.19083,0,0,1,.08351.00592c.02364.0089.0388.033.065.03377A.02644.02644,0,0,0,5.9437,7.881C5.96192,7.81412,5.86055,7.78652,5.81126,7.78728Z" /><path d="M7.10892,7.66192a.01706.01706,0,0,0-.01264-.01653c-.02133-.00367-.04034.00795-.06234.00685a.24125.24125,0,0,1-.06578-.01544,1.35265,1.35265,0,0,0-.16582-.06254c-.05759-.01217-.11661-.01546-.17471-.02427a.33736.33736,0,0,1-.15493-.04693.01532.01532,0,0,0-.02147.02182.29893.29893,0,0,0,.1422.093c.06691.02027.13856.01914.20625.03636a1.19076,1.19076,0,0,0,.18741.06749C7.02643,7.72485,7.1051,7.71192,7.10892,7.66192Z" /><path d="M6.8289,7.46067a.11326.11326,0,0,0-.08048-.02291c-.02932-.00182-.05867-.00424-.088-.00513a.90023.90023,0,0,0-.17934.01186c-.013.00224-.0109.02047-.00006.02391a.92654.92654,0,0,0,.1728.03508c.02923.00341.05868.005.088.00718a.11532.11532,0,0,0,.082-.01A.0257.0257,0,0,0,6.8289,7.46067Z" /><path d="M6.75952,7.31755a.36615.36615,0,0,0-.1034.00521.56344.56344,0,0,0-.12213.02261c-.01063.00406-.01321.02084-.00006.02391a1.11424,1.11424,0,0,0,.17519.00736.17912.17912,0,0,1,.07649.01806c.02056.01181.031.0364.05514.04107a.02482.02482,0,0,0,.02738-.01146C6.89506,7.3651,6.8053,7.32427,6.75952,7.31755Z" /><path d="M6.76269,5.919a2.418,2.418,0,0,1-.12786-.24926,1.01414,1.01414,0,0,0-.17154-.20687,1.31114,1.31114,0,0,0-.4483-.2834,1.09742,1.09742,0,0,0-.146-.04254.3249.3249,0,0,1-.15844-.05442c-.0117-.0121-.0322.00448-.02039.01668a.45944.45944,0,0,0,.0937.088.62823.62823,0,0,0,.12622.05329,1.26076,1.26076,0,0,1,.24184.10761,1.36338,1.36338,0,0,1,.39561.3574c.03009.03907.06248.07745.089.119a.46612.46612,0,0,0,.10112.12134C6.75441,5.95913,6.77516,5.93507,6.76269,5.919Z" /><path d="M7.394,6.54541a.85673.85673,0,0,0-.13939-.191c-.05826-.065-.11636-.13028-.17642-.19367-.03091-.03262-.06193-.065-.09412-.09633A.45725.45725,0,0,0,6.94186,6.027.536.536,0,0,1,6.876,5.97956c-.01229-.01267-.03287.00341-.02153.01762.02521.03157.03743.07269.06125.10589.02478.03454.05183.06737.07866.10031.05226.06417.10625.12686.16033.18949a1.10952,1.10952,0,0,1,.136.1721,1.75607,1.75607,0,0,1,.07131.21051.03231.03231,0,0,0,.05917-.00179A.28645.28645,0,0,0,7.394,6.54541Z" /><path d="M7.37737,6.82654a2.33556,2.33556,0,0,0-.20506.46611c-.02856.07753-.0567.15521-.08074.23427a.18154.18154,0,0,1-.04928.0949.0883.0883,0,0,1-.043.01744.14474.14474,0,0,0-.02345.00352l-.00721.00212q-.01008.00827-.00489.00126a.01939.01939,0,0,0-.013.03486c.01348.00937.01755.01986.03605.02389A.09929.09929,0,0,0,7.03394,7.701a.182.182,0,0,0,.0883-.06155.77726.77726,0,0,0,.11239-.24564,2.56367,2.56367,0,0,0,.1646-.55914A.01216.01216,0,0,0,7.37737,6.82654Z" /><path d="M5.08939,2.47879c-.02046-.02062-.05036-.01315-.07623-.00607a.22239.22239,0,0,0-.074.03733.00879.00879,0,0,0,.00909.01479.161.161,0,0,1,.07422-.01791c.02076,0,.04087.01039.06015.00023A.01852.01852,0,0,0,5.08939,2.47879Z" /><path d="M5.03906,2.56475a.23975.23975,0,0,0-.09407.01133c-.00885.002-.00953.016.00047.01663a.24486.24486,0,0,0,.09734-.00456C5.05533,2.5837,5.05,2.56672,5.03906,2.56475Z" /><path d="M5.18566,2.55878c-.00031-.01166-.01779-.01859-.0219-.00508a.12092.12092,0,0,0,.01245.1202c.00849.00843.02791.00673.02786-.00841C5.204,2.62953,5.18662,2.59515,5.18566,2.55878Z" /><path d="M5.14549,2.74572a.10911.10911,0,0,0-.03857.00292.07875.07875,0,0,1-.04351.00481.0106.0106,0,0,0-.00739.01987.20419.20419,0,0,1,.02653.01279.05435.05435,0,0,0,.02564.00727.05567.05567,0,0,0,.0495-.02086A.01719.01719,0,0,0,5.14549,2.74572Z" /><path d="M6.60545,6.29118a.149.149,0,0,0-.04288.01786.11434.11434,0,0,0-.0377.02978c-.00969.01379-.00751.04841.01727.04148a.01724.01724,0,0,0,.01027-.00865l.002-.00014.02649-.008a.1545.1545,0,0,0,.04581-.02484C6.64645,6.32253,6.63232,6.28489,6.60545,6.29118Z" /><path d="M6.67486,6.07542a.0833.0833,0,0,0-.02979.0115.252.252,0,0,0-.02425.01961.01216.01216,0,0,0,.00952.02126.22481.22481,0,0,0,.03094-.00423.0855.0855,0,0,0,.02891-.01392A.01958.01958,0,0,0,6.67486,6.07542Z" /></svg>