<svg xmlns="http://www.w3.org/2000/svg" data-name="Layer 1" viewBox="2.1556628974858336 2.526326555439087 5.689096517531365 4.952460213387695" x="0px" y="0px"><title>KAMASUTRA</title><path d="M4.46957,4.39952l.00074.00228a.02713.02713,0,0,0,.04665.00467.2752.2752,0,0,0,.00327-.18784.35457.35457,0,0,0-.093-.16715.4341.4341,0,0,0-.14117-.10008.08482.08482,0,0,0-.03216-.01255.443.443,0,0,0-.16405-.02394A.59.59,0,0,0,4.02491,3.853c-.0287-.026-.05782-.05047-.08805-.07469-.06275-.05027-.12663-.09946-.18809-.15131a1.31586,1.31586,0,0,1-.23858-.34408,1.27522,1.27522,0,0,0-.29858-.28427.64388.64388,0,0,1-.22353-.33853.00911.00911,0,0,0-.01738-.00174c-.05193.13024.04745.26235.13755.34818a1.96429,1.96429,0,0,1,.315.30267,1.76805,1.76805,0,0,0,.23987.36093c.06225.057.13069.10759.19659.16021.03435.02743.06831.055.10427.08023l.02614.0193a.40591.40591,0,0,0-.26319.20524.49379.49379,0,0,0-.03927.10495L3.66413,4.1903a1.76633,1.76633,0,0,0-.1172-.21171c-.043-.0686-.09351-.132-.13977-.19841-.04677-.0671-.08651-.13877-.13232-.20652-.09358-.13839-.19373-.27256-.2925-.40726A1.46006,1.46006,0,0,0,2.68057,2.809a.85086.85086,0,0,0-.2326-.10288,1.3008,1.3008,0,0,0-.27913-.06446c-.01077-.001-.01893.01553-.008.02135.13912.07391.29719.11267.43288.19326a1.092,1.092,0,0,1,.29648.33222c.09483.13265.19108.26428.28568.39708.04571.06417.09543.12578.13987.19078a1.97382,1.97382,0,0,1,.11635.20167c.03984.07622.08036.1527.12387.22689.03965.06759.06878.14765.11528.21154a.73316.73316,0,0,0,.02938.17.442.442,0,0,0,.12394.204.29147.29147,0,0,0,.07814.05366.3348.3348,0,0,1-.00415.12046.34708.34708,0,0,1-.0332.10543c-.01483-.00555-.02259.01646-.00845.023.05574.02571.08637-.04712.10575-.08892a.2438.2438,0,0,0,.02268-.147L4.02258,4.854a.00909.00909,0,0,0,.00174-.01738.2891.2891,0,0,1-.06471-.03165.03353.03353,0,0,0-.01447-.00955.61489.61489,0,0,1-.06007-.04718.36155.36155,0,0,1-.09522-.14876.71657.71657,0,0,1-.037-.18635.466.466,0,0,1,.01123-.19937.3705.3705,0,0,1,.50247-.166.20689.20689,0,0,1,.02014.08174.5287.5287,0,0,1-.03971.22221c-.04328.10837-.1266.22834-.09574.35047.00273.01082.02037.01564.024.0024.0413-.14991.14807-.2697.18257-.42206a.57253.57253,0,0,0,.01548-.14166.71972.71972,0,0,1,.055.09263.25828.25828,0,0,1,.02861.07965l.003.0271-.004-.00042a.0736.0736,0,0,0-.07271.05727.16345.16345,0,0,0,.01732.115c.01642.03288.04394.08114.08415.08368a.02938.02938,0,0,0,.03155-.03341c-.00581-.03517-.04267-.06088-.057-.09442-.0066-.01544-.01628-.03918-.00779-.0555A.0263.0263,0,0,1,4.46957,4.39952Z" /><path d="M3.97363,6.11109a3.99125,3.99125,0,0,0-.109-.40519,1.63193,1.63193,0,0,1-.12947-.37348.49289.49289,0,0,1,.00829-.18735.47412.47412,0,0,1,.02908-.08082.26687.26687,0,0,1,.05139-.08952.009.009,0,0,0-.01143-.014.6472.6472,0,0,0-.06754.04335.24882.24882,0,0,0-.04789.065.41553.41553,0,0,0-.04376.15811.85959.85959,0,0,0,.06841.36795c.02513.06894.05247.13705.07482.207a2.042,2.042,0,0,1,.05093.2255,1.577,1.577,0,0,1,.08219.43426,2.12121,2.12121,0,0,1-.04862.22717.39058.39058,0,0,0,.00385.20334c.006.018.03374.00864.03116-.00919a.32035.32035,0,0,1,.04384-.19.70241.70241,0,0,0,.07127-.1764A.87491.87491,0,0,0,3.97363,6.11109Z" /><path d="M4.94978,7.28027a.257.257,0,0,0-.06882.02908.45054.45054,0,0,1-.07324.0255.58475.58475,0,0,1-.15114.01783.57224.57224,0,0,1-.26844-.054c-.21033-.11575-.1838-.388-.1894-.59118-.00031-.01126-.01683-.01772-.021-.00487a.70821.70821,0,0,0,.00488.52818L4.166,7.22744a.38057.38057,0,0,1-.12447-.05094.20792.20792,0,0,1-.0799-.09251.792.792,0,0,0-.05706-.132.00842.00842,0,0,0-.01475.00445.54192.54192,0,0,0,.02137.1626.24067.24067,0,0,0,.0702.12093.34828.34828,0,0,0,.13731.07337c.03756.01119.09935.0348.13808.015a.39658.39658,0,0,0,.078.05712.56582.56582,0,0,0,.32461.06458.90654.90654,0,0,0,.1804-.031c.05009-.015.12583-.04334.14327-.09815A.03077.03077,0,0,0,4.94978,7.28027Z" /><path d="M7.74129,5.19276a1.92835,1.92835,0,0,1-.31121.30381,1.22392,1.22392,0,0,1-.38346.19c-.1658.04806-.33819.06556-.50566.1062a4.39973,4.39973,0,0,0-.49958.15886q-.137.05118-.27268.10581a1.41586,1.41586,0,0,0-.2249.09881l-.00007-.00042a.45827.45827,0,0,0-.03563-.11054c-.01715-.03634-.04077-.0699-.05657-.1067a2.056,2.056,0,0,1-.055-.2196l-.009-.02557c.03206,0,.06412-.00064.09619-.00246A.75208.75208,0,0,0,5.827,5.59847a.39956.39956,0,0,0,.20041-.23691c.005-.023-.02663-.02893-.03883-.01452a.68606.68606,0,0,1-.11258.11632.58084.58084,0,0,1-.13255.07051.98223.98223,0,0,1-.35718.05239c-.12766,0-.25593-.01006-.38344.00018a.65873.65873,0,0,0-.17058.035.30008.30008,0,0,0-.14136.09019.01.01,0,0,0,.00713.01565.48528.48528,0,0,0,.08688-.01283c.0313-.004.06275-.0079.09413-.01112.03735-.00384.07479-.00738.11228-.01009a.81988.81988,0,0,0-.02.13518c-.00647.06538-.0113.1309-.01793.19627s-.01122.13059-.01846.19575c-.00346.03118-.00758.0622-.0119.09327a.28312.28312,0,0,0-.00215.06311.27058.27058,0,0,0-.03886.02657.30494.30494,0,0,0-.05621.07556c-.00518.00782.00312.02022.01243.01519a.84734.84734,0,0,1,.0878-.03188.66623.66623,0,0,1,.0862-.02983A1.14,1.14,0,0,0,5.13092,6.409a1.05988,1.05988,0,0,1-.00716.1145,3.30882,3.30882,0,0,1-.07227.33731,1.15839,1.15839,0,0,0-.03914.33821.35929.35929,0,0,0,.10793.27285c.03528.02487.08215-.02279.05267-.05647a.37874.37874,0,0,1-.07029-.2965,2.257,2.257,0,0,1,.06312-.33736,1.58332,1.58332,0,0,0,.04976-.31651.35189.35189,0,0,0-.0798-.26838l-.00769.00351a.96386.96386,0,0,0,.00172.12053.62048.62048,0,0,0-.07109.01174c-.01518.00247-.03015.0053-.04494.00878l.00068-.00268c.00685-.03051.01118-.06189.01516-.09289a1.57344,1.57344,0,0,0,.01216-.20423c-.0002-.06864-.00037-.13718.00189-.20579.00158-.04814.00691-.09721.00476-.14563l.03182-.00118c.06143-.00123.12283.00069.18422.00242A.04911.04911,0,0,0,5.28431,5.7c.02129.00429.03166.04434.03827.06048a1.03505,1.03505,0,0,0,.047.09244.63432.63432,0,0,1,.05885.191A1.8277,1.8277,0,0,1,5.464,6.247a1.57562,1.57562,0,0,1-.00193.19923c-.00715.13123-.024.26088-.04308.39082q-.01424.09675-.03514.19242a1.764,1.764,0,0,1-.04833.20923.00926.00926,0,0,0,.01735.00646c.02827-.07377.06575-.14249.09116-.21776.02336-.06917.04422-.13945.06061-.21061A2.16868,2.16868,0,0,0,5.557,6.36883a1.27238,1.27238,0,0,0-.005-.15615,1.16067,1.16067,0,0,0,.20368-.06247c.08749-.03062.1741-.06356.26077-.09639a4.59561,4.59561,0,0,1,.52228-.17273c.17471-.04319.356-.057.52893-.10712a1.33035,1.33035,0,0,0,.39247-.18887,1.29523,1.29523,0,0,0,.18949-.16192.82.82,0,0,0,.14293-.20332C7.80865,5.18837,7.76124,5.16946,7.74129,5.19276Z" /><path d="M5.50694,7.14579a.023.023,0,0,0-.03909-.00391.45338.45338,0,0,0-.04832.09486.49493.49493,0,0,1-.054.08439.85777.85777,0,0,1-.15754.11465.01052.01052,0,0,0,.00555.01841.236.236,0,0,0,.21258-.08125C5.47109,7.321,5.54792,7.21718,5.50694,7.14579Z" /><path d="M7.81748,5.282c-.00334-.00974-.016-.00513-.01768.00283-.01753.08135-.02509.16475-.04169.24638a.41668.41668,0,0,1-.11273.18322c-.05211.063-.10117.12779-.151.19255a.39633.39633,0,0,1-.08532.087.23132.23132,0,0,1-.11388.04449c-.02009-.00027-.031.03072-.00858.037a.17732.17732,0,0,0,.10562.00578.28769.28769,0,0,0,.10656-.06993c.07231-.07057.138-.14949.2028-.22687A.46925.46925,0,0,0,7.8372,5.559.61385.61385,0,0,0,7.81748,5.282Z" /><path d="M7.35352,5.92095a.97654.97654,0,0,0-.29235.1653,2.75107,2.75107,0,0,1-.27361.17969.69787.69787,0,0,1-.14519.06013,1.01631,1.01631,0,0,1-.16078.02258.56356.56356,0,0,0-.14751.03541.30812.30812,0,0,0-.04917.025.41505.41505,0,0,1,.02968-.05218A.01018.01018,0,0,0,6.298,6.34511a.9012.9012,0,0,1-.087.09579c-.02791.02994-.05467.06091-.08146.09185-.05476.06324-.1064.12909-.16174.19183-.10863.12313-.23293.23015-.34375.35065-.01387.01508.00761.03525.02365.02891a1.03267,1.03267,0,0,0,.38622-.31535,1.92084,1.92084,0,0,0,.1513-.19906q.02-.031.03878-.0629l.0065-.00178c.04932-.01955.1-.03609.14966-.05482a.60571.60571,0,0,1,.1618-.02987.7483.7483,0,0,0,.29737-.09277,2.47868,2.47868,0,0,0,.26633-.18129.99728.99728,0,0,0,.25781-.2294C7.36776,5.93018,7.36253,5.91864,7.35352,5.92095Z" /><path d="M4.189,4.87321c-.00634-.04886-.05719-.08519-.09515-.112a.69255.69255,0,0,1-.11224-.08645.38609.38609,0,0,1-.111-.26256.0088.0088,0,0,0-.01751-.00175.37458.37458,0,0,0,.0408.28786.37054.37054,0,0,0,.10684.10972.7823.7823,0,0,1,.06818.04939c.02413.021.0382.04537.06836.05805A.039.039,0,0,0,4.189,4.87321Z" /><path d="M4.35085,4.55521c-.0121-.0196-.03855-.008-.04651.00773-.02227.04405-.03136.09348-.05346.13829a.37462.37462,0,0,0-.04565.09746c-.00648.00273-.01051.01195-.00277.01634l.01087.00731a.02089.02089,0,0,0,.021.0021C4.3196,4.7851,4.40519,4.64326,4.35085,4.55521Z" /><path d="M4.241,5.99679a.914.914,0,0,0-.01776-.17607c-.0062-.02828-.01389-.0563-.02234-.084a.40161.40161,0,0,0-.04135-.0832.01.01,0,0,0-.01892.00558c.00129.02952-.00241.05738.00013.08732.0026.03067.00306.06123.00355.092.00091.05751.00094.11482-.00147.17231-.00491.11684-.00543.23338-.00771.35027a.02927.02927,0,0,0,.0582.00582A1.63522,1.63522,0,0,0,4.241,5.99679Z" /><path d="M7.27318,2.93648a.887.887,0,0,1-.09869.07607.8551.8551,0,0,1-.1279.0591,1.29089,1.29089,0,0,0-.24594.10592.74336.74336,0,0,0-.19842.2299.87684.87684,0,0,1-.22.22258,3.73151,3.73151,0,0,0-.5282.38336c-.087.08935-.1664.1859-.2475.28051s-.16721.18661-.2411.287a1.0344,1.0344,0,0,0-.15166.32119c-.01661.05475-.02788.111-.04936.16421a.42945.42945,0,0,1-.05613.09623.49686.49686,0,0,1-.105-.0271c-.05137-.01972-.09619-.05206-.14733-.07222a.58342.58342,0,0,0-.15045-.03656,1.05636,1.05636,0,0,0-.12073-.00751A.3367.3367,0,0,1,4.56361,4.987a.31783.31783,0,0,1-.01775-.06818l-.0002-.001a.56213.56213,0,0,0,.05007-.2153.57936.57936,0,0,0-.02031-.2538.00841.00841,0,0,0-.01592.00255.95943.95943,0,0,0-.00255.11892.82632.82632,0,0,1-.013.12715c-.006.03126-.01394.06216-.02214.093L4.5082,4.71068a.01253.01253,0,0,0-.02473.00071c-.00463.08117-.0176.16617-.0141.24725a.2105.2105,0,0,0,.01619.06969.30117.30117,0,0,0-.09256.03384.01288.01288,0,0,0,.00071.02353,1.432,1.432,0,0,0,.303.029,1.89292,1.89292,0,0,1,.301.09974.77242.77242,0,0,0,.28985.03735,1.29789,1.29789,0,0,1,.14826-.00547.33617.33617,0,0,1,.07847.01256.16462.16462,0,0,0,.0676.01279.03835.03835,0,0,0,.02346-.06157A.15586.15586,0,0,0,5.49053,5.163c-.0249-.019-.056-.03564-.067-.04517-.02741-.02375-.05047-.05174-.07562-.07775-.02135-.02208-.0467-.04222-.068-.06492.03661-.08144.06132-.16789.10454-.2464a1.0269,1.0269,0,0,0,.25087.26543.88532.88532,0,0,1,.156.1257c.022.02339.04479.04623.0658.07053.02227.02576.04818.049.06968.075.01185.01429.04164.00428.03574-.016a.402.402,0,0,0-.03309-.09546A.54422.54422,0,0,0,5.878,5.07558.73659.73659,0,0,0,5.72134,4.939c-.01867-.0126-.03667-.02537-.0543-.03836a.3786.3786,0,0,0,.08052-.162A.88428.88428,0,0,0,5.764,4.5386a.214.214,0,0,1,.08133-.15916c.05112-.04111.12733-.05871.16953-.10915a.017.017,0,0,0-.01207-.02649.32816.32816,0,0,0-.18708.07688.36474.36474,0,0,0-.12465.14167.5782.5782,0,0,0-.01761.21491.64985.64985,0,0,1-.01538.12082c-.00638.02668-.016.05258-.02176.07933-.03231-.02507-.06359-.05128-.0951-.07955-.04317-.03875-.08807-.0736-.134-.1077a2.17371,2.17371,0,0,1,.19956-.25432c.08369-.09783.166-.197.252-.29291A1.483,1.483,0,0,1,6.13,3.9028c.08764-.05953.17978-.11209.26741-.17164a1.04678,1.04678,0,0,0,.23271-.20608,1.45367,1.45367,0,0,1,.19285-.25167.99111.99111,0,0,1,.26886-.1271c.08578-.03393.19416-.08461.22337-.17984A.027.027,0,0,0,7.27318,2.93648ZM5.34783,5.15381l.009.00911-.03148.00227a1.203,1.203,0,0,1-.15775.00339.80507.80507,0,0,0,.096-.15909.39533.39533,0,0,0,.02332.06075A.37116.37116,0,0,0,5.34783,5.15381Z" /><path d="M6.0411,4.32939a.0241.0241,0,0,0-.03811.00132.446.446,0,0,0-.02712.16459c-.0083.06185-.019.1234-.02612.1854a.98818.98818,0,0,0-.00315.16938.56233.56233,0,0,1-.00014.08059c-.00246.02775-.011.05455-.01158.08241a.01032.01032,0,0,0,.01657.00889.17228.17228,0,0,0,.05272-.13278c.00565-.062.0036-.12429.01216-.18615.00931-.06719.02639-.133.03648-.2A.23982.23982,0,0,0,6.0411,4.32939Z" /><path d="M7.35956,2.78617c-.07718-.07748-.18443-.0338-.26946.00713a1.497,1.497,0,0,1-.31336.1124.2651.2651,0,0,0-.21436.13858.23314.23314,0,0,1-.08072.11731.77321.77321,0,0,1-.13484.0658,2.10494,2.10494,0,0,0-.55341.30933,1.85576,1.85576,0,0,1-.23389.21356,1.60681,1.60681,0,0,1-.14685.07046A1.33556,1.33556,0,0,0,5.25195,3.91c-.11074.0716-.21677.154-.32188.23369-.1116.08459-.22045.17267-.33074.25876-.00547.00427.00056.01411.00671.01046.10343-.0614.20746-.12169.31081-.1834.09826-.05867.19269-.12344.291-.18192.09627-.05725.1933-.11014.29191-.16306a.97425.97425,0,0,0,.24637-.18386,1.75632,1.75632,0,0,1,.51038-.34262,2.60643,2.60643,0,0,0,.25868-.12122A.268.268,0,0,0,6.605,3.15052c.02492-.04142.03025-.09848.07344-.12615a.47919.47919,0,0,1,.15037-.0418,1.36335,1.36335,0,0,0,.16955-.05284c.10257-.03944.21329-.12514.32878-.09627C7.35281,2.83988,7.38237,2.80906,7.35956,2.78617Z" /><path d="M2.92387,2.59666c-.03845-.04766-.10864-.02223-.15981-.01685a.44352.44352,0,0,1-.17759-.04449.95373.95373,0,0,0-.38632.02591.00932.00932,0,0,0-.00178.01782c.12548.03662.25769-.01576.382.03117a.4421.4421,0,0,0,.16282.045A.74617.74617,0,0,0,2.831,2.64493a.35218.35218,0,0,0,.08439-.0126A.02325.02325,0,0,0,2.92387,2.59666Z" /></svg>