<svg xmlns="http://www.w3.org/2000/svg" data-name="Layer 1" viewBox="1.9727782694501383 3.085873694401804 6.054704537477658 3.8271938433565946" x="0px" y="0px"><title>KAMASUTRA</title><path d="M3.17821,4.04794c-.0284.0217-.05984.03741-.08645.06187a.57438.57438,0,0,0-.074.08485.64192.64192,0,0,0-.09712.201,1.44613,1.44613,0,0,0-.03972.48588,4.19976,4.19976,0,0,1,.01543.595,1.8813,1.8813,0,0,1-.05494.27321,1.29048,1.29048,0,0,0-.03731.28716c-.00045.04971.00286.09913.00682.14849l-.00932.00418c-.03389.02134-.07.039-.10577.05708a.76689.76689,0,0,1-.10533.04915c-.01463.0047-.00687.027.00739.02506a.72754.72754,0,0,0,.12737-.0222.44589.44589,0,0,0,.0914-.04262c.00208.02667.00394.05335.005.08008-.01644.00081-.03305.00333-.04906.00471-.01212.001-.02543.00111-.0374.00322-.01761.00311-.03008.01355-.04793.0166-.01363.00233-.01406.0248.00072.025.01784.00027.0312.00821.04866.009a.3402.3402,0,0,0,.03779-.0023c.01588-.00108.032-.00139.04783-.00295-.00333.0774-.03022.17355-.11938.17851-.03734.00208-.03587.066.00188.0659a.20806.20806,0,0,0,.17952-.114.47077.47077,0,0,0,.01892-.26745,2.04124,2.04124,0,0,1-.01138-.30315A1.40533,1.40533,0,0,1,2.942,5.65456a1.3411,1.3411,0,0,0,.05626-.28412,2.624,2.624,0,0,0-.00848-.30283,2.42253,2.42253,0,0,1-.00525-.53443,1.09517,1.09517,0,0,1,.06659-.24548.63587.63587,0,0,1,.05642-.11152A.433.433,0,0,1,3.19466,4.068C3.208,4.05789,3.19149,4.0378,3.17821,4.04794Z" /><path d="M2.56133,6.589a.15038.15038,0,0,0-.1295-.0262.49091.49091,0,0,0-.14915.049c-.04642.02251-.09059.04928-.137.07179a.35841.35841,0,0,1-.16118.05511c-.014-.00062-.01635.0209-.00218.02182a.42814.42814,0,0,0,.14194-.005.80534.80534,0,0,0,.133-.05484.81379.81379,0,0,1,.14008-.05693.29567.29567,0,0,1,.07092-.011.349.349,0,0,0,.076.001C2.56252,6.62945,2.57736,6.605,2.56133,6.589Z" /><path d="M2.74475,6.71125a.45732.45732,0,0,0-.3012.00843,1.27184,1.27184,0,0,1-.29819.083c-.01185.00041-.01292.01919-.00225.02253a.45711.45711,0,0,0,.28477-.0238.8302.8302,0,0,1,.15339-.033c.05222-.00587.10779-.00234.15907-.013A.02313.02313,0,0,0,2.74475,6.71125Z" /><path d="M2.98577,6.74565a.452.452,0,0,1-.10617.05113.74792.74792,0,0,1-.15147.009.53551.53551,0,0,0-.28176.08293c-.01186.00755-.00173.02638.01083.02418a2.08908,2.08908,0,0,1,.33687-.029c.07974-.001.20925-.01439.22533-.11391A.02418.02418,0,0,0,2.98577,6.74565Z" /><path d="M4.24571,6.71743a.4893.4893,0,0,1-.48442-.26072,1.38407,1.38407,0,0,1-.10409-.28838A.56485.56485,0,0,0,3.5926,6.0205a.678.678,0,0,0-.1-.11467A.63329.63329,0,0,1,3.3252,5.696c.03664-.1831.07192-.36647.10755-.54977.0145-.07459.03087-.14879.04556-.22333.00775-.03934.01673-.0787.02244-.1184.00568-.03947.0042-.08014.00677-.12a.02617.02617,0,0,0-.05035-.01168c-.01039.03134-.02331.062-.03332.09337a.838.838,0,0,0-.021.09552c-.01312.06791-.02556.13594-.03793.204-.02436.134-.05179.26743-.07787.40107-.04977.2551-.09036.51275-.15266.76521-.01483.06011-.03182.11962-.0482.1793a.01978.01978,0,0,0-.0049.01785l-.00187.00682c-.01876.06942-.03705.14065-.06247.208-.004.01066.01239.02024.01826.00965.03-.05406.05932-.10647.085-.16282L3.1356,6.455c.11412.03012.28173.03018.31361-.09875a1.38682,1.38682,0,0,0,.03365-.21867c.0027-.03318.00557-.06776.00592-.10229a.44447.44447,0,0,1,.07394.14347,1.54746,1.54746,0,0,0,.11559.32653.62319.62319,0,0,0,.22846.23682.4131.4131,0,0,0,.357.03645A.03228.03228,0,0,0,4.24571,6.71743Zm-.834-.61954a1.17357,1.17357,0,0,1-.02527.18788.21613.21613,0,0,1-.025.07657c-.01576.02115-.0512.02372-.0752.029a.64878.64878,0,0,1-.13188.01543c.01156-.03172.022-.06388.0315-.0963.03544-.12041.06288-.243.08858-.36576l.02815-.13659a.45843.45843,0,0,0,.06291.09213c.01593.01838.03275.03595.04963.05346C3.41134,6.00146,3.41471,6.05031,3.41169,6.09789Z" /><path d="M5.96379,6.81768a.34674.34674,0,0,0-.07409-.0118c-.02667-.00367-.0535-.00831-.07988-.01376q-.07427-.01536-.14686-.03721c-.10687-.032-.213-.06676-.31923-.10091-.10525-.03384-.21013-.06879-.31545-.10243A1.12929,1.12929,0,0,0,4.706,6.47482a.0157.0157,0,0,0-.01055.0282.50434.50434,0,0,0,.082.05067c-.01013.00722-.02.01416-.02951.0197-.03827.02222-.078.04209-.11824.06046s-.08051.036-.12181.05167c-.04432.0168-.09027.036-.13588.04844-.01068.00291-.01271.02154.00061.02138a.70556.70556,0,0,0,.2839-.04663.87923.87923,0,0,0,.13494-.06535A.49032.49032,0,0,0,4.87,6.59352c.04469.01677.09.03133.13261.04613.10857.03772.218.073.32736.10839.10777.03492.21539.07123.32433.10236a.88093.88093,0,0,0,.15888.03351.28034.28034,0,0,0,.15216-.01524A.02791.02791,0,0,0,5.96379,6.81768Z" /><path d="M4.60977,6.4216A.41853.41853,0,0,0,4.54392,6.277c-.02743-.04768-.05452-.09558-.0824-.143a.26311.26311,0,0,1-.044-.13543.3599.3599,0,0,1,.00588-.06771.27876.27876,0,0,1,.01862-.079c.00787-.01375-.01233-.0283-.02031-.01438-.01325.02313-.03291.04046-.0444.06542a.33025.33025,0,0,0-.02372.07783.24586.24586,0,0,0,.01465.155c.02623.05424.05821.10609.08756.15868a.5058.5058,0,0,0,.10595.15694A.031.031,0,0,0,4.60977,6.4216Z" /><path d="M7.3443,6.4128a.12031.12031,0,0,0-.088-.00711c-.03335.00531-.06668.01039-.10012.015-.02649.00367-.05358.00579-.08063.00839A.52272.52272,0,0,0,7.265,6.17858a.02082.02082,0,0,0-.03634-.0192,1.20685,1.20685,0,0,1-.219.209,1.909,1.909,0,0,1-.27412.16147c-.2158.10967-.4406.19817-.66158.29631a.01379.01379,0,0,0,.0077.02611A2.59945,2.59945,0,0,0,6.79257,6.597c.06494-.0329.135-.06884.20132-.11088a.5519.5519,0,0,0,.17094.01656c.05579-.0006.15024.00415.18713-.04508A.03234.03234,0,0,0,7.3443,6.4128Z" /><path d="M4.65952,5.59723c-.00707-.04566-.013-.09148-.02-.13716-.01364-.08909-.02676-.17836-.037-.2679a.62508.62508,0,0,0-.09187-.3337l.04557.00584a.03719.03719,0,0,0,.025-.06687c-.08048-.05477-.19173-.03637-.28395-.053a.79207.79207,0,0,1-.45913-.26914,1.41691,1.41691,0,0,0-.20726-.232.70669.70669,0,0,0-.13627-.08246c-.05082-.02393-.10571-.03742-.15553-.06261-.0093-.0047-.01794.01132-.00862.01632a1.13557,1.13557,0,0,1,.119.08414c.041.0294.08161.05994.1207.09181a1.37654,1.37654,0,0,1,.19911.2333.83891.83891,0,0,0,.122.12487c.0287.09217.04987.18819.07061.28175.02493.11245.03443.227.0561.33992a.87414.87414,0,0,0,.12015.29872q.04294.06908.09164.13418a.56363.56363,0,0,0,.10415.12294.03741.03741,0,0,0,.05538-.04531.71121.71121,0,0,0-.09414-.13113,1.384,1.384,0,0,1-.08486-.125.89444.89444,0,0,1-.11112-.30554A3.01812,3.01812,0,0,0,4.03766,4.888a1.11812,1.11812,0,0,0-.07227-.18426.84457.84457,0,0,0,.26061.1159,1.54888,1.54888,0,0,0,.22709.03281,1.23261,1.23261,0,0,1,.06068.38046c.00921.08532.02115.17021.035.2549.00711.04344.016.08656.02388.12986a.17741.17741,0,0,0,.04206.10871.03015.03015,0,0,0,.042-.00718A.188.188,0,0,0,4.65952,5.59723Z" /><path d="M3.07519,4.02987A.0968.0968,0,0,1,3.0588,3.991a.39014.39014,0,0,1,.00911-.06009.20188.20188,0,0,0-.01663-.10256,1.28659,1.28659,0,0,0-.12486-.17652.39635.39635,0,0,1-.05866-.198.46909.46909,0,0,1,.01024-.11.35706.35706,0,0,1,.03678-.11192.01429.01429,0,0,0-.02331-.0165.44181.44181,0,0,0-.06905.10029.38674.38674,0,0,0-.02935.1153.41654.41654,0,0,0,.0457.23937,2.24413,2.24413,0,0,1,.13514.19749.467.467,0,0,1,.0083.12158c.0048.03427.02537.07892.06562.07823A.02734.02734,0,0,0,3.07519,4.02987Z" /><path d="M4.19706,4.10631l.00046-.00048Z" /><path d="M5.161,4.31531a.17753.17753,0,0,0-.15344-.07592,1.717,1.717,0,0,0-.21742.01152c-.09963.00719-.2019.01386-.30325.01145C4.3947,4.232,4.302,4.20291,4.20979,4.17263l.009-.01107a.06939.06939,0,0,0,.01047-.02938.05093.05093,0,0,0,.0006-.014c-.00084-.00458-.00664-.01007-.00657-.0143A.00931.00931,0,0,0,4.20472,4.102l-.00765.00433L4.19121,4.113l-.01381.01253a.28145.28145,0,0,0-.02863.02687q-.05568-.01873-.111-.0385A2.048,2.048,0,0,1,3.242,3.65242a1.54987,1.54987,0,0,1-.28032-.38388c-.00507-.01014-.02229-.00621-.01981.00584a.77847.77847,0,0,0,.06657.19852.9756.9756,0,0,0,.11712.18112,1.45722,1.45722,0,0,0,.331.28686A3.87317,3.87317,0,0,0,4.39,4.33161c.087.02828.174.05684.25883.09109.044.01777.08719.037.12995.05761a1.02613,1.02613,0,0,0,.1273.05871.03351.03351,0,0,0,.03731-.0522.56462.56462,0,0,0-.20627-.13139c-.02473-.01114-.04979-.02151-.07506-.03138q.03622.00093.07289.00056c.07007-.0007.14006-.0041.2101-.00557a.27967.27967,0,0,1,.16249.04C5.13467,4.37524,5.18028,4.34883,5.161,4.31531Z" /><path d="M6.743,6.00236A.45855.45855,0,0,0,6.6442,6.067c-.03411.0229-.06881.04487-.10321.06733l-.03537.023a.21261.21261,0,0,1-.059.00632.19309.19309,0,0,1-.12706-.04654.25848.25848,0,0,1-.04005-.25946c.00231-.00965-.00694-.02386-.01818-.01711-.11876.07138-.08756.2557.00062.33834a.25138.25138,0,0,0,.11127.06l-.04188.02332c-.04864.02606-.09814.05015-.14812.07334l-.0009-.00145a1.216,1.216,0,0,0-.131-.14012Q5.98461,6.12853,5.92,6.06083a3.70061,3.70061,0,0,1-.2618-.27655,1.10487,1.10487,0,0,1-.10158-.15906.29068.29068,0,0,0-.11-.12531A.25234.25234,0,0,0,5.285,5.47415a.40817.40817,0,0,0-.01149-.0648c-.00969-.04448-.02-.0888-.03027-.13314-.01933-.08326-.03781-.16681-.06-.24936a1.87771,1.87771,0,0,0-.07578-.23428A.56023.56023,0,0,0,4.988,4.58914c-.00756-.00675-.01969.00209-.018.0112a.73082.73082,0,0,0,.03475.10619c.0136.03886.02667.078.0378.11763.02177.07757.04083.15543.05844.234.01781.07953.03508.15917.05288.23871.00947.04231.019.08459.029.12677a.4418.4418,0,0,0,.01937.07109.69787.69787,0,0,0-.07683.03227c-.13717.06681-.27339.1413-.4036.22073a.01355.01355,0,0,0,.011.02477c.12277-.04337.24218-.09568.3622-.14608.08641-.03628.20526-.09163.29806-.047a.45433.45433,0,0,1,.11546.10925,1.605,1.605,0,0,1,.11552.139c.07192.095.13473.195.21444.28416q.06632.07421.13716.144a.97256.97256,0,0,0,.13131.11439c-.0352.016-.07.03318-.10593.04739-.01224.00484-.02462.00881-.03708.01235l-.0314-.00558c-.06095-.01116-.1222-.02069-.18334-.03078q-.09591-.01584-.19189-.03123A.5507.5507,0,0,1,5.46345,6.318a.39232.39232,0,0,1-.09006-.1006c-.01223-.0188-.03625-.0014-.03553.01592a.18776.18776,0,0,0,.03507.09974c-.083-.01287-.16715-.02395-.24929-.042l.00622-.00259a.65431.65431,0,0,0,.09743-.04821c.03652-.02289.062-.06086.09832-.08253.0137-.00816.004-.03114-.01022-.02309a.44844.44844,0,0,1-.1023.02807c-.035.00961-.06838.02461-.10249.037-.03214.01169-.06448.02245-.09684.03345-.01207.0041-.02782.008-.04256.01356l-.02329-.00842-.00421-.00162c-.01176-.023-.02681-.04465-.03741-.06845a.52576.52576,0,0,0-.04545-.08661.33262.33262,0,0,0-.06229-.06625.353.353,0,0,1-.076-.06757.01438.01438,0,0,0-.02515.01127.223.223,0,0,0,.03581.08226c.021.02894.04813.05259.06888.08165.01373.01923.02655.04318.04057.06676a.14855.14855,0,0,1-.02556-.0164c-.01127-.00941-.02623.00759-.01731.01856a.5349.5349,0,0,0,.04581.05945.44649.44649,0,0,0,.05463.04448.49842.49842,0,0,0,.13641.06312,2.40707,2.40707,0,0,0,.31011.064c.12221.02061.24438.04141.36669.06144.06113.01.1222.02056.18342.03.03058.00471.06125.00895.09187.01339a.64309.64309,0,0,0,.10618.0034c.03389-.00051.05119-.0486.01432-.06174l-.02533-.00936.036-.01187a1.64257,1.64257,0,0,0,.24068-.10544A2.06439,2.06439,0,0,0,6.58538,6.207a1.14192,1.14192,0,0,0,.09967-.08082.367.367,0,0,0,.09018-.09346C6.78559,6.01213,6.76023,5.99679,6.743,6.00236Z" /><path d="M7.26826,6.54738c-.019.02-.03105.04485-.0484.0663a.24294.24294,0,0,1-.06757.05477.7416.7416,0,0,1-.17506.07331c-.06714.01824-.13605.02787-.20457.03933-.07448.01245-.14675.02857-.22023.04544-.01259.00289-.01382.0234.00068.02393a1.52048,1.52048,0,0,0,.47365-.02836.40935.40935,0,0,0,.17869-.09595.29537.29537,0,0,0,.10344-.157C7.31041,6.54981,7.28405,6.53079,7.26826,6.54738Z" /><path d="M5.40463,5.17365c-.0215-.08827-.04295-.1766-.066-.26447q-.03386-.12882-.07055-.2568A1.10113,1.10113,0,0,0,5.17964,4.4c-.00913-.01553-.03963-.01689-.03957.00633a1.12953,1.12953,0,0,0,.04634.25229q.03184.13231.064.26454c.02093.08611.04261.172.06335.25818a1.12562,1.12562,0,0,0,.07609.25775c.01312.02524.05849.02383.05925-.00947A1.00373,1.00373,0,0,0,5.40463,5.17365Z" /><path d="M6.05394,5.72289a.35549.35549,0,0,0-.16558.02266.8552.8552,0,0,0-.1595.0529.014.014,0,0,0,.00425.02656.85.85,0,0,0,.16707-.00467.35755.35755,0,0,0,.16411-.03522A.03659.03659,0,0,0,6.05394,5.72289Z" /><path d="M6.73106,5.59121A1.25033,1.25033,0,0,1,6.5253,5.4909a.46016.46016,0,0,0-.22889-.06079.33764.33764,0,0,0-.20986.075.23994.23994,0,0,0-.0912.16833c.00043.01184.01637.01271.02244.00525a.88074.88074,0,0,1,.0561-.07432A.34116.34116,0,0,1,6.148,5.54972a.30845.30845,0,0,1,.208-.03117c.12912.02232.23834.153.376.10182A.0159.0159,0,0,0,6.73106,5.59121Z" /><path d="M4.4242,3.35978a.81963.81963,0,0,0-.116-.13988.45913.45913,0,0,0-.14872-.111.4618.4618,0,0,0-.1857-.02114.70724.70724,0,0,0-.18953.0236.37832.37832,0,0,0-.229.2301.55529.55529,0,0,0-.03538.20007,1.54691,1.54691,0,0,0,.02791.22972c.00185.013.02363.01309.02357-.00067-.00026-.05769.00678-.11536.01065-.17292a.78327.78327,0,0,1,.02661-.16675.30476.30476,0,0,1,.30714-.25463.77054.77054,0,0,1,.16409.00072.43176.43176,0,0,1,.24112.18687.49115.49115,0,0,1,.10431.33469.02951.02951,0,0,0,.05676.01316A.38067.38067,0,0,0,4.4242,3.35978Z" /><path d="M3.87155,3.71849a.07351.07351,0,0,0-.10052.03063.27022.27022,0,0,0,.04965.27438.023.023,0,0,0,.03872-.0238.46211.46211,0,0,1-.033-.14912c-.0002-.01821-.00521-.05589.00869-.06949.019-.01862.02939.01739.02844.0336a.01447.01447,0,0,0,.02878.00288C3.89675,3.78078,3.91054,3.74361,3.87155,3.71849Z" /><path d="M4.35844,3.60766c-.05711.00591-.0908-.06243-.12693-.09667a.13886.13886,0,0,0-.13932-.041c-.10972.03511-.14034.16961-.15515.26874a.01415.01415,0,0,0,.02723.00632c.02246-.05708.09976-.23928.18742-.19553.0405.02021.06108.06865.10028.09229a.113.113,0,0,0,.12558.00851C4.3992,3.63618,4.38007,3.60542,4.35844,3.60766Z" /><path d="M4.2908,3.89856C4.26934,3.897,4.2476,3.898,4.22632,3.89434c-.02169-.00373-.04287-.01121-.06427-.01643a.014.014,0,0,0-.01561.02185.13045.13045,0,0,0,.15136.04258A.0231.0231,0,0,0,4.2908,3.89856Z" /><path d="M4.32864,3.80839a.17191.17191,0,0,0-.18879-.00454c-.01527.008-.0097.03393.00894.03031A.245.245,0,0,1,4.231,3.83192c.02573.00386.0491.01688.075.01859C4.326,3.85184,4.34593,3.82491,4.32864,3.80839Z" /><path d="M4.34513,4.03642a.48943.48943,0,0,1-.004-.09555c.00149-.00909-.0118-.01142-.01514-.00351a.29489.29489,0,0,0-.035.09712.13207.13207,0,0,0,.01694.09026.02235.02235,0,0,0,.038-.00631A.242.242,0,0,0,4.34513,4.03642Z" /><path d="M4.523,5.78089c-.04053.00577-.04667.0683-.0525.10032a.84507.84507,0,0,0-.01106.08971.14432.14432,0,0,0,.00729.07877c.00828.01631.03578.0238.04638.00464a.30477.30477,0,0,0,.01743-.12819c.00145-.02147.00326-.04293.00426-.06444A.33614.33614,0,0,1,4.536,5.79678.01206.01206,0,0,0,4.523,5.78089Z" /><path d="M4.62959,5.93126a.74906.74906,0,0,1-.01354-.14048.01244.01244,0,0,0-.02475-.00247c-.00573.04921-.02312.09452-.025.14476a.22672.22672,0,0,0,.01833.12993.02955.02955,0,0,0,.05026-.00836A.31367.31367,0,0,0,4.62959,5.93126Z" /><path d="M7.20036,5.501a.16394.16394,0,0,1-.09646.03663A.62092.62092,0,0,1,6.98,5.539a.78281.78281,0,0,1-.11074-.00578c-.02954-.0054-.09046-.035-.07736-.07519a.01116.01116,0,0,0-.0209-.00777.09422.09422,0,0,0,.017.10993.11031.11031,0,0,0,.02181.01642l-.01657.03029a.10382.10382,0,0,1-.04118.0461c-.00938.00388-.00509.01974.00512.01736a.17491.17491,0,0,0,.07327-.02533.09831.09831,0,0,0,.03466-.04923.54966.54966,0,0,0,.07744.00672.72233.72233,0,0,0,.17726-.00193.14256.14256,0,0,0,.09973-.08592C7.22464,5.50412,7.20871,5.49219,7.20036,5.501Z" /><path d="M7.72326,4.97455a.42259.42259,0,0,0-.17347-.19311.5287.5287,0,0,0-.55173-.0447.30024.30024,0,0,0-.14675.22023.01711.01711,0,0,0,.03292.00764.30884.30884,0,0,1,.18945-.18871.45918.45918,0,0,1,.32486.02426A.48291.48291,0,0,1,7.62687,4.97c.06225.09423.03732.21248.08183.3124.00792.01777.03951.01518.03957-.00633A.8164.8164,0,0,0,7.72326,4.97455Z" /><path d="M6.85231,5.05789a.27561.27561,0,0,1-.05775.06752c-.02.018-.04406.03231-.06248.05169-.01746.01838.00961.043.03067.035a.22789.22789,0,0,0,.11258-.14621C6.8806,5.05159,6.85934,5.045,6.85231,5.05789Z" /><path d="M6.85367,5.33181c-.01154-.01051-.02334-.01326-.03418-.02226l-.01544-.01329-.01547-.00989c-.01055-.00935-.02592.00082-.02767.01261a.05659.05659,0,0,0,.001.03177.07282.07282,0,0,0,.02172.02946.0672.0672,0,0,0,.0655.017.02576.02576,0,0,0,.01549-.02139A.02762.02762,0,0,0,6.85367,5.33181Z" /><path d="M7.00688,5.1473a.15131.15131,0,0,1-.08836-.01671c-.007-.00555-.02321-.00178-.02029.00627a.06321.06321,0,0,0,.04505.04285A.11007.11007,0,0,0,7.02556,5.176C7.04675,5.16585,7.02787,5.14648,7.00688,5.1473Z" /><path d="M7.08144,5.08212a.12241.12241,0,0,0-.15416-.06545.00793.00793,0,0,0,.00044.01451c.02247.008.04718.0141.0689.02411a.24966.24966,0,0,1,.06077.04651C7.0698,5.1131,7.08711,5.09558,7.08144,5.08212Z" /><path d="M7.39739,5.17663C7.32124,5.106,7.3205,4.99125,7.25732,4.912a.18053.18053,0,0,0-.12459-.06743.27286.27286,0,0,0-.13792.02646.01175.01175,0,0,0,.00656.02226.2338.2338,0,0,1,.13841.024.18818.18818,0,0,1,.08254.10755.35888.35888,0,0,0,.0927.16569.35565.35565,0,0,0-.07486.05064.01176.01176,0,0,0,.01215.01976A.58027.58027,0,0,1,7.31206,5.238c.00639-.00215.0261-.01276.03187-.00573.00485.00591-.00969.03106-.01252.036-.02212.03875-.06164.05788-.09019.09027a.0172.0172,0,0,0,.01657.02668.17452.17452,0,0,0,.1423-.157l-.00267-.02066A.01955.01955,0,0,0,7.39739,5.17663Z" /><path d="M7.44089,6.30589A.33974.33974,0,0,0,7.404,6.18395a.95928.95928,0,0,1-.11246-.23441A1.053,1.053,0,0,1,7.27994,5.702a.80146.80146,0,0,1,.01358-.11421.30781.30781,0,0,1,.04371-.1232c.01107-.01437-.01188-.0306-.023-.01629a.577.577,0,0,0-.07046.09671.39861.39861,0,0,0-.03491.11262,1.03785,1.03785,0,0,0-.00582.25666.57829.57829,0,0,0,.09366.24837.61431.61431,0,0,1,.0575.12637.472.472,0,0,1,.03366.14425.01907.01907,0,0,0,.03794.00379A.52354.52354,0,0,0,7.44089,6.30589Z" /><path d="M7.99386,6.84383a.56954.56954,0,0,0-.20157-.01473.40981.40981,0,0,1-.17441-.03281.32861.32861,0,0,1-.18854-.27248.01589.01589,0,0,0-.02842-.00664c-.0675.12253.05332.27191.15443.33244a.4278.4278,0,0,0,.19214.05875c.04207.003.08435.002.12649.002a.32487.32487,0,0,0,.12147-.01414A.02858.02858,0,0,0,7.99386,6.84383Z" /><path d="M7.75,6.70715a.36938.36938,0,0,1-.13995-.25567c-.03391-.13438-.07113-.2678-.10777-.40145a.80824.80824,0,0,1-.02416-.35539c.01907-.116.057-.22761.07907-.343A.688.688,0,0,0,7.55745,4.976c-.008-.02-.0439-.01628-.04343.00695A1.39776,1.39776,0,0,1,7.51215,5.16a1.02974,1.02974,0,0,1-.03721.17826,3.04364,3.04364,0,0,0-.08877.3527.84853.84853,0,0,0,.02473.37349c.03848.13873.079.2773.12322.4143a.37474.37474,0,0,0,.19994.25857C7.75169,6.74416,7.76759,6.71665,7.75,6.70715Z" /><path d="M7.73224,6.15072c-.01391-.0819-.04949-.15712-.07-.23721A.92733.92733,0,0,1,7.63618,5.667c.00156-.08693.0027-.17494.01263-.26134.00274-.02389-.03193-.02634-.03647-.00365-.01682.084-.04193.16559-.05044.25118a.8723.8723,0,0,0,.00724.24946,1.81273,1.81273,0,0,0,.06993.23023.92468.92468,0,0,1,.03247.12243c.008.0427.00995.08694.021.12891.005.01908.03563.02758.04237.00424A.55962.55962,0,0,0,7.73224,6.15072Z" /><path d="M8.00123,6.69846c-.07758.01749-.17581-.0099-.17066-.10456A.746.746,0,0,1,7.861,6.46a.71972.71972,0,0,0,.02009-.13433,2.30453,2.30453,0,0,0-.08623-.55469.9364.9364,0,0,1-.02331-.31457c.00322-.02142-.032-.03031-.03755-.00871a.81686.81686,0,0,0-.0232.29709c.01175.10617.03837.21.058.31482a1.15921,1.15921,0,0,1,.02612.30666c-.00789.09633-.06484.20348-.023.2985a.16271.16271,0,0,0,.10142.088.2039.2039,0,0,0,.14072-.01063A.023.023,0,0,0,8.00123,6.69846Z" /></svg>