<svg xmlns="http://www.w3.org/2000/svg" data-name="Layer 1" viewBox="3.124508419590596 1.9751754926658471 3.750983160818812 6.049246805131328" x="0px" y="0px"><title>KAMASUTRA</title><path d="M4.27995,2.51787a1.43931,1.43931,0,0,1-.11172-.25377.366.366,0,0,1,.07329-.27275c.0059-.00886-.00633-.02188-.01442-.01345a.65843.65843,0,0,0-.09022.095.27007.27007,0,0,0-.042.12095A.55005.55005,0,0,0,4.166,2.472a.81765.81765,0,0,1,.0562.13943.79334.79334,0,0,1,.02.15263c.00689.11162.02006.22252.03087.33379a.02083.02083,0,0,0,.04114-.00118A1.26185,1.26185,0,0,0,4.27995,2.51787Z" /><path d="M4.43659,4.59561a1.81445,1.81445,0,0,0-.11961-.407,1.914,1.914,0,0,1-.0143-.46851c.00207-.08382.00343-.16763.00344-.25148S4.298,3.3,4.30139,3.21629c.0005-.01242-.01852-.0145-.01934-.00193-.00575.08858-.02378.17684-.03265.26535q-.01249.12471-.02254.24957a1.68622,1.68622,0,0,0-.00558.4667,1.17315,1.17315,0,0,0,.07083.20543.59313.59313,0,0,1,.04718.21352.99776.99776,0,0,0,.03061.43059c.01068.02185.04822.01318.04253-.01254A1.94194,1.94194,0,0,1,4.43659,4.59561Z" /><path d="M4.64185,2.64052a.35818.35818,0,0,0-.1065-.16118.75375.75375,0,0,1-.11412-.18044.80888.80888,0,0,1-.03879-.11208A.4318.4318,0,0,1,4.357,2.066c.00012-.01272-.01967-.0148-.01979-.002a.86527.86527,0,0,0,.00224.18636.63619.63619,0,0,0,.06621.18574A1.14334,1.14334,0,0,0,4.52011,2.59c.03275.041.07808.11637.03789.16554-.01291.0158.00969.03243.02441.02277A.13924.13924,0,0,0,4.64185,2.64052Z" /><path d="M5.95712,2.51787a1.43931,1.43931,0,0,0,.11172-.25377.366.366,0,0,0-.07329-.27275c-.0059-.00886.00633-.02188.01442-.01345a.65843.65843,0,0,1,.09022.095.27007.27007,0,0,1,.042.12095.55005.55005,0,0,1-.07113.2781.81765.81765,0,0,0-.0562.13943.79334.79334,0,0,0-.02.15263c-.00689.11162-.02006.22252-.03087.33379a.02083.02083,0,0,1-.04114-.00118A1.26185,1.26185,0,0,1,5.95712,2.51787Z" /><path d="M5.59523,2.64052a.35818.35818,0,0,1,.1065-.16118.75375.75375,0,0,0,.11412-.18044.80888.80888,0,0,0,.03879-.11208A.4318.4318,0,0,0,5.88007,2.066c-.00012-.01272.01967-.0148.01979-.002a.86527.86527,0,0,1-.00224.18636.63619.63619,0,0,1-.06621.18574A1.14334,1.14334,0,0,1,5.717,2.59c-.03275.041-.07808.11637-.03789.16554.01291.0158-.00969.03243-.02441.02277A.13924.13924,0,0,1,5.59523,2.64052Z" /><path d="M6.08015,4.35433c-.014-.08242-.029-.16465-.0438-.24692C6.024,4.039,6.02323,3.9318,5.971,3.88026l-.00416-.00333c.00368-.03492.00679-.06989.00912-.10489a3.89788,3.89788,0,0,0-.00913-.51788c-.00073-.01089-.01941-.0105-.01927.00055a3.08375,3.08375,0,0,1-.03393.45465,4.28319,4.28319,0,0,1-.08419.45465c-.03677.14829-.088.29436-.11045.44584a.84122.84122,0,0,0-.00482.21718,1.32572,1.32572,0,0,1,.01839.22952,1.81141,1.81141,0,0,1-.11428.49358.02007.02007,0,0,0,.0376.014,1.98286,1.98286,0,0,0,.15921-.41483,3.13,3.13,0,0,0-.0092-.4593A2.96882,2.96882,0,0,1,5.906,4.235q.01532-.0653.02759-.1314l.0039.01945c.01518.08505.03018.17013.04625.255a2.27853,2.27853,0,0,0,.14184.482.01069.01069,0,0,0,.02023-.006C6.12318,4.68756,6.1082,4.52006,6.08015,4.35433Z" /><path d="M5.48978,4.44878c.021-.18976.00556-.38043.04242-.56876.03461-.17687.0946-.34752.14061-.52151a.97107.97107,0,0,0,.0302-.50629.0084.0084,0,0,0-.01605.00161c-.01506.09762-.02579.19575-.04909.29206-.02333.09649-.04852.19229-.07746.28728a3.51948,3.51948,0,0,0-.1324.51229c-.02722.18619-.00153.37533-.02872.561a2.07346,2.07346,0,0,1-.074.27138c-.02786.09583-.05591.19159-.08314.28761-.0452.15936-.09053.31716-.12365.47882-.03311-.16166-.07844-.31946-.12365-.47882-.02723-.096-.05527-.19178-.08314-.28761a2.07346,2.07346,0,0,1-.074-.27138c-.02719-.18569-.00149-.37483-.02872-.561a3.51948,3.51948,0,0,0-.1324-.51229c-.02894-.095-.05413-.19078-.07746-.28728-.02329-.09631-.034-.19444-.04909-.29206a.0084.0084,0,0,0-.01605-.00161.97107.97107,0,0,0,.0302.50629c.046.174.106.34464.14061.52151.03685.18833.02145.379.04242.56876a3.42687,3.42687,0,0,0,.12579.56858c.056.19563.1089.391.18136.58087L5.035,5.5914a.18789.18789,0,0,0-.1978.05129c-.00852.0101.0047.02334.01551.019a.21676.21676,0,0,1,.18158.01061.30351.30351,0,0,1,.07393.05445c.01.00965.01909.02038.02844.03081a.47262.47262,0,0,1,.03249.13747.40214.40214,0,0,1-.07706.30946c-.03273.03655.02376.07795.05872.05476a.37832.37832,0,0,0,.11872-.36131c.03176-.015.06081-.03792.09368-.0508.04911-.01923.10063-.03326.14845-.05557a.25828.25828,0,0,0,.10619-.08322A.13727.13727,0,0,0,5.63792,5.6c-.00088-.01181-.01886-.01057-.02018.00058a.17678.17678,0,0,1-.07634.09613.51916.51916,0,0,1-.12767.05262.56626.56626,0,0,0-.11618.05235c-.01348.008-.02706.01579-.03968.02444a.34943.34943,0,0,0-.05477-.12721l-.00968-.01263c.03145-.00746.06283-.01569.09329-.02422.02905-.00813.03492-.05859-.00167-.05845a.35376.35376,0,0,0-.11175.01884c.07733-.19743.13231-.40114.1907-.60509A3.42687,3.42687,0,0,0,5.48978,4.44878Z" /><path d="M5.4533,5.95189a.0604.0604,0,0,0-.08212-.03345.01207.01207,0,0,0,.00674.02285c.06135-.00973-.01147.10617-.02007.12245-.02013.03812-.0388.07719-.05766.116-.018.03692-.03323.0752-.052.1117a.3086.3086,0,0,0-.04435.08274c-.0029.01618.013.02551.02653.02506.05156-.00174.07621-.0674.09607-.10669.03042-.0602.0601-.12059.08855-.18176C5.43537,6.06686,5.474,6.00188,5.4533,5.95189Z" /><path d="M5.51211,6.06742a3.6913,3.6913,0,0,0-.21443.32948.02251.02251,0,0,0,.03511.0251.9853.9853,0,0,0,.19757-.34494C5.535,6.06642,5.51819,6.05722,5.51211,6.06742Z" /><path d="M5.60557,6.12594a3.47389,3.47389,0,0,0-.22715.29843.02084.02084,0,0,0,.03007.028.54741.54741,0,0,0,.21467-.31989C5.62535,6.12185,5.61123,6.1197,5.60557,6.12594Z" /><path d="M6.843,6.40614c-.01639-.04224-.01409-.09168-.02779-.13545a.28419.28419,0,0,0-.08051-.122,2.86838,2.86838,0,0,0-.259-.2135,3.10893,3.10893,0,0,0-.27214-.1822c-.0465-.02756-.09462-.0528-.14318-.07652a.25833.25833,0,0,0-.1041-.03383A3.14889,3.14889,0,0,0,6.13,5.34971a.64235.64235,0,0,0,.03738-.35759.02037.02037,0,0,0-.04023.00115,1.19443,1.19443,0,0,1-.08227.3402,1.34742,1.34742,0,0,1-.08615.163,1.49353,1.49353,0,0,0-.0806.1665c-.051.11942-.09614.24143-.145.36175-.02428.05982-.05014.11919-.07057.18046a.36451.36451,0,0,1-.08469.16149.00857.00857,0,0,0,.01085.01326.65.65,0,0,0,.18156-.29724l.02633-.06528.00019.00318a1.03232,1.03232,0,0,1-.01332.24215.88355.88355,0,0,1-.0699.22167.339.339,0,0,0-.06017.18961.00886.00886,0,0,0,.01694.00169,1.29386,1.29386,0,0,1,.12438-.18765.64154.64154,0,0,0,.07792-.20937,1.051,1.051,0,0,0,.01746-.22535c-.00154-.07012-.01521-.138-.02361-.20718.02069-.05.04166-.09979.06329-.14929a.286.286,0,0,0,.07827.06263c.044.02771.08761.05591.13147.0838.09.05725.17814.11747.26341.18165.08334.06273.16345.12942.24111.199a.30194.30194,0,0,1,.08732.11094.24066.24066,0,0,0,.07378.10215C6.82579,6.45348,6.85148,6.42809,6.843,6.40614Z" /><path d="M4.49083,5.75069a1.628,1.628,0,0,1-.2676-.41371A2.00412,2.00412,0,0,1,4.038,4.85241a1.462,1.462,0,0,1-.00047-.53589,5.40294,5.40294,0,0,1,.14792-.61129A.01041.01041,0,0,0,4.16595,3.698,1.9713,1.9713,0,0,0,3.9132,4.75838a1.702,1.702,0,0,0,.15139.50009,2.90569,2.90569,0,0,0,.18556.35527L4.247,5.615a5.12667,5.12667,0,0,0-.65167.36211c-.18673.11926-.4045.24869-.4668.47644a.01593.01593,0,0,0,.02985.0111.61888.61888,0,0,1,.22026-.23074c.09677-.06531.19695-.12608.29668-.18675.17589-.107.35663-.20246.53872-.29741a.87034.87034,0,0,0,.01542.28314,2.19476,2.19476,0,0,0,.14085.4577.0093.0093,0,0,0,.01761-.00519,3.92383,3.92383,0,0,1-.05711-.43661,1.65059,1.65059,0,0,1-.01507-.20732A.5614.5614,0,0,1,4.33258,5.73a.97363.97363,0,0,0,.17237.15288.36439.36439,0,0,1,.149.17943c.00632.02148.044.02645.04387-.00126C4.69723,5.92441,4.57761,5.83993,4.49083,5.75069Z" /><path d="M5.06583,5.85748a.27679.27679,0,0,0-.17269-.1442A1.13082,1.13082,0,0,1,4.7614,5.6858a.194.194,0,0,1-.08373-.07187,1.65373,1.65373,0,0,1-.12276-.22985A2.4962,2.4962,0,0,0,4.40968,5.123a.0077.0077,0,0,0-.01347.006,2.4923,2.4923,0,0,0,.09565.283,1.31158,1.31158,0,0,0,.10919.249.27387.27387,0,0,0,.18773.126.48118.48118,0,0,1,.13365.02406c.0397.01915.07775.04636.11552.06922C5.052,5.88879,5.076,5.87484,5.06583,5.85748Z" /><path d="M4.75485,6.34367a.35184.35184,0,0,1-.028-.07008.815.815,0,0,1-.01876-.13792.01259.01259,0,0,0-.02251-.00526.22858.22858,0,0,0-.02344.15784c.00823.04748.02942.12321.07827.14186a.029.029,0,0,0,.03817-.03123A.12677.12677,0,0,0,4.75485,6.34367Z" /><path d="M4.877,6.328a.63975.63975,0,0,1-.04066-.08.507.507,0,0,1-.039-.17517c-.00045-.01175-.01959-.01325-.02269-.00227a.38131.38131,0,0,0-.00779.19091c.01044.04623.03775.14656.09688.14722a.02726.02726,0,0,0,.02747-.01712A.06808.06808,0,0,0,4.877,6.328Z" /><path d="M5.00622,6.28241c-.059-.02449-.06851-.08975-.08907-.14435-.026-.069-.06472-.13408-.08683-.20417-.00212-.00673-.01365-.00336-.01193.00352.02332.093.02557.19.051.28324.01583.05808.0574.14094.13057.12471A.033.033,0,0,0,5.00622,6.28241Z" /><path d="M3.51841,7.3a1.78341,1.78341,0,0,0-.124-.24179,1.01217,1.01217,0,0,1-.19712-.50436.01507.01507,0,0,0-.029-.00673c-.0696.16146.04307.34271.11289.48413.03952.08.08286.15841.12046.23937a.82518.82518,0,0,1,.04862.12463c.01244.04465.01787.09053.02864.13548.00752.03139.05551.04235.06693.00669A.36042.36042,0,0,0,3.51841,7.3Z" /><path d="M3.4284,7.62825a1.645,1.645,0,0,1-.22223.16055c-.06144.04006-.1095.10905-.06316.17969a.02973.02973,0,0,0,.05214-.01573c-.00136-.072.06742-.10841.11627-.1488a.98853.98853,0,0,0,.14172-.15263C3.46495,7.63635,3.44264,7.61515,3.4284,7.62825Z" /><path d="M4.0869,7.19728c-.01194.03894-.05618.068-.087.0921-.03487.02725-.06974.05454-.10427.08223a1.093,1.093,0,0,0-.19189.183.55638.55638,0,0,0-.10487.22135.37481.37481,0,0,0-.00689.06831.04452.04452,0,0,0-.01672.018c-.01792.035-.087.04662-.11979.05749a.89855.89855,0,0,1-.16532.03327c-.02673.00357-.02287.04034.00128.04478a.54925.54925,0,0,0,.23344-.00723.19741.19741,0,0,0,.10974-.06021.05873.05873,0,0,0,.02189-.00461.02579.02579,0,0,0,.01-.04088.37233.37233,0,0,1,.04695-.20448.74978.74978,0,0,1,.13558-.1799c.05158-.05288.10874-.09964.16375-.1488a.20323.20323,0,0,0,.09333-.15C4.10626,7.19121,4.09045,7.18571,4.0869,7.19728Z" /><path d="M4.29613,6.51663c-.02268-.01795-.04984-.00942-.076-.00506-.0324.00541-.06467.01147-.097.017-.06126.01048-.12324.01547-.1847.02454a1.06132,1.06132,0,0,0-.1762.03873.46769.46769,0,0,0-.10977.049.1665.1665,0,0,1,.02967-.134.01576.01576,0,0,0-.02275-.02121c-.11688.091-.06632.25613-.01787.37a.68021.68021,0,0,1,.0397.10626.58727.58727,0,0,1,.01087.13462.73144.73144,0,0,0,.04055.25732c.01592.04188.07039.01742.0692-.02041-.00249-.07928-.02162-.15613-.021-.23588a.574.574,0,0,0-.02729-.215c-.02052-.05486-.05883-.11608-.08288-.17837a.86657.86657,0,0,1,.12607-.04044c.06254-.01151.12606-.01638.18931-.022a1.45915,1.45915,0,0,0,.18451-.02441c.04389-.00972.12636-.02646.13528-.07943A.02338.02338,0,0,0,4.29613,6.51663Z" /><path d="M4.52645,6.66768a.61765.61765,0,0,0-.06386-.17611c-.00566-.01152-.02532-.007-.02242.00661a.95147.95147,0,0,1,.011.19547.21556.21556,0,0,1-.02437.11333c-.03029.02773-.06293.05363-.09282.08157a.7869.7869,0,0,0-.1883.218c-.01464.03061.02966.04774.04888.02582a.75838.75838,0,0,1,.11463-.10793c.04256-.03195.08857-.05984.1279-.09592a.41778.41778,0,0,0,.13167-.2489A.02247.02247,0,0,0,4.52645,6.66768Z" /><path d="M5.0896,7.9611a1.24058,1.24058,0,0,1-.31788-.03836c-.04377-.01144-.08785-.02239-.131-.03612A.485.485,0,0,1,4.52332,7.842c-.08505-.05647-.04957-.18091-.029-.26029a.50171.50171,0,0,0,.02016-.14211.62227.62227,0,0,0-.02864-.14.01179.01179,0,0,0-.02328.00368.94171.94171,0,0,1-.08081.33677.26076.26076,0,0,0,.00436.15707.18892.18892,0,0,0,.01851.03331,2.28871,2.28871,0,0,1-.30265.07739,1.6015,1.6015,0,0,1-.19132.02754,1.00885,1.00885,0,0,1-.10339.00442c-.02644-.0005-.0867.00751-.106-.01462a.009.009,0,0,0-.014.01143c.03234.0501.11564.05787.16987.0645a.8586.8586,0,0,0,.23339-.00924c.07847-.012.15616-.03038.23309-.04981a.355.355,0,0,0,.13049-.054l.01783.01782a.41574.41574,0,0,0,.26144.11251,1.31833,1.31833,0,0,0,.35744-.01439C5.11423,8.00019,5.11492,7.961,5.0896,7.9611Z" /><path d="M4.83938,7.02645a.28173.28173,0,0,1-.14166.035.4033.4033,0,0,0-.15509.055c-.05814.03268-.11407.069-.1731.10014-.0457.02411-.11271.03836-.13875.08652a.90858.90858,0,0,0-.04436.14244,1.19516,1.19516,0,0,1-.05736.14235.725.725,0,0,1-.08207.12971c-.01524.01941-.03186.03744-.04857.05557a.336.336,0,0,1-.0689.0678c-.00982.00548-.00277.0216.00713.01609.02338-.013.05023-.018.074-.03118a.33879.33879,0,0,0,.06089-.04324A.619.619,0,0,0,4.168,7.67275a.74039.74039,0,0,0,.04121-.06646.40715.40715,0,0,0,.10988-.08082.442.442,0,0,0,.10694-.127c.00665-.01287-.01079-.02892-.02322-.02185a1.062,1.062,0,0,0-.12812.09457l-.0074.00564c.01163-.032.02184-.0647.031-.09784a.1694.1694,0,0,1,.02581-.06328.31293.31293,0,0,1,.08428-.05216c.06061-.0329.12323-.06188.18454-.09346a.5625.5625,0,0,1,.16216-.05286.17448.17448,0,0,0,.11333-.06368C4.88266,7.03543,4.8568,7.01265,4.83938,7.02645Z" /><path d="M6.48159,7.3a1.78341,1.78341,0,0,1,.124-.24179,1.01217,1.01217,0,0,0,.19712-.50436.01507.01507,0,0,1,.029-.00673c.0696.16146-.04307.34271-.11289.48413-.03952.08-.08286.15841-.12046.23937a.82518.82518,0,0,0-.04862.12463c-.01244.04465-.01787.09053-.02864.13548-.00752.03139-.05551.04235-.06693.00669A.36042.36042,0,0,1,6.48159,7.3Z" /><path d="M6.5716,7.62825a1.645,1.645,0,0,0,.22223.16055c.06144.04006.1095.10905.06316.17969a.02973.02973,0,0,1-.05214-.01573c.00136-.072-.06742-.10841-.11627-.1488a.98853.98853,0,0,1-.14172-.15263C6.53505,7.63635,6.55736,7.61515,6.5716,7.62825Z" /><path d="M5.9131,7.19728c.01194.03894.05618.068.087.0921.03487.02725.06974.05454.10427.08223a1.093,1.093,0,0,1,.19189.183.55638.55638,0,0,1,.10487.22135.37481.37481,0,0,1,.00689.06831.04452.04452,0,0,1,.01672.018c.01792.035.087.04662.11979.05749a.89855.89855,0,0,0,.16532.03327c.02673.00357.02287.04034-.00128.04478a.54925.54925,0,0,1-.23344-.00723.19741.19741,0,0,1-.10974-.06021.05873.05873,0,0,1-.02189-.00461.02579.02579,0,0,1-.01-.04088.37233.37233,0,0,0-.04695-.20448.74978.74978,0,0,0-.13558-.1799c-.05158-.05288-.10874-.09964-.16375-.1488a.20323.20323,0,0,1-.09333-.15C5.89374,7.19121,5.90955,7.18571,5.9131,7.19728Z" /><path d="M5.70387,6.51663c.02268-.01795.04984-.00942.076-.00506.0324.00541.06467.01147.097.017.06126.01048.12324.01547.1847.02454a1.06132,1.06132,0,0,1,.1762.03873.46769.46769,0,0,1,.10977.049.1665.1665,0,0,0-.02967-.134.01576.01576,0,0,1,.02275-.02121c.11688.091.06632.25613.01787.37a.68021.68021,0,0,0-.0397.10626.58727.58727,0,0,0-.01087.13462.73144.73144,0,0,1-.04055.25732c-.01592.04188-.07039.01742-.0692-.02041.00249-.07928.02162-.15613.021-.23588a.574.574,0,0,1,.02729-.215c.02052-.05486.05883-.11608.08288-.17837a.86657.86657,0,0,0-.12607-.04044c-.06254-.01151-.12606-.01638-.18931-.022a1.45915,1.45915,0,0,1-.18451-.02441c-.04389-.00972-.12636-.02646-.13528-.07943A.02338.02338,0,0,1,5.70387,6.51663Z" /><path d="M5.8543,7.10659a.78686.78686,0,0,0-.1883-.218L5.664,6.8867c-.00515-.029-.01665-.05685-.0191-.08688A.294.294,0,0,0,5.6141,6.6796a.01323.01323,0,0,0-.025.00739.46573.46573,0,0,1-.02032.116.3243.3243,0,0,1-.09431-.1333.02245.02245,0,0,0-.0432.01.41777.41777,0,0,0,.13167.2489c.03932.03608.08534.064.1279.09592a.75827.75827,0,0,1,.11463.10793C5.82465,7.15433,5.86894,7.1372,5.8543,7.10659Z" /><path d="M6.29875,7.92522c-.01926.02213-.07952.01412-.106.01462a1.00879,1.00879,0,0,1-.10339-.00442,1.60154,1.60154,0,0,1-.19132-.02754A2.23814,2.23814,0,0,1,5.58842,7.828L5.5922,7.8187A.43058.43058,0,0,0,5.59788,7.599a.74793.74793,0,0,0-.08017-.23227c-.00626-.01165-.026-.00753-.0233.00687.01155.06228.02454.12388.03209.18684a.89383.89383,0,0,1,.01072.09788.403.403,0,0,1-.01848.10456.28853.28853,0,0,1-.2386.20271.0063.0063,0,0,0,.00035.01243A.307.307,0,0,0,5.55,7.891a.3653.3653,0,0,0,.12638.05105c.07693.01942.15462.03782.23309.04981a.85861.85861,0,0,0,.23339.00924c.05423-.00663.13753-.0144.16987-.0645A.009.009,0,0,0,6.29875,7.92522Z" /><path d="M6.07048,7.841a.336.336,0,0,1-.0689-.0678c-.01672-.01813-.03333-.03616-.04857-.05557a.72508.72508,0,0,1-.08207-.12971,1.19549,1.19549,0,0,1-.05735-.14235.90859.90859,0,0,0-.04436-.14244c-.026-.04817-.09305-.06242-.13875-.08652-.059-.03114-.115-.06746-.1731-.10014a.40332.40332,0,0,0-.15509-.055.28175.28175,0,0,1-.14166-.035c-.01741-.0138-.04328.009-.02907.02711a.17447.17447,0,0,0,.11333.06368.56254.56254,0,0,1,.16216.05286c.06131.03157.12392.06056.18454.09346a.313.313,0,0,1,.08428.05216.16936.16936,0,0,1,.02581.06328q.00792.02855.01692.0566c-.03923-.03367-.0841-.05941-.1235-.09261-.00982-.00827-.02357.00686-.01531.01642.05924.06852.10879.17115.19364.21355a.76193.76193,0,0,0,.05857.0998.6189.6189,0,0,0,.09653.10995.33893.33893,0,0,0,.06089.04324c.02372.01313.05058.01814.074.03118C6.07324,7.86262,6.0803,7.8465,6.07048,7.841Z" /><path d="M4.64581,6.736a.00887.00887,0,0,0-.0155.00694c.00779.05054-.05829.11255-.09147.1443a1.32405,1.32405,0,0,1-.11837.10042c-.02132.01609.00051.04637.02345.03814a.377.377,0,0,0,.17316-.13024C4.65056,6.85144,4.6895,6.78531,4.64581,6.736Z" /><path d="M4.72931,6.86812c-.03553.02413-.06121.06076-.09721.08531a.55337.55337,0,0,1-.12106.06065c-.02138.00784-.01657.04581.00725.04532a.24013.24013,0,0,0,.14961-.05225A.1907.1907,0,0,0,4.74962,6.879.01265.01265,0,0,0,4.72931,6.86812Z" /><path d="M5.312,6.72756a.00887.00887,0,0,1,.0155.00694c-.00779.05054.05829.11255.09147.1443a1.32405,1.32405,0,0,0,.11837.10042c.02132.01609-.00051.04637-.02345.03814a.377.377,0,0,1-.17316-.13024C5.30726,6.843,5.26832,6.77691,5.312,6.72756Z" /><path d="M5.22851,6.85972c.03553.02413.06121.06076.09721.08531a.55337.55337,0,0,0,.12106.06065c.02138.00784.01657.04581-.00725.04532a.24013.24013,0,0,1-.14961-.05225.1907.1907,0,0,1-.08172-.12813A.01265.01265,0,0,1,5.22851,6.85972Z" /><path d="M5.054,7.261a.02371.02371,0,0,0-.04353.00132.93035.93035,0,0,0-.0232.26781c.0013.042.00579.08387.00864.12575a.72193.72193,0,0,0,.017.14441.00934.00934,0,0,0,.01782.00178.85311.85311,0,0,0,.05079-.2708A.7.7,0,0,0,5.054,7.261Z" /><path d="M5.07975,6.51038a.2972.2972,0,0,0-.09674.14606c-.011.0713.03068.1375.02277.20887a.01156.01156,0,0,0,.023.0023,1.25372,1.25372,0,0,1,.026-.18046c.01745-.0528.06118-.085.08812-.13206A.0387.0387,0,0,0,5.07975,6.51038Z" /><path d="M5.55581,2.92818A.299.299,0,0,0,5.45943,2.764a.45618.45618,0,0,0-.16732-.07143.48859.48859,0,0,0-.35636.06125.36575.36575,0,0,0-.13044.13467.23081.23081,0,0,0-.00949.1787c.00367.01329.025.01022.02147-.00339a.18226.18226,0,0,1,.06247-.15472.38846.38846,0,0,1,.11919-.08774.47333.47333,0,0,1,.28448-.04185.31861.31861,0,0,1,.13885.04873c.04028.03067.05251.10772.06194.15453a.73214.73214,0,0,1,.02293.1754.51447.51447,0,0,1-.012.08491c-.00613.028-.00769.05547-.013.0834a.01881.01881,0,0,0,.03383.01265A.3102.3102,0,0,0,5.555,3.24907a.89027.89027,0,0,0,.0164-.11321A.53262.53262,0,0,0,5.55581,2.92818Z" /><path d="M5.45669,3.18072c-.0183-.07144-.08456-.05375-.13512-.03234-.03374.01429-.07436.031-.10444.00384a.27684.27684,0,0,0-.06108-.0531.19983.19983,0,0,0-.27571.12992.01329.01329,0,0,0,.02067.01478c.07716-.0555.16838-.12194.25189-.039a.11409.11409,0,0,0,.11237.03394.57623.57623,0,0,0,.06829-.02926c.03-.011.044.003.06959.01506A.04026.04026,0,0,0,5.45669,3.18072Z" /><path d="M4.834,3.2102a.059.059,0,0,0-.10482-.006.09975.09975,0,0,0-.01475.0762c.00494.02641.02732.05086.02787.0775.00067.03209.04244.05623.0638.02386.02314-.03507.00885-.06643-.0101-.09953-.00608-.01062-.01794-.03068-.00979-.04339.00363-.00566.02114-.01536.02745-.012A.01376.01376,0,0,0,4.834,3.2102Z" /><path d="M5.08049,3.83955c-.04986-.034-.09705-.068-.14432-.10622-.045-.03637-.14587-.087-.14429-.155a.01064.01064,0,0,0-.02117-.00212.17981.17981,0,0,0,.01775.11473.41911.41911,0,0,0,.08323.09229c.04315.03892.14665.156.21.09036A.02177.02177,0,0,0,5.08049,3.83955Z" /><path d="M5.4894,3.46708a.01767.01767,0,0,0-.02441-.0133l-.00975.005a.08207.08207,0,0,0-.0495-.03363.17916.17916,0,0,0-.10738.01359c-.0096.003-.00571.017.0029.01812a.23949.23949,0,0,1,.07993.02271.19254.19254,0,0,1,.02427.01713.27727.27727,0,0,0-.02536.03019.09278.09278,0,0,0-.0505-.01823.15578.15578,0,0,0-.026-.0016.07827.07827,0,0,0-.028.00937A.00893.00893,0,0,0,5.27234,3.53a.09183.09183,0,0,0,.01172.01962.11007.11007,0,0,0,.02382.01708.13326.13326,0,0,0,.03775.01654c-.01324.02507-.025.05086-.03693.07526a.38069.38069,0,0,1-.07625.10238.40328.40328,0,0,1-.1121.09066.0116.0116,0,0,0,.00648.022.37022.37022,0,0,0,.13141-.03878.31592.31592,0,0,0,.102-.10441c.02784-.04491.04515-.0952.06914-.14209C5.44924,3.54936,5.49414,3.51369,5.4894,3.46708Z" /><path d="M5.09869,3.45588a.13671.13671,0,0,0-.05608-.03617.41117.41117,0,0,1-.056-.03127.01072.01072,0,0,0-.01588.013.23848.23848,0,0,0,.01359.033.145.145,0,0,0,.02459.03128.08711.08711,0,0,0,.07337.03308A.02685.02685,0,0,0,5.09869,3.45588Z" /><path d="M5.164,3.70583c-.02517-.01479-.06156-.00822-.08248-.02852a.01173.01173,0,0,0-.02044.00617.06148.06148,0,0,0,.03507.06529c.02473.01239.06555.01235.075-.01983A.02026.02026,0,0,0,5.164,3.70583Z" /><path d="M5.14111,3.38026A.16128.16128,0,0,0,5.06652,3.333a.30125.30125,0,0,0-.09534-.00228c-.01448.00033-.01746.02251-.0023.023a.27181.27181,0,0,1,.08078.0246c.02433.00944.04912.01766.07332.02736C5.13718,3.41132,5.1526,3.39191,5.14111,3.38026Z" /><path d="M5.18736,4.6749a.70447.70447,0,0,0-.05418-.13536.545.545,0,0,1-.03129-.16047c-.00044-.03187-.04911-.03825-.05043-.005-.00169.04246-.006.08282-.0054.12383-.011.01469-.01949.03222-.02978.04691a.2218.2218,0,0,0-.04363.06841.0301.0301,0,0,0,.03249.03971.09464.09464,0,0,0,.05787-.0436.1451.1451,0,0,0,.08.10187A.03351.03351,0,0,0,5.18736,4.6749Z" /></svg>