<svg xmlns="http://www.w3.org/2000/svg" data-name="Layer 1" viewBox="1.924456772554788 2.872492258974834 6.151398030322672 4.2550953030038645" x="0px" y="0px"><title>KAMASUTRA</title><path d="M5.38909,5.47278c-.01943-.09958-.02442-.20127-.037-.30217-.01451-.11621-.03195-.23185-.04427-.34839A.59392.59392,0,0,0,5.23911,4.539a.40108.40108,0,0,0-.08775-.091,1.28211,1.28211,0,0,0-.12625-.06723c-.00857-.00515-.01762.0071-.00911.01286a.95565.95565,0,0,1,.09663.08685c.01317.01181.02619.02379.03855.03635a.57493.57493,0,0,0-.12849.24084,1.96251,1.96251,0,0,1-.12078.293.8317.8317,0,0,1-.0995.12645c-.03853.04538-.07914.08892-.11717.13473-.0163.01964-.03209.03959-.04757.05976a2.23638,2.23638,0,0,1-.31435.17541c-.12179.06046-.24434.1196-.36682.17867a1.09684,1.09684,0,0,1-.38951.14407c-.06889.00416-.13839-.00194-.20739-.00074s-.13756.00665-.20624.01428c-.0811.009-.16177.02092-.24222.03456-.0376.00637-.07517.013-.11257.02047a.81359.81359,0,0,0-.11209.03905.00978.00978,0,0,0,.003.01855c.03169.00093.06242.00753.09434.0058.038-.00205.07606-.008.11386-.01227.07311-.00821.14638-.01548.21975-.02093.06131-.00455.12246-.00589.18358-.00626-.1197.01966-.23677.05333-.35583.07626a1.483,1.483,0,0,1-.19591.02548.89377.89377,0,0,1-.19757-.01816.02529.02529,0,0,0-.017.04549A1.00249,1.00249,0,0,0,3.237,6.08211a1.45575,1.45575,0,0,1,.37882-.03091c.12236.00645.24318.026.36462.04112a1.33265,1.33265,0,0,0,.1873.01736.17584.17584,0,0,0,.12845-.06109,1.79617,1.79617,0,0,0,.19908-.28207,4.94731,4.94731,0,0,1,.39771-.579c.02226-.026.04343-.05279.06531-.07905a.62916.62916,0,0,0,.06566-.0785.88317.88317,0,0,0,.06912-.15987c.01921-.05507.03527-.11119.0549-.1661.01523-.04261.03514-.08327.05231-.125l.00258.00423a.376.376,0,0,1,.03888.149q.009.08687.01651.17394c.00945.11146.01505.22314.02478.33454a.35722.35722,0,0,0,.084.24572C5.37612,5.49483,5.39125,5.48384,5.38909,5.47278Zm-.90081.11376c-.06123.09493-.11814.19263-.18046.28686a.6372.6372,0,0,1-.08861.11977c-.04966.046-.10528.03524-.1674.02731-.14591-.01863-.29-.05076-.43535-.06533a1.2481,1.2481,0,0,0,.32688-.12c.12949-.05921.259-.11839.3868-.18126.05957-.02932.11824-.05994.1753-.09376Z" /><path d="M6.06628,6.24132c-.06414-.04661-.13319-.08636-.19621-.13436a.76387.76387,0,0,1-.17069-.18c-.04576-.06769-.08983-.135-.13036-.206-.01263-.02214-.02708-.04281-.04172-.06343a.06057.06057,0,0,0-.022-.03143l-.00623-.009A.51552.51552,0,0,0,5.412,5.525c-.0086-.008-.02183.00644-.01407.01508a.27438.27438,0,0,1,.04692.087l-.00047.00043a4.73989,4.73989,0,0,1-.45743.40982q-.11973.094-.24092.18587c-.04051.03063-.08174.06018-.121.09246-.02047.01684-.04138.03342-.0605.05178-.02134.0205-.03753.046-.05933.06579-.00967.00879-.00006.02759.01271.02067.02305-.01248.04866-.01854.0724-.02968a.80973.80973,0,0,0,.07511-.04286c.04445-.027.08719-.05633.13021-.08552.08611-.05842.17257-.1172.2558-.17968a3.09634,3.09634,0,0,0,.42871-.37672.39661.39661,0,0,0,.024.059.98167.98167,0,0,0,.14331.21226.70232.70232,0,0,0,.40284.27318A.02368.02368,0,0,0,6.06628,6.24132Z" /><path d="M6.87189,3.70471c-.04105.04637-.07964.09479-.11826.14323A1.15333,1.15333,0,0,0,6.103,3.926c-.10874.0438-.21056.10335-.32088.14344a1.34257,1.34257,0,0,1-.16838.04615,1.20185,1.20185,0,0,1-.17876.03468c-.008.00053-.00728.013.00039.0138a1.0702,1.0702,0,0,0,.16475.01187.68089.68089,0,0,0,.1649-.03261A2.94221,2.94221,0,0,0,6.08079,4.008,1.16907,1.16907,0,0,1,6.69233,3.924c-.0217.02643-.04378.05257-.0667.078a1.7841,1.7841,0,0,0-.23432.31062,2.0637,2.0637,0,0,0-.20187-.16683c-.03626-.02508-.074-.04962-.11125-.0732-.0235-.01486-.04525-.02813-.07254-.01655a.00728.00728,0,0,0,.0004.01331.455.455,0,0,1,.0956.07853c.02743.02473.05251.05158.0807.0756q.08841.07532.175.15273-.02112.04233-.04.0855a.50379.50379,0,0,0-.184.01522.44617.44617,0,0,1-.21811-.03538c-.00784-.0027-.01681.00749-.01013.01418a.33863.33863,0,0,0,.17474.08159.328.328,0,0,0,.107.00445A.43044.43044,0,0,1,6.287,4.534c-.02573.0643-.04911.1296-.07214.1953a1.12834,1.12834,0,0,1-.18956.373,1.67145,1.67145,0,0,1-.16175.15317c-.0297.02654-.05827.05354-.08561.08253l-.02456.0265a1.974,1.974,0,0,1-.10771-.34025c-.04259-.15224-.08683-.30544-.121-.45982a.187.187,0,0,1,.00719-.12784A.6307.6307,0,0,1,5.582,4.36159a.23064.23064,0,0,0,.05725-.14241c-.00055-.00779-.0117-.00785-.01428-.00143-.04367.10875-.1761.14991-.17119.28256a1.20384,1.20384,0,0,0,.0494.23328c.0192.07877.039.15742.05673.23654.01827.08149.03634.163.05511.2444a.8122.8122,0,0,0,.07.20957,1.93009,1.93009,0,0,0,.12019.17765,1.42908,1.42908,0,0,0,.13923.16671,1.21457,1.21457,0,0,0,.18628.15758c.06073.04219.145.0657.1899.12688a.01645.01645,0,0,0,.02766-.017,1.08892,1.08892,0,0,0-.2608-.27275,2.5977,2.5977,0,0,1-.278-.306l-.02116-.0305a.26456.26456,0,0,0,.0356-.02129c.02994-.02221.06-.044.08908-.06726a1.53534,1.53534,0,0,0,.15486-.13923,1.02268,1.02268,0,0,0,.209-.35454c.05174-.13741.09473-.27759.15857-.41022a1.48945,1.48945,0,0,1,.2404-.34714.67441.67441,0,0,0,.22735-.37055A.01746.01746,0,0,0,6.87189,3.70471Z" /><path d="M7.74708,2.97145a.185.185,0,0,0-.138-.01085.43278.43278,0,0,0-.13956.04733.4377.4377,0,0,0-.11288.09142.37389.37389,0,0,1-.12394.11021c-.08913.03866-.18254.04786-.24375.13237a.304.304,0,0,0-.05165.12255,1.35145,1.35145,0,0,0-.00034.14467.00742.00742,0,0,0,.01476.00148.59218.59218,0,0,1,.044-.1205.40989.40989,0,0,1,.05585-.11084c.058-.07169.15791-.07192.23443-.11287.07961-.0426.12037-.12788.19424-.178a.38456.38456,0,0,1,.13319-.05818c.04121-.00886.092.00227.12943-.01649A.02474.02474,0,0,0,7.74708,2.97145Z" /><path d="M7.67174,3.1099c-.03684.02933-.08076.05094-.11488.08281a1.09491,1.09491,0,0,0-.09184.102,2.65326,2.65326,0,0,0-.167.23,4.23112,4.23112,0,0,0-.276.49783c-.08325.17174-.16258.346-.23552.52244-.08059.19489-.12143.40251-.18352.60351a2.78855,2.78855,0,0,1-.12129.322.96108.96108,0,0,1-.06392.12294.714.714,0,0,1-.04652.06888.1844.1844,0,0,0-.10988.13121.00906.00906,0,0,0,.01744.004c.0108-.0362.0735-.05923.1063-.075a.32222.32222,0,0,1,.11333-.03179.44087.44087,0,0,1,.2166.0689.02323.02323,0,0,0,.02587-.03619.27.27,0,0,0-.26244-.09737c.00958-.01271.01836-.02592.02653-.03874a1.54557,1.54557,0,0,0,.12013-.25349A3.12773,3.12773,0,0,0,6.733,5.02846c.02886-.10006.05108-.202.08283-.30121a5.23,5.23,0,0,1,.23346-.55686,5.72631,5.72631,0,0,1,.26353-.5131,3.04122,3.04122,0,0,1,.1802-.27319c.03084-.04194.0626-.08306.09454-.12416.03525-.04538.05692-.09685.09258-.14219C7.68428,3.11252,7.67678,3.10589,7.67174,3.1099Z" /><path d="M5.17859,4.3581c-.0452-.05294-.11147-.048-.17426-.05349-.00593-.00051-.01045.00855-.0044.01177.02388.01271.04585.02835.07038.04a.22.22,0,0,1,.06545.03674C5.16054,4.41749,5.20224,4.3858,5.17859,4.3581Z" /><path d="M5.29315,4.31977c-.031-.01948-.04618-.05434-.07842-.07236a.14849.14849,0,0,0-.11759.00354A.00926.00926,0,0,0,5.1,4.26923a.127.127,0,0,1,.07422.00484.11574.11574,0,0,1,.03879.04221.10262.10262,0,0,0,.06293.04939A.02552.02552,0,0,0,5.29315,4.31977Z" /><path d="M5.48885,4.27381A.13168.13168,0,0,1,5.3296,4.2351a.18336.18336,0,0,0-.04942-.05862c-.02546-.0149-.03612-.008-.05951.00317a.00748.00748,0,0,0,.00227.01417c.03262.00281.04909.0571.064.0792a.14283.14283,0,0,0,.06366.05238.14.14,0,0,0,.15074-.03131C5.51013,4.2849,5.50222,4.26792,5.48885,4.27381Z" /><path d="M5.988,4.2898C5.93125,4.25,5.8538,4.258,5.7908,4.2334c-.00993-.00388-.01477.01062-.00565.0152a.79515.79515,0,0,0,.12979.06267.16175.16175,0,0,1,.09768.09826.022.022,0,0,0,.0375.00375C6.08841,4.3688,6.02206,4.31367,5.988,4.2898Z" /><path d="M6.06725,4.2348a.17529.17529,0,0,0-.1142-.04862.87293.87293,0,0,1-.17634-.02c-.01069-.00262-.01716.01284-.00613.01649.04561.01511.09047.03294.13746.0437.023.00526.04735.0062.0697.01369s.0419.02172.06364.031C6.06136,4.2795,6.08406,4.25086,6.06725,4.2348Z" /><path d="M6.09261,4.16562a.16544.16544,0,0,0-.19405-.0422.00724.00724,0,0,0,.002.0123c.02815.01073.05791.01318.08669.02171.03.0089.05427.02971.08358.0386A.01955.01955,0,0,0,6.09261,4.16562Z" /><path d="M7.44081,6.45986a.02645.02645,0,0,0-.02957-.003c-.02208.01038-.025.03267-.0549.03371a.26022.26022,0,0,1-.15863-.08874.01041.01041,0,0,0-.01611.01318.29124.29124,0,0,0,.13893.137.10381.10381,0,0,0,.1311-.05709A.03121.03121,0,0,0,7.44081,6.45986Z" /><path d="M8.065,6.43221c-.02-.07507-.07747-.17509-.15991-.18894a.01338.01338,0,0,0-.01318.01838l-.00068.00756a.38717.38717,0,0,1,.00575.13307.13715.13715,0,0,1-.08115.10956.299.299,0,0,1-.13615.03185.31914.31914,0,0,1-.15779-.02934c-.01213-.00707-.02464.00964-.01283.01811a.31362.31362,0,0,0,.1774.0756.31823.31823,0,0,0,.1817-.04879.18892.18892,0,0,0,.09227-.14408.306.306,0,0,0-.00062-.07434l.0063.012a.31777.31777,0,0,1,.01942.11877.46761.46761,0,0,1-.05073.23527.6054.6054,0,0,1-.36751.28481.8108.8108,0,0,1-.53686-.02252,2.4501,2.4501,0,0,1-.25411-.10309.70048.70048,0,0,1-.19869-.1618.92012.92012,0,0,0-.21375-.17949L6.36033,6.5229a.957.957,0,0,0,.30922-.09141.97681.97681,0,0,1,.21269-.07387.63507.63507,0,0,1,.21982.01445.0286.0286,0,0,0,.02474-.04613c-.08829-.08735-.244-.05849-.3504-.02576a2.02953,2.02953,0,0,1-.39225.13061.89952.89952,0,0,1-.22487-.01832.68717.68717,0,0,1-.20317-.057c-.06421-.032-.12351-.07248-.18994-.10021A.92942.92942,0,0,0,5.56339,6.198c-.0813-.01381-.16395-.0191-.246-.02674a1.54185,1.54185,0,0,0-.26244-.011.01858.01858,0,0,0-.00355.03552,2.92039,2.92039,0,0,0,.43415.07564.99377.99377,0,0,1,.21329.05528,1.77414,1.77414,0,0,1,.18771.0978.8899.8899,0,0,0,.3379.09416,1.02374,1.02374,0,0,1,.12573.08588,1.90564,1.90564,0,0,1,.19995.20578.70554.70554,0,0,0,.23281.16643,2.4213,2.4213,0,0,0,.28573.11069.86271.86271,0,0,0,.58237-.0223.67644.67644,0,0,0,.38485-.34915A.45044.45044,0,0,0,8.065,6.43221Z" /><path d="M7.83861,6.09985c-.01886.00472-.03666.00369-.05481.00914a.20606.20606,0,0,1-.0164-.04679c-.00648-.02979.00106-.06506-.01593-.09176-.02093-.0329-.07392-.04068-.08908.00021-.00409.011.00856.02584.02014.019.02934-.01745.04765.08134.058.09981.00577.0103.01236.02044.01933.03046a.20157.20157,0,0,0-.035.02612.19269.19269,0,0,0-.05744.1097.02135.02135,0,0,0,.03841.01437.472.472,0,0,1,.06093-.07942A.33838.33838,0,0,1,7.79345,6.165l.01175.01538c.00774.01026.02288-.00229.0154-.0126l-.01191-.01688a.13463.13463,0,0,1,.036-.03034C7.85567,6.11572,7.85084,6.0968,7.83861,6.09985Z" /><path d="M7.44282,5.89763a.14649.14649,0,0,0-.1565.03287.1942.1942,0,0,0-.04541.06923l-.0011.00263-.00885-.002a.42587.42587,0,0,1-.04474-.01173.34489.34489,0,0,0,.03971-.12631.44694.44694,0,0,0,.00356-.17163c-.02336-.11825-.11068-.21653-.117-.33993-.0004-.00788-.01347-.00746-.0138.00039a.77206.77206,0,0,0,.00057.16033,1.08237,1.08237,0,0,0,.05475.15487.36918.36918,0,0,1,.008.17443.79861.79861,0,0,1-.02229.09539.2114.2114,0,0,0-.00837.03258l-.03208-.01256A.76771.76771,0,0,1,7.02,5.92767c-.01092-.00589-.02234.00874-.0115.01624.01832.01268.03155.03017.05024.04268a.55913.55913,0,0,0,.05586.03326.3354.3354,0,0,0,.10331.03928.07342.07342,0,0,1-.02532.02781c-.00768.00492.00035.01562.00794.01291a.17255.17255,0,0,0,.09527-.0797c.012-.02154.02028-.0446.03183-.06623A.08969.08969,0,0,1,7.43636,5.915.00926.00926,0,0,0,7.44282,5.89763Z" /><path d="M7.538,5.94348a.02175.02175,0,0,0-.02268-.01235.05241.05241,0,0,0-.03623.03193.16946.16946,0,0,0-.01147.04453.01907.01907,0,0,0,.03079.01651A.15912.15912,0,0,0,7.53,5.99161.05323.05323,0,0,0,7.538,5.94348Z" /><path d="M6.87634,5.46827a.28554.28554,0,0,0-.15252-.00661.21688.21688,0,0,0-.06165.0234c-.0273.01625-.039.04158-.06112.06335-.00938.00922.00288.025.01318.01611a.31392.31392,0,0,1,.11919-.04216.21656.21656,0,0,1,.12567.00957c.07758.03146.1031.1005.1499.16248a.02469.02469,0,0,0,.0432-.013C7.06524,5.58228,6.96181,5.49575,6.87634,5.46827Z" /><path d="M7.91246,6.60045a.47266.47266,0,0,1-.26781.19595.757.757,0,0,1-.34687.05551A1.37672,1.37672,0,0,1,6.651,6.56934c-.01242-.0086-.02448.00931-.01336.01887a1.939,1.939,0,0,0,.31859.25036.81069.81069,0,0,0,.37541.103c.22966.0041.53461-.0845.60335-.33279A.012.012,0,0,0,7.91246,6.60045Z" /><path d="M7.573,6.67681a.8607.8607,0,0,1-.347-.02071.77163.77163,0,0,1-.15791-.08733c-.0566-.0363-.11455-.06991-.169-.10959-.01312-.00957-.02657.01016-.01442.02037a1.21246,1.21246,0,0,0,.33229.26057A.44007.44007,0,0,0,7.58429,6.715.02016.02016,0,0,0,7.573,6.67681Z" /><path d="M8.05888,2.934a.01979.01979,0,0,0-.02258-.01762A.14953.14953,0,0,0,7.94551,2.873a.13146.13146,0,0,0-.0836.021.1887.1887,0,0,0-.05743.07362A.01069.01069,0,0,0,7.8199,2.982a.21984.21984,0,0,1,.11855-.03846.1096.1096,0,0,1,.05488.02718c-.00891.0197-.01629.04014-.02542.06061a.72084.72084,0,0,1-.06872.12056,1.77115,1.77115,0,0,1-.18372.20012c-.02881.03-.05817.06053-.08422.09291a.74166.74166,0,0,0-.06907.11939c-.04188.07928-.07952.16044-.1138.24328a8.07829,8.07829,0,0,0-.29782,1.03464c-.02652.10008-.0544.19985-.08569.29856-.01488.047-.0311.09345-.04406.141a.29172.29172,0,0,1-.06075.13089c-.00807.0083-.00075.02363.01128.01835a.27378.27378,0,0,0,.12538-.16822c.03411-.0868.05983-.17761.08556-.26718.05169-.18.09506-.36219.142-.54342L7.33044,4.46a.19813.19813,0,0,1,.02984.06782.68152.68152,0,0,1,.00773.16707c-.00154.12571-.00244.25141-.00481.3771-.00232.12293-.00462.24587-.00792.36878a.46839.46839,0,0,1-.07674.32077c-.02663.03054.02069.07084.05072.04731A.38665.38665,0,0,0,7.452,5.48406c.00429-.14805.00769-.29613.00924-.44424.00147-.14088.00756-.2834-.00088-.42411a.33.33,0,0,0-.04855-.166.19263.19263,0,0,0-.06961-.06495c.03162-.11631.06686-.23186.10423-.34654.01781.02882.03807.05676.05313.08585a.47753.47753,0,0,1,.054.17092.63569.63569,0,0,1-.08374.35625c-.01021.01941.01776.03466.03258.02329a.42816.42816,0,0,0,.152-.39548.50514.50514,0,0,0-.06963-.19978.29986.29986,0,0,0-.11416-.11452l.01644-.04885a2.54239,2.54239,0,0,1,.10391-.2582A1.00836,1.00836,0,0,1,7.73386,3.409c.03747-.04154.08433-.07385.12493-.11215A.74255.74255,0,0,0,7.948,3.19505.4432.4432,0,0,0,8.05888,2.934Z" /><path d="M2.40486,5.98757a.20505.20505,0,0,0-.28331-.02807c-.09615.08593-.0293.2105-.03378.31714-.00475.11338-.06238.217-.076.32908a.31585.31585,0,0,0,.12087.28844c.04241.03349.0901-.03454.04842-.06839-.15783-.12817-.02346-.34189-.00163-.49967a.4397.4397,0,0,0-.003-.13247.35878.35878,0,0,1-.01218-.1277c.02333-.11187.16533-.03982.23445-.06219A.01226.01226,0,0,0,2.40486,5.98757Z" /><path d="M4.39724,6.47968a.58045.58045,0,0,0-.06108.009.24609.24609,0,0,1-.06376-.0041c-.04172-.0052-.0833-.01161-.12435-.02076a1.818,1.818,0,0,0-.25063-.025q-.2545-.02021-.509-.04026c-.17038-.01333-.34091-.02469-.51049-.04636a1.507,1.507,0,0,0-.24893-.015c-.03816.00142-.0761.00528-.1141.00871a.48556.48556,0,0,0-.11158.01159c-.076.02645-.09168.12518-.10891.193a1.22143,1.22143,0,0,0-.02911.13653c-.00642.048-.00032.09692-.00775.14472-.00214.01374.02087.01951.0241.00559a.65.65,0,0,1,.04029-.10465c.0158-.03718.027-.07573.04016-.11393.01226-.03567.0242-.07146.03678-.107.01156-.03269.01706-.06249.05156-.07619a.54814.54814,0,0,1,.24623-.01076c.07939.00827.158.02285.23695.03395.15816.02222.31911.02915.47826.04173q.24617.01946.49238.03845A1.53193,1.53193,0,0,0,4.16,6.54963a1.12648,1.12648,0,0,0,.129-.01479.80408.80408,0,0,0,.11821-.02137C4.4277,6.50591,4.41568,6.479,4.39724,6.47968Z" /><path d="M2.07243,5.83545a.01356.01356,0,0,0-.00626-.02029c-.05225-.0225-.10043.03144-.11981.0744a.3438.3438,0,0,0-.00356.20121.58888.58888,0,0,1,.00264.24506.2878.2878,0,0,0-.00205.21054.03686.03686,0,0,0,.06737-.02982.31705.31705,0,0,1,.01453-.17741.54615.54615,0,0,0,.0054-.18935,1.08218,1.08218,0,0,1-.02648-.18819C2.0071,5.90358,2.04044,5.87817,2.07243,5.83545Z" /><path d="M3.59739,5.40216c-.05827.0103-.11479.02468-.17323.034a1.59538,1.59538,0,0,1-.18249.0178,1.9655,1.9655,0,0,0-.38549.04246,1.94092,1.94092,0,0,0-.36628.13563c-.06021.02844-.11841.06057-.17649.09308a.40928.40928,0,0,0-.14983.10586.00864.00864,0,0,0,.00614.01348.42329.42329,0,0,0,.16991-.06011c.0626-.02875.12591-.05609.18929-.08306a2.01208,2.01208,0,0,1,.37842-.12266,2.44489,2.44489,0,0,1,.37752-.03323.4705.4705,0,0,0,.33383-.109C3.63188,5.42218,3.61446,5.39914,3.59739,5.40216Z" /><path d="M4.9043,4.342a.23441.23441,0,0,0-.11806.08883c-.0164.01889-.03109.03924-.04755.05805a.55537.55537,0,0,1-.06437.05328c-.10357.088-.21283.16945-.32.253-.11035.086-.22031.17257-.32836.26144-.054.0444-.10842.08856-.16083.13482-.02517.02222-.05023.04486-.07435.0682-.0282.02729-.05236.06036-.08085.08676a.01064.01064,0,0,0,.01347.01646c.03154-.02067.06867-.03582.101-.056.02731-.017.05417-.03511.08073-.05327.05778-.03953.114-.08167.17015-.12343.1101-.08182.21866-.16569.3266-.25034.1037-.08133.21114-.15952.311-.2455a.83384.83384,0,0,0,.1015-.12244.716.716,0,0,1,.0497-.05906c.02027-.02043.0452-.03363.06616-.05282A.03319.03319,0,0,0,4.9043,4.342Z" /></svg>