<svg xmlns="http://www.w3.org/2000/svg" data-name="Layer 1" viewBox="1.6741030639670738 1.9695788847978162 6.652654362300865 6.0594926666053865" x="0px" y="0px"><title>KAMASUTRA</title><path d="M7.09989,5.10554a.1546.1546,0,0,1,.0649-.008.328.328,0,0,1-.0172-.14512.54088.54088,0,0,1,.008-.07644c.00511-.02527.02082-.0496.02476-.07431a.01014.01014,0,0,1,.02.0031.31826.31826,0,0,0,.00906.07258c.0026.02552.00449.05121.00631.0768a.37923.37923,0,0,0,.03806.15927l.02.04055a.24511.24511,0,0,1,.0552.09424,1.51441,1.51441,0,0,1,.0324.40549q.0065.21966.01.43934c.00245.14739.00947.29609.00259.44338-.00195.04164-.00911.08255-.00918.12415-.00007.04223.001.08445.00245.12665.00268.07753.00546.15507.0097.23253a.26641.26641,0,0,0,.09615.04388c.04193.00915.08469.01356.12657.023a.42425.42425,0,0,1,.11293.0426.27357.27357,0,0,0,.13617.049.03368.03368,0,0,1,.01523.06475c-.07473.02729-.13721-.01819-.20093-.05248a.65333.65333,0,0,0-.20781-.053c-.054-.00939-.16543-.02293-.17014-.09383-.00293-.04423.003-.09083.00406-.13518q.00178-.07357.00252-.14719A1.17478,1.17478,0,0,0,7.29,6.626c-.00539-.05045-.01238-.09983-.01341-.1509-.00186-.09294-.00191-.186-.002-.279-.00027-.18923.00257-.37849.00193-.5677A2.05018,2.05018,0,0,0,7.26268,5.322c-.0131-.084-.06408-.17942-.15947-.18434C7.0862,5.13677,7.08483,5.11068,7.09989,5.10554Z" /><path d="M6.84442,5.32a.83524.83524,0,0,1,.18965.37764c.01815.07482.03039.15118.044.22692.01468.08179.03229.16418.04038.247a2.12593,2.12593,0,0,1-.008.24894,1.4673,1.4673,0,0,0,.02081.25455c.01329.08481.03824.16747.05148.252a.74527.74527,0,0,0,.05512.23391c.00686.01306-.01328.02717-.02357.017a.46616.46616,0,0,1-.08961-.18678,1.72818,1.72818,0,0,1-.09233-.49658c-.0014-.08381.01164-.1665.0126-.25009a1.34858,1.34858,0,0,0-.03275-.24507c-.0137-.07856-.02587-.1574-.041-.2357a1.16508,1.16508,0,0,0-.14471-.43081A.01108.01108,0,0,1,6.84442,5.32Z" /><path d="M7.32617,7.19526a.3091.3091,0,0,1,.07944-.02154.39669.39669,0,0,1,.08322.00331.59129.59129,0,0,1,.15828.0638.01037.01037,0,0,1-.00833.019.414.414,0,0,0-.15543-.02187,1.03362,1.03362,0,0,0-.146.00491A.02474.02474,0,0,1,7.32617,7.19526Z" /><path d="M7.1599,4.55081a.01123.01123,0,0,1,.02-.00468c.068.08071.19465.04215.2832.06426.022.00549.03533.03755.01208.05168C7.38958,4.71408,7.14005,4.69742,7.1599,4.55081Z" /><path d="M7.56182,4.56928a1.33883,1.33883,0,0,1,.163-.02672.64621.64621,0,0,1,.41412.15377.561.561,0,0,1,.1544.223.65009.65009,0,0,1,.024.316,3.29208,3.29208,0,0,1-.18647.61868,1.53162,1.53162,0,0,0-.07591.30477,1.06863,1.06863,0,0,0,.01673.32226,1.268,1.268,0,0,1,.0442.69466.02522.02522,0,0,1-.04781-.01393,1.667,1.667,0,0,0-.088-.59792,1.20248,1.20248,0,0,1-.04448-.29157,1.08169,1.08169,0,0,1,.03988-.28737c.0535-.19583.1473-.37628.20595-.5701a.66094.66094,0,0,0-.037-.56711.5592.5592,0,0,0-.229-.18981.65563.65563,0,0,0-.1626-.04884.649.649,0,0,0-.18909-.021A.00943.00943,0,0,1,7.56182,4.56928Z" /><path d="M7.60787,5.74707c.02475-.13947.05725-.27807.08987-.41588a1.05494,1.05494,0,0,0,.05486-.42888c-.00232-.01138.01575-.01526.01956-.0046A.75887.75887,0,0,1,7.82,5.08363a.83858.83858,0,0,1-.00749.20072c-.02031.13905-.0542.278-.08674.41461a.97864.97864,0,0,0-.045.36063,1.10314,1.10314,0,0,1,.09165-.40694c.03389-.08059.07914-.15521.11478-.23483a.91062.91062,0,0,0,.07108-.24719.41365.41365,0,0,0-.10671-.39682c-.02709-.02152.00046-.05727.02955-.04841a.31246.31246,0,0,1,.18585.30447.95288.95288,0,0,1-.14137.47485,1.25406,1.25406,0,0,0-.10777.24689,1.24137,1.24137,0,0,0,.048.74786c.03187.08844.06546.17642.09333.26624a1.13473,1.13473,0,0,1,.04758.27227.0106.0106,0,0,1-.02108.00218,1.6412,1.6412,0,0,0-.179-.45492,1.42193,1.42193,0,0,1-.08634-.22615.84647.84647,0,0,1-.11067-.21824A.80686.80686,0,0,1,7.60787,5.74707Z" /><path d="M7.29944,4.97374c.00107-.02136.03244-.02182.03931-.00406a.30806.30806,0,0,0,.05235.0717.49925.49925,0,0,1,.05038.07138.42548.42548,0,0,1,.02956.19022c.004.1511-.00185.30174.00776.45281a2.32288,2.32288,0,0,0,.25464.86891c.005.01025-.0117.01919-.01773.00944a3.01966,3.01966,0,0,1-.23182-.404A1.51537,1.51537,0,0,1,7.3784,5.79a2.80021,2.80021,0,0,1-.0064-.458c.00468-.07277.02885-.15117-.0155-.21549A.21371.21371,0,0,1,7.29944,4.97374Z" /><path d="M7.45887,4.72038a.65134.65134,0,0,1,.07822.05984.32377.32377,0,0,1,.05268.07593.55722.55722,0,0,1,.04716.21661.91516.91516,0,0,1-.003.23276c-.01617.07945-.07947.14831-.07565.2304a.01318.01318,0,0,1-.0262.0027A.676.676,0,0,1,7.541,5.33841,1.36816,1.36816,0,0,0,7.54623,5.131a1.21365,1.21365,0,0,0-.01718-.20971.33284.33284,0,0,0-.08179-.18667C7.438,4.7273,7.44958,4.713,7.45887,4.72038Z" /><path d="M4.762,6.11807c-.02094-.08648-.04878-.17143-.07681-.25583l-.00236-.007a.75551.75551,0,0,0-.03362-.118.40043.40043,0,0,0-.09363-.17482.02271.02271,0,0,0-.03554.01619.53868.53868,0,0,0,.05218.17453l-.00007.00005a1.17108,1.17108,0,0,0,.031.121c.02408.08043.05155.15964.07218.2411a1.41205,1.41205,0,0,1,.038.23839.6827.6827,0,0,1,.00324.11781c-.00384.04149-.00852.084-.01544.125-.00287.017.024.02805.03262.0122A.68678.68678,0,0,0,4.762,6.11807Z" /><path d="M6.5483,7.63148a1.55141,1.55141,0,0,0-.22658-.193.41508.41508,0,0,1-.107-.27079,2.00127,2.00127,0,0,1-.0171-.32916c.004-.11187.016-.22327.02145-.33507a1.53278,1.53278,0,0,0-.022-.37133.01027.01027,0,0,0-.02027.0032,1.97526,1.97526,0,0,1-.01507.351c-.01207.11507-.0267.22973-.03251.34538a1.8428,1.8428,0,0,0,.01555.33563.714.714,0,0,0,.03295.16233.3369.3369,0,0,0,.0803.11094,1.54072,1.54072,0,0,0,.2746.20761A.01161.01161,0,0,0,6.5483,7.63148Z" /><path d="M6.57988,7.901a.65754.65754,0,0,0-.07537-.04469c-.02566-.01622-.05046-.03341-.07478-.05158a.90215.90215,0,0,0-.14941-.10011.8426.8426,0,0,0-.19408-.05694.33028.33028,0,0,1-.15288-.08754.01329.01329,0,0,0-.02061.0128.2026.2026,0,0,0,.1168.12356.47925.47925,0,0,0,.099.04328c.035.01023.07042.019.10445.03242a.83523.83523,0,0,1,.16655.09894.26263.26263,0,0,0,.17123.06875A.02183.02183,0,0,0,6.57988,7.901Z" /><path d="M6.611,7.74147c-.00593-.02515-.01056-.05852-.03465-.07232a.01683.01683,0,0,0-.02592.0161c.001.02278.01914.04014.027.06113a.22306.22306,0,0,1,.01365.08254.01188.01188,0,0,0,.02363.00236A.2706.2706,0,0,0,6.611,7.74147Z" /><path d="M5.4801,4.58026a.47065.47065,0,0,0-.16222-.04014.64505.64505,0,0,0-.16546.01369,1.2966,1.2966,0,0,0-.32024.11314c-.1025.05117-.2021.10819-.30666.15517a1.246,1.246,0,0,1-.1505.05651.36537.36537,0,0,0,.01669-.08191A.78972.78972,0,0,0,4.39161,4.662a.68817.68817,0,0,0,.00252-.1034c-.00074-.04694-.00474-.09361-.00894-.14033-.00426-.04739-.00843-.09549-.00883-.14308-.00039-.04651.00561-.09272.007-.13916.00041-.01352-.01852-.02362-.02677-.01a.47915.47915,0,0,0-.04476.27073q.00392.07136.01473.142l.00705.05257a1.76256,1.76256,0,0,1-.00689.18806.39476.39476,0,0,1-.033.12066q-.04663.01041-.09457.01688a.69169.69169,0,0,0-.02191-.20644,2.59859,2.59859,0,0,1-.06507-.25906,1.50058,1.50058,0,0,1,.03163-.53318c.03635-.18043.08479-.35764.1105-.54018a.5454.5454,0,0,1,.0602-.21447.273.273,0,0,1,.19227-.10783.98077.98077,0,0,0,.27684-.04055.186.186,0,0,0,.0635-.052c.00159.02871.00168.05736.00154.0861a.16617.16617,0,0,0,.01366.062c.00349.01.01973.005.01768-.00521a.23825.23825,0,0,1,.014-.075q.00744-.039.01249-.07832c.00491-.03834.02186-.12351-.01922-.146a.024.024,0,0,0-.02748.001c-.02271.01626-.01924.04323-.0182.06829l.00131.02435a.22285.22285,0,0,1-.15552.07641,1.598,1.598,0,0,0-.23989.0259.34308.34308,0,0,0-.18225.1147.4458.4458,0,0,0-.07836.21583c-.02793.176-.0659.34916-.10362.52333a1.90561,1.90561,0,0,0-.05557.531,1.38193,1.38193,0,0,0,.05773.28388,1.24554,1.24554,0,0,1,.05926.25148c-.05114.00456-.10247.00639-.15382.008-.03228.001-.06457.00122-.09685.00234-.03819.00133-.07591.00817-.11416.00716a.00647.00647,0,0,0-.00129.01286c.02939.00327.05722.01179.08609.01755a.93732.93732,0,0,0,.09706.01246,1.461,1.461,0,0,0,.17394.006l.02827-.00113a.02625.02625,0,0,0,.01763-.001,2.68369,2.68369,0,0,0,.2949-.06207c.21213-.07931.399-.21559.61486-.28617a.75416.75416,0,0,1,.3811-.0254C5.49227,4.6178,5.49721,4.58759,5.4801,4.58026Z" /><path d="M4.63736,4.04537a1.56684,1.56684,0,0,0-.19816-.52924c-.009-.0139-.02809.00066-.02332.01434.02173.06226.03974.12567.05665.18937a.39615.39615,0,0,0-.02664.053c-.01427.03133-.029.06251-.04279.09405-.013.02971-.025.06-.03694.09011a.20505.20505,0,0,0-.02623.09255.03225.03225,0,0,0,.05195.0198A.19463.19463,0,0,0,4.433,3.988c.01219-.03209.02446-.06425.0355-.09676.00939-.02767.01811-.05558.027-.08341.02221.08476.04763.1693.06494.25516a.93918.93918,0,0,1,.00347.27929l-.00438.04363A.15681.15681,0,0,0,4.45988,4.34c-.02066-.00318-.02266.02737-.00316.03166.05718.01257.07835.07528.0917.12471a.47019.47019,0,0,0-.00393.13964.02531.02531,0,0,0,.04834.00483.53334.53334,0,0,0,.02527-.15148l.01586-.15783c.00486-.04835.01471-.09691.01626-.14545A.59554.59554,0,0,0,4.63736,4.04537Z" /><path d="M4.68242,6.68343a.01326.01326,0,0,0-.02385-.00892.66811.66811,0,0,0-.08251.23824,1.00264,1.00264,0,0,0-.01277.25033,1.43737,1.43737,0,0,1-.01776.47739.01663.01663,0,0,0,.029.01534.651.651,0,0,0,.06467-.45834,1.66766,1.66766,0,0,1,.00054-.25624C4.64693,6.85358,4.671,6.77015,4.68242,6.68343Z" /><path d="M4.91907,7.957c-.009-.01538-.03553-.02472-.04653-.00465-.0115.021-.0886-.00556-.10754-.01131a.63908.63908,0,0,1-.10873-.04479.13442.13442,0,0,1-.07771-.07514A.34909.34909,0,0,1,4.57509,7.707a.00949.00949,0,0,0-.01826-.00424.26777.26777,0,0,0-.01869.14676.17222.17222,0,0,0,.10849.11635.67616.67616,0,0,0,.16788.05659.12626.12626,0,0,0,.08224-.00055A.04685.04685,0,0,0,4.91907,7.957Z" /><path d="M5.13253,6.47594c-.04395.11311-.07763.23035-.11087.347q-.04913.17247-.09549.34565a1.55533,1.55533,0,0,0-.07324.33036,2.05411,2.05411,0,0,0,.03493.34457c.00184.01511.02443.01121.02314-.00366a1.65265,1.65265,0,0,1,.07842-.67821,6.52871,6.52871,0,0,0,.20846-.6706C5.20656,6.45283,5.146,6.44124,5.13253,6.47594Z" /><path d="M5.59813,6.59948c.00224-.0439.01045-.087.01251-.13085a.01393.01393,0,0,0-.025-.00936.40279.40279,0,0,0-.06345.2466,2.58007,2.58007,0,0,1-.0055.27685.74165.74165,0,0,1-.09222.25525.22459.22459,0,0,0-.01148.23784c.02341.03058.07764-.00116.05874-.03611-.04325-.08.01106-.14883.04921-.21867a.64639.64639,0,0,0,.07487-.246,2.23309,2.23309,0,0,0,.0015-.25116C5.59673,6.68247,5.596,6.64078,5.59813,6.59948Z" /><path d="M5.85828,7.51278c-.0244-.02334-.06168-.02177-.09247-.03355a.58042.58042,0,0,0-.10242-.03715.20276.20276,0,0,0-.08695.00058.1215.1215,0,0,0-.062.04366c-.00816.00878.007.0231.01557.01452.04329-.04332.11825.01011.15734.03111.04181.02246.13717.072.17214.01475A.0285.0285,0,0,0,5.85828,7.51278Z" /><path d="M5.33667,2.9646a.0989.0989,0,0,1-.07335.042A.26107.26107,0,0,1,5.163,2.974a.863.863,0,0,1-.2-.12146c-.008-.00711-.019.00554-.01256.01347a.8986.8986,0,0,0,.10532.10844.43236.43236,0,0,0,.12205.08635c.06639.0261.182-.00154.192-.08377A.01848.01848,0,0,0,5.33667,2.9646Z" /><path d="M5.52053,2.522a.82371.82371,0,0,0,.00668-.19119.342.342,0,0,0-.10041-.17834c-.0163-.01371-.04.00416-.03729.02316a.53649.53649,0,0,0,.08386.1658.29994.29994,0,0,1,.009.18747c-.00484.02153-.01251.04217-.01927.0631a.17564.17564,0,0,0-.06206.01127c-.01271.00458-.03138.01242-.03432.027l-.00342.00211c-.00689.00426-.00035.01285.00568.01267l.0019-.00006c.00875.00934.02568.00868.03738.00877.013.00011.02587.00033.03877.00029l-.01254.05438a1.14491,1.14491,0,0,1-.05347.18471c-.004.00937.01065.01744.016.00846a1.07256,1.07256,0,0,0,.0936-.178.54382.54382,0,0,0,.02613-.095A.74353.74353,0,0,0,5.52053,2.522Z" /><path d="M5.3166,2.07218A.4234.4234,0,0,0,5.07772,1.976a.33126.33126,0,0,0-.26053.05751A.4038.4038,0,0,0,4.683,2.2319a.4393.4393,0,0,0-.01358.13069,1.14648,1.14648,0,0,0,.00588.129.32442.32442,0,0,0,.13454.25315.01966.01966,0,0,0,.029-.02376,2.06119,2.06119,0,0,1-.1042-.26712.29013.29013,0,0,1,.00932-.1397.62747.62747,0,0,1,.0469-.122.26061.26061,0,0,1,.20394-.14138.68529.68529,0,0,1,.31027.03747C5.314,2.09181,5.3241,2.0795,5.3166,2.07218Z" /><path d="M4.97081,2.52514a.06608.06608,0,0,0-.06345-.03529.08963.08963,0,0,0-.074.053.19981.19981,0,0,0,.05288.20375.02157.02157,0,0,0,.0391-.01353c-.00467-.04517-.03-.08763-.03124-.13246a.05824.05824,0,0,1,.01788-.047c.01019-.00921.03194-.02029.04554-.01294A.01066.01066,0,0,0,4.97081,2.52514Z" /><path d="M5.24724,3.16193a.2025.2025,0,0,1-.06269.10795c-.02695.02369-.07148.02731-.09287.05569a.01839.01839,0,0,0,.0085.02753c.04268.01837.09042-.03084.1156-.05981a.20141.20141,0,0,0,.0506-.12944A.00962.00962,0,0,0,5.24724,3.16193Z" /><path d="M5.14924,4.04393c-.00757.03275-.0152.06543-.02235.09827a.2468.2468,0,0,0-.014.09285c.00283.01482.02628.02394.03481.00814a.23621.23621,0,0,0,.01618-.09171c.00332-.03505.00616-.0701.009-.10518A.01188.01188,0,0,0,5.14924,4.04393Z" /><path d="M5.43793,2.36c-.045-.0026-.08946.00606-.13488.0011a.65581.65581,0,0,1-.132-.0464.11764.11764,0,0,0-.11534.01672c-.031.02735-.03458.07318-.04963.10925-.00412.00986.01071.01491.0153.00569a.1482.1482,0,0,1,.088-.075c.03947-.01075.08155.02454.11643.03809a.21548.21548,0,0,0,.221-.02015A.01678.01678,0,0,0,5.43793,2.36Z" /><path d="M5.23466,2.62247a.02455.02455,0,0,0-.02029-.01469.14472.14472,0,0,0-.0434.0008c-.01379.00262-.02826.01014-.04206.01156-.00957.001-.00759.01378.00044.01554.01258.00276.02491.01158.03736.01545a.142.142,0,0,0,.0427.00619.02618.02618,0,0,0,.02581-.01609A.024.024,0,0,0,5.23466,2.62247Z" /><path d="M5.35,2.85921a.02225.02225,0,0,0-.018-.013.11992.11992,0,0,0-.03787.00271.16524.16524,0,0,1-.03761.01118c-.00929.00064-.00868.01555.00046.01618a.12193.12193,0,0,1,.03317.00974.09688.09688,0,0,0,.03143.00433.0289.0289,0,0,0,.02623-.00945A.0198.0198,0,0,0,5.35,2.85921Z" /><path d="M5.98743,7.16618c-.01837-.11122-.06308-.21653-.08948-.32586a1.34767,1.34767,0,0,1-.04274-.34424c.00128-.05493.00831-.10978.00645-.16478a.2777.2777,0,0,0-.00752-.055.98733.98733,0,0,0-.017-.15953,1.61624,1.61624,0,0,0-.07332-.26615,1.63488,1.63488,0,0,1-.0803-.26319c-.00792-.04394-.01358-.088-.01757-.13244-.00331-.037-.00321-.0756-.00843-.11275a.20513.20513,0,0,0,.0421.02532.20994.20994,0,0,0,.116.01164.02111.02111,0,0,0,.004-.04033.44554.44554,0,0,1-.11205-.04272A.5541.5541,0,0,0,5.613,5.23426a.30112.30112,0,0,0-.07052-.02243l.02064-.01356.01973-.01448c.00374-.00284.02254-.01195.01129-.01484a.01987.01987,0,0,0,.02216-.00684l.0015-.002a.02334.02334,0,0,0-.00541-.03161c-.023-.02131-.05726-.00106-.08161.0079-.0189.00695-.0373.015-.05562.02329l-.01767.00457c-.01394.00478-.02742.01079-.04112.01619-.02893.01139-.05778.02307-.087.03365a1.53166,1.53166,0,0,1-.1737.05688c-.06005.01384-.12116.021-.18177.03172q-.09468.01669-.19.02888a3.54741,3.54741,0,0,1-.7569.01223c-.07068-.00617-.14118-.01391-.21166-.022-.03437-.004-.06873-.00594-.10323-.00845l-.05663-.0049a.53816.53816,0,0,1-.05662-.004c-.00826-.0017-.01165.01241-.00337.01451.0294.00745.05793.022.087.03151.03251.01059.06491.02166.09822.02945.06343.01482.12772.02552.19229.034.06558.00862.13148.01469.19753.01858.0222.01554.04218.03692.0643.04932a.18807.18807,0,0,0,.12293.033.00565.00565,0,0,0,.00235-.01.67414.67414,0,0,0-.06359-.04206.32445.32445,0,0,1-.03065-.02608q.0504.00143.1008.00135.13306-.00017.26588-.01029l-.02026.00992c-.02673.01292-.05373.02459-.08119.03585a.26028.26028,0,0,0-.07613.03682.00623.00623,0,0,0,.00175.01055A.16362.16362,0,0,0,4.54,5.52a.54963.54963,0,0,0,.09224-.02572.56142.56142,0,0,0,.08453-.04015.252.252,0,0,0,.06255-.04093,2.74927,2.74927,0,0,0,.35789-.07009c.031-.00807.06217-.01494.09327-.02216l-.001.00614-.01169.002c-.00012.00781-.00015.01562.00007.02345.00093.032.00137.06395.00109.09591-.00349.042-.00675.08445-.00753.12653V5.5752l-.00129.00531a.47511.47511,0,0,0-.01766.07565c-.00549.048-.00729.09664-.01092.14483-.00741.09841-.0187.19679-.0241.29532-.00551.10055-.003.20213-.011.30245a.013.013,0,0,0,.02587.00259c.01637-.09958.04169-.1979.05661-.29789.01454-.0975.02192-.1965.031-.29463.00294-.03174.00641-.06359.009-.09545.01012.024.02109.04761.03275.07073a1.27944,1.27944,0,0,0,.1381.21836c.05324.06729.12195.11852.17943.18179a.11908.11908,0,0,1,.03635.10311c-.00746.03684-.03661.066-.04623.10225-.00866.03268.03329.06007.05507.0291a.34956.34956,0,0,0,.06665-.10484.13092.13092,0,0,0-.02868-.11535A.97571.97571,0,0,0,5.617,6.10158a1.19306,1.19306,0,0,1-.08263-.10576c-.05424-.07339-.10961-.1453-.15922-.222-.02547-.03939-.04891-.07992-.07235-.12053C5.2922,5.63486,5.282,5.61261,5.27,5.592c.00754-.03689.012-.07455.0174-.11178.00589-.04065.0103-.08161.01451-.12246.00177-.0172.003-.03507.00609-.05247a.604.604,0,0,0,.127-.04093l.01636-.00709a.49068.49068,0,0,1,.16171.05256l.00979.00652a.52252.52252,0,0,0-.01746.2625,1.2251,1.2251,0,0,0,.07245.271,1.97319,1.97319,0,0,1,.07724.26424c.01778.08289.027.16738.04645.24985l-.00011.00174c-.00318.05255-.00859.10474-.00918.15743a1.422,1.422,0,0,0,.02689.29331.22389.22389,0,0,0-.03921.07931,1.14959,1.14959,0,0,0-.03365.1107.84652.84652,0,0,0-.028.22033.01388.01388,0,0,0,.02669.00619c.02609-.06733.046-.13881.06693-.208l.03007-.1003.00187-.006c.02362.08272.05339.16389.06925.24838a.51908.51908,0,0,1,.00328.1626l-.00514.036C5.88638,7.35256,5.862,7.33845,5.838,7.324a.26932.26932,0,0,0-.08614-.04186c-.00877-.00162-.01348.00822-.01106.01527a.19356.19356,0,0,0,.07175.08072.58849.58849,0,0,0,.08915.0551.36624.36624,0,0,0-.00137.073c.00223.02353.0333.02208.04181.00418a.69447.69447,0,0,0,.04443-.17362A.49935.49935,0,0,0,5.98743,7.16618Z" /><path d="M3.55726,5.22778a2.37615,2.37615,0,0,0-.38675-.354c-.13632-.10544-.271-.21553-.41389-.31207a.59841.59841,0,0,0-.24957-.11384.02275.02275,0,0,0-.0153.04092c.0861.056.1772.10273.26108.16239.08794.06255.17276.12963.25861.195.17619.13411.35052.271.53587.39225A.00739.00739,0,0,0,3.55726,5.22778Z" /><path d="M2.42139,4.42706a.53954.53954,0,0,0-.069-.01343.74272.74272,0,0,1-.0785-.023,1.093,1.093,0,0,1-.13614-.056.32686.32686,0,0,0-.26419-.05453.022.022,0,0,0,.00667.04172.839.839,0,0,1,.26235.09226.40949.40949,0,0,0,.13688.03832.30319.30319,0,0,0,.14231-.01367A.00639.00639,0,0,0,2.42139,4.42706Z" /><path d="M3.73635,4.89144c-.0263-.02679-.057-.04826-.08383-.07447A.85308.85308,0,0,1,3.579,4.73272a2.33113,2.33113,0,0,0-.15558-.18662.80577.80577,0,0,0-.41173-.23169,2.30068,2.30068,0,0,0-.2384-.0366c-.04092-.00466-.08191-.00868-.12279-.01375a.82381.82381,0,0,1-.1187-.018c-.03719-.01033-.045-.03539-.05385-.06992a.16832.16832,0,0,0-.0467-.09085.18568.18568,0,0,0-.19834-.00669.49356.49356,0,0,1-.13762.05022c-.05151.00654-.10361.00251-.15529.00663a.58375.58375,0,0,0-.137.03015.4771.4771,0,0,0-.12648.05669c-.00581.00409-.00009.01306.00605.01175.03983-.00848.07815-.022.11842-.02893a.88492.88492,0,0,1,.1363-.01009.67677.67677,0,0,0,.25366-.025c.05211-.02114.14755-.08717.20009-.03181.02077.02189.022.05867.03123.08612a.1219.1219,0,0,0,.06636.0773.46485.46485,0,0,0,.1029.02513c.04032.00768.081.01333.12166.01893.07809.01074.15664.01923.234.03481a.86661.86661,0,0,1,.21989.07084.72459.72459,0,0,1,.18662.13919,2.283,2.283,0,0,1,.16784.20071.32666.32666,0,0,0,.19254.14783A.02877.02877,0,0,0,3.73635,4.89144Z" /><path d="M6.46313,5.32944c-.0094-.00479-.01407-.03208-.01457-.04206a1.09423,1.09423,0,0,1,.08938-.12818l.00886-.01128.00748-.00636.00146-.00388a.02893.02893,0,0,0-.03124-.03818.1601.1601,0,0,0-.08124.05313l-.01909.01947L6.401,5.16759a.36339.36339,0,0,0-.1046-.01047.92429.92429,0,0,0-.1126.01971c-.03942.0081-.07769.019-.1165.02947a.35916.35916,0,0,0-.107.03924.006.006,0,0,0,.00171.01029.34183.34183,0,0,0,.10821.00365c.04009-.00233.07988-.004.1198-.00863L6.2,5.2496c-.0041.01783-.00894.03553-.01233.05366-.00625.03339-.00969.06761-.01328.10137-.00738.06948-.00883.13966-.00986.20949-.001.06757-.00217.13574.00356.20314.00591.06953.01831.13781.02985.20643A.01249.01249,0,0,0,6.2226,6.023c.00475-.06744.01184-.13473.01524-.20236.00342-.068.00062-.13645.00034-.20453-.00026-.06568.00135-.13163-.00146-.19726-.00144-.03366-.00292-.06729-.00482-.10093-.00136-.024-.00575-.04775-.00826-.07162A.85487.85487,0,0,1,6.30887,5.236a.286.286,0,0,1,.07517.00944.11213.11213,0,0,0,.0086.06546.08326.08326,0,0,0,.02552.03147c.01285.00914.02209.00693.0362.01062A.0126.0126,0,0,0,6.46313,5.32944Z" /><path d="M6.84865,5.17112a.20364.20364,0,0,0,.01288-.10221.02863.02863,0,0,0-.051-.01192.34672.34672,0,0,0-.03873.10645.81333.81333,0,0,1-.12306.15114.1664.1664,0,0,1-.0934.012.01706.01706,0,0,0-.01145.03063.16932.16932,0,0,0,.21968-.03253.31831.31831,0,0,0,.06556-.10129l.02255-.01357C6.86588,5.20126,6.86822,5.1735,6.84865,5.17112Z" /><path d="M7.22028,4.16943c-.09113-.09286-.19422-.17556-.29361-.25932-.1032-.087-.20844-.17139-.31724-.25127-.10362-.07607-.20957-.14889-.3131-.22509-.05747-.0423-.11233-.08826-.17009-.13006-.02877-.02082-.05928-.039-.0879-.06008l-.01366-.00973L6.00282,3.201c-.01457-.02252-.028-.04578-.04286-.06808-.0148-.02215-.03027-.04382-.0448-.06616a.21844.21844,0,0,0-.043-.05417A.18582.18582,0,0,0,5.731,2.99469a.8217.8217,0,0,0-.15709.02756c-.0159.00483-.00793.02566.00453.02831a.77625.77625,0,0,0,.14416.01309c.02394.0005.04786-.00038.07179-.00023A.04421.04421,0,0,1,5.838,3.085c.02685.03608.047.07655.07646.11088a.42443.42443,0,0,0,.098.09427l.00571.00228.03276.0358a1.0197,1.0197,0,0,0,.13988.11963c.09952.07606.20221.14784.3038.22108.21344.15387.415.3221.61328.495a.44685.44685,0,0,1,.18587.29623c.00191.03322.05234.02921.05634-.00161A.36306.36306,0,0,0,7.22028,4.16943Z" /><path d="M6.62192,5.12146a.19341.19341,0,0,0-.05116.0513.16151.16151,0,0,0-.03487.06942c-.00464.02443.02756.03827.04505.02417a.15937.15937,0,0,0,.04222-.0612.18625.18625,0,0,0,.02139-.06728C6.64509,5.12712,6.63307,5.11469,6.62192,5.12146Z" /><path d="M6.722,5.101a.5839.5839,0,0,0-.09577.14311c-.01035.02043.02113.0431.03712.02654a.27037.27037,0,0,0,.0789-.15878C6.743,5.10216,6.72992,5.09286,6.722,5.101Z" /><path d="M7.02977,4.46789a.89124.89124,0,0,0-.48111.05466q-.032.00836-.06385.0148l-.0023-.0128A1.286,1.286,0,0,0,6.2774,4.1941a1.37007,1.37007,0,0,1-.20292-.32687c-.053-.13893-.0501-.29148-.09252-.43331a1.56085,1.56085,0,0,0,.101.13987,2.13476,2.13476,0,0,0,.20708.21694c.07406.06853.15328.12995.23149.19352a1.02919,1.02919,0,0,1,.185.20693,1.15994,1.15994,0,0,0,.09077.11565.26993.26993,0,0,0,.11814.08382c.02415.00617.05282-.02182.03156-.04416-.0282-.02963-.06133-.05373-.08931-.08389a1.02968,1.02968,0,0,1-.07879-.0987,1.18394,1.18394,0,0,0-.17348-.20652c-.07457-.06541-.15621-.12231-.231-.18766-.07432-.065-.14349-.13475-.21227-.20543-.07716-.07928-.1535-.16051-.22641-.2437a.38568.38568,0,0,0-.16876-.17021.71851.71851,0,0,0-.1987-.05207.451.451,0,0,1-.19044-.05683.0098.0098,0,0,0-.01318.01413.27595.27595,0,0,0,.13555.09593c.05575.02.11478.02675.17149.04328a.30112.30112,0,0,1,.14637.08626.45052.45052,0,0,1,.087.16007c.04555.13737.04359.28562.088.42362a1.12748,1.12748,0,0,0,.19056.329c.04292.05637.08725.11176.1277.17a1.20323,1.20323,0,0,1,.10431.18526,1.0218,1.0218,0,0,1-.13364.00925c-.01913.00007-.03827-.00012-.05741-.00043a.80925.80925,0,0,0-.10435-.08994.7305.7305,0,0,1-.09749-.10169,1.18652,1.18652,0,0,1-.13038-.2451,1.39472,1.39472,0,0,0-.13715-.23724l-.07658-.108A.571.571,0,0,1,5.6225,3.685c.00387-.0408.00933-.08153.01539-.122l.01147-.07129a.25124.25124,0,0,0,.00813-.064c-.00133-.01218-.01594-.01265-.02271-.00531a.20351.20351,0,0,0-.02979.059c-.00952.02221-.01738.04521-.02462.06824a1.08269,1.08269,0,0,0-.03145.12964,1.49537,1.49537,0,0,0-.01881.271c0,.091.01.18006.00177.27124-.00392.04364-.00883.08742-.01534.13076-.0035.02331-.00754.04662-.01226.06972a.14979.14979,0,0,0-.00757.06855c.0059.02233.035.041.05526.02106a.2319.2319,0,0,0,.04221-.13127,1.00779,1.00779,0,0,0,.01022-.13117c.00066-.04594-.00048-.09186.00056-.1378s.005-.09174.0058-.13764c.00118-.06429.002-.1284.00508-.1925l.00086.00243a.72322.72322,0,0,0,.066.1252,2.08369,2.08369,0,0,1,.14086.253,1.18482,1.18482,0,0,0,.14374.262.82282.82282,0,0,0,.10753.10823l.02592.02249c-.03046-.001-.06092-.00188-.09136-.00247a1.38074,1.38074,0,0,1-.30789-.03223c-.00627-.00158-.01265.00726-.00585.01107a1.09879,1.09879,0,0,0,.51507.10676,1.16325,1.16325,0,0,0,.28147-.01783,1.68665,1.68665,0,0,0,.245-.08276.52584.52584,0,0,1,.28627-.042C7.03906,4.49812,7.04507,4.47246,7.02977,4.46789Z" /><path d="M6.2399,5.06425a.54385.54385,0,0,0-.1824-.006.78842.78842,0,0,0-.08942.01333.21725.21725,0,0,0-.08135.0251.00862.00862,0,0,0,.00243.01464.24334.24334,0,0,0,.0802.005c.03.0001.05981-.00007.08978-.00086a.95787.95787,0,0,0,.17676-.01126C6.25429,5.10033,6.26168,5.0698,6.2399,5.06425Z" /></svg>