<svg xmlns="http://www.w3.org/2000/svg" data-name="Layer 1" viewBox="2.4153588707061067 1.6535108321812426 5.170186462764863 6.689178273248843" x="0px" y="0px"><title>KAMASUTRA</title><path d="M3.10348,4.06986a.097.097,0,0,0-.06887-.04457c-.03837-.00925-.07619-.01382-.11408-.02575a1.0579,1.0579,0,0,0-.22995-.0675.26108.26108,0,0,0-.18648.05857c-.03737.03149-.09919.10071-.08723.15422a.0127.0127,0,0,0,.02029.00773A.30246.30246,0,0,0,2.482,4.09985a.23085.23085,0,0,1,.06582-.0485.30446.30446,0,0,1,.16726-.03057,1.24454,1.24454,0,0,1,.18858.04348c.02805.00653.05674.01024.08528.014a.30861.30861,0,0,1,.08223.02593C3.09033,4.112,3.11449,4.08925,3.10348,4.06986Z" /><path d="M4.82447,4.79616a1.64053,1.64053,0,0,0-.18127-.13027c-.13258-.08884-.27826-.1552-.40879-.24717A1.66616,1.66616,0,0,1,3.874,4.06c-.09352-.1229-.1721-.25624-.26233-.38146a.77777.77777,0,0,0-.38316-.31165.01343.01343,0,0,0-.01239.02345,3.33659,3.33659,0,0,1,.5504.6977,1.91184,1.91184,0,0,0,.59817.52429l-.0254.01787q-.05154.03412-.09988.07277a1.30009,1.30009,0,0,0-.17629.173,1.22581,1.22581,0,0,0-.13491.19129l-.02167-.04677c-.02246-.05046-.04614-.10045-.07284-.14882a1.29106,1.29106,0,0,0-.18462-.26189,2.14729,2.14729,0,0,0-.26542-.21146.78942.78942,0,0,1-.12163-.11887.67582.67582,0,0,1-.1005-.1407.01274.01274,0,0,0-.02329.01031.8101.8101,0,0,0,.06091.15416.6003.6003,0,0,0,.10138.12626c.08317.07856.1845.1341.26314.21792a1.13268,1.13268,0,0,1,.17977.26421q.03755.07383.07029.15a.30846.30846,0,0,0,.05745.10916.27226.27226,0,0,1-.07456.08437c-.01074.0073.00039.02279.01144.01861a.31439.31439,0,0,0,.09132-.04531.49726.49726,0,0,0,.07594-.07669c.05041-.06087.09113-.129.14208-.18965a1.45408,1.45408,0,0,1,.16991-.16969c.03131-.02677.06357-.05233.09707-.07632a.53357.53357,0,0,0,.07587-.05214q.02856.0145.05743.02813a1.13634,1.13634,0,0,1,.22065.12811c.06433.05021.11263.11789.17809.16594a.01612.01612,0,0,0,.02495-.0155A.30358.30358,0,0,0,4.82447,4.79616Z" /><path d="M6.48288,3.91471a2.85755,2.85755,0,0,0-.6588.3443.5778.5778,0,0,1-.37547.06785,2.76547,2.76547,0,0,0-.44411-.09071.6293.6293,0,0,0-.18065.01665.48279.48279,0,0,0-.06791-.11186q-.04433-.06589-.09141-.12986c-.06416-.08717-.13192-.1719-.20361-.253-.06269-.07092-.12827-.13952-.19258-.209a.62172.62172,0,0,1-.15926-.25034c-.00376-.01391-.02517-.01127-.02261.00358a.72732.72732,0,0,0,.09539.25634,1.725,1.725,0,0,0,.18341.23106c.07277.08352.14352.16848.20975.25732q.04963.06656.09629.13526a.99629.99629,0,0,0,.06805.10364.23276.23276,0,0,0-.05231.03966L4.66541,4.3043c-.07075-.06871-.144-.13478-.21409-.2042-.06569-.0651-.13625-.12883-.19569-.19978a.79516.79516,0,0,1-.11107-.25206l-.10033-.28281A.97507.97507,0,0,0,3.83,2.96128a.35893.35893,0,0,0-.46451-.01961.01107.01107,0,0,0,.01144.01861A.36628.36628,0,0,1,3.6153,2.9376a.3539.3539,0,0,1,.17771.12759,1.49487,1.49487,0,0,1,.1869.42943l.09775.27556a.55172.55172,0,0,0,.12987.21973c.1361.135.2735.2688.40983.40363.07661.07577.15711.14682.23731.21867a.3152.3152,0,0,0,.21872.11669.0197.0197,0,0,0,.00377-.03767c-.08467-.02242-.14481-.10831-.201-.17q-.06076-.0667-.124-.13066a.61858.61858,0,0,1,.08383-.02723.58.58,0,0,1,.18038-.01171c.14816.012.28823.06753.43785.06629a.90452.90452,0,0,0,.35855-.07331,2.35874,2.35874,0,0,0,.318-.18166,2.448,2.448,0,0,1,.36639-.2A.02545.02545,0,0,0,6.48288,3.91471Z" /><path d="M3.81213,5.5027a1.05945,1.05945,0,0,1-.40025-.5176c-.06569-.12905-.1329-.25732-.19848-.38643a.7367.7367,0,0,0-.09388-.15938.51878.51878,0,0,0-.1457-.10581,1.55926,1.55926,0,0,0-.20487-.09456,1.86054,1.86054,0,0,0-.22561-.05532c-.00973-.00229-.01564.01148-.0056.01505a1.954,1.954,0,0,1,.183.087c.06234.02993.12406.06117.18417.09541a.514.514,0,0,1,.155.11517.93472.93472,0,0,1,.0935.17128c.06419.12966.12669.26013.19077.38984a2.16326,2.16326,0,0,0,.17.30535.46671.46671,0,0,0,.28438.19841C3.83512,5.5679,3.8402,5.517,3.81213,5.5027Z" /><path d="M6.52946,4.25057c-.0454.05837-.08064.123-.12922.17946a1.526,1.526,0,0,1-.15985.15668c-.06727.05822-.13744.11293-.207.1684l-.01168.00265a2.54908,2.54908,0,0,1-.35968.09215c-.05942.023-.11522.0542-.17519.07592a.73159.73159,0,0,1-.098.02785L5.36,4.91676c-.01018-.013-.02058-.02689-.03171-.04018.021.00238.04171.00679.0629.00755A.11585.11585,0,0,0,5.49638,4.836c.01219-.01418-.01019-.03477-.024-.02241-.03346.0299-.10644.0068-.14334-.00166-.02739-.00628-.13489-.02306-.161-.03319a.01257.01257,0,0,0-.0116.02195.36187.36187,0,0,1,.07594.10069.799.799,0,0,0,.06116.07877l.00513.01114L5.30985,5l0,0a.30424.30424,0,0,0,.18969.1331.01981.01981,0,0,0,.01709-.03186c-.02042-.02554-.04489-.04756-.0669-.07195a.99692.99692,0,0,0,.2322-.08407.4981.4981,0,0,1,.09756-.03176c.0255-.00487.05142-.00678.07719-.00965a2.46376,2.46376,0,0,0-.28576.32573,2.52256,2.52256,0,0,1-.32119.37411.72035.72035,0,0,0-.06493.06341,1.66333,1.66333,0,0,0-.13376-.2115c-.02759-.04032-.05488-.08077-.08111-.122a.47066.47066,0,0,0-.04211-.059Q4.98452,5.247,5.04,5.21685l.00441-.00275a.13245.13245,0,0,0,.066.03868.70666.70666,0,0,0,.1636.01252.419.419,0,0,0,.04675.01348.46388.46388,0,0,0,.13231.00595.19206.19206,0,0,0,.03061-.00228.0326.0326,0,0,0,.02665-.02311.01819.01819,0,0,0,.00522-.02865,1.16532,1.16532,0,0,0-.167-.12036.86087.86087,0,0,1-.16009-.14742.01214.01214,0,0,0-.02041.01255.60287.60287,0,0,0,.13135.18757.48577.48577,0,0,0,.03894.034l-.01524-.002c-.0334-.0055-.06614-.01268-.09909-.019a.64985.64985,0,0,1-.109-.1318c-.00668-.01154-.025-.0042-.01937.00858a.88921.88921,0,0,0,.05388.11138.14567.14567,0,0,1-.10462-.05528.26661.26661,0,0,0-.08084-.081c-.01029-.005-.01944.00762-.01581.0168a.81475.81475,0,0,0,.05131.10477c-.1783.07872-.35745.15571-.54162.21984-.091.0317-.18252.062-.27413.09194-.09447.03089-.1985.04554-.28948.08537-.01679.00735-.014.03672.00591.037A1.35285,1.35285,0,0,0,4.19,5.533a2.77437,2.77437,0,0,0,.28969-.079c.12045-.03988.23945-.08448.3553-.13609a.41585.41585,0,0,1,.07168.09565c.02528.03882.051.07757.07839.1149a.82572.82572,0,0,0,.16854.18169.21948.21948,0,0,0-.0295.10088c-.00241.04346.00745.08745.00127.13061-.005.035-.0219.08973-.05689.10529a.0153.0153,0,0,0,.01238.028.128.128,0,0,0,.0706-.04893.238.238,0,0,0,.03176-.08889c.01393-.0763-.00472-.16809.05886-.22438a2.10837,2.10837,0,0,0,.18389-.17365c.05455-.06123.10467-.12626.1542-.19156a2.773,2.773,0,0,1,.323-.38035c.11466-.10518.241-.19639.35985-.29664a1.83977,1.83977,0,0,0,.18594-.17769.61643.61643,0,0,0,.13958-.21108A.03383.03383,0,0,0,6.52946,4.25057Z" /><path d="M7.22933,3.45985a.3479.3479,0,0,0-.03126-.08528.72875.72875,0,0,0-.05415-.07023c-.00857-.012-.02625.00255-.01772.0145a.27815.27815,0,0,1,.03235.10389.50323.50323,0,0,1,.00965.0989,1.40884,1.40884,0,0,1-.01945.18472c-.01915.139-.03053.2791-.04979.41807l-.00685-.0099a.277.277,0,0,1-.01429-.02508.39344.39344,0,0,1-.02729-.07961.73443.73443,0,0,1-.01632-.18329c.00174-.073.00832-.14583.01013-.21883a.61513.61513,0,0,0-.02649-.20107.013.013,0,0,0-.02472.004c.00194.15339-.04731.30322-.04692.45631a.65124.65124,0,0,0,.01367.13857A.78551.78551,0,0,0,6.8755,3.968c-.039-.01491-.0774-.03114-.11591-.04719a.18127.18127,0,0,0,.08176-.12645c.01055-.04787.01761-.09644.025-.14487a.37983.37983,0,0,0,.008-.149c-.00517-.01986-.0348-.033-.04764-.01114a.5386.5386,0,0,0-.04214.20472c-.00418.03421-.00783.06853-.0095.103-.002.04084-.005.09878-.05232.10866a.127.127,0,0,0-.10533-.0013c-.013.00539-.00419.02452.00875.01977.03937-.01445.08951.0239.12113.0421.03516.02023.06946.04168.1037.06344a.54859.54859,0,0,1,.1742.13431c.0927.13526-.07577.27456-.16555.35739a.01209.01209,0,0,0,.01531.01871c.03971-.02869.07915-.05781.12068-.08383L6.9593,4.519a.44371.44371,0,0,0-.08668.34006.02429.02429,0,0,0,.04794-.00758.68068.68068,0,0,1,.15988-.35389.9897.9897,0,0,0,.12609-.39961,3.67932,3.67932,0,0,0,.04118-.44408A.80481.80481,0,0,0,7.22933,3.45985Z" /><path d="M6.74634,4.59031c-.04565.046-.10413.08129-.15353.12353-.05.04279-.09907.08661-.15054.12773-.10486.08378-.20857.169-.31416.25187-.20949.1645-.42689.3199-.63067.49153-.08464.07129-.19465.1713-.15582.295.00439.014.02774.007.02462-.00726a.15884.15884,0,0,1,.07212-.15327c.0454-.03926.09521-.0738.143-.11007.09956-.07564.19844-.15223.29778-.22817.198-.15135.40094-.29987.58542-.46782.05045-.04593.10064-.09256.14963-.14005.02362-.0229.04675-.04652.06836-.07135.02668-.03064.04891-.06609.07752-.09491C6.76973,4.59727,6.75614,4.58044,6.74634,4.59031Z" /><path d="M5.453,6.035a.32153.32153,0,0,0-.05879-.1116.0131.0131,0,0,0-.02289.00691.3073.3073,0,0,0,.01934.11027.08965.08965,0,0,1-.00614.06954c-.00786.02013-.01586.04024-.02261.06077a.264.264,0,0,0,.002.22828.0247.0247,0,0,0,.0433-.01307.82345.82345,0,0,1,.00506-.12276A.88706.88706,0,0,1,5.452,6.12763.12816.12816,0,0,0,5.453,6.035Z" /><path d="M5.27572,5.94244a.02143.02143,0,0,0-.041-.0041c-.01451.04108-.02811.08172-.0408.12343a.43429.43429,0,0,1-.04755.1312c-.00823.01168.0091.02368.018.01274a.56919.56919,0,0,0,.09307-.12031A.24862.24862,0,0,0,5.27572,5.94244Z" /><path d="M5.34635,6.033a.02339.02339,0,0,0-.04466-.00447c-.03327.0845-.02369.1808-.05213.26641a.01145.01145,0,0,0,.02146.008A.398.398,0,0,0,5.34635,6.033Z" /><path d="M4.87418,6.22566c-.00719-.00849-.02373-.00257-.02092.00937a.17844.17844,0,0,1,.00137.07374A1.7398,1.7398,0,0,0,4.699,6.18083q-.11315-.08745-.22184-.1807c-.14118-.12144-.275-.2543-.422-.36854-.0078-.00607-.02134.00383-.01581.01294a1.97449,1.97449,0,0,0,.37266.42363q.10232.09232.21067.17737c-.044.12163-.08724.24233-.13778.36175a1.59551,1.59551,0,0,0-.12183.38224,1.27221,1.27221,0,0,1-.03222.1969.7563.7563,0,0,1-.09488.15767.14224.14224,0,0,0-.00932.14936.07834.07834,0,0,0,.12145.0328A.0267.0267,0,0,0,4.334,7.47954a.05024.05024,0,0,1-.04379-.036.08422.08422,0,0,1,.02614-.07182.5902.5902,0,0,0,.08891-.13093,2.751,2.751,0,0,0,.07062-.33964,3.313,3.313,0,0,1,.12564-.33571.91231.91231,0,0,0,.07309-.28.81578.81578,0,0,0,.15635.09574l-.01961.04166c-.02828.05789-.06166.113-.08859.1716a1.97222,1.97222,0,0,0-.12043.37019c-.04045.17038-.07167.3438-.11911.51238l-.00032,0a.10662.10662,0,0,0-.0521.01738.02368.02368,0,0,1-.01569-.00178.01429.01429,0,0,0-.01318.02495.12855.12855,0,0,0,.02245.01252.0641.0641,0,0,0,.03023.01118l.01-.00081a1.81513,1.81513,0,0,1-.06862.18656c-.05094.117-.15462.28248-.07226.4075.0195.02961.06023.00314.05781-.0259a.52737.52737,0,0,1-.005-.09208.37663.37663,0,0,1,.02818-.1048c.02451-.06107.05724-.11842.0842-.17838A2.05021,2.05021,0,0,0,4.60671,7.361a3.59954,3.59954,0,0,1,.21688-.75717C4.87856,6.49027,4.97338,6.34279,4.87418,6.22566Z" /><path d="M5.37911,8.116c-.0699.03361-.1296.08547-.202.11461a.34873.34873,0,0,1-.24477-.01044.82332.82332,0,0,0-.24065-.04643c-.03867-.00074-.07781-.00112-.11641.00142a.30577.30577,0,0,1-.13857-.0077c-.01354-.00524-.02528.01528-.01219.02307A.55429.55429,0,0,0,4.5369,8.245a.50737.50737,0,0,0,.13271.01667A.61135.61135,0,0,1,4.80882,8.28c.04572.0128.0902.02964.13585.04267a.37738.37738,0,0,0,.25718-.0053.44717.44717,0,0,0,.20349-.16926C5.41611,8.131,5.39922,8.10633,5.37911,8.116Z" /><path d="M5.39291,6.50505c.00739-.01535-.01395-.032-.02334-.017-.06633.10626-.13729.2077-.19933.31734-.0633.11186-.12173.22744-.18024.34232-.05585.10965-.11026.22136-.15837.33526a.57729.57729,0,0,0-.07046.34356c.00578.02212.03066.01926.04052.00277a.884.884,0,0,0,.06423-.16166c.01892-.05414.03913-.10731.06206-.15965l.03363-.075a.35426.35426,0,0,1,.05106-.0055c.04259-.00186.08527.00247.12787.00127.06184-.00174.18763-.01581.19366-.09816a.02432.02432,0,0,0-.02769-.02615.21665.21665,0,0,0-.05274.02319.21729.21729,0,0,1-.05825.01626,1.0772,1.0772,0,0,1-.12881.00711.34789.34789,0,0,0-.07208.01055l.05184-.11037a.15981.15981,0,0,0,.02934.02445.15234.15234,0,0,0,.124.01392c.013-.003.01435-.02449-.00071-.02482a.13631.13631,0,0,1-.08383-.04353.2636.2636,0,0,1-.03352-.04519c.05079-.10917.10427-.21673.1561-.3253C5.29216,6.73693,5.33828,6.6186,5.39291,6.50505Z" /><path d="M5.34153,8.07081c-.01051-.07309-.14808-.09268-.21752-.10318q-.06737-.01019-.13535-.01648c-.03373-.00308-.144-.01065-.15462-.04629a.01537.01537,0,0,0-.02895.00068c-.01543.077.14821.11881.21508.1316.053.01014.10723.01528.15978.0274a.47062.47062,0,0,0,.13848.03257A.02432.02432,0,0,0,5.34153,8.07081Z" /><path d="M7.35922,3.22291a.45687.45687,0,0,0-.53265-.02315.54938.54938,0,0,0-.18625.26483.90977.90977,0,0,0-.04716.18729c-.00453.03359-.00583.06769-.00952.10139a1.00034,1.00034,0,0,1-.00758.1129c-.00342.01454.01831.02324.02226.00828.00761-.02883.02434-.052.03345-.08031.00739-.02295.01371-.04627.021-.06926.0176-.0554.032-.11162.04913-.16715a.5586.5586,0,0,1,.13837-.24616.354.354,0,0,1,.47076.00954.56906.56906,0,0,1,.15967.51026,1.48267,1.48267,0,0,1-.26425.59165,2.69364,2.69364,0,0,0-.19239.29926.26806.26806,0,0,0,.01414.29256A.02783.02783,0,0,0,7.075,4.98609a.296.296,0,0,1-.02372-.14886.41918.41918,0,0,1,.07221-.166c.06313-.09621.13684-.18486.20513-.27729a1.47946,1.47946,0,0,0,.1729-.31107.98747.98747,0,0,0,.08229-.32475A.63955.63955,0,0,0,7.35922,3.22291Z" /><path d="M3.27855,2.41114c-.007-.01036-.024.00038-.0186.01144a.24049.24049,0,0,1-.002.19175.40828.40828,0,0,1-.10677.13612.60757.60757,0,0,0-.11306.12941.43635.43635,0,0,0-.05014.18573,2.459,2.459,0,0,0,.00862.443,1.50313,1.50313,0,0,0,.03715.22273c.00831.03213.01758.06439.02844.09574a.76373.76373,0,0,0,.04563.10939c.00625.01159.02865.01175.02839-.00454-.0024-.15118-.03288-.30265-.04757-.45309a2.031,2.031,0,0,1-.0078-.45114c.01746-.13439.13164-.19158.20566-.29194A.27053.27053,0,0,0,3.27855,2.41114Z" /><path d="M3.71414,1.66829a.43246.43246,0,0,0-.50578.23871.35686.35686,0,0,0-.01413.17042c.00932.06421.03372.12461.04591.18834.00273.01426.02427.00818.02168-.00592a.55281.55281,0,0,1,.04151-.33964.31843.31843,0,0,1,.23276-.15789A.47614.47614,0,0,1,3.80967,1.81a.57023.57023,0,0,0-.20416.02476.43382.43382,0,0,0-.15714.09066.37061.37061,0,0,0-.09226.1424.01.01,0,0,0,.01745.00922.46568.46568,0,0,1,.25979-.16823.58929.58929,0,0,1,.18339-.01705c.03116.00189.06156.00617.09239.01077.01693.00253.03549.00716.05369.009a.26006.26006,0,0,1,.08448.1625c.00232.02536.04226.03433.04738.00561C4.13337,1.863,3.89845,1.70756,3.71414,1.66829Z" /><path d="M4.184,2.40853a.27184.27184,0,0,0-.04983-.07788A.31621.31621,0,0,1,4.082,2.22508a.01039.01039,0,0,0-.0205.00324.36878.36878,0,0,0,.02351.119c.0144.03121.03664.07351.07173.08356C4.17012,2.43469,4.188,2.42461,4.184,2.40853Z" /><path d="M4.04855,2.63513a.01709.01709,0,0,0-.02943-.00294c-.0263.04433-.05686.03955-.104.03554-.042-.00357-.08421-.0078-.12635-.00716-.07686.00117-.17066.00211-.21716-.07121-.00663-.01045-.02438.00051-.01861.01144a.32085.32085,0,0,0,.26232.1419.31329.31329,0,0,0,.17991-.00817A.087.087,0,0,0,4.04855,2.63513Z" /><path d="M3.92915,1.96441a.80351.80351,0,0,1-.1192.11288c-.05665.037-.13045.02116-.19395.03709a.37579.37579,0,0,0-.1669.09225.37062.37062,0,0,0-.08894.14595.01381.01381,0,0,0,.02586.00962.19949.19949,0,0,1,.08918-.09994c-.00009.00512,0,.01023.00031.01523a.10833.10833,0,0,0,.06524.10983c.00915.00336.021-.007.01554-.01651a.197.197,0,0,1-.01692-.074.11964.11964,0,0,1,.004-.064.70894.70894,0,0,1,.185-.02754.26262.26262,0,0,0,.24628-.20825C3.98261,1.972,3.95086,1.94257,3.92915,1.96441Z" /><path d="M4.02616,2.29173a.33352.33352,0,0,1-.07269.01266c-.0118-.0001-.0201.0155-.00862.02306a.07848.07848,0,0,0,.09625-.00238C4.05446,2.31338,4.04538,2.28755,4.02616,2.29173Z" /><path d="M4.09736,2.50007a.02745.02745,0,0,0-.036-.0139c-.02519.01536-.0522.02741-.07709.04311-.00688.00434-.00352.01482.00289.0174A.1165.1165,0,0,0,4.08347,2.536.028.028,0,0,0,4.09736,2.50007Z" /></svg>