<svg xmlns="http://www.w3.org/2000/svg" version="1.1" x="0px" y="0px" viewBox="21.105984030029155 11.068999999999994 57.78753665347313 77.86500000000001" enable-background="new 0 0 100 100" xml:space="preserve"><path fill="#000000" d="M71.515,35.302c-6.674-11.508-6.725-18.163-6.766-23.51l-0.002-0.227c-0.002-0.275-0.245-0.468-0.504-0.496  c-0.276,0.002-0.498,0.228-0.496,0.504l0.002,0.227c0.025,3.191,0.063,6.847,1.438,11.669c-6.651-2.78-14.748-2.671-15.193-2.662  c-0.511-0.004-8.56-0.106-15.183,2.662c1.375-4.82,1.413-8.477,1.438-11.668l0.002-0.227c0.002-0.276-0.22-0.501-0.496-0.504  c-0.001,0-0.002,0-0.004,0c-0.274,0-0.498,0.221-0.5,0.496l-0.002,0.227c-0.041,5.348-0.092,12.002-6.759,23.5  c-9.86,16.042-9.845,33.887,0.043,53.038c0.089,0.172,0.264,0.271,0.445,0.271c0.029,0,0.057-0.016,0.086-0.021  c0.018,0.003,0.032,0.017,0.05,0.019c0.04,0.004,4.098,0.333,9.885,0.333c5.789,0,9.554-0.33,9.591-0.333  c0.026-0.002,0.042-0.162,0.052-0.433l0.317,0.216c0.381-0.559,1.223-19.619-4.061-27.557c0.687-0.397,1.308-0.864,1.867-1.394  c0.274,0.112,0.8,0.263,1.667,0.263c0.434,0,0.957-0.042,1.567-0.142c0.611,0.1,1.134,0.142,1.568,0.142  c0.868,0,1.393-0.152,1.667-0.264c0.559,0.531,1.18,0.997,1.867,1.395c-5.284,7.939-4.443,26.999-4.062,27.558l0.317-0.216  c0.01,0.271,0.026,0.43,0.052,0.433c0.038,0.003,3.803,0.333,9.591,0.333c5.787,0,9.845-0.329,9.885-0.333  c0.018-0.002,0.032-0.015,0.05-0.019c0.029,0.005,0.057,0.021,0.086,0.021c0.181,0,0.355-0.099,0.444-0.271  C81.354,69.179,81.369,51.334,71.515,35.302z M74.368,67.275c-1.574-1.212-2.792-2.136-3.497-2.668  c0.443-0.54,0.93-1.179,1.437-1.936c0.42-0.619,0.835-1.318,1.243-2.076c0.404-0.76,0.781-1.59,1.115-2.473  c0.319-0.889,0.613-1.826,0.8-2.808c0.21-0.994,0.316-1.934,0.399-2.945c0.157-1.976,0.074-3.979-0.226-5.807  c-0.009-0.058-0.021-0.113-0.031-0.171c2.388,7.26,2.893,14.847,1.522,22.719C76.634,68.866,75.778,68.361,74.368,67.275z   M28.032,38.08c0.087-0.047,0.163-0.115,0.211-0.21c0.053-0.104,5.421-10.439,21.755-10.313  c16.371-0.081,21.705,10.209,21.756,10.313c0.048,0.096,0.125,0.164,0.212,0.211c0.059,0.108,0.12,0.215,0.178,0.323  c0.026,0.11,0.051,0.212,0.082,0.339c0.07,0.309,0.163,0.678,0.262,1.076c-2.762-2.116-9.524-5.551-22.49-2.977  c-12.968-2.576-19.729,0.861-22.49,2.977c0.1-0.398,0.192-0.767,0.262-1.076c0.03-0.126,0.055-0.228,0.081-0.336  C27.912,38.297,27.973,38.188,28.032,38.08z M24.387,46.406c-0.008,0.053-0.02,0.103-0.028,0.157  c-0.3,1.829-0.383,3.831-0.226,5.807c0.083,1.011,0.189,1.95,0.399,2.945c0.187,0.982,0.482,1.919,0.8,2.808  c0.334,0.884,0.712,1.713,1.115,2.473c0.408,0.758,0.823,1.456,1.243,2.076c0.508,0.757,0.994,1.396,1.437,1.936  c-0.704,0.532-1.923,1.456-3.497,2.668c-1.41,1.085-2.266,1.591-2.763,1.835C21.498,61.245,22.003,53.663,24.387,46.406z   M37.28,61.585c-0.276,0.002-0.499,0.227-0.497,0.503c0.001,0.275,0.225,0.497,0.5,0.497c0.001,0,0.002,0,0.003,0  c2.634-0.015,4.87-0.455,6.715-1.305c1.034,1.512,1.82,3.44,2.414,5.571c-1.459-0.17-6.159-0.719-9.131-1.071  c-1.904-0.225-3.909-0.692-5.365-1.077c-0.137-0.141-0.301-0.314-0.507-0.545c-0.526-0.598-1.272-1.475-2.038-2.616  c-0.388-0.567-0.769-1.206-1.144-1.894c-0.369-0.691-0.714-1.441-1.021-2.233c-0.29-0.797-0.56-1.632-0.729-2.5  c-0.192-0.847-0.299-1.814-0.387-2.708c-0.173-1.838-0.137-3.683,0.049-5.409c0.19-1.726,0.528-3.329,0.834-4.709  c0.024-0.115,0.049-0.217,0.073-0.329c1.664-0.837,8.054-3.608,14.309-0.459c6.971,3.509,7.562,7.061,7.846,8.768  c0.037,0.221,0.072,0.411,0.115,0.585C48.776,57.96,44.84,61.543,37.28,61.585z M62.713,62.585c0.001,0,0.002,0,0.003,0  c0.274,0,0.498-0.222,0.5-0.497c0.002-0.276-0.221-0.501-0.497-0.503C55.16,61.543,51.225,57.96,50.68,50.656  c0.042-0.175,0.078-0.366,0.115-0.587c0.284-1.707,0.875-5.259,7.846-8.768c6.256-3.151,12.644-0.378,14.309,0.459  c0.024,0.111,0.049,0.214,0.073,0.329c0.306,1.38,0.644,2.983,0.834,4.709c0.186,1.726,0.222,3.571,0.049,5.409  c-0.088,0.894-0.194,1.86-0.387,2.708c-0.17,0.868-0.44,1.703-0.729,2.5c-0.307,0.792-0.651,1.542-1.021,2.233  c-0.375,0.689-0.756,1.327-1.144,1.894c-0.767,1.141-1.512,2.018-2.038,2.616c-0.206,0.231-0.37,0.403-0.507,0.545  c-1.456,0.385-3.462,0.851-5.366,1.077c-2.972,0.352-7.672,0.901-9.131,1.071c0.594-2.131,1.38-4.059,2.414-5.572  C57.843,62.13,60.079,62.57,62.713,62.585z" /><path fill="#000000" d="M49.995,16.806c0.002,0,0.003-0.001,0.005-0.001s0.003,0.001,0.005,0.001c0.276,0,0.5-0.224,0.5-0.5v-4.737  c0-0.276-0.224-0.5-0.5-0.5c-0.002,0-0.003,0.001-0.005,0.001s-0.003-0.001-0.005-0.001c-0.276,0-0.5,0.224-0.5,0.5v4.737  C49.495,16.582,49.718,16.806,49.995,16.806z" /></svg>