<svg xmlns="http://www.w3.org/2000/svg" data-name="Layer 1" viewBox="3.4698771497196 1.882645131192846 3.060234390134116 6.23525789686289" x="0px" y="0px"><title>KAMASUTRA</title><path d="M5.04585,3.31109a4.12618,4.12618,0,0,1-.22128-.50562c-.05964-.18057-.06791-.3712-.113-.55482a.47428.47428,0,0,0-.2728-.33306A.49256.49256,0,0,0,3.99,1.961a.36133.36133,0,0,0-.17143.18211.4173.4173,0,0,0,.00574.258c.00324.01067.01855.00612.01987-.00318a.8608.8608,0,0,1,.03833-.22371.30828.30828,0,0,1,.15891-.14572A.46427.46427,0,0,1,4.313,1.97766a.4763.4763,0,0,1-.02357.09537.15705.15705,0,0,1-.12071.08443A.36708.36708,0,0,0,3.911,2.307c-.00834.00879.00277.02362.01231.015a.37851.37851,0,0,1,.17589-.07436c.0312-.00541.06352-.00739.0949-.01284a.23926.23926,0,0,0,.06176.1254.877.877,0,0,1,.12053.178l.00727.01721a.32792.32792,0,0,1-.13663.25173.19072.19072,0,0,1-.19071.02186.32806.32806,0,0,1-.07007-.07716.74273.74273,0,0,1-.082-.10729c-.006-.0109-.0238-.0031-.01778.00787.04447.081.06234.18528.14792.23521a.15794.15794,0,0,1,.03283.12816.19507.19507,0,0,1-.04817.14677c-.01.00809.00238.02305.0126.0154a.233.233,0,0,0,.10209-.17939.29423.29423,0,0,0-.007-.08634.25316.25316,0,0,0,.13686-.04179.44411.44411,0,0,0,.15764-.17362.25866.25866,0,0,0,.12207.19293A.01525.01525,0,0,0,4.56091,2.865c-.05663-.04328-.05622-.12747-.0627-.19189a.52387.52387,0,0,0-.051-.18864.65393.65393,0,0,0-.042-.071l-.00349-.007L4.39674,2.401a.79314.79314,0,0,0-.0586-.07311c-.03223-.03576-.068-.06815-.10032-.10378a.18751.18751,0,0,0,.03044-.01342.22033.22033,0,0,0,.0975-.11693A.2841.2841,0,0,0,4.386,1.99681a.35461.35461,0,0,1,.05208.02492.37953.37953,0,0,1,.13585.13117.62241.62241,0,0,1,.06488.21843,3.03526,3.03526,0,0,0,.1045.48719,2.06617,2.06617,0,0,0,.2792.467C5.03128,3.33842,5.05262,3.325,5.04585,3.31109Z" /><path d="M4.76709,2.9666a1.91867,1.91867,0,0,1-.14436-.34551c-.02332-.06473-.04768-.12906-.07408-.1926a1.10549,1.10549,0,0,0-.04576-.10127c-.01756-.03257-.04424-.06178-.059-.09547a.01041.01041,0,0,0-.019.00843,1.04124,1.04124,0,0,1,.02839.109c.011.03549.02472.07005.03766.10485.02677.072.05322.14413.078.21682.02271.06651.03628.13528.05833.20182a.18139.18139,0,0,0,.10892.1267C4.75411,3.00617,4.77842,2.98531,4.76709,2.9666Z" /><path d="M5.428,3.91637a.78727.78727,0,0,0-.08717-.16412,1.48607,1.48607,0,0,0-.11775-.15668c-.04283-.05018-.094-.09212-.13668-.14245-.00827-.00976-.02369.00281-.0154.0126a1.23893,1.23893,0,0,1,.09617.14628c.032.05082.064.10182.09413.1538a.74245.74245,0,0,1,.12392.31045.02436.02436,0,0,0,.04658.00466A.27151.27151,0,0,0,5.428,3.91637Z" /><path d="M5.53863,7.22609a1.95984,1.95984,0,0,0-.074-.18519A1.65576,1.65576,0,0,1,5.41222,6.832a2.46251,2.46251,0,0,0-.08948-.41453A.44944.44944,0,0,0,5.28,6.33382l.00039-.01c.00251-.03546.01071-.07017.01539-.10534.00986-.07413.01543-.149.024-.22325.017-.14717.04667-.294.05754-.44142.00073-.00985-.01363-.01688-.01926-.00721a1.24651,1.24651,0,0,0-.12664.44785,2.35732,2.35732,0,0,0-.02588.23917l-.001.01708c-.05241-.04169-.10894-.06825-.13923-.13272a.8322.8322,0,0,1-.02029-.45208c.013-.09494.03082-.18919.03973-.28467.00179-.01913.00335-.03818.00443-.05714a.3192.3192,0,0,1,.05926.08938.55137.55137,0,0,1,.01371.07646.10066.10066,0,0,0,.0383.05882c.015.01373.04-.00431.03644-.02264a.48585.48585,0,0,0-.026-.14709c-.02362-.04513-.06351-.07975-.08584-.12535a.622.622,0,0,1-.00455-.36783q.031-.19069.05651-.38258a1.98442,1.98442,0,0,0,.02975-.30212.4454.4454,0,0,0-.0241-.17214A.71592.71592,0,0,0,5.01255,3.791c-.06639-.07249-.13262-.14525-.20015-.21667-.03459-.03658-.06764-.07445-.10121-.11194A1.41011,1.41011,0,0,1,4.60586,3.345c-.0064-.00906-.02224.00047-.0168.01032.02154.039.0357.08115.05925.11966.02373.03881.04943.076.0764.11265l.009.012c-.00908.02864-.01279.05951-.02283.08787a.9678.9678,0,0,1-.04309.09941,1.07158,1.07158,0,0,0-.08712.2073c-.02589.10429-.00906.268.11864.29525.02453.00523.03313-.02563.02254-.042a.29075.29075,0,0,1-.05655-.14952.301.301,0,0,1,.011-.08951.28767.28767,0,0,0,.11494-.06071A.35646.35646,0,0,0,4.89845,3.795l.00591.00652c.01849.02022.0375.0403.05639.06056-.007.074.00306.14853-.00391.223a.49687.49687,0,0,1-.03765.12267c-.01708.04676-.03071.0943-.04832.14081a.31606.31606,0,0,0-.03368-.00677c-.01955-.00288-.03879-.0074-.05832-.0104a.552.552,0,0,1-.07608-.00372.01.01,0,0,0-.00922.01744c.01879.013.02924.03294.04787.04561a.16979.16979,0,0,0,.049.021.379.379,0,0,1,.12121.035.46557.46557,0,0,0,.18034.08881c-.01249.06874-.02539.13782-.03609.20714a.98285.98285,0,0,0-.11746-.01191c-.024-.00351-.04755-.00942-.07126-.0143a.27969.27969,0,0,1-.10284-.02337c-.011-.00694-.02289.00961-.01176.01661a.71223.71223,0,0,1,.06531.05815.21975.21975,0,0,0,.08146.03459.59473.59473,0,0,0,.14585.01607c-.00411.033-.00751.06607-.00984.09917A.92477.92477,0,0,0,5.0316,5.22c-.00627.05146-.01371.10278-.02454.15343-.01841.0861-.03949.17129-.05326.25835a1.0748,1.0748,0,0,0,.00279.467.33755.33755,0,0,0,.1022.16426c.02837.02411.06313.03855.09237.06143a.255.255,0,0,1,.06462.07749,1.39551,1.39551,0,0,1,.10263.41676,1.24568,1.24568,0,0,0,.06561.23564.36952.36952,0,0,0,.1286.18788C5.52388,7.24862,5.54211,7.24134,5.53863,7.22609ZM4.77377,3.879a.40435.40435,0,0,1-.0734.059l.00512-.01261a1.21694,1.21694,0,0,0,.06762-.182.424.424,0,0,0,.01212-.07823q.02916.03556.05961.07006A.45094.45094,0,0,1,4.77377,3.879Zm.26109.55809c-.03615-.01758-.0671-.04223-.10146-.06256a.75.75,0,0,0,.12418-.27185.51486.51486,0,0,0-.00988-.13944c.01151.01522.02255.03075.03262.04692a.45471.45471,0,0,1,.06619.17939c-.01909.09007-.02829.18371-.04233.27484C5.0817,4.45422,5.05648,4.44762,5.03486,4.43711Z" /><path d="M5.45342,5.44508a.12739.12739,0,0,0-.0645-.08258.42634.42634,0,0,1-.106-.08337c-.01516-.0173-.03583-.0371-.061-.02611a.03291.03291,0,0,0-.01917.04144c.003.0098.01919.00485.01717-.00507a.02466.02466,0,0,1,.02794.01811l.01031.01726a.22979.22979,0,0,0,.02523.03277.45529.45529,0,0,0,.0705.0544.09947.09947,0,0,1,.03138.03024c.00693.01255.00567.02474.01793.03409a.0303.0303,0,0,0,.03882-.00136A.031.031,0,0,0,5.45342,5.44508Z" /><path d="M5.51511,5.42432a.31121.31121,0,0,0-.06988-.11069.13374.13374,0,0,0-.08259-.0495c-.013-.00146-.01425.01726-.002.01979.03163.00654.05185.05328.06868.07812a.59683.59683,0,0,0,.0581.07928A.01647.01647,0,0,0,5.51511,5.42432Z" /><path d="M5.50751,5.261a.43315.43315,0,0,0-.10334-.07784c-.01063-.00707-.0222.00912-.0115.01624a.57936.57936,0,0,1,.13421.18846c.01035.01625.03257.00154.03129-.014A.19944.19944,0,0,0,5.50751,5.261Z" /><path d="M4.0286,4.536c-.00372-.035-.008-.06965-.01048-.10472-.00248-.0356-.01218-.06953-.01635-.10492a1.32372,1.32372,0,0,0-.027-.20623.602.602,0,0,0-.0742-.16959.42519.42519,0,0,0-.04377-.05571.17548.17548,0,0,0,.0667-.01763.02371.02371,0,0,0-.00718-.04488.25293.25293,0,0,1-.15339-.07647.16979.16979,0,0,1-.01819-.17014A.86153.86153,0,0,1,3.84,3.42108c.01758-.02642.03561-.05258.05209-.07971a.94421.94421,0,0,1,.05722-.09551c.00769-.00985-.00817-.02109-.01587-.01123-.02878.03685-.06745.06586-.09932.10023-.03057.033-.061.0662-.09072.1a.36641.36641,0,0,0-.10445.21074.24939.24939,0,0,0,.14549.23708c.00618.01429.012.02873.01833.042.0116.02428.02186.04922.03213.07408a.889.889,0,0,1,.05464.17592c.01175.06292.009.127.01967.18984a1.06736,1.06736,0,0,0,.08428.18184C4.00088,4.56682,4.03072,4.5559,4.0286,4.536Z" /><path d="M4.43032,3.45045c-.01393-.02186-.05227-.00373-.04627.02073a.29052.29052,0,0,1-.07528.3277.24374.24374,0,0,1-.3245-.10786c-.006-.012-.025-.00357-.019.00843a.355.355,0,0,0,.14329.17908.23515.23515,0,0,0,.23391-.00207A.30306.30306,0,0,0,4.43032,3.45045Z" /><path d="M4.57128,5.90213c-.00342-.11956-.015-.2369-.02628-.35609-.01146-.12113-.02062-.24279-.03519-.36359-.00732-.0607-.02-.12024-.03234-.18006-.00673-.03269-.0139-.06515-.022-.09753a.78511.78511,0,0,1-.026-.09689c-.00132-.01224-.01975-.00909-.01874.003a.9071.9071,0,0,1-.00807.11174c-.00112.02272-.00156.04543-.00188.06815-.05378-.052-.121-.09195-.17727-.14a.65372.65372,0,0,1-.095-.10012c-.01541-.02015-.0263-.04229-.04-.06336-.0122-.0187-.02951-.0324-.04265-.05046-.00737-.01012-.02238.00222-.015.01231.01448.01989.00707.05855.01269.0823a.32163.32163,0,0,0,.01292.04164.71428.71428,0,0,0-.06161.12694q-.03084.07192-.05958.14474a2.47065,2.47065,0,0,0-.09856.30457,2.10876,2.10876,0,0,0-.05514.29811,1.21237,1.21237,0,0,0-.00634.15335,1.23871,1.23871,0,0,0,.023.15078c.00156.01088.01978.011.01972-.00056-.00026-.04958.01212-.10237.01659-.152.00435-.04827.01036-.09663.018-.14449a1.87973,1.87973,0,0,1,.07437-.29643c.03126-.09374.06731-.186.10378-.27784.01927-.0485.03945-.09661.05984-.14464.00881-.02075.01833-.04167.027-.0629a.54518.54518,0,0,0,.03828.04058,1.15611,1.15611,0,0,0,.24415.17932c.00013.03552.001.071.00348.10654.00739.10366.01858.20721.02915.31067a.947.947,0,0,0-.06329.12353c-.03217.06157-.06464.123-.09649.18474a.7682.7682,0,0,0-.07418.1853c-.01464.0673-.01238.13838-.02387.20656-.0173.10263-.03763.20474-.0586.3067-.01721-.03242-.03725-.06349-.056-.09533-.03669-.06234-.07173-.12562-.10416-.19029-.0162-.0323-.03138-.06506-.04691-.09767-.01768-.03712-.04106-.07231-.05687-.11-.00546-.013-.0232-.00407-.01946.00861.01116.03778.01484.07817.02523.11645.00878.03233.01852.06449.02844.09648a1.5247,1.5247,0,0,0,.0705.18843c.02638.05719.065.10829.08805.167a.82817.82817,0,0,1,.03283.10366c-.02366.1208-.04474.24247-.07235.36221A.47488.47488,0,0,1,3.92,7.25579a.399.399,0,0,1-.14451.12653c-.00833.00347-.0068.01809.0029.01812a.26046.26046,0,0,0,.14525-.03561.32831.32831,0,0,0,.1067-.12708.77311.77311,0,0,0,.061-.1887c.017-.07458.03194-.14955.04695-.22455.03051-.15242.05842-.30542.09144-.45731.01552-.07139.03365-.14317.042-.21587a.9524.9524,0,0,1,.0268-.22226A1.86177,1.86177,0,0,1,4.409,5.70834l.03645-.0694c.00365.036.00739.072.01143.108a1.35966,1.35966,0,0,0,.03854.181,1.00277,1.00277,0,0,0,.08832.33774A.02187.02187,0,0,0,4.6221,6.254,3.45946,3.45946,0,0,0,4.57128,5.90213Z" /><path d="M3.69068,7.44471c-.03449.02032-.0727.03274-.10705.055a.32279.32279,0,0,0-.07434.07062.15787.15787,0,0,0-.02874.16142c.00327.0093.01934.00472.01674-.00494-.017-.06321.04719-.10667.09157-.13705a.2951.2951,0,0,0,.054-.04553c.01056-.01171.023-.02244.0329-.03468.01051-.013.01813-.02842.02979-.04065C3.71547,7.45845,3.706,7.4357,3.69068,7.44471Z" /><path d="M4.25624,7.38634c-.00652-.01619-.03559-.01321-.03523.00563a.22281.22281,0,0,1-.03825.15455c-.04455.0454-.13193.0448-.19042.06-.069.018-.1372.03969-.2042.064-.0345.01251-.06921.02535-.10239.041-.03361.0159-.063.0382-.0967.05414-.01107.00524-.00644.02521.00635.02155.04124-.01183.08365-.01495.125-.027.03922-.01147.07795-.02474.11706-.0366a2.17734,2.17734,0,0,1,.26417-.05911.19531.19531,0,0,0,.16159-.10044A.22126.22126,0,0,0,4.25624,7.38634Z" /><path d="M4.54845,6.88269A.15416.15416,0,0,0,4.51209,6.832a1.2821,1.2821,0,0,0,.07781-.21555A.84821.84821,0,0,0,4.631,6.37313c-.00079-.022-.03171-.02047-.03906-.00391-.03453.07789-.05175.16181-.0837.241s-.06493.15847-.10309.235c-.03608.07234-.079.141-.11585.21286a.837.837,0,0,0-.04886.11128.31811.31811,0,0,0-.015.05463c-.00311.021-.00061.04184-.00513.06284-.00244.01135.016.01537.01966.00456a.356.356,0,0,1,.03783-.06252l.029-.04848c.02131-.0346.04421-.06833.06675-.10214q.0497-.07457.0921-.15339a.25707.25707,0,0,0,.02729.03681.073.073,0,0,1,.02359.06628.09326.09326,0,0,1-.03349.07788c-.07381.06269-.20533.09822-.2141.21422a.01054.01054,0,0,0,.01694.00909c.026-.01853.04167-.0476.06572-.06857a.24309.24309,0,0,1,.10214-.04437.20979.20979,0,0,0,.13577-.09753.23187.23187,0,0,0,.0124-.166C4.59128,6.92345,4.56477,6.90812,4.54845,6.88269Z" /><path d="M5.27143,7.26818a1.51931,1.51931,0,0,0-.14461-.31187q-.08669-.15409-.18351-.30225c-.031-.04759-.06264-.0953-.09811-.13971l-.01093-.01309-.00863-.00994c-.03469-.0391-.07359-.07407-.10858-.113a.00972.00972,0,0,0-.015.01231c.02824.0427.04955.08926.07392.13421.00322.03711.00348.07379.00794.11115q.00582.04881.01046.09776.01.106.01441.21252c.00376.09121.00529.18335.00225.27514a.39522.39522,0,0,0-.06794-.02845.33873.33873,0,0,0-.04816-.016.32678.32678,0,0,0-.055-.00363.01027.01027,0,0,0-.00689.01843.33865.33865,0,0,0,.03354.03235.3251.3251,0,0,0,.04805.026.22828.22828,0,0,0,.09357.033c-.002.03461-.00461.06913-.00816.10348-.007.06736-.0123.13639-.02544.20286a.24638.24638,0,0,1-.09987.15177c-.05223.04169-.10449.08405-.15812.12393a.94008.94008,0,0,0-.163.1299c-.00758.00878.00416.01878.013.01588a1.131,1.131,0,0,0,.20008-.11111,1.59363,1.59363,0,0,0,.17789-.10541.43976.43976,0,0,0,.13431-.367c.00719-.15078.01241-.30129.00772-.45225q-.00357-.11466-.01365-.229l-.00713-.07221.00425.00691c.058.09523.11168.19291.16652.29.0245.04336.04957.08825.07312.13439a.44753.44753,0,0,0-.01875.07615,2.31522,2.31522,0,0,0-.03516.239c-.00832.08-.01365.16066-.01462.24115-.0004.03294.00435.06674.00344.09937-.00107.0386-.03918.0768-.06322.10478-.00677.00788.0058.0196.01342.01251.04374-.04068.11063-.06717.12072-.13184a1.09245,1.09245,0,0,0,.004-.12543q.0021-.05635.00641-.11258.00482-.06281.01236-.12538a.32756.32756,0,0,0,.07708.0337l.00393.00077a.55045.55045,0,0,1,.00039.16122c-.00323.02147.02765.02686.03565.00827A.4557.4557,0,0,0,5.27143,7.26818Zm-.12662.06472.00959-.06449.00837-.04891a.94128.94128,0,0,1,.04247.127A.327.327,0,0,0,5.14481,7.3329Z" /><path d="M5.21205,7.66679a.70909.70909,0,0,1-.05367.10108c-.01691.03033-.03417.06017-.05248.08967-.01508.0243-.02807.05849-.05242.07359a.36655.36655,0,0,0-.07625.0424.02247.02247,0,0,0,.01181.03914c.19157.04277.2044-.215.24423-.338A.01133.01133,0,0,0,5.21205,7.66679Z" /><path d="M6.37,7.76619c-.11261-.0387-.22439-.08178-.33615-.12307a1.47625,1.47625,0,0,0-.28074-.08346c.03138-.03775.05317-.09092.02346-.12726a.12711.12711,0,0,0-.0102-.02515.18105.18105,0,0,0-.161-.09029.0093.0093,0,0,0-.007.01289.3757.3757,0,0,0,.07971.07972.12231.12231,0,0,1,.0287.043.10808.10808,0,0,1-.03314.063.69747.69747,0,0,1-.0758.049.63168.63168,0,0,0-.14665.1324c-.0827.10208-.12573.27763-.26293.32165-.0119.00381-.00579.02265.0061.02067.17181-.02856.22573-.196.33456-.30764a.67233.67233,0,0,1,.08917-.07687c.02376-.017.04964-.03064.07456-.04577q.16469.05412.3275.114a1.14368,1.14368,0,0,0,.34035.08419A.0213.0213,0,0,0,6.37,7.76619Z" /><path d="M4.92482,7.90619a.59574.59574,0,0,1-.10443.06008.94447.94447,0,0,1-.125.05973.4299.4299,0,0,1-.1524.03717.3514.3514,0,0,1-.0807-.01047.11767.11767,0,0,0-.05587-.00609.01077.01077,0,0,0-.00807.01481c.02077.04241.08606.05215.12867.05582a.51088.51088,0,0,0,.17519-.0216.52938.52938,0,0,0,.14876-.06036.26546.26546,0,0,0,.09058-.11716C4.94619,7.90842,4.93248,7.89965,4.92482,7.90619Z" /><path d="M4.88459,4.51025A.64.64,0,0,0,4.68378,4.473c-.01373-.00226-.01522.01835-.00212.02117a.392.392,0,0,1,.09463.042c.02709.014.05763.0241.084.039a.026.026,0,0,0,.035-.006l.00544-.00659A.035.035,0,0,0,4.88459,4.51025Z" /><path d="M4.979,4.6532c-.03005-.033-.08928-.03093-.1312-.03949a.66351.66351,0,0,1-.173-.0437c-.01167-.00617-.024.00942-.0123.01736a.56133.56133,0,0,0,.14951.084c.04241.01338.11689.04183.15794.02A.025.025,0,0,0,4.979,4.6532Z" /><path d="M6.03486,4.24935a.01977.01977,0,0,0-.03773-.00377.65729.65729,0,0,1-.0571.08453.38887.38887,0,0,1-.07174.0755.99734.99734,0,0,1-.208.12741c-.076.03674-.15174.07371-.2267.11247-.01886.00975-.03971.02028-.0602.03221.00886-.03748.01757-.075.02589-.11257.00993-.04487.019-.08982.02778-.1348.028-.02363.06056-.04476.08663-.06582.04188-.03382.083-.06846.12494-.10227.04128-.03331.075-.07258.11507-.10669a.95531.95531,0,0,0,.12563-.11827.02252.02252,0,0,0-.0273-.03337l-.02529.01427c.01477-.06929.0026-.15462.02209-.2161a.48352.48352,0,0,0,.01066-.35828.01.01,0,0,0-.019.003c-.00764.05478-.01145.10984-.02331.164a1.27206,1.27206,0,0,1-.06049.16455.36557.36557,0,0,0-.01428.159.36872.36872,0,0,1-.01933.15388L5.722,4.09315l-.01186.00918c-.046.03541-.0952.06266-.13951.10115a.87067.87067,0,0,0-.11553.11678l-.00946.01234c.00771-.0411.01539-.08222.02338-.12336.00218-.01124-.0154-.01486-.01922-.00446-.04585.1249-.09192.24832-.13039.37581a2.78961,2.78961,0,0,0-.098.38008c-.00646.04274-.02461.09446.02173.12039a.97405.97405,0,0,0,.16393.05658.15054.15054,0,0,1,.09268.09124.09626.09626,0,0,0,.08362.0633.01928.01928,0,0,0,.013-.03467c-.03006-.01979-.0415-.06809-.05767-.09809a.1727.1727,0,0,0-.079-.07606.81038.81038,0,0,0-.14446-.04989l-.03545-.00674c-.004-.00643.01127-.035.01348-.041a.87726.87726,0,0,0,.02578-.08745l.03019-.12073.03568-.017c.04061-.01857.08171-.03581.12275-.05342a1.53959,1.53959,0,0,0,.17149-.0896,1.56355,1.56355,0,0,1-.00582.24364c-.00435.04187-.01244.083-.01889.12453a.74853.74853,0,0,1-.02848.13944c-.00353.00995.01145.01893.017.009.02265-.0402.04876-.07863.069-.12015a.61872.61872,0,0,0,.04365-.13712.798.798,0,0,0,.00879-.2934l-.00473-.01358.00137-.00081a1.18966,1.18966,0,0,0,.19909-.12964.2953.2953,0,0,0,.0702-.08828A.14518.14518,0,0,0,6.03486,4.24935Z" /><path d="M6.26214,3.29089a.38654.38654,0,0,0-.2254-.12633c-.00922-.00246-.01985.00828-.01194.0167a.75591.75591,0,0,0,.06484.06459c.02877.02407.06183.04273.089.06888a.21949.21949,0,0,1,.03388.04238.24154.24154,0,0,1-.00591.12693,2.08447,2.08447,0,0,0-.0332.23988c-.02308.169-.05438.33411-.09355.50015a.01064.01064,0,0,0,.01994.00742,2.423,2.423,0,0,0,.17613-.55308A.75521.75521,0,0,0,6.294,3.47514.21637.21637,0,0,0,6.26214,3.29089Z" /><path d="M5.77378,2.90716a.18524.18524,0,0,1-.081.03531A.31759.31759,0,0,1,5.58418,2.96a.19607.19607,0,0,1-.16028-.09465.00926.00926,0,0,0-.01693.0075.34924.34924,0,0,0,.05483.08886.23173.23173,0,0,0-.0136.10393L5.44491,3.0647a.33985.33985,0,0,0-.23965.02411.216.216,0,0,0-.07268.06341.21206.21206,0,0,0-.02568.088c-.00154.00729.01015.00976.01256.00291.01748-.04961.09409-.08565.14033-.099.05955-.01713.12224-.021.18264-.03571a.0958.0958,0,0,1-.04279.06973c-.01072.00463-.005.01906.00545.01849a.09066.09066,0,0,0,.09123-.06907.279.279,0,0,0,.01051-.07709c.00068-.01548.00316-.032.00452-.04829a.18379.18379,0,0,0,.07237.02248A.3494.3494,0,0,0,5.73194,2.999a.10069.10069,0,0,0,.07376-.07476A.01976.01976,0,0,0,5.77378,2.90716Z" /><path d="M5.989,2.209a.16276.16276,0,0,0-.05736-.09644.27558.27558,0,0,0-.127-.04547.86022.86022,0,0,0-.162.001.27961.27961,0,0,0-.15283.042.33473.33473,0,0,0-.15652.22873.54958.54958,0,0,0,.01557.15944l.0062.03519L5.33827,2.521c-.00587-.00574-.01993-.00485-.01963.00592a.07562.07562,0,0,0,.03092.06327l.01562.00945c.00385.02791.00732.05588.01062.08406.00114.00971.015.007.01466-.00232q-.00155-.03772-.00218-.07528a.06726.06726,0,0,0,.03849-.00766c.015-.008.01925-.036-.00124-.041-.01178-.00286-.0249-.006-.0378-.01005q0-.07128.00311-.14278a.1955.1955,0,0,1,.03363-.11894.41834.41834,0,0,1,.08544-.07145.521.521,0,0,1,.09723-.06469.36711.36711,0,0,1,.122-.01848.24508.24508,0,0,1,.23043.08659C5.96752,2.23158,5.9938,2.22735,5.989,2.209Z" /><path d="M6.11084,2.43381c-.00852-.02794-.0175-.05637-.02852-.0834a.69819.69819,0,0,0-.053-.09079.01046.01046,0,0,0-.0198.00584c.002.02718-.00049.05338.00355.08045a.60513.60513,0,0,0,.01945.07794.36516.36516,0,0,1,.02147.16191.337.337,0,0,1-.03187.09147.58846.58846,0,0,1-.05691.0735c-.03458.038-.08114.06571-.1003.11553a.24839.24839,0,0,0,.00224.14687.15887.15887,0,0,0,.07122.08784c.00963.00758.02035-.00779.011-.01549-.02951-.02421-.022-.09215-.02206-.12566a.16269.16269,0,0,1,.0074-.0689.18364.18364,0,0,1,.04789-.05277.38894.38894,0,0,0,.05184-.05736.2085.2085,0,0,0,.03127-.03188.34935.34935,0,0,0,.04515-.31509Z" /><path d="M5.47523,3.59154c.00069-.01094-.01666-.01626-.01966-.00456-.01831.07132-.05555.1654.00658.22556a.02341.02341,0,0,0,.04076-.0123C5.51724,3.73,5.47071,3.6631,5.47523,3.59154Z" /><path d="M5.73137,2.33355c-.049-.00868-.09466.02129-.14327.024-.03822.00215-.04139-.02031-.06474-.04213-.01431-.01337-.02162-.01019-.03956-.01385-.01285-.00262-.016.01671-.005.02144.00844.00362.00788.02765.01022.03616a.0831.0831,0,0,0,.02271.03934.12913.12913,0,0,0,.09392.02483.95446.95446,0,0,0,.11512-.027c.06621-.0118.0746.0471.079.09855a.01654.01654,0,0,0,.02955.00691C5.87916,2.43153,5.80228,2.34611,5.73137,2.33355Z" /><path d="M5.918,2.58559a.02916.02916,0,0,0-.03336-.008A.09086.09086,0,0,0,5.83059,2.62c-.0024.00517.00422.01177.00934.00879a.25044.25044,0,0,1,.02977-.0099.162.162,0,0,1-.00116.04926.116.116,0,0,1-.01876.04241.203.203,0,0,0-.021.04031.01927.01927,0,0,0,.02093.02558.06745.06745,0,0,0,.04838-.02611.175.175,0,0,0,.02778-.05075A.12332.12332,0,0,0,5.918,2.58559Z" /><path d="M5.69626,2.59308a.28569.28569,0,0,0-.04377-.0069.11056.11056,0,0,1-.04776-.00595.01041.01041,0,0,0-.012.017c.01731.01378.02573.03081.04839.03809a.071.071,0,0,0,.061-.00568A.01932.01932,0,0,0,5.69626,2.59308Z" /><path d="M4.205,2.4487a.144.144,0,0,1-.1079.03638.01041.01041,0,0,0-.00207.02071.20249.20249,0,0,0,.08859.00693.07158.07158,0,0,0,.05132-.0482A.01716.01716,0,0,0,4.205,2.4487Z" /><path d="M3.96024,2.50632c-.01023.00332-.01876.00979-.02938.01253A.08759.08759,0,0,1,3.89438,2.52a.01091.01091,0,0,0-.00487.021.14348.14348,0,0,0,.095.01336A.0262.0262,0,0,0,4,2.53291C4.00221,2.51052,3.97956,2.50006,3.96024,2.50632Z" /><path d="M3.93317,2.41747a.05039.05039,0,0,0-.06145-.01484.0541.0541,0,0,0-.03052.04221.01.01,0,0,0,.0162.00869l.00942-.00548.00433-.00064c-.00509.00052.00139.00087.00338.00107a.08836.08836,0,0,1,.0205.00227.038.038,0,0,0,.03014.00153A.02436.02436,0,0,0,3.93317,2.41747Z" /><path d="M4.1835,2.357a.13.13,0,0,0-.1416.04168.014.014,0,0,0,.01692.02068c.01887-.00647.03565-.01766.05508-.02319A.22023.22023,0,0,1,4.17678,2.386C4.19239,2.38622,4.2013,2.3613,4.1835,2.357Z" /><path d="M4.13277,2.71254a.10424.10424,0,0,1-.03277.014.05076.05076,0,0,1-.038.005c-.01156-.00548-.01845.01318-.00694.01865a.10112.10112,0,0,0,.05448.01832.07672.07672,0,0,0,.05-.031C4.17341,2.72139,4.14857,2.69993,4.13277,2.71254Z" /><path d="M5.54914,2.83306c-.02942-.01167-.06056-.0192-.0899-.03132-.00446-.00184-.01074.00254-.0093.00761a.06921.06921,0,0,0,.03615.0467.07487.07487,0,0,0,.064.00777C5.56453,2.859,5.56157,2.838,5.54914,2.83306Z" /><path d="M6.52887,5.79422q-.0053-1.03388-.00516-2.06774c-.00033-.38835.01041-.77846-.0114-1.16627-.00137-.02435-.04114-.02287-.0425.00121-.01955.34624-.01084.69418-.01114,1.0409L6.45777,4.63585c-.00059.68891-.00688,1.37779-.00518,2.06671q.00072.29009.00313.58015c.00082.09532.00065.19071.003.286a1.28341,1.28341,0,0,0,.02329.2904c.002.0079.01525.01173.01782.00178a1.06954,1.06954,0,0,0,.02273-.24378c.00213-.08671.00267-.17343.00342-.26016.0015-.17356.003-.3471.0034-.52067C6.53023,6.48892,6.53065,6.14158,6.52887,5.79422Z" /></svg>