<svg xmlns="http://www.w3.org/2000/svg" version="1.1" viewBox="6.18591957766875 6.195350000000017 87.61240122024381 87.60608434415975">
 <path d="m17.73 21.82c-2.5703 0.050782-4.8281-1.9688-4.7188-4.6484 0.070312-1.6602 3.0703-2.1289 2.9219 0.039063-0.10938 1.5508 1.75 2.0703 2.8711 1.4219 1.4414-0.82031 0.57812-3.3516-1.0703-3.2383-1.9219-0.03125-1.9219-2.8906 0-2.9219 6.1758 0.15625 6.3164 9.3477-0.003906 9.3477zm55.07 9.0312c4.7305 3.8281 12.84-2.2891 7.8281-8.0391-4.7695-5.4688-11.602-7.9219-17.078-3.3398-5.6484-3.9609-14.629 0.41016-10.191 8.2109 0.96094 1.6484 3.4805 0.17969 2.5195-1.4688-3.0781-4.6211 3.3789-7.1484 6.5898-3.7812 0.53906 0.64844 1.6016 0.66016 2.1797 0.03125 4.2188-4.5195 9.75-2.2617 13.762 2.25 2.7695 2.8984-2.1797 6.4414-4.7109 2.9219-0.57812-0.85938-1.9805-0.78906-2.4609 0.12891-1.0586 1.8711-1.8203 3.2305-4.0781 3.8086-1.6484 0.41016-1.3086 2.8906 0.35938 2.8711 2.6016-0.41406 4.2812-2.0547 5.2812-3.5938zm-63.039-14.43h-1.4102c-1.9102 0.011719-1.9102 2.9102 0 2.9219h1.4102c1.9102-0.015625 1.9102-2.9141 0-2.9219zm16.938 0h-1.4102c-1.9102 0.011719-1.9102 2.9102 0 2.9219h1.4102c1.9102-0.015625 1.9102-2.9141 0-2.9219zm-13.301 26.93c-1.6719-1.8008-1.7305-3.5195-0.19141-5.1094 2.6602-2.75 8.6406-3.7305 11.84-0.96094 0.53125 0.46094 1.7383 0.55078 2.25-0.42969 0.89844-1.7305 3.3711-2.0586 5.2383-1.3789 0.94922 0.35156 3.0898 1.4688 2.4219 4.4219-0.41016 1.8594 2.4219 2.5 2.8516 0.64062 1.8008-6.8711-7.3984-10.98-12.129-6.3789-4.5781-2.7383-11.281-1.3516-14.57 2.0586-2.6211 2.7109-2.5586 6.1992 0.14844 9.1289 0.28906 0.30859 0.67969 0.46875 1.0703 0.46875 1.2031-0.16406 1.9531-1.5742 1.0703-2.4609zm22.902 12.18 20.539-20.289 10.852 8.4883c0.28906 0.23047 0.66016 0.33984 1.0312 0.30078l9.9414-0.92188s13.039 6.3984 13.039 6.3984c1.7188 0.83984 2.9883-1.7812 1.2891-2.6211l-13.41-6.5781c-0.23828-0.12109-0.51172-0.17188-0.78125-0.14062l-9.7695 0.89844-11.398-8.9297c-0.57812-0.44922-1.3984-0.41016-1.9297 0.10938l-21.461 21.199c-0.94141 0.87109-0.21875 2.5391 1.0312 2.5 0.36719 0.003907 0.73828-0.13672 1.0273-0.41406zm-28.039-1.2031 19.148-8.9805 5.9805 2.7305c1.4883 0.67969 3.1406-1.7812 1.2109-2.6602l-6.6016-3.0117c-0.39062-0.17969-0.83984-0.17969-1.2305 0.011719 0 0-19.77 9.2617-19.762 9.2617-1.4102 0.60937-0.87109 2.8281 0.62109 2.7812 0.22266 0.007812 0.42969-0.03125 0.63281-0.13281zm29.738 5.1602h-30.352c-1.9297 0.03125-1.9102 2.8906 0 2.9219h30.352c1.9219-0.03125 1.9102-2.8906 0-2.9219zm16.23 0h-8.4688c-1.9609 0-1.9102 2.9219 0 2.9219h8.4688c1.918-0.03125 1.918-2.8906 0-2.9219zm12.711 0h-4.9414c-1.8711 0-1.9688 2.9219 0 2.9219h4.9414c1.918-0.03125 1.918-2.8906 0-2.9219zm-42.531 26.523c1.9414-0.19922 2.4492-3.0195 0.75-3.9219l22.148-1.2383c2.5781-0.050781 3.7188-3.6016 1.6602-5.1484-0.46094-0.28125-0.98828-0.71875-1.1719-1.0117 0.011719-0.019531 20.469-1.6719 20.48-1.6797 2.2891-0.10156 3.0508-3.3906 1.0586-4.5-0.30859-0.17969-0.62891-0.35938-1.0195-0.57812l12.09-0.53906c1.9297-0.12109 1.7695-2.9805-0.12891-2.9219l-13.672 0.60938c-0.14062 0.011719-0.28125 0.03125-0.41016 0.078125-3.2812 1.2305-1.9609 3.8906 0.26953 5.0586l-19.031 1.5586c-4.1211 0.94141-2.8594 4.6719-0.37109 6.1484l-25.891 1.4492c-2.6406 0.60938-2.6094 3.1602-0.60156 4.0703l-13.07 1.2891c-1.8203 0.17969-1.6719 2.9219 0.14062 2.9102 0.19922 0.015625 16.578-1.625 16.77-1.6328zm-0.58203-1.3398zm44.012-13.66s-0.011719 0 0 0c-0.011719 0 0 0 0 0zm24.582-4.1523c1.9297-0.12109 1.7812-2.9805-0.12891-2.9219l-3.8789 0.17188c-1.8711 0.089844-1.8008 2.9219 0.058594 2.9219 0.078125 0.007812 3.8555-0.17188 3.9492-0.17188zm-3.6016 10.152h-0.71094c-1.9102 0.011719-1.9102 2.9102 0 2.9219h0.71094c1.9102-0.011719 1.9102-2.9141 0-2.9219zm-6.3516 0h-4.2383c-1.9219 0.03125-1.9219 2.8906 0 2.9219h4.2383c1.9219-0.035156 1.9219-2.8945 0-2.9219zm-10.59 0h-10.59c-1.9219 0.03125-1.9219 2.8906 0 2.9219h10.59c1.9219-0.035156 1.9219-2.8945 0-2.9219zm-52.457-50.391v-1.4102c-0.011719-1.9102-2.9102-1.9102-2.9219 0v1.4102c0.011719 1.9102 2.9219 1.9102 2.9219 0zm34.867 64.238h-2.1211c-0.80859 0-1.4688 0.64844-1.4688 1.4609 0.078125 1.9414 2.3086 1.3906 3.5898 1.4609 1.9219-0.011719 1.9219-2.9102 0-2.9219zm-9.9102 0h-0.71094c-1.9219 0.011719-1.9219 2.9102 0 2.9219h0.71094c1.9102-0.011719 1.9102-2.9102 0-2.9219zm-9.918 0h-10.621c-1.9297 0.03125-1.9219 2.8906 0 2.9219h10.621c1.9297-0.03125 1.918-2.8906 0-2.9219zm-15.09-81.82v-1.4102c-0.011719-1.9102-2.9219-1.9102-2.9297 0v1.4102c0.007813 1.9102 2.918 1.9102 2.9297 0z" />
<text x="0.0" y="117.5" font-size="5.0" font-weight="bold" font-family="Arbeit Regular, Helvetica, Arial-Unicode, Arial, Sans-serif" fill="#000000">Created by H Alberto Gongora</text><text x="0.0" y="122.5" font-size="5.0" font-weight="bold" font-family="Arbeit Regular, Helvetica, Arial-Unicode, Arial, Sans-serif" fill="#000000">from Noun Project</text></svg>