<svg xmlns="http://www.w3.org/2000/svg" data-name="Layer 1" viewBox="1.4787892183304918 2.9928530948640333 7.04240261075396 4.011882283983571" x="0px" y="0px"><title>KAMASUTRA</title><path d="M7.26941,5.32606c-.01939.04462-.041.088-.05757.13389a.08723.08723,0,0,1-.03071.04663c-.01715.013-.03534.02408-.05194.038a.43717.43717,0,0,0-.08033.08733c-.021.0305-.04848.06943-.03718.1082.00372.01278.018.026.03245.01767.0363-.02094.049-.06338.07267-.09607a.39881.39881,0,0,1,.087-.08872.14586.14586,0,0,0,.06642-.09011c.01191-.04983.01593-.10074.02326-.15119C7.29563,5.31711,7.27486,5.31351,7.26941,5.32606Z" /><path d="M2.59982,4.83541c-.032.03052-.06192.06457-.09647.09224a.17429.17429,0,0,1-.11624.04065C2.301,4.96893,2.255,4.87538,2.194,4.82791a1.81583,1.81583,0,0,0-.45979-.18531.39164.39164,0,0,1-.19974-.1597c-.00692-.01157-.0272-.00832-.0244.00719.03271.181.23657.2526.38913.29932a.70311.70311,0,0,1,.25562.11741c.03567.03.06282.06878.09826.09922a.18594.18594,0,0,0,.13272.04663.24709.24709,0,0,0,.13881-.06862.43756.43756,0,0,0,.09754-.13264C2.62866,4.83886,2.60971,4.826,2.59982,4.83541Z" /><path d="M2.72208,4.29058a.134.134,0,0,1-.10427-.06392.40756.40756,0,0,0-.0658-.09934.59819.59819,0,0,0-.19534-.10852.38846.38846,0,0,1-.18542-.13463.79594.79594,0,0,1-.08273-.24965c-.00345-.013-.02583-.01525-.02576.00074a.64712.64712,0,0,0,.05864.27955.3629.3629,0,0,0,.19388.16673.46582.46582,0,0,1,.20507.123c.0292.04058.04078.08924.087.1157a.11722.11722,0,0,0,.12468.00339C2.74708,4.31358,2.736,4.29359,2.72208,4.29058Z" /><path d="M3.7322,3.90018c-.23965-.02653-.48265-.02255-.72341-.02694a1.31366,1.31366,0,0,1-.64253-.1415,1.95043,1.95043,0,0,1-.2686-.20139.01.01,0,0,0-.01477.01209.801.801,0,0,0,.48856.35425,1.52288,1.52288,0,0,0,.35885.04938c.12517.00444.25083.0047.37606.00317.14208-.00174.28528-.00225.4268-.01545C3.75268,3.932,3.75092,3.90225,3.7322,3.90018Z" /><path d="M4.45117,4.29659a.22817.22817,0,0,0-.15934-.03883c-.01417-.00659-.02883-.01253-.04225-.02041a.42024.42024,0,0,1-.06707-.04789L4.1176,4.13193c-.0058-.00517-.06359-.05039-.063-.05231.00288-.00991-.01038-.01833-.01675-.00885-.01483.022.0063.04453.01974.06222A.79958.79958,0,0,0,4.133,4.2265a.461.461,0,0,0,.04883.04162l-.002.00019-.03532.00375a.15837.15837,0,0,1-.02161-.01265.34269.34269,0,0,1-.04752-.05048.22.22,0,0,0-.1068-.07939c-.01268-.00334-.02512.01438-.01172.02218.04414.02569.06451.07674.0953.11515l.01334.01547-.06417.01a.0176.0176,0,0,0,.01281-.02468c-.01878-.05147-.077-.05822-.10117-.10374a.37414.37414,0,0,1-.01434-.16812c-.00078-.063-.0137-.12441-.01684-.18691a.10252.10252,0,0,1,.03378-.08356.96756.96756,0,0,0,.06614-.074.01032.01032,0,0,0-.0125-.01528c-.05611.03032-.1312.06431-.14647.13265a.37018.37018,0,0,0,.01062.14657L3.82,3.9201c-.05737.03929-.11334.08084-.17114.1195-.05351.0358-.1114.06572-.16286.10446a.22813.22813,0,0,0-.07514.09539.22515.22515,0,0,0-.13963-.05668A.63278.63278,0,0,0,3.11026,4.176a.52243.52243,0,0,0-.155.03732.69181.69181,0,0,0-.134.07885c-.00756.00527.00028.0179.00849.01381a.73078.73078,0,0,1,.286-.063.67945.67945,0,0,1,.14348.00887.46568.46568,0,0,0,.1384.02417l-.00411.01431a.57206.57206,0,0,1-.03292.09366c-.00177.00379-.017.03059-.03144.05271L3.29089,4.445a3.33409,3.33409,0,0,1-.59143.08163,1.78792,1.78792,0,0,1-.58239-.07707,2.2395,2.2395,0,0,0-.31163-.08286.74242.74242,0,0,0-.31232.00978c-.02181.0063-.01777.04136.00564.03687a.6107.6107,0,0,1,.28237.01182c.08982.02471.178.05455.26638.08431a1.87493,1.87493,0,0,0,.568.10719,5.10168,5.10168,0,0,0,1.15793-.18711c.10857-.02332.21763-.04474.32749-.06053.05579-.008.11181-.0151.1679-.02052a.42339.42339,0,0,1,.15362.00432A.03211.03211,0,0,0,4.45117,4.29659Zm-.56552.01664c-.083.01592-.16562.03406-.24808.05288a.292.292,0,0,0,.00149-.05622c-.00032-.00941-.01451-.00965-.0174-.00174a.31326.31326,0,0,1-.036.06379l-.00525.00731c-.062.01434-.124.02885-.18612.04289l.0077-.01046a.33673.33673,0,0,0,.04805-.09482.22271.22271,0,0,1,.04726-.10054A.31031.31031,0,0,1,3.582,4.16617a1.0162,1.0162,0,0,0,.0982-.05384.77068.77068,0,0,0,.16192-.13108.64991.64991,0,0,0,.01129.18973l.00252.00642c-.03582.00814-.07157.01971-.1064.03086-.01929.00618-.03869.01214-.05748.01972-.02054.00828-.03944.02157-.0603.0283-.01137.00366-.0057.02283.00594.02013.0196-.00454.04073-.0031.06064-.00584.02213-.003.04385-.00848.06558-.01356a1.14573,1.14573,0,0,0,.11869-.03232l.0036-.0017.01862.01584a.71555.71555,0,0,1,.07818.048.02067.02067,0,0,0,.01831.00551C3.96263,4.2988,3.92408,4.30586,3.88565,4.31323Z" /><path d="M4.56031,6.15414c-.06951-.063-.15059-.11183-.22346-.17095A1.48625,1.48625,0,0,1,4.14,5.79073a1.75347,1.75347,0,0,1-.16558-.23691A1.16967,1.16967,0,0,0,3.806,5.31644a.46373.46373,0,0,0-.11824-.08528.31318.31318,0,0,0-.14465-.035c-.01366-.00017-.02051.02-.00574.02477a.78915.78915,0,0,1,.37862.3949,1.625,1.625,0,0,0,.357.42216l.0286.02318-.04.00344A.98289.98289,0,0,0,4.064,6.098a.34236.34236,0,0,0-.14085.091.53411.53411,0,0,0-.054.06424c-.01754.02507-.02757.05425-.04472.07925-.00953.0139.01018.02689.02093.01482a.78506.78506,0,0,1,.06517-.05548c.01737-.01559.03456-.03124.05312-.04544a.35041.35041,0,0,1,.14267-.06594,1.58717,1.58717,0,0,1,.17585-.02363c.02978-.00288.05942-.00568.08911-.00938.01505-.00188.03173-.002.04731-.0048a.4863.4863,0,0,0,.12092.0509A.02256.02256,0,0,0,4.56031,6.15414Z" /><path d="M8.32353,6.47673a1.6074,1.6074,0,0,1-.17934.04363.76135.76135,0,0,1-.18788.00293,1.637,1.637,0,0,0-.17888-.02016.78176.78176,0,0,0-.083.006.79408.79408,0,0,1-.09252.0025c-.05728,0-.11358.0049-.171.00115a1.47545,1.47545,0,0,1-.16954-.0216,3.037,3.037,0,0,1-.33157-.08558,3.25069,3.25069,0,0,0-.67783-.15669,1.34254,1.34254,0,0,1-.35263-.06006c-.10244-.03671-.19913-.08716-.29927-.12939a.86659.86659,0,0,0-.27257-.07283l.03568-.01626a.88678.88678,0,0,0,.31516-.20021.70887.70887,0,0,0,.10592-.13884.15433.15433,0,0,1,.023-.04254A.21453.21453,0,0,1,5.846,5.55658a.733.733,0,0,0,.07575-.05314.21226.21226,0,0,0,.072-.16017.86109.86109,0,0,1,.0085-.18221c.00324-.01557-.02035-.02333-.02851-.01066-.05513.08565-.02859.19857-.0817.28467-.01405.02278-.03407.04054-.05018.06169-.017.0223-.03139.047-.04942.06826-.02057.02422-.04893.03725-.07064.06053-.021.02254-.03973.047-.06178.06866a1.1227,1.1227,0,0,1-.30071.19549,3.70378,3.70378,0,0,1-.34434.14283c-.0657.02406-.13109.0483-.19615.074-.06647.02628-.13312.054-.19966.07926a.01115.01115,0,0,0,.00623.02111c.0637-.015.12827-.02747.1921-.04346.06129-.01535.12211-.03072.18217-.05053q.0499-.01645.09935-.0343a.80735.80735,0,0,1,.14754-.01936.74657.74657,0,0,1,.30593.07015c.09884.04107.19366.09133.29353.13a1.17879,1.17879,0,0,0,.34341.06928,2.12722,2.12722,0,0,1,.352.0516c.11214.02762.22229.06253.33267.09636A2.05262,2.05262,0,0,0,7.54,6.5989a.40474.40474,0,0,0,.09591-.01241.6299.6299,0,0,1,.097-.02027.8658.8658,0,0,1,.20584.01705A.81034.81034,0,0,0,8.3422,6.54C8.37585,6.52555,8.36074,6.46679,8.32353,6.47673Z" /><path d="M5.50735,6.67359a.3607.3607,0,0,0-.32468-.02047c-.11685.03671-.22477.09657-.3418.13327a1.61,1.61,0,0,1-.35866.06547c-.06136.00474-.12287.00506-.18438.0045a1.58212,1.58212,0,0,1-.18267-.002c-.01124-.00141-.01607.0169-.00459.01979a1.64434,1.64434,0,0,0,.16967.04383,1.13223,1.13223,0,0,0,.18141.00934A1.47338,1.47338,0,0,0,4.814,6.87614c.11672-.0314.22485-.08125.33761-.1235a.61194.61194,0,0,1,.33837-.03249C5.51627,6.72529,5.52674,6.68777,5.50735,6.67359Z" /><path d="M8.46735,6.49846c-.00427.01494-.00913.02963-.01439.04415-.01709.00757-.03387.023-.04884.0311-.01549.00835-.04235.02216-.04847.03989l.00148.00887a.06058.06058,0,0,0,.05742.009c-.02474.0498-.05338.09776-.08249.14517a.31338.31338,0,0,1-.08248.10449.25739.25739,0,0,1-.12237.03559,1.30273,1.30273,0,0,1-.30478-.02081.57166.57166,0,0,0-.16748-.00812c-.051.00749-.1001.02569-.15174.02966a.36257.36257,0,0,1-.15865-.03523A.67668.67668,0,0,0,7.19435,6.839a2.285,2.285,0,0,0-.33228-.00628c-.21661.00255-.43361.0095-.65022.00743a1.89348,1.89348,0,0,1-.31023-.027A.89007.89007,0,0,1,5.61409,6.71c-.01281-.00711-.03107.00787-.01919.02057a.76013.76013,0,0,0,.51733.1909c.22318.01327.44857.00351.672.0019.11765-.00085.23672-.00739.35418.00062a.7339.7339,0,0,1,.16829.027.58448.58448,0,0,0,.15867.03588,1.02845,1.02845,0,0,0,.15605-.01742.622.622,0,0,1,.18058.00657,1.70688,1.70688,0,0,0,.32422.02867.342.342,0,0,0,.15395-.038.28992.28992,0,0,0,.11032-.11686.924.924,0,0,0,.13051-.339C8.52461,6.48032,8.47618,6.46756,8.46735,6.49846Z" /><path d="M6.90417,5.75835c-.08543.03128-.16877-.01823-.248-.04539a1.03729,1.03729,0,0,0-.2764-.05516,3.36671,3.36671,0,0,0-.574.06565c-.00911.00105-.01121.01594-.00184.01839a.7766.7766,0,0,0,.29086-.00006,1.37461,1.37461,0,0,1,.30658-.00753,1.21112,1.21112,0,0,1,.29229.06909c.07548.02739.17053.06025.23866.00074A.02722.02722,0,0,0,6.90417,5.75835Z" /><path d="M7.26828,5.19926a.353.353,0,0,1-.11791.08515,1.25968,1.25968,0,0,1-.13718.058,1.40214,1.40214,0,0,1-.30771.06949,2.02029,2.02029,0,0,1-.6235-.03925c-.01085-.00212-.01249.01325-.004.01746A1.13321,1.13321,0,0,0,6.738,5.479a1.43475,1.43475,0,0,0,.32143-.0855.39454.39454,0,0,0,.24579-.17476C7.31527,5.196,7.28256,5.18133,7.26828,5.19926Z" /><path d="M5.8808,5.16764a.01822.01822,0,0,0-.036.001c-.00412.04051-.04958.07884-.08041.10116a.788.788,0,0,0-.11242.08193.77827.77827,0,0,0-.07.11535A.2098.2098,0,0,1,5.4861,5.537a1.28564,1.28564,0,0,1-.29187.06553c-.06264.00989-.12628.01458-.18951.02151a.60536.60536,0,0,0-.02023-.10509c-.00942-.04477-.01974-.08939-.03-.134l-.00961-.04072a.9805.9805,0,0,0,.09535-.10865.43473.43473,0,0,0,.065-.10338.25261.25261,0,0,0,.09051-.05085.02669.02669,0,0,0-.02758-.04486.29125.29125,0,0,1-.21252.01894.16533.16533,0,0,1-.10538-.14462.13261.13261,0,0,1,.0312-.08864c.02584-.03438.05386-.06729.08029-.10124a1.02979,1.02979,0,0,0,.14264-.21237.28429.28429,0,0,1,.04508.03246.2311.2311,0,0,1,.04631.05616.23446.23446,0,0,0,.05083.07918.03347.03347,0,0,0,.05207-.02373.20836.20836,0,0,0-.082-.16855.42584.42584,0,0,0-.15934-.08683.7832.7832,0,0,0-.20155-.03068C4.81649,4.365,4.77722,4.364,4.738,4.36276a.72614.72614,0,0,1-.1221-.00591c-.01163-.00236-.01516.01573-.00459.01979a.99106.99106,0,0,0,.09707.03738.86708.86708,0,0,0,.09937.01861,1.41262,1.41262,0,0,1,.19892.03477.51894.51894,0,0,1,.05044.01779,1.31956,1.31956,0,0,0-.2014.2351.48685.48685,0,0,0-.06451.10444,2.14769,2.14769,0,0,0-.098-.22148.844.844,0,0,0-.17084-.24688c-.01369-.01214-.03023.00666-.02529.02069a1.62243,1.62243,0,0,0,.0731.15633c.02488.05214.04938.10451.0719.15773q.06581.15557.117.31666c.03421.10787.06269.21739.08964.32727q.02095.08542.04023.17124c.00648.02856.01342.057.02036.08544.00361.01481.00668.02951.01134.04354-.01577.00262-.03148.00556-.04709.009a.40677.40677,0,0,0-.14013.05593c-.006-.01772-.01179-.03547-.01887-.05267A.88112.88112,0,0,0,4.66708,5.559a1.22538,1.22538,0,0,0-.09-.146.52818.52818,0,0,0-.12294-.11476.34919.34919,0,0,1-.115-.11388,2.8862,2.8862,0,0,0-.1295-.29907.25949.25949,0,0,0-.06337-.06426.41427.41427,0,0,0,.0723-.05173c.02075-.01871.00741-.0634-.0245-.05468-.09868.027-.192.0699-.29279.09081a1.21062,1.21062,0,0,1-.2998.02043c-.20336-.00892-.40533-.05143-.60938-.04159a1.19566,1.19566,0,0,0-.16269.01826.66447.66447,0,0,0-.08014.02094c-.02805.009-.0531.02415-.08085.03305-.01424.00457-.00469.02577.0094.02125a.42577.42577,0,0,1,.0787-.01058c.02543-.003.051-.00459.07654-.00651a1.12255,1.12255,0,0,1,.15574.00012c.10028.00643.20035.018.3.03042L3.303,4.893a1.24627,1.24627,0,0,0-.02267.41121,2.22562,2.22562,0,0,0,.09359.478c.045.15123.09821.3002.134.45405a2.17952,2.17952,0,0,1,.03846.23875.3558.3558,0,0,0,.06789.18924.55762.55762,0,0,0,.35774.18664.01551.01551,0,0,0,.01043-.02789.99463.99463,0,0,1-.28728-.18681.32171.32171,0,0,1-.06031-.17517,1.83648,1.83648,0,0,0-.03553-.22759,7.54224,7.54224,0,0,1-.22614-.88363,1.95627,1.95627,0,0,1-.00929-.2631c.00193-.0617.00628-.12363.0069-.18544a1.72516,1.72516,0,0,0,.52884.0022,1.02557,1.02557,0,0,0,.15707-.04162.32433.32433,0,0,1,.0438.028.254.254,0,0,1,.07554.11.74657.74657,0,0,0,.13135.27108,1.38836,1.38836,0,0,0,.11514.09011.51115.51115,0,0,1,.10782.11772c.02857.0429.05233.08881.07674.13414a.67633.67633,0,0,0,.04234.07458c.01245.01736.02613.03393.0394.05087l-.01109.01251a.244.244,0,0,0-.01888.02658c-.00751.012-.011.02786-.01872.03915-.00815.012.01021.02506.0184.013A.19307.19307,0,0,1,4.719,5.78684a.56639.56639,0,0,1,.06025-.02777.6249.6249,0,0,1,.14269-.03848c.11276-.017.22656-.02006.339-.04072a.92649.92649,0,0,0,.27991-.08708.28509.28509,0,0,0,.098-.08543c.02706-.03947.03739-.08663.075-.11864.039-.03312.08726-.05366.12408-.08947A.1361.1361,0,0,0,5.8808,5.16764ZM5.03535,5.144c-.01534.01458-.03.03-.04465.04539-.022.023-.04481.04547-.0669.06854q-.01763-.06988-.03712-.13929l-.00509-.0178A.26473.26473,0,0,0,5.03535,5.144Z" /><path d="M5.85376,4.45728a.82817.82817,0,0,0-.33523-.44068.38.38,0,0,0-.2691-.09789.71487.71487,0,0,0,.01986-.12448.01007.01007,0,0,0-.02-.002.35347.35347,0,0,1-.04878.131c-.02534.00316-.05063.00734-.07587.01222l-.00436-.011c-.02185-.02621-.07564-.04191-.08375-.07914-.00364-.01672.01956-.02205.02873-.03473a.07682.07682,0,0,0,.01049-.04845A1.06029,1.06029,0,0,0,5.067,3.63836a.30428.30428,0,0,0-.03043-.1172.01224.01224,0,0,0-.02316.0037.71435.71435,0,0,0,.0072.13862q.00219.0407.001.08147a.27083.27083,0,0,1-.00282.05933c-.00866.03132-.0276.04628-.00875.08a.17412.17412,0,0,0,.06147.06212c-.05317.01152-.10621.024-.15933.03226a2.34491,2.34491,0,0,1-.39233.02558A.00921.00921,0,0,0,4.518,4.0226,1.85142,1.85142,0,0,0,5.1469,4.008a.56539.56539,0,0,1,.14993-.015.26709.26709,0,0,1,.13564.0532,1.52279,1.52279,0,0,1,.20417.18.81689.81689,0,0,1,.16787.24561A.026.026,0,0,0,5.85376,4.45728Z" /><path d="M5.93376,4.801a.96035.96035,0,0,0-.01565-.15389c-.01007-.0512-.02523-.10083-.03653-.15158a.01059.01059,0,0,0-.02091.00331,1.80585,1.80585,0,0,1,.00208.30419c-.00386.09766-.02455.19662-.01994.29406.00155.03274.04876.0322.05942.00594A.755.755,0,0,0,5.93376,4.801Z" /><path d="M4.93355,3.5573a.68723.68723,0,0,0-.06387.08694.39071.39071,0,0,0-.05044.08883c-.01041.03248-.00374.0661-.01168.0986a.254.254,0,0,1-.04774.07673c-.01148.01678.00694.04356.02678.03273a.18231.18231,0,0,0,.0669-.05767.15928.15928,0,0,0,.02108-.0974c-.00175-.07871.05489-.14546.07724-.2191A.01046.01046,0,0,0,4.93355,3.5573Z" /><path d="M6.105,4.67773a.54643.54643,0,0,0,.05883-.27294,1.46519,1.46519,0,0,0-.225-.47747A1.27827,1.27827,0,0,1,5.864,3.628a.95866.95866,0,0,0-.10061-.27559.68841.68841,0,0,0-.44374-.34639.46706.46706,0,0,0-.48477.175l-.031-.01583a.805.805,0,0,0-.42871-.04773.382.382,0,0,0-.31344.23293.43891.43891,0,0,0,.03059.37924.65744.65744,0,0,0,.1498.16876.2323.2323,0,0,1,.05622.08684.10126.10126,0,0,0,.0594.05833c.01787.00669.02771-.01652.01474-.0279A.14355.14355,0,0,1,4.344,3.9464a.20057.20057,0,0,0-.03031-.06905l-.00519-.00676c.0367-.08619.11-.116.19117-.15373a.29682.29682,0,0,0,.10314-.0699.32419.32419,0,0,0,.05464-.10059A.01059.01059,0,0,0,4.63759,3.539c-.017.04573-.06295.06233-.10443.08051-.04564.02-.09343.03531-.13843.05665a.26211.26211,0,0,0-.14427.13745.44188.44188,0,0,1-.05821-.05722.43058.43058,0,0,1-.04262-.06508c.005-.01816.00816-.0374.01313-.05277A.54851.54851,0,0,1,4.209,3.53436a.33438.33438,0,0,1,.14261-.141.44934.44934,0,0,1,.23472-.02511.33933.33933,0,0,1,.11778.02909.22107.22107,0,0,1,.042.02821.19172.19172,0,0,1,.04314.03859.00956.00956,0,0,0,.01747-.00773.19351.19351,0,0,0-.016-.05115.17741.17741,0,0,0-.04043-.04389.31312.31312,0,0,0-.12636-.057.51157.51157,0,0,0-.28946.003.37092.37092,0,0,0-.18712.16342.44079.44079,0,0,0-.03987.09631.33392.33392,0,0,1,.0051-.1336.311.311,0,0,1,.22405-.22643.652.652,0,0,1,.18287-.01588A.78626.78626,0,0,1,4.706,3.215a.30552.30552,0,0,1,.2429.26594c.00164.03439.05259.02912.05745-.00164a.2399.2399,0,0,0,.002-.05884.32067.32067,0,0,0,.13362.04411c.02026.00247.04213.00315.06356.00564l-.00238.00446c-.0058.01.00889.02053.01475.01044.0062-.01065.03422-.00434.0427.00093.02107.01308.02113.04468.01921.06641a.539.539,0,0,1-.03941.15183c-.00514.01282.01261.02718.0231.01651a.29662.29662,0,0,0,.07154-.11905l.00367.02234a1.1121,1.1121,0,0,0,.02458.16967.28872.28872,0,0,0,.07094.11917.90582.90582,0,0,0,.22179.148.46063.46063,0,0,1,.2192.25628c.00535.01593.032.008.02831-.00835a.49357.49357,0,0,0-.14434-.25636,2.154,2.154,0,0,0-.227-.15834.26137.26137,0,0,1-.08308-.09257.51064.51064,0,0,1-.03239-.16815.24.24,0,0,0-.15223-.22682c-.05735-.01577-.11813-.00739-.17509-.02362a.4198.4198,0,0,1-.103-.04414l-.01058-.02074a.65455.65455,0,0,0,.11488.0129.62734.62734,0,0,1,.26754.03826.38346.38346,0,0,1,.15806.2334c.01778.05368.03382.10786.05491.16038a.43258.43258,0,0,0,.03469.07306c.01515.02364.03585.042.05122.06547.00541.00828.02019-.00068.015-.0092a.306.306,0,0,1-.02593-.08549c-.0074-.02728-.01495-.05426-.0208-.08194-.01161-.05488-.02211-.11008-.03869-.16375a.44766.44766,0,0,0-.16459-.24974.51221.51221,0,0,0-.2779-.0612.95676.95676,0,0,1-.14168-.01009.64549.64549,0,0,1-.11027-.03533.4671.4671,0,0,1,.39875-.11108.59633.59633,0,0,1,.39919.31953.92958.92958,0,0,1,.08748.2628,1.14519,1.14519,0,0,0,.07165.28054,1.96942,1.96942,0,0,1,.22481.43917.93829.93829,0,0,1-.0296.29373.58059.58059,0,0,0-.00234.276c.00306.00862.01815.00433.01556-.00459a.31618.31618,0,0,1-.00706-.14112A.57331.57331,0,0,1,6.105,4.67773Z" /><path d="M4.64663,3.86734a.06145.06145,0,0,0-.04987-.02891.0682.0682,0,0,0-.06016.03693c-.02316.045.00927.11086.06406.10013A.01749.01749,0,0,0,4.608,3.94429c-.01187-.0077-.03141-.03154-.0222-.04694.00657-.011.03586-.02289.0475-.01567C4.64239,3.88735,4.65416,3.87624,4.64663,3.86734Z" /><path d="M4.27889,4.01888a.52387.52387,0,0,0-.12084-.1431l-.01269-.00433a.26257.26257,0,0,0-.05063-.08673.01582.01582,0,0,0-.02658.01634.77487.77487,0,0,1,.02778.11058,1.03015,1.03015,0,0,0,.01269.10974c.018.06855.10152.10105.15007.14484.008.00722.02-.00589.01291-.01385-.02586-.029-.0466-.06248-.07047-.09311a.13823.13823,0,0,1-.0363-.08735l-.00072-.01065c.03287.02476.06983.044.10164.0717C4.2742,4.04033,4.28555,4.0272,4.27889,4.01888Z" /></svg>