<svg xmlns="http://www.w3.org/2000/svg" data-name="Layer 1" viewBox="2.354793591592573 1.9065226430661046 5.292475854069048 6.188196430861382" x="0px" y="0px"><title>KAMASUTRA</title><path d="M4.81414,7.27582a.02386.02386,0,0,0-.02407.03322c.03589.064.068.11972.024.19039-.03979.06387-.09528.11556-.13323.1813a.99822.99822,0,0,0-.08311.208.38271.38271,0,0,1-.05076.11294c-.01968.02734-.05728.0712-.095.0698-.01271-.00047-.01485.019-.002.01979a.16915.16915,0,0,0,.11595-.0177.21088.21088,0,0,0,.07676-.09017c.02394-.0482.03606-.10064.05543-.15061a.71142.71142,0,0,1,.06925-.13377c.04993-.07588.13129-.13835.15118-.23059A.15813.15813,0,0,0,4.81414,7.27582Z" /><path d="M5.99684,5.34019a.35742.35742,0,0,0-.237.09053,1.59553,1.59553,0,0,1-.2187.1516.51731.51731,0,0,1-.26873.0525A.79855.79855,0,0,1,5.137,5.6144c-.02383-.00574-.04976-.01664-.07559-.02295a.87829.87829,0,0,1,.0889-.19281,1.06516,1.06516,0,0,0,.1443-.50432c-.00094-.03487-.05644-.05744-.06673-.01548a2.10659,2.10659,0,0,1-.13959.45079,1.49289,1.49289,0,0,0-.10328.21009.55366.55366,0,0,0-.01785.22611c.01693.15711.07662.30591.08723.4642a1.05,1.05,0,0,1-.0858.4766,1.28,1.28,0,0,0-.14407.47854c-.00015.01407.02138.02171.02588.006a3.10294,3.10294,0,0,1,.18033-.41285l.01822.07309c.01695.07064.03642.14094.05836.2102.02188.06907.04827.13612.0763.20289.02864.06822.05365.14.087.206.01161.02294.0534.0215.05366-.00858a.53373.53373,0,0,0-.05209-.20377c-.02857-.06872-.05757-.13688-.08085-.20766-.02408-.07322-.04459-.14759-.069-.22069a1.339,1.339,0,0,0-.05251-.14662,1.03737,1.03737,0,0,0,.05165-.59172c.01969.0825.03576.16583.04727.24993.00792.05787.01344.11609.016.17445a.75615.75615,0,0,0,.01032.16641c.02571.094.15186.13929.12964.2443-.00642.03034.03362.04541.05473.02936a.10938.10938,0,0,0,.0252-.12757A.398.398,0,0,0,5.313,6.70712a.24668.24668,0,0,1-.03594-.17q-.00268-.09349-.01446-.18635a2.34047,2.34047,0,0,0-.08034-.368,1.46285,1.46285,0,0,0-.06511-.17709C5.09779,5.762,5.074,5.72029,5.0505,5.67851l.00126-.025a.477.477,0,0,0,.04692.02557.46544.46544,0,0,0,.138.04323.64983.64983,0,0,0,.29549-.02781.84976.84976,0,0,0,.24839-.14579c.03783-.02871.0771-.05586.114-.08576.03648-.0296.079-.05536.113-.08726A.02032.02032,0,0,0,5.99684,5.34019Z" /><path d="M5.41818,7.22591c-.00474-.06418-.014-.12811-.019-.19239-.002-.02655-.03877-.0258-.0479-.00479a.26375.26375,0,0,0,.0018.16118c.01108.05359.03918.13012.01447.18242-.00257.00545.00619.0101.00938.005A.22678.22678,0,0,0,5.41818,7.22591Z" /><path d="M3.09071,4.30863a2.1562,2.1562,0,0,0-.1753-.1527A1.35767,1.35767,0,0,1,2.75,3.974a1.64236,1.64236,0,0,1-.136-.19829,1.10308,1.10308,0,0,1-.11187-.2279c-.00426-.01492-.0283-.01148-.02419.00382a1.74785,1.74785,0,0,0,.06718.24049,1.11815,1.11815,0,0,0,.12816.228,1.29637,1.29637,0,0,0,.17443.18711.55331.55331,0,0,0,.21663.13824C3.085,4.35119,3.1077,4.32736,3.09071,4.30863Z" /><path d="M2.68884,4.33878c-.05527-.00954-.13941.00264-.16378-.06288a.27109.27109,0,0,1-.0027-.10806.38871.38871,0,0,0-.00684-.10746,1.39925,1.39925,0,0,0-.08179-.211.29862.29862,0,0,1-.00311-.22033.01165.01165,0,0,0-.01815-.013.22593.22593,0,0,0-.04709.21913,1.858,1.858,0,0,1,.07449.28436c.002.0827-.0259.17339.03844.24108a.19722.19722,0,0,0,.22.03746A.03135.03135,0,0,0,2.68884,4.33878Z" /><path d="M7.14349,4.167a3.02925,3.02925,0,0,1-.12621.28492,2.08025,2.08025,0,0,1-.1632.25831,1.78452,1.78452,0,0,1-.45444.41261,2.23275,2.23275,0,0,1-.31578.16554.00907.00907,0,0,0,.00507.01717A1.41625,1.41625,0,0,0,7.08883,4.531a1.00564,1.00564,0,0,0,.10851-.35154A.028.028,0,0,0,7.14349,4.167Z" /><path d="M5.50028,4.34333a.82631.82631,0,0,0-.16591-.25906A.55722.55722,0,0,1,5.2492,3.9531.24864.24864,0,0,1,5.24434,3.796a.02432.02432,0,0,0-.03872-.022.23415.23415,0,0,0-.02483.26222,1.90121,1.90121,0,0,0,.19111.26089.51787.51787,0,0,1-.02942.53641.01549.01549,0,0,0,.02184.02135A.45987.45987,0,0,0,5.50028,4.34333Z" /><path d="M3.3324,4.26806a.27644.27644,0,0,0-.1394.11352.70506.70506,0,0,1-.10748.16909c-.01157.01074-.0003.03295.01534.02494a.36468.36468,0,0,0,.13231-.12519.806.806,0,0,0,.04995-.07708.1954.1954,0,0,1,.0632-.08266C3.35919,4.28194,3.34588,4.26254,3.3324,4.26806Z" /><path d="M5.10824,2.91408a.605.605,0,0,0-.1715.08313,1.54143,1.54143,0,0,0-.1497.13966q-.04881.046-.09959.08976c-.11165.04358-.22046.09493-.33109.14084-.12606.05232-.253.1024-.37917.15454a3.88657,3.88657,0,0,0-.68342.34442,1.18705,1.18705,0,0,0-.30086.28064.01161.01161,0,0,0,.01675.01562c.09872-.07342.19366-.14931.29786-.2152.10608-.06707.21151-.13543.32369-.19208.23235-.11733.478-.20677.71746-.30809.04467-.0189.08973-.03778.13446-.05755l-.04009.02912c-.11986.08563-.2483.15543-.37233.23433a.93138.93138,0,0,0-.14848.11882c-.04683.0221-.09473.04293-.1415.06395q-.11656.05238-.23419.10234a.643.643,0,0,0-.20359.10362.19554.19554,0,0,0-.0606.16112.01207.01207,0,0,0,.02382-.00068c.00422-.08507.07695-.11654.1456-.14692.06848-.0303.13839-.05753.20707-.08747.04713-.02055.09434-.04109.14121-.06231L3.79142,3.916c-.04231.05105-.08153.10437-.12623.15346a.92038.92038,0,0,1-.07748.07563.48541.48541,0,0,1-.087.072c-.00845.00432-.00274.01756.006.01357.02607-.0119.05407-.01734.07987-.03031a.45944.45944,0,0,0,.07135-.04644,1.18258,1.18258,0,0,0,.13151-.12044,2.60254,2.60254,0,0,1,.25938-.26265c.11582-.08988.25155-.15338.3732-.23519a3.1261,3.1261,0,0,0,.35036-.274c.05785-.05224.1128-.10728.16795-.16232a.59354.59354,0,0,1,.18345-.15023C5.14714,2.93932,5.13109,2.90724,5.10824,2.91408Z" /><path d="M3.34338,4.40141a.697.697,0,0,0-.10627.12724.38145.38145,0,0,0-.06846.13357c-.00242.01194.01256.01653.02068.0111a.491.491,0,0,0,.09984-.1078,1.17639,1.17639,0,0,0,.09427-.12673C3.39856,4.4135,3.36813,4.37946,3.34338,4.40141Z" /><path d="M5.09621,3.34484c-.143-.01844-.24538.11378-.34781.19237a4.09346,4.09346,0,0,1-.37418.2281,1.18,1.18,0,0,0-.32148.28387.861.861,0,0,1-.15419.16147.88457.88457,0,0,1-.21656.102.66717.66717,0,0,0-.21505.12859.59808.59808,0,0,0-.0849.09662c-.02585.037-.04247.07885-.06957.11486-.008.0106.00823.02158.01661.01176a.93367.93367,0,0,1,.08615-.07663c.02924-.02681.0584-.05373.08825-.07987a.652.652,0,0,1,.18982-.116,1.49446,1.49446,0,0,0,.20646-.088.67524.67524,0,0,0,.1581-.13583,1.64877,1.64877,0,0,1,.29976-.28944c.05319-.03575.10867-.06775.16446-.09924a.26354.26354,0,0,0,.03421.06808.26777.26777,0,0,0,.1131.09164.705.705,0,0,1-.01555.45218c-.056.14491-.13511.283-.20528.42167-.119-.03177-.23834-.06246-.35712-.09546-.09957-.02767-.19966-.05393-.29882-.083-.047-.01378-.09327-.02915-.13936-.04561-.02157-.00771-.04284-.01581-.06385-.025a.62743.62743,0,0,1-.079-.03022c-.00828-.00539-.02027.00572-.01251.01342.01638.01624.02442.03734.04164.05331A.45431.45431,0,0,0,3.6,4.64585a.6768.6768,0,0,0,.12079.0611,3.22629,3.22629,0,0,0,.31224.09591c.22495.064.44753.13509.67451.19179l-.01164.05377c-.021.10156-.0416.2038-.05618.30652a1.57051,1.57051,0,0,0-.01592.15994c-.00026.00677-.00027.01333-.00007.01973-.05842-.01877-.12134-.02856-.17948-.04676a1.87117,1.87117,0,0,1-.21215-.081,2.025,2.025,0,0,1-.38825-.22026c-.05992-.0453-.11381-.0986-.175-.14212a.40486.40486,0,0,0-.20562-.07221A.53168.53168,0,0,1,3.24224,4.927a.58247.58247,0,0,1-.15654-.13681A1.55781,1.55781,0,0,0,2.771,4.42209a.01184.01184,0,0,0-.01593.01708c.08983.1243.156.26272.24363.388a.5209.5209,0,0,0,.34178.23545.64326.64326,0,0,1,.24031.04632,1.576,1.576,0,0,1,.17545.14,1.84476,1.84476,0,0,0,.39773.24591,1.63628,1.63628,0,0,0,.2417.08294l.03476.00935a.374.374,0,0,0,.02747.0657c.02549.04519.05724.086.08663.12856a.64457.64457,0,0,1,.07368.14271c.017.04607.02874.09374.0489.13844l-.0035.10509c-.00486.14712-.01685.29385-.03483.43993-.0359.29163-.088.58118-.136.871a3.39675,3.39675,0,0,0-.06825.50075c-.00047.03466.05045.05188.06274.01455a3.14488,3.14488,0,0,0,.08909-.44037c.02627-.14954.05075-.29942.0758-.44918a5.885,5.885,0,0,0,.10218-.89492,1.40614,1.40614,0,0,0-.05918-.481.01233.01233,0,0,0-.02338.00374c-.00211.03217-.00248.06435-.00237.09654A.753.753,0,0,0,4.623,5.75283c-.0341-.04926-.07492-.0933-.10947-.1422l-.00225-.00341a.5222.5222,0,0,0,.12811.01385l.01206.03728c.00889.02644.04341.01392.048-.00767a1.046,1.046,0,0,0,.02568-.14984c.00345-.05086.00982-.1014.01718-.15183.015-.10284.0339-.205.04937-.30781.03155-.20959.0459-.42078.076-.63054.0019-.01323-.01757-.01453-.02025-.002-.03478.16238-.0782.32241-.11657.48381-.06787-.02054-.13607-.03973-.20442-.05837.05057-.10161.10162-.203.15138-.305a.93869.93869,0,0,0,.10368-.31541.76857.76857,0,0,0-.00126-.16.464.464,0,0,0-.03829-.1629c-.01191-.02145-.03255-.02393-.05295-.03385a.23486.23486,0,0,1-.0555-.039A.31635.31635,0,0,1,4.58533,3.761l-.00752-.013c.04857-.02742.09691-.05522.14374-.08554A1.29646,1.29646,0,0,0,4.903,3.51872a.5039.5039,0,0,1,.19448-.12956A.02246.02246,0,0,0,5.09621,3.34484Z" /><path d="M3.18084,4.14674a.08779.08779,0,0,0-.06559.01588.1123.1123,0,0,0-.04035.055.0096.0096,0,0,0,.01273.012c.02038-.008.09052-.04294.0914,0,.00058.02825.03957.05229.058.02168A.07349.07349,0,0,0,3.18084,4.14674Z" /><path d="M6.38506,4.15616a1.11691,1.11691,0,0,1-.16831-.095.67736.67736,0,0,1-.12106-.14035,1.58,1.58,0,0,0-.253-.27467,1.80186,1.80186,0,0,1-.26837-.269,1.44794,1.44794,0,0,1-.1529-.25734.28448.28448,0,0,0-.01371-.116.1438.1438,0,0,0-.15172-.1072.03331.03331,0,0,0-.01389.0594.17127.17127,0,0,1,.08269.13624A.97791.97791,0,0,1,5.299,3.3c-.012.07019-.0228.14057-.03758.21024q-.01257.0592-.02729.11792c-.00907.03616-.01365.07445-.02415.11a.00788.00788,0,0,0,.01477.00549c.01724-.04183.03945-.08114.05582-.12369q.02426-.06306.04608-.127a2.549,2.549,0,0,0,.07552-.25847l.00025-.00111a1.20347,1.20347,0,0,0,.28288.39236,3.08271,3.08271,0,0,1,.26308.263A1.2091,1.2091,0,0,0,6.187,4.1642a.681.681,0,0,0,.06615.03744.58751.58751,0,0,0-.12862.12025.69345.69345,0,0,0-.07553.11,1.1983,1.1983,0,0,0-.05243.13055c-.02153.05212-.08393.05584-.13.07573-.04474.01933-.09023.03681-.135.0561a1.227,1.227,0,0,0-.1314.06314.82649.82649,0,0,0-.11095.09243c-.00565.00471.00009.015.007.01136a1.12365,1.12365,0,0,1,.13723-.04657c.04568-.01693.09143-.03359.13744-.04963a.68235.68235,0,0,0,.25563-.13249,1.48242,1.48242,0,0,0,.15107-.21586.90894.90894,0,0,1,.08855-.09979c.02349-.02347.051-.045.07387-.06972a.21864.21864,0,0,1,.13415.17162.03061.03061,0,0,0,.05852.00585A.23872.23872,0,0,0,6.38506,4.15616Z" /><path d="M7.15382,3.86917a.71059.71059,0,0,1-.18131-.03564.51516.51516,0,0,1-.08189-.04068c-.03182-.01784-.10409-.04109-.08627-.09228a.00953.00953,0,0,0-.01664-.00879c-.02454.03223-.031.05636-.00378.08971a.48469.48469,0,0,0,.08315.08386.28331.28331,0,0,1-.0669.057.38059.38059,0,0,1-.09636.02723,3.73392,3.73392,0,0,1-.37794-.31591,2.04949,2.04949,0,0,0-.35355-.31918c-.05834-.03365-.12-.06155-.18089-.09012A.53717.53717,0,0,1,5.626,3.12078c-.07981-.08454-.11864-.24788-.25234-.26224-.0229-.00246-.02517.03049-.00349.03489a.18592.18592,0,0,1,.11836.122.54181.54181,0,0,0,.08651.14709,1.05776,1.05776,0,0,0,.30967.20187,1.60671,1.60671,0,0,1,.33845.29426,3.88639,3.88639,0,0,0,.3567.30935c.01716.013.03458.02565.05211.038L6.635,4.0087l.00377.00207a1.387,1.387,0,0,1,.30781.25191c.01456.01819.04944.00492.04343-.01946a.43631.43631,0,0,0-.19727-.23144.14259.14259,0,0,0,.0988-.07373l.00006-.00019a.19351.19351,0,0,0,.02749-.04229.33762.33762,0,0,0,.12069.02568.1631.1631,0,0,0,.12376-.01987A.01842.01842,0,0,0,7.15382,3.86917Z" /><path d="M7.32613,3.20565a.38818.38818,0,0,0-.32116.0983c-.012.0131.00868.02861.02141.02a.396.396,0,0,1,.3529-.0152A.30785.30785,0,0,1,7.538,3.553a.44286.44286,0,0,1-.05722.27635.52385.52385,0,0,1-.0909.11456c-.03422.03288-.076.06053-.1074.09562a.02961.02961,0,0,0,.02113.04637.33152.33152,0,0,0,.23195-.1546A.56848.56848,0,0,0,7.6394,3.664.38631.38631,0,0,0,7.32613,3.20565Z" /><path d="M4.88162,2.16108a.35727.35727,0,0,0-.09741.17427L4.784,2.33663l-.00523-.00272L4.77414,2.331,4.77,2.3281l-.00717-.0078a.01329.01329,0,0,1-.00226-.01007.01553.01553,0,0,0-.02988-.00693.06866.06866,0,0,0-.00126.0537.05705.05705,0,0,0,.046.03406.35739.35739,0,0,0,.01209.14934A.01932.01932,0,0,0,4.823,2.53933c.037-.11634.00058-.26038.079-.36382C4.91194,2.16237,4.89216,2.14963,4.88162,2.16108Z" /><path d="M5.138,2.70239a.22268.22268,0,0,0-.07961.01744.59588.59588,0,0,1-.10268.02617.19065.19065,0,0,1-.09988-.00317C4.82,2.72736,4.814,2.662,4.814,2.62779c0-.01778-.0262-.02121-.028-.0028a.28793.28793,0,0,0,.00414.14449c.01913.04039.067.04606.10646.05167.08153.01157.226.00624.26054-.08811A.023.023,0,0,0,5.138,2.70239Z" /><path d="M5.29444,2.219a.48262.48262,0,0,0-.14706-.10555.322.322,0,0,0-.08754-.02559.266.266,0,0,0-.08709.00934c-.01444.00255-.01495.02625.00076.02656a.30474.30474,0,0,1,.14.05379.58049.58049,0,0,1,.10916.09126.28532.28532,0,0,1,.07987.25778c-.00654.03405.0482.05579.06505.02433A.28659.28659,0,0,0,5.29444,2.219Z" /><path d="M5.34792,1.99508a.41958.41958,0,0,0-.30265-.08133c-.23479-.04546-.47266.13478-.6749.22678-.2114.09617-.51714.1329-.58552.399a.01432.01432,0,0,0,.02683.01.41906.41906,0,0,1,.25354-.20265c.11533-.04571.23757-.07055.35014-.12381.11194-.053.21467-.12339.328-.17395l.04371-.0183c-.08452.06869-.155.15321-.24291.21991a.55812.55812,0,0,1-.24978.10545.55337.55337,0,0,0-.25341.08733c-.02876.02234.00094.07334.03418.0556.12952-.06915.28518-.05906.41275-.13189a1.86756,1.86756,0,0,0,.28868-.2686.39038.39038,0,0,1,.19036-.10223.46871.46871,0,0,1,.21557.018.37932.37932,0,0,1,.25766.30523.409.409,0,0,1-.03649.2266.90374.90374,0,0,1-.05829.1121.472.472,0,0,1-.07451.11062c-.00962.00839.00275.02365.0126.0154.03056-.02559.0682-.03919.09778-.066A.48064.48064,0,0,0,5.464,2.62209a.46863.46863,0,0,0-.11607-.627Z" /><path d="M4.61,2.35731a.37613.37613,0,0,1-.15589.11955.88684.88684,0,0,1-.11723.03425.64089.64089,0,0,1-.13279.02581c-.01707.00022-.0199.02687-.00267.02665.051-.00065.10094.01482.15251.0148a.40472.40472,0,0,0,.14124-.02412A.26828.26828,0,0,0,4.671,2.38952.03493.03493,0,0,0,4.61,2.35731Z" /><path d="M5.02542,2.39133a.11642.11642,0,0,1-.05961-.02406.02441.02441,0,0,0-.03212.00346.02514.02514,0,0,0-.00121.03227.09654.09654,0,0,0,.0946.04632A.02938.02938,0,0,0,5.02542,2.39133Z" /><path d="M7.353,3.73774c-.02225-.02282-.05551-.00521-.08091.001-.01018.00247-.01151.0196.00056.01972.00973.0001.04772-.003.04795.00882.00025.013-.02089.02769-.02957.03387a.21282.21282,0,0,1-.08586.02716.02123.02123,0,0,0-.00885.03785.112.112,0,0,0,.15353-.052C7.36177,3.79212,7.37344,3.75872,7.353,3.73774Z" /><path d="M6.90516,3.60746l-.031-.01765a.09007.09007,0,0,0-.02964-.01419c-.0048-.00683-.01643-.00182-.01658.00673-.01187.0167.00085.03927.01486.05175a.05435.05435,0,0,0,.05873.00928A.02091.02091,0,0,0,6.90516,3.60746Z" /><path d="M7.32589,3.42952a.15205.15205,0,0,0-.1477-.09619.01117.01117,0,0,0-.00214.02136c.04042.01076.05789.05967.07073.09547a.21249.21249,0,0,1,.01217.10215c-.00446.04706-.002.10342.04469.12733.01442.00739.026-.01318.01736-.02428-.02772-.03546.02333-.07827.03046-.114A.15905.15905,0,0,0,7.32589,3.42952Z" /><path d="M7.26812,3.93461a.07217.07217,0,0,1-.0235.0158.13251.13251,0,0,1-.03469.01735.011.011,0,0,0-.00407.01966.091.091,0,0,0,.07291.016.05236.05236,0,0,0,.041-.02234.0395.0395,0,0,0-.00328-.049A.031.031,0,0,0,7.26812,3.93461Z" /><path d="M7.49507,3.55045a.38172.38172,0,0,0-.05569-.10019.01065.01065,0,0,0-.01946.00861.22244.22244,0,0,1,.01014.10816.89326.89326,0,0,1-.03458.09393.14132.14132,0,0,0-.00441.08106c.009.03264.03385.06223.01729.09787-.00754.01624.01652.02719.02671.01411.02226-.02855.01212-.05146.0201-.085.00892-.0375.022-.07554.03209-.11306A.21078.21078,0,0,0,7.49507,3.55045Z" /><path d="M7.01321,3.46643a.14648.14648,0,0,1-.05749-.06678.0123.0123,0,0,0-.02329.00687.40758.40758,0,0,0,.00883.042c-.02458.0066-.04862.01508-.07378.02021a.1028.1028,0,0,0-.07113.03194l.00022.0062c.03965.04208.12083.01382.16475-.01943a.05176.05176,0,0,0,.038.01611A.02069.02069,0,0,0,7.01321,3.46643Z" /><path d="M7.10294,3.41425a.074.074,0,0,0-.04481-.0204.049.049,0,0,0-.043.01576L7.014,3.42028c.01261.02108.0426.01533.05826.03244.01728.01887.01458.04506.03836.05987.00861.00536.02369.00137.0236-.01075A.13.13,0,0,0,7.10294,3.41425Z" /><path d="M4.95034,2.60327c-.01684-.00478-.03485-.00818-.05129-.01391a.08574.08574,0,0,0-.05169-.00845.02144.02144,0,0,0-.01309.03435c.02738.03187.08342.02215.11657.00474C4.9572,2.61665,4.9585,2.60558,4.95034,2.60327Z" /></svg>