<svg xmlns="http://www.w3.org/2000/svg" viewBox="4.982440256633317 27.825000000000003 118.02026008472251 71.5" x="0px" y="0px"><g><path d="M10.877,34.517l.076.04.065-.057a1.126,1.126,0,0,0,.455-.817.8.8,0,0,0-.3-.6,1.41,1.41,0,0,0-.677-.322l-.186-.022c-.123.008-.238.022-.347.036a4.345,4.345,0,0,0-.457.063l-.083.014v-.024c.012-.287.023-.555.029-.8,0-.044.005-.088.006-.131s0-.089.008-.128a.667.667,0,0,0,0-.136c0-.018,0-.035,0-.061a.854.854,0,0,0-.306-.664c-.019-.017-.036-.032-.055-.052a.244.244,0,0,1-.03-.036l.025-.007a.532.532,0,0,1,.367.061.935.935,0,0,1,.44.591l.023.076a.872.872,0,0,1,.038.159l.027.183.016.048a.369.369,0,0,0,.07.126l.046.046.063-.01a.487.487,0,0,0,.092-.029l.064-.012c.072,0,.143,0,.219.011l.03,0a1.982,1.982,0,0,1,1.067.42,1.56,1.56,0,0,1,.616,1.3,1.787,1.787,0,0,1-.457,1.062l-.1.117.136.075c.388.211.769.423,1.15.642l.134.077.047-.148a1.606,1.606,0,0,1,.389-.658,1.56,1.56,0,0,1,1.068-.485,1.5,1.5,0,0,1,1.022.331.7.7,0,0,1,.1.095l.006.006.036.1.134.035.076-.054c.03-.029.061-.054.1-.084a2.947,2.947,0,0,1,.574-.4,1.484,1.484,0,0,1,1.02-.171.862.862,0,0,1,.473.242.336.336,0,0,1,.042.049.384.384,0,0,1-.081.013l-.081,0a1.514,1.514,0,0,0-.379.018,1.463,1.463,0,0,0-.718.32,2.747,2.747,0,0,0-.436.423c-.119.161-.245.322-.383.5l-.143.2c-.063.091-.129.185-.2.277l-.015-.029c-.079-.153-.158-.309-.239-.463l-.027-.052a1.276,1.276,0,0,0-.21-.334c-.031-.026-.045-.04-.055-.05a.159.159,0,0,0-.067-.048.765.765,0,0,0-.514-.143.893.893,0,0,0-.778.854l-.008.082.071.04c1.229.7,2.663,1.507,4.124,2.182.745.345,1.493.682,2.243,1.02l.99.447.058-.093a2.139,2.139,0,0,0,.336-.919.922.922,0,0,0-.3-.837.959.959,0,0,0-.368-.171,1.988,1.988,0,0,0-.211-.039l-.053,0a1.313,1.313,0,0,0-.227,0l-.548.058-.014,0c-.006-.092-.007-.182-.008-.269,0-.117,0-.23-.014-.334A.7.7,0,0,1,20,37.012a.565.565,0,0,0,.023-.145V36.6a1.249,1.249,0,0,0-.037-.278c-.009-.042-.018-.079-.02-.1,0-.05,0-.095,0-.134,0-.02,0-.041,0-.061a.846.846,0,0,1,.11.15,1.339,1.339,0,0,1,.167.363l.02.057a1.807,1.807,0,0,1,.062.207.869.869,0,0,0,.1.3.338.338,0,0,0,.05.066l.037.037h.052a.285.285,0,0,0,.13-.042h0l.092-.008.071-.007.036,0c.093.007.19.013.278.025a1.707,1.707,0,0,1,.665.25,1.518,1.518,0,0,1,.527.623,1.8,1.8,0,0,1,.145.857,2.7,2.7,0,0,1-.372,1.183l-.067.118,1.452.665.044-.131a2.757,2.757,0,0,1,.285-.61,2.937,2.937,0,0,1,.876-.92,1.713,1.713,0,0,1,.642-.238,1.287,1.287,0,0,1,.691.141,1.733,1.733,0,0,1,.683.725l.051.086c.046.087.095.173.143.257l.051.091.011.038a.148.148,0,0,0,.153.1l.188-.076a3.869,3.869,0,0,1,.821-.371c.108-.039.21-.075.29-.109a4.123,4.123,0,0,1,1.465-.208,1.378,1.378,0,0,1,.288.043,1.227,1.227,0,0,1-.264.122,12.628,12.628,0,0,0-1.189.46l-.131.057a3.7,3.7,0,0,1-.336.178,3.467,3.467,0,0,0-.629.368l-.193.132c-.038.023-.076.049-.114.074s-.1.071-.162.1-.125.073-.19.109l-.069.039-.107-.12a4.711,4.711,0,0,1-.312-.394l-.119-.16-.08-.13c-.046-.074-.092-.149-.139-.223-.2-.311-.341-.472-.489-.523l-.043-.011a.407.407,0,0,0-.179-.018.93.93,0,0,0-.307.133,2.106,2.106,0,0,0-.608.665,2.056,2.056,0,0,0-.242.567l-.026.1,1.493.67q2.532,1.135,5.058,2.278c.531.242,1.071.479,1.61.715l.39.172.059-.046a1.445,1.445,0,0,0,.5-.81,2.144,2.144,0,0,0-.065-1.345.719.719,0,0,0-.678-.487l-.085,0a.252.252,0,0,0-.115.012l-.317.111c-.088.028-.174.056-.261.086l-.034.013c-.011-.042-.024-.082-.036-.117l-.027-.1c-.025-.1-.05-.189-.072-.285s-.043-.169-.064-.248l.529-.043a.139.139,0,0,0,.073.039.147.147,0,0,0,.122-.029l.057-.036.2-.04a.992.992,0,0,1,.378.017,1.041,1.041,0,0,1,.39.148,1.616,1.616,0,0,1,.591.646,2.7,2.7,0,0,1,.18,1.849,2.318,2.318,0,0,1-.416.891l-.095.128,1.71.719.056-.093a5.692,5.692,0,0,1,1.678-1.9,1.645,1.645,0,0,1,1.3-.264,2.154,2.154,0,0,1,.314.144.7.7,0,0,1,.118.081v0l.036.037a.264.264,0,0,1,.024.043l.035.043c.044.033.117.057.225-.029a.475.475,0,0,0,.149-.165l.166-.187a2.023,2.023,0,0,1,.557-.5,1.7,1.7,0,0,1,.239-.1.573.573,0,0,1,.167,0l.023,0c-.008.011-.019.025-.034.042a.631.631,0,0,1-.089.082l-.021.023c-.034.046-.073.093-.125.151a3.949,3.949,0,0,0-.365.589c-.031.056-.063.112-.091.169l-.071.127c-.023.038-.062.1-.1.153a7.673,7.673,0,0,1-.526.689c-.094-.107-.19-.217-.29-.333l-.171-.193-.094-.074a.511.511,0,0,0-.1-.066l-.033-.011a.463.463,0,0,1-.075-.022l-.037-.012a.952.952,0,0,0-.717.218,5.407,5.407,0,0,0-1.314,1.528l-.079.126.138.055A93.577,93.577,0,0,0,45.9,49.827l.1.029.044-.1a1.992,1.992,0,0,0,.135-.423,4.954,4.954,0,0,0,.123-.8,4.217,4.217,0,0,0-.1-1.431l-.024-.053a.825.825,0,0,1-.048-.116l-.031-.068-.045-.025a.272.272,0,0,0-.1-.081.9.9,0,0,0-.445-.12,2.5,2.5,0,0,0-.543.047c-.3.085-.591.179-.9.284-.089-.674-.124-1.076-.149-1.374a5.067,5.067,0,0,0-.1-.759,1.633,1.633,0,0,0-.438-.927,1.407,1.407,0,0,0-.527-.258c-.026-.007-.047-.014-.064-.02.016-.008.035-.015.057-.024a.9.9,0,0,1,.678.059,1.7,1.7,0,0,1,.774,1.036,5.435,5.435,0,0,1,.2.831c.064.37.073.4.119.458l.061.09.143-.074a2.8,2.8,0,0,1,.7-.095,1.585,1.585,0,0,1,.841.21.973.973,0,0,1,.315.262l.035.034a3.173,3.173,0,0,1,.234.439A4.976,4.976,0,0,1,47.11,48.6a6.9,6.9,0,0,1-.131.926,4.442,4.442,0,0,1-.131.425l-.047.129.133.035c1.11.293,1.961.5,2.754.681l.18.04-.029-.182a4.468,4.468,0,0,1,.178-2.424A1.693,1.693,0,0,1,51.093,47.2a1.9,1.9,0,0,1,1.3.136,2.945,2.945,0,0,1,.475.251l.21.127.1.108.14-.018.048-.07a.507.507,0,0,0,.07-.1l.146-.208a1.363,1.363,0,0,1,.145-.182c.032-.037.064-.074.093-.11a4.67,4.67,0,0,1,.482-.489,3.622,3.622,0,0,1,1.831-1.06c-.053.052-.137.123-.219.193a11.546,11.546,0,0,0-1.27,1.236,5.687,5.687,0,0,0-.383.484,1.177,1.177,0,0,1-.07.1,1.127,1.127,0,0,0-.123.188l-.082.138c-.047.078-.095.16-.149.254-.106.225-.218.458-.34.7v0l-.079-.058c-.059-.044-.117-.086-.176-.128l-.163-.119c-.116-.087-.231-.173-.358-.256l-.189-.111a2.027,2.027,0,0,0-.4-.193,1.153,1.153,0,0,0-.82-.082.908.908,0,0,0-.561.6,4.27,4.27,0,0,0-.028,2.393l.017.079.08.017a58.166,58.166,0,0,0,6.8.992l.118.01.016-.118A3.468,3.468,0,0,1,59,49.432a1.656,1.656,0,0,1,1.44-.143h0a8.475,8.475,0,0,1,2.388,1.365c.226.164.452.328.683.485l.24.164-.046-.287c-.16-.988-.813-4.293-2.535-5.351a2.247,2.247,0,0,0-1.932-.207.411.411,0,0,1-.325-.054.337.337,0,0,1-.165-.223,2.2,2.2,0,0,0-1.862-2.075,4.662,4.662,0,0,0-4.214,2.438.333.333,0,0,1-.209.169.431.431,0,0,1-.337-.032l-.043-.025-.049.012c-.818.2-1.63.4-2.447.6l-.415.1-.026.04a.416.416,0,0,1-.581.111l-.032-.019H48.5a.372.372,0,0,1-.29-.1.337.337,0,0,1-.085-.264,3.214,3.214,0,0,0-1.044-2.7,2.017,2.017,0,0,0-1.988-.186.315.315,0,0,1-.366-.089.484.484,0,0,1-.079-.515c.6-1.187.281-1.892-.091-2.274-.871-.893-2.8-.86-4.045-.266a2.052,2.052,0,0,0-1.381,2.058.288.288,0,0,1-.155.309.538.538,0,0,1-.541-.033,1.444,1.444,0,0,0-1.01-.543,1.571,1.571,0,0,0-1.086.518l-.032.031-.005.045a.447.447,0,0,1-.511.392.312.312,0,0,1-.3-.369,2.231,2.231,0,0,1,.033-.228l.005-.028-.007-.027a.481.481,0,0,1-.018-.2l0-.017,0-.017c-.17-1.455-.829-2.194-1.939-2.194h0a.409.409,0,0,1-.284-.382,2.348,2.348,0,0,0-1.663-2.61,2.883,2.883,0,0,0-3.157,1.755.366.366,0,0,1-.338.19h0a.372.372,0,0,1-.346-.192,2.037,2.037,0,0,0-1.507-1.286,2.235,2.235,0,0,0-1.93.924.318.318,0,0,1-.426.081l-.03-.012a.3.3,0,0,1-.238-.348,2.541,2.541,0,0,0-.648-2.07,1.771,1.771,0,0,0-1.521-.449.284.284,0,0,1-.212-.066.545.545,0,0,1-.179-.356,2.906,2.906,0,0,0-1.5-2.671,3.258,3.258,0,0,0-3.277.843.485.485,0,0,1-.365.112.433.433,0,0,1-.289-.2l-.04-.059-.071,0c-.579.035-1.151.063-1.73.092l-.071,0-.033.062a.346.346,0,0,1-.234.189.449.449,0,0,1-.355-.106l-.044-.023a.283.283,0,0,1-.208-.345,2.848,2.848,0,0,0-.8-2.249,2.4,2.4,0,0,0-1.9-.8.415.415,0,0,1-.378-.3A2.693,2.693,0,0,0,8.7,27.908l-.137-.083-.047.153c-.163.52-.308,1.05-.447,1.564a21.151,21.151,0,0,1-1.032,3.13l-.057.125.13.045A26.782,26.782,0,0,1,10.877,34.517Zm20.734,7.254v-.005c-.006-.025-.011-.052-.016-.078s-.011-.068-.018-.093l-.01-.055a1.013,1.013,0,0,0-.072-.274,4.153,4.153,0,0,1-.131-.446,1.333,1.333,0,0,1-.039-.264,1.2,1.2,0,0,1,.183.175,4.781,4.781,0,0,1,.314.412,1.246,1.246,0,0,1,.154.293c.013.029.025.059.037.088s.024.063.039.1Z" /><path d="M65.27,54.458l.134.024a8.424,8.424,0,0,0,1.444.172,1.979,1.979,0,0,0,1.154-.3,1.751,1.751,0,0,0,.68-1.2c.1-.552.033-1.471-.436-1.784-.183-.121-.5-.2-.986.116-.366.239-.727.5-1.075.748-.3.214-.6.428-.9.631l-.081.055.033.092a2.167,2.167,0,0,1,.068,1.317Z" /><path d="M67.679,49.256a1.711,1.711,0,0,1,1.4.248,3.476,3.476,0,0,1,1.151,2.4l.016.118.119-.01a61.968,61.968,0,0,0,6.8-.964l.081-.016.017-.08a4.441,4.441,0,0,0-.02-2.419.912.912,0,0,0-.562-.6,1.16,1.16,0,0,0-.817.076,2.066,2.066,0,0,0-.413.2l-.2.115c-.122.08-.237.166-.353.252-.055.042-.111.082-.167.123l-.172.124-.079.059,0-.007c-.12-.239-.232-.472-.343-.706l-.048-.084c-.06-.1-.119-.207-.173-.289a1.23,1.23,0,0,0-.144-.222l-.056-.076a3.89,3.89,0,0,0-.294-.383l-.1-.119a11.4,11.4,0,0,0-1.259-1.219c-.081-.068-.164-.138-.217-.189a3.636,3.636,0,0,1,1.834,1.058l.052.05a4.8,4.8,0,0,1,.424.438c.03.039.063.076.095.113a1.356,1.356,0,0,1,.148.187l.117.163a.645.645,0,0,0,.11.151l.037.058.068.008a.134.134,0,0,0,.126-.055l.25-.173a2.949,2.949,0,0,1,.484-.252,1.883,1.883,0,0,1,1.3-.134,1.687,1.687,0,0,1,1.074,1.029,4.428,4.428,0,0,1,.177,2.449l-.03.181.179-.039c.84-.179,1.72-.39,2.77-.665l.134-.035-.049-.13a3.533,3.533,0,0,1-.136-.465,6.546,6.546,0,0,1-.138-.924,4.976,4.976,0,0,1,.167-1.729,3.428,3.428,0,0,1,.22-.426l.075-.077a1.032,1.032,0,0,1,.312-.252,1.555,1.555,0,0,1,.819-.2,2.8,2.8,0,0,1,.677.087l.187.069.057-.1c.028-.047.037-.073.1-.437A5.453,5.453,0,0,1,83.7,44.7a1.677,1.677,0,0,1,.766-1.035.9.9,0,0,1,.675-.061.5.5,0,0,1,.063.028l-.059.018a1.322,1.322,0,0,0-.527.258,1.626,1.626,0,0,0-.446.926,5.84,5.84,0,0,0-.091.713c-.026.3-.061.71-.158,1.421-.279-.1-.583-.192-.915-.287a2.516,2.516,0,0,0-.527-.044.905.905,0,0,0-.447.12.332.332,0,0,0-.119.1l-.051.028-.011.057a.471.471,0,0,1-.061.142l-.014.031a4.413,4.413,0,0,0-.1,1.417,4.92,4.92,0,0,0,.122.793,2.429,2.429,0,0,0,.157.485l.044.1.1-.028a86.81,86.81,0,0,0,9.687-3.321l.136-.056-.077-.125a5.641,5.641,0,0,0-1.366-1.6.99.99,0,0,0-.71-.224l-.039.015a.38.38,0,0,1-.1.035.463.463,0,0,0-.124.08l-.1.08-.154.176c-.1.116-.2.226-.29.333a7.621,7.621,0,0,1-.529-.693c-.034-.045-.073-.111-.1-.158l-.061-.121c-.042-.069-.076-.131-.11-.192a4.254,4.254,0,0,0-.355-.575,1.086,1.086,0,0,1-.121-.139l-.032-.032a.6.6,0,0,1-.082-.077c-.013-.016-.023-.028-.03-.038l.032,0a.6.6,0,0,1,.152,0,2.115,2.115,0,0,1,.24.1,2.025,2.025,0,0,1,.571.5l.063.074c.03.036.06.073.084.1.079.113.121.165.171.182v0a.159.159,0,0,0,.238,0,.166.166,0,0,0,.03-.057l.037-.037v0a.53.53,0,0,1,.125-.087,2.565,2.565,0,0,1,.3-.14,1.683,1.683,0,0,1,1.3.26,5.844,5.844,0,0,1,1.73,1.961l.056.094.427-.182c.374-.159.751-.319,1.123-.484l.145-.064-.095-.126a2.292,2.292,0,0,1-.451-.948,2.747,2.747,0,0,1,.177-1.842,1.625,1.625,0,0,1,.6-.652,1.049,1.049,0,0,1,.4-.149.936.936,0,0,1,.378-.014l.177.032.054.032a.151.151,0,0,0,.137.04.115.115,0,0,0,.1-.086l.044-.057c.006-.011.014-.024.037-.069.029-.066.059-.134.079-.194a1.231,1.231,0,0,1,.156-.292c.142-.2.238-.324.31-.407a1.012,1.012,0,0,1,.186-.176.946.946,0,0,1-.041.263c-.029.129-.072.275-.124.431a1.021,1.021,0,0,0-.079.289l-.008.048c-.008.031-.014.064-.02.1s-.01.054-.016.078l-.017.064c-.022.086-.045.172-.068.266s-.046.186-.071.282l-.025.095c-.012.037-.023.076-.033.116l0,.01-.037-.013c-.085-.032-.176-.061-.269-.09l-.323-.112a.21.21,0,0,0-.074-.01h-.112a.7.7,0,0,0-.673.491A2.141,2.141,0,0,0,94.6,44.2a1.414,1.414,0,0,0,.553.852l.058.04.064-.029c1.048-.473,2.067-.951,3.029-1.422,1.785-.868,3.605-1.674,5.3-2.416l.1-.046-.034-.107a2.41,2.41,0,0,0-.23-.512,2.137,2.137,0,0,0-.613-.672.918.918,0,0,0-.309-.132.439.439,0,0,0-.177.02l-.055.015c-.134.046-.28.207-.474.516-.048.076-.094.151-.14.225l-.2.29a4.882,4.882,0,0,1-.313.4l-.1.118-.124-.07c-.045-.026-.092-.051-.143-.082a1.709,1.709,0,0,1-.176-.115l-.279-.185a3.612,3.612,0,0,0-.645-.379c-.116-.057-.228-.111-.345-.182a13.755,13.755,0,0,0-1.293-.5,1.417,1.417,0,0,1-.274-.125,1.552,1.552,0,0,1,.3-.044,4.124,4.124,0,0,1,1.436.2c.093.038.192.073.295.109a4.06,4.06,0,0,1,.84.377l.071.043.1.032a.15.15,0,0,0,.163-.114c0-.009.007-.02.01-.032l.046-.081c.048-.084.1-.17.138-.25l.056-.093a1.73,1.73,0,0,1,.677-.722,1.355,1.355,0,0,1,.692-.144,1.7,1.7,0,0,1,.641.234,2.838,2.838,0,0,1,.882.923,2.954,2.954,0,0,1,.278.591l.044.128.125-.055c.2-.089.409-.181.614-.273s.4-.177.595-.264l.126-.055-.068-.121a2.659,2.659,0,0,1-.373-1.177,1.972,1.972,0,0,1,.146-.852,1.509,1.509,0,0,1,.525-.625,1.7,1.7,0,0,1,.663-.25c.1-.013.2-.02.295-.029l.095.01a.5.5,0,0,1,.112.015.268.268,0,0,0,.118.033h.067l.037-.055c.009-.013.018-.029.027-.045l0-.009a.588.588,0,0,0,.078-.235l.012-.058q.042-.145.084-.27a1.326,1.326,0,0,1,.171-.368A.832.832,0,0,1,108.05,36a.316.316,0,0,1,.063.21.877.877,0,0,0,.015.2,1.265,1.265,0,0,1,.019.2v.269a.752.752,0,0,1-.012.122,2.7,2.7,0,0,0-.03.276c-.009.1-.024.2-.041.3s-.031.2-.043.311l-.587-.057a1.246,1.246,0,0,0-.23,0l-.063,0a2.031,2.031,0,0,0-.2.038.964.964,0,0,0-.37.174.922.922,0,0,0-.3.834,2.119,2.119,0,0,0,.343.927l.058.091.1-.044c1.349-.6,2.8-1.255,4.261-1.967.966-.476,1.9-.991,3-1.616l.07-.04-.007-.079a.9.9,0,0,0-.785-.885.8.8,0,0,0-.5.134.218.218,0,0,0-.07.051c-.01.009-.025.024-.082.072a1.82,1.82,0,0,0-.22.368c-.083.156-.162.312-.241.465l-.015.029c-.066-.092-.132-.186-.2-.277l-.146-.208c-.076-.1-.148-.19-.218-.283l-.167-.216a2.21,2.21,0,0,0-.429-.413,1.453,1.453,0,0,0-.71-.321,1.494,1.494,0,0,0-.387-.019l-.074,0a.418.418,0,0,1-.085-.014.487.487,0,0,1,.049-.052.831.831,0,0,1,.469-.239,1.51,1.51,0,0,1,1.027.175,3.055,3.055,0,0,1,.566.4c.03.024.061.049.091.078l.09.06.125-.049.03-.089a.755.755,0,0,1,.135-.118,1.475,1.475,0,0,1,1-.318,1.563,1.563,0,0,1,1.068.487,1.619,1.619,0,0,1,.393.676l.046.148.429-.242c.288-.163.574-.325.864-.483l.137-.075-.1-.117a1.762,1.762,0,0,1-.465-1.079,1.552,1.552,0,0,1,.611-1.293,2,2,0,0,1,1.063-.42l.031,0c.077-.006.15-.011.2-.013l.219.051.042-.027a.277.277,0,0,0,.092-.146l.042-.238a.806.806,0,0,1,.037-.149l.022-.074a.951.951,0,0,1,.447-.6.535.535,0,0,1,.359-.06l.03.008a.21.21,0,0,1-.026.036c-.013.014-.029.027-.045.041a.645.645,0,0,0-.168.186.813.813,0,0,0-.156.5v.049a.781.781,0,0,0,0,.128c0,.081,0,.176.007.268.008.166.014.341.019.525,0,.1.007.2.01.3l-.081-.014a4.5,4.5,0,0,0-.451-.063c-.116-.014-.232-.028-.379-.035l-.163.023a1.387,1.387,0,0,0-.673.318.793.793,0,0,0-.3.6,1.138,1.138,0,0,0,.461.826l.066.058.076-.041a25.428,25.428,0,0,1,3.757-1.682L121,32.8l-.056-.124a21.73,21.73,0,0,1-1.031-3.132c-.141-.514-.287-1.044-.449-1.563l-.047-.153-.137.083a2.644,2.644,0,0,0-1.073,1.619.426.426,0,0,1-.387.3,2.382,2.382,0,0,0-1.89.8,2.854,2.854,0,0,0-.8,2.253.285.285,0,0,1-.216.344l-.045.024a.427.427,0,0,1-.349.1.334.334,0,0,1-.23-.187l-.039-.064-.072,0c-.577-.029-1.155-.057-1.731-.092l-.072,0-.04.059a.429.429,0,0,1-.288.2.475.475,0,0,1-.363-.111,3.256,3.256,0,0,0-3.279-.844,2.908,2.908,0,0,0-1.5,2.673.518.518,0,0,1-.17.349.265.265,0,0,1-.218.071,1.77,1.77,0,0,0-1.516.444,2.558,2.558,0,0,0-.655,2.073.306.306,0,0,1-.238.35l-.031.012a.306.306,0,0,1-.416-.079,2.242,2.242,0,0,0-1.938-.925,2.049,2.049,0,0,0-1.5,1.285.383.383,0,0,1-.352.192h-.006a.362.362,0,0,1-.335-.191,2.883,2.883,0,0,0-3.152-1.755,2.349,2.349,0,0,0-1.668,2.612.414.414,0,0,1-.264.379c-1.125,0-1.785.739-1.963,2.2v.017l0,.017a.481.481,0,0,1-.018.2l-.007.027.02.1a1.179,1.179,0,0,1,.025.154.316.316,0,0,1-.31.367.449.449,0,0,1-.5-.391l0-.046-.034-.032a1.583,1.583,0,0,0-1.094-.517,1.426,1.426,0,0,0-1,.531.53.53,0,0,1-.547.046.287.287,0,0,1-.155-.309A2.052,2.052,0,0,0,87.482,40.1c-1.25-.592-3.177-.627-4.05.266-.373.382-.693,1.087-.095,2.274a.484.484,0,0,1-.079.515.32.32,0,0,1-.367.089,2.013,2.013,0,0,0-1.987.186,3.215,3.215,0,0,0-1.045,2.705.319.319,0,0,1-.078.258.46.46,0,0,1-.3.109h-.036l-.032.019a.412.412,0,0,1-.581-.111l-.027-.04-.046-.012c-.933-.233-1.874-.466-2.808-.693l-.047-.011-.043.024a.457.457,0,0,1-.349.031.33.33,0,0,1-.206-.169A4.709,4.709,0,0,0,71.1,43.106a2.2,2.2,0,0,0-1.86,2.075.346.346,0,0,1-.177.228.4.4,0,0,1-.316.05,2.166,2.166,0,0,0-1.922.141c-1.031.641-1.7,2.3-2.061,5.067l-.038.294.3-.23A7.2,7.2,0,0,1,67.679,49.256Zm27.974-7.471.012-.061.023.048A.253.253,0,0,1,95.653,41.785Z" /><path d="M122.674,43.023l-.026-.084c-.178-.576-.347-1.12-.473-1.681l-.05-.219-.16.158a49.474,49.474,0,0,1-6.375,5.367l-.106.074.077.1a3.7,3.7,0,0,1,.287.477l.038.072a2.687,2.687,0,0,1,.258,1.059,1.358,1.358,0,0,1-.119.569.835.835,0,0,1-.434.4c-.045.01-.1.025-.155.039s-.072.02-.1.025l-.041-.011a.321.321,0,0,0-.05-.026l-.062-.025-.055.037a.329.329,0,0,0-.113.2c-.007.02-.013.041-.024.077-.022.1-.068.319-.1.425a.576.576,0,0,1-.116.233c-.008-.005-.062-.046-.126-.273a2.881,2.881,0,0,1-.088-.414l-.02-.191c-.023-.221-.052-.487-.07-.781l.084.014c.105.018.213.037.326.049.049,0,.1.009.148.014s.1.011.145.014a.218.218,0,0,0,.117-.014l.024,0,.038-.053c.036-.051.036-.063.036-.282a2.2,2.2,0,0,0-.224-.73,2.259,2.259,0,0,0-.3-.458l-.072-.086-.093.062c-.718.479-1.313.848-1.874,1.162-1.448.833-2.942,1.612-4.387,2.365l-.854.446.086.185c.036.076.071.15.1.227a2.533,2.533,0,0,1,.176.734,1.23,1.23,0,0,1-.2.827,1.265,1.265,0,0,0-.1.1c-.045.047-.087.093-.108.109a1.283,1.283,0,0,0-.135.064.5.5,0,0,1-.177.067,1.293,1.293,0,0,1-.19.03l-.065-.02-.059.036a.127.127,0,0,0-.066.1.167.167,0,0,0,.007.108,2.271,2.271,0,0,0,.1.261l.045.115c.054.137.106.269.158.382l.012.035a2.2,2.2,0,0,1,.189.99,1.551,1.551,0,0,1-.394.751,1.249,1.249,0,0,1-.818.44.444.444,0,0,1-.154-.012l.061-.045a1.891,1.891,0,0,0,.583-.625,1.305,1.305,0,0,0,.191-.557,2.123,2.123,0,0,0-.255-.723c-.038-.072-.075-.148-.114-.225s-.083-.165-.124-.243l-.038-.08c-.03-.064-.063-.131-.092-.207a1.7,1.7,0,0,1-.121-.5.673.673,0,0,1,.507-.7l.354-.042c.079-.008.138-.015.171-.054l.007-.009a.136.136,0,0,0,.019-.047,1.248,1.248,0,0,0-.116-.762,1.86,1.86,0,0,0-.1-.221l-.058-.114-.113.06a54.7,54.7,0,0,0-5.684,3.395l-.223.16c-.249.178-.494.354-.74.534l-.073.054.028.086a1.276,1.276,0,0,0,.3.5.655.655,0,0,0,.545.055,1.814,1.814,0,0,1,.194-.028,1.764,1.764,0,0,0,.727-.174,5.528,5.528,0,0,0,.937-.888l.009-.011c.014.108.027.214.039.317.026.212.05.414.076.6a1.643,1.643,0,0,0,.109.391.556.556,0,0,0,.05.12c.007.012.014.026.026.051.085.151.186.3.322.333a.594.594,0,0,0,.25.055c.023,0,.046,0,.066.006a.242.242,0,0,1,.06.018.408.408,0,0,1-.03.037.469.469,0,0,1-.338.16.846.846,0,0,1-.692-.3,1.053,1.053,0,0,0-.075-.093.828.828,0,0,1-.089-.118.357.357,0,0,0-.076-.1c-.046-.046-.079-.079-.138-.079h-.057l-.037.043a.282.282,0,0,0-.052.085c-.008.016-.01.02-.036.037a2.511,2.511,0,0,1-.986.351l-.052,0a1.766,1.766,0,0,1-1.2-.212,1.48,1.48,0,0,1-.469-.64l-.064-.136-.122.089c-1.141.835-2.151,1.608-3.088,2.365l-.108.088.1.1c.116.116.215.233.314.35l.072.085a5.406,5.406,0,0,1,.61.93,2.034,2.034,0,0,1,.192.517.912.912,0,0,1-.114.721.634.634,0,0,1-.406.279l-.126.037.043.123a3.5,3.5,0,0,1,.227,1.051,1.11,1.11,0,0,1-.2.711.94.94,0,0,1-.455.319,1.137,1.137,0,0,1-.6.041.528.528,0,0,1-.081-.027c.043-.03.122-.072.193-.111.1-.052.211-.114.352-.2a.617.617,0,0,0,.243-.7,6.5,6.5,0,0,0-.555-1.405l-.221-.462.595-.017.128-.006c.066,0,.169,0,.2-.072a.138.138,0,0,0,.027-.082l-.007-.073-.025-.035a1.316,1.316,0,0,0-.124-.262,4.81,4.81,0,0,0-.529-.762,5.673,5.673,0,0,0-.405-.448l-.081-.081-.087.073A53.584,53.584,0,0,0,89.726,64.7l-.046.052.019.065a.463.463,0,0,0,.253.311,1.069,1.069,0,0,0,.672.032,1.414,1.414,0,0,0,.605-.3.22.22,0,0,0,.1-.1l.13-.2a1.818,1.818,0,0,0,.2-.384c.085-.188.163-.373.24-.555.443,1.042.6,1.294.722,1.346a1.259,1.259,0,0,0,.451.272.967.967,0,0,0,.8-.054,2.73,2.73,0,0,0,.347-.262,1.065,1.065,0,0,1,.118-.095.414.414,0,0,1,0,.076.971.971,0,0,1-.26.533,1.228,1.228,0,0,1-1.124.339,1.731,1.731,0,0,1-.764-.33c-.155-.138-.161-.141-.173-.143l-.048-.044H91.83l-.029.084a.06.06,0,0,0-.007.032l-.064.064a2.279,2.279,0,0,1-.9.488,1.789,1.789,0,0,1-1.206-.057,1.188,1.188,0,0,1-.428-.34l-.094-.115-.1.114a41.918,41.918,0,0,0-5,7.246c-.126.225-.244.456-.362.687-.074.147-.149.294-.226.439l-.04.075.055.065a1.413,1.413,0,0,0,1.451.379,1.513,1.513,0,0,0,.72-.42.249.249,0,0,0,.063-.072l.026-.031a.624.624,0,0,0,.108-.187,1.684,1.684,0,0,0,.126-.407c.013-.06.026-.119.041-.175l.164-.661.078.147c.174.328.354.667.51.909a1.813,1.813,0,0,0,.4.463l.048.039a.68.68,0,0,0,.619.116c.117-.042.214-.089.3-.127.043-.02.094-.045.13-.058a.79.79,0,0,1-.294.425.945.945,0,0,1-.964.07,1.9,1.9,0,0,1-.388-.235.231.231,0,0,0-.078-.045v-.006l-.06-.04h-.146l-.019.1c0,.019-.006.038-.01.075l-.019.058a.518.518,0,0,1-.067.089,2.123,2.123,0,0,1-1.062.707,2.241,2.241,0,0,1-1.477-.019,1.857,1.857,0,0,1-.523-.312l-.12-.1-.07.137c-.449.892-.859,1.735-1.253,2.578l-.046.1.316.2a5.623,5.623,0,0,1,.807.663,2.72,2.72,0,0,1,.6.824c.011.05.025.1.039.15a1.9,1.9,0,0,1,.05.2c0,.032,0,.063,0,.1a.557.557,0,0,1-.039.239.773.773,0,0,1-.413.435,1.228,1.228,0,0,1-.121.047l-.043.008a.141.141,0,0,0-.112.064l-.037.067.014.028a1.45,1.45,0,0,0,.041.269,4.682,4.682,0,0,1,.069,1.091,1.647,1.647,0,0,1-.5,1.246.515.515,0,0,1-.253.107l.03-.052a1.855,1.855,0,0,0,.221-1.3,6.016,6.016,0,0,0-.188-.959c-.032-.125-.167-.588-.305-.974l-.031-.1.1-.018.161-.027c.058-.012.118-.021.18-.031l.165-.027a.418.418,0,0,1,.051-.007.307.307,0,0,0,.149-.038l.05-.03a.161.161,0,0,0,.042-.113l-.007-.073-.026-.025a2.7,2.7,0,0,0-.435-.526,5.47,5.47,0,0,0-.695-.551l-.033-.021a.649.649,0,0,0-.09-.048l-.111-.045L81.2,78.4c-1.713,3.773-3.2,7.644-4.825,11.95l-.037.095.087.054a4.644,4.644,0,0,0,.882.437,1.283,1.283,0,0,0,.526.076l.1-.044a.256.256,0,0,0,.1-.137,1.861,1.861,0,0,0,0-.983c-.01-.04-.018-.08-.026-.119s-.019-.091-.032-.138-.025-.1-.038-.153-.025-.1-.039-.157l-.047-.181c-.05-.195-.1-.381-.133-.549l.079-.012c.074-.012.148-.023.22-.037l.219-.037.12-.031.025-.012a.548.548,0,0,0,.219-.166,1.344,1.344,0,0,0,.251-.485,4.394,4.394,0,0,0,.154-.9c.027-.257.05-.484.068-.564a1.4,1.4,0,0,1,.208.546,2.926,2.926,0,0,1,.041,1.016,1.733,1.733,0,0,1-.256.724,1.168,1.168,0,0,1-.347.339l-.071.05H78.6l-.03.084a.164.164,0,0,0,.027.149s.043.136.064.2c.027.089.055.185.075.273l.029.13a2.19,2.19,0,0,1-.011,1.308,1.1,1.1,0,0,1-.283.415.963.963,0,0,1-.489.245,2,2,0,0,1-.914-.079,5.338,5.338,0,0,1-.9-.408l-.127-.072-.052.137c-.424,1.131-.855,2.269-1.286,3.4-.171.447-.355.872-.547,1.262l-.172.35.344-.185a3.956,3.956,0,0,0,2.335-3.032.48.48,0,0,1,.183-.351.407.407,0,0,1,.335-.056,2.738,2.738,0,0,0,2.916-.71,2.87,2.87,0,0,0-.012-3.1V88.9l-.048-.037a.482.482,0,0,1-.141-.526.307.307,0,0,1,.344-.2.817.817,0,0,0,.724-.243c.386-.444.182-1.353.061-1.9l-.017-.075a.458.458,0,0,1,.088-.378.379.379,0,0,1,.3-.142c1.011,0,2.225-.122,2.639-1.073a3.373,3.373,0,0,0-.326-2.724.406.406,0,0,1,.054-.442l.02-.036a.349.349,0,0,1,.25-.22,1.187,1.187,0,0,0,.792-.619c.345-.726-.126-1.837-.379-2.433a.31.31,0,0,1-.008-.247.365.365,0,0,1,.218-.182l.037-.013.023-.034a.477.477,0,0,1,.392-.207.323.323,0,0,1,.262.2.954.954,0,0,0,.74.591c1.01.154,2.464-1.173,2.894-1.648.9-.99,2.29-2.952,1.423-4.963a.568.568,0,0,1,.008-.468.264.264,0,0,1,.206-.137,1.355,1.355,0,0,0,.955-.513,2.868,2.868,0,0,0,.114-2.111l-.008-.043a.781.781,0,0,1,.006-.163l0-.018,0-.017c0-.017-.007-.034-.01-.05a.234.234,0,0,1-.01-.069A.318.318,0,0,1,92,67.4a.434.434,0,0,1,.5.391c.043.465.288.6.486.624.807.12,2.268-1.3,2.421-1.7a.421.421,0,0,1,.7-.189c.9.725,1.488.553,1.827.281,1.035-.828,1.091-3.694.534-4.824a.471.471,0,0,1,.023-.455.359.359,0,0,1,.321-.164c1.133.039,1.8-.587,2.063-1.9l.008-.039-.017-.037a.461.461,0,0,1,.19-.562.3.3,0,0,1,.42.078,3.143,3.143,0,0,0,2.749.834.993.993,0,0,0,.633-1.071.366.366,0,0,1,.223-.35.438.438,0,0,1,.474.071,2.328,2.328,0,0,0,2.523.428,1.885,1.885,0,0,0,1.037-1.915,13.312,13.312,0,0,0-.35-2.184.421.421,0,0,1,.07-.351.429.429,0,0,1,.322-.168,1.314,1.314,0,0,0,1.016-.423,2.338,2.338,0,0,0,.195-1.812l-.011-.067a.418.418,0,0,1,.185-.426.429.429,0,0,1,.447-.04l.055.032.058-.024a.378.378,0,0,1,.3,0l.052.024.052-.024c.106-.049.21-.1.313-.151s.21-.1.316-.153l.046-.021.018-.048a.445.445,0,0,1,.414-.3h.011a.389.389,0,0,1,.365.289,1.047,1.047,0,0,0,.882.753,2.834,2.834,0,0,0,2.436-1.165,1.451,1.451,0,0,0,.186-1.571.5.5,0,0,1,0-.427.3.3,0,0,1,.224-.171,1.474,1.474,0,0,0,1.073-.661,1.33,1.33,0,0,0,.064-1.15.3.3,0,0,1,.081-.363.479.479,0,0,1,.522-.033l.03.018h.033a.285.285,0,0,1,.127.024,2.1,2.1,0,0,0,2.688-.576.269.269,0,0,1,.194-.1.519.519,0,0,1,.374.122c.13.113.521.453.827.254C123.371,45.591,122.682,43.047,122.674,43.023Z" /><path d="M76.113,85.7c2.42-6.228,5.112-12.778,9.043-18.392,3.485-4.976,8.106-9.284,14.985-13.968,2.424-1.646,5.014-3.116,7.52-4.537,2.16-1.225,4.393-2.492,6.513-3.868.24-.157.486-.315.737-.477a23.981,23.981,0,0,0,5.769-4.612,3.825,3.825,0,0,0,.152-4.005c-.724-1-2.03-.25-2.983.3-.174.1-.334.192-.477.265-1.167.594-2.327,1.244-3.449,1.873-1.725.968-3.508,1.968-5.347,2.776-2.055.9-4.131,1.852-6.138,2.77-2.524,1.155-5.135,2.348-7.726,3.459-8.929,3.828-16.9,5.99-24.368,6.608l-.1.008-.015.1a2.611,2.611,0,0,1-1.476,2.2,6.214,6.214,0,0,1-3.464.121c-.226-.034-.449-.067-.671-.095a.991.991,0,0,1-.545-.244l-.084-.077-.085.077a.954.954,0,0,1-.546.244c-.223.029-.456.065-.693.1a5.624,5.624,0,0,1-3.565-.187,2.736,2.736,0,0,1-1.351-2.143l-.015-.1-.1-.008c-7.764-.638-16.11-2.958-25.513-7.1-4.151-1.832-8.686-3.878-13.862-6.256-1.583-.729-3.145-1.611-4.656-2.465a49.467,49.467,0,0,0-6.1-3.088l-.135-.054-.033.143c-.063.281-.131.556-.2.829A10.714,10.714,0,0,0,6.688,39a1.441,1.441,0,0,0,1.045,1.462,5.037,5.037,0,0,1,.588.32,9.68,9.68,0,0,1,1.447,1.264c.314.313.639.636.974.913a38.333,38.333,0,0,0,6.384,4.334c.864.461,1.728.91,2.591,1.357a69.911,69.911,0,0,1,8.122,4.687c5.411,3.807,10.583,7.675,14.386,13.113A81.854,81.854,0,0,1,51.1,83.733c.429,1.09.822,2.352,1.239,3.689,1.427,4.582,3.044,9.775,7.1,11.461l.047.01c.939.006,1.928.106,2.974.211,1.074.108,2.19.221,3.28.221,2.58,0,5.018-.63,6.409-3.436a63.126,63.126,0,0,0,2.739-6.845C75.281,87.94,75.687,86.8,76.113,85.7Z" /><path d="M52.223,91.953l-.036-.1c-.059-.168-.119-.339-.184-.5l-.054-.137-.126.075a4.8,4.8,0,0,1-.9.418,2.061,2.061,0,0,1-.92.083,1.01,1.01,0,0,1-.5-.251,1.06,1.06,0,0,1-.272-.41,2.141,2.141,0,0,1-.017-1.31l.026-.118c.014-.048.027-.1.04-.147s.024-.092.036-.133c.022-.064.064-.2.066-.2a.193.193,0,0,0,.04-.11v-.125H49.33l-.079-.052a1.057,1.057,0,0,1-.335-.337,1.648,1.648,0,0,1-.264-.725,3.107,3.107,0,0,1,.04-1.009,1.544,1.544,0,0,1,.2-.542,4.186,4.186,0,0,1,.074.564l.013.122a4.223,4.223,0,0,0,.14.768,1.33,1.33,0,0,0,.252.485.552.552,0,0,0,.222.164l.356.081c.076.015.15.026.224.038l.079.012c-.038.193-.1.429-.182.736-.016.081-.037.158-.058.237l-.02.078c-.013.076-.032.151-.056.249a1.862,1.862,0,0,0,0,.959.306.306,0,0,0,.094.144l.049.039.077.019a1.283,1.283,0,0,0,.521-.076,4.384,4.384,0,0,0,.9-.452l.084-.054-.035-.094c-1.592-4.306-3.052-8.179-4.79-11.972l-.057-.124-.151.086a.9.9,0,0,0-.124.078,5.014,5.014,0,0,0-.7.552,2.713,2.713,0,0,0-.43.528.143.143,0,0,0-.032.12l.021.1.071.023a.336.336,0,0,0,.143.036.577.577,0,0,1,.059.008c.058.011.115.02.171.028s.116.018.172.029.113.021.169.03l.091.015-.034.094c-.14.391-.275.854-.308.98a6.944,6.944,0,0,0-.18.957,1.842,1.842,0,0,0,.216,1.3.57.57,0,0,1,.03.054.539.539,0,0,1-.248-.107,1.663,1.663,0,0,1-.505-1.246,5.15,5.15,0,0,1,.076-1.091,1.542,1.542,0,0,0,.037-.29l0-.062-.041-.037a.142.142,0,0,0-.116-.033h-.015c-.029-.011-.086-.036-.116-.052a.778.778,0,0,1-.428-.455.673.673,0,0,1-.035-.244l0-.058a1.46,1.46,0,0,1,.051-.218,1.246,1.246,0,0,0,.032-.129,2.694,2.694,0,0,1,.6-.843,5.881,5.881,0,0,1,.8-.661c.091-.056.182-.112.279-.168l.1-.057-.05-.105c-.405-.854-.834-1.718-1.274-2.571l-.07-.135-.12.1a1.879,1.879,0,0,1-.558.333,2.244,2.244,0,0,1-1.476.019,2.181,2.181,0,0,1-1.072-.718.378.378,0,0,1-.062-.095L41.74,74.3a.337.337,0,0,1,0-.057v-.079l-.071-.034a.167.167,0,0,0-.178.039.3.3,0,0,0-.063.041,2.02,2.02,0,0,1-.391.239.927.927,0,0,1-.95-.072.841.841,0,0,1-.306-.429c.036.013.088.038.132.059a3.123,3.123,0,0,0,.311.132.674.674,0,0,0,.61-.127l.042-.034a1.921,1.921,0,0,0,.407-.468c.131-.209.281-.488.439-.784.048-.09.095-.179.143-.267.013.053.026.106.039.161.04.162.081.328.122.507.02.066.037.141.053.213a1.415,1.415,0,0,0,.107.35.975.975,0,0,0,.144.238.22.22,0,0,0,.059.065,1.492,1.492,0,0,0,.717.419,1.382,1.382,0,0,0,1.486-.419l.049-.064-.038-.071c-.631-1.162-1.164-2.1-1.679-2.94A45.626,45.626,0,0,0,39,65.5l-.1-.117-.095.119a1.193,1.193,0,0,1-.448.36,1.772,1.772,0,0,1-1.2.058,2.307,2.307,0,0,1-.9-.491l-.066-.058-.074-.226-.148.148a1.062,1.062,0,0,0-.172.139,1.746,1.746,0,0,1-.776.337,1.221,1.221,0,0,1-1.12-.342.88.88,0,0,1-.251-.525.591.591,0,0,1,0-.083c.03.021.069.056.1.086a2.684,2.684,0,0,0,.369.279.962.962,0,0,0,.788.048,1.352,1.352,0,0,0,.459-.273c.121-.05.271-.3.717-1.348.032.074.063.148.1.223l.139.326a1.718,1.718,0,0,0,.222.418l.107.176a.24.24,0,0,0,.1.1,1.534,1.534,0,0,0,.609.3,1.09,1.09,0,0,0,.69-.038.484.484,0,0,0,.246-.374l.01-.059-.039-.045A52.861,52.861,0,0,0,32.7,59.248l-.086-.072-.081.077a5.408,5.408,0,0,0-.476.519,4.827,4.827,0,0,0-.527.759,1.978,1.978,0,0,0-.127.266l-.015.038-.011.028a.171.171,0,0,0-.006.043l.021.1.052.025a.285.285,0,0,0,.151.029l.732.023-.268.573a5.945,5.945,0,0,0-.51,1.293.625.625,0,0,0,.262.707c.124.079.236.14.33.192.072.039.157.086.2.114a.44.44,0,0,1-.07.025,1.128,1.128,0,0,1-.6-.04.931.931,0,0,1-.461-.319,1.108,1.108,0,0,1-.2-.709,3.791,3.791,0,0,1,.234-1.053l.044-.125-.128-.036a.662.662,0,0,1-.423-.3.937.937,0,0,1-.1-.7,1.9,1.9,0,0,1,.193-.538,5.419,5.419,0,0,1,.6-.908l.084-.1c.118-.136.235-.271.37-.407l.1-.1-.108-.087c-1.007-.817-2.026-1.593-3.117-2.373l-.125-.09-.062.141a1.612,1.612,0,0,1-.5.71,1.444,1.444,0,0,1-1.033.149c-.075-.008-.148-.016-.214-.021a2.509,2.509,0,0,1-.985-.306c-.032-.02-.04-.029-.042-.034a.359.359,0,0,0-.035-.064L25.7,56.6l-.1.047a.226.226,0,0,0-.082.078.3.3,0,0,0-.086.116.668.668,0,0,1-.1.121c-.023.026-.045.051-.059.069a.824.824,0,0,1-.715.311.462.462,0,0,1-.327-.16l-.023-.035a.259.259,0,0,1,.058-.017.607.607,0,0,1,.063,0,.472.472,0,0,0,.231-.048.622.622,0,0,0,.346-.346l.021-.037a.67.67,0,0,0,.057-.114L25,56.536a1.567,1.567,0,0,0,.1-.359l.06-.5c.016-.131.033-.265.049-.4l.032.035a5.172,5.172,0,0,0,.925.881,1.8,1.8,0,0,0,.711.21l.078.005a.962.962,0,0,0,.664-.109,1.029,1.029,0,0,0,.268-.412H28.3l-.327-.228c-.97-.676-2-1.354-3.143-2.074-1.233-.777-2.513-1.457-3.6-2.02l-.113-.059-.056.114c-.036.072-.073.152-.1.214a1.27,1.27,0,0,0-.121.775.131.131,0,0,0,.026.057l.017.015a.342.342,0,0,0,.154.038l.339.039a.677.677,0,0,1,.527.708,1.591,1.591,0,0,1-.126.492c-.041.109-.083.2-.121.283l-.248.475a2.267,2.267,0,0,0-.254.728,1.3,1.3,0,0,0,.188.545,1.927,1.927,0,0,0,.591.631l.06.044a.472.472,0,0,1-.151.012,1.212,1.212,0,0,1-.822-.437,1.489,1.489,0,0,1-.388-.739,2.109,2.109,0,0,1,.2-1.034l.061-.153c.044-.11.09-.227.147-.357l.032-.091c.021-.056.04-.112.049-.146a.167.167,0,0,0,.012-.133l-.007-.054-.059-.037a.144.144,0,0,0-.121-.016,1.5,1.5,0,0,1-.2-.033.507.507,0,0,1-.171-.066.564.564,0,0,0-.1-.047.817.817,0,0,1-.121-.117.7.7,0,0,0-.1-.1,1.259,1.259,0,0,1-.211-.838,2.493,2.493,0,0,1,.173-.727l.191-.42-.691-.352A59.24,59.24,0,0,1,14.142,47.7c-.2-.133-.4-.273-.6-.412l-.318-.222-.074.082a1.933,1.933,0,0,0-.321.486,2.063,2.063,0,0,0-.226.734V48.4c-.006.173-.007.2.032.25l.037.061h.042a.2.2,0,0,0,.094.007c.058,0,.115-.01.169-.015l.133-.014c.112-.012.228-.031.336-.05l.069-.012c-.018.312-.048.63-.09.967a3.082,3.082,0,0,1-.087.44.664.664,0,0,1-.118.253c-.008-.006-.054-.043-.12-.241a2.1,2.1,0,0,1-.072-.269c-.013-.054-.025-.108-.04-.166-.007-.019-.013-.04-.02-.06a.329.329,0,0,0-.113-.2l-.061-.04-.065.032-.08.033c-.022-.005-.053-.013-.086-.023l-.148-.038a.83.83,0,0,1-.444-.4,1.192,1.192,0,0,1-.121-.575A2.463,2.463,0,0,1,12.1,47.3a3.655,3.655,0,0,1,.356-.588l.078-.1-.106-.074a51.777,51.777,0,0,1-6.405-5.347l-.158-.156-.051.217c-.127.541-.286,1.063-.455,1.614l-.052.169c-.007.025-.691,2.59-.052,3,.3.192.692-.147.819-.258a.517.517,0,0,1,.362-.116.3.3,0,0,1,.215.112,2.125,2.125,0,0,0,2.686.592h.054l.037-.039a.455.455,0,0,1,.558-.058.319.319,0,0,1,.138.412,1.35,1.35,0,0,0,.074,1.165,1.461,1.461,0,0,0,1.064.647.307.307,0,0,1,.23.175.494.494,0,0,1,0,.428,1.45,1.45,0,0,0,.186,1.575,2.833,2.833,0,0,0,2.437,1.168,1.045,1.045,0,0,0,.88-.751.378.378,0,0,1,.359-.286.479.479,0,0,1,.43.3l.018.048.047.021c.1.049.208.1.312.16s.216.115.324.166l.048.022.05-.019a.378.378,0,0,1,.268-.012l.066.022.053-.044a.4.4,0,0,1,.445,0,.418.418,0,0,1,.215.445l-.009.063a2.339,2.339,0,0,0,.193,1.814,1.314,1.314,0,0,0,1.014.423.43.43,0,0,1,.325.168.422.422,0,0,1,.07.352c-.028.126-.058.253-.089.381a6.838,6.838,0,0,0-.261,1.814,2.14,2.14,0,0,0,1.236,1.977,2.181,2.181,0,0,0,2.324-.5.443.443,0,0,1,.477-.071.362.362,0,0,1,.219.349,1,1,0,0,0,.634,1.072,3.139,3.139,0,0,0,2.748-.833.3.3,0,0,1,.425-.078.458.458,0,0,1,.185.561l-.017.037.008.04c.173.834.577,1.946,2.064,1.895a.36.36,0,0,1,.321.164.471.471,0,0,1,.023.455c-.557,1.13-.5,4,.538,4.825.339.271.93.442,1.822-.281a.46.46,0,0,1,.4-.1.455.455,0,0,1,.294.29A4.046,4.046,0,0,0,34.9,68.42.7.7,0,0,0,35,68.414c.2-.027.446-.158.491-.625a.432.432,0,0,1,.491-.39.32.32,0,0,1,.321.361.561.561,0,0,1-.012.057.532.532,0,0,0-.016.069l0,.025.006.025a.286.286,0,0,1,.005.139l-.009.052a2.868,2.868,0,0,0,.114,2.111,1.36,1.36,0,0,0,.957.514.265.265,0,0,1,.208.14.562.562,0,0,1,.012.464c-.792,1.827.269,3.817,1.418,4.967.426.43,1.9,1.813,2.913,1.648a.974.974,0,0,0,.726-.6.3.3,0,0,1,.253-.2.474.474,0,0,1,.393.206l.023.034.038.014a.363.363,0,0,1,.223.181.3.3,0,0,1-.014.246,3.4,3.4,0,0,0-.372,2.439,1.183,1.183,0,0,0,.786.615.346.346,0,0,1,.249.219l.02.036a.41.41,0,0,1,.061.442c-.674,1.48-.7,2.487-.093,3.076a3.265,3.265,0,0,0,2.4.721.385.385,0,0,1,.308.146.444.444,0,0,1,.08.373l-.015.066c-.122.545-.325,1.459.064,1.906a.829.829,0,0,0,.726.244.3.3,0,0,1,.337.195.49.49,0,0,1-.146.54.14.14,0,0,0-.033.053l0,.007a2.874,2.874,0,0,0-.018,3.107,2.74,2.74,0,0,0,2.922.712.4.4,0,0,1,.327.055.483.483,0,0,1,.184.352v0a4.084,4.084,0,0,0,2.513,3.131l.353.18L54,96.122A37.029,37.029,0,0,1,52.223,91.953Z" /><path d="M62.619,53.683c0-.073,0-.129,0-.16a2.647,2.647,0,0,1-.023-.365c0-.2-.023-.23-.244-.509l-.062-.078A7.591,7.591,0,0,0,61.051,51.4a.991.991,0,0,0-1.123-.149,1.743,1.743,0,0,0-.622,1.67,1.832,1.832,0,0,0,.6,1.352,1.892,1.892,0,0,0,1.209.336,10.123,10.123,0,0,0,1.368-.134l.091-.014-.017-.248a.106.106,0,0,1,.093.053A3.487,3.487,0,0,1,62.619,53.683Z" /></g></svg>