<svg xmlns="http://www.w3.org/2000/svg" viewBox="48.29999999999999 48.0 415.4 415.99000000000007" x="0px" y="0px"><title>clothes-fashion-female cloths-denim skirt-mini skirt-skirt</title><g><path d="M463.34,447.02c-5.07.3-10.12.58-15.07.84a2.437,2.437,0,0,1-.27.01,5,5,0,0,1-.27-9.99c5.01-.27,10.11-.55,15.23-.85l-6.6-172.15-6.35-34.56A143.716,143.716,0,0,1,328.23,96H309.6c.32,2.4.68,4.78,1.1,7.14a5,5,0,0,1-4.07,5.78,4.238,4.238,0,0,1-.86.08,4.993,4.993,0,0,1-4.92-4.14c-.52-2.92-.95-5.88-1.33-8.86H280V240a40.061,40.061,0,0,1-27,37.82V442.97c2.08,0,4.15.01,6,.01V440a5,5,0,0,1,10,0v16.97a5,5,0,0,1-10,0v-3.99c-1.85,0-3.92-.01-6-.01v10.91l3,.11,207.7-7.69ZM269,424a5,5,0,0,1-10,0V408a5,5,0,0,1,10,0Zm0-32a5,5,0,0,1-10,0V376a5,5,0,0,1,10,0Zm0-32a5,5,0,0,1-10,0V344a5,5,0,0,1,10,0Zm0-32a5,5,0,0,1-10,0V312a5,5,0,0,1,10,0Zm0-32a5,5,0,0,1-10,0V280a5,5,0,0,1,10,0Zm158.23-49.86a5,5,0,0,1,6.26-3.28c5.11,1.6,10.35,2.98,15.56,4.1a5,5,0,0,1-1.05,9.89,4.745,4.745,0,0,1-1.05-.11c-5.51-1.19-11.05-2.65-16.44-4.33A5,5,0,0,1,427.23,246.14ZM416,232a8,8,0,1,1-8,8A8,8,0,0,1,416,232Zm-64.66-35.59a5,5,0,0,1,7.07.11c4.06,4.19,8.38,8.23,12.83,12.01a5,5,0,0,1-6.48,7.62c-4.69-3.98-9.25-8.25-13.53-12.67A5,5,0,0,1,351.34,196.41Zm-23.95-32.67a4.982,4.982,0,0,1,6.87,1.65,180.47,180.47,0,0,0,13.62,19.26,5,5,0,1,1-7.76,6.3,190.06,190.06,0,0,1-14.38-20.34A4.982,4.982,0,0,1,327.39,163.74ZM312,112a8,8,0,1,1-8,8A8,8,0,0,1,312,112Zm.08,340.55c-7.98.12-16.06.22-24.04.29H288a5,5,0,0,1-.04-10c7.95-.07,16.01-.17,23.96-.29H312a5,5,0,0,1,.08,10Zm4.68-298.37c-2.59-5.35-4.94-10.88-7.01-16.44a5,5,0,0,1,9.38-3.48c1.95,5.27,4.18,10.5,6.63,15.56a5,5,0,0,1-9,4.36Zm35.37,297.53c-8.02.21-16.1.4-24.03.56H328a5,5,0,0,1-.1-10c7.9-.16,15.97-.35,23.97-.56a5,5,0,1,1,.26,10Zm40.06-1.29c-7.97.3-16.06.58-24.03.83H368a5,5,0,0,1-.16-10c7.96-.25,16.02-.52,23.97-.82a1.275,1.275,0,0,1,.19-.01,5,5,0,0,1,.19,10Zm5.44-211.85a190.224,190.224,0,0,1-16.43-9.94,5,5,0,0,1,5.6-8.28,180.81,180.81,0,0,0,15.57,9.41,5.006,5.006,0,0,1-2.37,9.41A5.084,5.084,0,0,1,397.63,238.57Zm34.61,210.11c-8.07.4-16.15.77-24.03,1.1H408a5,5,0,0,1-.21-9.99c7.85-.33,15.92-.7,23.97-1.09a5,5,0,1,1,.48,9.98ZM240,442.95h3V279.88c-.99.07-1.99.12-3,.12a8,8,0,0,1-8-8V96H211.48c-.37,2.97-.81,5.93-1.33,8.86a4.993,4.993,0,0,1-4.92,4.14,4.335,4.335,0,0,1-.87-.08,4.985,4.985,0,0,1-4.06-5.78c.42-2.37.78-4.75,1.1-7.14H183.77A143.716,143.716,0,0,1,61.99,230.32l-6.35,34.56-6.6,172.15c5.12.3,10.22.58,15.23.85a5,5,0,0,1-.27,9.99,2.437,2.437,0,0,1-.27-.01c-4.95-.26-10-.54-15.07-.84l-.36,9.28L243,463.51V452.95h-3.02a5,5,0,0,1,.02-10ZM200,112a8,8,0,1,1-8,8A8,8,0,0,1,200,112Zm-35.91,71.44a181.522,181.522,0,0,0,12.65-18.05,5,5,0,0,1,8.53,5.22,191.7,191.7,0,0,1-13.36,19.06,5,5,0,0,1-7.82-6.23Zm-28.66,28.65a180.678,180.678,0,0,0,17.16-15.57,5,5,0,0,1,7.18,6.96,190.368,190.368,0,0,1-18.11,16.43,5,5,0,0,1-7.02-.79A5,5,0,0,1,135.43,212.09ZM96,232a8,8,0,1,1-8,8A8,8,0,0,1,96,232ZM65.08,256.52a5,5,0,0,1-2.16-9.77c5.23-1.16,10.46-2.57,15.56-4.19a5,5,0,0,1,3.04,9.52C76.14,253.8,70.6,255.29,65.08,256.52ZM104,449.78h-.21c-7.88-.33-15.96-.7-24.03-1.1a5,5,0,0,1,.48-9.98c8.05.39,16.12.76,23.97,1.09a5,5,0,0,1-.21,9.99Zm8-211.15a5,5,0,0,1-2.39-9.39c2.61-1.43,5.23-2.95,7.78-4.51a5,5,0,0,1,5.22,8.53c-2.69,1.65-5.45,3.25-8.22,4.76A5.027,5.027,0,0,1,112,238.63Zm32,212.62h-.16c-7.97-.25-16.06-.53-24.03-.83a5,5,0,1,1,.38-9.99c7.95.3,16.01.57,23.97.82a5,5,0,0,1-.16,10Zm40,1.02h-.1c-7.93-.16-16.01-.35-24.03-.56a5,5,0,1,1,.26-10c8,.21,16.07.4,23.97.56a5,5,0,0,1-.1,10ZM189.74,157a5.007,5.007,0,0,1-4.5-7.18c2.45-5.06,4.68-10.3,6.63-15.56a5,5,0,0,1,9.38,3.48c-2.06,5.56-4.42,11.09-7,16.44A5.017,5.017,0,0,1,189.74,157ZM224,452.84h-.04c-7.98-.07-16.06-.17-24.04-.29a5,5,0,0,1,.08-10h.08c7.95.12,16.01.22,23.96.29a5,5,0,0,1-.04,10ZM88,48V80h40V48Zm296,0V80h40V48Zm41.34,48H344.25A127.755,127.755,0,0,0,446.93,213.54ZM352,48V80h16V48ZM248,96V262.63A24.044,24.044,0,0,0,264,240V96Zm16-40a8,8,0,1,0,8,8A8.011,8.011,0,0,0,264,56ZM144,48V80h16V48ZM86.66,96,65.07,213.54A127.755,127.755,0,0,0,167.75,96ZM246.13,48H176V80h70.13a23.946,23.946,0,0,1,0-32Zm35.74,0a23.946,23.946,0,0,1,0,32H336V48Z" /></g></svg>