<svg xmlns="http://www.w3.org/2000/svg" data-name="Layer 1" viewBox="2.071345133702799 1.7752176298199145 5.857335748984732 6.449742548654253" x="0px" y="0px"><title>KAMASUTRA</title><path d="M3.59758,4.81734c.00032-.01453-.02164-.01712-.02273-.00227a.75859.75859,0,0,1-.04966.1836c-.01923.05684-.04172.11287-.06457.16835a3.48916,3.48916,0,0,0-.12929.34,4.63551,4.63551,0,0,1-.18552.655L3.143,6.16792c-.01656-.06224-.03865-.12333-.05748-.18486q-.032-.10453-.0597-.21035c-.02079-.0787-.03839-.15819-.05883-.237-.00941-.03628-.01925-.07263-.03058-.10835-.00631-.01991-.01256-.03988-.01931-.05965-.00748-.02192-.02086-.04453-.026-.06684a.01143.01143,0,0,0-.02257.00357c.003.03367-.00324.07-.00191.10427.00151.03879.00527.07681.0103.11528a2.01075,2.01075,0,0,0,.04114.20749q.02663.11117.05861.22107a.28355.28355,0,0,1-.0162.05544.43341.43341,0,0,1-.03439.064,1.01431,1.01431,0,0,1-.09568.11578,1.48531,1.48531,0,0,0-.19271.26026.986.986,0,0,0-.113.30256c-.01087.059-.01693.11887-.02411.17845q-.00534.04433-.00934.08874c-.003.03372-.00176.06848-.00647.10183l-.0001.0036A1.63763,1.63763,0,0,1,2.4,7.30392c-.12149.21677-.40347.40931-.31.69084.00991.02985.06212.01482.05334-.01573a.39969.39969,0,0,1,.08954-.33311c.07064-.09726.15733-.18156.2192-.28531.116-.19449.1624-.42471.29472-.60993a1.84177,1.84177,0,0,1,.24079-.249,1.02468,1.02468,0,0,0,.20826-.26481A2.97165,2.97165,0,0,0,3.387,5.59124a3.604,3.604,0,0,1,.13377-.37682,1.449,1.449,0,0,0,.06088-.19088.52227.52227,0,0,0,.01652-.10166C3.59909,4.88721,3.59681,4.85216,3.59758,4.81734ZM2.942,6.43724a2.22892,2.22892,0,0,0-.24568.25116,1.23563,1.23563,0,0,0-.15036.28213l.00614-.03632c.00959-.05931.0181-.119.03011-.17785a.85646.85646,0,0,1,.13762-.31153,2.4274,2.4274,0,0,1,.20739-.24689.57822.57822,0,0,0,.08768-.1221l.02294.06789c.011.03141.02028.06293.02969.09479.00294.01.00655.02505.01212.039A1.04617,1.04617,0,0,1,2.942,6.43724Z" /><path d="M2.79489,8.07555a.84981.84981,0,0,0-.15685-.017c-.0554-.0097-.10055-.04363-.15531-.05414a.4717.4717,0,0,0-.14392.001.29831.29831,0,0,1-.14822-.001c-.01762-.00692-.02693.01627-.01448.0274a.2103.2103,0,0,0,.1392.0494.96157.96157,0,0,1,.15452.00176.51756.51756,0,0,1,.08262.034.27683.27683,0,0,0,.07784.019.27987.27987,0,0,0,.17-.02772A.01923.01923,0,0,0,2.79489,8.07555Z" /><path d="M4.06278,5.55253c-.03174.04586-.06856.08769-.10006.13388s-.06142.0933-.09211.13993c-.06146.09338-.12427.186-.18913.2771-.12983.18229-.26715.3591-.41387.52813-.14875.17137-.31005.33127-.45292.50778a2.8024,2.8024,0,0,0-.20283.27274c-.05931.09493-.12725.1861-.18012.28489a.12943.12943,0,0,0,.00141.13633.34976.34976,0,0,0,.1312.11047,1.23289,1.23289,0,0,0,.16678.07452,1.45249,1.45249,0,0,0,.1782.05046c.01812.00446.02907-.022.01039-.02792a.95625.95625,0,0,1-.14312-.06208A.72335.72335,0,0,1,2.641,7.89545c-.03846-.032-.0817-.05782-.12189-.08751-.013-.00962-.03974-.01912-.04436-.03308-.00687-.02071.01831-.05362.02978-.07126l.00773.0048a.374.374,0,0,0,.16879.00238c.06085-.00262.12459.00486.18489-.00229a.00839.00839,0,0,0,.0016-.016.60257.60257,0,0,0-.1752-.03781,1.16059,1.16059,0,0,0-.14778-.01322q.05868-.08921.12241-.17511a.33721.33721,0,0,0,.077.10287.43674.43674,0,0,0,.13919.06948c.013.00552.02461-.01539.01177-.02227a.41877.41877,0,0,1-.0984-.09623.67928.67928,0,0,1-.08074-.10991l-.00319-.00463c.0586-.07656.11959-.15132.18208-.22451.03926-.046.07969-.09089.12061-.13535L3.015,7.04843q-.00688.08593-.01142.17207c-.006.11136-.00079.22542-.01791.3358a.39553.39553,0,0,1-.05577.14658.48019.48019,0,0,0-.06033.12632.20347.20347,0,0,0,.00059.10826.11365.11365,0,0,0,.063.07265c.01677.00908.03405-.01309.01764-.02491a.11412.11412,0,0,1-.03307-.09993.25.25,0,0,1,.05077-.11284.62739.62739,0,0,0,.068-.11779.51283.51283,0,0,0,.02925-.1392c.01019-.10409.023-.208.0314-.31223.00409-.05067.00834-.10134.01134-.15209.00158-.02666.00138-.05316.00093-.07985L3.10923,6.945c.0772-.0821.1547-.16394.22871-.249.10268-.118.20166-.23958.29559-.36481L3.631,6.36554a1.67968,1.67968,0,0,1-.02552.16948,3.07051,3.07051,0,0,1-.09371.32907c-.03567.11154-.07083.22326-.10721.33457-.03427.10484-.07342.2094-.09894.31682a.39409.39409,0,0,0-.0133.16.22178.22178,0,0,0,.05926.14171c.01555.01331.03706-.00419.035-.02176a.5106.5106,0,0,1-.01431-.13824c.00464-.03172.00848-.06309.01414-.0943l.00821.0165a.34866.34866,0,0,0,.129.13171.55009.55009,0,0,0,.16557.0644,1.51126,1.51126,0,0,0,.18934.01924c.01552.00161.02223-.023.00635-.02737-.05115-.01421-.09871-.037-.14862-.05484A.87755.87755,0,0,1,3.598,7.65075.419.419,0,0,1,3.4831,7.556a.23038.23038,0,0,1-.03845-.06222c-.00953-.02364-.011-.04963-.02058-.073.02267-.07493.04738-.14939.07078-.22392a6.10282,6.10282,0,0,0,.19079-.64114.68092.68092,0,0,0,.00229-.29821l.04657-.06518c.069-.09812.13538-.19793.19753-.30055.03116-.05145.06106-.10345.08952-.15644.02891-.05384.04809-.1106.0728-.16617C4.10269,5.55043,4.07427,5.53593,4.06278,5.55253Z" /><path d="M3.95369,5.02376C3.88576,4.97589,3.8179,4.93,3.74678,4.887c-.068-.04115-.13577-.08221-.20189-.12631a4.18334,4.18334,0,0,1-.38868-.2932,1.13424,1.13424,0,0,1-.16264-.16026A1.08826,1.08826,0,0,1,2.881,4.09289a3.74171,3.74171,0,0,0-.26423-.37778,1.688,1.688,0,0,1-.12133-.24289c-.01951-.04564-.0383-.0916-.05958-.13646-.02229-.047-.04932-.091-.07377-.13688-.00423-.00793-.01828-.00435-.01568.00516.02355.08629.04606.17037.07732.25441a2.13512,2.13512,0,0,0,.09777.23038,1.266,1.266,0,0,0,.13345.20288,1.36427,1.36427,0,0,1,.13841.1961c.03823.07191.06261.15058.10615.21976a.84719.84719,0,0,0,.15721.17711,3.90865,3.90865,0,0,0,.3901.30644q.11594.07977.23723.15143a1.31818,1.31818,0,0,0,.2535.11421A.01861.01861,0,0,0,3.95369,5.02376Z" /><path d="M4.18313,5.56006a.32251.32251,0,0,0-.08387-.20992A1.22729,1.22729,0,0,1,4.029,5.23785c-.01035-.0184-.01986-.03718-.02971-.05585-.01133-.02146-.027-.0406-.03793-.06189-.00606-.0118-.02137-.00144-.01924.00934.0042.02129.00436.04248.01034.06362a.54709.54709,0,0,0,.02209.05947.94308.94308,0,0,0,.05869.116.77193.77193,0,0,1,.11351.19828C4.15178,5.589,4.18188,5.57926,4.18313,5.56006Z" /><path d="M3.92306,4.73541c-.00351-.00415-.09981-.12689-.12732-.16322A1.31221,1.31221,0,0,0,3.512,4.2808,1.21188,1.21188,0,0,1,3.35606,4.162a.32127.32127,0,0,1-.09544-.17878,1.923,1.923,0,0,0-.03949-.226,1.33,1.33,0,0,0-.08274-.19657,1.4122,1.4122,0,0,1-.0955-.22454.62073.62073,0,0,1-.02417-.11525.41849.41849,0,0,0-.0191-.1321.00988.00988,0,0,0-.01862.00357.76076.76076,0,0,0-.00306.23667.84764.84764,0,0,0,.075.2019c.03162.06627.06582.13154.09132.20053a1.01844,1.01844,0,0,1,.04234.23325.401.401,0,0,0,.07489.19945.66665.66665,0,0,0,.15365.132,1.34215,1.34215,0,0,1,.1591.121,1.39254,1.39254,0,0,1,.1418.162c.04794.06214.09369.126.14377.18648a.74818.74818,0,0,0,.18518.15024c.01368.00872.02523-.01044.01356-.02046A1.32919,1.32919,0,0,1,3.92306,4.73541Z" /><path d="M4.54614,5.39348c-.02384-.043-.05434-.08056-.08188-.121-.0208-.03057-.03824-.06454-.06153-.09352.02645.00472.05182.005.07942.00752a.01014.01014,0,0,0,.00426-.01981.624.624,0,0,1-.08312-.03745c-.02549-.0122-.05117-.02437-.076-.03792a1.25,1.25,0,0,1-.14378-.09766.01892.01892,0,0,0-.01272-.00373.24174.24174,0,0,0-.02525-.01705.01056.01056,0,0,0-.01466.0126.39514.39514,0,0,0,.0857.115,1.354,1.354,0,0,0,.11653.09889.6985.6985,0,0,1,.08483.12274.3808.3808,0,0,0,.101.102C4.53831,5.4368,4.55523,5.40986,4.54614,5.39348Z" /><path d="M4.28524,5.59775a.29712.29712,0,0,0-.02065-.13712c-.007-.022-.01389-.044-.02127-.0659-.007-.02082-.02665-.05436-.019-.07672.00316-.00924-.01165-.01675-.01721-.0087-.02761.04-.01141.0885-.00421.13362a.361.361,0,0,0,.04729.16145A.0196.0196,0,0,0,4.28524,5.59775Z" /><path d="M4.37718,5.585a.36106.36106,0,0,0-.01545-.172.39228.39228,0,0,0-.03271-.078c-.01482-.02776-.03665-.04911-.05212-.076-.00558-.00969-.01974-.00011-.01442.00957a.39925.39925,0,0,1,.02488.08127c.00768.02667.01414.05378.02125.0806.01374.05178.0186.10495.03317.15646A.0185.0185,0,0,0,4.37718,5.585Z" /><path d="M2.61664,4.11159c.03274.0424.06393.08579.09284.13059a1.75394,1.75394,0,0,1,.05273.19884l.00068.01861a.55167.55167,0,0,1-.02547.17761,1.48234,1.48234,0,0,0-.07338.22295.55424.55424,0,0,0,.02944.25231l.0012.00393c.0105.02078.0225.04088.03473.06026.01759.02785.04309.07516.07593.08777.01523.00585.02065.00632.02089-.00635a.10346.10346,0,0,0-.00939-.03694A.644.644,0,0,1,2.7535,5.0495a.41648.41648,0,0,1-.0041-.232c.014-.05123.031-.10144.04249-.15313a.81166.81166,0,0,0,.05076.07913c.01118.01634.04237.00864.0352-.01354-.01529-.04738-.02874-.097-.03938-.14569-.01082-.04949-.00243-.10058-.01051-.15048l-.005-.02267a.01311.01311,0,0,0,.004-.01283.957.957,0,0,0-.04446-.1407.70813.70813,0,0,0-.06343-.133,1.41666,1.41666,0,0,0-.2-.22829.85277.85277,0,0,1-.179-.24722,1.79067,1.79067,0,0,1-.12467-.30022.91205.91205,0,0,1-.014-.39279c.0022-.01189-.016-.01718-.01823-.00516a1.2579,1.2579,0,0,0-.04147.33778,1.00636,1.00636,0,0,0,.09711.31909,1.0479,1.0479,0,0,0,.15877.27243C2.46751,3.96079,2.55116,4.0268,2.61664,4.11159Z" /><path d="M2.709,2.73075a.129.129,0,0,0-.08209.00418.39361.39361,0,0,0-.17.10518.009.009,0,0,0,.00979.01487.66781.66781,0,0,1,.14774-.04558.192.192,0,0,1,.061-.00528.17348.17348,0,0,0,.0492.00879.02892.02892,0,0,0,.02224-.01937A.05208.05208,0,0,0,2.709,2.73075Z" /><path d="M3.384,2.78489c-.03363-.01514-.07145-.01888-.10642-.03118a.40666.40666,0,0,1-.10419-.05362A.58771.58771,0,0,1,3.097,2.63028a.23306.23306,0,0,1-.06063-.08879c-.003-.01036-.01934-.00754-.01668.00317a.53878.53878,0,0,0,.03184.10986.18919.18919,0,0,0-.04746.09612.43826.43826,0,0,0,.002.11324c.00068.01008.01829.00913.01778-.00106a.28234.28234,0,0,1,.06347-.15577.3423.3423,0,0,0,.04733.04309.44124.44124,0,0,0,.11276.06137.27267.27267,0,0,0,.13314.02342C3.40837,2.8306,3.40595,2.79475,3.384,2.78489Z" /><path d="M3.92456,4.59627A1.16411,1.16411,0,0,1,3.88173,4.467a.55323.55323,0,0,0-.06063-.10549,1.48946,1.48946,0,0,0-.165-.18953.94067.94067,0,0,1-.16118-.20522,1.32047,1.32047,0,0,1-.062-.13519c-.01056-.02586-.02188-.05223-.03237-.07881-.0016-.03044-.00367-.06086-.00567-.09127a.36369.36369,0,0,0-.01742-.11271A.19475.19475,0,0,0,3.39466,3.454a1.0409,1.0409,0,0,0-.07-.21921,2.41333,2.41333,0,0,0-.05713-.23514c-.0208-.05194-.06438-.13416-.12309-.15-.00685-.00185-.01508.00524-.011.0124.01493.026.03652.04665.05006.07392a.353.353,0,0,1,.02713.08732c.01428.06935.02029.14025.0376.209.01628.06466.05084.12185.069.18552a.19265.19265,0,0,1-.03669.17838A.02166.02166,0,0,0,3.309,3.6288l.01674-.01293c.00074.01919.00275.03854.00421.058.00371.04949.0073.099.01335.14825a.92316.92316,0,0,0,.05314.2736c.00489.01071.02008.00287.01619-.00778A.45473.45473,0,0,1,3.40428,3.943L3.404,3.91019a.73.73,0,0,0,.0278.0751.75568.75568,0,0,0,.15521.21685c.059.06146.12523.11788.18031.18284a.52079.52079,0,0,1,.06836.10415.63343.63343,0,0,0,.0661.12213C3.91138,4.62321,3.93218,4.60991,3.92456,4.59627Z" /><path d="M3.27784,4.80909a.38434.38434,0,0,0-.11592-.12162.32336.32336,0,0,0-.06977-.037.384.384,0,0,0-.04054-.01322c-.01593-.00412-.03295-.00052-.04855-.00538a.00932.00932,0,0,0-.00595.01764.17849.17849,0,0,1,.03583.02588l.03164.02074c.01956.01371.03872.028.05789.04219a.96974.96974,0,0,1,.10918.10112C3.25241,4.8606,3.29461,4.8378,3.27784,4.80909Z" /><path d="M3.88464,2.14834a.32531.32531,0,0,0-.14723-.25613.66877.66877,0,0,0-.15676-.06909.93509.93509,0,0,0-.17555-.044.38814.38814,0,0,0-.29063.07588.49641.49641,0,0,0-.11114.11952.54461.54461,0,0,0-.07346.14557c-.00264.00958.00936.01815.01578.00895.02348-.03367.04262-.06987.069-.1016a.67335.67335,0,0,1,.08889-.08787.37893.37893,0,0,1,.22657-.09132.76551.76551,0,0,1,.29522.07084.29746.29746,0,0,1,.18136.18159.27726.27726,0,0,1,.01478.07717.417.417,0,0,0-.10652-.05958.15981.15981,0,0,0-.12652.01441.23041.23041,0,0,0-.08531.08471c-.0144.02265-.02342.02525-.04992.02532a.25734.25734,0,0,1-.08272-.00621.01077.01077,0,0,0-.00772.02007.265.265,0,0,0,.1242.04475c.0423-.00347.05891-.03994.08241-.06994a.13207.13207,0,0,1,.11135-.05371c.04539.0068.0851.04675.12764.06326l.00917.00191a.28027.28027,0,0,1-.071.14516c-.0132.01392.00323.03786.01884.02458A.328.328,0,0,0,3.88464,2.14834Z" /><path d="M2.83038,2.34174c-.02323.02525-.04891.0484-.0713.07436a.98741.98741,0,0,1-.07193.07976.80967.80967,0,0,1-.16634.11642.95862.95862,0,0,0-.163.09719.50609.50609,0,0,0-.10871.14574c-.00526.00941.0084.01881.01415.00938a.3654.3654,0,0,1,.15131-.11266c.056-.03157.11362-.06032.16947-.09218a.4687.4687,0,0,0,.14654-.11886c.0443-.05773.082-.11915.12207-.17968C2.86153,2.3477,2.84208,2.329,2.83038,2.34174Z" /><path d="M3.28379,2.18816A.111.111,0,0,0,3.21058,2.141a.10261.10261,0,0,0-.05248.00948.38475.38475,0,0,0-.0887.01958c-.02773.0092-.05408.02175-.08193.03081a.26259.26259,0,0,1-.10405.028.00882.00882,0,0,0-.00121.01759c.02939.00312.05776.01464.08731.01587a.20815.20815,0,0,0,.08326-.01885.34339.34339,0,0,0,.04853-.02485.22931.22931,0,0,0-.0088.06751.56819.56819,0,0,0,.01478.138c.00662.02692.05119.02771.051-.003a1.29927,1.29927,0,0,1-.002-.165.079.079,0,0,1,.031-.058.06879.06879,0,0,1,.08325.0017C3.27832,2.20786,3.29147,2.1966,3.28379,2.18816Z" /><path d="M3.68959,2.02055c-.04743-.01857-.09018-.04925-.13765-.06881a.40362.40362,0,0,0-.15017-.03407.45809.45809,0,0,0-.15049.02588.76889.76889,0,0,0-.14306.072c-.01872.01086-.01116.04432.0126.03831.04617-.01167.09285-.0211.13906-.03272a.6815.6815,0,0,1,.14191-.02348.75786.75786,0,0,1,.13917.009.68986.68986,0,0,1,.14278.03115C3.69471,2.04217,3.70055,2.02484,3.68959,2.02055Z" /><path d="M3.66406,2.47538a.13829.13829,0,0,1-.04945-.023.10187.10187,0,0,0-.0445-.02277.01384.01384,0,0,0-.01446.01629.06216.06216,0,0,0,.04359.03787.25806.25806,0,0,0,.06355.00987C3.67459,2.495,3.67561,2.47706,3.66406,2.47538Z" /><path d="M3.69908,2.37346A.10828.10828,0,0,0,3.627,2.33531a.27537.27537,0,0,0-.102.01668.00767.00767,0,0,0,.00286.01506.18975.18975,0,0,1,.10026.01353c.0204.01058.02964.03616.05414.037a.02022.02022,0,0,0,.01966-.01312l.00235-.00506A.02639.02639,0,0,0,3.69908,2.37346Z" /><path d="M3.61776,2.53683a.14924.14924,0,0,0-.01672.12565.01372.01372,0,0,0,.02513-.00154.327.327,0,0,0,.00434-.057l.004-.06144A.00921.00921,0,0,0,3.61776,2.53683Z" /><path d="M3.49062,2.68a.13576.13576,0,0,0-.05226-.03193.18094.18094,0,0,1-.05367-.03771c-.00822-.00939-.021.00265-.01429.01245a.31442.31442,0,0,0,.04631.05932.08092.08092,0,0,0,.06387.0269A.018.018,0,0,0,3.49062,2.68Z" /><path d="M3.94416,8.0729a.47471.47471,0,0,1-.21972.05592c-.07479-.00119-.14917.002-.22386-.00406-.07714-.00625-.15322-.01925-.22982-.02965a.77754.77754,0,0,1-.11355-.02138.63493.63493,0,0,1-.12315-.04535.0129.0129,0,0,0-.01489.021.70657.70657,0,0,0,.10264.07087.9735.9735,0,0,0,.11912.05353.99573.99573,0,0,0,.25571.04552.6618.6618,0,0,0,.25044-.015.614.614,0,0,0,.215-.10233C3.97689,8.09,3.96188,8.064,3.94416,8.0729Z" /><path d="M3.95639,7.832a.37989.37989,0,0,1-.10251.01811c-.04105.0053-.07738.02592-.11874.029a.6482.6482,0,0,1-.2571-.03424.015.015,0,0,0-.01672.02339l0,0,.00311.00813a.50516.50516,0,0,0,.17006.13872.54323.54323,0,0,0,.103.03483c.03272.0076.07372.01756.101-.0084a.02027.02027,0,0,0,.00276-.02764.113.113,0,0,0-.076-.03544.68457.68457,0,0,1-.06925-.01981l.04044-.0013a.23.23,0,0,0,.06844-.01292.56793.56793,0,0,1,.06913-.02855c.03908-.00909.085-.01625.1063-.05456A.01983.01983,0,0,0,3.95639,7.832Z" /><path d="M7.27833,8.008a1.98609,1.98609,0,0,1-.17545-.20575,2.73283,2.73283,0,0,1-.16647-.224c-.00972-.01494-.019-.03016-.02816-.04549a.34659.34659,0,0,0,.06468.032c.04357.016.08931.02429.13317.03935.01071.00368.02067-.01263.00974-.01843-.03661-.01942-.0709-.04294-.1065-.06413a.96169.96169,0,0,1-.09589-.06225c-.03924-.03016-.07523-.06466-.1119-.09826l-.01232-.016a1.07907,1.07907,0,0,0-.17989-.1679,1.59431,1.59431,0,0,1-.18791-.1608,2.30142,2.30142,0,0,1-.15582-.219c-.05211-.07111-.11683-.13146-.17259-.19954a1.05613,1.05613,0,0,1-.13614-.22658,1.6374,1.6374,0,0,0-.09515-.19155l-.0015-.00585A.98025.98025,0,0,0,5.73492,5.938c-.05179-.06937-.10822-.13508-.164-.20127a3.84532,3.84532,0,0,0-.38443-.41961c-.13957-.123-.27806-.246-.40775-.37962q-.09917-.10218-.19334-.20907c-.05661-.06427-.11092-.13078-.1727-.19027a.59489.59489,0,0,0-.23119-.1505.34115.34115,0,0,0-.25839.02375.01125.01125,0,0,0,.0091.02056.46923.46923,0,0,1,.43488.173c.057.059.10872.12314.16318.18451q.08835.09958.18115.19508.18283.18821.38022.36131a2.09944,2.09944,0,0,1,.19136.18626c.06121.06912.1211.13945.18175.20906.06312.07244.12726.14381.18639.21962l.05421.06893a.70808.70808,0,0,0-.122-.053c-.00941-.00317-.01812.01094-.00855.01619a.79712.79712,0,0,1,.305.39959.75052.75052,0,0,0,.13986.22083,1.60082,1.60082,0,0,1,.16514.19722c.051.07259.09217.15212.14736.22177a1.05284,1.05284,0,0,0,.18053.1691,1.538,1.538,0,0,1,.18791.16058,1.33307,1.33307,0,0,1,.14761.22071,1.90444,1.90444,0,0,0,.18407.24577,1.101,1.101,0,0,0,.21694.21056C7.26841,8.05189,7.29665,8.02519,7.27833,8.008Z" /><path d="M7.03373,7.9659c-.0347-.03014-.06712-.06-.10405-.0878l-.1085-.08152C6.75093,7.7438,6.67841,7.694,6.61,7.63878a2.58235,2.58235,0,0,1-.33612-.35511c-.10521-.12433-.21952-.23808-.33492-.35279a1.92651,1.92651,0,0,1-.31232-.38113c-.083-.14024-.185-.31195-.36481-.33033-.01186-.00121-.01367.01405-.00438.0189a.88621.88621,0,0,1,.30792.35611,1.835,1.835,0,0,0,.19379.25348.40886.40886,0,0,1,.00863.06644.15184.15184,0,0,1-.00733.06315c-.0082.019-.03344.04237-.05124.01867a.01077.01077,0,0,0-.01884.00844.0573.0573,0,0,0,.05038.04253.069.069,0,0,0,.07688-.04837.18014.18014,0,0,0,.0123-.07523l.00655.00665a.16226.16226,0,0,1-.021.10637c-.01448.019-.03486.03293-.04968.05178a.21221.21221,0,0,0-.02785.04981c-.01522.03652-.02035.07635-.03639.11261a.0951.0951,0,0,1-.08559.05771L5.58792,7.2992l-.00444-.003-.00849-.002a.20382.20382,0,0,1-.09788-.07446c-.00626-.0101-.0211.00041-.01713.01053a.226.226,0,0,0,.05591.0927.291.291,0,0,0,.10209.06221.53773.53773,0,0,0,.26333.0233.27828.27828,0,0,0,.18851-.12755A.30563.30563,0,0,0,6.103,7.2031c.03323.03606.06588.07273.0975.11053a3.115,3.115,0,0,0,.31877.35064,2.09987,2.09987,0,0,0,.22874.16859c.04306.02862.08633.05693.1295.08539.04392.029.08825.05343.13394.07912A.01929.01929,0,0,0,7.03373,7.9659Zm-1.2-.63378a.60083.60083,0,0,1-.10928-.00277.23847.23847,0,0,0,.07063-.12755.20933.20933,0,0,1,.032-.07007.35832.35832,0,0,0,.05757-.06992.15047.15047,0,0,0,.01288-.07007l.01108.01111a.317.317,0,0,1,.00838.198.01037.01037,0,0,0,.01811.00957.23378.23378,0,0,0,.0487-.13182l.0394.04015A.19158.19158,0,0,1,5.83377,7.33212Z" /><path d="M7.70976,8.11962c-.02352-.00454-.048-.00519-.07112-.011s-.04438-.01647-.068-.02091a.48607.48607,0,0,0-.1528.00922.36174.36174,0,0,1-.15514-.00548,1.00228,1.00228,0,0,0-.15012-.04707c-.00812-.00107-.01527.01024-.00886.01652a.56166.56166,0,0,0,.1366.09073.29791.29791,0,0,0,.16428.02478.56643.56643,0,0,1,.179-.00858A.15879.15879,0,0,0,7.72044,8.155C7.73577,8.144,7.72536,8.12263,7.70976,8.11962Z" /><path d="M7.91538,8.065a.57584.57584,0,0,1-.15565-.04791A.97489.97489,0,0,0,7.633,7.951a.22.22,0,0,0-.13866.00229.477.477,0,0,1-.17012.02145c-.015-.00143-.0194.02144-.00422.0232a1.315,1.315,0,0,0,.15149.02242.33242.33242,0,0,1,.15144.01707.55008.55008,0,0,0,.29073.06069A.01679.01679,0,0,0,7.91538,8.065Z" /><path d="M7.58291,7.75574c-.02369-.0036-.04813-.00328-.0715-.00814s-.045-.01469-.06879-.01819a.48607.48607,0,0,0-.15231.01528.36174.36174,0,0,1-.15524.00069,1.00228,1.00228,0,0,0-.15187-.04107c-.00816-.00075-.01485.01084-.0082.01686a.56166.56166,0,0,0,.1401.08524.29791.29791,0,0,0,.16514.01823A.56643.56643,0,0,1,7.45876,7.809.15879.15879,0,0,0,7.595,7.79068C7.60987,7.779,7.59862,7.75813,7.58291,7.75574Z" /><path d="M7.78619,7.693a.57584.57584,0,0,1-.15743-.04169.97489.97489,0,0,0-.12924-.061.22.22,0,0,0-.13846.00779.477.477,0,0,1-.16913.02819c-.015-.00084-.01853.02219-.00329.02335A1.315,1.315,0,0,0,7.3409,7.666a.33242.33242,0,0,1,.152.011.55008.55008,0,0,0,.29291.0491A.01679.01679,0,0,0,7.78619,7.693Z" /><path d="M5.58245,6.68426a.39465.39465,0,0,0-.10071-.0465.16677.16677,0,0,0-.02045-.09109.40123.40123,0,0,0-.05559-.09811.00838.00838,0,0,0-.01466.00657c.00748.03635.01457.07227.02488.10814a.44292.44292,0,0,0,.01829.06666.32485.32485,0,0,0-.1085.0093.0869.0869,0,0,0-.05018.14791c.00892.00886.02353-.00234.01542-.01262-.02722-.0345-.00029-.06861.03474-.07692A.29147.29147,0,0,1,5.40082,6.693a.95373.95373,0,0,1,.17241.01593C5.58644,6.71183,5.59379,6.691,5.58245,6.68426Z" /><path d="M5.38332,6.86844a.0865.0865,0,0,0-.05886-.00838c-.02094.003-.035.00476-.04509.02221l-.00181.00107a.0106.0106,0,0,0,.00321.02007c.00719.00076.01207.00844.02.0094a.133.133,0,0,0,.0314-.004.103.103,0,0,0,.05192-.01839A.01388.01388,0,0,0,5.38332,6.86844Z" /><path d="M5.49573,7.08853c-.02065.00613-.04043.00784-.06058.01548a.10944.10944,0,0,0-.02393-.03028.09539.09539,0,0,0-.047-.02459.18719.18719,0,0,1-.0665-.01761c-.00738-.00453-.01855.00265-.01405.0115.015.02957.0457.034.07159.051a.16462.16462,0,0,1,.03688.03365l-.01724.0124a.01514.01514,0,0,0,.01565.02546l.0195-.00955.00715.02006a.01331.01331,0,0,0,.02627-.00075.12533.12533,0,0,0,.002-.03647l.00228-.0011a.48272.48272,0,0,1,.05672-.0293C5.518,7.104,5.50883,7.08464,5.49573,7.08853Z" /><path d="M4.78,5.86355a.33782.33782,0,0,0-.023-.07516.50753.50753,0,0,0-.0869-.134.76576.76576,0,0,0-.12158-.10986.23446.23446,0,0,0-.12716-.05642c-.01132-.00035-.01916.015-.00823.022a.59731.59731,0,0,1,.09913.09052c.03177.03236.06388.06431.09235.09968a.4645.4645,0,0,1,.06922.11257.43064.43064,0,0,1,.02066.0642.19088.19088,0,0,0,.027.05862.02422.02422,0,0,0,.04415-.00134A.10378.10378,0,0,0,4.78,5.86355Z" /><path d="M5.31337,6.36052A.394.394,0,0,0,5.117,6.32469a.33212.33212,0,0,1-.20427-.06088.16684.16684,0,0,1-.01744-.25292.20413.20413,0,0,1,.09308-.06108c.0128-.00267.0138-.02391-.00069-.0241a.21981.21981,0,0,0-.1111.01594.20305.20305,0,0,0-.085.08513.234.234,0,0,0,.01058.23863.29654.29654,0,0,0,.2112.12958c.09611.01311.19416-.04123.28791-.01155C5.3146,6.38766,5.32682,6.36838,5.31337,6.36052Z" /></svg>