<svg xmlns="http://www.w3.org/2000/svg" viewBox="9.133999999999999 6.239000000000001 109.725 114.35900000000001" x="0px" y="0px"><g><path d="M63.831,29.174a8.578,8.578,0,0,1-.981-.1l-.694-.286v0a10.452,10.452,0,0,1-2.312,3.448l-.642.65.913-.012c1.686-.021,3.4-.087,5.053-.15.839-.032,1.679-.064,2.519-.09l.866-.028-.717-.715a11,11,0,0,1-1.984-3.116h0l-.691.292a.162.162,0,0,1,.019-.147A2.691,2.691,0,0,1,63.831,29.174Z" /><path d="M75.487,24.372c-.977-2.609-1.793-3.842-4.651-2.785a33.628,33.628,0,0,0-4.419,2.081.528.528,0,0,1,.04.12c.008.016.008.032.016.048a4.494,4.494,0,0,1,1.225-.448,9.831,9.831,0,0,1,2.3-.176c1.264.048,1.985.144,2.009.288.024.168-.737.368-1.953.552a13.008,13.008,0,0,0-2.066.44,2.96,2.96,0,0,0-1.232.673c.432.112.872.216,1.32.328A19.591,19.591,0,0,1,71.556,26.6a7.866,7.866,0,0,1,2.538,1.753c1.217,1.3,1.441,2.4,1.313,2.457-.192.12-.729-.792-1.961-1.753a8.833,8.833,0,0,0-2.362-1.313,30.872,30.872,0,0,0-3.33-.936c-.272-.064-.528-.128-.792-.2a5.568,5.568,0,0,0,.248.832,12.354,12.354,0,0,0,3.538,4.467A48.5,48.5,0,0,0,75.967,35.7a13.421,13.421,0,0,0,.961-4.731A23.022,23.022,0,0,0,75.487,24.372Z" /><path d="M74.111,37.754l1.434.086-1.209-.776a46.321,46.321,0,0,1-3.938-2.77l-.136-.11-.172.035a.981.981,0,0,1-.183.016h0c-1.706.015-3.435.086-5.108.155-2.163.089-4.4.181-6.588.15a.783.783,0,0,1-.434-.131l-.228-.163-.221.173c-.954.751-2.008,1.513-3.221,2.33l-1.129.761,3.03-.174c2.391-.144,4.864-.293,7.293-.253,2.34.036,4.716.22,7.014.4C71.576,37.58,72.843,37.679,74.111,37.754Z" /><path d="M90.031,75.338c.088-2.617.16-5.235.2-7.844-3.01,1.873-6.724,1.681-10.255,2.073a4.26,4.26,0,0,0,5.82,2.65.589.589,0,0,1,.112-.032.556.556,0,0,1,.712.28.473.473,0,0,1,.048.112.4.4,0,0,1,.024.1l.024.048c.137,1.625,1.866,2.417,3.3,2.609Z" /><path d="M78.565,35.344l-.44-.093-.513,2,2.278.269a84.589,84.589,0,0,0,8.984.759l.412.006-.053-.644c-.049-.62-.1-1.24-.157-1.86l-.031-.345-.346,0c-.812.008-1.625.025-2.437.042A64.75,64.75,0,0,1,78.565,35.344Z" /><path d="M44.172,10.4a1.347,1.347,0,0,1,1.777,1.417c-.448,3.266,2.482,5.371,5.524,4.931h.048a1.15,1.15,0,0,1,1.633.736,2.151,2.151,0,0,0,.352.817c.048.072.112.152.176.232,3.13-.769,8.405,2.657,10.318,3.738,1.913-1.081,7.2-4.507,10.326-3.738a1.852,1.852,0,0,0,.168-.232,2.435,2.435,0,0,0,.352-.817,1.15,1.15,0,0,1,1.633-.736h.048c3.042.44,5.972-1.665,5.524-4.931A1.347,1.347,0,0,1,83.828,10.4c1.881-.1,2.337-1.905,2.449-3.674-7.941-.512-15.889-.4-23.838-.168-6.892.208-13.808.04-20.7.368C41.867,8.627,42.355,10.292,44.172,10.4Zm28.481,2.626.665.28a3.612,3.612,0,0,0,1.128.336,2.658,2.658,0,0,0,2.53-.873,2.046,2.046,0,0,0-.32-2.233L75.375,8.651,77.36,9.692A2.8,2.8,0,0,0,79.121,10a2.556,2.556,0,0,0,1.273-.641,3.525,3.525,0,0,0,.624-.776c.136-.208.24-.312.288-.3s.064.168.024.416a2.4,2.4,0,0,1-.448,1.081,2.758,2.758,0,0,1-.608.616c-.128.088-.265.192-.417.28-.168.064-.336.136-.512.2a3.173,3.173,0,0,1-1.121.136,1.5,1.5,0,0,1,.128.393,2.622,2.622,0,0,1-.28,2.041,3.252,3.252,0,0,1-1.689,1.313,4.58,4.58,0,0,1-2.1.216,3.828,3.828,0,0,1-.96-.232A6.217,6.217,0,0,1,72.165,16.1a9.534,9.534,0,0,1-1.753,1.225,15.193,15.193,0,0,1-3.21,1.3c-1.881.528-3.074.536-3.106.376-.032-.184,1.089-.5,2.81-1.225A19.463,19.463,0,0,0,69.8,16.3a6.451,6.451,0,0,0,2.586-2.657ZM56.716,8.483c.064-.192.128-.288.176-.288s.1.112.136.312a2.29,2.29,0,0,0,.064.36c.04.112.088.248.144.4a1.821,1.821,0,0,0,.728.825,1.849,1.849,0,0,0,1.337.184l.657-.144-.032.712A2.482,2.482,0,0,0,61.1,13.086a4.684,4.684,0,0,0,3.178.64,3.673,3.673,0,0,0,2.225-1.089,3.288,3.288,0,0,0,.809-2.049l.072-1.065.833.585a1.755,1.755,0,0,0,1.672.3,1.472,1.472,0,0,0,.865-1.033c.184-.848-.1-1.424.048-1.48.056-.024.168.08.328.32a2.342,2.342,0,0,1,.3,1.248,2.186,2.186,0,0,1-1.112,1.8,2.414,2.414,0,0,1-1.345.3,3.47,3.47,0,0,1-.56-.112,4.112,4.112,0,0,1-.937,2.057,4.8,4.8,0,0,1-3,1.553,5.694,5.694,0,0,1-4.114-.929A3.759,3.759,0,0,1,59.1,12.549a3.217,3.217,0,0,1-.248-1.224,2.664,2.664,0,0,1-1.393-.545,2.325,2.325,0,0,1-.8-1.345A1.954,1.954,0,0,1,56.716,8.483Zm-10.03-.192c.056-.016.16.088.3.3a3.525,3.525,0,0,0,.624.776A2.556,2.556,0,0,0,48.879,10a2.8,2.8,0,0,0,1.761-.312l1.985-1.041-1.281,1.881a2.046,2.046,0,0,0-.32,2.233,2.658,2.658,0,0,0,2.53.873,3.612,3.612,0,0,0,1.128-.336l.665-.28.264.616A6.451,6.451,0,0,0,58.2,16.3a19.463,19.463,0,0,0,2.9,1.481c1.721.729,2.842,1.041,2.81,1.225-.032.16-1.225.152-3.106-.376a15.193,15.193,0,0,1-3.21-1.3A9.534,9.534,0,0,1,55.835,16.1a6.217,6.217,0,0,1-1.153-1.352,3.828,3.828,0,0,1-.96.232,4.58,4.58,0,0,1-2.105-.216,3.252,3.252,0,0,1-1.689-1.313,2.622,2.622,0,0,1-.28-2.041,1.5,1.5,0,0,1,.128-.393,3.173,3.173,0,0,1-1.121-.136c-.176-.064-.344-.136-.512-.2-.152-.088-.289-.192-.417-.28a2.758,2.758,0,0,1-.608-.616,2.535,2.535,0,0,1-.456-1.081C46.63,8.459,46.638,8.315,46.686,8.291Z" /><path d="M49.071,33.346c-.048-.241-.088-.489-.128-.729a1.849,1.849,0,0,1-.48.112l-.3.024-.152.008-.072.008H47.83l-.072-.016a7.744,7.744,0,0,1-2.569-.808,6.249,6.249,0,0,0-.649-.224c-.1-.008-.2,0-.3-.008a.62.62,0,0,0-.3.008,2.625,2.625,0,0,0-.616.168c-.208.1-.416.192-.617.288l-.936.424-.04-.944a19.517,19.517,0,0,1,.328-3.787,16.158,16.158,0,0,0,.24-2.825,9.4,9.4,0,0,0-.224-1.817c-.12-.433-.168-.689-.1-.721s.248.144.5.537a5.48,5.48,0,0,1,.649,1.921,12.874,12.874,0,0,1,.056,3.025c-.056.833-.16,1.713-.176,2.61a3.444,3.444,0,0,1,.752-.2,3.665,3.665,0,0,1,1.025,0,5.642,5.642,0,0,1,.92.3c.841.384,2.177,1.113,3.01.648a.324.324,0,0,0,.072-.04,10.942,10.942,0,0,1,.16-2.985c.24-1.217.544-2.466.913-3.683a.136.136,0,0,1,.008-.056c.072-.648.24-.992.32-.976a21.182,21.182,0,0,1,1.633-3.61,4.515,4.515,0,0,1-.577-.857c-4.074.208-7.428-2.369-7.668-6.364a3.884,3.884,0,0,1-2.642-1.36c-.248,7.356-.856,14.68-1.481,22.005C42.667,33.458,45.869,33.626,49.071,33.346Z" /><path d="M71.749,75.4A16.179,16.179,0,0,1,69.6,74.114c-.3-.216-.608-.457-.92-.713a11.23,11.23,0,0,0,4.739,6.148c1.865,1.049,3.394,1.1,3.458-1.353.024-1.048.088-2.081.16-3.13.128-2.1.608-5.355-.729-7.164-1.721-2.337-6.243-.192-7.9,1.673a1.78,1.78,0,0,1,.3.008,4.371,4.371,0,0,1,.736.128c.456.12.841.264,1.217.4.736.289,1.361.561,1.881.785s.937.384,1.2.488c.264.12.48.152.472.248-.008.072-.136.2-.5.224a4.83,4.83,0,0,1-1.433-.12c-.576-.12-1.249-.312-1.977-.512-.368-.088-.753-.2-1.129-.272a2.712,2.712,0,0,0-.544-.064.56.56,0,0,0-.208.008h-.04V70.9a.587.587,0,0,0,.088.272,5.211,5.211,0,0,0,.856,1.033c.336.328.689.632,1.033.912.688.568,1.345,1.057,1.9,1.465,1.113.832,1.809,1.289,1.761,1.449C73.95,76.235,73.021,76.051,71.749,75.4Z" /><path d="M84.849,41.8a7.1,7.1,0,0,1,1.932,2.162,7.341,7.341,0,0,1,.556,1.952c.244,1.308.5,2.659,2.262,3.256l.532.18-.038-.561q-.288-4.264-.64-8.514l-.028-.344-.511.008c-1.946-.018-3.879-.192-5.345-.343l-.85-.087.511.685A10.24,10.24,0,0,0,84.849,41.8Z" /><path d="M52.513,24.372a20.154,20.154,0,0,0-1.441,6.6,18.182,18.182,0,0,0,.993,4.723,32.461,32.461,0,0,0,5.947-4.5,10.976,10.976,0,0,0,2.706-4.506c-.152.04-.312.08-.472.12a30.872,30.872,0,0,0-3.33.936,8.833,8.833,0,0,0-2.362,1.313c-1.232.961-1.769,1.873-1.961,1.753-.128-.056.1-1.153,1.313-2.457A7.866,7.866,0,0,1,56.444,26.6a19.591,19.591,0,0,1,3.482-1.105c.424-.1.832-.208,1.24-.3.008-.024.016-.048.024-.08a3,3,0,0,0-1.176-.617,13.008,13.008,0,0,0-2.066-.44c-1.216-.184-1.977-.384-1.953-.544s.745-.248,2.009-.3a9.831,9.831,0,0,1,2.3.176,4.59,4.59,0,0,1,1.225.448c.008-.016.008-.032.016-.048a.606.606,0,0,1,.048-.128,22.225,22.225,0,0,0-4.427-2.073C54.322,20.73,53.458,21.587,52.513,24.372Z" /><path d="M44.557,84.512a.5.5,0,0,1,.128-.088c2.937-1.3,7.644-1.025,9.469,2.113-.3-.5,5.051-1.929,5.363-1.977a22.059,22.059,0,0,1,5.668.072.505.505,0,0,1,.32-.088c2.97.032,5.9.368,8.253,2.209a7.721,7.721,0,0,1,9.557-2.329.381.381,0,0,1,.089.064,15.8,15.8,0,0,1,6.4-3.314q.1-2.33.184-4.643c-1.865-.256-3.73-1.169-4.306-2.962A5.681,5.681,0,0,1,79.6,71.552c.024,1.713-.168,3.426-.256,4.683-.112,1.585.32,4.5-1.1,5.7-1.52,1.289-3.274.953-5.027.224a13.344,13.344,0,0,1-6.812-7.884,5.437,5.437,0,0,1-4.81-.056c-1.185,3.682-4.211,7.34-7.589,8.261-4.955,1.352-5.067-2.41-5.355-6.244a45.523,45.523,0,0,1-.224-4.723,5.688,5.688,0,0,1-6.116,2.057c-.576,1.785-2.417,2.69-4.266,2.954.056,1.553.12,3.106.176,4.659A15.033,15.033,0,0,1,44.557,84.512Z" /><path d="M95.659,29.976c.072,1.232.136,2.457.184,3.69a34.122,34.122,0,0,0,14.993-1.345c-.689-2.281-1.033-4.747-1.521-6.8a94.7,94.7,0,0,1-2.85-17.13Q99.681,7.763,92.913,7.01c-.264,4.122.945,8.013,1.561,12.071C95.026,22.7,95.443,26.325,95.659,29.976Zm-.24-17.283c.192,0,.584,1.577,1.072,4.123.256,1.281.48,2.817.817,4.506.36,1.7.736,3.563,1.1,5.532.12.6.232,1.2.337,1.785a15.358,15.358,0,0,0,.352,1.625,1.553,1.553,0,0,0,.24.5.354.354,0,0,0,.3.12,3.2,3.2,0,0,0,1.233-.32l.04-.016a3.261,3.261,0,0,0,.928-.769,2.619,2.619,0,0,1,1.4-.872,1.194,1.194,0,0,1,.729.152,3.257,3.257,0,0,1,.424.272c.112.088.224.176.328.256l.1.08a2.214,2.214,0,0,0,.881-.4,1.332,1.332,0,0,0,.272-.728c.056-.5.056-.833.144-.833.072,0,.216.248.3.817a1.526,1.526,0,0,1,.016.512,1.452,1.452,0,0,1-.216.632,2.732,2.732,0,0,1-1.217.817c-.008,0-.016.008-.024.008a.657.657,0,0,1-.24.04l-.144-.024a1.762,1.762,0,0,1-.168-.072,2.4,2.4,0,0,1-.208-.12c-.761-.472-.945-.448-1.593.232a3.823,3.823,0,0,1-1.257,1.1,4.2,4.2,0,0,1-1.777.5,1.617,1.617,0,0,1-1.185-.488,2.6,2.6,0,0,1-.552-.977,15.058,15.058,0,0,1-.424-1.785c-.112-.584-.232-1.185-.344-1.785-.377-1.969-.713-3.842-1.009-5.547-.264-1.713-.4-3.282-.536-4.595C95.3,14.35,95.234,12.717,95.419,12.693Z" /><path d="M102.119,67.526c2.5-.8,4.9-1.833,7.428-2.538,2.617-.736,5.483-1.328,7.6-3.138-.064-.328-.112-.648-.176-.968-5.163,1.3-9.95,3.77-15.113,4.875A2.89,2.89,0,0,1,102.119,67.526Z" /><path d="M95.978,35.7l-.435-.054.07,2.445.352.013q1.073.039,2.139.038a106.572,106.572,0,0,0,14.792-1.29l.649-.091-.406-.513a9.335,9.335,0,0,1-1.115-1.824l-.138-.3-.313.1A36.751,36.751,0,0,1,95.978,35.7Z" /><path d="M98.644,69.687c-.16-.48.289-.776.681-.72.016,0,.024-.016.04-.016a1.865,1.865,0,0,0,.976-.5.531.531,0,0,1,.385-.48,1.79,1.79,0,0,0-.024-1.841,1.013,1.013,0,0,1-.048-.144,21.705,21.705,0,0,1-3.835.336,1.689,1.689,0,0,1-.208-.016q.1,3.723.176,7.444A3.6,3.6,0,0,0,98.644,69.687Z" /><path d="M101.5,68.983a2.853,2.853,0,0,1-1.561,1.064,4.947,4.947,0,0,1-3.13,5.011c.016,1.081.032,2.154.048,3.234,7.061-3.6,14.305-6.844,21.341-10.5-.264-1.537-.544-3.074-.816-4.611a20.251,20.251,0,0,1-6.636,2.714C107.61,66.773,104.632,68.086,101.5,68.983Z" /><path d="M98.66,42.4h0a2.537,2.537,0,0,0,2.012-2.217l.058-.44-.443.015c-1.437.05-2.866.046-4.247-.008l-.4-.016.007.4c.056,2.78.095,5.56.136,8.395l.007.494.475-.14c2.6-.765,2.6-4.377,2.238-6.18A.242.242,0,0,1,98.66,42.4Z" /><path d="M51.016,75.675c.08,1.064.04,2.153.144,3.218.281,2.745,3.41.9,4.531-.193a13.808,13.808,0,0,0,3.658-5.323,10.835,10.835,0,0,1-.944.737A16.179,16.179,0,0,1,56.251,75.4c-1.272.649-2.2.833-2.257.633-.048-.16.648-.617,1.761-1.449.552-.408,1.209-.9,1.9-1.465.344-.28.7-.584,1.033-.912a5.211,5.211,0,0,0,.856-1.033.587.587,0,0,0,.088-.272V70.9a.629.629,0,0,0-.248-.008,2.712,2.712,0,0,0-.544.064c-.376.072-.761.184-1.129.272-.728.2-1.4.392-1.977.512a4.83,4.83,0,0,1-1.433.12c-.368-.024-.5-.152-.5-.224-.008-.1.208-.128.472-.248.264-.1.689-.264,1.2-.488s1.145-.5,1.881-.785c.376-.136.761-.28,1.217-.4a4.371,4.371,0,0,1,.736-.128,1.684,1.684,0,0,1,.288-.008c-1.825-1.977-7.26-4.371-8.253-.913A19.853,19.853,0,0,0,51.016,75.675Z" /><path d="M38.009,75.33c1.424-.2,3.137-.984,3.274-2.6l.024-.048a.4.4,0,0,1,.024-.1.473.473,0,0,1,.048-.112.556.556,0,0,1,.712-.28.589.589,0,0,1,.112.032,4.26,4.26,0,0,0,5.82-2.65c-3.515-.384-7.205-.2-10.214-2.049C37.849,70.119,37.921,72.729,38.009,75.33Z" /><path d="M65.89,69.606l-.5-.164-.178.292,0,0,.15-.3h0a3.387,3.387,0,0,0-2.932-.088l-.471.2.338.387a3.155,3.155,0,0,1,.638,2.353l-.03.314.306.082a3.614,3.614,0,0,0,.931.125,3.163,3.163,0,0,0,.642-.064l.334-.07-.037-.339a3.227,3.227,0,0,1,.542-2.293Z" /><path d="M90.625,34.016c.568,6.68,1.155,13.588,1.449,20.4.409,9.308.038,18.766-.321,27.913l-.119,3.055.413-.024a17.333,17.333,0,0,1,2.406.015l.4.031V85c0-7.239-.2-14.6-.381-21.711-.091-3.484-.181-6.968-.251-10.452-.046-2.225-.071-4.453-.094-6.681-.063-5.817-.126-11.832-.6-17.732A108.085,108.085,0,0,0,91.7,15.259a29.284,29.284,0,0,1-.809-8.482l.03-.36-1.532-.178-.13.13a.6.6,0,0,1-.1.075l-.177.112,0,.21C89.085,15.881,89.868,25.1,90.625,34.016Z" /><path d="M38.875,35.789c-.056.7-.111,1.39-.175,2.093l-.038.409h.411l.171-.008,0,0a83.89,83.89,0,0,0,8.8-.749c.639-.077,1.276-.154,1.915-.228l.416-.048-.094-.408c-.1-.427-.193-.847-.3-1.258l-.085-.332-.339.055a.411.411,0,0,0-.1.029,65.292,65.292,0,0,1-7.756.144c-.816-.017-1.633-.034-2.449-.042l-.35,0Z" /><path d="M91.963,85.811l-.34.02-.014.339c-.04,1.01-.08,2.019-.112,3.028l-.013.409.409-.022c.336-.019.671-.043,1.006-.068.526-.038,1.052-.077,1.578-.091l.361-.01.022-3.562-.349-.027A18.775,18.775,0,0,0,91.963,85.811Z" /><path d="M76.752,19.137a4.844,4.844,0,0,1-.577.865,20.091,20.091,0,0,1,1.641,3.61c.08.008.224.32.3.872a30.841,30.841,0,0,1,1.1,5c.136,1-.232,1.577.72,1.841a4.14,4.14,0,0,0,2.362-.608,5.636,5.636,0,0,1,.92-.312,3.672,3.672,0,0,1,1.025-.008,3.443,3.443,0,0,1,.752.208c-.016-.9-.12-1.785-.176-2.618a12.874,12.874,0,0,1,.056-3.025,5.48,5.48,0,0,1,.649-1.921c.248-.393.432-.569.5-.537s.024.288-.1.721a9.4,9.4,0,0,0-.224,1.817,16.158,16.158,0,0,0,.24,2.825,19.517,19.517,0,0,1,.328,3.787l-.04.944-.936-.424c-.2-.1-.409-.192-.617-.288a2.625,2.625,0,0,0-.616-.168.62.62,0,0,0-.3-.008c-.1.008-.192,0-.3.008a6.249,6.249,0,0,0-.649.224,7.744,7.744,0,0,1-2.569.808l-.04.008a1.1,1.1,0,0,1-.145.008l-.072-.008-.152-.008-.3-.024a1.5,1.5,0,0,1-.408-.088c-.04.24-.088.472-.136.7,3.162.272,6.332.112,9.51.072-.617-7.325-1.2-14.649-1.441-22a3.909,3.909,0,0,1-2.642,1.352C84.18,16.768,80.826,19.345,76.752,19.137Z" /><path d="M51.351,92.827c-.994-1.094-2.02-2.224-2.966-3.381-1.855-2.27-5.623-6.248-10.019-7.379l-.487-.125.134,3.307.264.073c4.369,1.2,8.1,4.892,11.39,8.151l.638.631A35.033,35.033,0,0,1,53.3,97.691a32.98,32.98,0,0,0,4.035,4.656l1.247,1.107-.653-1.535C56.441,98.434,53.854,95.583,51.351,92.827Z" /><path d="M38.409,104.372a16.871,16.871,0,0,0-1.145,2.033c.08-.032.168-.056.248-.088a9.212,9.212,0,0,0,.889-.376,9.55,9.55,0,0,0,1.217-.753c.288-.2.5-.3.568-.232s.008.256-.184.584a4.042,4.042,0,0,1-1.089,1.209,7.207,7.207,0,0,1-.96.6c-.217.1-.449.216-.673.329.649.016,1.3.056,1.945.056,1.369,0,3.362.04,4.179-1.337a5.643,5.643,0,0,0-.016-5.147C41.571,102.018,39.457,102.819,38.409,104.372Z" /><path d="M82.4,85.336a6.4,6.4,0,0,0-7.973,2.61.611.611,0,0,1-.944.12c-2.65-2.474-6.156-1.953-9.486-2.225-3.37-.273-6.86-.232-9.47,2.225a.607.607,0,0,1-.944-.12,6.421,6.421,0,0,0-8.045-2.586,58.593,58.593,0,0,1,4.275,4.483c3.626,4.09,7.708,7.933,9.413,13.136a1.457,1.457,0,0,1,.48.136,13.143,13.143,0,0,0,1.569.648c-.136-.264-.24-.536-.344-.784-.08-.224-.168-.44-.248-.657-.072-.2-.176-.44-.248-.624-.745-1.665-1.385-3.17-1.921-4.443-1.153-2.521-1.777-4.122-1.617-4.21s1.1,1.361,2.465,3.77c.657,1.225,1.385,2.706,2.2,4.363a14.569,14.569,0,0,0,1.176,2.449,2.656,2.656,0,0,0,.617.584,7.316,7.316,0,0,0,2.961-.336c.04-.056.08-.1.12-.168l.016-.032.024-.032a6.589,6.589,0,0,0,.769-2.161,6.989,6.989,0,0,1,.44-1.265c.176-.352.352-.7.521-1.032s.328-.665.512-.985c.192-.3.376-.608.56-.9.36-.584.7-1.112,1.033-1.561,1.3-1.841,2.153-2.881,2.3-2.793s-.472,1.305-1.561,3.25c-.288.488-.568,1.024-.864,1.593-.152.288-.305.584-.473.888-.152.3-.288.657-.448.993s-.312.7-.472,1.064a6.539,6.539,0,0,0-.32,1.049c-.088.36-.16.769-.273,1.193.265-.168.521-.344.785-.537,1.961-5.363,6.444-9.165,10.078-13.608A30.848,30.848,0,0,1,82.4,85.336Z" /><path d="M36.759,103.172v-.12c.013-3.8-.062-7.937-.233-12.655l-.012-.341-.342-.019c-.328-.018-.656-.042-.985-.067-.541-.039-1.083-.078-1.626-.094l-.392-.01.006.391c.053,3.645.15,6.875.3,9.888a.707.707,0,0,1-.011.191l-.03.17.11.134a9.514,9.514,0,0,1,1.849,3.488l.245.875.443-.793a9.847,9.847,0,0,1,.61-.94Z" /><path d="M37.688,110.5a5.923,5.923,0,0,1,.929.617c.176.144.36.264.512.416s.3.3.433.44c1.08,1.153,1.224,2.2,1.072,2.233-.208.072-.624-.7-1.721-1.536-.136-.105-.28-.209-.432-.329-.152-.1-.328-.192-.5-.3a8.562,8.562,0,0,0-1.145-.592,3.133,3.133,0,0,0-.408-.176,42.906,42.906,0,0,0,2.841,5.043,28.109,28.109,0,0,1,1.673,4.282c1.449-1.977,2.746-4.162,1.761-6.7C41.667,111.208,39.826,110.671,37.688,110.5Z" /><path d="M29.532,100.113c-.817-.128-1.553,1.537-1.858,2.105-.472.865-.936,1.745-1.376,2.634-.633,1.257-.208,1.385,1.048,1.881a15.62,15.62,0,0,0,4.131,1.153c-.048-.048-.1-.088-.152-.136a11.562,11.562,0,0,1-1.489-1.817c-.745-1.1-.945-1.97-.761-2.034s.625.545,1.513,1.441a21.36,21.36,0,0,0,1.577,1.481,7.239,7.239,0,0,0,.977.721,1.377,1.377,0,0,0,.256.144c.056.032.1.04.152.064a.148.148,0,0,1,.056-.016,6.984,6.984,0,0,0-1.673-5.916A4.909,4.909,0,0,0,29.532,100.113Z" /><path d="M90.02,85.242l.022-.59c.028-.735.057-1.477.092-2.211l.023-.5-.49.123c-4.491,1.133-7.834,4.911-10.783,8.244l-.123.14c-.574.647-1.16,1.287-1.745,1.928a41.619,41.619,0,0,0-6.174,7.947l-1.25,2.308,1.846-1.865c.785-.793,1.556-1.66,2.3-2.5.672-.756,1.367-1.538,2.073-2.266l1.018-1.055c3.557-3.7,7.983-8.294,12.923-9.627Z" /><path d="M40.658,45.916a7.357,7.357,0,0,1,.561-1.958A7.1,7.1,0,0,1,43.151,41.8,10.24,10.24,0,0,0,44.77,40.19l.511-.685-.85.087c-1.466.151-3.4.325-5.345.343l-.143-.015-.017,0-.387-.047-.032.389c-.278,3.414-.471,6.046-.624,8.532l-.034.553.526-.174C40.159,48.584,40.413,47.228,40.658,45.916Z" /><path d="M88.775,107.734c.648-.016,1.288-.048,1.937-.056-.224-.113-.448-.217-.665-.329a7.207,7.207,0,0,1-.96-.6A4.042,4.042,0,0,1,88,105.54c-.192-.328-.256-.528-.184-.592s.28.04.568.24a9.55,9.55,0,0,0,1.217.753,9.212,9.212,0,0,0,.889.376l.344.12a8.533,8.533,0,0,0-1.713-2.618,15.585,15.585,0,0,0-4.515-2.561c-.712,1.617-1.056,3.706-.008,5.139C85.557,107.71,87.286,107.774,88.775,107.734Z" /><path d="M29.412,113a9.361,9.361,0,0,0-.729.592,6.785,6.785,0,0,0-.536.472c-.288.3-.488.441-.569.393s-.032-.289.121-.673a5.922,5.922,0,0,1,1.072-1.489,10.389,10.389,0,0,1,1.489-1.312c-1.809-.033-3.6.016-4.987,1.536-1.809,1.994-.688,3.282.8,4.939.632.7,1.232,1.409,1.785,2.146.88-1.593,1.184-3.434,2.017-5.091.432-.857,1.257-1.946,1.961-3.042-.128.056-.248.12-.368.184A17.82,17.82,0,0,0,29.412,113Z" /><path d="M96.675,107.742c-.056.056-.12.1-.176.16a12.836,12.836,0,0,0,4.827-1.465c1.177-.609.656-1.049.112-2.081-.376-.713-.712-1.441-1.112-2.138-.441-.776-1.177-2.577-2.322-1.953a7.425,7.425,0,0,0-2.257,1.921,7.14,7.14,0,0,0-1.353,5.54.234.234,0,0,0,.072.016.613.613,0,0,0,.136-.056,1.377,1.377,0,0,0,.256-.144,7.239,7.239,0,0,0,.977-.721,19.764,19.764,0,0,0,1.577-1.489c.888-.888,1.337-1.489,1.5-1.433.192.064-.008.937-.753,2.034A11.914,11.914,0,0,1,96.675,107.742Z" /><path d="M97.876,111.1a9.329,9.329,0,0,1,1.353,1.2,5.922,5.922,0,0,1,1.072,1.489c.153.384.2.625.121.673s-.281-.1-.569-.393a6.785,6.785,0,0,0-.536-.472,9.361,9.361,0,0,0-.729-.592,16.247,16.247,0,0,0-2.057-1.337,4.4,4.4,0,0,1,.248.384,30.848,30.848,0,0,1,1.713,3.322c.641,1.465.945,2.986,1.7,4.331,1.938-2.242,4.955-5.075,2.53-7.181A6.729,6.729,0,0,0,97.876,111.1Z" /><path d="M90.015,112.04c-.168.112-.344.2-.5.3-.152.12-.3.224-.432.329-1.1.832-1.513,1.608-1.721,1.536-.152-.032-.008-1.08,1.072-2.233.137-.144.281-.288.433-.44s.336-.272.512-.416a5.807,5.807,0,0,1,.857-.577c-2.434.224-4.707.921-5.132,4.091-.328,2.433.657,4.162,1.914,5.9a27.3,27.3,0,0,1,2.169-4.963,26.866,26.866,0,0,0,2.4-4.3,2.324,2.324,0,0,0-.432.176A8.562,8.562,0,0,0,90.015,112.04Z" /><path d="M94.555,100.443l-.021-.167a.617.617,0,0,1-.005-.145c.139-2.851.231-5.989.288-9.874l.006-.391-.391.01c-.541.016-1.079.055-1.619.094-.333.024-.667.049-1,.067l-.343.019-.012.342c-.159,4.69-.23,8.834-.216,12.67v.12l.071.1a10.264,10.264,0,0,1,.594.935l.454.8.235-.886a8.693,8.693,0,0,1,1.848-3.562Z" /><path d="M118.6,68.654l-.3.155c-3.621,1.872-7.361,3.668-10.977,5.405-3.477,1.671-7.073,3.4-10.563,5.193l-.136.07v.152c0,.185,0,.37,0,.555s0,.366,0,.549v.349l.33-.112a83.778,83.778,0,0,0,12.743-5.845c1.048-.572,2.071-1.2,3.062-1.816a34.022,34.022,0,0,1,5.9-3.131l.2-.074Z" /><path d="M33.481,85.827l-.346.027V86.2c0,.953.008,1.907.016,2.853l0,.362.362.01c.525.014,1.046.053,1.569.091.335.025.67.049,1.006.068l.411.023-.149-3.777-.34-.02A18.371,18.371,0,0,0,33.481,85.827Z" /><path d="M33.911,45.363c-.036,2.491-.072,4.982-.136,7.473q-.094,3.865-.206,7.734c-.219,8.007-.448,16.286-.442,24.43v.4l.4-.027a18.449,18.449,0,0,1,2.394-.015l.414.024-.116-2.876c-.375-9.208-.763-18.73-.293-28.09.322-6.463.874-13.017,1.406-19.355l.386-4.616c.1-1.279.215-2.563.325-3.851A176.666,176.666,0,0,0,39,6.639l-.394.006L38.6,6.277c-.025,0-.093,0-.177-.006-.8-.032-1.012-.019-1.166.135l-.112.133a1.111,1.111,0,0,0-.046.913,1.292,1.292,0,0,1,.046.231,28.986,28.986,0,0,1-.119,2.971c-.161,1.584-.47,3.178-.77,4.719l-.249,1.3a106.147,106.147,0,0,0-1.64,13.279C34.061,35.09,33.984,40.312,33.911,45.363Z" /><path d="M32.125,33.666c.08-1.737.176-3.474.32-5.211a103.521,103.521,0,0,1,1.337-10.863c.665-3.546,1.545-6.972,1.313-10.582q-6.773.744-13.56,1.377a92.991,92.991,0,0,1-3.186,18.507c-.44,1.705-.744,3.61-1.249,5.411A34.153,34.153,0,0,0,32.125,33.666Zm-6.764-3.122a2.063,2.063,0,0,0-.744-.64h-.024a.266.266,0,0,0-.144.032,3.154,3.154,0,0,0-.321.168c-.12.072-.232.144-.352.216a2.4,2.4,0,0,1-.208.12,1.762,1.762,0,0,1-.168.072l-.144.024a.657.657,0,0,1-.24-.04.029.029,0,0,0-.024-.008,2.689,2.689,0,0,1-1.217-.817,1.452,1.452,0,0,1-.216-.632,1.526,1.526,0,0,1,.016-.512c.088-.569.232-.817.3-.817.1,0,.1.328.152.833a1.332,1.332,0,0,0,.272.728,2.214,2.214,0,0,0,.881.4l.1-.08c.1-.08.216-.168.328-.256a3.257,3.257,0,0,1,.424-.272,1.183,1.183,0,0,1,.7-.152h.04a2.649,2.649,0,0,1,1.385.872,3.261,3.261,0,0,0,.928.769l.04.016a3.2,3.2,0,0,0,1.233.32.354.354,0,0,0,.3-.12,1.553,1.553,0,0,0,.24-.5,15.358,15.358,0,0,0,.352-1.625c.105-.585.217-1.185.337-1.785.368-1.969.744-3.835,1.1-5.532.337-1.689.561-3.225.817-4.506.488-2.546.88-4.123,1.072-4.123.185.024.12,1.657-.128,4.275-.136,1.313-.272,2.882-.536,4.595-.3,1.705-.632,3.578-1.009,5.547-.112.6-.232,1.2-.344,1.785a15.058,15.058,0,0,1-.424,1.785,2.6,2.6,0,0,1-.552.977,1.617,1.617,0,0,1-1.185.488A4.231,4.231,0,0,1,25.361,30.544Z" /><path d="M31.375,81.072l.008-.343c.008-.361.015-.722.015-1.092v-.153l-.135-.069c-3.5-1.8-7.1-3.528-10.582-5.2-3.618-1.736-7.359-3.531-10.982-5.406l-.3-.155-.061.331c-.057.305-.112.61-.168.922l-.036.2.193.074a29.043,29.043,0,0,1,4.982,2.676,37.023,37.023,0,0,0,4,2.272c1.333.617,2.677,1.285,3.978,1.932a75.2,75.2,0,0,0,8.765,3.9Z" /><path d="M29.9,38.135q1.045,0,2.1-.036l.357-.013,0-.357c0-.379.019-.754.032-1.131l.029-.949-.435.054A36.656,36.656,0,0,1,16.4,34.212l-.318-.1-.136.3a8.853,8.853,0,0,1-1.091,1.828l-.4.512.644.09A106.136,106.136,0,0,0,29.9,38.135Z" /><path d="M25.881,67.534a2.906,2.906,0,0,1,.257-1.777c-5.163-1.105-9.95-3.57-15.113-4.875-.064.32-.112.64-.176.968,2.361,2.018,5.587,2.49,8.461,3.386C21.535,65.925,23.664,66.821,25.881,67.534Z" /><path d="M31.245,73.77c.048-2.49.112-4.979.176-7.469a1.163,1.163,0,0,1-.24.024,21.705,21.705,0,0,1-3.835-.336,1.013,1.013,0,0,1-.048.144,1.79,1.79,0,0,0-.024,1.841.531.531,0,0,1,.385.48,1.865,1.865,0,0,0,.976.5c.016,0,.024.016.04.016.392-.056.841.24.681.72A3.6,3.6,0,0,0,31.245,73.77Z" /><path d="M31.213,75.066a4.941,4.941,0,0,1-3.154-5.019,2.915,2.915,0,0,1-1.569-1.064c-3.426-.985-6.708-2.338-10.134-3.338a18.187,18.187,0,0,1-5.74-2.466c-.272,1.537-.552,3.074-.816,4.611,7.044,3.666,14.3,6.908,21.365,10.518Z" /><path d="M32.182,49.027l.024-2.169c.024-2.242.049-4.481.094-6.725l.008-.4-.4.013c-1.472.052-2.885.055-4.2.009l-.443-.015.058.44A2.536,2.536,0,0,0,29.34,42.4a.242.242,0,0,1,.152.3c-.421,2.085-.178,5.451,2.211,6.18Z" /></g></svg>