<svg xmlns="http://www.w3.org/2000/svg" version="1.1" viewBox="13.062199999999994 9.3724091044141 73.87290000000002 81.25557089558595">
 <path d="m65.828 27.152c-5.0078 0-9.7344 1.8281-13.422 5.1641-3.3945-3.0742-7.6797-4.8477-12.25-5.1094-0.37891-0.64062-0.83203-1.2422-1.3711-1.7812-1.6875-1.6875-3.9258-2.6133-6.3125-2.6133-1.9102 0-3.7266 0.59375-5.2422 1.6992-1.5156-1.1055-3.332-1.6992-5.2422-1.6992-2.3828 0-4.625 0.92969-6.3125 2.6133-1.6875 1.6875-2.6133 3.9258-2.6133 6.3125 0 2.3828 0.92969 4.625 2.6133 6.3125l3.9648 3.9648c-1.8477 6.9102 0.082031 14.223 5.1836 19.324l26.301 26.297c0.35547 0.35547 0.81641 0.53125 1.2812 0.53125s0.92969-0.17578 1.2812-0.53125l8.9648-8.9648 3.8438 3.8438c0.33984 0.33984 0.80078 0.53125 1.2812 0.53125 0.48047 0 0.94141-0.19141 1.2812-0.53125l7.0859-7.0859c2.6211-2.6211 2.6211-6.8828 0-9.5039-0.125-0.125-0.25781-0.24219-0.39062-0.35547l4.2344-4.2344c3.7812-3.7812 5.8633-8.8086 5.8633-14.16 0-5.3477-2.082-10.379-5.8633-14.16s-8.8086-5.8672-14.16-5.8672zm-49.137 4.5859c0-1.4141 0.55078-2.7461 1.5508-3.7461s2.332-1.5508 3.7461-1.5508c1.4141 0 2.7461 0.55078 3.75 1.5508l0.21094 0.21094c0.70703 0.70703 1.8555 0.70703 2.5625 0l0.21484-0.21094c1-1 2.332-1.5508 3.7461-1.5508 1.4141 0 2.7461 0.55078 3.7461 1.5508 0.48828 0.48828 0.86328 1.0547 1.125 1.668 0.007812 0.019532 0.019531 0.035156 0.027344 0.054688 0.26172 0.63281 0.39844 1.3164 0.39844 2.0234 0 1.4141-0.55078 2.7461-1.5508 3.7461l-8.9883 8.9922-8.9922-8.9922c-1-1-1.5508-2.332-1.5508-3.7461zm56.895 41.125-5.8047 5.8047-5.8047-5.8047c-0.58594-0.58594-0.90625-1.3633-0.90625-2.1875s0.32422-1.6016 0.90625-2.1875c0.58594-0.58594 1.3633-0.90625 2.1875-0.90625 0.82813 0 1.6055 0.32031 2.1914 0.91016l0.14844 0.14453c0.70703 0.70312 1.8477 0.70312 2.5547 0l0.15234-0.15234c1.168-1.1719 3.207-1.168 4.375 0 1.207 1.207 1.207 3.168 0 4.375zm3.8398-14.09-5.2344 5.2344c-0.26172-0.03125-0.52734-0.050781-0.79688-0.050781-1.3008 0-2.5469 0.36719-3.6172 1.0547-1.0703-0.6875-2.3164-1.0547-3.6172-1.0547-1.7969 0-3.4844 0.69922-4.75 1.9688-1.2695 1.2695-1.9688 2.957-1.9688 4.75 0 1.7969 0.69922 3.4844 1.9648 4.75l0.68359 0.68359-7.6836 7.6797-25.016-25.016c-3.6523-3.6523-5.3164-8.6875-4.668-13.68l3.2305 3.2305c0.33984 0.33984 0.80078 0.53125 1.2812 0.53125s0.94141-0.19141 1.2812-0.53125l10.273-10.273c1.6875-1.6836 2.6133-3.9258 2.6133-6.3125 0-0.25781-0.015625-0.51562-0.039063-0.76953 3.4766 0.50391 6.6914 2.0859 9.2188 4.6133l0.54297 0.54297c0.70703 0.70703 1.8555 0.70703 2.5625 0l0.54688-0.54297c3.0977-3.0977 7.2148-4.8047 11.598-4.8047 4.3789 0 8.4961 1.707 11.594 4.8047 3.0977 3.0977 4.8047 7.2148 4.8047 11.598 0 4.3789-1.707 8.4961-4.8047 11.594zm-52.203 17.148c-2.125-1.2148-4.8828-0.91797-6.6953 0.89453-2.168 2.168-2.168 5.6953-0.003906 7.8633l5.418 5.418c0.35547 0.35547 0.81641 0.53125 1.2812 0.53125s0.92969-0.17578 1.2812-0.53125l5.4141-5.4141c2.168-2.168 2.168-5.6953 0-7.8672-1.8125-1.8125-4.5703-2.1133-6.6953-0.89453zm4.1328 6.1953-4.1328 4.1328-4.1328-4.1328c-0.36328-0.36719-0.56641-0.85156-0.56641-1.3672s0.20312-1.0039 0.56641-1.3672c0.36719-0.36328 0.85156-0.56641 1.3672-0.56641s1.0039 0.20312 1.3672 0.5625l0.11328 0.11328c0.33984 0.34375 0.80859 0.55469 1.2852 0.53516 0.48047 0 0.94141-0.19141 1.2812-0.53125l0.11328-0.11328c0.73047-0.73047 2.0078-0.73047 2.7383 0 0.75391 0.75391 0.75391 1.9844 0 2.7383zm47.977-57.836c0.35547 0.35547 0.81641 0.53125 1.2812 0.53125 0.46484 0 0.92969-0.17578 1.2812-0.53125l5.4141-5.4141c2.168-2.168 2.168-5.6953 0-7.8672-1.8125-1.8125-4.5781-2.1094-6.6953-0.89453-2.125-1.2148-4.8828-0.91797-6.6953 0.89453-2.168 2.168-2.168 5.6953 0.003906 7.8672l5.4102 5.4102zm-2.8516-10.715c0.36719-0.36719 0.85156-0.56641 1.3672-0.56641s1.0039 0.20312 1.3711 0.57031l0.11328 0.10938c0.70703 0.70312 1.8477 0.70703 2.5547 0.003906l0.11719-0.11719c0.73047-0.73047 2.0078-0.73047 2.7383 0 0.36719 0.36719 0.56641 0.85156 0.56641 1.3672s-0.20312 1.0039-0.5625 1.3633l-4.1367 4.1367-4.1328-4.1328c-0.75391-0.75391-0.75391-1.9844 0-2.7383z" />
<text x="0.0" y="117.5" font-size="5.0" font-weight="bold" font-family="Arbeit Regular, Helvetica, Arial-Unicode, Arial, Sans-serif" fill="#000000">Created by kusuma potter</text><text x="0.0" y="122.5" font-size="5.0" font-weight="bold" font-family="Arbeit Regular, Helvetica, Arial-Unicode, Arial, Sans-serif" fill="#000000">from Noun Project</text></svg>