<svg xmlns="http://www.w3.org/2000/svg" version="1.1" x="0px" y="0px" viewBox="21.105984030029145 9.757999999999981 57.78715863562938 80.48500000000001" enable-background="new 0 0 100 100" xml:space="preserve"><path d="M71.511,35.668c-4.173-6.978-6.276-11.302-7.244-14.19c-0.095-2.5,0.313-5.542,0.632-8.716  c0.033-0.333-0.033-0.638-0.174-0.921c-0.026-0.11-0.086-0.202-0.174-0.27c-0.552-0.771-1.713-1.351-3.167-1.782  c-0.211,1.222-0.515,2.263-0.947,2.704c-0.188-0.637-0.286-1.028-0.33-1.266C59.79,12.783,58.1,20.452,55,23.553  c1.333-5.292,0.733-5.125,0.733-5.125s-0.627,3.364-2.964,7.083c1.189-4.333,0.535-10.917,0.535-10.917S50.5,18.742,50.583,26.7  c-5.012-4.542-5.692-13.974-5.692-13.974s-1.042,1.057-0.834,4.724c-2.208-1.833-3.196-6.816-3.196-6.816s-0.258,0.524-0.258,2.233  c-0.931-0.814-1.515-1.929-1.884-3.109c-1.482,0.428-2.672,1.008-3.248,1.78c-0.109,0.076-0.183,0.19-0.205,0.326  c-0.132,0.277-0.199,0.573-0.167,0.897c0.319,3.175,0.726,6.218,0.632,8.718c-0.968,2.888-3.07,7.21-7.241,14.184  c-9.86,16.042-9.845,33.887,0.043,53.038c0.013,0.026,0.039,0.037,0.056,0.06c0.006,0.009,0.015,0.014,0.021,0.023  c0.046,0.054,0.094,0.1,0.156,0.13c0.045,0.025,0.092,0.048,0.146,0.058c4.663,0.846,9.371,1.271,14.058,1.271  c1.827,0,3.652-0.064,5.469-0.193c0.183-0.013,0.329-0.127,0.405-0.281l0.114,0.078c0.406-0.595,1.201-20.707-4.062-28.65  c0.688-0.397,1.309-0.864,1.868-1.395c0.274,0.112,0.8,0.263,1.667,0.263c0.434,0,0.957-0.042,1.567-0.142  c0.611,0.1,1.134,0.142,1.568,0.142c0.868,0,1.393-0.152,1.667-0.264c0.559,0.531,1.18,0.998,1.868,1.395  c-5.263,7.943-4.469,28.055-4.063,28.65l0.114-0.078c0.076,0.153,0.223,0.268,0.406,0.281c1.816,0.129,3.641,0.193,5.468,0.193  c4.687,0,9.396-0.425,14.059-1.271c0.054-0.01,0.102-0.034,0.148-0.059c0.057-0.027,0.1-0.071,0.144-0.119  c0.01-0.012,0.024-0.022,0.033-0.035c0.016-0.022,0.042-0.033,0.055-0.058C81.354,69.551,81.369,51.706,71.511,35.668z   M75.391,76.627c-0.206,0.661-0.425,1.325-0.656,1.99c-7.534,0.472-15.149-0.174-22.642-1.911c0.053-0.67,0.114-1.346,0.186-2.025  c0.927,0.205,5.464,1.165,11.931,1.783C70.024,77.021,73.929,76.768,75.391,76.627z M69.939,79.771c1.482,0,2.961-0.05,4.437-0.134  c-0.147,0.401-0.301,0.803-0.457,1.205c-0.028-0.003-0.054-0.012-0.084-0.01c-7.29,0.685-14.667,0.323-21.93-1.065  c0.029-0.669,0.067-1.354,0.113-2.051C57.95,79.079,63.955,79.771,69.939,79.771z M73.003,83.1  c-7.042,0.885-14.166,0.801-21.183-0.246c0.008-0.664,0.024-1.36,0.048-2.081c4.887,0.924,9.824,1.396,14.756,1.396  c2.301,0,4.601-0.109,6.893-0.312C73.348,82.271,73.18,82.685,73.003,83.1z M51.811,83.861c3.807,0.561,7.644,0.848,11.483,0.848  c3.085,0,6.171-0.189,9.242-0.552c-0.194,0.436-0.395,0.872-0.6,1.309c-6.68,1.033-13.444,1.197-20.112,0.491  C51.814,85.322,51.809,84.618,51.811,83.861z M77.131,69.482c-0.497-0.244-1.353-0.75-2.763-1.835  c-1.574-1.212-2.792-2.136-3.497-2.668c0.443-0.54,0.93-1.179,1.437-1.936c0.42-0.619,0.835-1.318,1.243-2.076  c0.404-0.76,0.781-1.59,1.115-2.473c0.227-0.634,0.427-1.301,0.599-1.983c0.886,0.758,1.746,1.606,2.573,2.542  C77.982,62.47,77.747,65.947,77.131,69.482z M71.04,36.832c-3.402-1.565-5.742-1.737-5.742-1.737l-0.001-0.219  c0.155-0.866,0.198-1.754,0.203-2.545c0-0.037-0.003-0.068-0.002-0.105c0.46,0.038,1.669,0.205,3.373,0.914  c0.551,0.959,1.142,1.97,1.786,3.046C70.789,36.401,70.911,36.617,71.04,36.832z M64.5,32.325c-0.02,3.335-0.778,5.055-2.46,5.576  c-1.731,0.533-6.589-1.898-8.47-2.965c0.045-0.123,0.067-0.253,0.098-0.38l3.528,0.668c0.031,0.006,0.063,0.009,0.094,0.009  c0.235,0,0.445-0.167,0.49-0.407c0.052-0.271-0.127-0.533-0.398-0.584l-3.597-0.681c0-0.007,0.001-0.014,0.001-0.021l-0.04-0.946  l1.97-0.52c0.267-0.07,0.426-0.344,0.355-0.611c-0.07-0.267-0.341-0.427-0.611-0.356l-1.803,0.476  c-0.081-0.465-0.249-0.902-0.499-1.298c0.347-0.34,4.853-4.652,9.39-4.004C63.828,26.462,64.521,28.609,64.5,32.325z M57.803,41.844  c-0.678,0.315-3.113-2.18-5.29-5.409c0.106-0.092,0.218-0.177,0.315-0.282c0.098-0.107,0.174-0.226,0.257-0.342  c0.746,0.423,3.542,1.96,6.037,2.722C59.097,39.533,58.839,41.367,57.803,41.844z M49.975,29.566  c0.688-0.026,1.373,0.217,1.894,0.695c0.521,0.479,0.824,1.128,0.854,1.829l0.063,1.491c0.03,0.701-0.217,1.374-0.695,1.895  s-1.127,0.824-1.828,0.854c-0.699,0.03-1.373-0.217-1.894-0.695c-0.521-0.479-0.825-1.128-0.854-1.829l-0.063-1.491  c-0.03-0.701,0.217-1.374,0.696-1.895C48.625,29.899,49.274,29.596,49.975,29.566L49.975,29.566z M47.692,36.371  c0.051,0.047,0.11,0.081,0.163,0.124c-1.714,2.709-3.964,5.299-4.779,5.001c-1.1-0.397-1.645-1.599-1.862-2.231  c2.453-0.997,5.198-2.806,6.042-3.38C47.387,36.057,47.53,36.222,47.692,36.371z M46.949,30.376  c-0.187,0.318-0.312,0.663-0.394,1.021l-3.16-0.463c-0.272-0.042-0.527,0.149-0.567,0.422s0.149,0.527,0.422,0.567l3.204,0.469  l0.047,1.096l-4.388,0.467c-0.275,0.029-0.474,0.275-0.444,0.55c0.027,0.257,0.244,0.447,0.497,0.447  c0.018,0,0.036-0.001,0.053-0.003l4.388-0.467c0.04,0.18,0.101,0.351,0.167,0.521c-1.881,1.289-6.772,4.293-8.543,3.911  c-1.72-0.375-2.623-2.024-2.925-5.346c-0.338-3.701,0.17-5.899,1.431-6.19C41.057,26.384,46.23,29.871,46.949,30.376z M31.129,33.14  c1.428-0.594,2.506-0.807,3.091-0.883c0.016,0.445,0.042,0.908,0.087,1.403c0.042,0.462,0.101,0.957,0.187,1.458  c-0.616,0.075-2.694,0.407-5.534,1.713c0.129-0.216,0.253-0.434,0.385-0.65C29.989,35.107,30.579,34.098,31.129,33.14z   M22.16,59.053c0.828-0.936,1.687-1.784,2.573-2.542c0.173,0.682,0.372,1.348,0.599,1.983c0.334,0.884,0.712,1.713,1.115,2.473  c0.408,0.758,0.823,1.456,1.243,2.076c0.508,0.757,0.994,1.396,1.437,1.936c-0.704,0.532-1.923,1.456-3.497,2.668  c-1.41,1.085-2.266,1.591-2.763,1.835C22.252,65.947,22.018,62.47,22.16,59.053z M27.462,84.158  c3.071,0.363,6.157,0.552,9.242,0.552c3.838,0,7.676-0.287,11.483-0.848c0.002,0.757-0.003,1.461-0.013,2.097  c-6.668,0.705-13.434,0.543-20.112-0.491C27.857,85.03,27.657,84.593,27.462,84.158z M48.18,82.854  c-7.018,1.047-14.143,1.13-21.183,0.245c-0.177-0.415-0.345-0.829-0.513-1.242c2.292,0.202,4.591,0.312,6.893,0.312  c4.931,0,9.869-0.472,14.755-1.396C48.156,81.495,48.171,82.19,48.18,82.854z M48.093,79.767c-7.26,1.387-14.637,1.749-21.93,1.065  c-0.029-0.002-0.056,0.007-0.084,0.01c-0.156-0.402-0.31-0.804-0.457-1.205c1.477,0.084,2.956,0.134,4.437,0.134  c5.983,0,11.989-0.691,17.92-2.055C48.027,78.413,48.064,79.097,48.093,79.767z M25.264,78.618c-0.231-0.665-0.45-1.329-0.656-1.99  c1.461,0.141,5.367,0.393,11.181-0.162c6.466-0.618,11.003-1.578,11.93-1.783c0.073,0.679,0.133,1.355,0.186,2.025  C40.413,78.444,32.799,79.085,25.264,78.618z M29.314,88.024c-0.253-0.494-0.502-0.987-0.742-1.479  c3.807,0.556,7.639,0.846,11.464,0.846c2.713,0,5.422-0.145,8.117-0.426c-0.025,0.95-0.057,1.671-0.079,2.102  C41.85,89.487,35.542,89.137,29.314,88.024z M37.28,61.957c-0.276,0.002-0.499,0.227-0.497,0.503c0.001,0.275,0.225,0.497,0.5,0.497  c0.001,0,0.002,0,0.003,0c2.634-0.015,4.87-0.455,6.714-1.305c1.016,1.49,1.793,3.417,2.383,5.567  c-1.496-0.175-6.15-0.718-9.1-1.068c-1.904-0.225-3.909-0.692-5.365-1.077c-0.137-0.141-0.301-0.314-0.507-0.545  c-0.526-0.598-1.272-1.475-2.038-2.616c-0.388-0.567-0.769-1.206-1.144-1.894c-0.369-0.691-0.714-1.441-1.021-2.233  c-0.29-0.797-0.56-1.632-0.729-2.5c-0.009-0.039-0.013-0.083-0.021-0.122c9.211-6.583,20.232-5.098,22.919-4.604  c-0.009,0.032-0.023,0.062-0.025,0.097C48.918,58.218,44.969,61.914,37.28,61.957z M62.714,62.957c0.001,0,0.002,0,0.003,0  c0.274,0,0.498-0.222,0.5-0.497c0.002-0.276-0.221-0.501-0.497-0.503c-7.688-0.043-11.637-3.739-12.072-11.299  c-0.002-0.035-0.015-0.065-0.023-0.097c2.691-0.495,13.709-1.977,22.917,4.605c-0.008,0.039-0.012,0.083-0.021,0.122  c-0.17,0.868-0.44,1.703-0.729,2.5c-0.307,0.792-0.651,1.542-1.021,2.233c-0.375,0.689-0.756,1.327-1.144,1.894  c-0.767,1.141-1.512,2.018-2.038,2.616c-0.206,0.231-0.37,0.403-0.507,0.545c-1.456,0.385-3.462,0.851-5.366,1.077  c-2.95,0.349-7.604,0.893-9.1,1.068c0.59-2.15,1.367-4.078,2.383-5.568C57.844,62.502,60.08,62.943,62.714,62.957z M51.925,89.067  c-0.022-0.431-0.054-1.152-0.079-2.102c2.695,0.281,5.404,0.426,8.118,0.426c3.825,0,7.656-0.289,11.463-0.846  c-0.24,0.492-0.488,0.985-0.742,1.479C64.456,89.136,58.151,89.487,51.925,89.067z" /></svg>