<svg xmlns="http://www.w3.org/2000/svg" data-name="Layer 1" viewBox="2.1995682706453836 2.3968248581834763 5.600008103398693 5.195065098573318" x="0px" y="0px"><title>KAMASUTRA</title><path d="M3.87855,6.02916l-.00133.00071Z" /><path d="M5.15139,4.00492c-.04827.05452-.26264.31973-.2896.34966-.046.05107-.34471.54736-.38078.62231a.01977.01977,0,0,0,.00193.02154c-.055.10489-.09572.18713-.10424.21142a1.3269,1.3269,0,0,1-.22291.43866,1.96554,1.96554,0,0,1-.19022.18012c-.03492.03121-.06852.063-.10068.09705-.00839.00889.01322.09077.01365.10348a.30374.30374,0,0,0,.04053-.02433c.0352-.02612.07051-.05172.10475-.07909a1.80528,1.80528,0,0,0,.1821-.16373,1.20264,1.20264,0,0,0,.24577-.41692c.06085-.16159.1114-.32643.18647-.48241a1.75157,1.75157,0,0,1,.2827-.40822.79308.79308,0,0,0,.26735-.43576A.02053.02053,0,0,0,5.15139,4.00492Z" /><path d="M6.18058,3.14263a.21757.21757,0,0,0-.16225-.01276.50893.50893,0,0,0-.16412.05566.51472.51472,0,0,0-.13275.1075.43968.43968,0,0,1-.14574.1296c-.10481.04546-.21467.05628-.28664.15566a.35753.35753,0,0,0-.06074.14411,1.58925,1.58925,0,0,0-.0004.17013.00873.00873,0,0,0,.01736.00174.69638.69638,0,0,1,.05171-.1417.482.482,0,0,1,.06567-.13034c.06818-.08431.18569-.08458.27568-.13273.09362-.0501.14155-.15038.22842-.20934a.45223.45223,0,0,1,.15663-.06842c.04846-.01042.10814.00267.1522-.01939A.0291.0291,0,0,0,6.18058,3.14263Z" /><path d="M6.092,3.30544c-.04332.03449-.095.0599-.13509.09738a1.28741,1.28741,0,0,0-.108.12,3.12015,3.12015,0,0,0-.19638.27049A4.9754,4.9754,0,0,0,5.328,4.3787c-.0979.202-.19118.40694-.277.61437-.09477.22918-.1428.47334-.21581.70971a3.27927,3.27927,0,0,1-.14264.37862,1.13035,1.13035,0,0,1-.07517.14457c-.01395.02189-.02781.04483-.0434.06612l.02118-.01369a.05312.05312,0,0,1,.05091-.00563c.021-.01134.04164-.02338.062-.03582L4.72,6.21886a1.81766,1.81766,0,0,0,.14127-.29809,3.67832,3.67832,0,0,0,.12683-.35917c.03393-.11767.06007-.23751.0974-.35421A6.15033,6.15033,0,0,1,5.36,4.55255a6.73386,6.73386,0,0,1,.3099-.60339,3.57635,3.57635,0,0,1,.21191-.32126c.03626-.04932.07362-.09767.11118-.146.04146-.05336.06693-.11389.10887-.16721C6.10674,3.30852,6.09791,3.30073,6.092,3.30544Z" /><path d="M6.11864,4.15231c-.07883.051-.08845.17944-.097.26335a.92433.92433,0,0,1-.06408.29993.71728.71728,0,0,1-.17173.2275,1.39585,1.39585,0,0,1-.1182.09288l-.02147.01541c.0254-.0934.04359-.15955.04449-.15827.01189.01676.17776-.62077.18425-.63989a.36975.36975,0,0,0-.003-.12932c-.00386-.01824-.035-.0162-.04256.002a9.49984,9.49984,0,0,0-.35022,1.2167c-.03118.11769-.064.235-.10077.35109-.01463.04613-.03022.09193-.04388.13835-.03019.05038-.06681.09809-.09239.15078a.32882.32882,0,0,0-.03576.25457.014.014,0,0,0,.024.0024,1.67538,1.67538,0,0,0,.12087-.24405A.55537.55537,0,0,0,5.379,5.92073a.848.848,0,0,0,.03679-.08351c.04011-.10207.07036-.20886.10062-.31419.02651-.0923.06261-.22452.09508-.344a.27331.27331,0,0,0,.11476-.0477A.90752.90752,0,0,0,5.85054,5.034a.87568.87568,0,0,0,.19219-.24056.62245.62245,0,0,0,.0683-.296c0-.05609-.00222-.11248.00276-.16844s.02626-.106.03532-.16036C6.15207,4.15095,6.131,4.14433,6.11864,4.15231Z" /><path d="M6.54725,3.09864a.02327.02327,0,0,0-.02656-.02072.17586.17586,0,0,0-.10676-.051.15459.15459,0,0,0-.09831.02471.2219.2219,0,0,0-.06753.08658.01257.01257,0,0,0,.01813.01691.25853.25853,0,0,1,.13941-.04523.1289.1289,0,0,1,.06454.032c-.01048.02317-.01915.0472-.02989.07127a.84778.84778,0,0,1-.08082.14178,2.08305,2.08305,0,0,1-.216.23534c-.03388.03528-.0684.07118-.099.10926l-.005.00659c.01141.03179.08828-.00745.12561-.04882.04406-.04885.09917-.08685.14691-.13188a.87311.87311,0,0,0,.10489-.11975A.52118.52118,0,0,0,6.54725,3.09864Z" /><path d="M3.16526,6.174a.20876.20876,0,0,0-.11465-.03109.23313.23313,0,0,0-.10234.03854.23763.23763,0,0,1-.1163.049.01019.01019,0,0,0-.002.02027.18142.18142,0,0,0,.08491-.00605.70445.70445,0,0,1,.10319-.039.16183.16183,0,0,1,.115.024c.029.01719.058.05561.09416.04865A.02466.02466,0,0,0,3.247,6.251C3.24553,6.21451,3.19369,6.1899,3.16526,6.174Z" /><path d="M3.64235,7.08075a.30284.30284,0,0,0-.046-.09514c-.019-.03158-.03732-.06364-.0552-.0959-.0358-.06458-.06784-.131-.09933-.19778-.03051-.06468-.05632-.13178-.08295-.19812-.02778-.0692-.05791-.13924-.08119-.21-.00343-.01043-.01931-.00494-.01793.00529a1.8569,1.8569,0,0,0,.03884.22252,1.89319,1.89319,0,0,0,.07179.212l.01411.03458c-.02006.03475-.03415.07373-.05408.1082a1.48178,1.48178,0,0,1-.08729.13166,2.58961,2.58961,0,0,1-.20752.25594A.97833.97833,0,0,1,2.78,7.454a1.09154,1.09154,0,0,1-.3047.09609.01831.01831,0,0,0-.0035.035.65766.65766,0,0,0,.61894-.25425,2.6937,2.6937,0,0,0,.22842-.279,1.07322,1.07322,0,0,0,.096-.15434l.017-.03615q.01567.03144.03216.06241c.01829.03437.03778.06806.058.1013a.26491.26491,0,0,0,.06923.08725A.0328.0328,0,0,0,3.64235,7.08075Z" /><path d="M3.07953,6.04565a.19628.19628,0,0,0-.09554.03094.54838.54838,0,0,0-.08461.06453c-.00857.00687.00173.01829.01049.01283A.56.56,0,0,1,3.007,6.11376a.42512.42512,0,0,0,.08354-.03159A.02083.02083,0,0,0,3.07953,6.04565Z" /><path d="M3.2003,5.96771a.28768.28768,0,0,0-.11586.00186.34711.34711,0,0,0-.10433.04819.00848.00848,0,0,0,.00687.0155.35334.35334,0,0,1,.10463-.01834.49961.49961,0,0,1,.10341.0056C3.22968,6.02482,3.233,5.97459,3.2003,5.96771Z" /><path d="M5.62842,6.94658a5.34951,5.34951,0,0,1-.74147.1723,3.39531,3.39531,0,0,1-.75664.026c-.14136-.01066-.282-.02993-.42378-.03163a.01024.01024,0,0,0-.00457.01968,1.24687,1.24687,0,0,0,.37.09209,3.024,3.024,0,0,0,.39359.01868,2.91309,2.91309,0,0,0,.766-.10333,2.3806,2.3806,0,0,0,.41094-.16194A.01743.01743,0,0,0,5.62842,6.94658Z" /><path d="M6.02659,6.04062c-.10394-.02053-.1293.11916-.16523.18438-.01633.02964-.03309.05871-.0514.08693a.15471.15471,0,0,0-.04271-.039.36751.36751,0,0,0-.08637-.0413.27423.27423,0,0,0-.171.00481.685.685,0,0,0-.14823.07612c-.02412.01539-.04887.02935-.074.043l-.01572.00877L5.2664,6.36244a.36061.36061,0,0,0-.05092-.02623c-.0313-.01256-.06292-.02452-.09487-.03532-.05963-.02016-.11982-.03936-.18027-.05694S4.8186,6.21,4.75729,6.19535l-.01735-.00422a.46794.46794,0,0,0,.0519-.18289.01582.01582,0,0,0-.03044-.00706.76468.76468,0,0,1-.19617.23982A.57588.57588,0,0,1,4.43,6.32364a.64847.64847,0,0,1-.17042.06081.01175.01175,0,0,0,.00066.02319.47713.47713,0,0,0,.19279.00263A.49639.49639,0,0,0,4.631,6.32143a.403.403,0,0,0,.07611-.07817l.02906.00876.18664.05826.03532.01118a.39225.39225,0,0,0-.17385.0637.31654.31654,0,0,0-.07021.0693c-.02216.029-.03554.06392-.05951.09171-.00871.0101.00827.02205.01694.012a.57909.57909,0,0,1,.07538-.06532A.62486.62486,0,0,1,4.82219,6.436a.3584.3584,0,0,1,.17067-.04728.60794.60794,0,0,1,.18884.02789.96287.96287,0,0,0,.19127.05288.02408.02408,0,0,0,.01618-.04325.30955.30955,0,0,0-.04648-.031l.00488-.0019c.04931-.0202.09483-.04744.14324-.06939a.231.231,0,0,1,.15245-.0236.30856.30856,0,0,1,.08385.03925.21444.21444,0,0,0,.048.02225c-.01286.01739-.02575.0347-.03818.05245a.3738.3738,0,0,1-.04775.06945.00867.00867,0,0,0,.011.01341c.0177-.01384.04147-.01842.06038-.0312a.34135.34135,0,0,0,.05138-.04138.54351.54351,0,0,0,.08181-.10931.62267.62267,0,0,0,.053-.11975c.0135-.04068.0178-.13209.077-.126C6.04269,6.07156,6.04466,6.04419,6.02659,6.04062Z" /><path d="M6.15419,6.66756c-.00987-.01048-.03392-.00781-.03349.01011.00319.13285-.20332-.01974-.25109-.02885a.00927.00927,0,0,0-.01.01063.13248.13248,0,0,0,.04833.0649c-.02.00713-.03918.0158-.05564.0229-.054.02329-.10939.04955-.16464.0692a.00947.00947,0,0,0,.00529.01793c.05725-.013.11815-.02062.17632-.02959A.33081.33081,0,0,0,5.99172,6.77a.30038.30038,0,0,0,.05926.01579.10624.10624,0,0,0,.0998-.03152A.06286.06286,0,0,0,6.15419,6.66756Z" /><path d="M6.289,6.2796c-.02356.01185-.04843.02046-.07108.03414-.02048.01236-.05.02924-.05048.05616-.00021.01322.01088.02869.02618.02472.02421-.00628.034-.02792.04805-.04686a.16132.16132,0,0,1,.055-.05091C6.30749,6.2914,6.29989,6.27414,6.289,6.2796Z" /><path d="M6.61145,6.245c-.03912-.02693-.08549-.04215-.12713-.06509l.01985-.01823.01609-.01241a.11655.11655,0,0,1,.01626-.01352c.00913-.00409.0077-.02-.00323-.02018-.00783-.00015-.0156-.0037-.02424-.00318a.10008.10008,0,0,0-.03076.0072.12973.12973,0,0,0-.04207.02855.14135.14135,0,0,1-.05-.08388.02049.02049,0,0,0-.02819-.01535.58627.58627,0,0,0-.131.07164.00924.00924,0,0,0,.0117.0143A.19543.19543,0,0,1,6.344,6.08705c-.00049.08226.093.131.15875.161a.30133.30133,0,0,1,.11814.09515c.02817.03837.03524.08763.06423.12433a.02386.02386,0,0,0,.04054-.00674C6.75065,6.3824,6.67158,6.28642,6.61145,6.245Z" /><path d="M6.17483,6.04187a.1032.1032,0,0,0-.07044.02379A.09766.09766,0,0,0,6.0632,6.131c-.00428.02207.02617.02934.03808.01424a.54177.54177,0,0,1,.03633-.04316c.01348-.01378.03153-.02095.04522-.03372l-.00035-.00033A.01487.01487,0,0,0,6.17483,6.04187Z" /><path d="M6.37874,6.32532a.57533.57533,0,0,1-.24216.11367.01514.01514,0,0,0,.00473.0299.427.427,0,0,0,.2513-.12662C6.40235,6.3325,6.38989,6.31622,6.37874,6.32532Z" /><path d="M6.26415,6.62291a.02837.02837,0,0,0-.03633.01663.33078.33078,0,0,0-.00063.06754.1411.1411,0,0,1-.02213.0674.24084.24084,0,0,1-.13343.09208c-.05594.01912-.11481.0287-.17153.04526a.98682.98682,0,0,0-.18483.07424c-.04787.0253-.11788.05533-.12981.11441A.11538.11538,0,0,0,5.6609,7.222a.45366.45366,0,0,0,.1881.01937.212.212,0,0,1,.09078.01331c.02861.01371.06051.0489.05224.08277-.00347.01422.01807.02245.02159.008a.12526.12526,0,0,0-.01024-.09923.18439.18439,0,0,0-.09866-.07277.73772.73772,0,0,0-.14912-.0197A.14994.14994,0,0,1,5.68993,7.135c-.02151-.01468-.01389-.01871.00442-.0309a.90355.90355,0,0,1,.28978-.11945.4922.4922,0,0,0,.25972-.1158.24913.24913,0,0,0,.06469-.126C6.316,6.7005,6.30821,6.64165,6.26415,6.62291Z" /><path d="M6.8671,7.27848a1.11889,1.11889,0,0,1-.688-.04829c-.02619-.01388-.104-.04983-.10194-.08655.00275-.05014.10075-.0542.13479-.0636a.349.349,0,0,0,.218-.17787.33367.33367,0,0,0-.02369-.31868c-.00827-.0138-.03021-.00523-.0235.0104a.30465.30465,0,0,1-.05834.31632.27715.27715,0,0,1-.1226.08032.44384.44384,0,0,0-.16505.05833.122.122,0,0,0-.041.13737.23556.23556,0,0,0,.11209.10466.7128.7128,0,0,0,.32683.08392,2.0088,2.0088,0,0,0,.43908-.05442A.02123.02123,0,0,0,6.8671,7.27848Z" /><path d="M7.755,7.10766a.282.282,0,0,1-.24114.06125q-.18777-.01375-.376-.01846-.0831-.00213-.16626-.00261A.37937.37937,0,0,1,6.848,7.10506c-.03378-.0198-.04952-.04-.0301-.07754a.55915.55915,0,0,0,.05852-.11736.38884.38884,0,0,0-.25064-.41588c-.01092-.0055-.02108.01041-.01357.019a.7801.7801,0,0,1,.16563.22646A.25238.25238,0,0,1,6.792,6.879.68474.68474,0,0,1,6.73046,7a.11992.11992,0,0,0,.03437.14921q-.146.00262-.29188.00989a.63456.63456,0,0,0,.17029-.31362.365.365,0,0,0-.022-.19691c-.02169-.05158-.06819-.1164-.12906-.11932a.00972.00972,0,0,0-.00975.01346c.0112.02313.02758.04231.0406.06461a.304.304,0,0,1,.03077.07091.33911.33911,0,0,1,.00282.16737.7779.7779,0,0,1-.22339.32992.04634.04634,0,0,0,.03622.08084,7.81774,7.81774,0,0,1,.83539-.01584c.12355.00425.24894.0205.3725.01488a.22046.22046,0,0,0,.22091-.1249A.02476.02476,0,0,0,7.755,7.10766Z" /><path d="M7.54889,7.05814a.76125.76125,0,0,1-.28523-.02672A.46916.46916,0,0,1,7.13411,6.979a.14257.14257,0,0,1-.06579-.10318L7.0657,6.85962a.42257.42257,0,0,0,.06274.04435A.29037.29037,0,0,0,7.234,6.9425a.19776.19776,0,0,0,.05117-.00045.2658.2658,0,0,0,.05645-.02011c.01062-.00365.00527-.02054-.0055-.01866a.23352.23352,0,0,1-.09534-.01516.30462.30462,0,0,1-.09519-.04851,1.1142,1.1142,0,0,1-.09941-.09628.42277.42277,0,0,0-.04576-.10342.47207.47207,0,0,0-.074-.09265.65459.65459,0,0,0-.09725-.07057c-.01289-.00863-.027.011-.014.01974a.412.412,0,0,1,.14678.22224c.02576.08826.00591.19166.061.26991a.3886.3886,0,0,0,.24587.12821.58817.58817,0,0,0,.29077-.02226C7.58116,7.08771,7.56937,7.05593,7.54889,7.05814Z" /><path d="M4.68363,3.00358a.70293.70293,0,0,1-.32881.23543c-.06914.02278-.14008.03554-.21077.05215a1.974,1.974,0,0,0-.22188.065.69259.69259,0,0,0-.34891.27961l-.04247.06531c-.01459.01714-.02935.03412-.04286.05165-.03256.04224-.06319.0853-.09177.13035a2.67407,2.67407,0,0,0-.154.27934,1.45414,1.45414,0,0,0-.11074.28828c-.0119.05005-.01556.10073-.02334.15146l-.0005.00306a.66111.66111,0,0,0-.02921.216.63253.63253,0,0,0,.23723.42709,2.79725,2.79725,0,0,0,.22538.20146c-.06691.05512-.13232.11373-.19712.17063a.77024.77024,0,0,0-.1876.228.01944.01944,0,0,0,.02586.02433,2.87275,2.87275,0,0,0,.254-.16641,1.3755,1.3755,0,0,0,.20947-.17686c.02274.01644.04565.03265.06893.04836.10677.072.3.18912.404.04579a.02487.02487,0,0,0-.03012-.03682.2072.2072,0,0,1-.2013-.0277,2.04513,2.04513,0,0,1-.1733-.11547,2.55751,2.55751,0,0,1-.33081-.284.60314.60314,0,0,1-.2075-.35378.68876.68876,0,0,1,.01366-.20749c.01605-.03305.03445-.06481.05072-.09792.04552-.09262.08336-.18874.12738-.28206.04285-.09085.088-.18057.13163-.271.02172-.045.04261-.09029.06153-.13656l.004-.01017c.01342-.01885.02659-.038.03924-.05766a1.13742,1.13742,0,0,1,.14321-.19787.56484.56484,0,0,1,.19441-.1188c.1408-.05509.29405-.07258.43739-.12082.14217-.04785.31077-.11672.35852-.27359A.03068.03068,0,0,0,4.68363,3.00358Z" /><path d="M4.56595,4.90048c-.00494-.01843-.12527.101-.14937.12135a1.6406,1.6406,0,0,1-.15245.10824.81893.81893,0,0,0-.14256.11236.77151.77151,0,0,0-.05637.06978l-.01342.01663-.00635.00523a.23288.23288,0,0,0-.02292-.03541q-.08056-.10624-.16162-.21195a1.06915,1.06915,0,0,0,.06048-.43108c.00151-.07384-.00349-.1458-.00809-.21939a.73669.73669,0,0,1-.00064-.11642c.00335-.03529.01407-.06918.01422-.10422A.631.631,0,0,1,3.985,4.177a1.08786,1.08786,0,0,0,.19112-.19976c.01954-.02222-.01817-.04876-.03763-.02664a.84947.84947,0,0,1-.26438.15568c-.09115.05057-.11234.177-.14682.2675-.04021.10553-.08783.2109-.12068.31895a.30665.30665,0,0,0-.01162.05366,1.64821,1.64821,0,0,1-.123-.14644c-.00641-.00971-.02.00178-.01392.01139.02547.04.042.08844.064.13112.01992.03858.04229.07566.06458.1129.04376.0731.08919.14516.13484.21709.04367.0688.09246.13416.14136.1993.02626.035.05206.0706.07955.10464a.13516.13516,0,0,0,.0805.05976c.06424.00862.10437-.0458.13695-.09133a.59156.59156,0,0,1,.16525-.14019.76252.76252,0,0,0,.1655-.13443C4.52739,5.02783,4.582,4.96049,4.56595,4.90048Zm-.8453-.0084a.48785.48785,0,0,1,.00144-.1822c.03307-.09284.06989-.18452.10543-.27649.00106.06137.0011.12265-.00083.18412a1.47872,1.47872,0,0,1-.026.22715c-.00826.04406-.01769.0888-.024.13375l-.01139-.01458A.21128.21128,0,0,0,3.72065,4.89208Z" /><path d="M5.08506,6.62235c-.216.0153-.42968.05659-.64482.08049-.20472.02274-.41067.02973-.61546.04756a.98984.98984,0,0,1-.08527-.09177l-.0108-.01511a.3419.3419,0,0,1-.02763-.18265.58286.58286,0,0,1,.08312-.23856,1.726,1.726,0,0,1,.16543-.2175,2.703,2.703,0,0,1,.18277-.21908.02238.02238,0,0,0-.023-.03767c-.01436-.02624-.09064.03563-.0827.05055-.022.013-.04391.026-.06519.04013a.71808.71808,0,0,0-.12223.11075,1.19645,1.19645,0,0,0-.19061.25759.59558.59558,0,0,0-.06138.16574c-.01213-.0274-.02432-.05477-.03706-.08188a.87881.87881,0,0,0-.13815-.22009.553.553,0,0,0-.20386-.139c-.01168-.00489-.01835.01332-.00684.01838a.45272.45272,0,0,1,.187.18176,1.82876,1.82876,0,0,1,.11949.22966c.03546.08152.069.1642.11236.242a.60248.60248,0,0,0,.15207.19476.02711.02711,0,0,0,.023.01538l.0026.00015a.03426.03426,0,0,0,.016.00093,3.75458,3.75458,0,0,0,.63914-.03076,2.76358,2.76358,0,0,0,.64143-.1297C5.11355,6.64743,5.10294,6.62109,5.08506,6.62235Z" /><path d="M5.98937,4.02578a.65348.65348,0,0,0-.04822-.08885A.66834.66834,0,0,0,5.895,3.8454a.01091.01091,0,0,0-.01841.00306c-.02283.04508.01176.11447.0273.15763a.29483.29483,0,0,1,.02739.17676.02667.02667,0,0,0,.04655.02459.12288.12288,0,0,0,.03213-.08554A.2833.2833,0,0,0,5.98937,4.02578Z" /><path d="M6.08249,3.92427a.35371.35371,0,0,0-.05611-.08854c-.02535-.0298-.05643-.05289-.0825-.08148a.011.011,0,0,0-.01694.01386.838.838,0,0,1,.05054.09068c.01319.02481.02571.04988.03662.07579a.528.528,0,0,1,.02988.17877.02372.02372,0,0,0,.0424.00991A.21385.21385,0,0,0,6.08249,3.92427Z" /><path d="M6.09117,3.78058c-.01163-.00564-.02263.00872-.01815.01929.00942.02225.02229.04254.03.06567a.59462.59462,0,0,1,.01749.0714c.00355.01787.03359.02479.03865.00386A.14343.14343,0,0,0,6.09117,3.78058Z" /><path d="M2.99565,6.24125a.93651.93651,0,0,0-.29367.25383.38043.38043,0,0,0-.19635-.06321.26773.26773,0,0,0-.18908.0591c-.00577.00631.00052.016.00771.01692.02692.00346.05479-.00307.082-.0022a.65077.65077,0,0,1,.09094.01008.44932.44932,0,0,1,.14885.05331q-.02335.03264-.04532.06582A1.52787,1.52787,0,0,0,2.468,6.879a.99916.99916,0,0,0-.04822.13625c-.00535.02026-.01074.0406-.015.06111-.0058.02774-.003.05665-.01014.08372-.00377.01432.01753.02279.022.00816a.41249.41249,0,0,1,.03294-.06357c.01024-.02023.019-.04125.02891-.06168.01944-.04021.03856-.08065.05856-.12058a2.16947,2.16947,0,0,1,.13678-.23587,5.1717,5.1717,0,0,1,.34689-.41478A.02061.02061,0,0,0,2.99565,6.24125Z" /><path d="M2.36475,6.878a.84706.84706,0,0,1,.11882-.22123c.00826-.01029-.00769-.02565-.01725-.01608a.80414.80414,0,0,0-.169.22986,1.01871,1.01871,0,0,0-.08418.29224,1.27633,1.27633,0,0,0-.012.1508.57575.57575,0,0,0,.00883.15146.1686.1686,0,0,0,.08243.10951c.03371.01841.08991.03069.11276-.01048a.02329.02329,0,0,0-.01072-.03474c-.03315-.01218-.06743-.00419-.08806-.04a.25817.25817,0,0,1-.022-.12276,1.45784,1.45784,0,0,1,.018-.25112A1.16654,1.16654,0,0,1,2.36475,6.878Z" /><path d="M2.75041,6.28257c-.03912-.04535-.13337-.02373-.18312-.00864a1.319,1.319,0,0,0-.1877.08977.01077.01077,0,0,0,.00871.01968A.51914.51914,0,0,1,2.57685,6.349c.02883-.00189.05753-.0046.08635-.00664a.12393.12393,0,0,0,.08361-.02381A.02619.02619,0,0,0,2.75041,6.28257Z" /><path d="M4.39,3.6111A.1824.1824,0,0,0,4.20232,3.478.01985.01985,0,0,0,4.19016,3.51c.02128.02262.0471.041.06873.0637a1.01756,1.01756,0,0,0,.06626.07769C4.35336,3.67547,4.3947,3.64394,4.39,3.6111Z" /><path d="M5.13133,3.55888a.10166.10166,0,0,1-.06909-.01563.41063.41063,0,0,1-.04861-.04017c-.03566-.033-.07034-.06733-.10451-.10191a.618.618,0,0,1-.08668-.09947.12168.12168,0,0,1-.02638-.07483c.00123-.02573.00683-.0511.00981-.07664.00158-.01346-.01657-.01618-.02189-.00508a.26368.26368,0,0,0-.02766.17856.41341.41341,0,0,0,.10842.13825.97126.97126,0,0,0,.13491.12767.12809.12809,0,0,0,.14932.00863A.02257.02257,0,0,0,5.13133,3.55888Z" /><path d="M5.56373,2.86639a.2582.2582,0,0,0-.0456.00076.09476.09476,0,0,1-.05138-.02c-.03-.02178-.05365-.05177-.08272-.075a.25832.25832,0,0,0-.1883-.05919.27285.27285,0,0,0-.17022.08277.44142.44142,0,0,0-.08626.17607.01191.01191,0,0,0,.02231.0083.32509.32509,0,0,1,.12413-.1447.2213.2213,0,0,1,.17637-.0363c.06164.01605.10259.07213.15891.0997.03957.01937.12791.04858.157-.00113A.02025.02025,0,0,0,5.56373,2.86639Z" /><path d="M5.24488,3.08718a.21029.21029,0,0,0-.12387.019.01176.01176,0,0,0,.00657.02227.19.19,0,0,1,.105.01751c.02588.01005.05276.03955.08137.03272A.024.024,0,0,0,5.33351,3.158C5.33613,3.11586,5.27938,3.09465,5.24488,3.08718Z" /><path d="M5.23646,3.219c-.02585-.01576-.06261-.0132-.08559-.0338-.01119-.01-.02466.00914-.01353.01912a.24567.24567,0,0,0,.04018.0364.06806.06806,0,0,0,.05127.01107C5.24294,3.24856,5.251,3.22792,5.23646,3.219Z" /><path d="M5.59,2.95142a.59311.59311,0,0,0-.04825.14208c-.00685.02454-.01266.04975-.02072.07392-.01087.03257-.0238.03454-.05472.043-.096.02623-.109.11408-.10994.20151-.00011.01068.0163.01653.01968.00457a.32471.32471,0,0,1,.03906-.09527.42261.42261,0,0,0,.05687-.0028c.01141-.0003.01722-.01618.00482-.02079L5.448,3.28535c.03016-.0223.07085-.01991.09821-.04928a.28578.28578,0,0,0,.04648-.12363A.607.607,0,0,0,5.625,2.96451C5.62512,2.94728,5.60081,2.9331,5.59,2.95142Z" /><path d="M5.25482,3.47828a.30762.30762,0,0,0-.05149-.01541l-.02147-.00971a.1061.1061,0,0,1-.02551-.01688c-.0068-.00855-.01888.00012-.0156.00959a.12292.12292,0,0,0,.01247.03438.0916.0916,0,0,0,.02454.02534.07611.07611,0,0,0,.073.01369A.024.024,0,0,0,5.25482,3.47828Z" /><path d="M4.90261,2.905c-.01156-.048-.06981-.08881-.11173-.04464a.1104.1104,0,0,0-.01678.08536c.00171.03533-.00273.09045.02245.11775A.01942.01942,0,0,0,4.82928,3.058c.01432-.0285.00085-.07011-.00158-.10114a.16877.16877,0,0,1-.00266-.053c.01109-.03646.04767-.00911.06029.00885A.00988.00988,0,0,0,4.90261,2.905Z" /><path d="M5.33741,3.42733c-.0108-.0235-.04185-.02679-.06466-.02836a.0121.0121,0,0,0-.0024.02406c.01915.00308.02925.0201.047.02563A.0161.0161,0,0,0,5.33741,3.42733Z" /><path d="M5.44224,2.52379A.70023.70023,0,0,0,5.10846,2.398a.3473.3473,0,0,0-.30152.13141.39123.39123,0,0,0-.071.15793.79462.79462,0,0,0-.02294.19516c.00043.01221.01827.012.02218.00222.02065-.05182.03023-.10761.05135-.15944a.64542.64542,0,0,1,.07255-.13285.26762.26762,0,0,1,.25269-.111.667.667,0,0,1,.28095.11234.71219.71219,0,0,1,.10669.08091.42105.42105,0,0,1,.07046.10879.02063.02063,0,0,0,.03906-.00625C5.62162,2.67432,5.52,2.574,5.44224,2.52379Z" /><path d="M4.72061,4.19929c-.01892.02985-.04849.05649-.07.085a.82657.82657,0,0,0-.05766.08075c-.03018.05182-.05233.10693-.08442.1578a.04614.04614,0,0,0,.05586.06828.27775.27775,0,0,0,.13329-.14435.54741.54741,0,0,0,.03051-.101c.00973-.04116.01295-.08923.02577-.12882C4.76028,4.19727,4.73264,4.18031,4.72061,4.19929Z" /></svg>