<svg xmlns="http://www.w3.org/2000/svg" version="1.1" viewBox="15.930774197430544 2.8737214648916507 68.0846648025695 94.2488413750858">
 <g>
  <path d="m49.074 38.895c1.7109-1.5508 3.4766-3.1523 5.0234-4.8555 3.0352-3.3398 4.75-6.6406 5.2383-10.094 0.050781-0.35937 0.10156-0.68359 0.15234-0.99219-0.003906-0.019531-0.011719-0.039063-0.011719-0.058594 0-0.066406 0.023438-0.12891 0.054688-0.18359 0.27734-1.5625 0.60156-2.4609 1.2305-2.7969 0.74609-0.39453 1.668 0.054688 3.1914 0.80078 0.46484 0.22656 0.99219 0.48438 1.5938 0.75781 0.1875 0.085938 0.26953 0.30859 0.1875 0.49609-0.085937 0.1875-0.30859 0.27344-0.49609 0.1875-0.60547-0.27344-1.1406-0.53516-1.6133-0.76562-1.2656-0.61719-2.1016-1.0273-2.5117-0.8125-0.33984 0.17969-0.57812 0.88672-0.78516 1.9375 0.71484-0.003906 1.4297-0.011719 2.1445-0.027344 2.5234-0.046875 5.1328-0.09375 7.6836 0.24609 1.6055 0.21484 3.2266 0.3125 4.793 0.40625 2.7656 0.16406 5.6211 0.34766 8.457 1.1797-0.26953-3.9922-0.066406-8 0.60938-11.93-2.5742-1.0547-5.0977-2.3594-7.5391-3.6289-4.8008-2.4922-9.7617-5.0703-15.312-5.793-4.7305-0.61719-8.207 1.7656-10.93 7.4922-0.53516 1.125-1.0625 2.2539-1.5898 3.3828-2.2344 4.7812-4.5469 9.7227-7.3477 14.312-1.1836 1.9414-2.125 4.0781-3.0352 6.1484-0.80078 1.8203-1.6289 3.707-2.625 5.457-1.8438 3.2461-4.6523 8.0117-7.7578 11.902-1.793 2.2461-3.1133 4.8359-4.3867 7.3398-0.59766 1.168-1.2109 2.3789-1.8711 3.5469-0.27344 0.48438-0.93359 1.25-1.7656 2.2188-1.7227 2.0078-4.6094 5.3633-3.7773 6.4258 0.4375 0.55469 0.96094 0.84766 1.6016 0.89453 2.3984 0.19922 5.8281-3.0742 8.3359-5.4453 1.1133-1.0547 2.0742-1.9648 2.7422-2.3828 1.3047-0.81641 2.8047-0.92188 4.2578-1.0195 1.4375-0.10156 2.7969-0.19531 3.9023-0.94531 2.2227-1.5117 2.043-3.5078 1.8398-5.8203-0.11719-1.3125-0.23828-2.668 0.125-3.9688 1.6289-5.8516 5.9805-9.7969 10.191-13.613z" />
  <path d="m83.508 25.125c-2.8516-0.89062-5.6445-1.0586-8.6016-1.2344-1.5781-0.09375-3.2109-0.19141-4.8477-0.41016-2.4922-0.33203-5.0703-0.28516-7.5664-0.24219-0.76563 0.015625-1.5312 0.023438-2.293 0.027344-0.039063 0.25-0.078125 0.51172-0.11719 0.78906-0.51172 3.6055-2.2852 7.0352-5.4258 10.492-1.5703 1.7266-3.3516 3.3438-5.0742 4.9023-1.7539 1.5898-3.5312 3.207-5.1211 4.9688 0.003906 1.7812 0.050781 3.5977 0.10156 5.3594 0.11328 4.0156 0.23438 8.168-0.22656 12.246-0.16016 1.4375-0.16016 2.8789-0.16406 4.2695 0 2.5586-0.003906 5.207-1.0078 7.8633-0.26953 0.71484-0.57031 1.3672-0.85547 1.9961-0.67578 1.4766-1.3164 2.8711-1.4258 4.7734-0.042968 0.75781-0.039062 1.5352-0.039062 2.3594 0.007812 3.0742 0.015625 6.2539-2.3594 8.5547-0.25781 0.25-0.79688 0.45312-1.4258 0.69141-0.45703 0.17578-1.2227 0.46484-1.3398 0.63281-0.30469 1.3789 0.51953 2.6758 2.2148 3.4258 1.9102 0.84766 4.5625 0.76562 5.6914-0.83984 0.71875-1.0195 1.2578-2.0078 1.7812-2.9648 1.1211-2.0547 2.1797-3.9883 4.7305-5.6992l0.62109-0.41016c2.3125-1.5195 4.1445-2.7227 3.4609-5.7695-0.1875-0.84766-0.82812-1.4492-1.5078-2.0898-0.60156-0.5625-1.2188-1.1445-1.5586-1.9375-0.69531-1.6211-0.25391-3.5664 0.10547-5.1289l0.027344-0.12109c0.53125-2.3398 1.4805-4.5547 2.3945-6.6992 0.375-0.87891 0.75-1.7539 1.0977-2.6406 1.582-4.0391 2.5859-7.9688 3.1641-12.371 0.066406-0.49219 0.10547-3.8789 0.14062-6.5938 0.054688-4.4492 0.054688-4.4492 0.43359-4.4727 4.0273-0.25781 7.0859 1.9688 10.051 4.125 1.1797 0.85547 2.4023 1.7422 3.6602 2.457 2.3359 1.3203 5.1406 1.8477 7.8516 2.3555 0.94141 0.17578 1.9102 0.35938 2.8477 0.57422-0.15234-2.9688-0.16016-6.0234-0.16797-8.9883-0.003906-1.4492-0.007812-2.9453 0.20703-4.4141 0.066406-0.44922 0.14844-0.89453 0.23438-1.3398 0.10547-0.54297 0.21094-1.0898 0.27344-1.6406 0.11719-0.98047 0.10938-1.9844 0.10156-2.957-0.003907-0.72656-0.019531-1.418-0.035157-2.1055-0.011718-0.58203-0.027343-1.1758-0.03125-1.793z" />
 </g>
</svg>