<svg xmlns="http://www.w3.org/2000/svg" data-name="Layer 1" viewBox="1.8520281000304164 2.7812216799830654 6.301804544366691 4.4384553285905355" x="0px" y="0px"><title>KAMASUTRA</title><path d="M3.527,6.33786a1.23181,1.23181,0,0,1-.11927.13994.92529.92529,0,0,1-.141.10516c-.05648.036-.11406.07006-.17149.10447a1.16191,1.16191,0,0,0-.1923.12919c-.00777.00714-.00289.02409.0093.02076a1.22671,1.22671,0,0,0,.22324-.09874c.06447-.03258.13025-.06356.19167-.10176.103-.06408.22615-.15339.23658-.28527A.02045.02045,0,0,0,3.527,6.33786Z" /><path d="M3.72961,6.64908A.01706.01706,0,0,0,3.69842,6.65a.18815.18815,0,0,1-.04622.07143c-.02979.02578-.05783.01954-.09447.01821a.41407.41407,0,0,0-.169.05126,1.03776,1.03776,0,0,1-.19584.04944.62311.62311,0,0,1-.212.00726c-.01122-.00178-.01588.01689-.00456.01967a.95374.95374,0,0,0,.23274.03523.64774.64774,0,0,0,.23681-.05463A.24676.24676,0,0,1,3.565,6.81767a.18658.18658,0,0,0,.103-.01465A.11889.11889,0,0,0,3.72961,6.64908Z" /><path d="M4.52342,5.41125c-.00268-.00859-.01705-.006-.01724.00275-.00225.10417-.00067.20824.0009.31226a.39931.39931,0,0,0-.10794-.09314A.79723.79723,0,0,1,4.284,5.52554a1.51308,1.51308,0,0,1-.15389-.22124l-.001-.00644a.40613.40613,0,0,0-.03338-.0855c-.01164-.0282-.0498-.01294-.04821.01422.00146.02489-.00417.05145-.00318.07707.00111.02879.00224.05756.002.08638a1.02457,1.02457,0,0,1-.01791.17286,1.72029,1.72029,0,0,1-.10718.3405c-.04438.1085-.09308.21524-.13382.32521a1.02316,1.02316,0,0,0-.06456.33219c-.00026.00807.01255.01238.01478.00343a2.3518,2.3518,0,0,1,.12461-.34034c.0099-.02336.02016-.04656.03056-.0697a.69014.69014,0,0,0,.16075.25812.81051.81051,0,0,0,.34692.2231.59314.59314,0,0,1-.21744.24055.01548.01548,0,0,0,.01252.02828.44657.44657,0,0,0,.27213-.21878A1.00322,1.00322,0,0,0,4.577,6.30356,2.21812,2.21812,0,0,0,4.52342,5.41125Zm-.02656.83892a1.18224,1.18224,0,0,1-.05886.30027l-.0034-.00165a.97624.97624,0,0,1-.317-.205,1.49852,1.49852,0,0,1-.19287-.25962c.02894-.06259.05831-.125.08565-.1883a1.67251,1.67251,0,0,0,.11025-.339.85423.85423,0,0,0,.01356-.10035.64808.64808,0,0,0,.08189.12465.821.821,0,0,0,.12555.1224.21545.21545,0,0,0,.15179.06488.02237.02237,0,0,0,.01421-.00779A4.74708,4.74708,0,0,1,4.49686,6.25017Z" /><path d="M4.8563,6.6421c-.00338-.02534-.035-.0235-.04481-.00448-.02375.046-.09265.06768-.13506.09133a2.041,2.041,0,0,0-.17285.114,1.00441,1.00441,0,0,1-.18279.1048.576.576,0,0,1-.10058.03372.26773.26773,0,0,1-.1184.01153c-.01167-.00329-.0184.01446-.00662.01778a.58088.58088,0,0,0,.10577.03258.34981.34981,0,0,0,.12168-.01262.76477.76477,0,0,0,.2223-.11353c.07-.04681.13844-.09391.21256-.13411C4.81349,6.75271,4.86563,6.7121,4.8563,6.6421Z" /><path d="M4.56356,5.29487a.61144.61144,0,0,1-.07008-.21678C4.493,5.06845,4.47879,5.07,4.4774,5.07855A.31159.31159,0,0,0,4.52271,5.32.02431.02431,0,0,0,4.56356,5.29487Z" /><path d="M4.86562,5.06755a.107.107,0,0,0-.03513.024c-.00892.00893-.01591.0237-.027.031a.19543.19543,0,0,1-.03925-.02914.26784.26784,0,0,1-.03478-.06412.46516.46516,0,0,1-.04473-.19066A.00949.00949,0,0,0,4.6659,4.8367a.58488.58488,0,0,0,.00209.22509c.01426.05646.04986.11962.11308.12718a.03631.03631,0,0,0,.03331-.01517c.00784-.01144.02549-.01892.03456-.03146.01275-.01763.01928-.0381.03275-.05515C4.8901,5.07656,4.87707,5.06291,4.86562,5.06755Z" /><path d="M4.99133,4.99417a.0088.0088,0,0,0-.01751-.00175,2.18119,2.18119,0,0,1-.11363.28676.44457.44457,0,0,0,.02109.27493c.00749.02359.0397.00965.0386-.01138-.0025-.04745-.00666-.09614-.00449-.14362a.37962.37962,0,0,1,.04116-.137A.39431.39431,0,0,0,4.992,5.13887C4.99676,5.09045,4.98809,5.04235,4.99133,4.99417Z" /><path d="M6.96972,6.8568A.38094.38094,0,0,0,6.684,6.81134a.51231.51231,0,0,0-.13819.0389.46957.46957,0,0,0,.0087-.07018.52942.52942,0,0,0-.00858-.10673.01276.01276,0,0,0-.02519.00072.35526.35526,0,0,1-.0762.20045.27005.27005,0,0,1-.18861.0612,1.0967,1.0967,0,0,1-.23679-.00562,1.02046,1.02046,0,0,1-.22257-.06581,3.57853,3.57853,0,0,0-.44421-.157c-.07552-.019-.15157-.03212-.22823-.04538A.50491.50491,0,0,1,4.98981,6.624l-.00261-.0035a.80911.80911,0,0,1-.13852-.26988,2.13459,2.13459,0,0,1-.08765-.329c-.02091-.10863-.0352-.21855-.0506-.32806a.98974.98974,0,0,0-.02983-.15554.47807.47807,0,0,0-.074-.13827c-.00517-.00723-.01866-.00157-.01631.00731a1.36886,1.36886,0,0,1,.02349.17359l.02263.17036c.01557.11713.03182.23428.05356.35046a2.03692,2.03692,0,0,0,.08606.33021.93363.93363,0,0,0,.07059.15681.15613.15613,0,0,0,.10524.08284.40069.40069,0,0,0,.2301.1,2.37813,2.37813,0,0,1,.42068.12726,1.80493,1.80493,0,0,0,.39828.13512,1.0754,1.0754,0,0,0,.20869.009A.68406.68406,0,0,0,6.41387,7.017a.19307.19307,0,0,0,.1008-.0852.85558.85558,0,0,1,.18068-.04857.49726.49726,0,0,1,.12911-.00169c.04284.00519.0837.022.12669.02486A.02766.02766,0,0,0,6.96972,6.8568Z" /><path d="M2.34858,5.90455a.49405.49405,0,0,1-.12293.02122A.11039.11039,0,0,1,2.12088,5.864c-.01544-.0436-.01439-.09039-.0285-.13434a.94257.94257,0,0,0-.06609-.14432A.58581.58581,0,0,1,1.9365,5.27a.36.36,0,0,1,.13769-.21714.01352.01352,0,0,0-.01057-.0236.25216.25216,0,0,0-.21029.20867.53813.53813,0,0,0,.12063.37853,1.30063,1.30063,0,0,1,.085.18059,1.19485,1.19485,0,0,0,.05965.15769.15566.15566,0,0,0,.25665-.01752C2.38387,5.92062,2.36512,5.90151,2.34858,5.90455Z" /><path d="M3.437,5.63936a1.2686,1.2686,0,0,0-.25867.08148,1.35444,1.35444,0,0,1-.28274.05374c-.085.00721-.1709.00105-.25568.01158a.44665.44665,0,0,0-.10968.02584.27676.27676,0,0,0-.09459.07258c-.00758.0077-.00051.02336.0108.01757a.51683.51683,0,0,1,.24208-.027,1.82587,1.82587,0,0,0,.268-.00421A1.3101,1.3101,0,0,0,3.22645,5.811a.466.466,0,0,0,.23388-.13411A.02427.02427,0,0,0,3.437,5.63936Z" /><path d="M5.30274,3.49933c-.02592-.00645-.02261-.07539-.02391-.09774-.00116-.02-.00173-.04037-.00212-.06045-.00047-.02405-.0066-.06042.03222-.0462.015.00548.02166-.01553.00838-.02252-.03-.01581-.0604-.03846-.08916-.00558a.13323.13323,0,0,0-.024.078.69138.69138,0,0,0-.13474.19384.94422.94422,0,0,1-.14554.2576.01225.01225,0,0,0,.01551.019.69019.69019,0,0,0,.1815-.214c.03167-.05511.056-.11364.08329-.17052a.27789.27789,0,0,0,.01182.08659.50212.50212,0,0,0-.0652.14622.75737.75737,0,0,1-.04942.17552c-.03639.06275-.08816.044-.1483.03407a.25933.25933,0,0,0-.14733.019.40173.40173,0,0,0-.19682.25718c-.0393.11181-.0756.224-.125.332a1.18775,1.18775,0,0,1-.22289.33839c-.03438-.008-.06931-.01363-.10323-.01832a.45763.45763,0,0,0-.31449.03548c-.10434.07078-.115.22725-.13951.33984l-.00123.00579a.17831.17831,0,0,0-.105-.01672.686.686,0,0,0-.08022.00856A.04366.04366,0,0,0,3.505,5.15166c-.05872-.06014-.08924-.13881-.15968-.18926A.39057.39057,0,0,0,3.116,4.90309a.01138.01138,0,0,0-.00508.02189.71076.71076,0,0,1,.18571.11744.83649.83649,0,0,1,.1107.14319c-.02562.00363-.05078.00816-.07441.01295a1.38384,1.38384,0,0,0-.17822.05166A.96986.96986,0,0,0,3.10809,5.141a.2911.2911,0,0,1-.01136-.18544C3.102,4.93745,3.07432,4.927,3.069,4.9453A.37921.37921,0,0,0,3.03641,5.13a.42454.42454,0,0,0,.05032.1445c-.12575.046-.24889.09885-.372.15135-.06964.02968-.13937.05917-.20976.087a.5591.5591,0,0,1-.10479.038.08624.08624,0,0,1-.082-.042,2.36225,2.36225,0,0,1-.22312-.39545.01046.01046,0,0,0-.0198.00584.94888.94888,0,0,0,.12233.34806c.05307.09407.11754.19718.24143.16028a3.53846,3.53846,0,0,0,.35922-.14408c.116-.049.232-.0984.35057-.141.06592-.02366.1329-.04373.19948-.06536.03158-.01026.06427-.01981.09679-.02985.02021.00043.04036.0013.06075.00053.034-.00127.06795-.00432.10194-.00461a.07833.07833,0,0,1,.04485.00572c.01142.00779.0134.0197.02278.03094l.0057.00551c-.02182.10912-.04115.21886-.05917.32856-.0277.16869-.036.33823-.05717.50749-.00127.01013.01411.01153.01568.00157.02659-.16864.07276-.33518.10739-.50247.0345-.16662.07254-.33232.11155-.49794a.41917.41917,0,0,1,.07421-.2036.23944.23944,0,0,1,.169-.05461.83606.83606,0,0,1,.40408.108c.02109.01148.04686-.0112.03022-.0324a.31089.31089,0,0,0-.133-.09488,1.74713,1.74713,0,0,0,.31163-.59526c.03653-.10868.07171-.2426.18365-.29783.06217-.03068.10668.003.16739.01476a.1444.1444,0,0,0,.14025-.05048.27994.27994,0,0,0,.05264-.174.93958.93958,0,0,1,.03625-.192A.04976.04976,0,0,0,5.31685,3.545C5.32531,3.53,5.32352,3.5045,5.30274,3.49933Z" /><path d="M6.2199,6.48444c-.08-.031-.16873-.04154-.25091-.06661-.08673-.02645-.17191-.05783-.25938-.082a2.13171,2.13171,0,0,0-.25353-.05527.68394.68394,0,0,0-.12543-.00691c-.03474.00126-.06863-.00066-.10272-.002-.01049-.03121-.02227-.06195-.03471-.09244C5.179,6.14437,5.16374,6.11,5.148,6.07585a.29535.29535,0,0,0,.07043.03221.37657.37657,0,0,0,.26633-.02666c.08964.01011.18112-.00058.27128.007a.01022.01022,0,0,0,.00456-.01966c-.05533-.018-.1116-.039-.16884-.05254a.45789.45789,0,0,0,.079-.07872c.02987.00238.06014.0023.08981.0058.03859.00456.07609.00661.115.0076.03654.00092.07261.003.10912.00088.02195-.00125.04476-.00055.06716-.00174a.233.233,0,0,1,.02673.08764.12532.12532,0,0,1,.00022.01293.29085.29085,0,0,0-.04611.09043.55944.55944,0,0,1-.01644.05424c-.00908.02022-.0309.02808-.04948.0388-.00833.0048-.00874.0206.00332.02075.015.00019.03057.0153.04708.0162a.06479.06479,0,0,0,.02512-.00364A.08343.08343,0,0,0,6.088,6.2167c.00986-.0233.01914-.0483.02744-.07377a.154.154,0,0,0,.025-.0943l.00085-.00408a.01872.01872,0,0,0-.00134-.01132.35692.35692,0,0,0-.00568-.0448.87735.87735,0,0,0-.0726-.191,3.48312,3.48312,0,0,1-.1547-.458c-.04472-.15537-.08583-.31189-.11887-.4702-.03354-.16071-.07956-.31943-.10327-.482-.00308-.02115-.03268-.01514-.03191.005a3.6517,3.6517,0,0,0,.0289.41759c-.02575.04389-.04878.08988-.07081.13537a.26615.26615,0,0,0-.02686.1716,1.34981,1.34981,0,0,0,.05347.17091.80135.80135,0,0,1,.03338.19081.63424.63424,0,0,1-.04613.36182.402.402,0,0,1-.28334.18477.27427.27427,0,0,1-.287-.16224.54269.54269,0,0,0,.011-.08427q.00872-.07634.0135-.15295a.80087.80087,0,0,0-.0194-.277.008.008,0,0,0-.01459.00044,1.505,1.505,0,0,0-.04057.27724c-.00439.04431-.00949.08856-.01418.13284-.02212-.04054-.04451-.08118-.0631-.12251a.00768.00768,0,0,0-.01455.00429,1.19225,1.19225,0,0,0,.04724.19523c.02232.06182.04795.12189.07554.18151.0275.05943.05492.11894.08043.17926q.02055.04859.03882.09811c.01085.02925.01513.06105.0428.07874a.02831.02831,0,0,0,.04223-.013.06269.06269,0,0,0,.005-.03016,1.00706,1.00706,0,0,0,.16744.02382,1.65874,1.65874,0,0,1,.27211.07064c.08651.02808.17305.05482.26154.076a.61287.61287,0,0,0,.26975.02682A.02277.02277,0,0,0,6.2199,6.48444Zm-.56-1.4524c.0108-.04451.02505-.088.03854-.13181.0285.14.06338.27872.10346.41581.04243.14516.087.29191.14219.4328a.957.957,0,0,0,.07149.13552L5.9989,5.88108A.61627.61627,0,0,0,5.867,5.87091a.62373.62373,0,0,0-.12428.01457l-.04187.0079a.45488.45488,0,0,0,.06164-.20622.93575.93575,0,0,0-.051-.41583A.38241.38241,0,0,1,5.65992,5.032Z" /><path d="M5.51956,5.53475A1.38212,1.38212,0,0,0,5.37,5.187,2.07379,2.07379,0,0,0,5.158,4.87825a.55022.55022,0,0,0-.19265-.15464.28367.28367,0,0,0,.12512-.18651c.00633-.03322-.04087-.0466-.05881-.022-.04352.05971-.05923.1338-.13645.16126a.16922.16922,0,0,1-.19659-.06707.14717.14717,0,0,1,.03569-.18561.22712.22712,0,0,0,.06512-.169c-.00077-.01487-.02359-.01111-.02283.00361.003.059-.07451.09453-.11127.12954a.20864.20864,0,0,0-.06211.10387.21442.21442,0,0,0,.04959.18812.5529.5529,0,0,0-.07331.08336c-.031.03762-.06161.07556-.09285.113-.00844.01011.00521.02769.01692.02068.0255-.01528.05048-.03132.0747-.04845a.30645.30645,0,0,0-.03871.18141.5523.5523,0,0,0,.01349.11155c.00783.03351.014.07876.05216.08862a.02781.02781,0,0,0,.03113-.00961c.01874-.02637.00782-.04891.00009-.07744a.57669.57669,0,0,1-.01839-.10807,1.06824,1.06824,0,0,0-.00288-.20447l-.00455-.0062.013-.01025c.01238-.01027.02708-.02212.04133-.03513l-.00336.0084a.00589.00589,0,0,0,.0078.00734.44773.44773,0,0,1,.12874-.03932.30029.30029,0,0,1,.12525.02412.53557.53557,0,0,1,.21527.20464,4.74744,4.74744,0,0,1,.33086.56548C5.48237,5.57443,5.52735,5.56513,5.51956,5.53475Z" /><path d="M6.51616,6.302a.44266.44266,0,0,0-.10006-.21815c-.02533-.03137-.05628-.05724-.08337-.087A.26426.26426,0,0,1,6.268,5.86382c-.0173-.08682-.01569-.177-.02763-.26467-.01331-.09773-.032-.19466-.05216-.29118-.04-.19122-.08451-.38115-.11076-.57495A3.56058,3.56058,0,0,0,5.99261,4.163a.28.28,0,0,0-.16949-.186l-.0246-.00706a.09038.09038,0,0,1,.04156-.01363.17717.17717,0,0,1,.05355.02363.35721.35721,0,0,0,.10758.03828.02907.02907,0,0,0,.02515-.04687.366.366,0,0,0-.09719-.065.17883.17883,0,0,0-.10413-.0331.37646.37646,0,0,0-.09456.03994c-.02488.01046-.05376.01354-.079.02268a.10424.10424,0,0,1-.0455-.0314.07292.07292,0,0,0,.02059-.00792A.39761.39761,0,0,0,5.721,3.79663a.02393.02393,0,0,0-.00715-.034l-.00345-.00373a.10828.10828,0,0,0-.05863-.01805L5.624,3.73475c-.00893-.00176-.01633-.00069-.0235-.00648-.01-.008-.02144.00821-.0115.01624.009.00726.01277.01953.02148.02787a.12421.12421,0,0,0,.02919.01973l.00109.00055a.20653.20653,0,0,1-.03525.01977A.1284.1284,0,0,1,5.517,3.79756a.48748.48748,0,0,1-.16639-.09033c-.00932-.00956-.03,0-.02184.01343a.547.547,0,0,0,.065.09915.27978.27978,0,0,0,.11009.06835.34929.34929,0,0,0,.057.01627.1346.1346,0,0,0,.05724.08182c.06863.046.15848.03914.22661.0885a.349.349,0,0,1,.099.24824c.01534.10265.02562.206.03805.30906.02421.20065.06707.39675.1105.59393.02123.09639.042.19292.05866.29022.01647.09608.02466.19292.03853.28928a.42713.42713,0,0,0,.11735.24984.67466.67466,0,0,1,.0973.12438,1.27555,1.27555,0,0,1,.06252.1369A.02615.02615,0,0,0,6.51616,6.302Z" /><path d="M6.30231,6.37712a.55318.55318,0,0,0-.06008-.07847c-.02514-.029-.05887-.0529-.082-.08288-.008-.01037-.02211.0021-.0154.0126.01951.0305.02969.06881.04773.10082.01523.027.03372.05291.04755.08061.02478.04963.01048.10974.04776.15389.01217.01441.04207.0089.042-.01267A.335.335,0,0,0,6.30231,6.37712Z" /><path d="M6.26806,6.19374a.01392.01392,0,0,0-.02339.01438c.02136.05294.05062.10046.07453.152a1.029,1.029,0,0,1,.03941.1572c.00818.02848.052.03245.05526-.00158A.40529.40529,0,0,0,6.26806,6.19374Z" /><path d="M6.45379,6.31893a.944.944,0,0,0-.09-.1269.01392.01392,0,0,0-.02339.01438c.01827.04125.04251.07921.06472.11841a.59561.59561,0,0,1,.04127.11159.02093.02093,0,0,0,.03842-.00117A.15607.15607,0,0,0,6.45379,6.31893Z" /><path d="M5.59358,4.53991a.02139.02139,0,0,0-.03736.01674c.01942.11524-.05885.28254-.19606.25944a.18312.18312,0,0,1-.128-.09837.22109.22109,0,0,1-.01341-.18008c.00451-.00935-.01093-.01766-.01623-.00858a.22934.22934,0,0,0-.03376.21672.2365.2365,0,0,0,.18853.15994.21879.21879,0,0,0,.22755-.10822C5.62527,4.72718,5.65908,4.60592,5.59358,4.53991Z" /><path d="M5.85821,2.92339c-.11684-.087-.23416-.17864-.38807-.12738a.63756.63756,0,0,0-.17954.10812.7698.7698,0,0,0-.16126.15177.88235.88235,0,0,0-.09575.19329,1.4401,1.4401,0,0,1-.10432.20736c-.08048.13263-.17842.25338-.25918.38579a1.13938,1.13938,0,0,0-.194.45551.022.022,0,0,0,.04231.00981c.02352-.06364.04457-.12854.07329-.19012a1.16816,1.16816,0,0,1,.10905-.18131c.08081-.11374.168-.22263.24676-.33794a1.95329,1.95329,0,0,0,.19179-.36261.51342.51342,0,0,1,.10462-.17137,1.25724,1.25724,0,0,1,.15428-.12674.31853.31853,0,0,1,.20987-.07689.58962.58962,0,0,1,.23783.08C5.85762,2.94721,5.86947,2.93177,5.85821,2.92339Z" /><path d="M5.87952,3.01351a.22042.22042,0,0,0-.29244-.042.48772.48772,0,0,0-.13064.09793.49622.49622,0,0,1-.1334.11432c-.00821.00382-.00474.01847.00468.01586a.89753.89753,0,0,0,.23307-.12583.37267.37267,0,0,1,.14965-.05653.245.245,0,0,1,.14192.03426C5.87679,3.06277,5.89069,3.03144,5.87952,3.01351Z" /><path d="M5.994,3.26021a.56044.56044,0,0,0-.01549-.09272c-.00917-.036-.02641-.07-.03366-.10629a.01409.01409,0,0,0-.02782.0044.34048.34048,0,0,1,.00292.07943.26893.26893,0,0,0-.1979.00046,1.31092,1.31092,0,0,0-.16019.06355.47358.47358,0,0,1-.17649.0532.0134.0134,0,0,0-.00267.02665.45876.45876,0,0,0,.13816.00443,1.063,1.063,0,0,0,.14146-.03473c.07183-.02151.17513-.06671.25008-.03281l-.003.03683c-.002.03787-.004.07565-.00668.11338a.59847.59847,0,0,1-.08719.14033.13628.13628,0,0,0-.021.14831.014.014,0,0,0,.0245-.00739.19089.19089,0,0,1,.0254-.104.4177.4177,0,0,1,.0446-.05381c-.00815.04707-.01976.09307-.0303.14a.26087.26087,0,0,0-.0001.17111c.00713.01208.02851.01989.0371.00371a.19887.19887,0,0,0,.016-.08175.49416.49416,0,0,1,.02235-.10022,1.565,1.565,0,0,0,.04811-.18059A.73054.73054,0,0,0,5.994,3.26021Z" /><path d="M5.71457,3.51048c-.01414-.00575-.02934-.00821-.04354-.014-.01479-.006-.02858-.00912-.03625-.02457a.01248.01248,0,0,0-.02282.0101.1682.1682,0,0,0,.02846.05729.08225.08225,0,0,0,.06851.02745A.02948.02948,0,0,0,5.71457,3.51048Z" /><path d="M5.7799,3.45222c-.00819-.07779-.11953-.0884-.17632-.06311-.00817.00364-.00693.018.0029.01812a.10885.10885,0,0,1,.0779.026.31121.31121,0,0,0,.06011.04793C5.76347,3.4908,5.78177,3.47,5.7799,3.45222Z" /><path d="M7.35568,6.0802a.05855.05855,0,0,0-.05.02383.22954.22954,0,0,0-.06636.00332.19467.19467,0,0,0-.06406-.04463.03723.03723,0,0,0-.01278-.029,1.31663,1.31663,0,0,1-.18082-.17945,1.34074,1.34074,0,0,0-.18219-.20056,1.08715,1.08715,0,0,0-.25406-.15024c-.04651-.02148-.08793-.04984-.13213-.07531L6.41,5.42639a1.30426,1.30426,0,0,0-.06591-.33228,1.8352,1.8352,0,0,0-.1269-.315,1.2192,1.2192,0,0,1-.07937-.3358c-.00953-.06006-.01854-.12022-.02858-.18019C6.09869,4.2,6.076,4.1399,6.06641,4.07681a.00742.00742,0,0,0-.01466.00232c.00526.0613-.00262.12289.00155.18447.00412.06084.00968.12162.01451.18241a1.13262,1.13262,0,0,0,.06413.33838,2.426,2.426,0,0,1,.1251.31531,2.4366,2.4366,0,0,0,.0706.28544c-.02131-.01007-.04259-.02028-.06337-.03184a.01184.01184,0,0,0-.01593.01708,1.05855,1.05855,0,0,0,.09995.12745.54178.54178,0,0,0,.127.08552,1.35665,1.35665,0,0,1,.27084.15791,1.53187,1.53187,0,0,1,.18153.20568l.01631.01933a1.057,1.057,0,0,0-.1165-.02257c-.04269-.00586-.08574-.00808-.12851-.01316-.043-.0051-.08531-.01693-.12839-.02049a2.353,2.353,0,0,1-.26831-.026c-.00857-.00172-.00963.01153-.00134.01339a2.21847,2.21847,0,0,1,.253.0845,1.08548,1.08548,0,0,0,.24213.03933,1.06468,1.06468,0,0,1,.23282.05737c.037.01292.074.02544.11007.04079l.02941.0137a.2034.2034,0,0,0-.08891.09419c-.01839.04173-.00937.09143-.02932.13106-.02929.05817-.13818.07817-.19642.078a.009.009,0,0,0-.0018.018c.09962.01894.25111.02544.28171-.09822a.29054.29054,0,0,0,.00809-.06475.20693.20693,0,0,1,.00166-.07948c.01914-.04111.08319-.04925.13613-.05573-.00933.02808-.01492.05781-.02066.07746-.00373.01278.01574.02016.01951.00726a.16594.16594,0,0,1,.052-.07254c.01885-.01774.04478-.0338.047-.06168A.02448.02448,0,0,0,7.35568,6.0802Z" /><path d="M8.053,6.38557a.43013.43013,0,0,0-.21424-.20418c-.05748-.0243-.11921-.03457-.17848-.05319A.25242.25242,0,0,1,7.513,6.04685c-.00557-.00855-.01971.00034-.01524.00937a.26656.26656,0,0,0,.08119.103.288.288,0,0,0,.08657.04175.21657.21657,0,0,0-.036.049.4344.4344,0,0,1-.0337.04706.21187.21187,0,0,1-.04328.04549c-.01057.00652.00052.0212.0108.01757a.39124.39124,0,0,0,.05946-.01833.22041.22041,0,0,0,.04467-.03013c.02188-.01973.06346-.06206.05087-.09556l.0249.00682a.54441.54441,0,0,1,.28011.18087C8.03527,6.419,8.06242,6.40327,8.053,6.38557Z" /><path d="M8.14818,6.66629c-.00336-.03445-.0059-.06929-.01182-.10343a.44432.44432,0,0,0-.0347-.09569c-.00518-.01244-.02381-.004-.019.00842a.27982.27982,0,0,1,.00313.11657.8634.8634,0,0,1-.01686.12688.64626.64626,0,0,1-.06008.19163.41338.41338,0,0,1-.276.19874.63607.63607,0,0,1-.21272-.00679.42552.42552,0,0,1-.175-.05858c-.05585-.03776-.07759-.10428-.12547-.1498a.12432.12432,0,0,0-.16378-.02615.027.027,0,0,0,.01426.04727c.066.002.09317.0549.12233.10564a.32389.32389,0,0,0,.11243.122.7076.7076,0,0,0,.33747.07564.47993.47993,0,0,0,.5058-.5524Z" /><path d="M7.60028,6.60479c-.02809.02831-.10313.01174-.13353-.004C7.43,6.58169,7.414,6.55015,7.3864,6.52213a.0171.0171,0,0,0-.02979.009c-.03012.14056.26969.24015.2797.093C7.63749,6.60673,7.61459,6.59037,7.60028,6.60479Z" /><path d="M7.88645,6.32361a.01826.01826,0,0,0-.02084-.01515.149.149,0,0,0-.06247.02462.10011.10011,0,0,0-.02158.07986.24168.24168,0,0,1-.00931.063c-.00625.02084-.0185.0232-.038.03-.04353.01514-.08756.02749-.13078.043a.01074.01074,0,0,0,.0006.0197c.06993.02015.21228.04157.24508-.0488a.13575.13575,0,0,0,.00422-.06141c-.00238-.022-.01877-.05349-.015-.07513C7.84361,6.35373,7.88814,6.36352,7.88645,6.32361Z" /><path d="M7.41075,6.74186c-.03108-.06438-.12261-.07367-.18624-.07259a.48817.48817,0,0,0-.21693.055c-.01093.00554-.00679.02436.00635.02155a.61527.61527,0,0,1,.19383.00034.53948.53948,0,0,1,.08571.01446.30923.30923,0,0,0,.08716.02288A.0301.0301,0,0,0,7.41075,6.74186Z" /><path d="M7.36751,6.91735a.13146.13146,0,0,0-.06941-.09359.1965.1965,0,0,0-.05232-.02324c-.01953-.00515-.03947-.00272-.05889-.00708-.01392-.00313-.016.019-.00221.02208a.20812.20812,0,0,1,.07887.05849.62975.62975,0,0,0,.06427.068A.02565.02565,0,0,0,7.36751,6.91735Z" /><path d="M7.58986,6.17809a.073.073,0,0,0-.04467.01222.14446.14446,0,0,0-.03.0298.08826.08826,0,0,0-.0235.06927.01059.01059,0,0,0,.01139.0062c.01933-.00509.03479-.02433.05077-.03587a.19346.19346,0,0,0,.05217-.0461C7.61479,6.20086,7.60761,6.17784,7.58986,6.17809Z" /><path d="M6.679,6.14679a.3137.3137,0,0,0-.12026-.02792c-.01108,0-.022.0135-.0125.0233a.95407.95407,0,0,0,.1517.09994.02617.02617,0,0,0,.0404-.02509A.0818.0818,0,0,0,6.679,6.14679Z" /></svg>