<svg xmlns="http://www.w3.org/2000/svg" data-name="Layer 1" viewBox="1.4505350620527226 2.238758826465873 7.098925121094624 5.523064024169749" x="0px" y="0px"><title>KAMASUTRA</title><path d="M5.347,5.393c-.066-.04648-.13185-.091-.2009-.13281-.066-.04-.13182-.07983-.196-.12264a4.06191,4.06191,0,0,1-.37739-.28469,1.10132,1.10132,0,0,1-.15792-.15561,1.05667,1.05667,0,0,1-.10931-.2081,3.6331,3.6331,0,0,0-.25656-.36681A1.639,1.639,0,0,1,3.931,3.88645c-.01894-.04432-.03719-.08894-.05785-.1325-.02165-.04564-.04789-.08839-.07163-.13291-.00411-.0077-.01775-.00422-.01522.005.02287.08379.04473.16543.07507.247a2.07314,2.07314,0,0,0,.09493.22369,1.2293,1.2293,0,0,0,.12957.197,1.32467,1.32467,0,0,1,.13439.19041c.03712.06982.0608.14621.10306.21338a.82259.82259,0,0,0,.15265.172,3.79519,3.79519,0,0,0,.37877.29755q.11257.07746.23034.147a1.27992,1.27992,0,0,0,.24614.1109A.01807.01807,0,0,0,5.347,5.393Z" /><path d="M5.77586,5.82968a.31315.31315,0,0,0-.15431-.1561,1.19167,1.19167,0,0,1-.1053-.07389C5.5,5.58715,5.48444,5.57393,5.46858,5.561c-.01824-.01491-.03948-.02612-.0573-.041-.00987-.00826-.01966.00678-.01369.01562.01179.01745.01994.03635.03328.053a.53121.53121,0,0,0,.04222.04486.91571.91571,0,0,0,.0963.08156.74952.74952,0,0,1,.17642.13449C5.75876,5.86746,5.782,5.84733,5.77586,5.82968Z" /><path d="M8.03151,7.26054a.35941.35941,0,0,0-.13857-.08724.4969.4969,0,0,0-.17545-.01742c-.068.00481-.13356.01784-.20209.01657-.06821-.00127-.13663-.00645-.20466-.01149-.27427-.02031-.54887-.03587-.82205-.06858q-.11284-.01351-.22526-.02971c-.039-.00561-.07865-.01361-.11793-.01646a.391.391,0,0,0-.04916-.00235,2.39617,2.39617,0,0,0,.07239-.35123c.01427-.10127.02424-.20276.03239-.30468a1.28266,1.28266,0,0,0-.00987-.32745.79123.79123,0,0,1-.01778-.16737c.00216-.05333.01241-.10589.01784-.15891a.8566.8566,0,0,0-.0235-.30533A.57874.57874,0,0,0,5.834,5.012a.72177.72177,0,0,0-.55972.0479c-.02736-.03477-.05391-.07017-.08063-.10545a1.27411,1.27411,0,0,0-.27553-.28293,1.17684,1.17684,0,0,1-.15139-.11531A.312.312,0,0,1,4.674,4.38266a1.8672,1.8672,0,0,0-.03835-.21942,1.29139,1.29139,0,0,0-.08034-.19087,1.37126,1.37126,0,0,1-.09273-.218.60268.60268,0,0,1-.02346-.1119.40637.40637,0,0,0-.01855-.12827.0096.0096,0,0,0-.01808.00347.73867.73867,0,0,0-.003.2298.823.823,0,0,0,.07281.196c.03071.06434.06391.12772.08867.1947a.9889.9889,0,0,1,.04111.22648.38935.38935,0,0,0,.07271.19366.64734.64734,0,0,0,.14919.12817,1.30312,1.30312,0,0,1,.15448.11748,1.3522,1.3522,0,0,1,.13768.15733c.04655.06034.091.12235.1396.18107a.72648.72648,0,0,0,.17981.14588c.01329.00847.0245-.01013.01316-.01987A1.29068,1.29068,0,0,1,5.31723,5.113l-.01-.01224c.0685-.01143.1357-.035.20463-.04382a.63659.63659,0,0,1,.24285.01188.418.418,0,0,1,.20249.11827.593.593,0,0,1,.12629.2363.8073.8073,0,0,1,.03079.28939c-.00388.04938-.01284.0982-.0168.14757a.65.65,0,0,0,.00765.15382c.00787.04979.01893.09911.02412.1493a.97539.97539,0,0,1,.00013.162c-.00613.09639-.01425.19279-.02185.28908a2.40955,2.40955,0,0,1-.12312.628q-.07358.001-.14712.003a.75772.75772,0,0,1-.11357.0009A.145.145,0,0,1,5.645,7.19963c-.041-.03628-.11433-.07549-.15594-.01879a.01627.01627,0,0,0,.0164.02466c.06014-.00673.09212.06179.135.0915a.28573.28573,0,0,0,.18008.02629q.21778-.0074.43573-.005c.28645.003.57377.012.85913.03755.16352.01464.32718.02873.4904.04649.0245.00267.02587-.03336.00258-.03748A8.59421,8.59421,0,0,0,6.021,7.2421a1.32342,1.32342,0,0,0,.0596-.14872.33815.33815,0,0,0,.03588.01293.69566.69566,0,0,0,.09709.02183c.0652.0122.13091.02163.19665.03052.13332.018.26742.03074.40154.04119.13428.01046.26879.01955.40339.02445a2.75136,2.75136,0,0,0,.40053.006.84436.84436,0,0,1,.21007-.018.52872.52872,0,0,1,.09192.02466.41135.41135,0,0,1,.09789.04183C8.02662,7.28592,8.04213,7.27007,8.03151,7.26054Z" /><path d="M6.03766,5.54357c-.03755-.02943-.079-.05153-.119-.07733-.03015-.01949-.05858-.04329-.09036-.06041.02544-.00576.04825-.01508.07388-.02327a.00985.00985,0,0,0-.00367-.01933.60584.60584,0,0,1-.08849-.0021c-.0274-.00128-.055-.00247-.08228-.00522a1.21373,1.21373,0,0,1-.1655-.03306.01837.01837,0,0,0-.01279.00147.23473.23473,0,0,0-.029-.00571.01026.01026,0,0,0-.00836.0168.38367.38367,0,0,0,.1201.07051,1.31471,1.31471,0,0,0,.14159.04445.67823.67823,0,0,1,.12224.07775.36975.36975,0,0,0,.12886.05308C6.047,5.58528,6.052,5.55479,6.03766,5.54357Z" /><path d="M5.88144,5.82483A.28849.28849,0,0,0,5.81118,5.71l-.04391-.05092c-.01415-.016-.04437-.03856-.046-.06145a.00974.00974,0,0,0-.01868-.00129c-.0096.0462.02322.08348.0467.12112A.35052.35052,0,0,0,5.8526,5.844.019.019,0,0,0,5.88144,5.82483Z" /><path d="M5.95884,5.77868a.35058.35058,0,0,0-.0788-.148.38089.38089,0,0,0-.05873-.05744C5.79757,5.554,5.77,5.54311,5.746,5.52491c-.00865-.00656-.01769.00736-.00928.014a.38766.38766,0,0,1,.053.0633c.01694.021.033.04276.04946.06407.03184.04113.05628.08685.08877.12743A.018.018,0,0,0,5.95884,5.77868Z" /><path d="M4.93335,5.27669c-.053.01343-.10615.02408-.15829.041a1.53317,1.53317,0,0,0-.15295.06041q-.15127.0678-.296.14882-.08645.04838-.16891.10225a.53.53,0,0,1-.06478-.188.40439.40439,0,0,1,.00718-.22516c.01607-.049.035-.09688.04857-.14646a.78824.78824,0,0,0,.04543.07918c.01006.01638.04067.01042.03479-.01144-.01256-.04668-.02321-.09547-.03119-.14318-.00811-.04852.00248-.09765-.003-.14644l-.00372-.02222a.01273.01273,0,0,0,.00454-.01224.92928.92928,0,0,0-.03635-.13859.68758.68758,0,0,0-.05512-.132,1.37556,1.37556,0,0,0-.183-.231A.828.828,0,0,1,3.759,4.0633a1.73865,1.73865,0,0,1-.10646-.29715.88558.88558,0,0,1,.00529-.38159c.0027-.01142-.0147-.01743-.01743-.00588a1.22141,1.22141,0,0,0-.05646.32557.97715.97715,0,0,0,.07883.31411,1.01746,1.01746,0,0,0,.14087.27183c.06384.08145.14179.14949.20121.23486.02971.04269.05787.08627.08376.13111a1.70294,1.70294,0,0,1,.04157.19536c.00006.00605,0,.01207-.00023.01808a.53568.53568,0,0,1-.03324.171,1.43938,1.43938,0,0,0-.08189.21268.53815.53815,0,0,0,.01641.2461l.006.024-.0099.0087a2.01487,2.01487,0,0,1-.14577.15976c-.01254.01254-.12215.10255-.096.11861.02207.01355.05021-.01161.06836-.02306a.8247.8247,0,0,0,.08417-.06185.96158.96158,0,0,0,.12692-.1295l.00112.002a.12544.12544,0,0,0,.05707.05372,2.49151,2.49151,0,0,0-.32878.26409c-.00741.00709.001.0223.01055.016.18048-.1183.36468-.233.55379-.337q.14057-.07736.28691-.14381c.05029-.02285.101-.04431.15076-.06842.04956-.024.09731-.05156.1472-.0748C4.96027,5.3001,4.95183,5.272,4.93335,5.27669Z" /><path d="M3.72482,5.9417c-.12428.02706-.253.01968-.37817.04091a.899.899,0,0,0-.32142.12625,3.23983,3.23983,0,0,0-.53113.46662c-.0473.04623-.09565.09168-.14575.13488-.026.02245-.05262.04456-.08.06535a.9811.9811,0,0,1-.08581.06833c-.00969.00574-.00277.021.00769.016.02709-.013.05632-.01848.08275-.03278.02506-.01356.04972-.0284.07356-.044a1.47741,1.47741,0,0,0,.14324-.10674c.09153-.07716.17508-.163.26117-.246a1.26358,1.26358,0,0,1,.57525-.365,1.79072,1.79072,0,0,0,.41276-.081A.02288.02288,0,0,0,3.72482,5.9417Z" /><path d="M2.13571,6.86064c-.03479-.068-.12726-.05661-.18568-.02857a.17479.17479,0,0,0-.08687.076c-.01641.035-.00913.07326-.03364.10533a.51964.51964,0,0,1-.09189.082c-.03469.02791-.07.0559-.10245.0864a.29512.29512,0,0,0-.105.18391c-.0012.01138.01689.01773.02034.00561a.3012.3012,0,0,1,.12419-.14458,2.188,2.188,0,0,0,.17768-.13909A.21617.21617,0,0,0,1.908,7.01347c.0116-.02839.00574-.0659.02767-.08884a.162.162,0,0,1,.08-.04192.14149.14149,0,0,1,.08453.01265C2.12,6.90272,2.14693,6.88256,2.13571,6.86064Z" /><path d="M3.70388,5.81643c-.12521.02237-.25355.01016-.37944.02666a.899.899,0,0,0-.32595.11407,3.23983,3.23983,0,0,0-.5483.44632c-.049.04442-.099.088-.15072.1293-.02687.02146-.05426.04255-.08242.06229a.9811.9811,0,0,1-.08832.06506c-.0099.00537-.00356.02091.00708.01629.02756-.012.057-.01635.08393-.02964.02556-.0126.05075-.02651.07516-.0412A1.47741,1.47741,0,0,0,2.442,6.5043c.09437-.07366.18109-.15627.27024-.236a1.26358,1.26358,0,0,1,.58857-.34307,1.79072,1.79072,0,0,0,.41552-.0654A.02288.02288,0,0,0,3.70388,5.81643Z" /><path d="M2.07477,6.68915c-.03221-.06924-.125-.06136-.18448-.03553a.17479.17479,0,0,0-.08967.07271c-.01772.03437-.01188.07287-.03758.104a.51964.51964,0,0,1-.09491.07846c-.03571.02659-.072.05323-.10562.08248a.29512.29512,0,0,0-.11187.17983c-.00163.01133.01621.01836.02012.00637a.3012.3012,0,0,1,.12954-.13981,2.188,2.188,0,0,0,.18279-.13231.21617.21617,0,0,0,.05838-.072c.01266-.02794.00821-.06563.031-.08773A.162.162,0,0,1,1.954,6.7067a.14149.14149,0,0,1,.084.01582C2.05748,6.73061,2.08516,6.71148,2.07477,6.68915Z" /><path d="M5.19177,7.63043c-.05455.06482-.14835.054-.22342.04446q-.1363-.01732-.27323-.029c-.18436-.01594-.36932-.02433-.55426-.02954C3.7742,7.606,3.40734,7.609,3.04066,7.60019c-.0472-.00114-.09432-.00221-.14147-.00491-.05051-.00289-.09907-.01489-.14917-.0197-.07049-.00678-.16906.013-.18222.09544a.0204.0204,0,0,0,.03346.01664.12454.12454,0,0,1,.0822-.042.53339.53339,0,0,1,.13532.02487,1.38522,1.38522,0,0,0,.2615.0205c.18343.0032.3669.00361.55036.00445.36651.00168.73326.00559,1.09877.03523q.07985.00648.15953.01477c.04851.00508.09727.01326.146.015a.18593.18593,0,0,0,.12963-.03276.11223.11223,0,0,0,.05073-.08929A.013.013,0,0,0,5.19177,7.63043Z" /><path d="M5.63462,5.941a.6368.6368,0,0,0-.20512.02223c-.06947.01515-.13817.03366-.20627.054-.03917.01171-.07811.02418-.11693.037L5.09821,6.057c-.0927.03081-.18469.06384-.27716.09524a3.09863,3.09863,0,0,1-.40112.11148,4.16422,4.16422,0,0,1-.43971.04265,2.28875,2.28875,0,0,0-.8055.22836c-.23235.11364-.44989.2546-.673.38476-.12417.07243-.25052.13949-.37851.20479a2.05992,2.05992,0,0,1-.40411.16651.00713.00713,0,0,0,.00266.014,2.4849,2.4849,0,0,0,.36675-.0993,2.3261,2.3261,0,0,0,.34825-.16665c.22418-.12521.44074-.26377.6697-.38044a2.45629,2.45629,0,0,1,.7799-.25767c.124-.01707.24933-.01933.37378-.03154a.2258.2258,0,0,0,.02309.05317c.026.04762.05363.09444.08043.14163.04737.0834.09533.16653.15067.245a.02594.02594,0,0,0-.00945.01075.27782.27782,0,0,0-.0117.085.28966.28966,0,0,1-.0218.09137c-.00588.01273.01492.02278.02208.01081a.3528.3528,0,0,0,.061-.14237A1.19561,1.19561,0,0,1,4.7127,7.124l-.01033-.00217a.32747.32747,0,0,0-.0734.0012.80489.80489,0,0,0-.12889.02288c-.06153.0158-.12168.03615-.182.05607l-.0022-.007a.475.475,0,0,0-.04626-.0658.16558.16558,0,0,1-.02167-.067.16864.16864,0,0,1,.03493-.14064.01688.01688,0,0,0-.02216-.02543.22035.22035,0,0,0-.089.15516.20752.20752,0,0,0,.01726.09524c.013.03038.03863.05149.05361.07981l-.00269.00085c-.02471.00758-.04952.01424-.07441.02017a.03878.03878,0,0,0-.01259-.01715c-.05235-.04174-.043-.12687-.0456-.18574a.01743.01743,0,0,0-.03375-.00673.22472.22472,0,0,0,.00968.22668c-.08823.01569-.17738.024-.267.03111.00146-.01044.00353-.02108.00388-.02953a.38948.38948,0,0,1,.00615-.05146.35435.35435,0,0,1,.02894-.09138.39242.39242,0,0,1,.13507-.15567.58209.58209,0,0,1,.20191-.08111c.03623-.008.07275-.01424.10948-.01937a.23567.23567,0,0,1,.11242.00373c.02268.00825.03536-.02267.01777-.03631a.33176.33176,0,0,0-.24968-.02669.60494.60494,0,0,0-.24528.09849.42122.42122,0,0,0-.15267.193.32774.32774,0,0,0-.02356.11947.27406.27406,0,0,0,.00661.059.08066.08066,0,0,0,.0088.021L3.71889,7.303a.13934.13934,0,0,0,.02249-.08755.18842.18842,0,0,0-.06093-.12821.2137.2137,0,0,0-.27529.00718.0088.0088,0,0,0,.00735.01514c.075-.00722.1534-.03487.21744.02219a.127.127,0,0,1,.04327.083.216.216,0,0,1-.01252.093c-.03828.00336-.07666.00746-.11442.01424A.22333.22333,0,0,0,3.405,7.17259a.25135.25135,0,0,0-.13565.01921.49911.49911,0,0,0-.12059.0625.74573.74573,0,0,1-.10464.08442.48271.48271,0,0,1-.13867.01633.7193.7193,0,0,0-.14714.03159.4038.4038,0,0,0-.06481.02663c-.02251.01214-.04086.027-.06191.04091-.00943.00623-.00064.021.00924.019.0455-.00918.0928-.01358.13869-.02206.043-.00793.086-.01481.12951-.019a1.12314,1.12314,0,0,0,.13268-.00938.22288.22288,0,0,0,.104-.06174.37722.37722,0,0,1,.20962-.10651.09059.09059,0,0,1,.08434.04631c.01012.01341.01976.02639.02982.03876a.22534.22534,0,0,0-.07552.03711.02153.02153,0,0,0,.01251.03724A.63452.63452,0,0,0,3.5768,7.405q.08717-.00944.17462-.01542a3.14453,3.14453,0,0,0,.34876-.03489A2.77782,2.77782,0,0,0,4.43,7.25917a1.4189,1.4189,0,0,1,.16368-.04253c.02732-.00513.05488-.00859.08254-.01119a.45245.45245,0,0,0,.058-.01195.39328.39328,0,0,1,.0085.12285c-.00095.01048.01553.01746.02065.007.09154-.18684-.04036-.37027-.1482-.51605a2.6911,2.6911,0,0,1-.16537-.259l-.08158-.14108c-.0092-.0159-.01832-.03208-.02843-.04752a2.53938,2.53938,0,0,0,.40223-.09646c.1143-.03585.22764-.07466.34159-.11158.00114.02065.00326.0412.005.06076q.00687.07561.01854.15055c.01519.09822.033.196.05054.29376a4.66219,4.66219,0,0,1,.07918.58742,2.03448,2.03448,0,0,0,.01761.32668A.01331.01331,0,0,0,5.28,7.57256a.64109.64109,0,0,0,.03674-.28982c-.00351-.09961-.0128-.199-.02621-.29772-.014-.10308-.03167-.20558-.05035-.30791a.20151.20151,0,0,1,.09506-.16018.3813.3813,0,0,1,.11237-.04057.67159.67159,0,0,1,.14965-.02827c.012.0002.01336-.01847.00129-.01867A.81232.81232,0,0,1,5.51,6.41468a.34627.34627,0,0,0-.09106.00013.32089.32089,0,0,0-.14126.05565.25205.25205,0,0,0-.06363.06533q-.01327-.07118-.02616-.1424c-.00989-.05524-.019-.1106-.02917-.1658-.00563-.03064-.00992-.06307-.01643-.09471l.0473-.0148c.04733-.01458.0948-.02863.1426-.04148.02171.04351.04155.08737.06036.13224.00948.02263.01809.04543.02684.06836a.42913.42913,0,0,1,.03068.07389c.00174.01021.01656.007.01556-.003-.00288-.0287.00535-.05763.00258-.087a.52344.52344,0,0,0-.01266-.073.58048.58048,0,0,0-.04936-.13025l.00917-.0022a2.34328,2.34328,0,0,0,.23122-.05228C5.67982,5.992,5.66417,5.94423,5.63462,5.941Z" /><path d="M7.83989,7.58782a5.06809,5.06809,0,0,0-1.02325-.05317q-.2526.008-.50442.03167c-.16193.01526-.323.03835-.48484.054a2.33671,2.33671,0,0,1-.27014.01247c-.04272-.00083-.08508-.005-.1277-.00712-.046-.0023-.09142-.002-.13741-.007-.00959-.001-.01071.01187-.00308.01541a.9646.9646,0,0,0,.10871.04376.58849.58849,0,0,0,.12284.0209,1.522,1.522,0,0,0,.23578.00288c.16022-.00915.319-.03365.47846-.0505A8.15333,8.15333,0,0,1,7.26089,7.609c.19218.004.38422.01271.57638.01689A.01912.01912,0,0,0,7.83989,7.58782Z" /><path d="M4.13837,3.1665a.12525.12525,0,0,0-.0797.00406.38219.38219,0,0,0-.165.10213.00876.00876,0,0,0,.0095.01444.64843.64843,0,0,1,.14346-.04426.18643.18643,0,0,1,.05924-.00513.16844.16844,0,0,0,.04777.00854.02808.02808,0,0,0,.02159-.01881A.05057.05057,0,0,0,4.13837,3.1665Z" /><path d="M4.79385,3.21907c-.03266-.0147-.06937-.01833-.10333-.03027a.39485.39485,0,0,1-.10117-.05206A.57065.57065,0,0,1,4.51514,3.069a.22629.22629,0,0,1-.05887-.08621c-.00288-.01006-.01878-.00732-.01619.00308a.52314.52314,0,0,0,.03091.10667.1837.1837,0,0,0-.04608.09333.42554.42554,0,0,0,.002.11c.00066.00978.01775.00886.01727-.001a.27415.27415,0,0,1,.06163-.15124.33237.33237,0,0,0,.046.04184.42843.42843,0,0,0,.10949.05959.26476.26476,0,0,0,.12928.02274C4.81749,3.26346,4.81513,3.22865,4.79385,3.21907Z" /><path d="M5.31869,4.97787a1.13032,1.13032,0,0,1-.04159-.1255.53717.53717,0,0,0-.05887-.10242,1.44622,1.44622,0,0,0-.16023-.184.91337.91337,0,0,1-.1565-.19926,1.28213,1.28213,0,0,1-.06023-.13127C4.831,4.21029,4.82,4.18468,4.80984,4.15887c-.00155-.02956-.00357-.05909-.00551-.08862a.35313.35313,0,0,0-.01691-.10944.1891.1891,0,0,0,.01675-.09206,1.01068,1.01068,0,0,0-.068-.21284,2.34327,2.34327,0,0,0-.05547-.22832c-.0202-.05043-.06251-.13027-.11952-.14567-.00665-.0018-.01464.00509-.01065.012.0145.02522.03546.04529.04861.07177a.34277.34277,0,0,1,.02634.08478c.01387.06733.0197.13618.03651.20294.01581.06278.04936.11831.067.18013a.18705.18705,0,0,1-.03562.1732.021.021,0,0,0,.02762.0317l.01626-.01255c.00071.01864.00267.03742.00409.05628.00361.04806.00708.0961.013.14395a.89637.89637,0,0,0,.0516.26566c.00475.0104.0195.00278.01572-.00755a.44153.44153,0,0,1-.00809-.14069L4.81326,4.3117a.70878.70878,0,0,0,.027.07292.73374.73374,0,0,0,.1507.21056c.05729.05967.1216.11446.17507.17753a.50567.50567,0,0,1,.06638.10112.615.615,0,0,0,.06418.11859C5.3059,5.004,5.32609,4.99112,5.31869,4.97787Z" /><path d="M4.69074,5.18451a.37318.37318,0,0,0-.11256-.11809.314.314,0,0,0-.06775-.03588.37282.37282,0,0,0-.03937-.01284c-.01547-.004-.032-.00051-.04714-.00523a.009.009,0,0,0-.00577.01713.17331.17331,0,0,1,.03479.02513l.03072.02014c.019.01331.0376.02714.05621.041a.94159.94159,0,0,1,.106.09818C4.66606,5.23453,4.707,5.21239,4.69074,5.18451Z" /><path d="M5.27993,2.601a.31587.31587,0,0,0-.143-.2487.64935.64935,0,0,0-.15221-.06708.908.908,0,0,0-.17045-.04267.37687.37687,0,0,0-.2822.07367.482.482,0,0,0-.10792.11605.5288.5288,0,0,0-.07132.14134c-.00257.0093.00909.01762.01532.00869.0228-.03269.04138-.06785.06695-.09865a.65381.65381,0,0,1,.08631-.08532.36793.36793,0,0,1,.22-.08867.74329.74329,0,0,1,.28665.06878.28882.28882,0,0,1,.17609.17632.26921.26921,0,0,1,.01435.07493.40486.40486,0,0,0-.10343-.05785.15517.15517,0,0,0-.12285.014.22372.22372,0,0,0-.08283.08225c-.014.022-.02274.02452-.04848.02459a.24987.24987,0,0,1-.08032-.006.01045.01045,0,0,0-.0075.01948.25734.25734,0,0,0,.1206.04345c.04108-.00336.0572-.03878.08-.06791a.12824.12824,0,0,1,.10812-.05215c.04408.0066.08263.04539.12393.06143l.0089.00185a.27214.27214,0,0,1-.06892.14094c-.01281.01352.00314.03676.0183.02386A.3185.3185,0,0,0,5.27993,2.601Z" /><path d="M4.25627,2.78878c-.02256.02452-.04749.047-.06923.0722a.95874.95874,0,0,1-.06984.07745.78617.78617,0,0,1-.16151.113.9308.9308,0,0,0-.15831.09437.4914.4914,0,0,0-.10555.14151c-.00511.00914.00816.01826.01374.0091a.35479.35479,0,0,1,.14692-.10939c.0544-.03065.11032-.05857.16455-.08951a.45509.45509,0,0,0,.14228-.11541c.043-.056.07963-.11569.11852-.17447C4.28652,2.79458,4.26763,2.77643,4.25627,2.78878Z" /><path d="M4.69652,2.63966a.10779.10779,0,0,0-.07109-.0458.09964.09964,0,0,0-.051.0092.37358.37358,0,0,0-.08613.019c-.02693.00894-.05251.02112-.07955.02992a.255.255,0,0,1-.101.02718.00856.00856,0,0,0-.00118.01708c.02854.003.05609.01422.08477.01541a.20211.20211,0,0,0,.08084-.0183.33342.33342,0,0,0,.04712-.02412.22265.22265,0,0,0-.00855.06555.55169.55169,0,0,0,.01436.134c.00643.02614.04971.02691.04954-.003a1.26156,1.26156,0,0,1-.002-.16023.07675.07675,0,0,1,.03006-.05636.06679.06679,0,0,1,.08084.00165C4.69121,2.65879,4.704,2.64786,4.69652,2.63966Z" /><path d="M5.09054,2.47692c-.04606-.018-.08756-.04782-.13365-.06682A.39191.39191,0,0,0,4.81108,2.377a.44479.44479,0,0,0-.14612.02513.74658.74658,0,0,0-.13891.06993c-.01817.01054-.01083.043.01223.0372.04483-.01133.09015-.02049.135-.03177a.66172.66172,0,0,1,.13779-.0228.73586.73586,0,0,1,.13513.00878.66984.66984,0,0,1,.13863.03025C5.09551,2.49791,5.10118,2.48108,5.09054,2.47692Z" /><path d="M5.06576,2.91855a.13427.13427,0,0,1-.048-.02234.09891.09891,0,0,0-.0432-.0221.01344.01344,0,0,0-.014.01581.06035.06035,0,0,0,.04232.03677.25057.25057,0,0,0,.06171.00958C5.076,2.93762,5.077,2.92017,5.06576,2.91855Z" /><path d="M5.09976,2.81958a.10514.10514,0,0,0-.07-.037.26737.26737,0,0,0-.09906.0162.00745.00745,0,0,0,.00278.01462.18424.18424,0,0,1,.09734.01314c.01981.01027.02878.03511.05257.03591a.01964.01964,0,0,0,.01909-.01274l.00228-.00491A.02563.02563,0,0,0,5.09976,2.81958Z" /><path d="M5.0208,2.97821a.1449.1449,0,0,0-.01624.122.01332.01332,0,0,0,.0244-.0015.31746.31746,0,0,0,.00421-.05533l.00389-.05966A.00894.00894,0,0,0,5.0208,2.97821Z" /><path d="M4.89735,3.11722a.13182.13182,0,0,0-.05075-.031.17569.17569,0,0,1-.05211-.03662c-.008-.00912-.02043.00257-.01387.01208a.30529.30529,0,0,0,.045.0576.07857.07857,0,0,0,.062.02612A.01743.01743,0,0,0,4.89735,3.11722Z" /><path d="M8.54865,7.58366c-.03578-.13707-.18725-.19118-.3028-.24227a.40485.40485,0,0,0-.10719-.038.44665.44665,0,0,0-.12143.00879c-.03935.00554-.07876.01067-.11781.01805a.32621.32621,0,0,0-.11773.0332.01084.01084,0,0,0,.00121.01974.24493.24493,0,0,0,.09411.01243c.03744.00059.07465.00029.11207-.00078.03486-.001.07-.00353.10488-.0026a.26737.26737,0,0,1,.10323.03169.85814.85814,0,0,1,.30769.181C8.52067,7.62278,8.55517,7.60866,8.54865,7.58366Z" /><path d="M8.33993,7.60664C8.309,7.5607,8.21128,7.584,8.16546,7.58784c-.03137.00262-.063.00456-.09422.00859-.034.0044-.065.01632-.09818.02375a.01111.01111,0,0,0,.00131.02189c.03174.00627.06174.01668.09411.02085.03365.00433.068.00516.10188.00718.04782.00285.14175.02251.172-.02612A.0323.0323,0,0,0,8.33993,7.60664Z" /></svg>